<svg width="30" height="30" viewBox="0 0 60 60" fill="none" xmlns="http://www.w3.org/2000/svg">
<g opacity="0.5">
<path fill-rule="evenodd" clip-rule="evenodd" d="M39.249 7.7558L36.6463 10.3585C39.6494 12.3606 41.6515 15.9644 41.6514 19.9684H17.6264C17.6264 15.9642 19.6285 12.5607 22.4314 10.3584L19.8287 7.75573C19.6285 7.35539 19.6285 6.55456 19.8287 6.15406C20.2291 5.95386 21.0299 5.95386 21.4303 6.15406L24.2333 9.15719C25.8349 8.35644 27.6368 7.95594 29.6389 7.95594C31.641 7.95594 33.4428 8.35644 34.8443 9.35747L37.8474 6.35435C38.2479 5.95386 38.8485 5.95386 39.249 6.35435C39.6494 6.75477 39.6494 7.35539 39.249 7.7558ZM19.6268 44.0006C18.4256 44.0006 17.6248 43.1998 17.6248 41.9985V21.9777H41.6498V41.9985C41.6498 43.1998 40.8489 44.0006 39.6477 44.0006H37.6456V51.0079C37.6456 52.6096 36.2441 54.011 34.6425 54.011C33.0408 54.011 31.6394 52.6096 31.6394 51.0079V44.0006H27.6352V51.0079C27.6352 52.6096 26.2337 54.011 24.6321 54.011C23.0304 54.011 21.6289 52.6096 21.6289 51.0079V44.0006H19.6268ZM25.6323 15.9675H23.6302V13.9654H25.6323V15.9675ZM33.6423 15.9675H35.6444V13.9654H33.6423V15.9675Z" fill="#3757FF"/>
<path opacity="0.4" d="M12.6191 21.9688C11.0174 21.9688 9.61597 23.3703 9.61597 24.9719V38.9865C9.61597 40.5881 11.0174 41.9896 12.6191 41.9896C14.2208 41.9896 15.6222 40.5881 15.6222 38.9865V24.9719C15.6222 23.3702 14.2208 21.9688 12.6191 21.9688Z" fill="#3757FF"/>
<path opacity="0.4" d="M46.6555 21.9688C45.0538 21.9688 43.6523 23.3703 43.6523 24.9719V38.9865C43.6523 40.5881 45.0538 41.9896 46.6555 41.9896C48.2571 41.9896 49.6586 40.5881 49.6586 38.9865V24.9719C49.6586 23.3702 48.2571 21.9688 46.6555 21.9688Z" fill="#3757FF"/>
</g>
</svg>
