<svg width="30" height="30" viewBox="0 0 60 60" fill="none" xmlns="http://www.w3.org/2000/svg">
<g opacity="0.5">
<path d="M11.9613 23.095C8.03018 29.9167 10.5293 40.269 14.8764 46.5459C17.0463 49.6841 19.2432 52.5011 22.2523 52.5011C22.309 52.5011 22.3659 52.5 22.4241 52.4977C23.8378 52.4413 24.8595 52.006 25.8472 51.5854C26.9562 51.1128 28.1031 50.6242 29.9021 50.6242C31.6136 50.6242 32.7058 51.0969 33.762 51.554C34.803 52.0043 35.8752 52.4703 37.4596 52.4405C40.849 52.3774 42.93 49.3377 44.7661 46.6562C46.682 43.8563 47.6431 41.1378 47.9674 40.099L47.9805 40.0577C48.0422 39.873 47.955 39.6715 47.778 39.5902C47.7731 39.5879 47.7552 39.5805 47.7501 39.5783C47.1533 39.3343 41.9176 37.0116 41.8625 30.6809C41.8115 25.5377 45.7903 22.814 46.5882 22.3203L46.6255 22.2972C46.7119 22.2415 46.7721 22.1533 46.7925 22.0523C46.813 21.9516 46.7916 21.8467 46.7337 21.7619C43.9873 17.7428 39.778 17.1371 38.0833 17.0642C37.8374 17.0397 37.5835 17.0273 37.3286 17.0273C35.3381 17.0273 33.4314 17.7791 31.8995 18.3831C30.842 18.8001 29.9287 19.1602 29.2987 19.1602C28.5908 19.1602 27.6723 18.7957 26.6086 18.3737C25.1862 17.8091 23.5739 17.1694 21.8672 17.1694C21.8265 17.1694 21.7864 17.1699 21.7469 17.1707C17.7784 17.229 14.0286 19.4994 11.9613 23.095Z" fill="#3757FF"/>
<path opacity="0.4" d="M38.0872 6.0042C35.684 6.10208 32.8012 7.58137 31.0781 9.59959C29.6138 11.296 28.1833 14.1244 28.5601 16.9753C28.5838 17.1537 28.7289 17.2914 28.9084 17.3052C29.0706 17.3179 29.2361 17.3243 29.4011 17.3244C31.7509 17.3244 34.2858 16.0244 36.017 13.9312C37.839 11.7209 38.7603 8.88427 38.4816 6.34342C38.4596 6.14431 38.2845 5.99642 38.0872 6.0042Z" fill="#3757FF"/>
</g>
</svg>
