<svg width="32" height="39" viewBox="0 0 32 39" fill="none" xmlns="http://www.w3.org/2000/svg">
<path d="M28.249 24.9678L23.0913 23.7114C22.2116 23.4978 20.7369 22.9513 20.7369 21.7006V19.6155C21.6771 18.8023 22.4419 17.6773 23.0115 16.2673C23.3073 15.5357 23.5653 14.7619 23.778 13.9652C24.4783 13.6151 24.9359 12.8333 24.9359 11.9504C24.9359 11.4021 24.7538 10.8733 24.4308 10.4696C24.4398 10.4016 24.4472 10.3439 24.4556 10.2868C25.6294 6.35544 24.704 1.53146 19.3918 1.43551L19.1983 1.29274C15.6708 -1.27202 10.8626 0.22138 8.674 3.64905C8.33912 4.10193 8.11964 4.57707 7.96917 5.06764C7.48439 6.37143 7.34524 7.86026 7.70896 9.45817L7.78646 9.6569C7.7808 9.76313 7.76214 9.90133 7.7265 10.1189L6.7213 10.3342C5.99045 10.4907 5.50737 11.2034 5.65105 11.9435L6.34683 15.5163C6.47071 16.1507 7.01828 16.6002 7.63203 16.6202C7.81588 16.976 8.05968 17.2935 8.35213 17.5573V17.5585C8.81089 17.9714 9.38391 18.2535 10.0124 18.3529C10.371 18.8646 10.7885 19.3203 11.2642 19.7046V21.7571C11.2642 23.0084 9.7895 23.5538 8.90988 23.7679L3.75153 25.0249C1.50751 25.5714 0 27.3481 0 29.4463V37.1274L0.308856 37.2011C5.31165 38.3952 10.5911 39 16 39C21.4089 39 26.6889 38.3946 31.6917 37.2011L32 37.1274V29.3892C32.0006 27.2915 30.4931 25.5143 28.249 24.9678ZM8.8799 16.9623L8.87934 16.9628C8.72491 16.8229 8.59537 16.6584 8.47941 16.4837L9.02924 16.3695C9.13615 16.6961 9.2606 17.012 9.40371 17.3129C9.21591 17.2158 9.03659 17.1033 8.8799 16.9623ZM11.0566 18.3677L12.8334 18.2655L12.8464 18.5111C12.8605 18.7532 13.0676 18.9394 13.308 18.9257L15.8625 18.7783C16.1024 18.7646 16.2879 18.555 16.2744 18.3135L16.207 17.1176C16.1935 16.8749 15.9853 16.6881 15.746 16.7019L13.1903 16.8492C12.9505 16.8629 12.7649 17.0725 12.7791 17.3146L12.7876 17.4671L10.6544 17.5899C10.5956 17.5933 10.539 17.583 10.4802 17.5819C10.1804 17.0988 9.92639 16.5722 9.74877 15.9937C9.48687 15.1434 9.26625 14.3604 9.07562 13.5991L9.053 13.51L9.03603 13.3827L8.47036 10.5324C8.50939 10.3062 8.53824 10.1275 8.55803 9.98357C10.2403 7.11213 16.1442 8.47875 18.2797 4.41374C22.5047 6.51992 22.9125 10.9596 23.4878 12.5512C23.6937 12.1977 23.8798 11.8202 24.0461 11.4273C24.1021 11.5923 24.1355 11.7676 24.1355 11.9498C24.1355 12.5637 23.7949 13.1143 23.3085 13.2885L23.1077 13.3604L23.0545 13.5683C22.8401 14.3987 22.5765 15.2033 22.2699 15.9606C21.7274 17.3026 21.0005 18.3523 20.1107 19.0856C17.5448 21.0747 15.2714 21.7777 11.9198 19.1912L11.9074 19.1815C11.5934 18.9462 11.3162 18.6664 11.0566 18.3677ZM12.0663 21.7566V20.294C13.5184 21.2774 14.8093 21.6675 15.9808 21.6675C17.4589 21.6675 18.7469 21.0438 19.9354 20.214V21.7006C19.9354 22.7137 20.5423 23.5286 21.6675 24.0678C21.6024 25.3476 19.8319 26.4149 17.4577 26.7176L16.4265 26.7981C16.3162 26.801 16.2065 26.8061 16.0939 26.8061C13.037 26.8061 10.5486 25.5617 10.517 24.0266C11.5205 23.4875 12.0663 22.7126 12.0663 21.7566Z" fill="#3757FF"/>
</svg>
