<svg width="22" height="22" viewBox="0 0 22 22" fill="none" xmlns="http://www.w3.org/2000/svg">
    <path fill-rule="evenodd" clip-rule="evenodd" d="M11 21C16.5228 21 21 16.5228 21 11C21 5.47715 16.5228 1 11 1C5.47715 1 1 5.47715 1 11C1 16.5228 5.47715 21 11 21Z" stroke="#DBDBDB" stroke-width="2"/>
    <path d="M15.8739 7.3997C15.4019 7.87166 14.93 8.34361 14.458 8.81557C14.391 8.88258 14.324 8.9496 14.2584 9.01519C14.4594 9.01519 14.6619 9.01519 14.863 9.01519C14.6505 8.80274 14.4395 8.59171 14.227 8.37926C13.8891 8.04133 13.5512 7.70341 13.2133 7.36548C13.1348 7.28706 13.0564 7.20864 12.978 7.13022C12.978 7.33126 12.978 7.53373 12.978 7.73478C13.1904 7.52233 13.4029 7.30987 13.6168 7.096C13.9133 6.79942 14.2085 6.50427 14.5051 6.20769C14.5336 6.17918 14.5635 6.14923 14.592 6.12072C14.602 6.11074 14.6134 6.09933 14.6248 6.08935C14.642 6.07224 14.6605 6.05655 14.679 6.04087C14.746 5.98384 14.612 6.08792 14.6648 6.05085C14.746 5.99239 14.8316 5.94249 14.9243 5.90256C14.8901 5.91682 14.8558 5.93108 14.8216 5.94534C14.9357 5.89686 15.0554 5.86406 15.1795 5.84695C15.141 5.85266 15.1039 5.85693 15.0654 5.86264C15.1823 5.84838 15.2978 5.84838 15.4148 5.86264C15.3763 5.85693 15.3392 5.85266 15.3007 5.84695C15.4233 5.86406 15.5431 5.89686 15.6586 5.94534C15.6244 5.93108 15.5901 5.91682 15.5559 5.90256C15.6229 5.9325 15.6871 5.9653 15.7484 6.00522C15.7655 6.01663 15.7826 6.02804 15.7983 6.03944C15.8297 6.06083 15.8639 6.10503 15.7769 6.02091C15.804 6.04657 15.834 6.06939 15.8625 6.09505C15.8924 6.12357 15.9224 6.15494 15.9495 6.18631C15.9737 6.21482 15.9979 6.27328 15.9409 6.17205C15.9495 6.18916 15.9637 6.20342 15.9751 6.2191C16.025 6.29182 16.0649 6.36881 16.0992 6.44866C16.0849 6.41444 16.0707 6.38022 16.0564 6.346C16.102 6.45722 16.132 6.57129 16.1491 6.69106C16.1434 6.65256 16.1391 6.61549 16.1334 6.57699C16.1476 6.69533 16.1476 6.81511 16.132 6.93345C16.1377 6.89495 16.1419 6.85788 16.1476 6.81938C16.132 6.9306 16.102 7.03896 16.0592 7.14305C16.0735 7.10883 16.0878 7.07461 16.102 7.04039C16.0692 7.11738 16.0307 7.19153 15.9851 7.2614C15.9751 7.27708 15.9637 7.29276 15.9523 7.30845C15.9095 7.36833 15.9651 7.30845 15.9694 7.28706C15.9609 7.32698 15.8967 7.37689 15.8739 7.3997C15.717 7.5594 15.7028 7.84742 15.8739 8.00426C16.0436 8.15968 16.3116 8.17536 16.4784 8.00426C16.7822 7.69485 16.9575 7.30275 16.9946 6.87214C17.0274 6.49286 16.9162 6.07366 16.6923 5.76425C16.4571 5.43774 16.1405 5.19819 15.7555 5.077C15.4262 4.97433 15.0512 4.97433 14.7232 5.077C14.4438 5.16397 14.19 5.31796 13.9818 5.52471C13.9148 5.5903 13.8492 5.65732 13.7822 5.72433C13.5098 5.99667 13.2389 6.26758 12.9666 6.53992C12.7684 6.73811 12.5702 6.9363 12.372 7.1345C12.208 7.29847 12.208 7.57508 12.372 7.73905C12.5845 7.95151 12.7955 8.16253 13.0079 8.37498C13.3459 8.71291 13.6838 9.05084 14.0217 9.38876C14.1001 9.46718 14.1786 9.5456 14.257 9.62403C14.4209 9.788 14.6976 9.788 14.8615 9.62403C15.3335 9.15207 15.8054 8.68011 16.2774 8.20816C16.3444 8.14114 16.4114 8.07413 16.477 8.00854C16.6353 7.85027 16.6467 7.5594 16.477 7.40398C16.3073 7.24286 16.0421 7.23145 15.8739 7.3997Z" fill="#959595"/>
    <path d="M10.5994 9.8643C11.0457 10.3106 11.492 10.7569 11.9383 11.2032C12.001 11.2659 12.0638 11.3286 12.1265 11.3914C12.1265 11.1903 12.1265 10.9879 12.1265 10.7868C11.9583 10.9551 11.7914 11.1219 11.6232 11.2901C11.2197 11.6937 10.8147 12.0986 10.4112 12.5021C9.92356 12.9898 9.43593 13.4774 8.94828 13.965C8.52623 14.3871 8.10276 14.8106 7.68071 15.2326C7.47681 15.4365 7.26578 15.6361 7.06759 15.8457C7.06474 15.8486 7.06189 15.8514 7.05904 15.8543C7.12177 15.8172 7.18451 15.7816 7.24725 15.7445C7.06189 15.7973 6.87653 15.8514 6.69259 15.9085C6.40172 15.9969 6.10799 16.1223 5.80571 16.1637C5.84421 16.158 5.88128 16.1537 5.91978 16.148C5.86275 16.1551 5.80714 16.1566 5.75011 16.1509C5.7886 16.1566 5.82568 16.1608 5.86417 16.1665C5.82425 16.1608 5.78575 16.1523 5.74726 16.1366C5.78148 16.1509 5.8157 16.1651 5.84992 16.1794C5.83423 16.1722 5.81997 16.1637 5.80429 16.1566C5.74298 16.1266 5.88841 16.2378 5.82853 16.1751C5.77149 16.1152 5.8656 16.245 5.84992 16.2079C5.84279 16.1894 5.82995 16.1737 5.82283 16.1551C5.83708 16.1894 5.85134 16.2236 5.8656 16.2578C5.85562 16.2307 5.84849 16.2036 5.84421 16.1737C5.84992 16.2122 5.85419 16.2492 5.8599 16.2877C5.85419 16.2364 5.85562 16.1865 5.86275 16.1366C5.85705 16.1751 5.85277 16.2122 5.84706 16.2507C5.86703 16.1038 5.91551 15.9641 5.96113 15.8243C6.01389 15.6604 6.06094 15.495 6.10514 15.3296C6.15647 15.1357 6.20495 14.9417 6.24773 14.7464C6.21066 14.8091 6.17501 14.8719 6.13794 14.9346C6.30619 14.7664 6.47301 14.5995 6.64126 14.4313C7.04478 14.0278 7.44972 13.6228 7.85323 13.2193C8.34087 12.7317 8.82851 12.244 9.31615 11.7564C9.7382 11.3343 10.1617 10.9109 10.5837 10.4888C10.7876 10.2849 10.9972 10.0839 11.1968 9.8757C11.1997 9.87285 11.2026 9.87 11.2054 9.86715C11.3637 9.70888 11.3751 9.418 11.2054 9.26259C11.0343 9.10574 10.7691 9.09291 10.6008 9.26259C10.387 9.47646 10.1731 9.69034 9.95779 9.90564C9.46444 10.399 8.9711 10.8923 8.47775 11.3857C7.93308 11.9304 7.38841 12.475 6.84373 13.0197C6.46303 13.4004 6.08376 13.7797 5.70305 14.1604C5.62463 14.2388 5.52197 14.3201 5.46494 14.417C5.41503 14.5026 5.4022 14.6081 5.37939 14.7036C5.34231 14.8576 5.30382 15.013 5.26247 15.1656C5.21399 15.3438 5.15981 15.5178 5.1042 15.6932C5.05002 15.8671 4.99726 16.0525 5.00011 16.235C5.00439 16.4517 5.08566 16.6699 5.25676 16.811C5.42787 16.9522 5.63604 17.0249 5.8599 17.0121C6.22064 16.9907 6.56569 16.8438 6.9079 16.7383C7.04763 16.6955 7.18736 16.6542 7.32709 16.6128C7.44829 16.5772 7.56379 16.553 7.66217 16.4603C7.67785 16.4446 7.69354 16.4289 7.70922 16.4132C8.01435 16.1081 8.31806 15.8044 8.62319 15.4992C9.15075 14.9717 9.67832 14.4441 10.2073 13.9151C10.732 13.3904 11.2582 12.8643 11.7829 12.3396C12.0852 12.0373 12.386 11.7364 12.6883 11.4342C12.7025 11.4199 12.7168 11.4056 12.7311 11.3914C12.895 11.2274 12.895 10.9508 12.7311 10.7868C12.2848 10.3405 11.8385 9.89424 11.3922 9.44795C11.3295 9.38521 11.2667 9.32247 11.204 9.25974C11.0457 9.10147 10.7548 9.09006 10.5994 9.25974C10.4426 9.42941 10.4297 9.69462 10.5994 9.8643Z" fill="#959595"/>
    <path d="M13.9134 11.646C13.8991 11.6603 13.882 11.6731 13.8677 11.6874C13.949 11.6075 13.9234 11.646 13.8877 11.6689C13.8535 11.6902 13.8178 11.7088 13.7808 11.7245C13.815 11.7102 13.8492 11.6959 13.8834 11.6817C13.8335 11.7002 13.7836 11.7145 13.7323 11.723C13.7708 11.7173 13.8079 11.7131 13.8464 11.7074C13.7808 11.7159 13.7166 11.7159 13.6524 11.7074C13.6909 11.7131 13.728 11.7173 13.7665 11.723C13.7138 11.7145 13.6639 11.7017 13.6154 11.6817C13.6496 11.6959 13.6838 11.7102 13.718 11.7245C13.681 11.7088 13.6453 11.6917 13.6111 11.6689C13.5712 11.6432 13.564 11.6104 13.6311 11.6874C13.6182 11.6717 13.5997 11.6589 13.5854 11.646C13.5826 11.6432 13.5812 11.6418 13.5783 11.6389C13.5612 11.6232 13.5455 11.6061 13.5298 11.5904C13.4557 11.5163 13.3801 11.4407 13.306 11.3666C13.0422 11.1028 12.7798 10.8404 12.516 10.5767C11.9158 9.97638 11.3155 9.37609 10.7166 8.77724C10.6254 8.68598 10.5327 8.5933 10.4414 8.50205C10.42 8.48066 10.4001 8.4607 10.3787 8.43931C10.3758 8.43646 10.3716 8.43218 10.3687 8.42933C10.363 8.42363 10.3659 8.42648 10.3545 8.41365C10.3445 8.40366 10.3359 8.39368 10.3274 8.38228C10.373 8.44216 10.383 8.455 10.3573 8.41935C10.3331 8.37943 10.3103 8.3395 10.2917 8.29673C10.306 8.33095 10.3202 8.36517 10.3345 8.39939C10.316 8.34948 10.3017 8.29958 10.2931 8.24825C10.2989 8.28675 10.3031 8.32382 10.3088 8.36231C10.3003 8.29673 10.3003 8.23256 10.3088 8.1684C10.3031 8.2069 10.2989 8.24397 10.2931 8.28247C10.3017 8.22971 10.3145 8.17981 10.3345 8.13133C10.3202 8.16555 10.306 8.19977 10.2917 8.23399C10.3017 8.20975 10.3131 8.18551 10.3259 8.1627C10.3345 8.14701 10.3987 8.05718 10.3488 8.12135C10.3003 8.18408 10.3587 8.11279 10.373 8.09853C10.3915 8.08 10.4115 8.06004 10.43 8.0415C10.517 7.95452 10.604 7.86755 10.6924 7.77914C10.8963 7.57525 11.1002 7.37135 11.3041 7.16745C11.3297 7.14179 11.3554 7.11612 11.3811 7.09046C11.3939 7.07763 11.4067 7.06622 11.4196 7.05339C11.4467 7.02915 11.4666 7.03628 11.3811 7.0819C11.3982 7.07192 11.4153 7.05909 11.4324 7.04911C11.4609 7.032 11.4909 7.01774 11.5222 7.00491C11.488 7.01917 11.4538 7.03342 11.4196 7.04768C11.4695 7.02915 11.5194 7.01489 11.5707 7.00633C11.5322 7.01204 11.4951 7.01631 11.4566 7.02202C11.5222 7.01346 11.5864 7.01346 11.6506 7.02202C11.6121 7.01631 11.575 7.01204 11.5365 7.00633C11.5892 7.01489 11.6391 7.02772 11.6876 7.04768C11.6534 7.03342 11.6192 7.01917 11.585 7.00491C11.622 7.02059 11.6577 7.0377 11.6919 7.06052C11.7318 7.08618 11.739 7.11898 11.6719 7.04198C11.6848 7.05766 11.7033 7.0705 11.7176 7.08333C11.7204 7.08618 11.7218 7.08761 11.7247 7.09046C11.7418 7.10614 11.7575 7.12325 11.7732 7.13894C11.8473 7.21308 11.9229 7.28865 11.997 7.3628C12.2608 7.62658 12.5232 7.88893 12.787 8.15272C13.3872 8.753 13.9875 9.35328 14.5864 9.95214C14.6776 10.0434 14.7703 10.1361 14.8616 10.2273C14.883 10.2487 14.9029 10.2687 14.9243 10.2901C14.9272 10.2929 14.9314 10.2972 14.9343 10.3C14.94 10.3057 14.9371 10.3029 14.9485 10.3157C14.9585 10.3257 14.9671 10.3357 14.9756 10.3471C14.93 10.2872 14.92 10.2744 14.9457 10.31C14.9699 10.3499 14.9927 10.3899 15.0113 10.4326C14.997 10.3984 14.9828 10.3642 14.9685 10.33C14.987 10.3799 15.0013 10.4298 15.0099 10.4811C15.0042 10.4426 14.9999 10.4056 14.9942 10.3671C15.0027 10.4326 15.0027 10.4968 14.9942 10.561C14.9999 10.5225 15.0042 10.4854 15.0099 10.4469C15.0013 10.4997 14.9885 10.5496 14.9685 10.598C14.9828 10.5638 14.997 10.5296 15.0113 10.4954C15.0013 10.5196 14.9899 10.5439 14.9771 10.5667C14.9671 10.5838 14.9357 10.6166 14.9329 10.6351C14.9329 10.6294 15.0056 10.551 14.9614 10.5966C14.9542 10.6037 14.9471 10.6123 14.94 10.6194C14.9371 10.6223 14.9343 10.6251 14.93 10.6294C14.9143 10.6451 14.8986 10.6608 14.8844 10.675C14.8088 10.7506 14.7318 10.8276 14.6562 10.9032C14.4566 11.1028 14.257 11.3024 14.0574 11.502C14.0089 11.5491 13.9604 11.5976 13.9134 11.646C13.7551 11.8043 13.7437 12.0952 13.9134 12.2506C14.0845 12.4074 14.3497 12.4203 14.5179 12.2506C14.8559 11.9127 15.1981 11.5776 15.5317 11.2368C15.7385 11.0258 15.8682 10.7321 15.854 10.4341C15.8411 10.1518 15.7299 9.89225 15.5331 9.69121C15.4519 9.60851 15.3677 9.52581 15.2865 9.44453C14.8715 9.02961 14.4581 8.61612 14.0431 8.20119C13.6011 7.75918 13.1591 7.31717 12.7171 6.87516C12.5973 6.75538 12.479 6.63704 12.3592 6.51727C12.325 6.48305 12.2922 6.45025 12.2551 6.42031C11.9714 6.18932 11.5892 6.08951 11.2328 6.20358C10.9134 6.30624 10.7038 6.55006 10.4757 6.77962C10.2604 6.99493 10.0451 7.21023 9.82832 7.42696C9.72281 7.53247 9.61872 7.64369 9.55599 7.782C9.40342 8.11422 9.40199 8.4992 9.59306 8.81859C9.67861 8.9626 9.80123 9.07381 9.91815 9.19073C10.3031 9.57571 10.6895 9.96212 11.0745 10.3471C11.5336 10.8062 11.9928 11.2653 12.4519 11.7245C12.5945 11.867 12.7371 12.0096 12.8796 12.1522C13.0621 12.3347 13.2632 12.5001 13.5284 12.5472C13.8934 12.6113 14.2499 12.513 14.5179 12.252C14.6791 12.0966 14.6862 11.8015 14.5179 11.6475C14.3454 11.4878 14.0845 11.4792 13.9134 11.646Z" fill="#959595"/>
    <path d="M13.5 12L10 8.5V7.5L11.5 6.5L12.5 7.5L13 7L14.5 5.5H16L16.5 6.5L16 8L14.5 9.5L15.5 10.5L14 12H13.5Z" fill="#959595"/>
</svg>
