<svg width="24" height="24" viewBox="0 0 24 24" fill="none" xmlns="http://www.w3.org/2000/svg">
<path d="M12 21C16.9706 21 21 16.9706 21 12C21 7.02944 16.9706 3 12 3C7.02944 3 3 7.02944 3 12C3 16.9706 7.02944 21 12 21Z" stroke="white" stroke-width="1.5" stroke-miterlimit="10"/>
<path d="M3.51562 9H20.4844" stroke="white" stroke-width="1.5" stroke-linecap="round" stroke-linejoin="round"/>
<path d="M3.51562 15H20.4844" stroke="white" stroke-width="1.5" stroke-linecap="round" stroke-linejoin="round"/>
<path d="M12 20.7564C14.0711 20.7564 15.75 16.8361 15.75 12.0001C15.75 7.1642 14.0711 3.2439 12 3.2439C9.92893 3.2439 8.25 7.1642 8.25 12.0001C8.25 16.8361 9.92893 20.7564 12 20.7564Z" stroke="white" stroke-width="1.5" stroke-miterlimit="10"/>
</svg>
