<svg width="26" height="26" viewBox="0 0 26 26" fill="none" xmlns="http://www.w3.org/2000/svg">
<path fill-rule="evenodd" clip-rule="evenodd" d="M13 25C19.6274 25 25 19.6274 25 13C25 6.37258 19.6274 1 13 1C6.37258 1 1 6.37258 1 13C1 19.6274 6.37258 25 13 25Z" stroke="white" stroke-width="2"/>
<path d="M17.3382 8.30498C17.7 7.91738 18.3075 7.89643 18.6951 8.25819C19.0827 8.61995 19.1036 9.22743 18.7419 9.61503L12.0218 16.815C11.6709 17.1911 11.0858 17.2237 10.6953 16.8889L7.33526 14.0089C6.9327 13.6639 6.88609 13.0578 7.23113 12.6553C7.57618 12.2527 8.18223 12.2061 8.58478 12.5511L11.2461 14.8323L17.3382 8.30498Z" fill="white"/>
</svg>
