<svg width="91" height="86" viewBox="0 0 91 86" fill="none" xmlns="http://www.w3.org/2000/svg">
    <path d="M6.23517 58.9678L0.805167 53.5378C0.275247 52.9691 -0.0132455 52.2169 0.000467388 51.4397C0.0141803 50.6625 0.329028 49.9209 0.87868 49.3713C1.42833 48.8216 2.16987 48.5068 2.94708 48.493C3.72428 48.4793 4.47647 48.7678 5.04517 49.2977L8.04517 52.2977L15.6352 44.7077C16.1977 44.1459 16.9602 43.8304 17.7552 43.8304C18.5502 43.8304 19.3127 44.1459 19.8752 44.7077C20.437 45.2702 20.7525 46.0327 20.7525 46.8278C20.7525 47.6228 20.437 48.3853 19.8752 48.9478L9.87517 58.9478C9.64055 59.1934 9.35887 59.3893 9.04691 59.5238C8.73495 59.6582 8.39911 59.7285 8.05941 59.7304C7.71972 59.7322 7.38312 59.6657 7.06971 59.5346C6.75629 59.4036 6.47247 59.2108 6.23517 58.9678ZM90.6452 82.5478C90.6452 83.3434 90.3291 84.1065 89.7665 84.6691C89.2039 85.2317 88.4408 85.5478 87.6452 85.5478H6.50517C5.70952 85.5478 4.94646 85.2317 4.38385 84.6691C3.82124 84.1065 3.50517 83.3434 3.50517 82.5478C3.50517 67.2678 22.7852 61.1577 31.0752 59.2477C31.1263 59.236 31.1715 59.2063 31.2026 59.1641C31.2338 59.122 31.2489 59.0701 31.2452 59.0178V55.7878C29.3288 53.2757 27.9008 50.4264 27.0352 47.3877C24.8752 45.2477 23.9152 41.8578 23.3952 40.0278C22.5552 37.0278 21.7052 32.7477 24.0252 29.6777L24.1252 29.5477C23.9752 28.6377 23.8652 27.7577 23.7952 26.8577C22.7952 19.8577 23.5552 14.6978 26.2052 11.4377C27.6258 9.65411 29.684 8.49234 31.9452 8.19775C33.2952 3.53775 39.8852 -1.01225 45.8752 0.19775C51.7052 1.40775 63.8752 0.0377503 63.9452 0.0277503C64.0998 0.014807 64.2536 0.0612958 64.3752 0.15775C64.4356 0.206593 64.4854 0.267271 64.5215 0.336057C64.5576 0.404843 64.5793 0.480285 64.5852 0.55775C64.6057 1.36035 64.4649 2.15891 64.1712 2.90611C63.8774 3.65331 63.4367 4.33397 62.8752 4.90775C72.5652 11.3678 71.1652 24.1178 70.0452 29.5177L70.1452 29.6478C72.4652 32.7178 71.6252 37.0277 70.7852 39.9977C70.2852 41.8577 69.2852 45.2477 67.1252 47.3877C66.255 50.4063 64.827 53.2351 62.9152 55.7277V59.0178C62.9134 59.0697 62.9292 59.1206 62.9601 59.1624C62.9909 59.2041 63.035 59.2342 63.0852 59.2477C71.3752 61.1577 90.6452 67.2578 90.6452 82.5478ZM60.1052 64.4678C58.7758 63.7142 57.7716 62.4963 57.2852 61.0478C55.93 61.9464 54.4732 62.6815 52.9452 63.2377C49.1633 64.5753 45.0371 64.5753 41.2552 63.2377C39.723 62.6923 38.2624 61.9637 36.9052 61.0677C36.4048 62.4989 35.3982 63.6975 34.0752 64.4378C35.5999 66.4494 37.5698 68.0807 39.8304 69.2038C42.091 70.327 44.5809 70.9114 47.1052 70.9114C49.6294 70.9114 52.1193 70.327 54.3799 69.2038C56.6405 68.0807 58.6104 66.4494 60.1352 64.4378L60.1052 64.4678ZM62.7852 43.8678C63.0952 43.8678 64.2052 43.3877 65.5752 38.5578C66.6452 34.7878 66.1952 33.4178 65.8252 32.9378C65.6677 32.7572 65.4659 32.6208 65.2398 32.5419C65.0136 32.463 64.7708 32.4443 64.5352 32.4878C64.4385 32.4967 64.3412 32.4812 64.2521 32.4428C64.163 32.4043 64.085 32.3442 64.0252 32.2677C63.966 32.1925 63.9268 32.1036 63.9111 32.0093C63.8954 31.9149 63.9036 31.8181 63.9352 31.7277V31.6178C64.2052 30.7178 65.3252 26.1278 61.4252 23.2477C58.0052 24.0077 52.4252 24.2477 44.8552 20.9977C41.1752 19.4277 38.0852 19.3678 35.6752 20.8377C30.9052 23.7878 30.2852 31.8878 30.2352 31.9678C30.2249 32.1172 30.1562 32.2566 30.0439 32.3558C29.9316 32.455 29.7848 32.506 29.6352 32.4977H29.3752C29.1743 32.4817 28.9726 32.5153 28.7878 32.5955C28.603 32.6757 28.4407 32.8001 28.3152 32.9577C27.9552 33.4377 27.5052 34.8078 28.5652 38.5778C29.9352 43.3978 31.0452 43.8577 31.3552 43.8877C31.4832 43.8975 31.6043 43.9502 31.6987 44.0373C31.7931 44.1244 31.8553 44.2409 31.8752 44.3678C32.6552 49.3678 36.4752 55.8878 43.0152 58.1878C45.6245 59.1194 48.4758 59.1194 51.0852 58.1878C57.3752 55.8878 61.4652 49.4978 62.2852 44.3478C62.3042 44.2239 62.3634 44.1098 62.4538 44.023C62.5442 43.9363 62.6607 43.8817 62.7852 43.8678Z" fill="#00AB62"/>
</svg>
