<svg width="16" height="16" viewBox="0 0 16 16" fill="none" xmlns="http://www.w3.org/2000/svg">
<path d="M16 8C16 12.4183 12.4183 16 8 16C3.58172 16 0 12.4183 0 8C0 3.58172 3.58172 0 8 0C12.4183 0 16 3.58172 16 8Z" fill="#FFF4D5"/>
<path d="M9.6991 8.03271C9.54285 7.90564 9.35242 7.79993 9.12756 7.71521C8.90259 7.63062 8.65259 7.55127 8.37744 7.47705C8.16577 7.42419 7.97925 7.3739 7.81787 7.32629C7.65637 7.27856 7.52283 7.22583 7.41711 7.16748C7.31116 7.10938 7.23059 7.04187 7.17493 6.96509C7.11938 6.88843 7.09167 6.79187 7.09167 6.67542C7.09167 6.47437 7.16565 6.31824 7.31384 6.20703C7.46191 6.09595 7.68689 6.04041 7.98853 6.04041C8.15784 6.04041 8.32458 6.06152 8.48865 6.10388C8.65259 6.14624 8.80481 6.19788 8.94495 6.25867C9.08508 6.31958 9.20422 6.38171 9.30225 6.44519C9.40002 6.50867 9.46753 6.55908 9.50464 6.59595L9.98877 5.70703C9.73999 5.53772 9.4491 5.39087 9.11572 5.26648C8.91113 5.19019 8.69446 5.13757 8.46594 5.10803V4.09985H7.52844V5.12134C7.42224 5.13977 7.31885 5.16418 7.21863 5.19507C6.96985 5.27185 6.75159 5.38428 6.56384 5.53235C6.37585 5.68054 6.229 5.86572 6.12329 6.08801C6.01733 6.3103 5.96448 6.56433 5.96448 6.84998C5.96448 7.06702 5.99756 7.25354 6.06372 7.40967C6.12988 7.5658 6.229 7.70337 6.36133 7.82239C6.49365 7.94141 6.65906 8.04468 6.85742 8.13196C7.05591 8.21924 7.29004 8.29993 7.55994 8.37402C7.7821 8.4375 7.98328 8.49585 8.16321 8.54871C8.34302 8.60156 8.49658 8.65979 8.62354 8.72327C8.75049 8.78674 8.84839 8.86096 8.91724 8.94556C8.98596 9.03027 9.02039 9.13342 9.02039 9.25513C9.02039 9.64136 8.71875 9.83447 8.11548 9.83447C7.89856 9.83447 7.68689 9.80811 7.48059 9.75513C7.27417 9.70239 7.0863 9.63745 6.91699 9.56067C6.74756 9.48401 6.60071 9.40723 6.47644 9.33044C6.35205 9.25378 6.26611 9.19165 6.21851 9.14392L5.73425 10.0885C6.06238 10.3214 6.43286 10.5012 6.84558 10.6283C7.07153 10.6978 7.29919 10.7477 7.52844 10.7791V11.8922H8.46594V10.7997C8.6106 10.7847 8.75183 10.7607 8.88953 10.7275C9.14075 10.6667 9.36304 10.5701 9.55627 10.4377C9.74939 10.3055 9.90271 10.1322 10.0166 9.91785C10.1304 9.70361 10.1873 9.44556 10.1873 9.14392C10.1873 8.88477 10.1449 8.6665 10.0603 8.48914C9.97546 8.31189 9.8551 8.15967 9.6991 8.03271Z" fill="#FEC649"/>
<path d="M13.6569 2.34314C12.1459 0.832153 10.1368 0 8 0C5.86316 0 3.85413 0.832153 2.34314 2.34314C0.832153 3.85413 0 5.86316 0 8C0 10.1368 0.832153 12.1459 2.34314 13.6569C3.85413 15.1678 5.86316 16 8 16C10.1368 16 12.1459 15.1678 13.6569 13.6569C15.1678 12.1459 16 10.1368 16 8C16 5.86316 15.1678 3.85413 13.6569 2.34314ZM8 15.0625C4.10571 15.0625 0.9375 11.8943 0.9375 8C0.9375 4.10571 4.10571 0.9375 8 0.9375C11.8943 0.9375 15.0625 4.10571 15.0625 8C15.0625 11.8943 11.8943 15.0625 8 15.0625Z" fill="#FEC649"/>
<path d="M8 1.91663C4.64563 1.91663 1.91663 4.64563 1.91663 8C1.91663 11.3544 4.64563 14.0834 8 14.0834C11.3544 14.0834 14.0834 11.3544 14.0834 8C14.0834 4.64563 11.3544 1.91663 8 1.91663ZM8 13.1459C5.1626 13.1459 2.85413 10.8374 2.85413 8C2.85413 5.1626 5.1626 2.85413 8 2.85413C10.8374 2.85413 13.1459 5.1626 13.1459 8C13.1459 10.8374 10.8374 13.1459 8 13.1459Z" fill="#FEC649"/>
</svg>
