<svg width="30" height="30" viewBox="0 0 30 30" fill="none" xmlns="http://www.w3.org/2000/svg">
    <path fill-rule="evenodd" clip-rule="evenodd" d="M19.6228 3.87729L18.3215 5.17865C19.823 6.17969 20.8241 7.98157 20.824 9.98358H8.81152C8.81152 7.98149 9.81257 6.27976 11.214 5.17861L9.91267 3.87726C9.81257 3.67709 9.81257 3.27667 9.91267 3.07642C10.1129 2.97632 10.5133 2.97632 10.7135 3.07642L12.115 4.57799C12.9158 4.17761 13.8167 3.97736 14.8178 3.97736C15.8188 3.97736 16.7198 4.17761 17.4205 4.67813L18.9221 3.17656C19.1223 2.97632 19.4226 2.97632 19.6228 3.17656C19.823 3.37677 19.823 3.67709 19.6228 3.87729ZM9.81159 21.9997C9.21096 21.9997 8.81055 21.5992 8.81055 20.9986V10.9882H20.8231V20.9986C20.8231 21.5992 20.4226 21.9997 19.822 21.9997H18.821V25.5033C18.821 26.3041 18.1202 27.0049 17.3194 27.0049C16.5186 27.0049 15.8178 26.3041 15.8178 25.5033V21.9997H13.8158V25.5033C13.8158 26.3041 13.115 27.0049 12.3142 27.0049C11.5134 27.0049 10.8126 26.3041 10.8126 25.5033V21.9997H9.81159ZM12.8154 7.98319H11.8143V6.98215H12.8154V7.98319ZM16.8199 7.98319H17.821V6.98215H16.8199V7.98319Z" fill="#5AC794"/>
    <path d="M6.3082 10.9837C5.50737 10.9837 4.80664 11.6845 4.80664 12.4853V19.4926C4.80664 20.2934 5.50737 20.9941 6.3082 20.9941C7.10904 20.9941 7.80977 20.2934 7.80977 19.4926V12.4853C7.80977 11.6844 7.10904 10.9837 6.3082 10.9837Z" fill="#5AC794"/>
    <path d="M23.3277 10.9837C22.5269 10.9837 21.8262 11.6845 21.8262 12.4853V19.4926C21.8262 20.2934 22.5269 20.9941 23.3277 20.9941C24.1286 20.9941 24.8293 20.2934 24.8293 19.4926V12.4853C24.8293 11.6844 24.1286 10.9837 23.3277 10.9837Z" fill="#5AC794"/>
</svg>
