<svg width="30" height="30" viewBox="0 0 30 30" fill="none" xmlns="http://www.w3.org/2000/svg">
    <path d="M5.98052 11.5478C4.01497 14.9586 5.2645 20.1348 7.43809 23.2733C8.52305 24.8424 9.6215 26.2508 11.126 26.2508C11.1544 26.2508 11.1828 26.2503 11.2119 26.2492C11.9188 26.221 12.4296 26.0033 12.9235 25.793C13.478 25.5567 14.0514 25.3124 14.9509 25.3124C15.8067 25.3124 16.3528 25.5488 16.8809 25.7773C17.4014 26.0025 17.9375 26.2354 18.7297 26.2206C20.4244 26.189 21.4649 24.6692 22.3829 23.3284C23.3409 21.9284 23.8214 20.5692 23.9836 20.0498L23.9901 20.0291C24.021 19.9368 23.9774 19.836 23.8889 19.7954C23.8864 19.7943 23.8775 19.7905 23.8749 19.7895C23.5765 19.6674 20.9587 18.5061 20.9311 15.3408C20.9056 12.7691 22.895 11.4073 23.294 11.1605L23.3126 11.1489C23.3558 11.1211 23.3859 11.0769 23.3961 11.0265C23.4064 10.9761 23.3957 10.9236 23.3667 10.8813C21.9935 8.87172 19.8889 8.56886 19.0415 8.53242C18.9186 8.52015 18.7916 8.51398 18.6642 8.51398C17.6689 8.51398 16.7156 8.88986 15.9496 9.19188C15.4209 9.40036 14.9642 9.58041 14.6492 9.58041C14.2953 9.58041 13.836 9.39815 13.3042 9.18715C12.593 8.90488 11.7868 8.58502 10.9335 8.58502C10.9131 8.58502 10.8931 8.58525 10.8733 8.58563C8.8891 8.61483 7.01418 9.75002 5.98052 11.5478Z" fill="#232939"/>
    <path d="M19.0441 3.00216C17.8425 3.0511 16.4011 3.79075 15.5396 4.79986C14.8074 5.64805 14.0921 7.06225 14.2806 8.48772C14.2924 8.57691 14.3649 8.64574 14.4547 8.65268C14.5358 8.659 14.6186 8.66221 14.701 8.66228C15.8759 8.66228 17.1434 8.01228 18.009 6.96566C18.92 5.8605 19.3806 4.44219 19.2413 3.17177C19.2303 3.07221 19.1427 2.99827 19.0441 3.00216Z" fill="#232939"/>
</svg>
