<svg width="30" height="30" viewBox="0 0 30 30" fill="none" xmlns="http://www.w3.org/2000/svg">
    <circle cx="15" cy="15" r="15" fill="#EDF2FD"/>
    <path d="M21 17.6667V12.3333C20.9998 12.0995 20.938 11.8699 20.821 11.6675C20.704 11.465 20.5358 11.2969 20.3333 11.18L15.6667 8.51335C15.464 8.39633 15.234 8.33472 15 8.33472C14.766 8.33472 14.536 8.39633 14.3333 8.51335L9.66667 11.18C9.46418 11.2969 9.29599 11.465 9.17897 11.6675C9.06196 11.8699 9.00024 12.0995 9 12.3333V17.6667C9.00024 17.9005 9.06196 18.1301 9.17897 18.3326C9.29599 18.535 9.46418 18.7031 9.66667 18.82L14.3333 21.4867C14.536 21.6037 14.766 21.6653 15 21.6653C15.234 21.6653 15.464 21.6037 15.6667 21.4867L20.3333 18.82C20.5358 18.7031 20.704 18.535 20.821 18.3326C20.938 18.1301 20.9998 17.9005 21 17.6667Z" stroke="#507DED" stroke-linecap="round" stroke-linejoin="round"/>
    <path d="M9.17969 11.64L14.9997 15.0067L20.8197 11.64" stroke="#507DED" stroke-linecap="round" stroke-linejoin="round"/>
    <path d="M15 21.72V15" stroke="#507DED" stroke-linecap="round" stroke-linejoin="round"/>
</svg>
