<svg width="59" height="59" viewBox="0 0 59 59" fill="none" xmlns="http://www.w3.org/2000/svg">
<g clip-path="url(#clip0)">
<path d="M56.8366 18.4391H29.5011C23.3918 18.4331 18.4343 23.3808 18.4282 29.4901C18.4263 31.3877 18.9126 33.2539 19.8403 34.9091L6.17261 11.4577C16.1276 -1.42666 34.6426 -3.8013 47.527 6.15369C51.6648 9.35073 54.8778 13.5908 56.8366 18.4391Z" fill="#F44336"/>
<path d="M58.9998 29.5011C58.9862 45.7871 45.7872 58.9862 29.5011 58.9998C28.2677 59.0044 27.0356 58.9222 25.8138 58.754L39.0882 35.0321C42.1306 29.7357 40.317 22.9762 35.0321 19.914C33.3589 18.9453 31.4591 18.4363 29.5257 18.4391H56.8365C58.272 21.9501 59.0069 25.708 58.9998 29.5011Z" fill="#FFC107"/>
<path d="M39.0882 35.0321L25.8138 58.754H25.7893C9.63551 56.7131 -1.80514 41.9633 0.235802 25.8095C0.896411 20.581 2.94645 15.6251 6.17264 11.4577L19.8403 34.9092L19.9141 35.0321C22.962 40.3269 29.725 42.1483 35.0198 39.1005C36.7111 38.1269 38.1147 36.7233 39.0882 35.0321Z" fill="#4CAF50"/>
<path d="M39.0882 35.0321C36.0403 40.3269 29.2772 42.1483 23.9825 39.1005C22.2912 38.1269 20.8876 36.7233 19.9141 35.0321L19.8403 34.9091C16.8535 29.5797 18.7527 22.838 24.0821 19.8511C25.7375 18.9234 27.6036 18.4371 29.5011 18.439H29.5257C31.4591 18.4362 33.3589 18.9452 35.0321 19.9139C40.3171 22.9762 42.1306 29.7357 39.0882 35.0321Z" fill="#F44336"/>
<path d="M39.0882 35.0321C36.0403 40.3269 29.2772 42.1483 23.9825 39.1005C22.2912 38.1269 20.8876 36.7233 19.9141 35.0321L19.8403 34.9091C16.8535 29.5797 18.7527 22.838 24.0821 19.8511C25.7375 18.9234 27.6036 18.4371 29.5011 18.439H29.5257C31.4591 18.4362 33.3589 18.9452 35.0321 19.9139C40.3171 22.9762 42.1306 29.7357 39.0882 35.0321Z" fill="#2196F3"/>
<path d="M29.4594 41.7922C27.3163 41.792 25.2111 41.2273 23.3556 40.1551C21.4846 39.0729 19.9307 37.5183 18.8496 35.6467C15.4556 29.768 17.4698 22.2509 23.3485 18.8568C25.219 17.7769 27.3412 17.2089 29.5012 17.2101C36.2893 17.2048 41.7966 22.7035 41.8018 29.4916C41.8035 31.6524 41.2354 33.7754 40.1551 35.6467C37.9399 39.455 33.865 41.7964 29.4594 41.7922ZM29.5232 19.6682C25.9957 19.6495 22.7299 21.5269 20.971 24.5847C18.2557 29.293 19.8714 35.3111 24.5796 38.0263C29.2879 40.7416 35.306 39.126 38.0212 34.4177C40.7365 29.7147 39.1251 23.701 34.4222 20.9857C32.9332 20.126 31.2448 19.6718 29.5256 19.6684H29.5232V19.6682Z" fill="#FAFAFA"/>
</g>
<defs>
<clipPath id="clip0">
<rect width="59" height="59" fill="white"/>
</clipPath>
</defs>
</svg>
