<svg width="30" height="30" viewBox="0 0 30 30" fill="none" xmlns="http://www.w3.org/2000/svg">
    <g clip-path="url(#clipBSD)">
        <path d="M25.8373 11.5056C25.013 12.3299 22.7242 11.3783 20.7246 9.37875C18.7263 7.3804 17.7734 5.09162 18.5977 4.26608C18.7596 4.10419 18.9895 4.03127 19.249 3.99914C17.5893 3.27617 15.7615 2.86835 13.8361 2.86835C6.3444 2.87082 0.271484 8.94373 0.271484 16.4354C0.271484 23.9258 6.3444 30 13.8361 30C21.3277 30 27.4006 23.9258 27.4006 16.4354C27.4006 14.3888 26.9347 12.4548 26.124 10.7159C26.1129 11.041 26.0288 11.3165 25.8373 11.5056Z" fill="#FE7581"/>
        <path d="M24.5965 10.8507C24.5965 10.8507 31.0995 1.8958 29.4669 0.264495C27.8356 -1.36805 19.1094 5.09045 19.1094 5.09045C19.1094 5.09045 19.6272 9.13411 24.5965 10.8507Z" fill="#FE7581"/>
        <path d="M8.56283 3.15393C8.56283 3.15393 4.98879 0.00871861 3.67756 0.899759C2.36633 1.78956 3.97045 6.11129 3.97045 6.11129C3.97045 6.11129 5.38178 2.97597 8.56283 3.15393Z" fill="#FE7581"/>
    </g>
    <defs>
        <clipPath id="clipBSD">
            <rect width="30" height="30" fill="white"/>
        </clipPath>
    </defs>
</svg>
