<svg width="30" height="30" viewBox="0 0 30 30" fill="none" xmlns="http://www.w3.org/2000/svg">
    <path d="M27.0141 24.0875C26.1344 23.7272 25.758 23.2491 25.7944 22.5357C25.8319 21.7029 25.3595 21.093 25.1351 20.852C25.2707 20.3342 25.6668 18.5431 25.1355 16.9873C24.5646 15.322 22.8217 12.7787 21.0232 10.2787C20.287 9.25196 20.2522 8.13596 20.2119 6.84369C20.1734 5.61112 20.1299 4.21399 19.4425 2.66087C18.6952 0.969744 17.1956 0 15.328 0C14.217 0 13.0766 0.347215 12.199 0.952531C10.402 2.19277 10.6395 4.89682 10.7967 6.68611C10.8182 6.93113 10.8385 7.16257 10.8503 7.36018C10.955 9.11259 10.8597 10.0362 10.7352 10.3169C10.6547 10.5004 10.2581 11.0225 9.83835 11.5753C9.40428 12.1469 8.91218 12.7949 8.5088 13.3988C8.02752 14.1254 7.63899 15.236 7.26325 16.31C6.98833 17.0959 6.72866 17.8382 6.47587 18.2818C5.99675 19.1352 6.11597 19.931 6.21551 20.2987C6.03413 20.4247 5.7721 20.6728 5.55088 21.1404C5.28354 21.7109 4.74107 22.0175 3.61307 22.2344C3.0947 22.3404 2.73726 22.5584 2.55037 22.8822C2.2784 23.3534 2.42653 23.9456 2.56168 24.3502C2.76135 24.9451 2.63693 25.3216 2.4107 26.0053C2.35856 26.163 2.29945 26.3417 2.23955 26.5387C2.14522 26.8496 2.17925 27.1323 2.34047 27.3789C2.76647 28.0301 4.00956 28.2598 5.28924 28.4109C6.05331 28.5016 6.88958 28.8072 7.6984 29.1028C8.4909 29.3924 9.31035 29.6919 10.0552 29.7828C10.1685 29.7971 10.2806 29.8043 10.3887 29.8043C11.5133 29.8043 12.0215 29.058 12.1826 28.7514C12.5866 28.669 13.9799 28.405 15.4158 28.3696C16.8495 28.3286 18.2367 28.6117 18.6297 28.6998C18.7532 28.9362 19.0789 29.4763 19.5981 29.7546C19.8834 29.9106 20.2805 30 20.6872 30C20.6873 30 20.6872 30 20.6873 30C21.1217 30 21.948 29.8973 22.602 29.2093C23.2543 28.518 24.8842 27.6355 26.0744 26.9911C26.3399 26.8473 26.5884 26.7128 26.8063 26.5913C27.4748 26.2207 27.8397 25.6911 27.8071 25.1384C27.7799 24.6793 27.4761 24.2767 27.0141 24.0875ZM12.2137 23.9544C12.1305 23.3682 11.3763 22.7868 10.503 22.1136C9.78888 21.5631 8.97946 20.9392 8.75648 20.4108C8.29565 19.3207 8.6589 17.4041 9.29225 16.4171C9.60524 15.9229 9.86088 15.1735 10.1082 14.4488C10.3751 13.6662 10.6512 12.8571 10.96 12.5029C11.4489 11.9499 11.9008 10.8739 11.9809 10.026C12.4387 10.4631 13.149 11.0177 13.8052 11.0177C13.9062 11.0177 14.0042 11.0046 14.098 10.9781C14.5469 10.8485 15.2072 10.4669 15.8458 10.0981C16.3963 9.77997 17.0752 9.3877 17.3306 9.352C17.7686 9.98092 20.3137 15.6132 20.5738 17.422C20.7796 18.8531 20.5622 20.0362 20.4529 20.4996C20.365 20.4876 20.2601 20.4778 20.15 20.4778C19.4411 20.4778 19.2534 20.8648 19.2045 21.0958C19.0788 21.6961 19.0655 23.6157 19.0642 24.047C18.8078 24.3727 17.5115 25.9063 15.6504 26.182C14.8924 26.2922 14.1844 26.348 13.5465 26.348C13.0012 26.348 12.6532 26.3059 12.5087 26.284L11.5734 25.2139C11.9422 25.0319 12.3109 24.6477 12.2137 23.9544ZM13.4004 6.30978C13.3712 6.32237 13.3425 6.33584 13.3142 6.35021C13.3114 6.28686 13.3048 6.22263 13.2947 6.15821C13.1926 5.5705 12.8029 5.1439 12.3682 5.1439C12.336 5.1439 12.3037 5.14636 12.2682 5.15177C12.0096 5.19485 11.8068 5.38912 11.6956 5.66453C11.7931 5.0602 12.1355 4.61275 12.5417 4.61275C13.0188 4.61275 13.4218 5.25564 13.4218 6.01656C13.4218 6.11247 13.4148 6.20788 13.4004 6.30978ZM17.1073 6.76293C17.1509 6.62385 17.1745 6.47335 17.1745 6.31716C17.1745 5.62725 16.7368 5.08675 16.178 5.08675C15.6319 5.08675 15.1876 5.63866 15.1876 6.31716C15.1876 6.36339 15.1899 6.40971 15.1942 6.45594C15.1653 6.44483 15.1371 6.43401 15.1095 6.42358C15.0467 6.23325 15.0149 6.03466 15.0149 5.83194C15.0149 5.00698 15.5421 4.33577 16.1903 4.33577C16.8384 4.33577 17.3657 5.00698 17.3657 5.83194C17.3657 6.17512 17.271 6.50267 17.1073 6.76293ZM16.6293 8.36858C16.62 8.41028 16.6001 8.42878 16.3804 8.54307C16.2694 8.60081 16.1313 8.67271 15.9585 8.77796L15.843 8.84789C15.3789 9.12921 14.2923 9.78813 13.9974 9.82679C13.797 9.85374 13.6731 9.77603 13.3944 9.58669C13.3316 9.5439 13.2647 9.49846 13.1934 9.45272C12.691 9.12311 12.3679 8.76006 12.3314 8.61812C12.4952 8.49153 12.9011 8.17471 13.109 7.98713C13.5308 7.59487 13.9554 7.33126 14.1655 7.33126C14.1766 7.33126 14.1866 7.33205 14.197 7.33402C14.4439 7.37759 15.0529 7.62064 15.4977 7.79808C15.7032 7.88012 15.8808 7.95094 16.0057 7.99579C16.3992 8.13094 16.6044 8.30386 16.6293 8.36858ZM20.1651 26.7002C20.3871 25.6988 20.6429 24.3365 20.6014 23.5333C20.5919 23.3509 20.5758 23.1523 20.5601 22.9603C20.5309 22.6013 20.4875 22.0677 20.5323 21.9094C20.5411 21.9053 20.551 21.9017 20.5619 21.8987C20.5638 22.3578 20.6635 23.2737 21.3959 23.593C21.6142 23.6883 21.8636 23.7365 22.1373 23.7365C22.8709 23.7365 23.685 23.3765 24.0184 23.0431C24.2147 22.8468 24.3799 22.6066 24.4956 22.4163C24.5208 22.4904 24.5364 22.5872 24.5282 22.7119C24.4846 23.3891 24.8138 24.2876 25.4401 24.6187L25.5313 24.6666C25.7544 24.7836 26.3469 25.0947 26.3565 25.2423C26.3564 25.2424 26.3514 25.2597 26.3184 25.2904C26.17 25.426 25.6476 25.6928 25.1424 25.9508C24.2462 26.4083 23.2304 26.927 22.7742 27.4068C22.1319 28.0827 21.4054 28.5368 20.9668 28.5368C20.9139 28.5368 20.8658 28.5301 20.823 28.5165C20.3466 28.368 19.9544 27.6805 20.1651 26.7002ZM3.92458 24.1454C3.87598 23.918 3.83762 23.7385 3.87884 23.5646C3.90874 23.4358 4.54484 23.2977 4.81652 23.2387C5.19845 23.1558 5.59347 23.0702 5.85177 22.9134C6.20105 22.7018 6.3902 22.3116 6.55702 21.9673C6.67781 21.7184 6.80253 21.461 6.95096 21.3765C6.95932 21.3716 6.9721 21.3658 6.9965 21.3658C7.27456 21.3658 7.85804 21.9504 8.19424 22.4736C8.27952 22.6055 8.43749 22.8698 8.62025 23.1758C9.16684 24.0904 9.91527 25.343 10.3062 25.7628C10.6584 26.1402 11.2286 26.8658 11.0883 27.4881C10.9856 27.971 10.4389 28.3637 10.31 28.4505C10.2632 28.4611 10.2052 28.4665 10.1371 28.4665C9.38894 28.4665 7.90801 27.8441 7.11237 27.5097L6.99463 27.4602C6.55033 27.2739 5.82501 27.1566 5.1236 27.0431C4.5655 26.9527 3.80123 26.829 3.67454 26.7173C3.57185 26.6021 3.69097 26.2276 3.79602 25.8973C3.87166 25.6598 3.94976 25.4143 3.99254 25.1573C4.05323 24.7473 3.98182 24.4136 3.92458 24.1454Z" fill="#232939"/>
</svg>
