<svg width="15" height="17" viewBox="0 0 15 17" fill="none" xmlns="http://www.w3.org/2000/svg">
    <path d="M13.875 11.3328V5.66615C13.8747 5.41772 13.8092 5.17372 13.6848 4.95864C13.5605 4.74356 13.3818 4.56495 13.1667 4.44073L8.20833 1.6074C7.99297 1.48306 7.74868 1.4176 7.5 1.4176C7.25132 1.4176 7.00703 1.48306 6.79167 1.6074L1.83333 4.44073C1.61819 4.56495 1.43949 4.74356 1.31516 4.95864C1.19083 5.17372 1.12525 5.41772 1.125 5.66615V11.3328C1.12525 11.5812 1.19083 11.8252 1.31516 12.0403C1.43949 12.2554 1.61819 12.434 1.83333 12.5582L6.79167 15.3916C7.00703 15.5159 7.25132 15.5814 7.5 15.5814C7.74868 15.5814 7.99297 15.5159 8.20833 15.3916L13.1667 12.5582C13.3818 12.434 13.5605 12.2554 13.6848 12.0403C13.8092 11.8252 13.8747 11.5812 13.875 11.3328Z" stroke="#232939" stroke-linecap="round" stroke-linejoin="round"/>
    <path d="M1.31641 4.92975L7.50016 8.50683L13.6839 4.92975" stroke="#232939" stroke-linecap="round" stroke-linejoin="round"/>
    <path d="M7.5 15.64V8.5" stroke="#232939" stroke-linecap="round" stroke-linejoin="round"/>
</svg>
