<svg width="30" height="30" viewBox="0 0 30 30" fill="none" xmlns="http://www.w3.org/2000/svg">
    <g clip-path="url(#clip0)">
        <path d="M10.0645 6.54732C11.4407 4.92169 13.2182 3.94294 15.1607 3.94294C19.5276 3.94294 23.0676 8.89294 23.0676 14.9998C23.0676 21.1067 19.5276 26.0586 15.1607 26.0586C13.2182 26.0586 11.4407 25.0779 10.0645 23.4542C12.217 26.2479 15.4157 28.0198 18.9876 28.0198C21.1851 28.0198 23.2401 27.3486 24.9988 26.1823C28.0682 23.4354 30.0013 19.4436 30.0013 14.9998C30.0013 10.5561 28.0682 6.56419 24.9988 3.81919C23.2401 2.65294 21.1851 1.98169 18.9876 1.98169C15.4157 1.97982 12.2151 3.75357 10.0645 6.54732Z" fill="#D32F2F"/>
        <path d="M15 0C6.71625 0 0 6.71625 0 15C0 23.0438 6.33375 29.61 14.2856 29.9831C14.5219 29.9944 14.76 30 15 30C18.84 30 22.3425 28.5562 24.9956 26.1825C23.2369 27.3487 21.1819 28.02 18.9844 28.02C15.4125 28.02 12.2138 26.2481 10.0613 23.4544C8.40188 21.4969 7.3275 18.6038 7.25625 15.3544C7.25625 15.3469 7.25625 14.6569 7.25625 14.6475C7.32938 11.4 8.40375 8.505 10.0613 6.5475C12.2138 3.75375 15.4125 1.98188 18.9844 1.98188C21.1819 1.98188 23.2369 2.65312 24.9956 3.81937C22.3575 1.45687 18.8756 0.015 15.0563 0C15.0375 0 15.0188 0 15 0Z" fill="#F44336"/>
    </g>
    <defs>
        <clipPath id="clip0">
            <rect width="30" height="30" fill="white"/>
        </clipPath>
    </defs>
</svg>
