<svg width="30" height="30" viewBox="0 0 30 30" fill="none" xmlns="http://www.w3.org/2000/svg">
    <path d="M15 30C23.2843 30 30 23.2843 30 15C30 6.71573 23.2843 0 15 0C6.71573 0 0 6.71573 0 15C0 23.2843 6.71573 30 15 30Z" fill="#1DA2F8"/>
    <path d="M14.9993 2.22026C14.8983 2.22026 14.8164 2.13835 14.8164 2.03733V1.20026C14.8164 1.09925 14.8983 1.01733 14.9993 1.01733C15.1003 1.01733 15.1823 1.09925 15.1823 1.20026V2.03733C15.1823 2.13835 15.1003 2.22026 14.9993 2.22026Z" fill="#F2F2F2"/>
    <path d="M14.9993 28.983C14.8983 28.983 14.8164 28.901 14.8164 28.8V27.963C14.8164 27.8619 14.8983 27.78 14.9993 27.78C15.1003 27.78 15.1823 27.8619 15.1823 27.963V28.8C15.1823 28.901 15.1003 28.983 14.9993 28.983Z" fill="#F2F2F2"/>
    <path d="M12.7481 2.41715C12.6609 2.41715 12.5837 2.35468 12.5681 2.26591L12.4227 1.44156C12.4052 1.34207 12.4717 1.24715 12.5711 1.22969C12.6709 1.21234 12.7656 1.27861 12.783 1.3781L12.9284 2.20246C12.9459 2.30195 12.8795 2.39687 12.78 2.41433C12.7692 2.41615 12.7586 2.41715 12.7481 2.41715Z" fill="#F2F2F2"/>
    <path d="M17.3965 28.7735C17.3094 28.7735 17.2322 28.7111 17.2165 28.6223L17.0712 27.7979C17.0536 27.6985 17.1201 27.6035 17.2195 27.5861C17.3193 27.5685 17.414 27.6349 17.4315 27.7345L17.5768 28.5588C17.5944 28.6583 17.5279 28.7532 17.4285 28.7707C17.4177 28.7726 17.4071 28.7735 17.3965 28.7735Z" fill="#F2F2F2"/>
    <path d="M10.5669 3.00185C10.4922 3.00185 10.422 2.95568 10.395 2.88144L10.1087 2.09488C10.0742 1.9999 10.1232 1.89496 10.2181 1.86039C10.3127 1.82599 10.418 1.87474 10.4525 1.96972L10.7388 2.75629C10.7733 2.85127 10.7243 2.95621 10.6294 2.99078C10.6088 2.99828 10.5877 3.00185 10.5669 3.00185Z" fill="#F2F2F2"/>
    <path d="M19.7212 28.1506C19.6465 28.1506 19.5763 28.1044 19.5493 28.0302L19.263 27.2436C19.2285 27.1486 19.2775 27.0437 19.3724 27.0091C19.467 26.9746 19.5723 27.0235 19.6067 27.1185L19.8931 27.905C19.9275 28 19.8786 28.1049 19.7837 28.1395C19.7631 28.147 19.742 28.1506 19.7212 28.1506Z" fill="#F2F2F2"/>
    <path d="M8.51963 3.95702C8.45641 3.95702 8.39494 3.92421 8.36102 3.8655L7.94248 3.14058C7.89203 3.0531 7.92192 2.94124 8.00946 2.89074C8.09682 2.83999 8.20879 2.87017 8.25936 2.95765L8.67789 3.68257C8.72834 3.77005 8.69846 3.88191 8.61092 3.93241C8.58221 3.94911 8.55069 3.95702 8.51963 3.95702Z" fill="#F2F2F2"/>
    <path d="M21.9005 27.1341C21.8373 27.1341 21.7758 27.1013 21.7419 27.0426L21.3233 26.3177C21.2729 26.2302 21.3028 26.1184 21.3903 26.0679C21.4777 26.0171 21.5896 26.0473 21.6402 26.1348L22.0587 26.8597C22.1092 26.9472 22.0793 27.059 21.9918 27.1095C21.9631 27.1262 21.9315 27.1341 21.9005 27.1341Z" fill="#F2F2F2"/>
    <path d="M6.66836 5.25301C6.61621 5.25301 6.5643 5.23081 6.52814 5.18768L5.99008 4.54649C5.9251 4.46909 5.93523 4.35372 6.01269 4.28874C6.08998 4.22388 6.20541 4.2339 6.27039 4.3113L6.80845 4.95249C6.87344 5.02989 6.8633 5.14526 6.78584 5.21024C6.75162 5.23901 6.7099 5.25301 6.66836 5.25301Z" fill="#F2F2F2"/>
    <path d="M23.8714 25.7545C23.8193 25.7545 23.7674 25.7323 23.7312 25.6892L23.1932 25.048C23.1282 24.9706 23.1384 24.8553 23.2158 24.7903C23.2931 24.7255 23.4085 24.7354 23.4735 24.8128L24.0115 25.454C24.0764 25.5314 24.0663 25.6468 23.9888 25.7118C23.9547 25.7405 23.9129 25.7545 23.8714 25.7545Z" fill="#F2F2F2"/>
    <path d="M5.07011 6.85059C5.02863 6.85059 4.98685 6.83659 4.95269 6.80782L4.3115 6.26976C4.23404 6.20477 4.22396 6.08946 4.28888 6.012C4.35386 5.93454 4.46929 5.92458 4.54658 5.98944L5.18777 6.52751C5.26523 6.59249 5.27531 6.7078 5.21039 6.78526C5.17418 6.82833 5.12226 6.85059 5.07011 6.85059Z" fill="#F2F2F2"/>
    <path d="M25.572 24.0536C25.5305 24.0536 25.4888 24.0396 25.4545 24.0108L24.8134 23.4728C24.736 23.4078 24.7259 23.2925 24.7908 23.215C24.8558 23.1375 24.9711 23.1276 25.0485 23.1924L25.6897 23.7305C25.767 23.7955 25.7771 23.9108 25.7122 23.9883C25.676 24.0314 25.6242 24.0536 25.572 24.0536Z" fill="#F2F2F2"/>
    <path d="M3.77488 8.70182C3.74389 8.70182 3.71242 8.69391 3.68359 8.67727L2.95867 8.25873C2.87114 8.20822 2.84125 8.09636 2.8917 8.00888C2.94227 7.92146 3.05383 7.89128 3.1416 7.94197L3.86652 8.36051C3.95406 8.41101 3.98395 8.52287 3.9335 8.61035C3.89963 8.66901 3.83816 8.70182 3.77488 8.70182Z" fill="#F2F2F2"/>
    <path d="M26.9526 22.0831C26.9216 22.0831 26.89 22.0752 26.8613 22.0586L26.1364 21.64C26.0489 21.5895 26.019 21.4777 26.0694 21.3902C26.1199 21.3027 26.2318 21.2725 26.3193 21.3233L27.0442 21.7418C27.1317 21.7923 27.1616 21.9042 27.1112 21.9916C27.0772 22.0503 27.0158 22.0831 26.9526 22.0831Z" fill="#F2F2F2"/>
    <path d="M2.81918 10.7496C2.79838 10.7496 2.77728 10.7461 2.75666 10.7386L1.97004 10.4523C1.87506 10.4177 1.82613 10.3128 1.8607 10.2178C1.89516 10.1228 2.00039 10.074 2.09508 10.1084L2.8817 10.3947C2.97668 10.4293 3.0256 10.5342 2.99103 10.6292C2.96402 10.7035 2.89388 10.7496 2.81918 10.7496Z" fill="#F2F2F2"/>
    <path d="M27.9676 19.903C27.9468 19.903 27.9257 19.8995 27.9049 19.892L27.1184 19.6057C27.0235 19.5711 26.9746 19.4662 27.0091 19.3712C27.0436 19.2762 27.1485 19.2275 27.2436 19.2619L28.0302 19.5481C28.1251 19.5827 28.174 19.6877 28.1394 19.7826C28.1124 19.857 28.0422 19.903 27.9676 19.903Z" fill="#F2F2F2"/>
    <path d="M2.23401 12.9323C2.22347 12.9323 2.2128 12.9313 2.20208 12.9295L1.37773 12.7841C1.27823 12.7665 1.21185 12.6716 1.22937 12.5722C1.24689 12.4728 1.34134 12.4064 1.4413 12.4238L2.26565 12.5692C2.36515 12.5867 2.43153 12.6816 2.41401 12.781C2.39837 12.8698 2.3212 12.9323 2.23401 12.9323Z" fill="#F2F2F2"/>
    <path d="M28.5894 17.5796C28.5789 17.5796 28.5682 17.5787 28.5575 17.5768L27.7332 17.4314C27.6337 17.4139 27.5673 17.319 27.5848 17.2195C27.6024 17.1201 27.6967 17.0537 27.7968 17.0711L28.6211 17.2165C28.7206 17.2341 28.787 17.3289 28.7695 17.4284C28.7539 17.5172 28.6766 17.5796 28.5894 17.5796Z" fill="#F2F2F2"/>
    <path d="M2.03752 15.183H1.20051C1.09949 15.183 1.01758 15.1011 1.01758 15.0001C1.01758 14.899 1.09949 14.8171 1.20051 14.8171H2.03752C2.13854 14.8171 2.22045 14.899 2.22045 15.0001C2.22045 15.1011 2.13854 15.183 2.03752 15.183Z" fill="#F2F2F2"/>
    <path d="M28.8013 15.183H27.9642C27.8632 15.183 27.7812 15.1011 27.7812 15.0001C27.7812 14.899 27.8632 14.8171 27.9642 14.8171H28.8013C28.9023 14.8171 28.9842 14.899 28.9842 15.0001C28.9842 15.1011 28.9023 15.183 28.8013 15.183Z" fill="#F2F2F2"/>
    <path d="M1.40937 17.5796C1.32218 17.5796 1.24501 17.5172 1.22937 17.4284C1.21185 17.329 1.27823 17.234 1.37773 17.2165L2.20208 17.0711C2.30192 17.0537 2.39655 17.12 2.41401 17.2196C2.43153 17.319 2.36515 17.414 2.26565 17.4314L1.4413 17.5768C1.43052 17.5787 1.41985 17.5796 1.40937 17.5796Z" fill="#F2F2F2"/>
    <path d="M27.7668 12.9321C27.6796 12.9321 27.6024 12.8697 27.5868 12.7809C27.5693 12.6815 27.6357 12.5865 27.7351 12.569L28.5595 12.4237C28.6592 12.4063 28.754 12.4725 28.7714 12.5721C28.7889 12.6715 28.7226 12.7665 28.6231 12.784L27.7988 12.9293C27.788 12.9312 27.7773 12.9321 27.7668 12.9321Z" fill="#F2F2F2"/>
    <path d="M2.0306 19.9028C1.95589 19.9028 1.88575 19.8566 1.85874 19.7824C1.82417 19.6874 1.87316 19.5825 1.96808 19.5479L2.7547 19.2616C2.84933 19.2272 2.95462 19.276 2.98907 19.371C3.02364 19.4659 2.97466 19.5709 2.87974 19.6054L2.09312 19.8917C2.07255 19.8993 2.05146 19.9028 2.0306 19.9028Z" fill="#F2F2F2"/>
    <path d="M27.181 10.7497C27.1063 10.7497 27.0361 10.7036 27.0091 10.6293C26.9746 10.5344 27.0235 10.4294 27.1184 10.3948L27.9049 10.1086C28.0001 10.0742 28.1049 10.123 28.1394 10.2179C28.174 10.3129 28.125 10.4178 28.0302 10.4524L27.2436 10.7387C27.2228 10.7462 27.2018 10.7497 27.181 10.7497Z" fill="#F2F2F2"/>
    <path d="M3.05032 22.083C2.98709 22.083 2.92563 22.0502 2.8917 21.9915C2.84125 21.904 2.87114 21.7922 2.95867 21.7416L3.68359 21.3231C3.77119 21.2724 3.88287 21.3025 3.9335 21.39C3.98395 21.4775 3.95406 21.5894 3.86652 21.6399L3.1416 22.0584C3.11278 22.0751 3.08137 22.083 3.05032 22.083Z" fill="#F2F2F2"/>
    <path d="M26.2261 8.70188C26.1629 8.70188 26.1014 8.66906 26.0675 8.61035C26.017 8.52287 26.0469 8.41101 26.1345 8.36051L26.8593 7.94197C26.9467 7.89128 27.0586 7.92146 27.1092 8.00888C27.1597 8.09636 27.1298 8.20822 27.0422 8.25873L26.3174 8.67727C26.2886 8.69397 26.257 8.70188 26.2261 8.70188Z" fill="#F2F2F2"/>
    <path d="M4.42717 24.0534C4.37502 24.0534 4.3231 24.0312 4.28695 23.9881C4.22197 23.9107 4.23211 23.7953 4.30957 23.7304L4.95076 23.1923C5.02805 23.1274 5.14348 23.1375 5.20846 23.2149C5.27344 23.2923 5.2633 23.4076 5.18584 23.4726L4.54465 24.0107C4.51043 24.0394 4.46871 24.0534 4.42717 24.0534Z" fill="#F2F2F2"/>
    <path d="M24.9311 6.85094C24.8789 6.85094 24.827 6.82874 24.7909 6.78561C24.7259 6.70821 24.736 6.5929 24.8134 6.52786L25.4546 5.98979C25.532 5.92493 25.6474 5.93495 25.7123 6.01235C25.7773 6.08975 25.7672 6.20506 25.6898 6.2701L25.0486 6.80817C25.0143 6.83688 24.9726 6.85094 24.9311 6.85094Z" fill="#F2F2F2"/>
    <path d="M6.13009 25.7542C6.08861 25.7542 6.04683 25.7402 6.01267 25.7115C5.93521 25.6465 5.92513 25.5312 5.99005 25.4537L6.52812 24.8125C6.59316 24.7351 6.70859 24.7251 6.78581 24.79C6.86327 24.8549 6.87335 24.9703 6.80843 25.0477L6.27036 25.6889C6.23415 25.732 6.18224 25.7542 6.13009 25.7542Z" fill="#F2F2F2"/>
    <path d="M23.3332 5.25301C23.2917 5.25301 23.25 5.23901 23.2158 5.21024C23.1383 5.14526 23.1283 5.02995 23.1932 4.95249L23.7312 4.3113C23.7962 4.2339 23.9117 4.22388 23.9889 4.28874C24.0663 4.35372 24.0764 4.46909 24.0115 4.54649L23.4735 5.18768C23.4373 5.23081 23.3854 5.25301 23.3332 5.25301Z" fill="#F2F2F2"/>
    <path d="M8.10075 27.1341C8.06975 27.1341 8.03828 27.1262 8.00946 27.1095C7.92192 27.059 7.89203 26.9472 7.94248 26.8597L8.36102 26.1348C8.41159 26.0473 8.52315 26.0171 8.61092 26.0679C8.69846 26.1184 8.72834 26.2302 8.67789 26.3177L8.25936 27.0426C8.22543 27.1013 8.16397 27.1341 8.10075 27.1341Z" fill="#F2F2F2"/>
    <path d="M21.4816 3.95711C21.4506 3.95711 21.4191 3.9492 21.3903 3.93256C21.3028 3.88206 21.2729 3.7702 21.3233 3.68272L21.7419 2.9578C21.7924 2.87032 21.904 2.84008 21.9918 2.89088C22.0793 2.94139 22.1092 3.05325 22.0587 3.14073L21.6402 3.86565C21.6063 3.9243 21.5448 3.95711 21.4816 3.95711Z" fill="#F2F2F2"/>
    <path d="M10.2826 28.1506C10.2618 28.1506 10.2407 28.147 10.2201 28.1395C10.1251 28.105 10.0762 28 10.1107 27.905L10.397 27.1185C10.4316 27.0234 10.5366 26.9746 10.6314 27.0091C10.7264 27.0437 10.7753 27.1487 10.7407 27.2436L10.4544 28.0302C10.4274 28.1045 10.3572 28.1506 10.2826 28.1506Z" fill="#F2F2F2"/>
    <path d="M19.4349 3.0021C19.4141 3.0021 19.393 2.99853 19.3724 2.99103C19.2774 2.95646 19.2285 2.85152 19.263 2.75654L19.5493 1.96997C19.5838 1.87494 19.689 1.82624 19.7837 1.86064C19.8787 1.89521 19.9276 2.00015 19.8931 2.09513L19.6068 2.88169C19.5799 2.95599 19.5096 3.0021 19.4349 3.0021Z" fill="#F2F2F2"/>
    <path d="M12.605 28.7735C12.5944 28.7735 12.5838 28.7725 12.573 28.7706C12.4736 28.7531 12.4072 28.6583 12.4247 28.5588L12.57 27.7345C12.5876 27.635 12.682 27.5685 12.782 27.5861C12.8814 27.6036 12.9479 27.6984 12.9303 27.7979L12.785 28.6223C12.7693 28.7109 12.6922 28.7735 12.605 28.7735Z" fill="#F2F2F2"/>
    <path d="M17.2534 2.41711C17.2429 2.41711 17.2322 2.41618 17.2215 2.4143C17.122 2.39672 17.0556 2.30192 17.0731 2.20243L17.2185 1.37807C17.236 1.27864 17.3305 1.21243 17.4304 1.22965C17.5299 1.24723 17.5963 1.34204 17.5788 1.44153L17.4334 2.26588C17.4177 2.35459 17.3406 2.41711 17.2534 2.41711Z" fill="#F2F2F2"/>
    <path d="M13.9892 3.62246C13.8954 3.62246 13.8155 3.55069 13.8072 3.45553L13.6159 1.26875C13.6072 1.16809 13.6816 1.07938 13.7822 1.07059C13.883 1.06139 13.9716 1.13627 13.9803 1.23688L14.1716 3.42366C14.1804 3.52432 14.106 3.61303 14.0054 3.62182C14 3.62223 13.9945 3.62246 13.9892 3.62246Z" fill="#F2F2F2"/>
    <path d="M16.2021 28.9306C16.1083 28.9306 16.0284 28.8588 16.0201 28.7636L15.8288 26.5769C15.82 26.4762 15.8945 26.3875 15.9951 26.3787C16.0965 26.3695 16.1844 26.4444 16.1932 26.545L16.3845 28.7318C16.3933 28.8324 16.3189 28.9211 16.2183 28.9299C16.2129 28.9303 16.2074 28.9306 16.2021 28.9306Z" fill="#F2F2F2"/>
    <path d="M11.9951 3.97369C11.9143 3.97369 11.8405 3.91978 11.8186 3.8381L11.2504 1.71776C11.2243 1.62015 11.2821 1.51989 11.3797 1.49376C11.4773 1.4671 11.5777 1.52552 11.6037 1.62308L12.1719 3.74341C12.1981 3.84103 12.1402 3.94128 12.0426 3.96742C12.0268 3.97169 12.0108 3.97369 11.9951 3.97369Z" fill="#F2F2F2"/>
    <path d="M18.5732 28.5128C18.4924 28.5128 18.4185 28.4589 18.3967 28.3772L17.8285 26.2569C17.8024 26.1593 17.8602 26.059 17.9579 26.0329C18.0558 26.0064 18.1557 26.0646 18.1819 26.1622L18.75 28.2825C18.7761 28.3801 18.7183 28.4804 18.6207 28.5065C18.6047 28.5108 18.5888 28.5128 18.5732 28.5128Z" fill="#F2F2F2"/>
    <path d="M10.0951 4.66566C10.0262 4.66566 9.96026 4.62652 9.92926 4.56001L9.00155 2.57052C8.95889 2.479 8.99844 2.37013 9.08996 2.32747C9.18143 2.28482 9.29047 2.32437 9.33307 2.41595L10.2608 4.40544C10.3034 4.49697 10.2639 4.60583 10.1724 4.64849C10.1474 4.66015 10.121 4.66566 10.0951 4.66566Z" fill="#F2F2F2"/>
    <path d="M20.8334 27.6901C20.7644 27.6901 20.6985 27.6509 20.6675 27.5844L19.7398 25.5949C19.6972 25.5034 19.7367 25.3945 19.8282 25.3519C19.9198 25.3092 20.0287 25.3488 20.0713 25.4404L20.999 27.4299C21.0416 27.5214 21.0021 27.6302 20.9106 27.6729C20.8856 27.6846 20.8592 27.6901 20.8334 27.6901Z" fill="#F2F2F2"/>
    <path d="M8.34456 5.67699C8.2869 5.67699 8.23013 5.64981 8.1945 5.59901L6.93538 3.80083C6.87755 3.71803 6.89759 3.60401 6.98032 3.54606C7.06341 3.48799 7.17725 3.50833 7.23514 3.591L8.49427 5.38918C8.5521 5.47198 8.53206 5.586 8.44933 5.64395C8.41733 5.66627 8.38071 5.67699 8.34456 5.67699Z" fill="#F2F2F2"/>
    <path d="M22.9168 26.4871C22.8591 26.4871 22.8023 26.4599 22.7667 26.4091L21.5076 24.6109C21.4498 24.5281 21.4699 24.4141 21.5526 24.3561C21.6357 24.2981 21.7495 24.3184 21.8074 24.4011L23.0664 26.1993C23.1242 26.282 23.1042 26.3961 23.0215 26.454C22.9895 26.4763 22.9529 26.4871 22.9168 26.4871Z" fill="#F2F2F2"/>
    <path d="M6.79564 6.97716C6.74888 6.97716 6.70201 6.95929 6.66632 6.92361L5.11412 5.37134C5.04269 5.29998 5.04269 5.18408 5.11412 5.11265C5.18554 5.04123 5.30132 5.04123 5.37281 5.11265L6.92501 6.66486C6.99644 6.73622 6.99644 6.85212 6.92501 6.92355C6.88927 6.95923 6.84251 6.97716 6.79564 6.97716Z" fill="#F2F2F2"/>
    <path d="M24.7566 24.9409C24.7098 24.9409 24.663 24.923 24.6273 24.8873L23.0751 23.3351C23.0036 23.2637 23.0036 23.1478 23.0751 23.0764C23.1465 23.005 23.2623 23.005 23.3337 23.0764L24.886 24.6286C24.9574 24.7 24.9574 24.8159 24.886 24.8873C24.8502 24.923 24.8034 24.9409 24.7566 24.9409Z" fill="#F2F2F2"/>
    <path d="M5.49454 8.52683C5.45832 8.52683 5.42176 8.5161 5.38977 8.49372L3.59165 7.23466C3.50891 7.17677 3.48887 7.06269 3.54671 6.9799C3.60477 6.89711 3.71862 6.87701 3.80153 6.93496L5.59965 8.19396C5.68239 8.25185 5.70243 8.36593 5.64459 8.44872C5.60897 8.49958 5.55219 8.52683 5.49454 8.52683Z" fill="#F2F2F2"/>
    <path d="M26.3051 23.0983C26.2689 23.0983 26.2324 23.0876 26.2004 23.0652L24.4022 21.8062C24.3195 21.7483 24.2994 21.6342 24.3573 21.5514C24.4153 21.4687 24.5291 21.4485 24.6121 21.5065L26.4102 22.7655C26.493 22.8234 26.513 22.9375 26.4552 23.0203C26.4196 23.071 26.3628 23.0983 26.3051 23.0983Z" fill="#F2F2F2"/>
    <path d="M4.48285 10.2789C4.45696 10.2789 4.43071 10.2734 4.40569 10.2617L2.41625 9.33401C2.32461 9.29135 2.28506 9.18249 2.32771 9.09096C2.37037 8.99944 2.4793 8.95989 2.57076 9.00249L4.56026 9.93014C4.6519 9.9728 4.69145 10.0817 4.64879 10.1732C4.61774 10.2398 4.55176 10.2789 4.48285 10.2789Z" fill="#F2F2F2"/>
    <path d="M27.5063 21.0151C27.4804 21.0151 27.4541 21.0096 27.429 20.9979L25.4396 20.0702C25.3481 20.0276 25.3085 19.9187 25.3512 19.8272C25.3939 19.7357 25.5028 19.6961 25.5943 19.7387L27.5837 20.6664C27.6752 20.709 27.7148 20.8179 27.6721 20.9094C27.6412 20.976 27.5752 21.0151 27.5063 21.0151Z" fill="#F2F2F2"/>
    <path d="M3.79175 12.1798C3.77617 12.1798 3.76023 12.1778 3.74429 12.1734L1.6239 11.6053C1.52622 11.5792 1.46839 11.4789 1.49458 11.3813C1.52066 11.2837 1.62079 11.2256 1.71859 11.252L3.83898 11.8201C3.93665 11.8462 3.99449 11.9466 3.96829 12.0441C3.94638 12.1258 3.87243 12.1798 3.79175 12.1798Z" fill="#F2F2F2"/>
    <path d="M28.3308 18.7547C28.3152 18.7547 28.2993 18.7527 28.2834 18.7484L26.163 18.1802C26.0653 18.1541 26.0075 18.0538 26.0336 17.9562C26.0597 17.8586 26.1599 17.8006 26.2576 17.8269L28.378 18.3951C28.4757 18.4212 28.5336 18.5215 28.5074 18.6191C28.4856 18.7009 28.4116 18.7547 28.3308 18.7547Z" fill="#F2F2F2"/>
    <path d="M3.4402 14.1717C3.43481 14.1717 3.42947 14.1714 3.42403 14.1709L1.23725 13.9796C1.13664 13.9708 1.06223 13.8821 1.07102 13.7814C1.07975 13.6808 1.16875 13.606 1.26918 13.6151L3.45596 13.8064C3.55656 13.8152 3.63098 13.9039 3.62219 14.0046C3.61399 14.0999 3.53412 14.1717 3.4402 14.1717Z" fill="#F2F2F2"/>
    <path d="M28.7469 16.3858C28.7416 16.3858 28.7362 16.3856 28.7308 16.3851L26.544 16.1938C26.4433 16.185 26.3688 16.0963 26.3777 15.9956C26.3865 15.895 26.4744 15.8205 26.5758 15.8293L28.7626 16.0206C28.8633 16.0294 28.9377 16.1181 28.9289 16.2188C28.9206 16.3141 28.8407 16.3858 28.7469 16.3858Z" fill="#F2F2F2"/>
    <path d="M1.25106 16.3861C1.15719 16.3861 1.07733 16.3143 1.06906 16.2191C1.06028 16.1185 1.13469 16.0298 1.23529 16.021L3.42207 15.8297C3.52432 15.8209 3.61151 15.8954 3.62024 15.996C3.62902 16.0966 3.55461 16.1853 3.45401 16.1941L1.26723 16.3854C1.26178 16.3858 1.25633 16.3861 1.25106 16.3861Z" fill="#F2F2F2"/>
    <path d="M26.5597 14.1716C26.4658 14.1716 26.3859 14.0998 26.3777 14.0047C26.3689 13.904 26.4433 13.8153 26.5439 13.8065L28.7308 13.6152C28.832 13.6057 28.9201 13.6809 28.9289 13.7815C28.9377 13.8821 28.8633 13.9709 28.7626 13.9796L26.5758 14.171C26.5703 14.1714 26.5649 14.1716 26.5597 14.1716Z" fill="#F2F2F2"/>
    <path d="M1.6711 18.7549C1.5903 18.7549 1.51641 18.701 1.49456 18.6193C1.46843 18.5217 1.52626 18.4214 1.62388 18.3953L3.74426 17.8271C3.84159 17.8005 3.94208 17.8589 3.96827 17.9564C3.9944 18.054 3.93657 18.1543 3.83895 18.1804L1.71856 18.7486C1.70274 18.7529 1.68669 18.7549 1.6711 18.7549Z" fill="#F2F2F2"/>
    <path d="M26.2102 12.1798C26.1294 12.1798 26.0555 12.1259 26.0336 12.0442C26.0075 11.9466 26.0653 11.8464 26.1629 11.8202L28.2833 11.2521C28.3808 11.2257 28.4811 11.2839 28.5073 11.3814C28.5335 11.479 28.4756 11.5793 28.378 11.6054L26.2576 12.1736C26.2417 12.1778 26.2258 12.1798 26.2102 12.1798Z" fill="#F2F2F2"/>
    <path d="M2.49164 21.0151C2.42273 21.0151 2.35676 20.976 2.32576 20.9094C2.28311 20.8179 2.32266 20.709 2.4143 20.6664L4.40379 19.7387C4.4949 19.6961 4.60412 19.7357 4.64683 19.8272C4.68955 19.9187 4.64994 20.0276 4.5583 20.0702L2.56881 20.9979C2.54391 21.0096 2.51754 21.0151 2.49164 21.0151Z" fill="#F2F2F2"/>
    <path d="M25.519 10.279C25.4501 10.279 25.3841 10.2398 25.3531 10.1733C25.3105 10.0818 25.35 9.97292 25.4415 9.93027L27.4309 9.00261C27.5225 8.96001 27.6314 8.99956 27.674 9.09108C27.7167 9.18261 27.6772 9.29148 27.5856 9.33413L25.5962 10.2618C25.5712 10.2735 25.5449 10.279 25.519 10.279Z" fill="#F2F2F2"/>
    <path d="M3.69677 23.0984C3.63911 23.0984 3.58233 23.0713 3.54671 23.0205C3.48887 22.9377 3.50891 22.8236 3.59165 22.7657L5.38977 21.5066C5.47286 21.4486 5.5867 21.4689 5.64459 21.5516C5.70243 21.6344 5.68239 21.7484 5.59965 21.8063L3.80153 23.0653C3.7696 23.0877 3.73298 23.0984 3.69677 23.0984Z" fill="#F2F2F2"/>
    <path d="M24.5073 8.52698C24.4497 8.52698 24.3929 8.49979 24.3573 8.44899C24.2994 8.3662 24.3195 8.25217 24.4022 8.19422L26.2004 6.93522C26.2835 6.87715 26.3972 6.89749 26.4552 6.98016C26.513 7.06295 26.493 7.17698 26.4103 7.23493L24.6121 8.49393C24.5801 8.5162 24.5435 8.52698 24.5073 8.52698Z" fill="#F2F2F2"/>
    <path d="M5.24148 24.9409C5.19472 24.9409 5.14785 24.923 5.11216 24.8873C5.04074 24.8159 5.04074 24.7 5.11216 24.6286L6.66437 23.0764C6.7358 23.005 6.85158 23.005 6.92306 23.0764C6.99449 23.1478 6.99449 23.2637 6.92306 23.3351L5.37085 24.8873C5.33511 24.923 5.28824 24.9409 5.24148 24.9409Z" fill="#F2F2F2"/>
    <path d="M23.2063 6.9771C23.1596 6.9771 23.1127 6.95923 23.077 6.92355C23.0056 6.85218 23.0056 6.73628 23.077 6.66486L24.6292 5.11265C24.7006 5.04123 24.8164 5.04123 24.8879 5.11265C24.9593 5.18402 24.9593 5.29992 24.8879 5.37134L23.3357 6.92355C23.2998 6.95917 23.2531 6.9771 23.2063 6.9771Z" fill="#F2F2F2"/>
    <path d="M7.08509 26.4874C7.04887 26.4874 7.01231 26.4767 6.98032 26.4543C6.89759 26.3964 6.87755 26.2824 6.93538 26.1996L8.1945 24.4014C8.25257 24.3187 8.36642 24.2985 8.44933 24.3564C8.53206 24.4143 8.5521 24.5284 8.49427 24.6112L7.23514 26.4094C7.19946 26.4602 7.1428 26.4874 7.08509 26.4874Z" fill="#F2F2F2"/>
    <path d="M21.6574 5.67728C21.6211 5.67728 21.5846 5.66656 21.5526 5.64418C21.4699 5.58629 21.4498 5.4722 21.5076 5.38941L22.7667 3.59123C22.8247 3.50843 22.9387 3.48834 23.0215 3.54629C23.1043 3.60418 23.1243 3.71826 23.0665 3.80105L21.8075 5.59924C21.7718 5.65009 21.7151 5.67728 21.6574 5.67728Z" fill="#F2F2F2"/>
    <path d="M9.16727 27.69C9.14137 27.69 9.11507 27.6845 9.08999 27.6728C8.99847 27.6301 8.95886 27.5213 9.00157 27.4297L9.92928 25.4402C9.97188 25.3487 10.0809 25.3091 10.1724 25.3518C10.2639 25.3944 10.3035 25.5033 10.2608 25.5948L9.33309 27.5843C9.30216 27.6509 9.23618 27.69 9.16727 27.69Z" fill="#F2F2F2"/>
    <path d="M19.9056 4.66559C19.8797 4.66559 19.8533 4.66008 19.8283 4.64837C19.7367 4.60571 19.6971 4.49684 19.7399 4.40532L20.6675 2.41583C20.7101 2.32424 20.8191 2.28469 20.9106 2.32735C21.0021 2.37001 21.0417 2.47887 20.999 2.5704L20.0714 4.55989C20.0403 4.62651 19.9743 4.66559 19.9056 4.66559Z" fill="#F2F2F2"/>
    <path d="M11.4311 28.5128C11.4155 28.5128 11.3995 28.5108 11.3837 28.5065C11.286 28.4804 11.2282 28.3801 11.2543 28.2825L11.8225 26.1622C11.8487 26.0647 11.9491 26.0064 12.0465 26.0329C12.1442 26.059 12.202 26.1593 12.1758 26.2569L11.6077 28.3772C11.5858 28.459 11.5119 28.5128 11.4311 28.5128Z" fill="#F2F2F2"/>
    <path d="M18.0053 3.97397C17.9898 3.97397 17.9738 3.97198 17.9579 3.96764C17.8602 3.94151 17.8024 3.84119 17.8286 3.74364L18.3967 1.6233C18.4228 1.52574 18.5227 1.46738 18.6207 1.49398C18.7184 1.52012 18.7762 1.62043 18.75 1.71799L18.1819 3.83832C18.16 3.92 18.0861 3.97397 18.0053 3.97397Z" fill="#F2F2F2"/>
    <path d="M13.7964 28.9306C13.7911 28.9306 13.7857 28.9303 13.7803 28.9298C13.6796 28.921 13.6051 28.8323 13.614 28.7316L13.8053 26.5449C13.814 26.4443 13.9027 26.3694 14.0034 26.3786C14.1041 26.3874 14.1785 26.476 14.1697 26.5767L13.9784 28.7635C13.9701 28.8588 13.8903 28.9306 13.7964 28.9306Z" fill="#F2F2F2"/>
    <path d="M16.0132 3.62222C16.0079 3.62222 16.0025 3.62199 15.9971 3.62146C15.8964 3.61267 15.8219 3.52402 15.8308 3.4233L16.0221 1.23652C16.0308 1.13592 16.1186 1.06097 16.2202 1.07023C16.3209 1.07902 16.3953 1.16767 16.3865 1.2684L16.1952 3.45517C16.1869 3.5505 16.1071 3.62222 16.0132 3.62222Z" fill="#F2F2F2"/>
    <path d="M16.8147 16.8122L24.8977 5.10486L13.1904 13.1878L5.10742 24.8951L16.8147 16.8122Z" fill="#F2F2F2"/>
    <path d="M16.8147 16.8122L24.8977 5.10486L5.10742 24.8951L16.8147 16.8122Z" fill="#CCCCCC"/>
    <path d="M16.8138 16.8122L24.8968 5.10486L13.1895 13.1878L16.8138 16.8122Z" fill="#FF525D"/>
    <path d="M16.8122 16.8122L24.8951 5.10486L15 15L16.8122 16.8122Z" fill="#EF4152"/>
</svg>
