<svg width="30" height="30" viewBox="0 0 30 30" fill="none" xmlns="http://www.w3.org/2000/svg">
    <g clip-path="url(#clip0)">
        <path d="M10.2669 14.6646C10.2669 12.3471 11.3548 10.2839 13.0445 8.95571L10.4583 4.81635C8.29094 6.373 6.66005 8.62606 5.89062 11.2487C7.09513 12.024 7.89391 13.3786 7.89391 14.9182C7.89391 16.4031 7.15562 17.7123 6.02232 18.5004C6.84956 20.9846 8.4616 23.1113 10.5644 24.5872L12.9696 20.3095C11.3216 18.9817 10.2669 16.9461 10.2669 14.6646Z" fill="#FE7581"/>
        <path d="M6.66998 14.9183C6.66998 16.6501 5.26356 18.0551 3.53216 18.0551C1.79992 18.0551 0.394531 16.6502 0.394531 14.9183C0.394531 13.1873 1.79992 11.7824 3.53216 11.7824C5.26356 11.7824 6.66998 13.1873 6.66998 14.9183Z" fill="#FE7581"/>
        <path d="M24.2889 22.5035C25.0186 22.5035 25.7056 22.682 26.3093 22.999C28.1894 21.0174 29.4043 18.4028 29.6053 15.5067L24.7323 15.4124C24.3571 19.0672 21.2695 21.9144 17.5168 21.9144C16.4781 21.9144 15.4868 21.6959 14.5922 21.3008L12.1699 25.5387C13.7848 26.3333 15.5976 26.7797 17.5167 26.7797C18.3449 26.7797 19.1572 26.6959 19.9398 26.5362C20.1068 24.2822 21.9898 22.5035 24.2889 22.5035Z" fill="#FE7581"/>
        <path d="M27.4251 26.8643C27.4251 28.5958 26.0216 30.0001 24.2892 30.0001C22.5569 30.0001 21.1523 28.5958 21.1523 26.8643C21.1523 25.1315 22.5569 23.7275 24.2892 23.7275C26.0216 23.7275 27.4251 25.1315 27.4251 26.8643Z" fill="#FE7581"/>
        <path d="M26.6414 6.69701C25.9315 7.19977 25.0626 7.49732 24.1244 7.49732C21.7145 7.49732 19.7632 5.54553 19.7632 3.13707C19.7632 3.00914 19.7689 2.88542 19.7784 2.76126C19.0458 2.621 18.2886 2.54901 17.5153 2.54901C15.5783 2.54901 13.7465 3.00489 12.123 3.81225L14.5311 8.05303C15.4419 7.64275 16.452 7.41196 17.5153 7.41196C21.2349 7.41196 24.3006 10.2132 24.7195 13.8211L29.5925 13.6723C29.3773 11.0119 28.2998 8.59518 26.6414 6.69701Z" fill="#FE7581"/>
        <path d="M27.2619 3.13733C27.2619 4.86964 25.8612 6.27411 24.127 6.27411C22.3948 6.27411 20.9902 4.86964 20.9902 3.13733C20.9902 1.4049 22.3947 0 24.127 0C25.8611 0 27.2619 1.4049 27.2619 3.13733Z" fill="#FE7581"/>
    </g>
    <defs>
        <clipPath id="clip0">
            <rect width="30" height="30" fill="white"/>
        </clipPath>
    </defs>
</svg>
