<svg width="30" height="30" viewBox="0 0 30 30" fill="none" xmlns="http://www.w3.org/2000/svg">
    <g clip-path="url(#clip0)">
        <path d="M14.4736 2.27562C19.777 1.40973 24.4735 0.756758 29.7605 0.00195497C29.8752 -0.0144513 29.9783 0.0744939 29.9783 0.190275V14.044C29.9783 14.149 29.8934 14.2341 29.7884 14.2341C24.5365 14.2366 19.1825 14.3412 13.9306 14.3437C13.8254 14.3438 13.7402 14.2584 13.7402 14.1532V3.50626V2.54879C13.7402 2.45451 13.8093 2.37441 13.9026 2.36052L14.4736 2.27562Z" fill="#579ADD"/>
        <path d="M0.799354 4.12562L12.0984 2.63248C12.2125 2.61736 12.3137 2.70613 12.3137 2.82115V14.1537C12.3137 14.2587 12.2284 14.3437 12.1235 14.3438C8.08618 14.3469 4.15032 14.4501 0.216113 14.4533C0.11082 14.4534 0.0253906 14.3679 0.0253906 14.2627V4.97921V4.41209C0.0253906 4.31863 0.0932421 4.239 0.185586 4.22418L0.799354 4.12562Z" fill="#579ADD"/>
        <path d="M0.218066 15.6604C4.1507 15.6637 8.08496 15.765 12.1207 15.6653C12.2275 15.6627 12.3157 15.7483 12.3157 15.8552V27.2927C12.3157 27.4077 12.2141 27.4964 12.1001 27.4814C8.06282 26.9497 4.12679 26.4181 0.192168 25.8863C0.0977733 25.8736 0.0273438 25.7929 0.0273438 25.6977V15.8511C0.0273438 15.7458 0.112773 15.6603 0.218066 15.6604Z" fill="#579ADD"/>
        <path d="M14.4737 15.7701H29.788C29.8931 15.7701 29.9783 15.8554 29.9783 15.9605V29.3751V29.8099C29.9783 29.9271 29.8736 30.0162 29.758 29.9975C24.5069 29.1464 19.1541 28.5002 13.9038 27.7526C13.8099 27.7392 13.7402 27.6588 13.7402 27.5639V15.9605C13.7402 15.8553 13.8255 15.7701 13.9306 15.7701L14.4737 15.7701Z" fill="#579ADD"/>
        <path d="M14.9456 14.1496V3.29599V2.31994C14.9456 2.27072 14.9643 2.22549 14.9951 2.19092C14.8219 2.21893 14.6481 2.24717 14.4737 2.2757L13.9026 2.36061C13.8093 2.37449 13.7402 2.45453 13.7402 2.54887V3.50629V14.1533C13.7402 14.2585 13.8254 14.3439 13.9306 14.3438C14.3222 14.3436 14.7154 14.3419 15.1081 14.3407C15.016 14.3255 14.9456 14.246 14.9456 14.1496Z" fill="#4987CE"/>
        <path d="M1.23267 14.2585V4.76266V4.18253C1.23267 4.13776 1.24838 4.09646 1.27422 4.06323L0.801248 4.12569L0.187539 4.22413C0.0951952 4.23895 0.0273438 4.31858 0.0273438 4.41204V4.97923V14.2627C0.0273438 14.368 0.112832 14.4535 0.218066 14.4533C0.607714 14.453 0.99742 14.4511 1.38718 14.449C1.299 14.4304 1.23267 14.3522 1.23267 14.2585Z" fill="#4987CE"/>
        <path d="M12.2234 15.694C12.1931 15.6754 12.1575 15.6646 12.1191 15.6655L12.2234 15.694Z" fill="#4987CE"/>
        <path d="M1.23078 26.0167V15.8572C1.23078 15.7615 1.29922 15.6819 1.3898 15.6643C0.998514 15.6623 0.607284 15.6608 0.216113 15.6605C0.110879 15.6603 0.0253906 15.7458 0.0253906 15.8511V25.6977C0.0253906 25.793 0.0958202 25.8736 0.190273 25.8863C0.537382 25.9333 0.884608 25.9801 1.23183 26.027C1.23154 26.0236 1.23078 26.0203 1.23078 26.0167Z" fill="#4987CE"/>
        <path d="M14.9456 27.8148V15.9646C14.9456 15.8572 15.0326 15.7701 15.14 15.7701H14.4737H13.9305C13.8254 15.7701 13.7402 15.8554 13.7402 15.9605V27.5639C13.7402 27.6587 13.8098 27.7392 13.9038 27.7526C14.2578 27.803 14.6124 27.8529 14.9673 27.9025C14.9537 27.8759 14.9456 27.8463 14.9456 27.8148Z" fill="#4987CE"/>
    </g>
    <defs>
        <clipPath id="clip0">
            <rect width="30" height="30" fill="white"/>
        </clipPath>
    </defs>
</svg>
