<svg width="40" height="40" viewBox="0 0 40 40" fill="none" xmlns="http://www.w3.org/2000/svg">
<path opacity="0.3" fill-rule="evenodd" clip-rule="evenodd" d="M20 40C31.0457 40 40 31.0457 40 20C40 8.9543 31.0457 0 20 0C8.9543 0 0 8.9543 0 20C0 31.0457 8.9543 40 20 40Z" fill="#47A8E8"/>
<path d="M29.5379 11.6354C30.2916 10.8279 31.5572 10.7842 32.3647 11.5379C33.1722 12.2916 33.2158 13.5571 32.4621 14.3646L18.4621 29.3646C17.7309 30.1481 16.5121 30.216 15.6985 29.5185L8.69845 23.5185C7.8598 22.7997 7.76268 21.5371 8.48152 20.6984C9.20037 19.8598 10.463 19.7626 11.3016 20.4815L16.846 25.2338L29.5379 11.6354Z" fill="#47A8E8"/>
</svg>
