<svg width="180" height="180" viewBox="0 0 180 180" fill="none" xmlns="http://www.w3.org/2000/svg">
<path d="M90 180C139.706 180 180 139.706 180 90C180 40.2944 139.706 0 90 0C40.2944 0 0 40.2944 0 90C0 139.706 40.2944 180 90 180Z" fill="#F2F2F2"/>
<path d="M169.125 90H138.375C138.375 81 136.125 73.125 132 65.625C127.875 58.125 121.5 52.125 114.375 48L129.75 21.375C141.75 28.5 151.875 38.25 158.625 50.25C165 62.25 169.125 75.75 169.125 90Z" fill="#5AC794"/>
<path d="M169.125 90C169.125 104.25 165.375 117.75 158.625 129.375C151.875 141.375 141.75 151.5 129.75 158.25L114.375 131.625C121.875 127.5 127.875 121.125 132 114C136.125 106.875 138.375 98.625 138.375 89.625H169.125V90Z" fill="#8EEABF"/>
<path d="M65.625 48C58.125 52.125 52.125 58.5 48 65.625C43.875 72.75 41.625 81 41.625 90H10.875C10.875 75.75 14.625 62.25 21.375 50.625C28.125 38.625 38.25 28.5 50.25 21.75L65.625 48Z" fill="#F8B64C"/>
<path d="M65.625 132L50.25 158.625C38.25 151.875 28.125 141.75 21.375 129.75C15 117.75 10.875 104.25 10.875 90H41.625C41.625 99 43.875 107.25 48 114.375C52.5 121.5 58.5 127.5 65.625 132Z" fill="#FF7058"/>
<path d="M129.375 21.75L114 48.375C106.875 44.25 98.625 42 89.625 42C80.625 42 72.75 44.25 65.25 48.375L49.875 21.75C62.25 15 75.75 10.875 90 10.875C104.25 10.875 117.75 15 129.375 21.75Z" fill="#FFD15C"/>
<path d="M90 138.375C116.717 138.375 138.375 116.717 138.375 90C138.375 63.2832 116.717 41.625 90 41.625C63.2832 41.625 41.625 63.2832 41.625 90C41.625 116.717 63.2832 138.375 90 138.375Z" fill="#F2F2F2"/>
<path opacity="0.15" d="M90 18.375C132.375 18.375 166.875 51.75 168.75 93.75C168.75 92.625 169.125 91.125 169.125 90C169.125 46.5 133.875 10.875 90 10.875C46.125 10.875 10.875 46.5 10.875 90C10.875 91.125 10.875 92.625 11.25 93.75C13.125 51.75 47.625 18.375 90 18.375Z" fill="#40596B"/>
</svg>
