<svg width="64" height="64" viewBox="0 0 64 64" fill="none" xmlns="http://www.w3.org/2000/svg">
<path d="M41.2992 24.2998H10.4992L4.69922 29.1998V41.0998L10.4992 45.9998H41.3992L47.2992 41.0998V29.0998L41.2992 24.2998ZM13.1992 38.1998C11.4992 38.1998 10.0992 36.7998 10.0992 35.0998C10.0992 33.3998 11.4992 31.8998 13.1992 31.8998C14.8992 31.8998 16.2992 33.2998 16.2992 35.0998C16.2992 36.7998 14.8992 38.1998 13.1992 38.1998ZM25.9992 41.6998C22.3992 41.6998 19.3992 38.6998 19.3992 35.0998C19.3992 31.4998 22.3992 28.4998 25.9992 28.4998C29.5992 28.4998 32.5992 31.4998 32.5992 35.0998C32.4992 38.6998 29.5992 41.6998 25.9992 41.6998ZM38.6992 38.1998C36.9992 38.1998 35.4992 36.7998 35.4992 35.0998C35.4992 33.3998 36.8992 31.8998 38.6992 31.8998C40.3992 31.8998 41.7992 33.2998 41.7992 35.0998C41.8992 36.7998 40.4992 38.1998 38.6992 38.1998Z" fill="#3757FF"/>
<path d="M51.2 19.6001H0.8C0.4 19.6001 0 19.9001 0 20.4001V49.8001C0 50.2001 0.3 50.6001 0.8 50.6001H51.2C51.6 50.6001 52 50.3001 52 49.8001V20.4001C51.9 19.9001 51.6 19.6001 51.2 19.6001ZM48.8 41.4001C48.8 41.6001 48.7 41.8001 48.5 42.0001L42.1 47.3001C42 47.4001 41.8 47.5001 41.6 47.5001H10.2C10 47.5001 9.9 47.4001 9.7 47.3001L3.4 42.0001C3.2 41.9001 3.1 41.7001 3.1 41.4001V28.8001C3.1 28.6001 3.2 28.4001 3.4 28.2001L9.7 22.9001C9.8 22.8001 10 22.7001 10.2 22.7001H41.6C41.8 22.7001 41.9 22.8001 42.1 22.9001L48.5 28.2001C48.7 28.3001 48.8 28.6001 48.8 28.8001V41.4001Z" fill="#3757FF"/>
<path d="M51.4008 13.5002L52.1008 18.3002C51.8008 18.2002 51.5008 18.1002 51.2008 18.1002H11.8008L50.6008 12.9002C51.0008 12.8002 51.4008 13.1002 51.4008 13.5002Z" fill="#3757FF"/>
<path d="M55.3984 42.7C55.3984 42.9 55.3984 43.1 55.2984 43.2C55.1984 43.4 54.9984 43.5 54.7984 43.5L53.3984 43.7V28L55.3984 42.7Z" fill="#3757FF"/>
<path d="M63.9999 31.7C63.9999 49.2 49.7999 63.4 32.2999 63.4C24.6999 63.4 17.2999 60.6 11.4999 55.6C11.1999 55.3 11.0999 54.8 11.3999 54.5C11.6999 54.2 12.0999 54.2 12.4999 54.4C17.9999 59.2 24.9999 61.8 32.2999 61.8C48.9999 61.9 62.4999 48.3 62.4999 31.7C62.4999 15.1 48.9999 1.5 32.2999 1.5C26.0999 1.5 20.1999 3.3 15.0999 6.9L19.1999 7.5C19.5999 7.6 19.8999 7.9 19.7999 8.4C19.7999 8.8 19.3999 9 19.0999 9H18.9999L13.0999 8.1C12.6999 8 12.3999 7.7 12.4999 7.3L13.3999 1.4C13.4999 1 13.7999 0.7 14.2999 0.8C14.7999 0.9 14.9999 1.2 14.8999 1.7L14.1999 5.7C19.4999 2 25.6999 0 32.2999 0C49.7999 0 63.9999 14.2 63.9999 31.7Z" fill="#3757FF"/>
<path d="M25.6992 39.3998V38.5998C24.7992 38.4998 23.8992 38.0998 23.1992 37.4998L23.9992 36.5998C24.5992 37.0998 25.1992 37.3998 25.7992 37.4998V35.4998C24.9992 35.2998 24.3992 35.0998 24.0992 34.7998C23.6992 34.4998 23.5992 33.9998 23.5992 33.3998C23.5992 32.7998 23.7992 32.2998 24.1992 31.8998C24.5992 31.4998 25.1992 31.2998 25.7992 31.2998V30.7998H26.4992V31.2998C27.2992 31.3998 27.9992 31.5998 28.6992 32.0998L27.9992 33.0998C27.4992 32.7998 26.9992 32.5998 26.4992 32.4998V34.3998C27.2992 34.5998 27.8992 34.7998 28.2992 35.1998C28.6992 35.4998 28.8992 35.9998 28.8992 36.5998C28.8992 37.1998 28.6992 37.6998 28.2992 38.0998C27.8992 38.4998 27.2992 38.6998 26.5992 38.6998V39.3998H25.6992ZM24.9992 32.6998C24.7992 32.8998 24.6992 32.9998 24.6992 33.2998C24.6992 33.4998 24.7992 33.6998 24.8992 33.7998C24.9992 33.8998 25.2992 34.0998 25.6992 34.1998V32.3998C25.3992 32.3998 25.1992 32.4998 24.9992 32.6998ZM27.1992 37.1998C27.3992 36.9998 27.4992 36.7998 27.4992 36.5998C27.4992 36.3998 27.3992 36.1998 27.2992 35.9998C27.0992 35.8998 26.8992 35.6998 26.4992 35.5998V37.4998C26.6992 37.4998 26.9992 37.3998 27.1992 37.1998Z" fill="#3757FF"/>
</svg>
