<svg width="17" height="17" viewBox="0 0 17 17" fill="none" xmlns="http://www.w3.org/2000/svg">
<g clip-path="url(#clip0)">
<path d="M8.5 17C13.1944 17 17 13.1944 17 8.5C17 3.80558 13.1944 0 8.5 0C3.80558 0 0 3.80558 0 8.5C0 13.1944 3.80558 17 8.5 17Z" fill="#F0F0F0"/>
<path d="M8.50032 0C5.13041 0 2.21863 1.96114 0.84375 4.80436H16.1569C14.782 1.96114 11.8702 0 8.50032 0Z" fill="#338AF3"/>
<path d="M8.50032 17.0006C11.8702 17.0006 14.782 15.0395 16.1569 12.1963H0.84375C2.21863 15.0395 5.13041 17.0006 8.50032 17.0006Z" fill="#338AF3"/>
<path d="M11.04 8.49977L10.002 8.98809L10.5547 9.99345L9.42751 9.7778L9.28467 10.9165L8.49951 10.079L7.71433 10.9165L7.57152 9.7778L6.44428 9.99342L6.99704 8.98806L5.95898 8.49977L6.99708 8.01145L6.44428 7.00612L7.57149 7.22175L7.71436 6.08301L8.49951 6.92053L9.2847 6.08301L9.42751 7.22175L10.5548 7.00612L10.002 8.01148L11.04 8.49977Z" fill="#FFDA44"/>
</g>
<defs>
<clipPath id="clip0">
<rect width="17" height="17" fill="white"/>
</clipPath>
</defs>
</svg>
