<svg width="17" height="17" viewBox="0 0 17 17" fill="none" xmlns="http://www.w3.org/2000/svg">
<path d="M8.5 17C13.1944 17 17 13.1944 17 8.5C17 3.80558 13.1944 0 8.5 0C3.80558 0 0 3.80558 0 8.5C0 13.1944 3.80558 17 8.5 17Z" fill="#6DA544"/>
<path d="M8.50025 3.32617L15.522 8.50008L8.50025 13.674L1.47852 8.50008L8.50025 3.32617Z" fill="#FFDA44"/>
<path d="M8.49947 11.4565C10.1323 11.4565 11.456 10.1328 11.456 8.49996C11.456 6.86713 10.1323 5.54346 8.49947 5.54346C6.86664 5.54346 5.54297 6.86713 5.54297 8.49996C5.54297 10.1328 6.86664 11.4565 8.49947 11.4565Z" fill="#F0F0F0"/>
<path d="M7.02222 8.31567C6.50811 8.31567 6.01196 8.39387 5.54492 8.53897C5.56561 10.154 6.88058 11.457 8.50049 11.457C9.50216 11.457 10.3868 10.9584 10.9216 10.1963C10.0066 9.05092 8.5988 8.31567 7.02222 8.31567Z" fill="#0052B4"/>
<path d="M11.4018 9.06641C11.4373 8.88299 11.4566 8.69377 11.4566 8.49996C11.4566 6.8671 10.1329 5.54346 8.50008 5.54346C7.28172 5.54346 6.23583 6.2806 5.7832 7.33307C6.1833 7.25016 6.59754 7.2065 7.02184 7.2065C8.739 7.20647 10.2924 7.92027 11.4018 9.06641Z" fill="#0052B4"/>
</svg>
