<svg width="193" height="200" viewBox="0 0 193 200" fill="none" xmlns="http://www.w3.org/2000/svg">
<path fill-rule="evenodd" clip-rule="evenodd" d="M148.906 140.972C148.906 128.802 158.776 118.932 170.951 118.932C183.126 118.932 192.997 128.8 192.997 140.972C192.997 153.144 183.126 163.013 170.951 163.013C158.776 163.013 148.906 153.144 148.906 140.972Z" fill="#F3F6FF"/>
<path fill-rule="evenodd" clip-rule="evenodd" d="M27.5356 93.923C27.5356 63.4053 52.2818 38.6655 82.8082 38.6655C113.335 38.6655 138.081 63.4046 138.081 93.923C138.081 124.441 113.335 149.18 82.8082 149.18C52.2818 149.18 27.5356 124.441 27.5356 93.923Z" fill="#EAF0FF"/>
<path fill-rule="evenodd" clip-rule="evenodd" d="M31.2031 113.28C32.7585 111.844 38.2156 106.837 39.3451 106.326C40.4746 105.816 53.5734 120.424 52.2796 121.469C50.9859 122.515 44.1388 128.819 41.5639 130.422C36.4203 124.825 32.844 118.398 31.2031 113.28Z" fill="white"/>
<path fill-rule="evenodd" clip-rule="evenodd" d="M38.7154 105.56C38.6063 105.618 38.4455 105.722 38.2342 105.874C37.9864 106.053 37.6876 106.286 37.3518 106.559C36.6804 107.103 35.8719 107.799 35.0474 108.526C33.3989 109.98 31.6967 111.55 30.9189 112.268C30.7758 112.4 30.5528 112.391 30.4207 112.248C30.2886 112.105 30.2975 111.882 30.4406 111.75C31.2182 111.032 32.9257 109.458 34.5809 107.998C35.4082 107.268 36.225 106.565 36.9073 106.011C37.2483 105.734 37.5585 105.493 37.8212 105.303C38.0776 105.118 38.3085 104.967 38.4852 104.888C38.6254 104.824 38.7651 104.842 38.8576 104.866C38.956 104.891 39.0545 104.936 39.1471 104.987C39.3336 105.089 39.5521 105.248 39.7915 105.444C40.2733 105.839 40.8872 106.425 41.5782 107.136C42.9627 108.56 44.684 110.514 46.3271 112.514C47.9697 114.513 49.5411 116.566 50.6228 118.19C51.1622 118.999 51.5885 119.715 51.8396 120.269C51.964 120.544 52.0555 120.801 52.0885 121.021C52.1183 121.219 52.1179 121.517 51.8821 121.707C51.4531 122.053 50.3913 123.042 49.0859 124.257C48.4592 124.84 47.7764 125.475 47.0805 126.117C46.0138 127.101 44.9217 128.094 43.9684 128.923C43.0213 129.746 42.1926 130.423 41.6593 130.761C41.4948 130.865 41.277 130.816 41.1728 130.652C41.0686 130.487 41.1175 130.269 41.2821 130.165C41.7635 129.86 42.554 129.218 43.5057 128.391C44.451 127.569 45.537 126.581 46.6023 125.599C47.2776 124.976 47.9468 124.353 48.5665 123.777C49.8521 122.58 50.9248 121.582 51.3974 121.193C51.3972 121.178 51.3957 121.156 51.3911 121.125C51.3724 121.001 51.312 120.814 51.1972 120.56C50.9701 120.059 50.5691 119.381 50.0359 118.581C48.9725 116.985 47.4175 114.952 45.7822 112.961C44.1474 110.972 42.4394 109.034 41.0724 107.627C40.3878 106.923 39.7956 106.359 39.3444 105.989C39.1173 105.803 38.9377 105.676 38.8073 105.604C38.7674 105.582 38.7371 105.568 38.7154 105.56ZM38.6777 105.548C38.6777 105.548 38.6787 105.548 38.681 105.549C38.6789 105.548 38.6778 105.548 38.6777 105.548ZM51.3954 121.219C51.3953 121.219 51.3955 121.217 51.3964 121.214C51.396 121.218 51.3955 121.219 51.3954 121.219Z" fill="#1B3C87"/>
<path fill-rule="evenodd" clip-rule="evenodd" d="M65.1349 96.7789C72.6406 108.191 54.2072 122.513 51.3857 123.336C48.5642 124.159 36.4153 107.519 37.295 105.328C38.1747 103.136 56.0711 82.9977 65.1349 96.7789Z" fill="#3757FF"/>
<path fill-rule="evenodd" clip-rule="evenodd" d="M55.45 91.0876C52.3376 91.2696 49.0579 92.8567 46.0988 94.9089C45.9388 95.0199 45.7191 94.9802 45.6081 94.8202C45.4972 94.6602 45.5369 94.4406 45.6969 94.3297C48.6972 92.2488 52.1058 90.5769 55.4089 90.3838C58.7463 90.1887 61.9362 91.507 64.4375 95.3102L64.1429 95.5039L64.4375 95.3102C68.327 101.224 65.4559 107.843 61.4181 112.972C59.3876 115.551 57.034 117.793 55.0107 119.442C53.9987 120.267 53.0662 120.947 52.2944 121.447C51.5339 121.941 50.8994 122.281 50.4925 122.399C50.224 122.478 49.9347 122.443 49.6543 122.354C49.3714 122.265 49.0683 122.111 48.7533 121.911C48.1232 121.512 47.4007 120.902 46.6323 120.155C45.0928 118.659 43.3252 116.573 41.6793 114.399C40.0329 112.225 38.4995 109.952 37.4307 108.081C36.897 107.146 36.4737 106.302 36.211 105.615C36.0799 105.272 35.9847 104.957 35.938 104.684C35.893 104.421 35.8847 104.149 35.9762 103.921L35.9763 103.921C36.0814 103.66 36.3542 103.245 36.7334 102.746C37.1215 102.235 37.645 101.604 38.2798 100.902C38.4104 100.758 38.6334 100.746 38.7778 100.877C38.9223 101.007 38.9336 101.23 38.8031 101.375C38.1788 102.065 37.6686 102.68 37.2951 103.172C36.9126 103.676 36.6959 104.022 36.6305 104.184C36.612 104.23 36.5955 104.346 36.6331 104.566C36.6691 104.776 36.7474 105.043 36.8698 105.363C37.114 106.002 37.5175 106.811 38.0431 107.731C39.0929 109.57 40.6081 111.817 42.2415 113.974C43.8756 116.132 45.6192 118.188 47.1237 119.649C47.8773 120.382 48.5599 120.954 49.1309 121.315C49.4164 121.496 49.6627 121.618 49.8674 121.682C50.0745 121.748 50.2108 121.747 50.295 121.723C50.5934 121.636 51.1522 121.348 51.9105 120.856C52.6575 120.371 53.5694 119.708 54.565 118.896C56.557 117.272 58.8717 115.066 60.864 112.535C64.8718 107.445 67.4645 101.196 63.8483 95.6975C61.4811 92.0983 58.5281 90.9077 55.45 91.0876Z" fill="#1B3C87"/>
<path fill-rule="evenodd" clip-rule="evenodd" d="M80.2163 87.0995C71.7623 87.0487 63.4438 88.6749 59.3439 91.8592C52.686 97.0313 48.2579 129.003 50.1674 138.517C59.3136 145.219 70.5962 149.179 82.8054 149.179C92.4436 149.179 101.504 146.71 109.393 142.374C110.79 130.495 107.347 96.5335 101.903 92.402C97.2606 88.879 88.6707 87.1504 80.2163 87.0995Z" fill="#3757FF"/>
<path fill-rule="evenodd" clip-rule="evenodd" d="M66.9829 87.3712C63.3563 88.1645 60.3106 89.3525 58.3205 90.8981L58.3204 90.8981C57.128 91.8241 55.9851 93.7073 54.9348 96.2893C53.8905 98.8563 52.9589 102.059 52.1603 105.564C52.1171 105.754 51.9281 105.873 51.7382 105.83C51.5484 105.787 51.4295 105.598 51.4728 105.408C52.276 101.882 53.2177 98.639 54.2815 96.0237C55.3393 93.4234 56.5393 91.3886 57.8878 90.3414C59.9977 88.7027 63.1611 87.4855 66.8322 86.6825C70.5105 85.8779 74.73 85.4822 78.9787 85.5078C83.2274 85.5333 87.5148 85.9801 91.3287 86.8655C95.1375 87.7498 98.4991 89.0774 100.876 90.8809L100.876 90.8809C101.673 91.486 102.393 92.6304 103.049 94.1192C103.711 95.6208 104.329 97.5228 104.896 99.6973C106.031 104.048 106.973 109.525 107.659 115.154C108.346 120.785 108.777 126.576 108.889 131.556C109 136.524 108.793 140.721 108.188 143.143C108.141 143.332 107.949 143.447 107.76 143.4C107.571 143.352 107.457 143.161 107.504 142.972C108.084 140.651 108.295 136.538 108.184 131.572C108.073 126.617 107.643 120.85 106.959 115.24C106.275 109.628 105.338 104.184 104.214 99.8752C103.652 97.72 103.045 95.8577 102.404 94.4035C101.757 92.9365 101.096 91.9335 100.449 91.4424C98.1834 89.7229 94.9291 88.4252 91.1691 87.5522C87.4142 86.6805 83.1797 86.238 78.9744 86.2127C74.769 86.1875 70.6023 86.5794 66.9829 87.3712Z" fill="#1B3C87"/>
<path fill-rule="evenodd" clip-rule="evenodd" d="M48.8593 126.152C49.0536 126.164 49.2012 126.332 49.189 126.526C48.9001 131.106 48.9266 134.999 49.3035 137.38C49.334 137.572 49.2027 137.753 49.0104 137.783C48.8181 137.813 48.6375 137.682 48.607 137.49C48.2174 135.029 48.1957 131.072 48.4852 126.482C48.4974 126.287 48.6649 126.14 48.8593 126.152Z" fill="#1B3C87"/>
<path fill-rule="evenodd" clip-rule="evenodd" d="M11.0414 0.0312752C11.1266 -0.00722386 11.2236 -0.0103014 11.3111 0.0227195L36.5639 9.55393C36.6514 9.58695 36.7222 9.65337 36.7607 9.73857C36.7992 9.82377 36.8023 9.92077 36.7692 10.0082L25.9318 38.6995C25.863 38.8817 25.6596 38.9735 25.4774 38.9048L0.228142 29.374C0.0459717 29.3052 -0.0459532 29.1018 0.0228165 28.9197L10.8567 0.228007C10.8897 0.140541 10.9562 0.0697742 11.0414 0.0312752ZM11.3919 0.806782L0.807078 28.8389L25.3966 38.1207L35.9849 10.089L11.3919 0.806782Z" fill="#B6C6FC"/>
<path fill-rule="evenodd" clip-rule="evenodd" d="M164.611 139.67C164.696 139.783 164.705 139.937 164.633 140.059L130.098 198.886C130.021 199.017 129.869 199.084 129.721 199.053C129.572 199.021 129.46 198.897 129.444 198.746L124.079 149.975C124.06 149.8 124.173 149.638 124.344 149.595L164.243 139.539C164.381 139.505 164.526 139.556 164.611 139.67ZM124.814 150.204L130.029 197.612L163.599 140.429L124.814 150.204Z" fill="#B6C6FC"/>
<path fill-rule="evenodd" clip-rule="evenodd" d="M25.2677 26.4352C17.2685 26.4352 10.7838 32.9178 10.7838 40.9152C10.7838 48.9123 17.2673 55.3952 25.2665 55.3952C33.2658 55.3952 39.7505 48.9122 39.7505 40.9152C39.7505 32.9181 33.2669 26.4352 25.2677 26.4352ZM10.0786 40.9152C10.0786 32.5284 16.879 25.7302 25.2677 25.7302C33.6565 25.7302 40.4556 32.5288 40.4556 40.9152C40.4556 49.3016 33.6552 56.1002 25.2665 56.1002C16.8778 56.1002 10.0786 49.3016 10.0786 40.9152Z" fill="#B6C6FC"/>
<path fill-rule="evenodd" clip-rule="evenodd" d="M115.743 138.791C114.565 137.614 106.446 126.542 105.531 125.5C104.616 124.458 121.976 110.067 123.043 111.325C124.111 112.584 128.391 118.572 130.387 121.865C128.783 124.755 119.915 135.945 115.743 138.791Z" fill="white"/>
<path fill-rule="evenodd" clip-rule="evenodd" d="M105.771 123.258C106.377 123.989 108.718 127.162 111.046 130.341C112.657 132.541 114.268 134.752 115.32 136.195C115.861 136.937 116.254 137.476 116.422 137.705C116.537 137.862 116.503 138.083 116.346 138.198C116.189 138.313 115.968 138.279 115.853 138.122C115.686 137.895 115.294 137.357 114.753 136.615C113.7 135.17 112.085 132.953 110.477 130.757C108.031 127.417 105.616 124.147 105.172 123.642C105.057 123.51 105.041 123.353 105.053 123.236C105.065 123.122 105.106 123.011 105.153 122.913C105.247 122.714 105.407 122.482 105.607 122.23C106.01 121.721 106.63 121.066 107.391 120.325C108.916 118.84 111.042 116.975 113.227 115.186C115.411 113.397 117.661 111.676 119.437 110.479C120.323 109.882 121.102 109.408 121.701 109.121C121.998 108.979 122.27 108.874 122.499 108.829C122.695 108.79 123.014 108.765 123.219 109.006C123.764 109.649 125.318 111.725 126.95 114.059C128.581 116.393 130.313 119.016 131.205 120.751C131.294 120.924 131.226 121.136 131.053 121.226C130.88 121.315 130.667 121.246 130.578 121.073C129.71 119.385 128.004 116.798 126.372 114.463C124.779 112.185 123.277 110.176 122.72 109.509C122.702 109.51 122.674 109.513 122.635 109.521C122.493 109.549 122.284 109.624 122.006 109.757C121.454 110.021 120.709 110.473 119.832 111.064C118.081 112.244 115.849 113.95 113.674 115.732C111.499 117.513 109.389 119.363 107.883 120.83C107.129 121.565 106.534 122.195 106.16 122.668C105.97 122.907 105.85 123.09 105.79 123.215C105.782 123.231 105.776 123.246 105.771 123.258ZM122.751 109.51C122.751 109.51 122.749 109.51 122.746 109.509C122.749 109.509 122.751 109.51 122.751 109.51Z" fill="#1B3C87"/>
<path fill-rule="evenodd" clip-rule="evenodd" d="M97.0888 90.7017C105.855 84.6883 127.012 105.341 126.96 111.497C126.907 117.653 108.095 128.84 104.962 127.224C101.508 125.445 83.6379 99.9233 97.0888 90.7017Z" fill="#3757FF"/>
<path fill-rule="evenodd" clip-rule="evenodd" d="M104.515 89.7587C101.337 88.5859 98.5125 88.4657 96.4627 89.8712L96.4627 89.8712C91.7538 93.0997 90.9825 98.4073 92.1518 104.07C92.1911 104.261 92.0684 104.447 91.8777 104.487C91.687 104.526 91.5005 104.403 91.4611 104.213C90.2666 98.4274 91.0129 92.7528 96.0639 89.2898C98.3979 87.6894 101.505 87.8964 104.759 89.0974C108.024 90.3027 111.523 92.5384 114.729 95.1424C117.937 97.7483 120.869 100.738 123 103.469C124.065 104.834 124.935 106.141 125.538 107.309C126.137 108.467 126.494 109.525 126.486 110.382C126.479 111.237 126.148 112.147 125.606 113.068C125.061 113.991 124.291 114.949 123.369 115.906C121.525 117.819 119.048 119.76 116.484 121.451C113.919 123.143 111.253 124.593 109.023 125.521C107.909 125.985 106.894 126.322 106.048 126.492C105.225 126.657 104.482 126.681 103.974 126.419L103.974 126.419C103.678 126.267 103.323 125.985 102.931 125.614C102.534 125.239 102.082 124.755 101.592 124.181C100.612 123.031 99.4699 121.504 98.3063 119.724C98.1998 119.561 98.2455 119.343 98.4086 119.236C98.5716 119.13 98.7901 119.176 98.8966 119.338C100.047 121.098 101.171 122.6 102.129 123.723C102.608 124.285 103.042 124.749 103.416 125.102C103.794 125.46 104.092 125.687 104.297 125.793C104.574 125.935 105.104 125.962 105.909 125.801C106.692 125.644 107.661 125.325 108.752 124.87C110.932 123.963 113.56 122.536 116.096 120.863C118.633 119.19 121.065 117.281 122.861 115.416C123.759 114.484 124.491 113.57 124.998 112.71C125.507 111.846 125.775 111.06 125.781 110.376C125.787 109.693 125.494 108.759 124.912 107.632C124.334 106.515 123.492 105.245 122.444 103.902C120.349 101.217 117.454 98.2649 114.284 95.6895C111.111 93.1123 107.68 90.9273 104.515 89.7587Z" fill="#1B3C87"/>
<path fill-rule="evenodd" clip-rule="evenodd" d="M82.8082 39.0182C52.4766 39.0182 27.8883 63.6002 27.8883 93.9231C27.8883 124.246 52.4766 148.828 82.8082 148.828C113.14 148.828 137.728 124.247 137.728 93.9231C137.728 63.5994 113.14 39.0182 82.8082 39.0182ZM27.1831 93.9231C27.1831 63.2108 52.0871 38.3132 82.8082 38.3132C113.529 38.3132 138.433 63.2101 138.433 93.9231C138.433 124.636 113.529 149.533 82.8082 149.533C52.0871 149.533 27.1831 124.635 27.1831 93.9231Z" fill="#1B3C87"/>
<path fill-rule="evenodd" clip-rule="evenodd" d="M130.32 103.12C130.374 101.532 133.469 100.889 137.232 101.681C140.995 102.474 144.001 104.404 143.947 105.991C143.893 107.578 140.798 108.222 137.035 107.429C133.272 106.636 130.264 104.707 130.32 103.12Z" fill="white"/>
<path fill-rule="evenodd" clip-rule="evenodd" d="M131.436 97.0472C131.49 95.46 134.585 94.8157 138.348 95.6085C142.111 96.4013 145.118 98.3308 145.064 99.918C145.009 101.505 141.914 102.15 138.151 101.357C134.388 100.564 131.383 98.6344 131.436 97.0472Z" fill="white"/>
<path fill-rule="evenodd" clip-rule="evenodd" d="M131.292 90.7712C131.346 89.184 134.441 88.54 138.204 89.3324C141.968 90.1249 144.974 92.0547 144.92 93.6419C144.865 95.2292 141.77 95.8735 138.007 95.0807C134.244 94.2879 131.237 92.3584 131.292 90.7712Z" fill="white"/>
<path fill-rule="evenodd" clip-rule="evenodd" d="M137.468 89.0144C135.689 88.6398 134.082 88.5965 132.902 88.8144C132.711 88.8498 132.527 88.7233 132.491 88.5318C132.456 88.3404 132.582 88.1565 132.774 88.1212C134.068 87.8822 135.771 87.9366 137.613 88.3245L137.613 88.3245C139.529 88.7281 141.263 89.4228 142.52 90.2297C143.148 90.6328 143.67 91.0717 144.034 91.5274C144.396 91.9805 144.626 92.4792 144.608 92.9911C144.584 93.709 144.089 94.2299 143.407 94.562C142.724 94.8939 141.794 95.0736 140.727 95.1037C140.532 95.1092 140.37 94.9559 140.364 94.7613C140.359 94.5667 140.512 94.4045 140.707 94.399C141.719 94.3704 142.54 94.1998 143.098 93.9281C143.656 93.6566 143.891 93.3207 143.903 92.967V92.9669C143.913 92.6852 143.787 92.3475 143.483 91.9676C143.181 91.5903 142.726 91.1997 142.139 90.823C140.966 90.0701 139.315 89.4036 137.468 89.0144Z" fill="#1B3C87"/>
<path fill-rule="evenodd" clip-rule="evenodd" d="M137.612 95.2907C135.239 94.7905 133.194 94.8848 132.051 95.3795C131.872 95.4569 131.665 95.3747 131.587 95.1961C131.51 95.0174 131.592 94.8099 131.771 94.7325C133.108 94.1536 135.324 94.088 137.757 94.6008C139.673 95.0044 141.407 95.6991 142.664 96.506C143.292 96.9091 143.814 97.348 144.178 97.8037C144.54 98.2568 144.77 98.7555 144.752 99.2674C144.726 100.044 144.152 100.587 143.382 100.915C142.607 101.245 141.55 101.402 140.346 101.384C140.151 101.381 139.996 101.221 139.999 101.026C140.002 100.832 140.162 100.676 140.357 100.679C141.507 100.696 142.455 100.544 143.106 100.266C143.761 99.987 144.035 99.6236 144.048 99.2433L144.048 99.2432C144.057 98.9615 143.931 98.6238 143.627 98.2439C143.326 97.8666 142.87 97.476 142.283 97.0993C141.11 96.3464 139.459 95.6799 137.612 95.2907L137.612 95.2907Z" fill="#1B3C87"/>
<path fill-rule="evenodd" clip-rule="evenodd" d="M136.494 101.363C135.085 101.066 133.781 100.977 132.711 101.062C132.517 101.078 132.347 100.933 132.332 100.739C132.316 100.545 132.461 100.375 132.655 100.359C133.804 100.268 135.177 100.365 136.64 100.673L136.64 100.673C138.555 101.077 140.289 101.771 141.547 102.578C142.175 102.981 142.696 103.42 143.061 103.876C143.423 104.329 143.652 104.828 143.635 105.34" fill="#1B3C87"/>
<path fill-rule="evenodd" clip-rule="evenodd" d="M20.3616 93.0752C20.4159 91.488 23.5109 90.8441 27.274 91.6369C31.0371 92.4297 34.0437 94.3588 33.9894 95.9464C33.935 97.534 30.8405 98.1776 27.077 97.3848C23.3135 96.5919 20.3072 94.6625 20.3616 93.0752Z" fill="white"/>
<path fill-rule="evenodd" clip-rule="evenodd" d="M21.4792 87.0023C21.5336 85.415 24.6286 84.7711 28.3917 85.5639C32.1548 86.3567 35.1615 88.2862 35.1071 89.8747C35.0527 91.4631 31.9582 92.1059 28.1951 91.313C24.432 90.5202 21.4249 88.5899 21.4792 87.0023Z" fill="white"/>
<path fill-rule="evenodd" clip-rule="evenodd" d="M21.3347 80.7264C21.3891 79.1391 24.484 78.4952 28.2471 79.288C32.0102 80.0808 35.0169 82.0103 34.9625 83.5975C34.9082 85.1847 31.8136 85.8287 28.0505 85.0359C24.2874 84.243 21.2807 82.3128 21.3347 80.7264Z" fill="white"/>
<path fill-rule="evenodd" clip-rule="evenodd" d="M20.6354 79.8492C20.6446 79.5814 20.7776 79.3345 21.0703 79.1119L20.6354 79.8492ZM21.0703 79.1119C21.3702 78.8838 21.8241 78.6946 22.4203 78.5706L21.0703 79.1119ZM22.4203 78.5706C23.6101 78.323 25.2733 78.3541 27.1227 78.7437L22.4203 78.5706ZM27.268 78.0539C25.3544 77.6507 23.5886 77.6074 22.2766 77.8804C21.6219 78.0166 21.0566 78.2365 20.6434 78.5508C20.2229 78.8705 19.9486 79.2992 19.9306 79.8251L19.9306 79.8251C19.9136 80.3233 20.1306 80.8092 20.4758 81.252C20.8227 81.697 21.3196 82.126 21.9192 82.5216C22.0817 82.6288 22.3004 82.584 22.4076 82.4215C22.5149 82.259 22.4701 82.0404 22.3075 81.9332C21.7489 81.5646 21.3174 81.1847 21.0321 80.8187C20.745 80.4505 20.626 80.1233 20.6354 79.8492M27.2681 78.0539C28.9855 78.415 30.5548 79.0108 31.766 79.7081C31.9348 79.8053 31.9928 80.0208 31.8956 80.1895C31.7984 80.3582 31.5828 80.4162 31.4141 80.319C30.2749 79.6632 28.7769 79.0916 27.1228 78.7438L27.1227 78.7437" fill="#1B3C87"/>
<path fill-rule="evenodd" clip-rule="evenodd" d="M21.2148 85.3879C20.9221 85.6105 20.7891 85.8575 20.7799 86.1253L20.7799 86.1253C20.767 86.5035 21.0007 86.9781 21.5489 87.5021C22.0872 88.0167 22.8798 88.5299 23.855 88.9812C24.0317 89.0629 24.1086 89.2724 24.0268 89.4491C23.945 89.6258 23.7355 89.7027 23.5588 89.6209C22.5381 89.1486 21.6729 88.5961 21.0615 88.0117C20.46 87.4367 20.0519 86.7792 20.0752 86.1011M21.2148 85.3879C21.5147 85.1598 21.9687 84.9706 22.5648 84.8466L21.2148 85.3879ZM22.5648 84.8466C23.7546 84.5989 25.4178 84.6299 27.2672 85.0194L22.5648 84.8466ZM27.2673 85.0194C28.8055 85.3436 30.2096 85.8604 31.315 86.4604C31.4861 86.5533 31.7002 86.4899 31.7931 86.3188C31.886 86.1477 31.8226 85.9337 31.6515 85.8408C30.4798 85.2049 29.0103 84.6662 27.4127 84.3295L27.4126 84.3295C25.499 83.9265 23.7331 83.8833 22.4211 84.1564C21.7664 84.2926 21.2012 84.5125 20.7879 84.8268C20.3675 85.1465 20.0932 85.5753 20.0752 86.1011" fill="#1B3C87"/>
<path fill-rule="evenodd" clip-rule="evenodd" d="M20.0977 91.4598C19.8049 91.6824 19.6719 91.9294 19.6627 92.1972C19.6542 92.446 19.7512 92.7386 19.9855 93.0676C20.2192 93.3957 20.5751 93.739 21.0419 94.0783C21.9751 94.7566 23.3087 95.388 24.8527 95.8376C25.0397 95.892 25.1471 96.0877 25.0926 96.2746C25.0381 96.4615 24.8424 96.5689 24.6555 96.5145C23.0537 96.048 21.6414 95.3857 20.6272 94.6485C20.1203 94.2801 19.7021 93.8852 19.4111 93.4765C19.1207 93.0688 18.9425 92.6262 18.958 92.1731L18.958 92.1731C18.976 91.6472 19.2503 91.2185 19.6707 90.8987C20.084 90.5844 20.6492 90.3644 21.3039 90.2282C22.6159 89.9551 24.3818 89.9983 26.2955 90.4015L26.2955 90.4015C28.5334 90.8732 30.5293 91.743 31.8043 92.7295C31.9583 92.8487 31.9865 93.0701 31.8673 93.224C31.7481 93.378 31.5267 93.4062 31.3727 93.287C30.2035 92.3823 28.3143 91.5475 26.15 91.0913C24.3006 90.7017 22.6375 90.6707 21.4477 90.9183C20.8515 91.0424 20.3976 91.2317 20.0977 91.4598Z" fill="#1B3C87"/>
<path fill-rule="evenodd" clip-rule="evenodd" d="M88.6736 74.9576C88.3155 76.9954 86.6644 85.2005 87.9298 94.0945C86.4702 95.1972 77.9595 95.994 75.6186 94.0945C75.7013 90.4872 75.7837 83.273 75.4535 81.4282C75.1234 79.5834 89.0329 72.9202 88.6736 74.9576Z" fill="white"/>
<path fill-rule="evenodd" clip-rule="evenodd" d="M74.9029 80.018C74.8379 80.1342 74.844 80.182 74.8442 80.1829C75.0161 81.1425 75.077 83.443 75.0873 85.9158C75.0976 88.4051 75.0563 91.1138 75.0151 92.9194C75.0106 93.114 74.8492 93.2682 74.6545 93.2638C74.4599 93.2593 74.3056 93.098 74.3101 92.9033C74.3512 91.1017 74.3924 88.3996 74.3821 85.9188C74.3717 83.4214 74.3087 81.1925 74.1501 80.3072C74.1089 80.0776 74.1849 79.8572 74.2873 79.6741C74.3921 79.4865 74.5478 79.2961 74.7332 79.1071C75.105 78.7281 75.6416 78.3093 76.2752 77.878C77.546 77.013 79.2588 76.0624 80.9639 75.237C82.6677 74.4122 84.382 73.7035 85.6568 73.3287C86.2862 73.1437 86.8438 73.0291 87.248 73.0397C87.4439 73.0449 87.6667 73.0802 87.8383 73.211C88.0456 73.3691 88.1052 73.6058 88.0649 73.8355C88.0449 73.9491 88.021 74.0818 87.9938 74.2325C87.5327 76.7868 86.1364 84.5224 87.3229 92.8617C87.3409 92.9887 87.2886 93.1155 87.1861 93.1928C86.9772 93.3504 86.6809 93.4854 86.3423 93.603C85.9977 93.7226 85.585 93.8322 85.1258 93.9294C84.2071 94.1239 83.0829 94.273 81.9073 94.3501C81.713 94.3629 81.5452 94.2157 81.5324 94.0215C81.5197 93.8272 81.6668 93.6594 81.8612 93.6467C83.0096 93.5713 84.0998 93.426 84.9797 93.2397C85.4198 93.1465 85.8024 93.0441 86.111 92.937C86.3119 92.8673 86.472 92.7987 86.5931 92.7344C85.4468 84.3653 86.8407 76.6484 87.299 74.1117C87.3228 73.9795 87.3442 73.8613 87.3625 73.7579C87.3339 73.752 87.291 73.7461 87.2293 73.7445C86.9426 73.7369 86.4749 73.8231 85.8558 74.0051C84.6337 74.3644 82.9585 75.0547 81.2712 75.8715C79.5852 76.6877 77.9051 77.6214 76.6721 78.4607C76.0539 78.8816 75.5609 79.2701 75.2367 79.6007C75.0741 79.7664 74.9653 79.9062 74.9029 80.018Z" fill="#1B3C87"/>
<path fill-rule="evenodd" clip-rule="evenodd" d="M60.8809 63.1508C61.6908 53.2171 69.1481 45.7076 77.5366 46.3775C85.9252 47.0474 92.0694 55.6432 91.259 65.577C90.4486 75.5107 82.9918 83.0218 74.6032 82.3523C66.2147 81.6827 60.0705 73.0846 60.8809 63.1508Z" fill="white"/>
<path fill-rule="evenodd" clip-rule="evenodd" d="M63.8259 75.6695C63.9782 75.5483 64.2001 75.5734 64.3213 75.7257C66.7248 78.744 70.0604 80.7179 73.8571 81.0211C76.9358 81.2669 79.891 80.3808 82.4251 78.6528C82.5859 78.5431 82.8053 78.5846 82.915 78.7454C83.0248 78.9062 82.9833 79.1255 82.8224 79.2352C80.1688 81.0448 77.0555 81.9837 73.801 81.7239C69.7847 81.4032 66.2781 79.315 63.7696 76.1648C63.6483 76.0125 63.6735 75.7907 63.8259 75.6695Z" fill="#1B3C87"/>
<path fill-rule="evenodd" clip-rule="evenodd" d="M76.7351 45.7512C68.5933 45.101 61.2573 52.4039 60.4584 62.2018L60.1069 62.1732L60.4584 62.2018C60.2529 64.721 60.5023 67.1509 61.1253 69.3804C61.1777 69.5679 61.0681 69.7623 60.8806 69.8147C60.693 69.8671 60.4985 69.7575 60.4461 69.57C59.8006 67.2599 59.5433 64.7463 59.7555 62.1446C60.5766 52.075 68.155 44.3588 76.7912 45.0485C85.4281 45.7382 91.658 54.5583 90.837 64.628L90.837 64.628C90.5888 67.6695 89.7275 70.4895 88.4091 72.9283C88.3165 73.0996 88.1026 73.1634 87.9313 73.0708C87.76 72.9782 87.6962 72.7644 87.7887 72.5931C89.0603 70.2411 89.8938 67.5157 90.1341 64.5707C90.933 54.7729 84.8761 46.4014 76.7351 45.7512Z" fill="#1B3C87"/>
<path fill-rule="evenodd" clip-rule="evenodd" d="M75.628 59.5226C75.7438 58.449 76.232 57.6211 76.7181 57.6735C77.2042 57.7259 77.504 58.6392 77.3878 59.7125C77.2716 60.7857 76.7835 61.614 76.2977 61.5612C75.812 61.5084 75.5118 60.5959 75.628 59.5226Z" fill="#1B3C87"/>
<path fill-rule="evenodd" clip-rule="evenodd" d="M69.0236 60.0788C69.2133 60.1228 69.3314 60.3122 69.2874 60.5018C68.8876 62.2244 67.7834 64.2004 66.4314 65.2675C66.2786 65.3881 66.0569 65.3621 65.9362 65.2093C65.8156 65.0565 65.8416 64.8348 65.9945 64.7142C67.1954 63.7663 68.2288 61.944 68.6004 60.3425C68.6444 60.1529 68.8339 60.0348 69.0236 60.0788Z" fill="#1B3C87"/>
<path fill-rule="evenodd" clip-rule="evenodd" d="M74.103 69.3781C73.8288 69.3236 73.5446 69.3516 73.2863 69.4586C73.028 69.5655 72.8072 69.7466 72.6519 69.979C72.4966 70.2114 72.4137 70.4846 72.4137 70.7641M73.0164 68.8072C73.4036 68.6469 73.8296 68.605 74.2406 68.6867C74.6516 68.7684 75.0291 68.9702 75.3254 69.2664C75.6217 69.5626 75.8235 69.94 75.9052 70.3509C75.987 70.7618 75.945 71.1877 75.7847 71.5747C75.6243 71.9617 75.3528 72.2925 75.0043 72.5253C74.6559 72.758 74.2463 72.8822 73.8272 72.8822H73.8272C73.2653 72.8821 72.7265 72.6589 72.3292 72.2618C71.9319 71.8646 71.7086 71.3259 71.7085 70.7642L72.0611 70.7641H71.7085C71.7085 70.3452 71.8328 69.9357 72.0656 69.5874C72.2984 69.239 72.6293 68.9675 73.0164 68.8072ZM72.4137 70.7641C72.4138 71.1389 72.5628 71.4983 72.8278 71.7632C73.0929 72.0282 73.4524 72.1772 73.8272 72.1773M74.103 69.3781C74.3772 69.4327 74.6291 69.5673 74.8268 69.7649L74.103 69.3781ZM74.8268 69.7649C75.0244 69.9625 75.1591 70.2143 75.2136 70.4884L74.8268 69.7649ZM75.2136 70.4884C75.2681 70.7626 75.2402 71.0467 75.1332 71.3049L75.2136 70.4884ZM75.1332 71.3049C75.0262 71.5631 74.845 71.7838 74.6125 71.9391L75.1332 71.3049ZM74.6125 71.9391C74.3801 72.0944 74.1069 72.1772 73.8273 72.1773L74.6125 71.9391Z" fill="#1B3C87"/>
<path fill-rule="evenodd" clip-rule="evenodd" d="M86.8302 65.86C85.7638 65.784 82.7027 61.4178 85.8429 58.4162C84.3022 56.9157 75.2384 50.1331 64.3489 54.3395C62.9342 52.9011 59.0726 47.1178 62.4059 44.6243C65.7392 42.1309 67.1315 45.1462 67.5632 46.3447C66.5563 43.1805 67.1232 34.6693 75.6 34.5752C84.0768 34.4811 93.1907 59.2418 92.8223 63.6852C92.454 68.1286 92.4355 68.7289 86.8302 65.86Z" fill="#FB5D64"/>
<path fill-rule="evenodd" clip-rule="evenodd" d="M86.3092 45.7724C86.4846 45.6878 86.6954 45.7614 86.78 45.9367C88.391 49.2751 89.7279 52.7298 90.64 55.6271C91.0961 57.0757 91.4473 58.389 91.6733 59.4817C91.8974 60.5647 92.0051 61.461 91.9554 62.0613L91.9554 62.0614L91.9476 62.1553C91.8599 63.2123 91.788 64.0799 91.6446 64.7263C91.4993 65.3816 91.2555 65.9342 90.7194 66.1817C90.2067 66.4185 89.5462 66.3149 88.7448 66.0352C87.9341 65.7522 86.8793 65.2508 85.5056 64.5486C85.3009 64.513 85.1007 64.4017 84.9252 64.2721C84.7172 64.1186 84.5022 63.9086 84.295 63.6592C83.8804 63.1601 83.4745 62.476 83.2073 61.6965C82.7002 60.2171 82.6834 58.3479 84.1184 56.7768C82.4957 55.3551 76.898 51.4523 69.669 51.693C69.4744 51.6995 69.3114 51.547 69.3049 51.3524C69.2984 51.1579 69.4509 50.9949 69.6455 50.9884C77.5936 50.7237 83.6123 55.2849 84.8707 56.5108C84.9392 56.5776 84.9776 56.6693 84.9772 56.7649C84.9767 56.8606 84.9374 56.9519 84.8683 57.018C83.4259 58.3967 83.3986 60.08 83.8744 61.468C84.1133 62.1647 84.4763 62.774 84.8375 63.2088C85.0182 63.4263 85.1928 63.5933 85.3439 63.7049C85.5044 63.8233 85.6031 63.853 85.6369 63.8555C85.6842 63.8588 85.7303 63.8717 85.7725 63.8933C87.1748 64.611 88.2072 65.1008 88.9772 65.3696C89.7671 65.6453 90.1853 65.6518 90.4238 65.5417C90.639 65.4424 90.8192 65.191 90.9562 64.5737C91.089 63.9748 91.1576 63.148 91.2488 62.0485L91.2526 62.0031C91.2526 62.0031 91.2526 62.0031 91.2526 62.0031C91.2935 61.5098 91.2047 60.6973 90.9827 59.6245C90.7628 58.5612 90.4185 57.2717 89.9674 55.8388C89.0652 52.9731 87.7407 49.5501 86.1448 46.243C86.0602 46.0677 86.1338 45.857 86.3092 45.7724Z" fill="#1B3C87"/>
<path fill-rule="evenodd" clip-rule="evenodd" d="M80.4592 37.0663C78.4226 34.6853 76.3455 33.2531 74.3856 33.2748C72.3279 33.2978 70.7744 33.8303 69.6105 34.645C68.445 35.4609 67.6486 36.5749 67.1316 37.7936C66.0911 40.2461 66.2012 43.0779 66.6809 44.5854C66.7392 44.7685 66.6399 44.9646 66.4578 45.0262C66.2757 45.0877 66.0778 44.9921 66.013 44.8112C65.8002 44.2178 65.3733 43.257 64.6484 42.7331C64.2985 42.4801 63.8803 42.3298 63.3677 42.3715C62.8477 42.4138 62.1976 42.6566 61.3988 43.2541C59.9361 44.3483 59.9935 46.1918 60.7088 48.1015C61.4156 49.9889 62.7064 51.753 63.382 52.4399C63.5185 52.5787 63.5166 52.8019 63.3778 52.9384C63.2389 53.0749 63.0157 53.073 62.8792 52.9342C62.14 52.1827 60.7926 50.336 60.0484 48.3487C59.3124 46.3838 59.1057 44.089 60.9763 42.6896C61.8441 42.0405 62.6183 41.7251 63.3106 41.6688C64.0104 41.6119 64.5926 41.8228 65.0616 42.1618C65.2807 42.3201 65.4752 42.5065 65.6472 42.7067C65.5482 41.1407 65.7498 39.2451 66.4824 37.5184C67.0409 36.202 67.9127 34.9729 69.2061 34.0675C70.5011 33.161 72.1972 32.5942 74.3777 32.5699L74.3777 32.5699C76.6725 32.5444 78.9345 34.1991 80.9951 36.6081C81.1217 36.7561 81.1043 36.9786 80.9563 37.1051C80.8083 37.2317 80.5857 37.2143 80.4592 37.0663Z" fill="#1B3C87"/>
<path fill-rule="evenodd" clip-rule="evenodd" d="M84.4087 67.9693C84.4087 67.2015 84.6364 66.4509 85.0631 65.8125C85.4898 65.1741 86.0963 64.6765 86.8059 64.3827C87.5155 64.0888 88.2963 64.012 89.0495 64.1618C89.8028 64.3115 90.4947 64.6813 91.0378 65.2242C91.5809 65.7672 91.9508 66.4589 92.1006 67.212C92.2504 67.965 92.1735 68.7456 91.8796 69.455C91.5857 70.1643 91.088 70.7707 90.4494 71.1972C89.8108 71.6238 89.06 71.8515 88.292 71.8515C87.262 71.8515 86.2743 71.4425 85.5461 70.7144C84.8178 69.9864 84.4087 68.9989 84.4087 67.9693Z" fill="white"/>
<path fill-rule="evenodd" clip-rule="evenodd" d="M88.2118 63.9244C87.6123 63.8782 87.0109 63.9858 86.4647 64.237C86.2878 64.3184 86.0784 64.241 85.997 64.0641C85.9156 63.8872 85.9931 63.6779 86.17 63.5966C86.8253 63.2952 87.5468 63.1661 88.266 63.2215C88.9852 63.277 89.6783 63.5151 90.2797 63.9134C90.881 64.3117 91.3707 64.8569 91.7022 65.4974C92.0338 66.1379 92.1962 66.8524 92.1741 67.5732C92.152 68.294 91.9462 68.9973 91.5761 69.6163C91.206 70.2353 90.6839 70.7496 90.0593 71.1103C89.4347 71.4711 88.7283 71.6664 88.0071 71.6778C87.2858 71.6892 86.5736 71.5162 85.9379 71.1753C85.7663 71.0833 85.7019 70.8696 85.7939 70.6981C85.886 70.5265 86.0997 70.462 86.2713 70.5541C86.8011 70.8382 87.3948 70.9824 87.996 70.9729C88.5971 70.9634 89.1859 70.8006 89.7066 70.4999C90.2272 70.1992 90.6623 69.7705 90.9708 69.2546C91.2793 68.7386 91.4509 68.1525 91.4693 67.5517C91.4877 66.9508 91.3523 66.3553 91.0759 65.8214C90.7996 65.2876 90.3915 64.8331 89.8902 64.5011C89.389 64.1692 88.8113 63.9707 88.2118 63.9244Z" fill="#1B3C87"/>
<circle cx="73.8886" cy="70.5801" r="1.65427" fill="white"/>
</svg>
