<svg width="13" height="16" viewBox="0 0 13 16" fill="none" xmlns="http://www.w3.org/2000/svg">
<path d="M0.987664 5.69833C-0.322705 7.97222 0.510321 11.423 1.95937 13.5153C2.68268 14.5614 3.41498 15.5004 4.418 15.5004C4.4369 15.5004 4.45586 15.5 4.47527 15.4992C4.94652 15.4804 5.28706 15.3353 5.61631 15.1951C5.98597 15.0376 6.36828 14.8747 6.96795 14.8747C7.53844 14.8747 7.90251 15.0323 8.25458 15.1847C8.60157 15.3348 8.95898 15.4901 9.48709 15.4802C10.6169 15.4591 11.3106 14.4459 11.9226 13.5521C12.5612 12.6188 12.8816 11.7126 12.9897 11.3663L12.9941 11.3526C13.0146 11.291 12.9856 11.2238 12.9266 11.1967C12.925 11.196 12.919 11.1935 12.9173 11.1928C12.7183 11.1114 10.9731 10.3372 10.9547 8.22698C10.9377 6.51255 12.264 5.60467 12.53 5.44012L12.5424 5.43239C12.5712 5.41384 12.5913 5.38442 12.5981 5.35078C12.6049 5.31718 12.5978 5.28222 12.5785 5.25397C11.663 3.91427 10.2599 3.71237 9.695 3.68808C9.61303 3.6799 9.52841 3.67578 9.44344 3.67578C8.77995 3.67578 8.14435 3.92637 7.63373 4.12771C7.28124 4.2667 6.97679 4.38674 6.7668 4.38674C6.53085 4.38674 6.22467 4.26523 5.8701 4.12456C5.39596 3.93638 4.85855 3.72314 4.28963 3.72314C4.27606 3.72314 4.2627 3.7233 4.24953 3.72355C2.92671 3.74301 1.67677 4.49981 0.987664 5.69833Z" fill="white"/>
<path d="M9.69605 0.00144042C8.89499 0.0340662 7.93406 0.527163 7.3597 1.19991C6.87158 1.76537 6.39475 2.70816 6.52037 3.65848C6.52825 3.71794 6.57663 3.76383 6.63644 3.76845C6.69052 3.77267 6.74571 3.7748 6.80069 3.77485C7.58396 3.77485 8.42893 3.34152 9.00598 2.64378C9.61332 1.907 9.92042 0.961463 9.82752 0.114513C9.82021 0.0481431 9.76181 -0.00115135 9.69605 0.00144042Z" fill="white"/>
</svg>
