<svg width="347" height="287" viewBox="0 0 347 287" fill="none" xmlns="http://www.w3.org/2000/svg">
<path d="M198.496 239.111C165.374 240.847 134.075 251.844 105.768 244.105C77.46 236.367 52.2521 209.803 47.4749 180.312C42.6936 150.908 58.2592 118.589 78.4305 96.7194C98.5098 74.8456 123.232 63.4255 147.131 54.7537C171.029 46.082 194.1 40.1168 223.963 38.5941C253.827 37.0714 290.422 40.075 302.268 59.1963C314.115 78.3176 301.252 113.427 296.981 148.327C292.71 183.228 297.065 217.789 281.75 231.33C266.435 244.871 231.623 237.379 198.496 239.111Z" fill="#F0F0F0"/>
<path d="M177.145 172.096C179.346 172.418 185.273 173.381 185.273 173.381L194.79 177.622L207.444 154.615L191.548 163.989L183.675 159.534" fill="white"/>
<path d="M84.7513 222.775H20.301L0 117.372H64.4503L84.7513 222.775Z" fill="#EAF0FF"/>
<path d="M138.999 145.993C158.769 151.176 179.772 157.288 179.772 157.288C178.4 160.249 173.686 171.201 173.686 171.201L71.4404 181.165C73.0384 175.535 96.0877 138.832 106.132 138.832C108.842 138.832 115.456 140.174 123.663 142.14" stroke="#1B3C87" stroke-linecap="round" stroke-linejoin="round"/>
<path d="M189.887 155.38L195.534 169.98" stroke="#1B3C87" stroke-linecap="round" stroke-linejoin="round"/>
<path d="M180.433 155.673L172.531 173.866" stroke="#1B3C87" stroke-linecap="round" stroke-linejoin="round"/>
<path d="M182.964 155.673L175.062 173.866" stroke="#1B3C87" stroke-linecap="round" stroke-linejoin="round"/>
<path d="M191.878 154L197.526 168.599" stroke="#1B3C87" stroke-linecap="round" stroke-linejoin="round"/>
<path d="M175.472 170.423C177.672 170.745 183.6 171.707 183.6 171.707L193.117 175.949L205.771 152.941L189.875 162.316L182.002 157.861" stroke="#1B3C87" stroke-linecap="round" stroke-linejoin="round"/>
<path d="M324.561 174.556H116.769V179.149H324.561V174.556Z" fill="#D8DFFF"/>
<path d="M127.591 284.327L153.464 179.149" stroke="#D8DFFF" stroke-linecap="round" stroke-linejoin="round"/>
<path d="M152.778 286L179.011 179.363" stroke="#D8DFFF" stroke-linecap="round" stroke-linejoin="round"/>
<path d="M193.794 238.5L179.249 179.363" stroke="#D8DFFF" stroke-linecap="round" stroke-linejoin="round"/>
<path d="M205.482 286L198.216 256.471" stroke="#D8DFFF" stroke-linecap="round" stroke-linejoin="round"/>
<path d="M180.295 286L154.062 179.363" stroke="#D8DFFF" stroke-linecap="round" stroke-linejoin="round"/>
<path d="M242.913 284.327L268.786 179.149" stroke="#D8DFFF" stroke-linecap="round" stroke-linejoin="round"/>
<path d="M286.356 211.791L294.337 179.363" stroke="#D8DFFF" stroke-linecap="round" stroke-linejoin="round"/>
<path d="M268.1 286L278.035 245.619" stroke="#D8DFFF" stroke-linecap="round" stroke-linejoin="round"/>
<path d="M320.804 286L294.571 179.363" stroke="#D8DFFF" stroke-linecap="round" stroke-linejoin="round"/>
<path d="M295.617 286L269.384 179.363" stroke="#D8DFFF" stroke-linecap="round" stroke-linejoin="round"/>
<path d="M20.301 222.776H96.9452" stroke="#1B3C87" stroke-linecap="round" stroke-linejoin="round"/>
<path d="M58.6231 274.513V281.499" stroke="#1B3C87" stroke-linecap="round" stroke-linejoin="round"/>
<path d="M58.6231 255.518V260.454" stroke="#1B3C87" stroke-linecap="round" stroke-linejoin="round"/>
<path d="M58.6231 222.776V250.552" stroke="#1B3C87" stroke-linecap="round" stroke-linejoin="round"/>
<path d="M46.1614 281.499H71.0848" stroke="#1B3C87" stroke-linecap="round" stroke-linejoin="round"/>
<path d="M301.151 20.803H194.054V127.901H301.151V20.803Z" fill="#D8DFFF"/>
<path d="M261.625 40.1755H210.749C206.47 40.1755 203.001 43.6441 203.001 47.9228V49.8052C203.001 54.0839 206.47 57.5525 210.749 57.5525H261.625C265.903 57.5525 269.372 54.0839 269.372 49.8052V47.9228C269.372 43.6441 265.903 40.1755 261.625 40.1755Z" fill="white"/>
<path d="M283.515 57.5481C288.314 57.5481 292.204 53.6581 292.204 48.8596C292.204 44.0611 288.314 40.1711 283.515 40.1711C278.717 40.1711 274.827 44.0611 274.827 48.8596C274.827 53.6581 278.717 57.5481 283.515 57.5481Z" fill="white"/>
<path d="M203.001 67.3118H292.204" stroke="white" stroke-linecap="round" stroke-linejoin="round"/>
<path d="M203.001 80.1458H292.204" stroke="white" stroke-linecap="round" stroke-linejoin="round"/>
<path d="M203.001 92.9797H248.197" stroke="white" stroke-linecap="round" stroke-linejoin="round"/>
<path d="M171.983 91.3357H155.987C153.214 91.3357 150.967 93.5831 150.967 96.3555V112.352C150.967 115.124 153.214 117.372 155.987 117.372H171.983C174.756 117.372 177.003 115.124 177.003 112.352V96.3555C177.003 93.5831 174.756 91.3357 171.983 91.3357Z" fill="#D8DFFF"/>
<path d="M175.593 97.7862C179.216 97.7862 182.152 94.8495 182.152 91.227C182.152 87.6044 179.216 84.6677 175.593 84.6677C171.971 84.6677 169.034 87.6044 169.034 91.227C169.034 94.8495 171.971 97.7862 175.593 97.7862Z" fill="#FA5D63"/>
<path d="M245.352 0H145.612V34.7664H245.352V0Z" fill="#EAF0FF"/>
<path d="M162.742 10.2698H228.222" stroke="#B2C3FB" stroke-linecap="round" stroke-linejoin="round"/>
<path d="M162.742 24.4968H193.288" stroke="#B2C3FB" stroke-linecap="round" stroke-linejoin="round"/>
<path d="M106.981 47.9312L97.7777 69.1232L120.731 66.5003L106.981 47.9312Z" stroke="#B6C6FC" stroke-linecap="round" stroke-linejoin="round"/>
<path d="M319.663 32.6812L317.349 42.2441L336.207 46.8063L338.521 37.2433L319.663 32.6812Z" stroke="#B6C6FC" stroke-linecap="round" stroke-linejoin="round"/>
<path d="M37.8871 198.63C38.1422 201.479 42.9069 224.449 58.0123 224.449C80.4677 224.449 117.033 196.104 129.223 186.583C137.012 184.997 195.735 168.177 195.735 168.177C194.652 164.93 192.343 158.944 192.343 158.944C192.343 158.944 138.509 162.354 128.967 163.943C119.426 165.533 74.7283 179.421 72.5615 180.044C70.3946 180.668 37.8871 198.63 37.8871 198.63Z" fill="#3B3744"/>
<path d="M73.1137 182.838C74.7117 177.208 97.761 140.504 107.805 140.504C117.849 140.504 181.429 158.956 181.429 158.956C180.057 161.918 175.342 172.87 175.342 172.87L73.1137 182.838Z" fill="#3B3744"/>
<path d="M134.477 161.442C131.272 161.751 128.754 162.04 127.286 162.278C117.748 163.868 73.0467 177.756 70.8798 178.379C68.7129 179.003 36.2138 196.953 36.2138 196.953C36.469 199.801 41.2336 222.771 56.3391 222.771C67.0899 222.771 81.0742 216.275 94.0714 208.456" stroke="#1B3C87" stroke-linecap="round" stroke-linejoin="round"/>
<path d="M109.047 198.701C116.932 193.192 123.55 188.042 127.549 184.921C135.338 183.336 194.062 166.515 194.062 166.515C192.979 163.269 190.669 157.283 190.669 157.283C190.669 157.283 172.263 158.45 155.079 159.735" stroke="#1B3C87" stroke-linecap="round" stroke-linejoin="round"/>
<path d="M66.5711 136.372C68.3657 138.631 71.2856 143.877 71.9507 145.47C75.4018 144.073 107.089 132.503 109.796 131.925C112.502 131.348 123.739 129.068 124.935 137.363C122.877 139.091 118.162 137.56 114.644 138.326C111.126 139.091 73.2057 161.082 70.5452 161.672C67.8847 162.262 52.6955 157.489 52.6955 157.489C52.6955 157.489 59.8195 137.493 66.5711 136.372Z" fill="white"/>
<path d="M49.2277 113.971C57.2134 113.971 67.5542 128.357 69.4701 133.991C68.3741 136.288 64.1616 140.174 62.9025 140.5C61.6434 140.827 40.0372 113.971 49.2277 113.971Z" fill="#46DBC9"/>
<path d="M66.7468 129.922C67.1516 130.695 67.5024 131.496 67.7968 132.319C66.7008 134.615 62.4884 138.501 61.2292 138.828C59.9701 139.154 38.3639 112.298 47.5544 112.298C52.729 112.298 58.895 118.338 63.1116 124.124" stroke="#1B3C87" stroke-linecap="round" stroke-linejoin="round"/>
<path d="M106.855 139.538C95.0921 145.7 70.9635 159.534 68.8719 159.998C66.2281 160.584 51.0222 155.815 51.0222 155.815C51.0222 155.815 58.1336 135.828 64.8978 134.698C66.6924 136.957 69.6123 142.203 70.2774 143.797C71.1141 143.454 73.6574 142.504 77.0416 141.257" stroke="#1B3C87" stroke-linecap="round" stroke-linejoin="round"/>
<path d="M89.0516 136.87C97.8865 133.678 106.742 130.545 108.123 130.244C110.846 129.645 122.065 127.387 123.262 135.682C121.204 137.409 116.489 135.878 112.971 136.644" stroke="#1B3C87" stroke-linecap="round" stroke-linejoin="round"/>
<path d="M50.1982 116.293C64.421 126.562 69.3153 156.702 74.4606 179.538C70.1394 184.387 43.6264 201.291 37.8327 199.99C24.9359 168.616 9.17371 112.691 39.1253 112.691C43.1077 112.669 46.991 113.932 50.1982 116.293" fill="#46DBC9"/>
<path d="M34.758 194.844C22.1709 163.006 8.57133 111.018 37.4478 111.018C43.5887 111.018 48.5165 113.758 52.5617 118.309" stroke="#1B3C87" stroke-linecap="round" stroke-linejoin="round"/>
<path d="M59.2673 128.905C65.7847 142.709 69.2233 162.04 72.7832 177.848C70.7251 180.153 63.6429 185.189 56.1592 189.695" stroke="#1B3C87" stroke-linecap="round" stroke-linejoin="round"/>
<path d="M18.4855 154.062C18.2805 157.087 15.3272 200.408 16.4316 215.618C16.9503 222.775 19.2176 227.887 19.2636 230.334C19.4393 239.035 26.3164 243.453 28.9686 243.453C31.6207 243.453 31.9261 242.545 31.9261 241.482C31.9261 240.42 26.3917 228.895 26.3917 224.637C26.3917 220.378 33.4655 158.601 34.277 154.962C35.0886 151.322 18.4855 154.062 18.4855 154.062Z" fill="white"/>
<path d="M24.7686 221.939C25.4003 212.765 31.8131 156.748 32.6037 153.289C33.4403 149.649 16.8122 152.389 16.8122 152.389C16.7034 153.966 15.8501 166.499 15.2142 180.291" stroke="#1B3C87" stroke-linecap="round" stroke-linejoin="round"/>
<path d="M14.5533 200.057C14.4654 205.599 14.5072 210.494 14.7582 213.945C15.277 221.102 17.5442 226.214 17.5903 228.661C17.7659 237.362 24.6431 241.78 27.2952 241.78C29.9474 241.78 30.2527 240.872 30.2527 239.809C30.2527 239.316 29.048 236.542 27.7638 233.296" stroke="#1B3C87" stroke-linecap="round" stroke-linejoin="round"/>
<path d="M30.3448 120.475C39.9201 120.973 38.6651 154.961 35.5696 156.212C32.474 157.463 17.653 155.919 16.1052 153.782C14.5575 151.644 17.1845 119.806 30.3448 120.475Z" fill="#46DBC9"/>
<path d="M27.5797 102.446C28.659 105.709 29.9767 113.586 29.9474 115.983C31.6541 116.82 36.5945 117.121 38.5438 115.653C37.7658 113.528 36.9877 108.466 37.0463 105.174C37.1048 101.882 27.5797 102.446 27.5797 102.446Z" fill="white"/>
<path d="M36.4397 112.528C35.7481 109.571 35.3903 106.546 35.373 103.509C35.4316 100.212 25.9064 100.781 25.9064 100.781C26.9857 104.044 28.3034 111.921 28.2741 114.318C29.3952 114.87 31.9093 115.188 34.0553 114.925" stroke="#1B3C87" stroke-linecap="round" stroke-linejoin="round"/>
<path d="M35.373 108.374C41.5924 108.374 46.6341 103.332 46.6341 97.1124C46.6341 90.8931 41.5924 85.8513 35.373 85.8513C29.1537 85.8513 24.1119 90.8931 24.1119 97.1124C24.1119 103.332 29.1537 108.374 35.373 108.374Z" fill="white"/>
<path d="M43.2918 101.346C41.9722 103.476 39.982 105.106 37.6345 105.981C35.2869 106.855 32.7152 106.925 30.3239 106.178" stroke="#1B3C87" stroke-linecap="round" stroke-linejoin="round"/>
<path d="M25.3333 102.977C24.1112 101.619 23.2378 99.9843 22.7885 98.2134C22.3393 96.4425 22.3276 94.5889 22.7546 92.8125C23.1816 91.0361 24.0343 89.3903 25.2393 88.017C26.4443 86.6437 27.9653 85.5842 29.6711 84.93C31.377 84.2757 33.2164 84.0463 35.0306 84.2615C36.8449 84.4768 38.5795 85.1302 40.0849 86.1655C41.5903 87.2007 42.8212 88.5867 43.6714 90.2038C44.5216 91.8209 44.9656 93.6206 44.965 95.4476C44.9635 96.0076 44.9216 96.5668 44.8395 97.1208" stroke="#1B3C87" stroke-linecap="round" stroke-linejoin="round"/>
<path d="M45.7138 88.4326C41.8402 93.8707 33.2228 94.3392 31.491 94.3392C29.7591 94.3392 29.3492 99.1834 27.1195 99.1834C24.8899 99.1834 19.1715 97.7276 19.1715 91.0471C19.1715 86.1067 23.0451 83.5424 28.5167 81.8441C32.817 80.5096 41.9782 77.6609 44.7851 77.6609C49.4828 77.6609 51.8965 82.3084 51.8965 86.8639C51.8965 90.7835 50.742 92.6409 46.2576 94.2556" fill="#ECC953"/>
<path d="M29.4663 79.3675C34.1347 77.9453 40.7985 76.021 43.1202 76.021C47.8179 76.021 50.2316 80.6685 50.2316 85.224C50.2316 89.1436 49.0771 91.001 44.5927 92.6157" stroke="#1B3C87" stroke-linecap="round" stroke-linejoin="round"/>
<path d="M34.0176 92.2348C32.628 92.4946 31.2187 92.6346 29.8052 92.6531C28.0608 92.6531 27.6759 97.4973 25.4463 97.4973C23.2167 97.4973 17.4982 96.0415 17.4982 89.361C17.4925 88.5973 17.5953 87.8367 17.8036 87.1021" stroke="#1B3C87" stroke-linecap="round" stroke-linejoin="round"/>
<path d="M44.0406 86.759C42.67 88.5753 40.8304 89.9839 38.7196 90.8335" stroke="#1B3C87" stroke-linecap="round" stroke-linejoin="round"/>
<path d="M27.4208 100.865C29.0126 100.865 30.303 99.5746 30.303 97.9828C30.303 96.391 29.0126 95.1006 27.4208 95.1006C25.829 95.1006 24.5386 96.391 24.5386 97.9828C24.5386 99.5746 25.829 100.865 27.4208 100.865Z" fill="white"/>
<path d="M26.5841 100.028C26.1107 100.028 25.6447 99.9109 25.2272 99.6876C24.8098 99.4643 24.4537 99.1416 24.1906 98.748C23.9275 98.3545 23.7654 97.9021 23.7186 97.431C23.6718 96.9599 23.7418 96.4845 23.9223 96.0469C24.1029 95.6093 24.3884 95.2228 24.7538 94.9218C25.1192 94.6207 25.5531 94.4143 26.0172 94.3207C26.4812 94.2272 26.9612 94.2494 27.4147 94.3854C27.8682 94.5214 28.2811 94.767 28.6171 95.1005" stroke="#1B3C87" stroke-linecap="round" stroke-linejoin="round"/>
<path d="M31.8758 154.924C26.764 155.343 15.7538 153.941 14.4319 152.118C13.6915 151.093 13.9049 143.253 15.7789 135.439" stroke="#1B3C87" stroke-linecap="round" stroke-linejoin="round"/>
<path d="M20.1211 124.261C22.2712 120.865 25.0782 118.627 28.6715 118.823C36.4522 119.242 37.0839 141.739 35.3646 150.841" stroke="#1B3C87" stroke-linecap="round" stroke-linejoin="round"/>
<path d="M198.149 167.139L204.779 164.679L212.501 163.935L204.097 139.459L201.115 155.049L194.56 157.861" fill="white"/>
<path d="M200.002 150.871L199.442 153.795L192.887 156.606" stroke="#1B3C87" stroke-linecap="round" stroke-linejoin="round"/>
<path d="M207.862 154.046L202.424 138.204L200.684 147.294" stroke="#1B3C87" stroke-linecap="round" stroke-linejoin="round"/>
<path d="M196.476 165.884L203.106 163.424L210.828 162.68" stroke="#1B3C87" stroke-linecap="round" stroke-linejoin="round"/>
<path d="M38.9036 95.1006C38.9036 96.2008 39.5687 98.1878 40.5769 98.9282" stroke="#1B3C87" stroke-linecap="round" stroke-linejoin="round"/>
<path d="M42.1163 95.4396C42.5067 95.4396 42.8232 94.8347 42.8232 94.0885C42.8232 93.3422 42.5067 92.7373 42.1163 92.7373C41.7258 92.7373 41.4093 93.3422 41.4093 94.0885C41.4093 94.8347 41.7258 95.4396 42.1163 95.4396Z" fill="#1B3C87"/>
<path d="M34.8334 100.51C35.3604 101.145 36.8162 102.024 37.8285 102.024" stroke="#1B3C87" stroke-linecap="round" stroke-linejoin="round"/>
<path d="M346.388 86.7761H288.556V162.831H346.388V86.7761Z" fill="#EAF0FF"/>
<path d="M346.388 86.7761H288.556V97.3094H346.388V86.7761Z" fill="#D8DFFF"/>
<path d="M294.973 94.5736C296.412 94.5736 297.579 93.4068 297.579 91.9675C297.579 90.5281 296.412 89.3613 294.973 89.3613C293.534 89.3613 292.367 90.5281 292.367 91.9675C292.367 93.4068 293.534 94.5736 294.973 94.5736Z" fill="#B2C3FB"/>
<path d="M302.908 94.5736C304.348 94.5736 305.515 93.4068 305.515 91.9675C305.515 90.5281 304.348 89.3613 302.908 89.3613C301.469 89.3613 300.302 90.5281 300.302 91.9675C300.302 93.4068 301.469 94.5736 302.908 94.5736Z" fill="#B2C3FB"/>
<path d="M310.848 94.5736C312.287 94.5736 313.454 93.4068 313.454 91.9675C313.454 90.5281 312.287 89.3613 310.848 89.3613C309.409 89.3613 308.242 90.5281 308.242 91.9675C308.242 93.4068 309.409 94.5736 310.848 94.5736Z" fill="#B2C3FB"/>
<path d="M311.547 105.906H295.567V128.077H311.547V105.906Z" fill="#D8DFFF"/>
<path d="M317.089 105.906H338.758" stroke="#B2C3FB" stroke-linecap="round" stroke-linejoin="round"/>
<path d="M295.567 140.241H338.758" stroke="#B2C3FB" stroke-linecap="round" stroke-linejoin="round"/>
<path d="M295.567 151.686H338.758" stroke="#B2C3FB" stroke-linecap="round" stroke-linejoin="round"/>
<path d="M317.089 117.351H338.758" stroke="#B2C3FB" stroke-linecap="round" stroke-linejoin="round"/>
<path d="M317.089 128.796H338.758" stroke="#B2C3FB" stroke-linecap="round" stroke-linejoin="round"/>
</svg>
