<svg width="209" height="162" viewBox="0 0 209 162" fill="none" xmlns="http://www.w3.org/2000/svg">
<path d="M187.391 54.4905C200.537 65.1607 204.254 84.4503 200.397 100.905C196.576 117.378 185.217 131.037 171.301 138.396C157.403 145.802 140.967 146.886 125.669 150.929C110.352 155 96.1707 162.032 80.36 162C64.5322 162 47.1282 154.921 31.7239 143.301C16.331 131.734 2.98129 115.637 2.30527 99.9287C1.66532 84.2357 13.699 68.915 22.0753 53.2144C30.4687 37.4739 35.1781 21.2891 46.4104 11.1506C57.6428 1.01206 75.3885 -3.16184 90.2763 2.63757C105.164 8.43698 117.181 24.0939 134.446 32.9468C151.736 41.8206 174.26 43.881 187.391 54.4905Z" fill="#F1F1F1"/>
<path d="M204.009 12.2159H0V142.232H204.009V12.2159Z" fill="#EAF0FF"/>
<path d="M202.315 135.642L204.92 139.714L208.053 142.357L199.309 152.207L201.156 143.326L197.721 140.137L202.315 135.642Z" fill="white"/>
<path d="M168.716 148.02C168.796 148.66 168.865 150.257 168.952 151.345C169.421 152.245 169.691 153.067 170.055 153.749C169.296 154.647 163.398 160.04 162.974 160.205C162.551 160.371 156.998 160.205 156.998 160.205C156.998 159.782 160.036 157.818 161.445 156.495C161.975 155.834 162.854 148.722 162.854 147.294L168.716 148.02Z" fill="white"/>
<path d="M188.278 94.3363C188.479 95.8023 189.292 115.122 189.292 118.225C190.461 119.647 201.394 133.783 201.394 135.46C200.102 136.919 198.344 138.498 197.275 139.476C196.599 140.097 179.886 122.196 179.58 121.275C179.275 120.354 176.937 114.877 176.937 113.597C176.937 112.318 182.123 95.3447 182.123 95.3447L188.278 94.3363Z" fill="#3B3744"/>
<path fill-rule="evenodd" clip-rule="evenodd" d="M187.251 93.0442C187.292 93.0747 187.319 93.1204 187.326 93.1712C187.388 93.6254 187.506 95.7184 187.639 98.4838C187.773 101.256 187.924 104.719 188.051 107.927C188.055 108.032 187.974 108.12 187.869 108.125C187.764 108.129 187.676 108.047 187.672 107.942C187.544 104.735 187.394 101.273 187.26 98.5021C187.14 96.0213 187.034 94.1064 186.971 93.4168L181.131 94.3736L181.107 94.4516C181.069 94.5762 181.013 94.7591 180.942 94.9923C180.8 95.4588 180.598 96.1267 180.355 96.9322C179.869 98.5432 179.221 100.704 178.573 102.905C177.924 105.107 177.276 107.347 176.791 109.116C176.548 110.001 176.346 110.767 176.205 111.351C176.134 111.643 176.079 111.888 176.042 112.079C176.004 112.275 175.987 112.399 175.987 112.458C175.987 112.595 176.019 112.803 176.083 113.074C176.146 113.342 176.237 113.659 176.348 114.011C176.571 114.714 176.871 115.543 177.182 116.364C177.485 117.164 177.799 117.96 178.06 118.618C178.33 119.303 178.542 119.839 178.621 120.076C178.621 120.075 178.621 120.075 178.621 120.075C178.621 120.075 178.623 120.082 178.632 120.097C178.641 120.114 178.655 120.135 178.673 120.163C178.71 120.217 178.762 120.288 178.83 120.375C178.964 120.548 179.155 120.777 179.395 121.056C179.875 121.613 180.545 122.36 181.346 123.233C182.946 124.977 185.061 127.218 187.196 129.431C189.331 131.645 191.484 133.831 193.16 135.466C193.998 136.284 194.715 136.962 195.251 137.436C195.519 137.674 195.738 137.858 195.903 137.983C195.978 138.039 196.038 138.081 196.085 138.11C196.52 137.642 197.238 136.953 197.974 136.253C198.097 136.136 198.221 136.019 198.344 135.902C198.985 135.293 199.611 134.7 200.056 134.251C200.043 134.179 200.012 134.077 199.955 133.939C199.879 133.752 199.764 133.52 199.615 133.248C199.318 132.705 198.889 132.015 198.369 131.225C197.328 129.646 195.928 127.68 194.489 125.72C191.61 121.8 188.587 117.914 188.005 117.206C187.977 117.172 187.962 117.13 187.962 117.086C187.962 116.495 187.934 115.313 187.884 113.773C187.881 113.668 187.963 113.58 188.068 113.577C188.173 113.573 188.261 113.656 188.264 113.76C188.311 115.244 188.34 116.401 188.342 117.018C189.022 117.854 191.979 121.661 194.795 125.496C196.235 127.457 197.64 129.429 198.686 131.016C199.209 131.809 199.644 132.509 199.948 133.066C200.101 133.344 200.223 133.589 200.307 133.794C200.388 133.993 200.444 134.176 200.444 134.321C200.444 134.371 200.424 134.418 200.389 134.454C199.936 134.915 199.275 135.542 198.604 136.179C198.481 136.295 198.358 136.412 198.236 136.529C197.441 137.284 196.684 138.011 196.276 138.464C196.238 138.507 196.182 138.53 196.125 138.527C196.079 138.524 196.038 138.51 196.008 138.498C195.976 138.484 195.942 138.467 195.909 138.447C195.841 138.407 195.763 138.353 195.675 138.286C195.498 138.153 195.269 137.961 194.999 137.721C194.457 137.24 193.734 136.557 192.895 135.738C191.215 134.099 189.059 131.91 186.923 129.695C184.786 127.48 182.669 125.237 181.066 123.49C180.264 122.616 179.591 121.866 179.107 121.304C178.866 121.023 178.67 120.788 178.53 120.608C178.46 120.518 178.402 120.439 178.358 120.375C178.318 120.316 178.279 120.252 178.26 120.195C178.184 119.965 177.979 119.448 177.715 118.779C177.455 118.122 177.138 117.32 176.827 116.499C176.515 115.675 176.212 114.838 175.986 114.125C175.874 113.769 175.78 113.442 175.714 113.161C175.648 112.884 175.607 112.641 175.607 112.458C175.607 112.357 175.631 112.199 175.669 112.006C175.708 111.807 175.764 111.556 175.836 111.262C175.978 110.672 176.181 109.902 176.425 109.016C176.911 107.243 177.56 105 178.208 102.798C178.857 100.596 179.505 98.4339 179.991 96.8225C180.234 96.0167 180.437 95.3486 180.579 94.8819C180.65 94.6486 180.705 94.4656 180.743 94.3409L180.802 94.15C180.802 94.1499 180.802 94.1498 180.983 94.2053L180.802 94.1498C180.823 94.0807 180.881 94.0296 180.953 94.0179L187.107 93.0096C187.158 93.0013 187.209 93.0138 187.251 93.0442Z" fill="#1B3C87"/>
<path d="M168.962 95.3694C168.664 97.0196 162.768 146.88 162.768 148.46C163.457 149.349 167.437 149.476 168.128 149.053C168.82 148.629 175.003 119.429 175.517 117.72C177.447 116.435 185.356 98.5103 185.354 95.791" fill="#3B3744"/>
<path d="M178.971 63.8848C188.845 63.8848 188.505 92.3691 187.943 94.4428C187.381 96.5164 168.696 96.7918 168.656 95.1796C168.266 80.0069 167.224 63.8848 178.971 63.8848Z" fill="#3757FF"/>
<path fill-rule="evenodd" clip-rule="evenodd" d="M184.478 94.6533C184.583 94.6532 184.668 94.7382 184.668 94.8431C184.668 95.2136 184.537 95.8153 184.317 96.5667C184.096 97.3255 183.777 98.2584 183.391 99.302C182.618 101.39 181.567 103.929 180.457 106.423C179.346 108.916 178.175 111.366 177.159 113.275C176.652 114.229 176.182 115.051 175.777 115.676C175.574 115.988 175.387 116.254 175.217 116.464C175.072 116.642 174.934 116.789 174.806 116.888C174.668 117.387 174.278 119.163 173.749 121.627C173.525 122.668 173.277 123.828 173.012 125.064C172.624 126.88 172.201 128.857 171.772 130.848C171.749 130.95 171.648 131.015 171.546 130.993C171.443 130.971 171.378 130.87 171.4 130.767C171.83 128.777 172.252 126.801 172.641 124.985C172.905 123.75 173.153 122.589 173.377 121.547C173.929 118.983 174.334 117.135 174.459 116.718C174.472 116.675 174.499 116.639 174.536 116.614C174.632 116.55 174.761 116.423 174.922 116.225C175.08 116.029 175.26 115.775 175.458 115.469C175.855 114.857 176.319 114.046 176.824 113.097C177.834 111.198 179.002 108.757 180.11 106.268C181.218 103.78 182.265 101.248 183.035 99.1701C183.42 98.1309 183.734 97.2072 183.953 96.4603C184.173 95.7059 184.288 95.1527 184.288 94.8433C184.288 94.7385 184.373 94.6534 184.478 94.6533Z" fill="#1B3C87"/>
<path fill-rule="evenodd" clip-rule="evenodd" d="M165.731 113.574C165.835 113.586 165.91 113.681 165.897 113.785C165.06 120.787 164.158 128.442 163.465 134.461C163.119 137.47 162.825 140.071 162.618 141.976C162.514 142.929 162.432 143.708 162.376 144.277C162.335 144.687 162.309 144.982 162.297 145.155C162.934 145.295 164.066 145.435 165.176 145.555C165.769 145.619 166.354 145.678 166.846 145.727C167.266 145.769 167.618 145.804 167.847 145.83C167.86 145.802 167.875 145.768 167.892 145.725C167.943 145.596 168.005 145.411 168.077 145.173C168.22 144.697 168.399 144.022 168.606 143.192C169.019 141.534 169.54 139.266 170.1 136.748C170.122 136.646 170.224 136.581 170.326 136.604C170.429 136.627 170.493 136.728 170.47 136.831C169.91 139.349 169.389 141.621 168.975 143.284C168.768 144.116 168.587 144.797 168.44 145.282C168.367 145.524 168.302 145.721 168.245 145.864C168.217 145.936 168.189 145.998 168.162 146.048C168.148 146.073 168.133 146.098 168.116 146.12C168.1 146.141 168.074 146.171 168.037 146.194C168 146.216 167.957 146.225 167.915 146.22C167.701 146.193 167.307 146.154 166.816 146.105C166.326 146.057 165.739 145.998 165.136 145.933C163.94 145.803 162.68 145.647 162.054 145.488C161.97 145.467 161.911 145.391 161.911 145.304C161.911 145.177 161.942 144.805 161.998 144.24C162.054 143.669 162.136 142.889 162.24 141.935C162.447 140.029 162.741 137.427 163.088 134.417C163.781 128.398 164.683 120.743 165.52 113.74C165.532 113.636 165.627 113.562 165.731 113.574Z" fill="#1B3C87"/>
<path fill-rule="evenodd" clip-rule="evenodd" d="M168.121 94.2331C168.224 94.2521 168.292 94.3512 168.273 94.4543C168.204 94.8266 167.85 97.652 167.34 101.811C167.328 101.915 167.233 101.989 167.129 101.976C167.025 101.963 166.951 101.869 166.963 101.765C167.472 97.6175 167.828 94.7726 167.899 94.3852C167.918 94.2821 168.018 94.214 168.121 94.2331Z" fill="#1B3C87"/>
<path fill-rule="evenodd" clip-rule="evenodd" d="M161.475 152.253C161.579 152.269 161.649 152.367 161.633 152.47C161.503 153.286 161.368 154.043 161.236 154.633C161.171 154.928 161.106 155.184 161.042 155.386C160.981 155.578 160.914 155.748 160.834 155.848C160.828 155.855 160.822 155.862 160.816 155.868C160.189 156.457 159.247 157.168 158.397 157.81C158.278 157.899 158.162 157.988 158.048 158.074C157.58 158.429 157.161 158.752 156.859 159.012C156.751 159.105 156.66 159.188 156.589 159.26C156.73 159.263 156.91 159.268 157.117 159.273C157.644 159.285 158.35 159.3 159.07 159.31C159.79 159.32 160.522 159.325 161.099 159.317C161.388 159.314 161.637 159.307 161.825 159.296C161.919 159.291 161.996 159.285 162.055 159.278C162.084 159.274 162.107 159.271 162.124 159.268C162.138 159.265 162.144 159.263 162.147 159.263C162.148 159.262 162.157 159.257 162.175 159.246C162.197 159.232 162.226 159.212 162.262 159.185C162.335 159.131 162.43 159.056 162.546 158.961C162.777 158.772 163.083 158.511 163.438 158.2C164.148 157.579 165.049 156.766 165.929 155.956C166.006 155.885 166.127 155.89 166.198 155.968C166.269 156.045 166.263 156.165 166.186 156.236C165.304 157.046 164.401 157.862 163.689 158.486C163.332 158.797 163.023 159.062 162.787 159.256C162.669 159.352 162.567 159.432 162.487 159.491C162.447 159.52 162.411 159.546 162.379 159.566C162.35 159.584 162.315 159.605 162.28 159.618C162.23 159.637 162.163 159.647 162.1 159.655C162.03 159.663 161.945 159.67 161.847 159.675C161.65 159.687 161.395 159.694 161.104 159.697C160.522 159.705 159.786 159.7 159.065 159.69C158.343 159.68 157.635 159.665 157.108 159.652C156.844 159.646 156.625 159.641 156.473 159.636C156.396 159.634 156.336 159.633 156.295 159.632L156.233 159.63L156.233 159.63C156.233 159.63 156.233 159.63 156.238 159.44L156.233 159.63C156.13 159.627 156.048 159.543 156.048 159.44C156.048 159.362 156.081 159.294 156.11 159.246C156.141 159.194 156.182 159.14 156.229 159.087C156.324 158.981 156.456 158.858 156.611 158.724C156.923 158.455 157.352 158.125 157.819 157.771C157.933 157.684 158.05 157.596 158.169 157.506C159.017 156.866 159.933 156.173 160.544 155.602C160.575 155.558 160.622 155.454 160.68 155.271C160.739 155.084 160.801 154.84 160.866 154.551C160.995 153.972 161.129 153.223 161.258 152.411C161.274 152.307 161.371 152.237 161.475 152.253Z" fill="#1B3C87"/>
<path fill-rule="evenodd" clip-rule="evenodd" d="M161.97 146.387C162.01 146.351 162.065 146.334 162.119 146.341L167.981 147.072C168.067 147.083 168.135 147.15 168.146 147.237C168.193 147.614 168.236 148.325 168.282 149.064C168.313 149.573 168.345 150.095 168.379 150.532C168.609 150.977 168.791 151.402 168.958 151.795L168.975 151.835C169.141 152.225 169.292 152.579 169.464 152.9C169.501 152.969 169.491 153.053 169.44 153.113C169.229 153.359 168.665 153.916 167.944 154.599C167.868 154.671 167.747 154.668 167.675 154.592C167.603 154.516 167.606 154.395 167.683 154.323C168.322 153.718 168.823 153.226 169.067 152.961C168.913 152.657 168.773 152.33 168.629 151.99C168.622 151.975 168.616 151.959 168.609 151.944C168.437 151.54 168.255 151.116 168.025 150.673C168.013 150.651 168.006 150.626 168.004 150.6C167.966 150.136 167.933 149.588 167.901 149.061C167.862 148.424 167.825 147.818 167.785 147.43L162.281 146.744C162.26 147.284 162.174 148.231 162.05 149.308C162.038 149.412 161.944 149.487 161.84 149.475C161.736 149.463 161.661 149.369 161.673 149.265C161.816 148.023 161.905 146.978 161.905 146.529C161.905 146.475 161.929 146.423 161.97 146.387Z" fill="#1B3C87"/>
<path d="M204.009 12.2159H0V28.9268H204.009V12.2159Z" fill="#D7DFFF"/>
<path d="M167.989 16.5399H41.7051V24.6029H167.989V16.5399Z" fill="white"/>
<path d="M197.033 16.5399H176.669V24.6029H197.033V16.5399Z" fill="#B2C3FB"/>
<path d="M7.17992 23.3876C8.73524 23.3876 9.99607 22.1267 9.99607 20.5714C9.99607 19.0161 8.73524 17.7552 7.17992 17.7552C5.6246 17.7552 4.36377 19.0161 4.36377 20.5714C4.36377 22.1267 5.6246 23.3876 7.17992 23.3876Z" fill="#FB5E64"/>
<path d="M16.9026 23.3876C18.4579 23.3876 19.7187 22.1267 19.7187 20.5714C19.7187 19.0161 18.4579 17.7552 16.9026 17.7552C15.3473 17.7552 14.0864 19.0161 14.0864 20.5714C14.0864 22.1267 15.3473 23.3876 16.9026 23.3876Z" fill="#FB5E64"/>
<path d="M26.6252 23.3876C28.1806 23.3876 29.4414 22.1267 29.4414 20.5714C29.4414 19.0161 28.1806 17.7552 26.6252 17.7552C25.0699 17.7552 23.8091 19.0161 23.8091 20.5714C23.8091 22.1267 25.0699 23.3876 26.6252 23.3876Z" fill="#FB5E64"/>
<path fill-rule="evenodd" clip-rule="evenodd" d="M167.938 80.4969C168.043 80.5005 168.125 80.5883 168.122 80.6931C167.999 84.3478 168.108 88.2916 168.217 92.2327C168.237 92.9609 168.257 93.689 168.276 94.4151L168.276 94.4153L168.276 94.4154C168.276 94.4166 168.276 94.4333 168.309 94.4671C168.344 94.5029 168.406 94.546 168.503 94.5926C168.696 94.6856 168.989 94.7735 169.373 94.8526C170.139 95.0102 171.223 95.1242 172.49 95.1931C175.021 95.3308 178.252 95.2868 181.054 95.0624C181.158 95.0541 181.25 95.132 181.258 95.2366C181.267 95.3411 181.189 95.4326 181.084 95.441C178.267 95.6667 175.019 95.711 172.469 95.5724C171.196 95.5031 170.089 95.3878 169.296 95.2246C168.902 95.1433 168.573 95.048 168.338 94.9348C168.221 94.8782 168.116 94.8125 168.039 94.7338C167.96 94.6536 167.899 94.55 167.896 94.4247C167.896 94.4247 167.896 94.4247 167.896 94.4246L168.086 94.42L167.896 94.4249C167.896 94.4248 167.896 94.4248 167.896 94.4247C167.877 93.7004 167.857 92.9735 167.837 92.246C167.728 88.3053 167.619 84.3478 167.742 80.6803C167.746 80.5755 167.834 80.4934 167.938 80.4969Z" fill="#1B3C87"/>
<path fill-rule="evenodd" clip-rule="evenodd" d="M171.274 66.8308C169.719 69.0541 168.879 72.2064 168.455 75.9077C168.443 76.0119 168.349 76.0867 168.245 76.0747C168.141 76.0628 168.066 75.9686 168.078 75.8644C168.504 72.1427 169.353 68.9145 170.963 66.6131C172.582 64.2986 174.962 62.9352 178.401 62.9352C180.98 62.9352 182.859 64.7986 184.218 67.5234C185.579 70.253 186.449 73.9018 186.989 77.599C187.53 81.2994 187.744 85.0629 187.788 88.0308C187.809 89.5149 187.788 90.8015 187.744 91.7832C187.701 92.7554 187.634 93.4495 187.557 93.7328C187.483 94.0078 187.217 94.2117 186.895 94.372C186.562 94.5382 186.112 94.6846 185.58 94.8168C185.478 94.8422 185.375 94.7802 185.35 94.6784C185.324 94.5766 185.386 94.4736 185.488 94.4483C186.01 94.3185 186.429 94.18 186.726 94.032C187.035 93.878 187.162 93.7383 187.191 93.6336L187.191 93.6334C187.254 93.3983 187.321 92.7486 187.365 91.7662C187.409 90.7932 187.429 89.5142 187.408 88.0364C187.364 85.0802 187.151 81.3339 186.613 77.6539C186.075 73.9708 185.213 70.3689 183.878 67.6929C182.541 65.0121 180.76 63.315 178.401 63.315C175.082 63.315 172.82 64.6206 171.274 66.8308Z" fill="#1B3C87"/>
<path d="M181.07 65.9337C181.07 66.8699 176.738 66.7863 176.814 65.5368L177.211 58.9531H181.07V65.9337Z" fill="white"/>
<path fill-rule="evenodd" clip-rule="evenodd" d="M176.451 58.3718C176.457 58.2716 176.54 58.1934 176.641 58.1934H180.499C180.604 58.1934 180.689 58.2784 180.689 58.3833V65.3638C180.689 65.5645 180.57 65.7161 180.424 65.8211C180.279 65.9253 180.084 66.0014 179.871 66.0564C179.442 66.1669 178.882 66.2054 178.332 66.1746C177.783 66.1439 177.225 66.0431 176.802 65.8624C176.395 65.6886 176.027 65.3993 176.054 64.9555C176.054 64.9555 176.054 64.9555 176.054 64.9555L176.451 58.3718ZM176.819 58.5732L176.433 64.9784C176.422 65.1593 176.567 65.349 176.951 65.5131C177.319 65.6702 177.829 65.7661 178.354 65.7954C178.877 65.8247 179.396 65.7866 179.776 65.6886C179.968 65.6393 180.111 65.578 180.203 65.5125C180.293 65.4478 180.309 65.3972 180.309 65.3638V58.5732H176.819Z" fill="#1B3C87"/>
<path d="M186.069 54.4522C186.909 50.5343 185.461 46.9022 182.836 46.3397C180.211 45.7772 177.403 48.4973 176.563 52.4152C175.724 56.3332 177.171 59.9653 179.796 60.5278C182.421 61.0903 185.229 58.3701 186.069 54.4522Z" fill="white"/>
<path fill-rule="evenodd" clip-rule="evenodd" d="M177.173 47.574C177.255 47.6394 177.269 47.7589 177.204 47.8409C176.257 49.0273 175.61 50.4236 175.316 51.9123L175.315 51.9149L175.315 51.9149C175.145 52.7193 175.071 53.5413 175.095 54.3632C175.098 54.468 175.016 54.5555 174.911 54.5587C174.806 54.5618 174.719 54.4793 174.716 54.3745C174.69 53.5227 174.767 52.671 174.943 51.8374C175.25 50.2895 175.923 48.8378 176.907 47.6041C176.972 47.5221 177.091 47.5086 177.173 47.574Z" fill="#1B3C87"/>
<path fill-rule="evenodd" clip-rule="evenodd" d="M175.266 56.6139C175.366 56.5805 175.473 56.6341 175.507 56.7335C176.052 58.3563 177.093 59.4902 178.427 59.7698M175.266 56.6139C175.167 56.6473 175.113 56.755 175.147 56.8544L175.266 56.6139ZM175.147 56.8544C175.718 58.5547 176.838 59.8249 178.349 60.1416L175.147 56.8544ZM178.427 59.7698C178.824 59.8528 179.233 59.8589 179.632 59.7877C179.736 59.7694 179.834 59.8382 179.853 59.9414C179.871 60.0447 179.802 60.1433 179.699 60.1617C179.252 60.2413 178.794 60.2345 178.349 60.1416L178.349 60.1416" fill="#1B3C87"/>
<path d="M182.178 45.6794C186.356 45.6794 188.445 50.0812 189.394 54.7944C190.154 58.5923 192.053 61.8206 192.053 65.0488C192.053 69.8854 188.887 74.1638 185.596 74.1638C180.498 74.1638 178.57 69.1866 178.57 66.9478C178.57 63.7822 179.52 61.718 179.52 57.8328C179.52 54.7565 177.621 52.4682 177.621 47.9582C177.621 46.8112 179.451 45.6794 182.178 45.6794Z" fill="#EECB55"/>
<path fill-rule="evenodd" clip-rule="evenodd" d="M178.395 45.9947C177.62 46.4099 177.241 46.9297 177.241 47.3939C177.241 49.62 177.709 51.2977 178.181 52.8123C178.227 52.9574 178.272 53.1014 178.317 53.2443C178.742 54.5877 179.14 55.8461 179.14 57.2685C179.14 59.2278 178.9 60.728 178.662 62.1277C178.65 62.1982 178.638 62.2684 178.626 62.3384C178.401 63.6584 178.19 64.8978 178.19 66.3828C178.192 66.6506 178.215 66.9178 178.26 67.1818C178.277 67.2853 178.207 67.3832 178.104 67.4006C178 67.418 177.903 67.3483 177.885 67.2448C177.837 66.9606 177.812 66.673 177.81 66.3848L177.81 66.3835C177.81 64.8652 178.026 63.597 178.251 62.281C178.263 62.2088 178.275 62.1366 178.288 62.0641C178.525 60.669 178.76 59.1945 178.76 57.2685C178.76 55.9079 178.38 54.7058 177.954 53.3538C177.909 53.2128 177.864 53.0701 177.819 52.9255C177.342 51.3993 176.861 49.6779 176.861 47.3939C176.861 46.7188 177.395 46.0992 178.216 45.6599C179.047 45.2149 180.218 44.9253 181.608 44.9253C183.976 44.9253 185.701 46.3113 186.915 48.3074C186.969 48.397 186.941 48.5139 186.851 48.5683C186.762 48.6228 186.645 48.5943 186.59 48.5047C185.419 46.5776 183.798 45.3051 181.608 45.3051C180.267 45.3051 179.16 45.5851 178.395 45.9947Z" fill="#1B3C87"/>
<path fill-rule="evenodd" clip-rule="evenodd" d="M179.927 71.2482C180.006 71.1792 180.126 71.1873 180.195 71.2663C180.795 71.9541 181.54 72.5019 182.375 72.8713C183.21 73.2406 184.116 73.4225 185.029 73.4041L185.033 73.4041C186.393 73.4041 187.759 72.6278 188.876 71.3246C188.945 71.2449 189.064 71.2357 189.144 71.304C189.224 71.3722 189.233 71.4921 189.165 71.5717C188.003 72.9265 186.541 73.7832 185.035 73.7839C184.067 73.8031 183.106 73.6101 182.221 73.2186C181.335 72.8268 180.546 72.2457 179.909 71.5161C179.84 71.4371 179.848 71.3172 179.927 71.2482Z" fill="#1B3C87"/>
<path fill-rule="evenodd" clip-rule="evenodd" d="M189.032 55.1479C189.133 55.1217 189.237 55.1827 189.263 55.2843C189.561 56.4377 189.941 57.5363 190.312 58.6104C190.473 59.0784 190.633 59.5418 190.784 60.003C191.279 61.514 191.673 62.9929 191.673 64.4791V64.4792C191.672 66.1409 191.31 67.7827 190.613 69.291C190.569 69.3862 190.456 69.4276 190.361 69.3836C190.266 69.3396 190.224 69.2267 190.268 69.1316C190.943 67.6732 191.292 66.0857 191.293 64.479C191.293 63.056 190.916 61.6248 190.423 60.1212C190.276 59.6718 190.118 59.2152 189.958 58.7507C189.585 57.6702 189.197 56.5479 188.895 55.3793C188.869 55.2778 188.93 55.1742 189.032 55.1479Z" fill="#1B3C87"/>
<path fill-rule="evenodd" clip-rule="evenodd" d="M160.961 145.161C160.974 145.057 161.069 144.983 161.173 144.996L169.319 146.012C169.423 146.025 169.497 146.12 169.484 146.224C169.471 146.328 169.376 146.402 169.272 146.389L161.126 145.373C161.022 145.36 160.948 145.265 160.961 145.161Z" fill="#1B3C87"/>
<path fill-rule="evenodd" clip-rule="evenodd" d="M160.701 146.356C160.714 146.252 160.809 146.178 160.913 146.191L169.057 147.207C169.161 147.22 169.235 147.314 169.222 147.419C169.209 147.523 169.114 147.596 169.01 147.583L160.866 146.568C160.762 146.555 160.688 146.46 160.701 146.356Z" fill="#1B3C87"/>
<path fill-rule="evenodd" clip-rule="evenodd" d="M201.649 132.944C201.722 133.019 201.721 133.139 201.647 133.212L195.528 139.226C195.453 139.3 195.333 139.299 195.26 139.224C195.186 139.149 195.187 139.029 195.262 138.956L201.38 132.942C201.455 132.868 201.575 132.869 201.649 132.944Z" fill="#1B3C87"/>
<path fill-rule="evenodd" clip-rule="evenodd" d="M202.217 134.028C202.29 134.103 202.289 134.223 202.214 134.297L196.096 140.309C196.021 140.382 195.901 140.381 195.827 140.307C195.754 140.232 195.755 140.111 195.83 140.038L201.948 134.026C202.023 133.952 202.143 133.953 202.217 134.028Z" fill="#1B3C87"/>
<path fill-rule="evenodd" clip-rule="evenodd" d="M201.387 134.694C201.444 134.701 201.495 134.732 201.525 134.78L204.115 138.828L207.227 141.452C207.266 141.485 207.29 141.533 207.294 141.584C207.297 141.635 207.28 141.685 207.246 141.724L202.939 146.574C202.87 146.652 202.75 146.659 202.671 146.589C202.593 146.52 202.586 146.4 202.655 146.321L206.833 141.617L203.848 139.099C203.834 139.087 203.821 139.073 203.811 139.056L201.331 135.182L197.047 139.374L200.336 142.427C200.385 142.472 200.407 142.539 200.393 142.605L198.691 150.788L200.025 149.284C200.095 149.205 200.215 149.198 200.293 149.268C200.372 149.337 200.379 149.457 200.309 149.536L198.501 151.573C198.444 151.638 198.351 151.656 198.274 151.617C198.197 151.578 198.156 151.493 198.174 151.409L199.999 142.632L196.643 139.517C196.605 139.481 196.583 139.432 196.582 139.38C196.581 139.328 196.602 139.278 196.639 139.242L201.233 134.747C201.274 134.707 201.33 134.688 201.387 134.694Z" fill="#1B3C87"/>
<path d="M167.214 63.3528C165.872 62.9993 164.548 62.5765 163.249 62.0862C162.869 61.2412 157.997 43.3397 157.173 39.8855C156.648 39.9292 155.978 40.778 156.46 42.5744C155.539 43.3207 154.037 44.8228 156.369 47.1946C156.472 47.844 159.387 65.4246 159.67 65.8044C160.589 67.0482 164.174 68.7914 164.96 69.1047C165.209 68.423 164.829 67.3007 167.214 63.3528Z" fill="white"/>
<path d="M177.237 71.3912C178.035 69.1125 170.606 62.7225 168.447 62.5497C167.182 63.1991 164.148 68.2276 164.839 70.6981C167.224 72.2078 175.917 75.1569 177.237 71.3912Z" fill="#3757FF"/>
<path fill-rule="evenodd" clip-rule="evenodd" d="M156.785 39.1172C156.879 39.1094 156.964 39.1713 156.986 39.2628C157.27 40.4633 158.048 43.4207 158.957 46.8017C158.985 46.903 158.925 47.0072 158.823 47.0344C158.722 47.0617 158.618 47.0017 158.591 46.9004C157.723 43.676 156.974 40.8301 156.659 39.5272C156.497 39.579 156.332 39.696 156.222 39.9171C156.071 40.2198 156.006 40.747 156.24 41.6235C156.267 41.7248 156.207 41.8289 156.106 41.856C156.004 41.8831 155.9 41.823 155.873 41.7216C155.627 40.8018 155.672 40.1677 155.882 39.7474C156.096 39.3188 156.466 39.1438 156.785 39.1172Z" fill="#1B3C87"/>
<path fill-rule="evenodd" clip-rule="evenodd" d="M159.793 50.6292C159.894 50.6016 159.998 50.6613 160.026 50.7624C160.738 53.3751 161.447 55.9409 162.002 57.9083C162.279 58.892 162.518 59.7256 162.699 60.3404C162.852 60.8588 162.96 61.2104 163.017 61.3692C164.284 61.8444 165.574 62.2552 166.883 62.5998C166.985 62.6265 167.045 62.7303 167.018 62.8318C166.992 62.9332 166.888 62.9937 166.786 62.967C165.437 62.6119 164.108 62.1871 162.803 61.6945C162.755 61.6763 162.716 61.6394 162.695 61.5922C162.642 61.469 162.514 61.0566 162.335 60.4477C162.153 59.8309 161.914 58.9956 161.636 58.0114C161.081 56.0426 160.372 53.4756 159.66 50.8623C159.632 50.7611 159.692 50.6567 159.793 50.6292Z" fill="#1B3C87"/>
<path fill-rule="evenodd" clip-rule="evenodd" d="M155.209 42.823C155.279 42.9016 155.271 43.0216 155.193 43.091C154.78 43.4557 154.766 44.0865 155.013 44.7852C155.255 45.4727 155.722 46.1365 156.119 46.4701C156.155 46.4996 156.178 46.5408 156.185 46.5861C156.231 46.88 156.31 47.4011 156.414 48.0869C156.871 51.1066 157.811 57.3188 158.569 61.3812C158.588 61.4843 158.52 61.5835 158.417 61.6027C158.314 61.6219 158.215 61.554 158.196 61.4509C157.437 57.3805 156.494 51.1547 156.037 48.1382C155.942 47.5058 155.867 47.0144 155.82 46.7136C155.38 46.3209 154.906 45.6256 154.654 44.9115C154.396 44.1789 154.344 43.3342 154.941 42.8064C155.02 42.7369 155.14 42.7444 155.209 42.823Z" fill="#1B3C87"/>
<path fill-rule="evenodd" clip-rule="evenodd" d="M158.959 64.1732C159.062 64.1528 159.162 64.2197 159.182 64.3226C159.239 64.6073 159.332 64.8834 159.461 65.1436C159.622 65.3621 159.948 65.6636 160.374 66.0026C160.804 66.344 161.322 66.7121 161.843 67.0545C162.363 67.3969 162.884 67.712 163.319 67.9479C163.536 68.0659 163.73 68.1631 163.891 68.2338C164.056 68.3064 164.172 68.3449 164.238 68.3553C164.342 68.3715 164.413 68.4687 164.396 68.5723C164.38 68.6759 164.283 68.7467 164.179 68.7305C164.061 68.7119 163.907 68.6559 163.738 68.5814C163.564 68.5051 163.36 68.4027 163.137 68.2817C162.691 68.0396 162.161 67.7187 161.634 67.3718C161.107 67.0249 160.579 66.6502 160.138 66.3C159.702 65.9535 159.335 65.6193 159.144 65.3535C159.138 65.3452 159.133 65.3365 159.128 65.3274C158.981 65.0327 158.874 64.7196 158.81 64.3964C158.789 64.2935 158.856 64.1936 158.959 64.1732Z" fill="#1B3C87"/>
<path fill-rule="evenodd" clip-rule="evenodd" d="M171.572 63.8596C171.637 63.7774 171.757 63.7637 171.839 63.8289C173.181 64.8941 174.555 66.2053 175.533 67.4362C176.021 68.0511 176.416 68.6527 176.657 69.1986C176.895 69.7381 176.997 70.2575 176.847 70.6867C176.331 72.1596 174.795 72.6559 173.042 72.6559C172.937 72.6559 172.852 72.5708 172.852 72.466C172.852 72.3611 172.937 72.2761 173.042 72.2761C174.761 72.2761 176.058 71.7887 176.488 70.5612L176.488 70.5612C176.59 70.2698 176.534 69.8627 176.309 69.3518C176.087 68.8472 175.713 68.2742 175.235 67.6724C174.28 66.4698 172.928 65.1785 171.603 64.1264C171.52 64.0612 171.507 63.9417 171.572 63.8596Z" fill="#1B3C87"/>
<path fill-rule="evenodd" clip-rule="evenodd" d="M168.046 61.6957C168.094 61.789 168.058 61.9035 167.964 61.9514C167.832 62.0192 167.663 62.1525 167.466 62.3514C167.271 62.5481 167.057 62.8004 166.835 63.0962C166.391 63.6878 165.92 64.4448 165.51 65.2592C165.099 66.0741 164.751 66.9411 164.548 67.7528C164.353 68.534 164.297 69.2456 164.433 69.8064C165.429 70.3819 166.483 70.8525 167.576 71.2107C167.676 71.2434 167.73 71.3506 167.697 71.4503C167.665 71.55 167.557 71.6043 167.458 71.5716C166.314 71.1969 165.213 70.7019 164.174 70.0949C164.131 70.07 164.1 70.0295 164.087 69.9821C163.901 69.3182 163.969 68.503 164.18 67.6607C164.391 66.8145 164.751 65.9206 165.17 65.0883C165.59 64.2557 166.072 63.4793 166.531 62.8682C166.761 62.5627 166.986 62.2963 167.196 62.084C167.404 61.874 167.607 61.7081 167.791 61.6135C167.884 61.5656 167.999 61.6024 168.046 61.6957Z" fill="#1B3C87"/>
<path d="M50.6729 92.0384H59.7958V89.6851H53.5271V86.4617H59.3015V84.1085H53.5271V80.8917H59.7695V78.5384H50.6729V92.0384Z" fill="#3757FF"/>
<path d="M61.986 92.0384H64.794V86.3101C64.794 85.0643 65.7037 84.2074 66.943 84.2074C67.3319 84.2074 67.8658 84.2733 68.1295 84.359V81.8673C67.879 81.808 67.5296 81.7684 67.2462 81.7684C66.1124 81.7684 65.183 82.4276 64.8138 83.68H64.7084V81.9134H61.986V92.0384Z" fill="#3757FF"/>
<path d="M69.5813 92.0384H72.3894V86.3101C72.3894 85.0643 73.2991 84.2074 74.5383 84.2074C74.9272 84.2074 75.4612 84.2733 75.7248 84.359V81.8673C75.4743 81.808 75.125 81.7684 74.8415 81.7684C73.7078 81.7684 72.7783 82.4276 72.4092 83.68H72.3037V81.9134H69.5813V92.0384Z" fill="#3757FF"/>
<path d="M81.28 92.2361C84.3518 92.2361 86.2634 90.1333 86.2634 87.0154C86.2634 83.8778 84.3518 81.7816 81.28 81.7816C78.2083 81.7816 76.2967 83.8778 76.2967 87.0154C76.2967 90.1333 78.2083 92.2361 81.28 92.2361ZM81.2932 90.0608C79.876 90.0608 79.1509 88.7623 79.1509 86.9957C79.1509 85.2291 79.876 83.9239 81.2932 83.9239C82.6841 83.9239 83.4092 85.2291 83.4092 86.9957C83.4092 88.7623 82.6841 90.0608 81.2932 90.0608Z" fill="#3757FF"/>
<path d="M88.0893 92.0384H90.8974V86.3101C90.8974 85.0643 91.8071 84.2074 93.0463 84.2074C93.4352 84.2074 93.9692 84.2733 94.2328 84.359V81.8673C93.9823 81.808 93.633 81.7684 93.3495 81.7684C92.2158 81.7684 91.2863 82.4276 90.9172 83.68H90.8117V81.9134H88.0893V92.0384Z" fill="#3757FF"/>
<path d="M104.885 92.2229C107.891 92.2229 109.934 90.2652 109.928 87.5362C109.934 84.9522 108.128 83.0933 105.696 83.0933C104.509 83.0933 103.488 83.5877 103.013 84.2535H102.934L103.283 80.8719H109.183V78.5384H100.93L100.291 85.6575L102.828 86.1124C103.244 85.5521 104.048 85.2027 104.846 85.2027C106.203 85.2093 107.179 86.1915 107.179 87.6087C107.179 89.0127 106.223 89.9817 104.885 89.9817C103.751 89.9817 102.835 89.2698 102.769 88.2217H100.001C100.053 90.5552 102.09 92.2229 104.885 92.2229Z" fill="#3757FF"/>
<path d="M117.212 92.335C120.606 92.335 122.657 89.751 122.663 85.3016C122.67 80.8851 120.593 78.3539 117.212 78.3539C113.824 78.3539 111.767 80.8785 111.76 85.3016C111.747 89.7378 113.81 92.3284 117.212 92.335ZM117.212 89.9686C115.663 89.9686 114.661 88.4129 114.667 85.3016C114.674 82.2364 115.669 80.6939 117.212 80.6939C118.748 80.6939 119.75 82.2364 119.75 85.3016C119.756 88.4129 118.754 89.9686 117.212 89.9686Z" fill="#3757FF"/>
<path d="M129.991 92.335C133.386 92.335 135.436 89.751 135.443 85.3016C135.449 80.8851 133.373 78.3539 129.991 78.3539C126.603 78.3539 124.547 80.8785 124.54 85.3016C124.527 89.7378 126.59 92.3284 129.991 92.335ZM129.991 89.9686C128.442 89.9686 127.44 88.4129 127.447 85.3016C127.454 82.2364 128.449 80.6939 129.991 80.6939C131.527 80.6939 132.529 82.2364 132.529 85.3016C132.536 88.4129 131.534 89.9686 129.991 89.9686Z" fill="#3757FF"/>
<path d="M143.442 83.8514C144.286 83.8514 145.017 83.1461 145.024 82.2694C145.017 81.4059 144.286 80.7005 143.442 80.7005C142.572 80.7005 141.853 81.4059 141.86 82.2694C141.853 83.1461 142.572 83.8514 143.442 83.8514ZM143.442 90.4695C144.286 90.4695 145.017 89.7642 145.024 88.8875C145.017 88.024 144.286 87.3187 143.442 87.3187C142.572 87.3187 141.853 88.024 141.86 88.8875C141.853 89.7642 142.572 90.4695 143.442 90.4695Z" fill="#3757FF"/>
<path d="M147.949 85.2884C147.949 88.5645 148.813 91.2869 150.612 93.6336H153.295C151.917 91.8933 150.869 88.4129 150.869 85.2884C150.869 82.1705 151.917 78.6901 153.295 76.9498H150.612C148.813 79.2965 147.949 82.0123 147.949 85.2884Z" fill="#3757FF"/>
</svg>
