<svg width="233" height="167" viewBox="0 0 233 167" fill="none" xmlns="http://www.w3.org/2000/svg">
<rect x="1" y="1" width="231" height="165" rx="6"/>
<rect x="1" y="1" width="231" height="165" rx="6" fill="white"/>
<rect x="1" y="1" width="231" height="165" rx="6" stroke="#242424" stroke-opacity="0.5"/>
<path d="M116.999 57C110.467 57 105.07 62.3965 105.07 68.929C105.07 75.4615 110.467 80.858 116.999 80.858C123.532 80.858 128.928 75.4615 128.928 68.929C128.928 62.3965 123.532 57 116.999 57ZM116.999 78.7278C111.603 78.7278 107.2 74.3254 107.2 68.929C107.2 63.5325 111.603 59.1302 116.999 59.1302C122.396 59.1302 126.798 63.5325 126.798 68.929C126.798 74.3254 122.396 78.7278 116.999 78.7278Z" fill="#242424" fill-opacity="0.5"/>
<path d="M117 83.9824C103.793 83.9824 93 94.7753 93 107.982V110.113H141V107.982C141 94.7753 130.207 83.9824 117 83.9824ZM95.1302 107.982C95.1302 95.9114 104.929 86.1126 117 86.1126C129.071 86.1126 138.87 95.9114 138.87 107.982H95.1302Z" fill="#242424" fill-opacity="0.5"/>
<path fill-rule="evenodd" clip-rule="evenodd" d="M81 29C81 28.4477 80.5523 28 80 28H66.5C58.4919 28 52 34.4919 52 42.5V56C52 56.5523 52.4477 57 53 57C53.5523 57 54 56.5523 54 56V43.5C54 36.0442 60.0442 30 67.5 30H80C80.5523 30 81 29.5523 81 29Z" fill="#242424" fill-opacity="0.5"/>
<path fill-rule="evenodd" clip-rule="evenodd" d="M53 110C52.4477 110 52 110.448 52 111L52 124.5C52 132.508 58.4919 139 66.5 139L80 139C80.5523 139 81 138.552 81 138C81 137.448 80.5523 137 80 137L67.5 137C60.0442 137 54 130.956 54 123.5L54 111C54 110.448 53.5523 110 53 110Z" fill="#242424" fill-opacity="0.5"/>
<path fill-rule="evenodd" clip-rule="evenodd" d="M153 138C153 138.552 153.448 139 154 139L167.5 139C175.508 139 182 132.508 182 124.5L182 111C182 110.448 181.552 110 181 110C180.448 110 180 110.448 180 111L180 123.5C180 130.956 173.956 137 166.5 137L154 137C153.448 137 153 137.448 153 138Z" fill="#242424" fill-opacity="0.5"/>
<path fill-rule="evenodd" clip-rule="evenodd" d="M181 57C181.552 57 182 56.5523 182 56L182 42.5C182 34.4919 175.508 28 167.5 28L154 28C153.448 28 153 28.4477 153 29C153 29.5523 153.448 30 154 30L166.5 30C173.956 30 180 36.0442 180 43.5L180 56C180 56.5523 180.448 57 181 57Z" fill="#242424" fill-opacity="0.5"/>
</svg>
