<svg width="12" height="12" viewBox="0 0 12 12" fill="none" xmlns="http://www.w3.org/2000/svg">
<path d="M9.19347 3.69777C9.4284 3.93271 9.4284 4.30191 9.19347 4.53733L5.43407 8.30612C5.32154 8.41516 5.171 8.47613 5.01431 8.47613C4.85762 8.47613 4.70708 8.41516 4.59454 8.30612L4.56536 8.27207L2.80702 6.50539C2.57209 6.27921 2.57209 5.90515 2.79875 5.67458C3.02541 5.44402 3.40286 5.44354 3.62952 5.67458L5.01431 7.05505L8.35491 3.69826C8.58984 3.46769 8.96291 3.46769 9.19395 3.69826L9.19347 3.69777ZM11.9995 6C11.9995 9.31398 9.31312 12 5.99976 12C2.68639 12 0 9.31398 0 6C0 2.68602 2.68639 0 5.99976 0C9.31361 0 12 2.6865 12 6H11.9995ZM10.8886 6C10.8886 3.29988 8.69977 1.11099 5.99927 1.11099C3.29877 1.11099 1.11094 3.29988 1.11094 6C1.11094 8.70012 3.29926 10.889 5.99927 10.889C8.69928 10.889 10.8886 8.70012 10.8886 6Z" fill="#00AB62"/>
</svg>
