<svg width="12" height="12" viewBox="0 0 12 12" fill="none" xmlns="http://www.w3.org/2000/svg">
<path d="M11.9995 6C11.9995 9.31399 9.31312 12 5.99976 12C2.68639 12 0 9.31399 0 6C0 2.68602 2.68639 0 5.99976 0C9.31361 0 11.9995 2.6865 11.9995 6ZM10.8886 6C10.8886 3.29988 8.69977 1.11099 5.99927 1.11099C3.29877 1.11099 1.11094 3.29988 1.11094 6C1.11094 8.70012 3.29926 10.889 5.99927 10.889C8.69928 10.889 10.8886 8.70012 10.8886 6Z" fill="#242424"/>
<path d="M6.53311 9.09075C6.53311 9.21129 6.49736 9.32912 6.43039 9.42934C6.36341 9.52956 6.26821 9.60768 6.15683 9.6538C6.04545 9.69993 5.92289 9.712 5.80465 9.68848C5.6864 9.66497 5.57779 9.60693 5.49255 9.52169C5.4073 9.43646 5.34924 9.32787 5.32572 9.20965C5.3022 9.09142 5.31428 8.96888 5.36041 8.85752C5.40655 8.74616 5.48467 8.65098 5.58491 8.58401C5.68515 8.51705 5.80301 8.4813 5.92356 8.4813C6.00361 8.4813 6.08287 8.49707 6.15683 8.52769C6.23078 8.55832 6.29798 8.60321 6.35458 8.6598C6.41118 8.7164 6.45608 8.78358 6.48671 8.85752C6.51735 8.93146 6.53311 9.01072 6.53311 9.09075ZM4.33429 4.68521C4.40598 4.71986 4.4838 4.74003 4.5633 4.74458C4.64279 4.74912 4.72241 4.73796 4.79758 4.71172C4.87276 4.68548 4.94203 4.64468 5.00142 4.59166C5.06082 4.53863 5.10918 4.47442 5.14373 4.4027C5.21311 4.25645 5.32219 4.13264 5.45855 4.04538C5.5949 3.95813 5.75304 3.91095 5.91493 3.90922C6.13993 3.91207 6.35539 4.00054 6.51746 4.15663C6.67953 4.31271 6.77602 4.52467 6.7873 4.74937C6.79313 4.93444 6.73931 5.11648 6.63377 5.26865C6.52824 5.42081 6.37659 5.53502 6.20119 5.59445C5.94637 5.67777 5.72409 5.83886 5.56561 6.05507C5.40713 6.27129 5.32043 6.53173 5.31771 6.79977V7.28338C5.31771 7.4442 5.38161 7.59843 5.49534 7.71214C5.60908 7.82586 5.76334 7.88974 5.92418 7.88974C6.08502 7.88974 6.23928 7.82586 6.35302 7.71214C6.46675 7.59843 6.53065 7.4442 6.53065 7.28338V6.79977C6.53065 6.764 6.59111 6.74302 6.59111 6.74302C7.01201 6.60171 7.37621 6.32864 7.62978 5.96423C7.88335 5.59983 8.01282 5.16347 7.999 4.71976C7.97904 4.18092 7.75228 3.67048 7.3658 3.2944C6.97933 2.91833 6.46283 2.70554 5.92356 2.7002H5.91122C5.52337 2.7024 5.144 2.81388 4.81663 3.02184C4.48925 3.22979 4.22714 3.5258 4.06036 3.87591C4.02571 3.94759 4.00554 4.0254 4.00099 4.10488C3.99644 4.18436 4.00761 4.26396 4.03385 4.33913C4.06009 4.41429 4.1009 4.48355 4.15393 4.54293C4.20697 4.60232 4.27119 4.65067 4.34293 4.68521H4.33429Z" fill="#242424"/>
</svg>
