<svg width="15" height="15" viewBox="0 0 15 15" fill="none" xmlns="http://www.w3.org/2000/svg">
<path d="M7.5 0C3.3585 0 0 3.3585 0 7.5C0 11.6415 3.3585 15 7.5 15C11.6415 15 15 11.6415 15 7.5C15 3.3585 11.6415 0 7.5 0ZM5.32059 11.3379H3.494V5.84255H5.32059V11.3379ZM4.40735 5.09216H4.39545C3.7825 5.09216 3.38608 4.67022 3.38608 4.14288C3.38608 3.60363 3.79463 3.19336 4.41948 3.19336C5.04433 3.19336 5.42885 3.60363 5.44075 4.14288C5.44075 4.67022 5.04433 5.09216 4.40735 5.09216ZM11.9069 11.3379H10.0805V8.39802C10.0805 7.65919 9.81606 7.1553 9.15516 7.1553C8.65059 7.1553 8.35007 7.49519 8.218 7.8233C8.16971 7.94071 8.15792 8.10482 8.15792 8.26904V11.3379H6.33144C6.33144 11.3379 6.35536 6.35811 6.33144 5.84255H8.15792V6.62064C8.40065 6.24619 8.83495 5.71358 9.80404 5.71358C11.0058 5.71358 11.9069 6.49899 11.9069 8.18687V11.3379Z" fill="#232939"/>
</svg>
