<svg width="15" height="15" viewBox="0 0 15 15" fill="none" xmlns="http://www.w3.org/2000/svg">
<path d="M7.5 0C3.3585 0 0 3.3585 0 7.5C0 11.6415 3.3585 15 7.5 15C11.6415 15 15 11.6415 15 7.5C15 3.3585 11.6415 0 7.5 0ZM10.9244 5.8477C10.9277 5.92152 10.9293 5.99567 10.9293 6.07018C10.9293 8.34492 9.19785 10.968 6.03138 10.9681H6.03149H6.03138C5.0592 10.9681 4.15455 10.6832 3.39272 10.1949C3.52741 10.2108 3.66451 10.2187 3.80333 10.2187C4.60991 10.2187 5.35217 9.94354 5.94143 9.48177C5.18784 9.46781 4.55246 8.97011 4.33319 8.28609C4.43813 8.30624 4.54605 8.31722 4.65672 8.31722C4.81384 8.31722 4.96605 8.29605 5.1107 8.25657C4.32301 8.09887 3.72963 7.40273 3.72963 6.56914C3.72963 6.56136 3.72963 6.55437 3.72986 6.54716C3.96183 6.67614 4.2271 6.75373 4.50954 6.76243C4.04732 6.45401 3.74348 5.92678 3.74348 5.32951C3.74348 5.01411 3.82874 4.71863 3.97659 4.46423C4.82552 5.50587 6.09421 6.19091 7.52495 6.26289C7.49542 6.13678 7.4802 6.0054 7.4802 5.87036C7.4802 4.92004 8.25119 4.14906 9.20185 4.14906C9.69704 4.14906 10.1443 4.35837 10.4584 4.69299C10.8506 4.61563 11.2189 4.47235 11.5516 4.27517C11.4228 4.67697 11.15 5.01411 10.7945 5.22732C11.1428 5.18566 11.4746 5.09331 11.7831 4.95621C11.5527 5.30148 11.2605 5.60474 10.9244 5.8477Z" fill="#232939"/>
</svg>
