<svg width="19" height="16" viewBox="0 0 19 16" fill="none" xmlns="http://www.w3.org/2000/svg">
<path d="M6.53089 7.45631C7.26825 7.45631 7.98905 7.23766 8.60214 6.828C9.21523 6.41835 9.69308 5.83609 9.97526 5.15486C10.2574 4.47363 10.3313 3.72402 10.1874 3.00083C10.0436 2.27764 9.68849 1.61335 9.16709 1.09195C8.6457 0.570561 7.98141 0.215489 7.25822 0.0716371C6.53503 -0.0722146 5.78542 0.00161536 5.10419 0.283791C4.42296 0.565966 3.8407 1.04381 3.43104 1.6569C3.02139 2.27 2.80273 2.9908 2.80273 3.72816C2.80273 4.71693 3.19552 5.6652 3.89469 6.36436C4.59385 7.06353 5.54212 7.45631 6.53089 7.45631ZM6.53089 1.24272C7.02246 1.24272 7.503 1.38849 7.91173 1.66159C8.32045 1.9347 8.63902 2.32287 8.82713 2.77702C9.01525 3.23118 9.06447 3.73091 8.96857 4.21304C8.87267 4.69517 8.63595 5.13803 8.28836 5.48563C7.94076 5.83322 7.4979 6.06994 7.01577 6.16584C6.53365 6.26174 6.03391 6.21252 5.57975 6.0244C5.1256 5.83628 4.73743 5.51772 4.46432 5.10899C4.19122 4.70026 4.04545 4.21973 4.04545 3.72816C4.04545 3.06898 4.30731 2.4368 4.77342 1.97069C5.23953 1.50458 5.87171 1.24272 6.53089 1.24272Z" fill="white"/>
<path d="M7.65359 8.07812H5.40738C3.97363 8.07936 2.59896 8.64946 1.58515 9.66327C0.571335 10.6771 0.00123404 12.0518 0 13.4855V15.3791C0 15.5439 0.0654646 15.7019 0.181992 15.8185C0.298519 15.935 0.456565 16.0005 0.621359 16.0005H12.4396C12.6044 16.0005 12.7625 15.935 12.879 15.8185C12.9955 15.7019 13.061 15.5439 13.061 15.3791V13.4855C13.0593 12.0519 12.4891 10.6774 11.4754 9.66373C10.4616 8.65 9.08721 8.07977 7.65359 8.07812ZM11.8183 14.7577H1.24272V13.4855C1.24395 12.3813 1.68312 11.3228 2.46388 10.542C3.24464 9.76125 4.30322 9.32208 5.40738 9.32084H7.65359C8.75775 9.32208 9.81633 9.76125 10.5971 10.542C11.3778 11.3228 11.817 12.3813 11.8183 13.4855V14.7577Z" fill="white"/>
<path d="M17.8713 6.37007H16.3179V4.81667C16.3179 4.65188 16.2524 4.49383 16.1359 4.3773C16.0193 4.26078 15.8613 4.19531 15.6965 4.19531C15.5317 4.19531 15.3737 4.26078 15.2571 4.3773C15.1406 4.49383 15.0751 4.65188 15.0751 4.81667V6.37007H13.5217C13.357 6.37007 13.1989 6.43553 13.0824 6.55206C12.9659 6.66859 12.9004 6.82663 12.9004 6.99143C12.9004 7.15622 12.9659 7.31427 13.0824 7.4308C13.1989 7.54732 13.357 7.61279 13.5217 7.61279H15.0751V9.16619C15.0751 9.33098 15.1406 9.48903 15.2571 9.60555C15.3737 9.72208 15.5317 9.78755 15.6965 9.78755C15.8613 9.78755 16.0193 9.72208 16.1359 9.60555C16.2524 9.48903 16.3179 9.33098 16.3179 9.16619V7.61279H17.8713C18.0361 7.61279 18.1941 7.54732 18.3106 7.4308C18.4272 7.31427 18.4926 7.15622 18.4926 6.99143C18.4926 6.82663 18.4272 6.66859 18.3106 6.55206C18.1941 6.43553 18.0361 6.37007 17.8713 6.37007Z" fill="white"/>
</svg>
