<?xml version="1.0" encoding="utf-8"?>
<!-- Generator: Adobe Illustrator 19.2.0, SVG Export Plug-In . SVG Version: 6.00 Build 0)  -->
<svg version="1.1" id="Layer_1" xmlns="http://www.w3.org/2000/svg" xmlns:xlink="http://www.w3.org/1999/xlink" x="0px" y="0px"
	 viewBox="0 0 525 640" style="enable-background:new 0 0 525 640;" xml:space="preserve">
<style type="text/css">
	.st0{fill:url(#SVGID_1_);}
	.st1{fill:#FBDED2;}
	.st2{clip-path:url(#SVGID_3_);}
	.st3{opacity:0.35;}
	.st4{fill:#78CEF4;}
	.st5{fill:#61B8E9;}
	.st6{fill:#CEEFFF;}
	.st7{opacity:0.5;fill:#5C6D9B;}
	.st8{opacity:0.1;}
	.st9{fill:url(#SVGID_4_);}
	.st10{fill:url(#SVGID_5_);}
	.st11{fill:url(#SVGID_6_);}
	.st12{fill:url(#SVGID_7_);}
	.st13{fill:url(#SVGID_8_);}
	.st14{fill:url(#SVGID_9_);}
	.st15{fill:url(#SVGID_10_);}
	.st16{fill:url(#SVGID_11_);}
	.st17{fill:#E2E2E2;}
	.st18{fill:#ECECEC;}
	.st19{fill:#CECECE;}
	.st20{fill:#D31152;}
	.st21{fill:#E81656;}
	.st22{opacity:0.5;}
	.st23{fill:#DBC6CC;}
	.st24{opacity:0.75;fill:url(#SVGID_12_);}
	.st25{fill:#FFFFFF;}
	.st26{fill:#212F57;}
	.st27{opacity:0.35;fill:#562222;}
	.st28{fill:#152342;}
	.st29{clip-path:url(#SVGID_14_);fill:#3A4468;}
	.st30{clip-path:url(#SVGID_14_);fill:#FBDED2;}
	.st31{clip-path:url(#SVGID_14_);}
	.st32{fill:#59DCDE;}
	.st33{fill:#40A1CC;}
	.st34{fill:#1A2849;}
	.st35{opacity:0.75;fill:#59DCDE;}
	.st36{opacity:0.3;fill:#FFFFFF;}
	.st37{opacity:0.5;fill:#CEEFFF;}
	.st38{opacity:0.3;fill:url(#SVGID_15_);}
	.st39{opacity:0.3;fill:url(#SVGID_16_);}
	.st40{opacity:0.75;}
	.st41{fill:url(#SVGID_17_);}
	.st42{opacity:0.5;fill:#FFFFFF;}
	.st43{enable-background:new    ;}
	.st44{clip-path:url(#SVGID_19_);}
	.st45{clip-path:url(#SVGID_21_);fill:#5FB9E9;}
</style>
<linearGradient id="SVGID_1_" gradientUnits="userSpaceOnUse" x1="262.5" y1="640" x2="262.5" y2="-1.178523e-08">
	<stop  offset="0" style="stop-color:#53A1D7"/>
	<stop  offset="1" style="stop-color:#007DBF"/>
</linearGradient>
<rect class="st0" width="525" height="640"/>
<path class="st1" d="M376.8,480.1l-1.9,8.3l0.3,18.9c0,0,8,0.2,11-8.8v-8.2l2.1,6l0.2-0.3c0.9-1.4,1.2-3,0.7-4.6l-3.1-11.4"/>
<g>
	<defs>
		<rect id="SVGID_2_" width="525" height="640"/>
	</defs>
	<clipPath id="SVGID_3_">
		<use xlink:href="#SVGID_2_"  style="overflow:visible;"/>
	</clipPath>
	<g class="st2">
		<g class="st3">
			<g class="st3">
				<g>
					<rect x="101.9" y="138.5" class="st4" width="49.8" height="462.8"/>
					<rect x="74.3" y="184.9" class="st4" width="77.4" height="462.8"/>
					<rect x="10.6" y="184.9" class="st4" width="9.3" height="462.8"/>
					<rect x="-13.4" y="245.8" class="st4" width="13.9" height="401.8"/>
					<rect x="95.8" y="205.4" class="st4" width="77.4" height="442.2"/>
					<rect x="173.3" y="330.1" class="st4" width="29.9" height="317.5"/>
				</g>
				<polygon class="st4" points="261.8,647.6 203.2,647.6 203.2,193 232.5,148.5 261.8,193 				"/>
				<g>
					<rect x="329.3" y="277.2" class="st4" width="43.4" height="373.1"/>
					<rect x="305.3" y="320.1" class="st4" width="67.5" height="330.2"/>
				</g>
				<g>
					
						<rect x="461.5" y="245.8" transform="matrix(-1 -9.930780e-11 9.930780e-11 -1 955.2508 845.9611)" class="st4" width="32.2" height="354.3"/>
					
						<rect x="461.5" y="288.7" transform="matrix(-1 -9.846536e-11 9.846536e-11 -1 973.0947 936.3646)" class="st4" width="50.1" height="358.9"/>
				</g>
			</g>
			<g>
				<rect x="101.1" y="245.8" class="st5" width="39.8" height="402.7"/>
				<rect x="41.8" y="245.8" class="st6" width="59.4" height="402.7"/>
			</g>
			<g>
				<rect x="237.5" y="281.4" class="st6" width="42.5" height="367.1"/>
			</g>
			<g>
				<rect x="372.8" y="148.5" class="st6" width="53.1" height="499.2"/>
			</g>
			<path class="st7" d="M124.1,249.8"/>
			<rect x="280" y="281.4" class="st5" width="28.5" height="367.1"/>
			<rect x="425.9" y="148.5" class="st5" width="35.6" height="499.2"/>
			<g class="st8">
				<linearGradient id="SVGID_4_" gradientUnits="userSpaceOnUse" x1="61.4244" y1="648.5437" x2="61.4244" y2="267.8955">
					<stop  offset="0" style="stop-color:#343F66;stop-opacity:0"/>
					<stop  offset="1" style="stop-color:#364169"/>
				</linearGradient>
				<rect x="58.3" y="267.9" class="st9" width="6.2" height="380.6"/>
				<linearGradient id="SVGID_5_" gradientUnits="userSpaceOnUse" x1="81.4655" y1="648.5437" x2="81.4655" y2="267.8955">
					<stop  offset="0" style="stop-color:#343F66;stop-opacity:0"/>
					<stop  offset="1" style="stop-color:#364169"/>
				</linearGradient>
				<rect x="78.3" y="267.9" class="st10" width="6.2" height="380.6"/>
			</g>
			<g class="st8">
				<linearGradient id="SVGID_6_" gradientUnits="userSpaceOnUse" x1="251.5767" y1="686.4272" x2="251.5767" y2="298.6713">
					<stop  offset="0" style="stop-color:#343F66;stop-opacity:0"/>
					<stop  offset="1" style="stop-color:#364169"/>
				</linearGradient>
				<rect x="248.5" y="298.7" class="st11" width="6.2" height="387.8"/>
				<linearGradient id="SVGID_7_" gradientUnits="userSpaceOnUse" x1="265.9922" y1="686.4272" x2="265.9922" y2="298.6713">
					<stop  offset="0" style="stop-color:#343F66;stop-opacity:0"/>
					<stop  offset="1" style="stop-color:#364169"/>
				</linearGradient>
				<rect x="262.9" y="298.7" class="st12" width="6.2" height="387.8"/>
			</g>
		</g>
		<g class="st3">
			<g class="st3">
				<g>
					<rect x="645.9" y="138.5" class="st4" width="49.8" height="462.8"/>
					<rect x="618.3" y="184.9" class="st4" width="77.4" height="462.8"/>
					<rect x="554.5" y="184.9" class="st4" width="9.3" height="462.8"/>
					<rect x="530.6" y="245.8" class="st4" width="13.9" height="401.8"/>
					<rect x="639.8" y="205.4" class="st4" width="77.4" height="442.2"/>
					<rect x="717.2" y="330.1" class="st4" width="29.9" height="317.5"/>
				</g>
				<polygon class="st4" points="805.8,647.6 747.1,647.6 747.1,193 776.4,148.5 805.8,193 				"/>
				<g>
					<rect x="873.3" y="277.2" class="st4" width="43.4" height="373.1"/>
					<rect x="849.2" y="320.1" class="st4" width="67.5" height="330.2"/>
				</g>
				<g>
					
						<rect x="1005.5" y="245.8" transform="matrix(-1 -9.930780e-11 9.930780e-11 -1 2043.1401 845.9611)" class="st4" width="32.2" height="354.3"/>
					
						<rect x="1005.5" y="288.7" transform="matrix(-1 -9.846536e-11 9.846536e-11 -1 2060.9841 936.3646)" class="st4" width="50.1" height="358.9"/>
				</g>
			</g>
			<g>
				<rect x="645.1" y="245.8" class="st5" width="39.8" height="402.7"/>
				<rect x="585.7" y="245.8" class="st6" width="59.4" height="402.7"/>
			</g>
			<g>
				<rect x="781.5" y="281.4" class="st6" width="42.5" height="367.1"/>
			</g>
			<g>
				<rect x="916.7" y="148.5" class="st6" width="53.1" height="499.2"/>
			</g>
			<path class="st7" d="M668,249.8"/>
			<rect x="824" y="281.4" class="st5" width="28.5" height="367.1"/>
			<rect x="969.9" y="148.5" class="st5" width="35.6" height="499.2"/>
			<g class="st8">
				<linearGradient id="SVGID_8_" gradientUnits="userSpaceOnUse" x1="605.369" y1="648.5437" x2="605.369" y2="267.8955">
					<stop  offset="0" style="stop-color:#343F66;stop-opacity:0"/>
					<stop  offset="1" style="stop-color:#364169"/>
				</linearGradient>
				<rect x="602.3" y="267.9" class="st13" width="6.2" height="380.6"/>
				<linearGradient id="SVGID_9_" gradientUnits="userSpaceOnUse" x1="625.4102" y1="648.5437" x2="625.4102" y2="267.8955">
					<stop  offset="0" style="stop-color:#343F66;stop-opacity:0"/>
					<stop  offset="1" style="stop-color:#364169"/>
				</linearGradient>
				<rect x="622.3" y="267.9" class="st14" width="6.2" height="380.6"/>
			</g>
			<g class="st8">
				<linearGradient id="SVGID_10_" gradientUnits="userSpaceOnUse" x1="795.5213" y1="686.4272" x2="795.5213" y2="298.6713">
					<stop  offset="0" style="stop-color:#343F66;stop-opacity:0"/>
					<stop  offset="1" style="stop-color:#364169"/>
				</linearGradient>
				<rect x="792.4" y="298.7" class="st15" width="6.2" height="387.8"/>
				<linearGradient id="SVGID_11_" gradientUnits="userSpaceOnUse" x1="809.9369" y1="686.4272" x2="809.9369" y2="298.6713">
					<stop  offset="0" style="stop-color:#343F66;stop-opacity:0"/>
					<stop  offset="1" style="stop-color:#364169"/>
				</linearGradient>
				<rect x="806.8" y="298.7" class="st16" width="6.2" height="387.8"/>
			</g>
		</g>
		<g>
			<path id="XMLID_4_" class="st17" d="M373.9-4.2c-20,55-48.7,83-118.4,84.4c-64.1,1.3-95.9,28.5-102.4,89.1S88.5,321-2.5,350V-4.2
				H373.9z"/>
			<path id="XMLID_3_" class="st18" d="M300.1-4.2c-16.2,55-39.3,83-95.5,84.4c-51.7,1.3-77.3,28.5-82.6,89.1
				C116.8,229.9,69.5,321-3.5,350V-4.2H300.1z"/>
			<g>
				<g>
					<path class="st19" d="M150.4-28l-30.8,65.9l0-0.1L99,92.9l-2.6,6.9c-0.4,1.1-0.9,2.3-1.3,3.4l-1.1,3.5l-4.6,14l-9.1,28l-4.6,14
						c-1.5,4.7-3,9.3-4.6,14l-9.8,27.7l-19.6,55.5l0,0l-11.5,48.8l11.2-48.8l0,0l0,0l19.3-55.6l9.7-27.8c1.5-4.6,3-9.3,4.5-14
						l4.5-14l9-28l4.5-14l1.1-3.5c0.4-1.2,0.8-2.3,1.3-3.5l2.5-6.9l20.3-55.3l0,0l0,0l30.5-66L150.4-28z"/>
				</g>
				<g>
					<path class="st19" d="M250.1-22.7c0,0-0.1,1.3-0.2,3.7c-0.1,2.4-0.1,6-0.4,10.7c-0.2,2.3-0.4,4.9-1,7.7
						c-0.3,1.4-0.7,2.8-1.2,4.3c-0.3,0.7-0.6,1.4-0.9,2.2c-0.3,0.7-0.7,1.4-1.1,2.1c-3.3,5.7-8.1,11.1-13.6,16.8
						c-5.5,5.6-11.9,11.4-19.2,16.7c-7.2,5.4-15.2,10.6-23.5,15.9c-8.3,5.3-16.9,10.6-25.4,16.5c-8.6,5.8-17.4,11.5-25.9,17.6
						c-8.5,6.1-16.7,12.7-23.9,20c-3.6,3.6-6.7,7.7-9.8,11.8c-3,4-6,8.1-8.8,12.1c-11.3,16.1-21.5,31.3-30.3,44.4
						c-8.7,13.1-15.9,24-21,31.7c-5.1,7.6-8,12-8,12s2.9-4.4,7.9-12c5-7.7,12.2-18.6,20.9-31.8c8.7-13.1,18.8-28.4,30.1-44.5
						c2.8-4,5.7-8.1,8.8-12.1c3-4,6.1-8.2,9.8-11.9c7.2-7.5,15.4-14.1,23.8-20.3c8.5-6.2,17.2-12,25.7-17.8
						c8.5-5.9,17.1-11.4,25.3-16.7c8.3-5.3,16.2-10.5,23.3-16c7.2-5.4,13.5-11.1,18.9-16.7c5.4-5.6,10.1-11.1,13.2-16.5
						c0.4-0.6,0.7-1.4,1.1-2.1c0.3-0.6,0.6-1.3,0.8-2c0.5-1.4,0.8-2.7,1.1-4c0.5-2.6,0.8-5.1,0.9-7.4c0.2-4.5,0.2-8.1,0.3-10.6
						c0.1-2.5,0.1-3.8,0.1-3.8L250.1-22.7z"/>
				</g>
				<g>
					<path class="st19" d="M205.5,44.5c0,0,0.9-0.3,2.5-0.8c0.8-0.2,1.7-0.5,2.9-0.8c1.1-0.3,2.4-0.7,3.7-1c2.7-0.7,6-1.5,9.4-2.1
						c1.7-0.3,3.5-0.6,5.4-0.9c1.8-0.3,3.7-0.5,5.6-0.7c1.9-0.2,3.8-0.3,5.6-0.4c1.8-0.1,3.7-0.1,5.4-0.2c3.5,0,6.8,0,9.6,0.2
						c1.4,0,2.7,0.1,3.8,0.2c1.1,0.1,2.1,0.1,3,0.2c1.6,0.1,2.6,0.2,2.6,0.2s-0.9,0-2.6-0.1c-0.8,0-1.8-0.1-3-0.1
						c-1.1,0-2.4-0.1-3.8-0.1c-2.8,0-6.1,0-9.6,0.2c-1.8,0.1-3.6,0.2-5.4,0.4c-1.8,0.1-3.7,0.4-5.5,0.6c-1.9,0.3-3.7,0.5-5.5,0.9
						c-1.8,0.3-3.6,0.7-5.3,1c-3.4,0.8-6.6,1.6-9.3,2.4c-1.3,0.4-2.6,0.8-3.6,1.1c-1.1,0.3-2,0.7-2.8,0.9c-1.6,0.5-2.4,0.8-2.4,0.8
						L205.5,44.5z"/>
				</g>
			</g>
			<g>
				<path class="st19" d="M58.3,222.9c0,0,0.8-1.1,2.1-3c1.4-1.9,3.4-4.5,5.9-7.6c5-6.2,12-14.2,19.9-21.4c1.9-1.8,3.9-3.5,6-5.2
					c2-1.7,4.1-3.2,6.1-4.7c1-0.7,2-1.4,3-2.1c1-0.6,2-1.3,3-1.9c1-0.6,1.9-1.1,2.9-1.7c0.9-0.5,1.9-1,2.7-1.4
					c1.8-0.9,3.4-1.6,4.9-2.2c1.5-0.6,2.8-1,3.9-1.4c1.1-0.4,2-0.5,2.6-0.7c0.6-0.2,0.9-0.2,0.9-0.2s-0.3,0.1-0.9,0.3
					c-0.6,0.2-1.5,0.4-2.6,0.8c-1.1,0.4-2.4,0.8-3.9,1.5c-1.5,0.6-3.1,1.4-4.9,2.3c-0.9,0.5-1.8,1-2.7,1.5c-0.9,0.6-1.8,1.1-2.8,1.7
					c-0.9,0.6-1.9,1.3-2.9,1.9c-1,0.7-2,1.4-2.9,2.1c-2,1.5-4,3.1-5.9,4.8c-2,1.7-3.9,3.5-5.8,5.3c-7.6,7.3-14.4,15.4-19.2,21.7
					c-2.4,3.1-4.3,5.8-5.7,7.7c-1.3,1.9-2,3-2,3L58.3,222.9z"/>
			</g>
			<g>
				<path class="st19" d="M92.6,185c0,0,0-0.1,0-0.4c0-0.3,0.1-0.6,0.1-1.1c0.1-0.9,0.3-2.2,0.6-3.7c0.3-1.5,0.7-3.2,1.2-5.1
					c0.3-0.9,0.6-1.9,0.9-2.8c0.4-0.9,0.7-1.9,1.1-2.8c0.4-0.9,0.8-1.9,1.3-2.8c0.2-0.4,0.5-0.9,0.7-1.3c0.2-0.4,0.5-0.8,0.7-1.2
					c0.2-0.4,0.5-0.8,0.7-1.2c0.2-0.4,0.5-0.7,0.8-1.1c0.5-0.7,1-1.4,1.5-2c0.5-0.6,0.9-1.1,1.3-1.6c0.4-0.4,0.8-0.8,1.1-1.1
					c0.6-0.6,1-1,1-1s-0.3,0.4-0.9,1c-0.3,0.3-0.6,0.7-1.1,1.2c-0.4,0.5-0.8,1-1.2,1.7c-0.5,0.6-0.9,1.3-1.3,2
					c-0.2,0.4-0.5,0.7-0.7,1.1c-0.2,0.4-0.4,0.8-0.6,1.2c-0.2,0.4-0.4,0.8-0.6,1.3c-0.2,0.4-0.4,0.9-0.6,1.3
					c-0.4,0.9-0.7,1.8-1.1,2.8c-0.4,0.9-0.6,1.9-0.9,2.8c-0.2,0.9-0.5,1.9-0.7,2.8c-0.4,1.8-0.7,3.5-0.9,5c-0.2,1.5-0.3,2.7-0.3,3.6
					c0,0.4,0,0.8,0,1c0,0.2,0,0.4,0,0.4L92.6,185z"/>
			</g>
			<path id="XMLID_2_" class="st20" d="M208.2-4.2c0,51-10.8,72.5-66.2,84.4S79.1,128.3,75.5,189S48.5,308.9-2.5,337.9V-4.2H208.2z"
				/>
			<path id="XMLID_1_" class="st21" d="M134.1-4.2c8,30-9.7,72.5-50.4,84.4S37.4,128.3,34.8,189c-2.7,60.6,0.7,119.9-37.3,148.9
				V-4.2H134.1z"/>
			<g class="st22">
				<g>
					<path class="st23" d="M-36,375.9c0,0,1.3-6.1,3.5-16.9c1.1-5.4,2.3-11.9,3.7-19.4c0.7-3.8,1.4-7.8,2.2-12
						c0.8-4.2,1.7-8.6,2.6-13.2c3.6-18.5,7.5-40.1,12.1-63.1c4.5-23.1,9.6-47.7,15.8-72c3.1-12.2,6.4-24.3,10.1-36.1
						c3.7-11.8,7.7-23.3,12.1-34.3c4.4-10.9,9.1-21.3,14.2-30.9c5.1-9.5,10.4-18.3,15.9-26c1.4-1.9,2.7-3.8,4.1-5.6
						c1.3-1.8,2.8-3.5,4.2-5.2c1.4-1.7,2.8-3.2,4.2-4.7c1.4-1.5,2.8-2.9,4.1-4.3c5.4-5.4,10.6-9.8,15-13.1c1.1-0.9,2.1-1.6,3.1-2.3
						c1-0.7,1.9-1.4,2.8-2c1.8-1.2,3.3-2.2,4.6-2.9c2.5-1.5,3.9-2.3,3.9-2.3s-1.3,0.9-3.8,2.5c-1.2,0.8-2.7,1.9-4.4,3.1
						c-0.9,0.6-1.8,1.3-2.7,2.1c-1,0.7-2,1.5-3,2.4c-4.2,3.5-9.2,7.9-14.3,13.5c-1.3,1.4-2.6,2.9-3.9,4.4c-1.3,1.6-2.7,3.1-4,4.8
						c-0.7,0.8-1.3,1.7-2,2.5c-0.7,0.8-1.3,1.7-2,2.6c-1.4,1.7-2.7,3.6-4.1,5.5C52.3,60.7,47.1,69.4,42,78.9
						c-5,9.5-9.7,19.8-14.1,30.7c-4.4,10.9-8.4,22.3-12,34.1c-3.7,11.8-7,23.8-10.1,36C-0.4,204-5.5,228.5-10,251.6
						c-4.5,23.1-8.5,44.7-12.1,63.1c-0.9,4.6-1.7,9.1-2.6,13.3c-0.9,4.2-1.8,8.2-2.6,11.9c-1.7,7.5-3.2,14-4.5,19.3
						c-1.3,5.3-2.3,9.5-3.1,12.4C-35.6,374.4-36,375.9-36,375.9z"/>
				</g>
				<g>
					<path class="st23" d="M31.3,96.6c0,0,0.2-4.5,0.6-11.2c0.4-6.7,0.9-15.6,1.1-24.5c0-2.2,0.1-4.5,0-6.6
						c-0.1-2.2-0.4-4.3-0.6-6.4c-0.2-2.1-0.4-4.1-0.4-6.1c0-1.9,0.3-3.8,0.6-5.4c0.7-3.3,1.7-5.9,2.3-7.8c0.6-1.9,1-2.9,1-2.9
						s-0.3,1.1-0.9,2.9c-0.6,1.9-1.5,4.5-2.1,7.8c-0.3,1.6-0.5,3.4-0.5,5.3c0,1.9,0.3,3.9,0.5,6c0.3,2.1,0.6,4.2,0.8,6.4
						c0.2,2.2,0.2,4.5,0.2,6.7c0.1,8.9-0.3,17.9-0.5,24.6c-0.2,6.7-0.3,11.2-0.3,11.2L31.3,96.6z"/>
				</g>
				<g>
					<path class="st23" d="M32.4,59.9c0,0-0.2-0.4-0.4-1.2c-0.3-0.8-0.6-1.9-1.1-3.2c-0.5-1.3-1.1-2.8-1.8-4.4
						c-0.7-1.6-1.6-3.2-2.5-4.8c-0.4-0.8-1-1.6-1.4-2.4c-0.5-0.8-1-1.5-1.5-2.2c-0.5-0.7-1-1.4-1.5-2c-0.5-0.6-1-1.2-1.5-1.7
						c-0.5-0.5-1-0.9-1.4-1.3c-0.4-0.4-0.8-0.7-1.1-0.9c-0.6-0.5-1-0.8-1-0.8s0.4,0.3,1.1,0.7c0.3,0.2,0.8,0.5,1.2,0.9
						c0.4,0.4,0.9,0.8,1.5,1.2c0.5,0.5,1.1,1,1.6,1.6c0.6,0.6,1.1,1.2,1.7,1.9c0.5,0.7,1.1,1.4,1.7,2.1c0.5,0.8,1.1,1.5,1.6,2.3
						c1,1.6,2,3.2,2.8,4.8c0.8,1.6,1.6,3,2.2,4.3c0.6,1.3,1.1,2.4,1.4,3.1c0.3,0.7,0.5,1.2,0.5,1.2L32.4,59.9z"/>
				</g>
				<g id="XMLID_69_">
					<path class="st23" d="M14,142.7c0,0,0.1-0.2,0.4-0.5c0.3-0.3,0.6-0.7,1-1.3c0.4-0.6,0.9-1.3,1.5-2.2c0.6-0.9,1.2-1.9,2.1-3
						c0.4-0.5,0.9-1,1.5-1.5c0.3-0.2,0.6-0.5,0.9-0.7l0.5-0.3l0.5-0.2c1.4-0.7,2.9-1.2,4.4-1.7c1.5-0.5,3.1-0.9,4.7-1.6
						c1.6-0.6,3-1.4,4.3-2.4c2.7-2,5-4.6,7.6-6.6c1.3-1,2.6-1.9,3.9-2.6c1.3-0.7,2.6-1.3,3.7-1.9c1.1-0.6,1.8-1.6,2.2-2.6
						c0.4-1,0.5-1.9,0.7-2.6c0.3-1.5,0.3-2.3,0.3-2.3s0,0.9-0.2,2.4c-0.1,0.7-0.2,1.7-0.6,2.7c-0.3,1-1.1,2.1-2.2,2.8
						c-1.1,0.7-2.4,1.3-3.6,2.1c-1.3,0.7-2.5,1.6-3.8,2.6c-2.4,2.1-4.6,4.7-7.4,6.9c-1.3,1.1-2.9,2-4.5,2.7
						c-1.6,0.7-3.2,1.2-4.7,1.8c-1.5,0.5-2.9,1.1-4.2,1.8c-1.3,0.6-2.2,1.5-2.9,2.5c-0.7,1-1.3,2-1.8,2.9c-0.5,0.9-1,1.7-1.4,2.4
						c-0.4,0.6-0.8,1.2-1.1,1.5c-0.2,0.3-0.4,0.5-0.4,0.5L14,142.7z"/>
				</g>
				<g>
					<path class="st23" d="M39.7,123.8c0,0,0.6,0.5,1.6,1.2c0.9,0.8,2.2,1.8,3.2,3.1c1,1.3,1.7,2.8,2.2,3.8c0.5,1.1,0.8,1.8,0.8,1.8
						s-0.4-0.7-1-1.7c-0.6-1-1.6-2.3-2.7-3.3c-1.1-1-2.4-1.8-3.5-2.4c-1-0.6-1.7-1-1.7-1L39.7,123.8z"/>
				</g>
			</g>
		</g>
		<g>
			<polygon id="XMLID_52_" class="st21" points="368.6,484.9 332.7,501.6 332.7,502.4 280.1,517.9 283.9,698.8 301.9,698.8 
				307.1,605.5 316.2,540 333.4,532.2 336.5,676.9 360.9,674 359.4,580.5 			"/>
			<path class="st20" d="M332.7,498.4l-52.6,18.9l0.3,11c11.6,4.9,37.5-3.3,53.8-12.9c14.5-8.5,26.6-15.2,33.1-20.5l1.3-12
				l-35.9,14.7L332.7,498.4z"/>
			<linearGradient id="SVGID_12_" gradientUnits="userSpaceOnUse" x1="175.6171" y1="309.1767" x2="431.4367" y2="309.1767">
				<stop  offset="0" style="stop-color:#D6EFF4"/>
				<stop  offset="1" style="stop-color:#D6EFF4;stop-opacity:0"/>
			</linearGradient>
			<polyline class="st24" points="175.6,342.9 431.4,133.8 384.3,484.5 184.6,374.3 			"/>
			<path class="st1" d="M280.7,288"/>
			<path id="XMLID_5_" class="st1" d="M334.7,311c-29.2-1-43-17.2-45.3-21.2h0c-1-3-2.5-2.9-4-2.9c-2.7,0-4,0.6-4.5,1l-0.2,0
				c-5.1,8.2-8.6,38.1-4.7,55.1c0.9,4.2,5.1,6.8,9.3,6c0.1,0,0.2,0,0.3-0.1c5-0.9,11.8-2.6,16.9-5.1l1-1l2.1,9.2l26.4-6.7
				l-11.6-13.3C320.4,332.1,326.8,325.1,334.7,311z"/>
			<path class="st1" d="M193,394.6l-7.3-13.1c0,0,3.4-7.9,12-6l9.5,14.7L193,394.6z"/>
			<path class="st1" d="M186.4,351.2l10.5-8.2c0,0,0.5,2-0.6,3.4c-1.1,1.4-8.5,8-8.5,8"/>
			<path class="st1" d="M193.5,360.9l10.2-5.3c0,0,0.1,1.8-1.1,2.8c-1.2,1-8.5,5.4-8.5,5.4"/>
			<path class="st1" d="M197.8,375.5c0,0,2.7-2.1,1.6-8.6s-15.3,0.3-15.3,0.3l3.3,8.7l1.8,4.5L197.8,375.5z"/>
			<path class="st1" d="M189.5,356.5l12.5-9.8c0,0,0.6,2.4-0.7,4.1c-1.4,1.7-10.2,9.6-10.2,9.6"/>
			<path class="st25" d="M186.4,351.2l10.5-8.2c0,0,0.5,2-0.6,3.4c-1.1,1.4-8.5,8-8.5,8"/>
			<path class="st25" d="M193.5,360.9l10.2-5.3c0,0,0.1,1.8-1.1,2.8c-1.2,1-8.5,5.4-8.5,5.4"/>
			<path class="st25" d="M189.5,356.5l12.5-9.8c0,0,0.6,2.4-0.7,4.1c-1.4,1.7-10.2,9.6-10.2,9.6"/>
			<path class="st25" d="M379.1,473.6c15.8,11.9,21.7-4.2,21.7-4.2l-9.8-73.2l-27.7-62.7c-1.5-4-5.9-5.9-9.8-4.3l-17.2,7.2
				c0,0,7,6.3-5.3,15.8c-12.3,9.5-32.2,4.9-32.2,4.9l-29.8,18.2L233.4,425L203,378.9c0,0-15.1-3.5-15.1,17.2l39.1,57.8
				c4.8,4.3,12.1,4,16.5-0.7l34.9-37.7c0,0-1.3,74.1-2.2,94.8c-0.8,19.6,37.2,9.5,58.5-3.1c21.4-12.6,37.5-21,37.5-27
				s-13.2-88.1-13.2-88.1l9.9,18.7L379.1,473.6z"/>
			<g>
				<path class="st26" d="M301.5,329.8h-4c-1.8,0-3.5-0.7-4.7-2.1c-1.6-1.8-3.3-5.2-3.3-11.3c0-11.7,10.6-6.1,10.1-1
					c-0.3,2.6-0.8,4.5-1.4,5.7c-0.5,1.2-0.2,2.6,0.8,3.4c2,1.6,5.4,4.2,9.7,6l-1.1-17.5l-4.4-18.2l-12.8-9.5l-5.4-2.5l-4.4,5.6
					c0,0,1-1.4,4.7-1.4c3.7,0,7.6,6.6,3.3,14.8c-3.4,6.6-3.3,16.1-3.1,19.6c0.1,1.3-0.1,2.7-0.7,3.8c-0.6,1.2-1.6,2.5-3.2,2.5
					c-3.2,0-4.7-6.5-7-6.5l-0.2-0.1c-0.3,7.9,0.2,15.8,1.6,22c0.9,4.1,4.9,6.7,9.1,6c5.9-1.1,13-2.7,18.4-6.1v0.4L301.5,329.8z"/>
				<path class="st21" d="M309.2,270.9c-13-0.6-23.4,4.6-28.1,7.4c-1.7,1-2.6,3.1-2,5.1c0.7,2.5,1.7,4.6,1.7,4.6l0.2,0
					c0.5-0.4,1.7-0.9,4.5-0.9c1.5,0,3,0.1,4,3.1h0c2.4,3,16.2,20,45.5,21C342.8,297,326.8,272.5,309.2,270.9z"/>
			</g>
			<path class="st21" d="M327.8,281.2l-19.6-1.5l-6.9,26.4l-1.8,7.8c0.2,0.5,0.2,1,0.2,1.5c-0.3,2.6-0.8,4.5-1.4,5.7l-0.7,1
				c0,0.7,0.3,1.4,0.8,1.9c2.9,2.7,11.1,9.4,22,8.2c0,0,6.5-7,14.4-21.3C339.7,302.3,335.7,289.9,327.8,281.2z"/>
			<path class="st27" d="M296.8,319.9c0.3-0.8,0.7-2.1,0.9-3.8c0.3-3.3-6.7-7-6.7,0.7c0,1.9,0.2,3.4,0.6,4.5
				c0.5,1.7,2.8,2.1,3.9,0.7C296,321.4,296.5,320.7,296.8,319.9z"/>
			<path class="st25" d="M331.1,352.1c12.3-9.5,5.3-15.8,5.3-15.8c-25.8,0.7-37.5,20.7-37.5,20.7S318.8,361.6,331.1,352.1z"/>
			<g>
				<path class="st28" d="M200,373.2l-11.3,3.3c-1.7,0.5-3.7-0.6-4.4-2.4l-11.2-28.8c-0.7-1.8,0.1-3.7,1.8-4.1l11.3-3.3
					c1.7-0.5,3.7,0.6,4.4,2.4l11.2,28.8C202.5,370.9,201.7,372.7,200,373.2z"/>
				<path class="st25" d="M199.1,371l-11.3,3.3c-1.7,0.5-3.7-0.6-4.4-2.4l-9.5-24.4c-0.7-1.8,0.1-3.7,1.8-4.1l11.3-3.3
					c1.7-0.5,3.7,0.6,4.4,2.4l9.5,24.4C201.7,368.7,200.8,370.5,199.1,371z"/>
				<g>
					<defs>
						<path id="SVGID_13_" d="M199.1,371l-11.3,3.3c-1.7,0.5-3.7-0.6-4.4-2.4l-9.5-24.4c-0.7-1.8,0.1-3.7,1.8-4.1l11.3-3.3
							c1.7-0.5,3.7,0.6,4.4,2.4l9.5,24.4C201.7,368.7,200.8,370.5,199.1,371z"/>
					</defs>
					<clipPath id="SVGID_14_">
						<use xlink:href="#SVGID_13_"  style="overflow:visible;"/>
					</clipPath>
					<path class="st29" d="M189.2,361.7c0,0-3.3,1.9-7.4,6l5.7,14.8l17.5-5l-5.8-14.8C193.2,361.5,189.3,361.7,189.2,361.7z"/>
					<polygon class="st30" points="194.1,363.5 191.7,368.1 186.5,365.7 183.9,358.8 191.5,356.6 					"/>
					<g class="st31">
						<path class="st1" d="M183.4,346.8L183.4,346.8c2.7-0.8,5.9,1,7.1,4l1.1,2.7c1.8,4.5,1.8,9.6-1.4,10.6
							c-3.2,0.9-6.7-3.2-8.5-7.7l-1.1-2.7C179.4,350.7,180.7,347.6,183.4,346.8L183.4,346.8z"/>
						<g>
							<g>
								<path class="st32" d="M182.9,359.1l-0.9-0.3c-0.2-0.1-0.5-0.3-0.6-0.5l-1.4-2.8c-0.1-0.2,0-0.4,0.2-0.4l1,0"/>
								<path class="st33" d="M181.4,355.3l-0.8,0c-0.1,0-0.1,0.1-0.1,0.2l1.2,2.3c0.1,0.1,0.2,0.3,0.3,0.3l0.6,0.3l-0.3-0.8
									c0,0-0.3-0.1-0.4-0.3s0.1-0.5,0.1-0.5L181.4,355.3z"/>
							</g>
							<g>
								<path class="st32" d="M192.4,356.4l0.5-0.7c0.1-0.2,0.2-0.5,0.1-0.7l-0.8-2.9c-0.1-0.2-0.3-0.3-0.4-0.2l-0.9,0.5"/>
								<path class="st33" d="M191,352.6l0.7-0.4c0.1,0,0.2,0,0.2,0.1l0.7,2.5c0,0.2,0,0.3,0,0.4l-0.3,0.6L192,355
									c0,0,0.2-0.2,0.1-0.5s-0.4-0.4-0.4-0.4L191,352.6z"/>
							</g>
						</g>
						<path class="st21" d="M183.2,346.3L183.2,346.3L183.2,346.3c-4.3,1.1-4.4,4.6-3.2,7.6l1.1,2.7c0,0.1,0.3,0,0.4,0.1l0.4-0.7
							c-1.1-3.2-1.3-4-1.3-4l0.9-3.5c-0.1,0.5-0.8,2.9-0.8,2.9c2.8-0.7,6.1-3.6,6.1-3.6c0.2,0.7-0.1,1.5-0.1,1.5
							c0.2-0.1,0.7-0.9,0.8-1.4c0,0,2.1,2.2,3.7,5.4l0.7,0.4c0,0,0.2-0.1,0.1-0.1l-1.1-2.7C189.7,347.7,187.3,345,183.2,346.3z"/>
						<path class="st34" d="M192.3,355.8"/>
						<path class="st21" d="M189.3,358c0.3-0.1,0.6-0.1,0.9,0.1c0.4,0.2,0.8,0.5,1.1,0.7c0.3,0.2,0.6,0.1,0.6-0.2l-0.4-4.9l0.1,0.1
							c1.7,4.5,1.7,9.5-1.5,10.4c-3.2,0.9-6.7-3.1-8.5-7.5l0-0.1l3.1,4.1c0.2,0.3,0.6,0.2,0.7-0.1c0.1-0.4,0.2-0.8,0.4-1.1
							c0.1-0.2,0.4-0.4,0.7-0.5L189.3,358z"/>
					</g>
				</g>
			</g>
			<path class="st1" d="M185.8,381.5l-3.6-3.3c-0.5-0.5-0.9-1.1-1.2-1.8l-7.5-21.1c0,0,2.6-0.5,4.5,2.9c1.9,3.4,5.3,11.1,5.3,11.1
				s4.7-0.4,6.7,6.7"/>
			<path class="st35" d="M281.4,287.7c-0.2,0.1-0.4,0.2-0.5,0.3l0,0l-0.2,0.2C280.7,288.2,281,287.9,281.4,287.7z"/>
			<path class="st35" d="M280.7,288.2C280.7,288.3,280.7,288.3,280.7,288.2L280.7,288.2z"/>
			<path class="st25" d="M277.6,325.1c0.6-1.2,0.8-2.5,0.7-3.8c-0.2-3.5-0.3-13,3.1-19.6c0.4-0.7,0.7-1.5,1-2.2
				c0.3-1.3,0.5-2.5,0.8-3.6c0.4-3.6-0.8-6.4-2.5-7.9l-0.1,0c-3.7,6-6.6,23.9-6.3,39.6c0,0,0,0,0,0C276,327.6,277,326.4,277.6,325.1
				z"/>
			<path class="st21" d="M301.5,329.8h-4c-1.8,0-3.5-0.7-4.7-2.1c-1.6-1.8-3.3-5.2-3.3-11.3c0-11.7,10.6-6.1,10.1-1
				c-0.3,2.6-0.8,4.5-1.4,5.7c-0.5,1.2-0.2,2.6,0.8,3.4c2,1.6,5.4,4.2,9.7,6l-1.1-17.5l-4.4-18.2l-12.8-9.5l-5.4-2.5l-4.4,5.6
				c0,0,1-1.4,4.7-1.4c3.7,0,7.6,6.6,3.3,14.8c-3.4,6.6-3.3,16.1-3.1,19.6c0.1,1.3-0.1,2.7-0.7,3.8c-0.6,1.2-1.6,2.5-3.2,2.5
				c-3.2,0-4.7-6.5-7-6.5l-0.2-0.1c-0.3,7.9,0.2,15.8,1.6,22c0.9,4.1,4.9,6.7,9.1,6c5.9-1.1,13-2.7,18.4-6.1l0,0L301.5,329.8z"/>
			<path class="st36" d="M285.3,349c0.1,0,0.2,0,0.3-0.1c0.4-0.1,0.8-0.2,1.2-0.2c-2.5-0.8-4.6-2.9-5.2-5.7
				c-0.9-4.1-1.4-8.9-1.6-13.9c0-1.2-0.5-2.4-1.3-3.3c-1.5-1.9-2.7-4.7-4.2-4.7l-0.1-0.1c0,0.3,0,0.6,0,0.8c0,0.2,0,0.4,0,0.6
				c0,0.6,0,1.2,0,1.7c0,0.2,0,0.3,0,0.5c0,0.5,0,0.9,0,1.4c0,0.2,0,0.3,0,0.5c0,1.2,0,2.5,0.1,3.7c0,0.1,0,0.2,0,0.2
				c0,0.6,0.1,1.2,0.1,1.8c0,0,0,0,0,0c0.2,3.8,0.7,7.4,1.4,10.5C276.9,347.1,281.1,349.8,285.3,349z"/>
			<path class="st37" d="M303.3,361.4l5.1-6.6c-3.9-0.3-9.6,2.2-9.6,2.2l-29.8,18.2l-34.8,48.6l3.6,5.5l35.7-49.7L303.3,361.4"/>
			<linearGradient id="SVGID_15_" gradientUnits="userSpaceOnUse" x1="359.5802" y1="434.0575" x2="383.2958" y2="434.0575">
				<stop  offset="0" style="stop-color:#59DCDE;stop-opacity:0"/>
				<stop  offset="1" style="stop-color:#59DCDE"/>
			</linearGradient>
			<path class="st38" d="M373.6,415.3L362.8,395c0,0-3.8-5.6-3.2-1.9l9.5,17.8l10,62.7c1.5,1.1,2.9,2,4.2,2.7L373.6,415.3z"/>
			<path class="st37" d="M191.9,401.9c0-16.3,9.9-19,13.9-18.8l-2.7-4.1c0,0-15.1-3.5-15.1,17.2"/>
			<linearGradient id="SVGID_16_" gradientUnits="userSpaceOnUse" x1="279.6853" y1="519.6245" x2="279.6853" y2="410.5479">
				<stop  offset="0" style="stop-color:#59DCDE;stop-opacity:0"/>
				<stop  offset="1" style="stop-color:#59DCDE"/>
			</linearGradient>
			<path class="st39" d="M280.8,514.6c0.9-20.7,2.2-104.1,2.2-104.1l-4.6,5c-0.4,20.6-1.3,78.6-2,94.8c-0.2,4.7,1.8,7.7,5.3,9.3
				C281.1,518.2,280.8,516.6,280.8,514.6z"/>
			<path class="st37" d="M358,333.6c1.8-0.7,3.6-0.7,5.3-0.1c-1.5-3.9-5.9-5.8-9.8-4.2l-16.9,7.1c1.2,0.8,6.2,0.7,7.7,3L358,333.6z"
				/>
			<g class="st40">
				<linearGradient id="SVGID_17_" gradientUnits="userSpaceOnUse" x1="327.7162" y1="281.3482" x2="328.0374" y2="281.3482">
					<stop  offset="0" style="stop-color:#59DCDE"/>
					<stop  offset="1" style="stop-color:#59DCDE;stop-opacity:0"/>
				</linearGradient>
				<path class="st41" d="M328,281.5c-0.1-0.1-0.2-0.2-0.3-0.3l-0.1,0C327.8,281.3,327.9,281.4,328,281.5z"/>
				<path class="st42" d="M280.7,288l0.1,0l-0.2,0.2c0,0,0.1-0.1,0.2-0.2l0,0c0.2-0.2,0.6-0.4,1.2-0.5c-0.2-0.5-0.4-1.1-0.5-1.7
					c-0.5-2,0.3-4,2-5.1c4.7-2.8,15.6-5.6,28.6-4.9c5.7,0.5,10.8,1,15.4,5.2c-5-5.5-11.5-9.5-18.3-10.1c-13-0.6-23.4,4.6-28.1,7.4
					c-1.7,1-2.6,3.1-2,5.1C279.7,285.8,280.7,288,280.7,288z"/>
			</g>
			<path class="st25" d="M177.5,359.4c1.9,3.4,4.5,12.6,4.5,12.6s4.1,0,6.1,6.6l0,0c1.5-1.9,1.6-4.6,0.1-6.5
				c-2.2-2.9-4.9-2.7-4.9-2.7s-3.4-7.7-5.3-11.1c-1.9-3.4-4.5-2.9-4.5-2.9l2.8,2.5C176.7,358.2,177.1,358.7,177.5,359.4z"/>
		</g>
		<g>
			<g>
				<g class="st43">
					<g>
						<g>
							<defs>
								<path id="SVGID_18_" d="M530.3,98.3c-22.8,0-25.7-51-50.2-51s-35.8,40-51.6,40c-15.2,0-12.7-7.3-27.3-7.3
									c-13.9,0-18.9,18.3-18.9,18.3h148.4H530.3z"/>
							</defs>
							<use xlink:href="#SVGID_18_"  style="overflow:visible;fill-rule:evenodd;clip-rule:evenodd;fill:#5FB9E9;"/>
							<clipPath id="SVGID_19_">
								<use xlink:href="#SVGID_18_"  style="overflow:visible;"/>
							</clipPath>
							<g class="st44">
								<defs>
									<rect id="SVGID_20_" x="382" y="47.3" width="148.6" height="51.1"/>
								</defs>
								<use xlink:href="#SVGID_20_"  style="overflow:visible;fill:#5FB9E9;"/>
								<clipPath id="SVGID_21_">
									<use xlink:href="#SVGID_20_"  style="overflow:visible;"/>
								</clipPath>
								<rect x="376.3" y="41.3" class="st45" width="160.2" height="62.9"/>
							</g>
						</g>
					</g>
				</g>
			</g>
		</g>
	</g>
</g>
</svg>
