<svg width="23" height="30" viewBox="0 0 23 30" fill="none" xmlns="http://www.w3.org/2000/svg">
<circle cx="11.1841" cy="11.1826" r="7.65234" fill="white"/>
<path d="M21.8671 7.65694C20.8324 4.31134 18.1076 1.58652 14.762 0.551851C13.5893 0.189641 12.3822 0 11.2095 0C8.81238 0 6.50156 0.74155 4.57008 2.19022C1.70723 4.29409 0 7.65694 0 11.2095C0 13.6583 0.776041 15.9865 2.2419 17.9352L11.2095 29.4321L20.1771 17.9352C22.3672 15.0035 22.9881 11.2613 21.8671 7.65694ZM11.2095 17.2454C7.88113 17.2454 5.17361 14.5378 5.17361 11.2095C5.17361 7.88113 7.88113 5.17361 11.2095 5.17361C14.5378 5.17361 17.2454 7.88113 17.2454 11.2095C17.2454 14.5378 14.5378 17.2454 11.2095 17.2454Z" fill="#FF3636"/>
</svg>
