<svg width="64" height="28" viewBox="0 0 64 28" fill="none" xmlns="http://www.w3.org/2000/svg">
    <path d="M20.1113 9.63316C20.2294 9.15731 20.3475 8.60214 20.3868 8.00732C20.3868 8.52283 20.2884 9.07799 20.1113 9.63316Z" fill="#00AB62"/>
    <path d="M3.01139 12.5263C2.85396 11.9315 2.79492 11.3565 2.79492 10.8212C2.85396 11.8324 3.01139 12.4867 3.01139 12.5263Z" fill="#00B4FF"/>
    <path d="M3.01139 12.5291C2.99171 12.4895 2.83428 11.8352 2.79492 10.824V10.8041C2.79492 10.249 2.85396 9.73347 2.97203 9.23779C2.77524 10.9231 2.99171 12.4102 3.01139 12.5291Z" fill="#706766"/>
    <path d="M5.89154 15.3483C5.29571 16.8307 4.73457 18.4853 4.39274 19.5333C4.18679 20.1646 3.60042 20.5973 2.93629 20.5973C2.35154 20.5973 2.17301 20.1148 2.71797 19.9028C2.86731 19.8447 2.97439 19.8096 2.98941 19.8048C2.99102 19.8042 2.99131 19.8042 2.99289 19.8036C3.04231 19.7847 4.16685 19.277 3.03058 12.5276C4.9394 13.519 5.61604 13.8612 5.89154 15.3483Z" fill="#FFC766"/>
    <path d="M3.01139 12.5263C2.85396 11.9315 2.79492 11.3565 2.79492 10.8212C2.85396 11.8324 3.01139 12.4867 3.01139 12.5263Z" fill="#FFA200"/>
    <path d="M7.16291 13.0081C5.96253 12.9486 4.47455 13.0451 3.01074 12.5323C3.06978 12.4133 4.03258 10.153 5.31168 7.43664C5.92172 7.19871 6.72821 6.92174 7.67132 7.29846C7.67132 7.29846 7.65385 7.32021 7.7129 7.34003C7.94981 9.17046 7.67058 11.1363 7.16291 13.0081Z" fill="#EA6766"/>
    <path d="M7.16291 13.0034C6.84806 14.312 6.41513 15.5413 6.00188 16.5922C5.7067 15.1051 4.91956 13.4991 3.01074 12.5276C4.58503 12.8052 5.96253 12.944 7.16291 13.0034Z" fill="#EA6766"/>
    <path d="M8.48109 13.0432C8.03214 16.145 7.5048 19.1941 7.03746 20.4423C6.89256 20.8294 6.50511 20.9939 6.09184 20.9939H5.94907C5.38593 20.9939 4.9223 20.8096 5.3752 20.4749C5.54072 20.3526 5.97039 19.9719 6.00638 19.7692C6.10637 19.2063 6.26303 17.9533 6.00159 16.5923C6.41484 15.5414 6.84776 14.3121 7.16262 13.0035C7.63491 13.0432 8.06784 13.0432 8.48109 13.0432Z" fill="#EA6766"/>
    <path d="M9.54166 4.676C9.18744 4.59669 8.87259 4.53721 8.55773 4.49756C8.08544 4.43808 7.65252 4.43808 7.25895 4.4579C7.25895 4.4579 7.25895 4.47773 7.27863 4.47773C7.59348 5.1122 9.36455 6.2027 9.36455 6.2027C9.36455 7.5113 8.02494 7.35749 7.67072 7.31783C7.78879 9.2609 7.58429 11.2983 7.15137 13.063C7.62365 13.0828 8.48071 13.0585 8.89396 13.0387C9.48432 8.89481 9.56134 4.676 9.54166 4.676C9.56134 4.676 9.56134 4.676 9.54166 4.676Z" fill="#EA6766"/>
    <path d="M5.3331 7.43372C4.054 10.1501 3.07008 12.4104 3.01104 12.5293C3.01104 12.331 2.93233 8.40525 5.3331 7.43372Z" fill="#EA6766"/>
    <path d="M7.26164 4.42397C7.08454 4.4438 6.90743 4.46363 6.75 4.48345C6.84839 4.26535 6.96646 4.04725 7.08454 3.80933C7.14357 3.96794 7.26164 4.38432 7.26164 4.42397Z" fill="#706766"/>
    <path d="M7.08501 3.80933C6.96694 4.02743 6.86855 4.24553 6.75047 4.48345C6.4553 4.52311 6.16012 4.60242 5.9043 4.70155C6.57337 4.12656 7.08501 3.80933 7.08501 3.80933Z" fill="#706766"/>
    <path d="M9.36718 6.16772C9.36718 7.47632 8.02498 7.35823 7.67077 7.31857C7.61173 6.32721 7.55675 5.41429 7.28125 4.44275C7.57643 5.07722 9.36718 6.16772 9.36718 6.16772Z" fill="#706766"/>
    <path d="M5.90476 4.70142C4.86179 5.59364 3.46462 7.16 2.97266 9.26167C3.18912 7.4574 3.89755 5.43503 5.90476 4.70142Z" fill="#706766"/>
    <path d="M6.74996 4.48804C6.258 5.4794 5.78571 6.49059 5.33311 7.4423C2.91265 8.41383 3.01104 12.3396 3.01104 12.5379C2.99136 12.419 2.7749 10.9319 2.952 9.2664C3.44397 7.14489 4.86082 5.59836 5.88411 4.70614C6.15961 4.607 6.45478 4.52769 6.74996 4.48804Z" fill="#706766"/>
    <path d="M7.67145 7.32254C7.61241 7.32254 7.60908 7.32254 7.60908 7.32254C6.66451 7.08462 5.94304 7.18231 5.33301 7.42024C5.78561 6.46853 6.2579 5.45734 6.74986 4.46598C6.90729 4.44615 7.0844 4.42632 7.26151 4.40649C7.26151 4.40649 7.26151 4.42632 7.28119 4.42632C7.55669 5.41768 7.61241 6.35101 7.67145 7.32254Z" fill="#706766"/>
    <path d="M18.0909 16.6195C18.2035 16.8977 18.23 17.2076 18.1386 17.4934L17.3919 19.8281C17.2418 20.2975 16.8056 20.616 16.3128 20.616H16.1982C15.4525 20.616 15.204 20.0599 15.8897 19.7671C15.9767 19.7299 16.0314 19.7091 16.0314 19.7091C16.0314 19.7091 17.4476 17.7831 14.6801 14.4497C13.9717 13.7557 13.4994 12.9032 13.1846 11.9911C13.6372 11.7135 14.0055 11.3302 14.2614 10.9931C14.3401 11.1517 14.476 11.3006 14.5108 11.4713C14.5305 11.4911 14.5732 11.5148 14.5732 11.5544C15.0061 12.2285 15.5498 12.8504 16.2779 13.4254C16.8289 13.8616 17.2531 14.299 17.5876 14.7352C17.6837 15.5092 17.9206 16.1991 18.0909 16.6195Z" fill="#CAEE66"/>
    <path d="M14.2274 11.0235C14.3061 11.1821 14.4045 11.3209 14.4832 11.4795C14.4045 11.3209 14.3061 11.1821 14.2274 11.0235C13.7157 10.1114 13.3615 9.02094 13.2041 7.71234C13.3419 8.76319 13.637 9.91317 14.2274 11.0235Z" fill="#A6E200"/>
    <path d="M20.0917 9.65582C19.9342 10.1912 19.7768 10.5877 19.7178 10.7265C19.7768 10.4687 19.8752 10.211 19.9736 9.95323C20.0326 9.8541 20.072 9.75496 20.0917 9.65582Z" fill="#A6E200"/>
    <path d="M20.3675 7.99037C20.3085 5.74989 18.3603 3.94561 14.9756 3.98526C15.0543 3.98526 15.133 3.98526 15.2117 3.98526C15.3298 3.98526 15.4479 3.98526 15.5856 3.98526C16.4712 3.98526 17.1993 4.10422 17.7896 4.28267H17.8093C19.9542 4.93697 20.4265 6.54298 20.3675 7.99037Z" fill="#A6E200"/>
    <path d="M20.5886 16.2551C20.7378 16.5303 20.801 16.85 20.7341 17.1558L20.089 20.1078C19.9753 20.628 19.5147 20.9989 18.9822 20.9989H18.5915C17.8729 20.9989 17.6587 20.5001 18.3341 20.2545C18.3504 20.2486 18.3594 20.2455 18.3594 20.2455C18.3594 20.2455 20.9024 19.1488 17.5722 14.8436C17.5525 14.685 17.5722 14.4361 17.5722 14.2775C18.4578 14.7731 19.363 15.0904 20.1501 15.3085C20.3043 15.7015 20.4627 16.0228 20.5886 16.2551Z" fill="#66AA66"/>
    <path d="M17.7305 15.127C17.2774 14.2206 16.805 13.8811 16.2737 13.4449C15.5456 12.8699 14.9946 12.2156 14.542 11.5415C15.3685 12.7906 17.1641 13.2576 17.5725 14.2975C17.5725 14.4561 19.2034 16.8264 17.7305 15.127Z" fill="#66AA66"/>
    <path d="M20.1306 15.3072C19.3435 15.0891 18.4383 14.7719 17.5527 14.2762C17.5527 13.0667 18.0053 11.6788 19.6977 10.7668C19.6977 10.7668 19.6977 10.7469 19.7174 10.7271C19.2451 12.5116 19.678 14.1969 20.1306 15.3072Z" fill="#66AA66"/>
    <path d="M20.3671 7.99043C20.3474 8.60507 20.2293 9.16023 20.0915 9.6361C20.0915 9.6361 20.0915 9.6361 20.0915 9.6559C20.0522 9.75505 20.0128 9.85421 19.9735 9.95331C19.8554 10.2111 19.7767 10.4688 19.7177 10.7266C19.698 10.7662 19.698 10.7662 19.698 10.7662C18.0056 11.6783 17.553 13.0662 17.5727 14.2955C16.4707 13.6808 15.3687 12.8085 14.5422 11.5395C14.5225 11.5197 14.5028 11.4999 14.5028 11.4602C14.4045 11.3214 14.3257 11.1628 14.247 11.0041C16.0968 8.38698 13.2842 4.15773 13.2842 4.15773C13.2842 4.15773 13.3418 4.12411 13.4402 4.12411C13.4599 4.12411 13.4992 4.12411 13.5189 4.10428C14.0306 4.0448 14.5029 4.00515 14.9555 3.98532H14.9751C18.3598 3.94567 20.308 5.74995 20.3671 7.99043Z" fill="#66AA66"/>
    <path d="M13.2042 11.9956C12.2202 12.6102 10.7246 13.0266 8.50098 13.0464C9.11101 8.88272 9.54222 4.67751 9.54222 4.67751C10.5065 4.77664 11.7676 4.6595 13.2828 4.16382C13.2042 4.38192 12.0431 8.60513 13.2042 11.9956Z" fill="#EA6766"/>
    <path d="M14.2616 11.0195C14.0058 11.3764 13.6332 11.719 13.1806 11.9966C12.0196 8.60616 13.2047 4.39797 13.2638 4.17987C13.2441 4.31866 12.9489 5.79076 13.185 7.67435V7.69417C13.3621 9.02261 13.7697 10.1074 14.2616 11.0195Z" fill="#EA6766"/>
    <path d="M13.1037 7.63397C12.8675 5.73055 13.2218 4.30202 13.2842 4.15649C13.2842 4.15649 16.2922 8.62323 14.2197 11.0377C13.7277 10.1257 13.2611 8.94255 13.1037 7.63397Z" fill="#66AA66"/>
    <path d="M19.9941 9.92973C20.0335 9.8306 20.0728 9.73146 20.1122 9.63232C19.9547 10.1677 19.7973 10.5642 19.7383 10.703C19.7973 10.4651 19.876 10.2073 19.9941 9.92973Z" fill="#66D2FF"/>
    <path d="M20.3673 8.00732C20.387 8.52283 20.2886 9.07799 20.0918 9.63316C20.2295 9.17713 20.3476 8.60214 20.3673 8.00732Z" fill="#FFBD00"/>
    <path d="M22.3913 15.5338C22.438 15.616 22.375 15.7224 22.2808 15.7143C21.9044 15.6822 21.1038 15.5893 20.1316 15.3337C19.679 14.2235 19.2461 12.5381 19.7184 10.7338C19.7774 10.595 19.9349 10.1985 20.0923 9.66316C20.0923 9.66316 20.0923 9.66316 20.0923 9.64335C20.2891 9.08819 20.3678 8.53301 20.3678 8.0175V7.99768C20.4268 6.55029 19.9545 4.94428 17.8096 4.28998C19.5019 4.76583 21.0369 5.91581 21.0369 8.49336C21.0369 12.7723 22.0383 14.9123 22.3913 15.5338Z" fill="#66D2FF"/>
    <path d="M20.3677 7.9927C20.3086 5.75222 18.3604 3.94794 14.9757 3.98759H14.9561C14.5231 4.00742 14.0312 4.04707 13.5195 4.10655C13.5982 4.08673 13.677 4.08673 13.7754 4.0669C13.8147 4.0669 13.8344 4.0669 13.8737 4.04707C13.9131 4.04707 13.9721 4.04707 14.0312 4.02725C14.1492 4.00742 14.287 4.00742 14.4444 3.98759C14.5035 3.98759 14.5625 3.98759 14.6215 3.96776C14.6609 3.96776 14.6806 3.96776 14.7199 3.96776C14.8774 3.96776 15.0348 3.94794 15.1922 3.94794C15.3103 3.94794 15.4284 3.94794 15.5661 3.94794C16.2548 3.96776 17.042 4.04707 17.7701 4.24535H17.7898C19.9544 4.9393 20.4267 6.54531 20.3677 7.9927Z" fill="#66D2FF"/>
    <path fill-rule="evenodd" clip-rule="evenodd" d="M7.06458 0.0200392C7.06458 0.0200392 6.10033 0.317448 5.66743 0.95192C5.68708 0.892438 5.84451 0.218312 5.62808 0.000211924C5.60838 -0.0196153 0 1.34847 0 5.51221C0 10.4492 2.89274 12.4517 3.01081 12.531C-2.74561 3.94793 5.79518 2.37639 6.29721 2.28402L6.29906 2.28368L6.30346 2.29124C3.02953 4.96714 2.67641 8.68747 2.77468 10.8259C2.77468 10.2707 2.83371 9.75521 2.95178 9.25954C3.16824 7.45528 3.87667 5.43286 5.8839 4.69928C6.55293 4.12428 7.04493 3.82688 7.04493 3.82688H7.06458C6.82548 3.19683 6.36293 2.39359 6.30346 2.29124L6.31681 2.28035C6.31343 2.28103 6.30748 2.28213 6.29906 2.28368L6.29711 2.28035C6.29711 2.28035 7.28105 0.971746 7.06458 0.0200392ZM3.7981 1.78454C3.7981 1.78454 4.60493 0.575076 5.49044 0.25784C5.51014 0.25784 5.64787 1.70523 3.7981 1.78454ZM6.84824 0.376876C6.17916 0.733768 5.92334 1.46737 5.92334 1.46737C6.47156 1.31673 6.73928 0.643232 6.82124 0.437054C6.83637 0.399009 6.84517 0.376876 6.84824 0.376876Z" fill="#66D2FF"/>
    <path d="M2.79452 10.8256C2.79452 11.3807 2.87323 11.9359 3.01098 12.5307C-2.85322 3.7869 6.12018 2.31968 6.31696 2.28003C3.05034 4.95671 2.67645 8.66439 2.79452 10.8256Z" fill="#66D2FF"/>
    <path d="M3.01139 12.5263C2.85396 11.9315 2.79492 11.3565 2.79492 10.8212C2.85396 11.8324 3.01139 12.4867 3.01139 12.5263Z" fill="#00B4FF"/>
    <path d="M3.79785 1.78311C3.79785 1.78311 4.60467 0.573645 5.49021 0.256409C5.50989 0.256409 5.64764 1.7038 3.79785 1.78311Z" fill="#5AC8F6"/>
    <path d="M6.82821 0.372192C6.82821 0.372192 6.55271 1.30407 5.90332 1.46269C5.923 1.46269 6.17882 0.729083 6.82821 0.372192Z" fill="#5AC8F6"/>
    <path d="M32.232 24H31.152V14.676H32.232V16.08H32.268C32.544 15.54 32.94 15.132 33.456 14.856C33.972 14.568 34.536 14.424 35.148 14.424C35.58 14.424 35.946 14.472 36.246 14.568C36.546 14.664 36.798 14.796 37.002 14.964C37.218 15.12 37.392 15.306 37.524 15.522C37.668 15.738 37.788 15.972 37.884 16.224C38.196 15.612 38.61 15.162 39.126 14.874C39.654 14.574 40.254 14.424 40.926 14.424C41.562 14.424 42.066 14.532 42.438 14.748C42.822 14.952 43.116 15.228 43.32 15.576C43.524 15.912 43.656 16.302 43.716 16.746C43.788 17.19 43.824 17.646 43.824 18.114V24H42.744V17.556C42.744 16.884 42.6 16.356 42.312 15.972C42.036 15.588 41.514 15.396 40.746 15.396C40.35 15.396 39.966 15.486 39.594 15.666C39.234 15.834 38.916 16.098 38.64 16.458C38.52 16.614 38.418 16.8 38.334 17.016C38.262 17.22 38.202 17.436 38.154 17.664C38.106 17.892 38.07 18.12 38.046 18.348C38.034 18.576 38.028 18.786 38.028 18.978V24H36.948V17.556C36.948 16.884 36.804 16.356 36.516 15.972C36.24 15.588 35.718 15.396 34.95 15.396C34.554 15.396 34.17 15.486 33.798 15.666C33.438 15.834 33.12 16.098 32.844 16.458C32.724 16.614 32.622 16.8 32.538 17.016C32.466 17.22 32.406 17.436 32.358 17.664C32.31 17.892 32.274 18.12 32.25 18.348C32.238 18.576 32.232 18.786 32.232 18.978V24ZM52.3921 19.104C51.9361 19.296 51.4741 19.422 51.0061 19.482C50.5381 19.542 50.0701 19.59 49.6021 19.626C48.7741 19.686 48.1261 19.872 47.6581 20.184C47.2021 20.496 46.9741 20.97 46.9741 21.606C46.9741 21.894 47.0281 22.146 47.1361 22.362C47.2561 22.566 47.4061 22.74 47.5861 22.884C47.7781 23.016 47.9941 23.118 48.2341 23.19C48.4861 23.25 48.7381 23.28 48.9901 23.28C49.4221 23.28 49.8421 23.226 50.2501 23.118C50.6581 23.01 51.0181 22.848 51.3301 22.632C51.6541 22.404 51.9121 22.122 52.1041 21.786C52.2961 21.438 52.3921 21.03 52.3921 20.562V19.104ZM50.5741 18.564C50.7781 18.54 51.0181 18.504 51.2941 18.456C51.5821 18.408 51.8161 18.342 51.9961 18.258C52.1761 18.174 52.2841 18.036 52.3201 17.844C52.3681 17.64 52.3921 17.454 52.3921 17.286C52.3921 16.734 52.2121 16.284 51.8521 15.936C51.5041 15.576 50.9101 15.396 50.0701 15.396C49.6981 15.396 49.3561 15.432 49.0441 15.504C48.7321 15.564 48.4561 15.678 48.2161 15.846C47.9881 16.002 47.7961 16.218 47.6401 16.494C47.4961 16.758 47.4001 17.094 47.3521 17.502H46.2541C46.2901 16.95 46.4161 16.482 46.6321 16.098C46.8481 15.702 47.1241 15.384 47.4601 15.144C47.8081 14.892 48.2041 14.712 48.6481 14.604C49.1041 14.484 49.5841 14.424 50.0881 14.424C50.5561 14.424 50.9941 14.478 51.4021 14.586C51.8221 14.682 52.1821 14.844 52.4821 15.072C52.7941 15.288 53.0341 15.582 53.2021 15.954C53.3821 16.326 53.4721 16.782 53.4721 17.322V22.398C53.4721 22.818 53.5441 23.088 53.6881 23.208C53.8441 23.316 54.1501 23.286 54.6061 23.118V23.964C54.5221 23.988 54.3961 24.024 54.2281 24.072C54.0721 24.12 53.9161 24.144 53.7601 24.144C53.5921 24.144 53.4301 24.126 53.2741 24.09C53.0941 24.066 52.9501 24.012 52.8421 23.928C52.7341 23.832 52.6441 23.724 52.5721 23.604C52.5121 23.472 52.4701 23.334 52.4461 23.19C52.4221 23.034 52.4101 22.872 52.4101 22.704C51.9541 23.208 51.4321 23.592 50.8441 23.856C50.2561 24.12 49.6201 24.252 48.9361 24.252C48.5281 24.252 48.1321 24.198 47.7481 24.09C47.3761 23.982 47.0461 23.814 46.7581 23.586C46.4701 23.358 46.2421 23.082 46.0741 22.758C45.9061 22.422 45.8221 22.026 45.8221 21.57C45.8221 19.986 46.9081 19.05 49.0801 18.762L50.5741 18.564ZM59.5681 24.036C59.4361 24.06 59.2621 24.102 59.0461 24.162C58.8301 24.222 58.5901 24.252 58.3261 24.252C57.7861 24.252 57.3721 24.12 57.0841 23.856C56.8081 23.58 56.6701 23.094 56.6701 22.398V15.576H55.3561V14.676H56.6701V12.084H57.7501V14.676H59.4961V15.576H57.7501V21.966C57.7501 22.194 57.7561 22.392 57.7681 22.56C57.7801 22.728 57.8161 22.866 57.8761 22.974C57.9361 23.082 58.0261 23.16 58.1461 23.208C58.2781 23.256 58.4581 23.28 58.6861 23.28C58.8301 23.28 58.9741 23.268 59.1181 23.244C59.2741 23.22 59.4241 23.19 59.5681 23.154V24.036ZM61.4639 24V14.676H62.5439V24H61.4639ZM61.4099 12.642V11.04H62.5979V12.642H61.4099Z" fill="white"/>
</svg>
