<svg width="70" height="48" viewBox="0 0 70 48" fill="none" xmlns="http://www.w3.org/2000/svg">
<rect x="69.0566" y="0.742188" width="47.084" height="69.0566" rx="4" transform="rotate(90 69.0566 0.742188)" fill="#FFDE80"/>
<path d="M40.2715 35.4539H51.9861V38.854H40.2715V35.4539ZM40.2715 26.3829H63.7008V29.783H40.2715V26.3829ZM40.2715 17.3151H63.7008V20.712H40.2715V17.3151ZM40.2715 8.24414H63.7008V11.6442H40.2715V8.24414Z" fill="#EDB000"/>
<path fill-rule="evenodd" clip-rule="evenodd" d="M19.6709 8.58789C11.4062 8.58789 4.70508 15.1773 4.70508 23.442C4.70508 31.7067 11.4062 38.4078 19.6709 38.4078C27.8239 38.4078 34.525 31.7067 34.525 23.442C34.525 15.1773 27.8239 8.58789 19.6709 8.58789ZM19.6709 12.0501C24.6967 12.0501 29.0524 15.289 30.616 19.7564C23.4681 18.6395 16.2086 18.5279 8.83742 19.7564C10.401 15.289 14.645 12.0501 19.6709 12.0501ZM17.6605 34.8339C12.6347 33.9404 8.16731 29.0262 8.39068 23.6654C13.8632 23.5537 18.554 29.9197 17.6605 34.8339ZM21.5695 34.8339C26.707 33.9404 31.1744 29.0262 30.951 23.6654C25.4785 23.5537 20.7877 29.9197 21.5695 34.8339ZM19.6709 21.655C20.676 21.655 21.4578 22.4368 21.4578 23.442C21.4578 24.4472 20.676 25.3406 19.6709 25.3406C18.6657 25.3406 17.7722 24.4472 17.7722 23.442C17.7722 22.4368 18.6657 21.655 19.6709 21.655Z" fill="#EDB000"/>
</svg>
