<svg width="70" height="44" viewBox="0 0 70 44" fill="none" xmlns="http://www.w3.org/2000/svg">
<rect y="0.277344" width="69.0568" height="43.3297" rx="4" fill="#ACE4CB"/>
<path d="M25.0931 12.6268C25.0918 12.6255 25.0897 12.6252 25.088 12.626C25.0863 12.6268 25.0843 12.6265 25.0829 12.6252C24.261 11.8279 23.1251 11.3377 21.8703 11.3377C20.6087 11.3377 19.4691 11.8288 18.6469 12.6274C17.8248 13.4176 17.3201 14.5207 17.3201 15.7391C17.3201 16.9602 17.8248 18.0605 18.6469 18.8536C19.4691 19.6493 20.6087 20.1433 21.8703 20.1433C23.1251 20.1433 24.261 19.6502 25.0829 18.8557C25.0843 18.8544 25.0863 18.8541 25.088 18.8549C25.0897 18.8558 25.0918 18.8554 25.0931 18.8541C25.9111 18.0585 26.4177 16.9563 26.4177 15.7391C26.4177 14.5219 25.9111 13.4224 25.0931 12.6268ZM21.8703 34.8128H9.48126C9.47974 34.8128 9.47852 34.8116 9.47852 34.8101V31.509V9.4043C9.47852 8.85201 9.92623 8.4043 10.4785 8.4043H10.9924H33.2593C33.8116 8.4043 34.2593 8.85201 34.2593 9.4043V34.8101C34.2593 34.8116 34.258 34.8128 34.2565 34.8128H21.8703ZM30.8582 31.8795C31.0628 31.8795 31.2287 31.7136 31.2287 31.509C31.2287 29.3193 30.1996 27.1378 28.4475 25.5435C26.8089 24.0508 24.5352 23.0739 21.8703 23.0739C19.2054 23.0739 16.9289 24.0508 15.2903 25.5435C13.5382 27.1378 12.5063 29.3193 12.5063 31.509C12.5063 31.7136 12.6722 31.8795 12.8767 31.8795H30.8582ZM39.178 32.8795C39.178 32.3272 39.6257 31.8795 40.178 31.8795H48.2848C48.8371 31.8795 49.2848 32.3272 49.2848 32.8795V33.8128C49.2848 34.3651 48.8371 34.8128 48.2848 34.8128H40.178C39.6257 34.8128 39.178 34.3651 39.178 33.8128V32.8795ZM39.178 25.0535C39.178 24.5012 39.6257 24.0535 40.178 24.0535H58.3916C58.9439 24.0535 59.3916 24.5012 59.3916 25.0535V25.9869C59.3916 26.5392 58.9439 26.9869 58.3916 26.9869H40.178C39.6257 26.9869 39.178 26.5392 39.178 25.9869V25.0535ZM39.178 17.2303C39.178 16.678 39.6257 16.2303 40.178 16.2303H58.3916C58.9439 16.2303 59.3916 16.678 59.3916 17.2303V18.1609C59.3916 18.7132 58.9439 19.1609 58.3916 19.1609H40.178C39.6257 19.1609 39.178 18.7132 39.178 18.1609V17.2303ZM39.178 9.4043C39.178 8.85201 39.6257 8.4043 40.178 8.4043H58.3916C58.9439 8.4043 59.3916 8.85201 59.3916 9.4043V10.3377C59.3916 10.8899 58.9439 11.3377 58.3916 11.3377H40.178C39.6257 11.3377 39.178 10.8899 39.178 10.3377V9.4043Z" fill="#00B257"/>
</svg>
