<svg width="52" height="18" viewBox="0 0 52 18" fill="none" xmlns="http://www.w3.org/2000/svg">
<path d="M31.3551 6.14817C30.3839 6.14817 29.6698 6.53381 29.227 7.17653C28.8271 6.51952 28.1701 6.14817 27.2846 6.14817C26.3705 6.14817 25.6992 6.50524 25.2993 7.10511V6.34813H23.4568V13.4895H25.2993V9.47604C25.2993 8.40484 25.8563 7.8621 26.6418 7.8621C27.4131 7.8621 27.8416 8.37628 27.8416 9.21896V13.4895H29.6841V9.47604C29.6841 8.40484 30.1982 7.8621 31.0123 7.8621C31.7836 7.8621 32.2121 8.37628 32.2121 9.21896V13.4895H34.0546V9.09041C34.0546 7.30507 32.9834 6.14817 31.3551 6.14817Z" fill="#EDF0F5"/>
<path d="M41.0468 6.34813V7.19081C40.5327 6.54809 39.7614 6.14817 38.7188 6.14817C36.8192 6.14817 35.2481 7.79068 35.2481 9.91881C35.2481 12.0469 36.8192 13.6894 38.7188 13.6894C39.7614 13.6894 40.5327 13.2895 41.0468 12.6468V13.4895H42.8893V6.34813H41.0468ZM39.0615 11.9327C37.9332 11.9327 37.0905 11.1186 37.0905 9.91881C37.0905 8.71906 37.9332 7.90495 39.0615 7.90495C40.2042 7.90495 41.0468 8.71906 41.0468 9.91881C41.0468 11.1186 40.2042 11.9327 39.0615 11.9327Z" fill="#EDF0F5"/>
<path d="M48.6449 8.11919V6.34813H47.031V4.34855L45.1885 4.90558V6.34813H43.9459V8.11919H45.1885V11.09C45.1885 13.0182 46.0597 13.7751 48.6449 13.4895V11.8184C47.588 11.8755 47.031 11.8613 47.031 11.09V8.11919H48.6449Z" fill="#EDF0F5"/>
<path d="M50.8581 5.49117C51.4865 5.49117 52.0007 4.97699 52.0007 4.36283C52.0007 3.74868 51.4865 3.22021 50.8581 3.22021C50.2439 3.22021 49.7297 3.74868 49.7297 4.36283C49.7297 4.97699 50.2439 5.49117 50.8581 5.49117ZM49.944 13.4895H51.7864V6.34813H49.944V13.4895Z" fill="#EDF0F5"/>
<path d="M16.3811 7.84903C16.4773 7.46145 16.5734 7.00926 16.6055 6.52478C16.6055 6.94466 16.5254 7.39685 16.3811 7.84903Z" fill="#00AB62"/>
<path d="M2.45146 10.2063C2.32323 9.72181 2.27515 9.25348 2.27515 8.81744C2.32323 9.64106 2.45146 10.174 2.45146 10.2063Z" fill="#00B4FF"/>
<path d="M2.45146 10.2065C2.43543 10.1742 2.3072 9.64127 2.27515 8.81765V8.8015C2.27515 8.34931 2.32323 7.92943 2.4194 7.5257C2.25912 8.8984 2.43543 10.1096 2.45146 10.2065Z" fill="#706766"/>
<path d="M4.79731 12.5041C4.31201 13.7116 3.85495 15.0593 3.57654 15.9128C3.40879 16.4271 2.93118 16.7795 2.39024 16.7795C1.91396 16.7795 1.76855 16.3865 2.21242 16.2138C2.33406 16.1665 2.42128 16.1379 2.43352 16.134C2.43483 16.1335 2.43506 16.1335 2.43635 16.133C2.4766 16.1176 3.39255 15.7041 2.46705 10.2067C4.02179 11.0141 4.57292 11.2929 4.79731 12.5041Z" fill="#FFC766"/>
<path d="M2.45146 10.2063C2.32323 9.72181 2.27515 9.25348 2.27515 8.81744C2.32323 9.64106 2.45146 10.174 2.45146 10.2063Z" fill="#FFA200"/>
<path d="M5.83485 10.5939C4.85712 10.5454 3.64516 10.624 2.45288 10.2063C2.50097 10.1094 3.28517 8.26835 4.32701 6.05588C4.82389 5.86209 5.48078 5.63649 6.24895 5.94333C6.24895 5.94333 6.23472 5.96105 6.28281 5.97719C6.47578 7.46809 6.24835 9.06924 5.83485 10.5939Z" fill="#EA6766"/>
<path d="M5.83485 10.5943C5.5784 11.6601 5.22577 12.6614 4.88918 13.5173C4.64876 12.3061 4.00763 10.998 2.45288 10.2067C3.73514 10.4328 4.85712 10.5458 5.83485 10.5943Z" fill="#EA6766"/>
<path d="M6.90791 10.6267C6.54224 13.1531 6.11273 15.6366 5.73208 16.6534C5.61405 16.9686 5.29848 17.1026 4.96186 17.1026H4.84557C4.38689 17.1026 4.00927 16.9525 4.37815 16.6799C4.51297 16.5803 4.86294 16.2702 4.89225 16.1051C4.9737 15.6466 5.1013 14.626 4.88835 13.5175C5.22494 12.6615 5.57756 11.6603 5.83402 10.5944C6.2187 10.6267 6.57132 10.6267 6.90791 10.6267Z" fill="#EA6766"/>
<path d="M7.77112 3.80803C7.48261 3.74343 7.22616 3.69498 6.96971 3.66268C6.58503 3.61424 6.23241 3.61424 5.91184 3.63039C5.91184 3.63039 5.91184 3.64654 5.92787 3.64654C6.18432 4.16332 7.62687 5.05153 7.62687 5.05153C7.62687 6.11739 6.53575 5.99211 6.24724 5.95981C6.34341 7.54245 6.17684 9.20196 5.82422 10.6392C6.2089 10.6554 6.90697 10.6356 7.24357 10.6195C7.72442 7.24427 7.78715 3.80803 7.77112 3.80803C7.78715 3.80803 7.78715 3.80803 7.77112 3.80803Z" fill="#EA6766"/>
<path d="M4.34202 6.05621C3.30018 8.26868 2.49877 10.1097 2.45068 10.2066C2.45068 10.0451 2.38657 6.84754 4.34202 6.05621Z" fill="#EA6766"/>
<path d="M5.91527 3.60183C5.77102 3.61798 5.62676 3.63413 5.49854 3.65028C5.57868 3.47263 5.67485 3.29499 5.77102 3.1012C5.8191 3.23039 5.91527 3.56953 5.91527 3.60183Z" fill="#706766"/>
<path d="M5.77078 3.1012C5.67461 3.27884 5.59447 3.45648 5.4983 3.65028C5.25787 3.68258 5.01745 3.74717 4.80908 3.82792C5.35404 3.35959 5.77078 3.1012 5.77078 3.1012Z" fill="#706766"/>
<path d="M7.62942 5.02243C7.62942 6.08829 6.53619 5.99211 6.24768 5.95981C6.1996 5.15233 6.15482 4.40875 5.93042 3.61743C6.17084 4.13421 7.62942 5.02243 7.62942 5.02243Z" fill="#706766"/>
<path d="M4.80765 3.82831C3.95815 4.55503 2.82014 5.83084 2.41943 7.54266C2.59574 6.07307 3.17276 4.42584 4.80765 3.82831Z" fill="#706766"/>
<path d="M5.49771 3.64996C5.09701 4.45743 4.71233 5.28105 4.34368 6.05623C2.3722 6.84755 2.45234 10.0451 2.45234 10.2066C2.43631 10.1097 2.26 8.89853 2.40426 7.54196C2.80497 5.81399 3.959 4.55433 4.79247 3.82761C5.01687 3.74686 5.25729 3.68226 5.49771 3.64996Z" fill="#706766"/>
<path d="M6.24842 5.96041C6.20034 5.96041 6.19762 5.96041 6.19762 5.96041C5.42827 5.76661 4.84063 5.84618 4.34375 6.03998C4.7124 5.2648 5.09708 4.44119 5.49779 3.63371C5.62601 3.61757 5.77027 3.60142 5.91452 3.58527C5.91452 3.58527 5.91452 3.60142 5.93055 3.60142C6.15495 4.40889 6.20034 5.16908 6.24842 5.96041Z" fill="#706766"/>
<path d="M14.7355 13.5401C14.8272 13.7667 14.8488 14.0191 14.7743 14.2519L14.1662 16.1535C14.0439 16.5358 13.6886 16.7952 13.2872 16.7952H13.1938C12.5865 16.7952 12.3841 16.3423 12.9426 16.1038C13.0135 16.0735 13.058 16.0566 13.058 16.0566C13.058 16.0566 14.2115 14.4878 11.9574 11.7727C11.3804 11.2075 10.9957 10.5131 10.7393 9.77021C11.1079 9.54412 11.4079 9.23188 11.6163 8.95734C11.6804 9.08653 11.7911 9.2078 11.8195 9.34679C11.8355 9.36294 11.8703 9.38223 11.8703 9.41453C12.2229 9.96361 12.6658 10.4702 13.2588 10.9385C13.7076 11.2938 14.0531 11.65 14.3256 12.0053C14.4038 12.6357 14.5968 13.1977 14.7355 13.5401Z" fill="#CAEE66"/>
<path d="M11.5884 8.979C11.6525 9.10819 11.7326 9.22123 11.7967 9.35043C11.7326 9.22123 11.6525 9.10819 11.5884 8.979C11.1716 8.23612 10.8831 7.3479 10.7549 6.28204C10.8671 7.13796 11.1075 8.07463 11.5884 8.979Z" fill="#A6E200"/>
<path d="M16.3646 7.86481C16.2364 8.30084 16.1081 8.62383 16.0601 8.73687C16.1081 8.52693 16.1883 8.31699 16.2684 8.10705C16.3165 8.0263 16.3486 7.94555 16.3646 7.86481Z" fill="#A6E200"/>
<path d="M16.5878 6.50855C16.5397 4.68367 14.9529 3.21407 12.196 3.24637C12.2602 3.24637 12.3243 3.24637 12.3884 3.24637C12.4846 3.24637 12.5807 3.24637 12.6929 3.24637C13.4142 3.24637 14.0072 3.34327 14.4881 3.48861H14.5041C16.2512 4.02154 16.6359 5.32965 16.5878 6.50855Z" fill="#A6E200"/>
<path d="M16.7692 13.2389C16.8907 13.463 16.9421 13.7235 16.8877 13.9725L16.3622 16.377C16.2696 16.8007 15.8945 17.1028 15.4607 17.1028H15.1425C14.5572 17.1028 14.3828 16.6965 14.9328 16.4965C14.9461 16.4916 14.9534 16.4891 14.9534 16.4891C14.9534 16.4891 17.0247 15.5959 14.3123 12.0892C14.2963 11.96 14.3123 11.7573 14.3123 11.6281C15.0336 12.0318 15.7709 12.2902 16.412 12.4679C16.5376 12.788 16.6666 13.0497 16.7692 13.2389Z" fill="#66AA66"/>
<path d="M14.4399 12.3194C14.0707 11.5811 13.686 11.3046 13.2533 10.9493C12.6602 10.481 12.2114 9.94807 11.8428 9.39899C12.516 10.4164 13.9785 10.7968 14.3111 11.6438C14.3111 11.773 15.6395 13.7036 14.4399 12.3194Z" fill="#66AA66"/>
<path d="M16.3954 12.4677C15.7542 12.2901 15.0169 12.0317 14.2957 11.6279C14.2957 10.6428 14.6643 9.51235 16.0427 8.76948C16.0427 8.76948 16.0427 8.75333 16.0588 8.73718C15.6741 10.1906 16.0267 11.5633 16.3954 12.4677Z" fill="#66AA66"/>
<path d="M16.5884 6.50855C16.5723 7.00918 16.4762 7.46137 16.364 7.84896C16.364 7.84896 16.364 7.84896 16.364 7.86509C16.3319 7.94585 16.2999 8.02661 16.2678 8.10733C16.1716 8.31728 16.1075 8.52722 16.0595 8.73717C16.0434 8.76947 16.0434 8.76947 16.0434 8.76947C14.665 9.51236 14.2963 10.6428 14.3124 11.6441C13.4148 11.1434 12.5172 10.4329 11.844 9.3993C11.828 9.38314 11.8119 9.36701 11.8119 9.33471C11.7318 9.22165 11.6677 9.09247 11.6036 8.96325C13.1102 6.83154 10.8193 3.3868 10.8193 3.3868C10.8193 3.3868 10.8663 3.35942 10.9464 3.35942C10.9625 3.35942 10.9945 3.35942 11.0105 3.34327C11.4273 3.29482 11.8119 3.26252 12.1806 3.24637H12.1966C14.9535 3.21407 16.5403 4.68367 16.5884 6.50855Z" fill="#66AA66"/>
<path d="M10.7548 9.77067C9.95341 10.2713 8.73527 10.6105 6.92407 10.6266C7.42095 7.23524 7.77217 3.81007 7.77217 3.81007C8.55756 3.89081 9.58476 3.7954 10.8189 3.39166C10.7548 3.56931 9.80916 7.00913 10.7548 9.77067Z" fill="#EA6766"/>
<path d="M11.6159 8.97425C11.4075 9.26492 11.104 9.54402 10.7354 9.7701C9.78968 7.00855 10.755 3.58096 10.8031 3.40332C10.7871 3.51637 10.5466 4.7154 10.7389 6.24959V6.26574C10.8832 7.34775 11.2152 8.23136 11.6159 8.97425Z" fill="#EA6766"/>
<path d="M10.6723 6.21902C10.4799 4.66867 10.7685 3.50513 10.8193 3.3866C10.8193 3.3866 13.2693 7.02478 11.5813 8.9914C11.1806 8.24854 10.8005 7.28486 10.6723 6.21902Z" fill="#66AA66"/>
<path d="M16.284 8.09063C16.3161 8.00988 16.3482 7.92914 16.3802 7.84839C16.252 8.28442 16.1238 8.60741 16.0757 8.72046C16.1238 8.52666 16.1879 8.31672 16.284 8.09063Z" fill="#66D2FF"/>
<path d="M16.5899 6.52478C16.6059 6.94466 16.5258 7.39685 16.3655 7.84903C16.4777 7.47759 16.5738 7.00926 16.5899 6.52478Z" fill="#FFBD00"/>
<path d="M18.2375 12.6471C18.2755 12.714 18.2241 12.8007 18.1475 12.7941C17.8409 12.7679 17.1888 12.6922 16.397 12.4841C16.0283 11.5798 15.6757 10.207 16.0604 8.73745C16.1084 8.6244 16.2367 8.30143 16.3649 7.86538C16.3649 7.86538 16.3649 7.86538 16.3649 7.84925C16.5252 7.39706 16.5893 6.94487 16.5893 6.52498V6.50883C16.6374 5.32993 16.2527 4.02182 14.5056 3.48889C15.884 3.87648 17.1343 4.81314 17.1343 6.91257C17.1343 10.3978 17.9499 12.1408 18.2375 12.6471Z" fill="#66D2FF"/>
<path d="M16.5881 6.50841C16.54 4.68352 14.9532 3.21393 12.1963 3.24623H12.1803C11.8277 3.26238 11.427 3.29468 11.0103 3.34312C11.0744 3.32697 11.1385 3.32697 11.2186 3.31082C11.2507 3.31082 11.2667 3.31082 11.2988 3.29468C11.3308 3.29468 11.3789 3.29468 11.427 3.27853C11.5232 3.26238 11.6354 3.26238 11.7636 3.24623C11.8117 3.24623 11.8598 3.24623 11.9078 3.23008C11.9399 3.23008 11.9559 3.23008 11.988 3.23008C12.1162 3.23008 12.2444 3.21393 12.3727 3.21393C12.4688 3.21393 12.565 3.21393 12.6772 3.21393C13.2382 3.23008 13.8793 3.29468 14.4724 3.45617H14.4884C16.2515 4.0214 16.6362 5.3295 16.5881 6.50841Z" fill="#66D2FF"/>
<path fill-rule="evenodd" clip-rule="evenodd" d="M5.75414 0.016322C5.75414 0.016322 4.96875 0.258563 4.61615 0.775344C4.63216 0.726895 4.76039 0.177816 4.5841 0.000172613C4.56806 -0.0159768 0 1.09833 0 4.48972C0 8.51091 2.35616 10.142 2.45233 10.2066C-2.23631 3.21561 4.72021 1.93558 5.12911 1.86035L5.13062 1.86007L5.1342 1.86623C2.46757 4.04577 2.17996 7.07599 2.25999 8.81775C2.25999 8.36556 2.30807 7.94567 2.40424 7.54194C2.58055 6.07236 3.15757 4.42509 4.79247 3.82759C5.3374 3.35925 5.73813 3.11701 5.73813 3.11701H5.75414C5.5594 2.60383 5.18264 1.94959 5.1342 1.86623L5.14508 1.85736C5.14233 1.85791 5.13748 1.85881 5.13062 1.86007L5.12903 1.85736C5.12903 1.85736 5.93046 0.791492 5.75414 0.016322ZM3.09357 1.45352C3.09357 1.45352 3.75075 0.468402 4.47199 0.210012C4.48804 0.210012 4.60022 1.38892 3.09357 1.45352ZM5.57793 0.306967C5.03296 0.597658 4.82459 1.19518 4.82459 1.19518C5.27112 1.07248 5.48919 0.523916 5.55594 0.355983C5.56826 0.324995 5.57543 0.306967 5.57793 0.306967Z" fill="#66D2FF"/>
<path d="M2.27617 8.81726C2.27617 9.26944 2.34028 9.72163 2.45248 10.2061C-2.32394 3.08423 4.98494 1.88917 5.14522 1.85687C2.48454 4.03704 2.18 7.05697 2.27617 8.81726Z" fill="#66D2FF"/>
<path d="M2.45146 10.2063C2.32323 9.72181 2.27515 9.25348 2.27515 8.81744C2.32323 9.64106 2.45146 10.174 2.45146 10.2063Z" fill="#00B4FF"/>
<path d="M3.09106 1.45377C3.09106 1.45377 3.74823 0.468657 4.4695 0.210266C4.48552 0.210266 4.59772 1.38917 3.09106 1.45377Z" fill="#5AC8F6"/>
<path d="M5.56119 0.30658C5.56119 0.30658 5.3368 1.0656 4.80786 1.1948C4.82389 1.1948 5.03226 0.597269 5.56119 0.30658Z" fill="#5AC8F6"/>
</svg>
