<svg width="64" height="21" viewBox="0 0 64 21" fill="none" xmlns="http://www.w3.org/2000/svg">
<path d="M20.1113 9.63365C20.2294 9.1578 20.3475 8.60263 20.3868 8.00781C20.3868 8.52332 20.2884 9.07848 20.1113 9.63365Z" fill="#00AB62"/>
<path d="M3.01139 12.5255C2.85396 11.9306 2.79492 11.3556 2.79492 10.8203C2.85396 11.8315 3.01139 12.4858 3.01139 12.5255Z" fill="#00B4FF"/>
<path d="M3.01139 12.5296C2.99171 12.49 2.83428 11.8357 2.79492 10.8245V10.8046C2.79492 10.2495 2.85396 9.73396 2.97203 9.23828C2.77524 10.9236 2.99171 12.4106 3.01139 12.5296Z" fill="#706766"/>
<path d="M5.89154 15.348C5.29571 16.8305 4.73457 18.4851 4.39274 19.533C4.18679 20.1644 3.60042 20.5971 2.93629 20.5971C2.35154 20.5971 2.17301 20.1146 2.71797 19.9025C2.86731 19.8444 2.97439 19.8094 2.98941 19.8045C2.99102 19.804 2.99131 19.8039 2.99289 19.8033C3.04231 19.7845 4.16685 19.2768 3.03058 12.5273C4.9394 13.5187 5.61604 13.861 5.89154 15.348Z" fill="#FFC766"/>
<path d="M3.01139 12.5255C2.85396 11.9306 2.79492 11.3556 2.79492 10.8203C2.85396 11.8315 3.01139 12.4858 3.01139 12.5255Z" fill="#FFA200"/>
<path d="M7.16291 13.008C5.96253 12.9485 4.47455 13.045 3.01074 12.5322C3.06978 12.4132 4.03258 10.1529 5.31168 7.43652C5.92172 7.19859 6.72821 6.92161 7.67132 7.29834C7.67132 7.29834 7.65385 7.32008 7.7129 7.33991C7.94981 9.17034 7.67058 11.1361 7.16291 13.008Z" fill="#EA6766"/>
<path d="M7.16291 13.0032C6.84806 14.3118 6.41513 15.5411 6.00188 16.5919C5.7067 15.1049 4.91956 13.4989 3.01074 12.5273C4.58503 12.8049 5.96253 12.9437 7.16291 13.0032Z" fill="#EA6766"/>
<path d="M8.48109 13.0436C8.03214 16.1453 7.5048 19.1944 7.03746 20.4427C6.89256 20.8298 6.50511 20.9943 6.09184 20.9943H5.94907C5.38593 20.9943 4.9223 20.8099 5.3752 20.4753C5.54072 20.353 5.97039 19.9722 6.00638 19.7696C6.10637 19.2066 6.26303 17.9536 6.00159 16.5926C6.41484 15.5418 6.84776 14.3125 7.16262 13.0039C7.63491 13.0436 8.06784 13.0436 8.48109 13.0436Z" fill="#EA6766"/>
<path d="M9.54166 4.67527C9.18744 4.59596 8.87259 4.53648 8.55773 4.49683C8.08544 4.43734 7.65252 4.43734 7.25895 4.45717C7.25895 4.45717 7.25895 4.477 7.27863 4.477C7.59348 5.11147 9.36455 6.20197 9.36455 6.20197C9.36455 7.51057 8.02494 7.35675 7.67072 7.3171C7.78879 9.26017 7.58429 11.2976 7.15137 13.0622C7.62365 13.0821 8.48071 13.0578 8.89396 13.038C9.48432 8.89408 9.56134 4.67527 9.54166 4.67527C9.56134 4.67527 9.56134 4.67527 9.54166 4.67527Z" fill="#EA6766"/>
<path d="M5.33262 7.43359C4.05351 10.1499 3.06959 12.4103 3.01055 12.5292C3.01055 12.3309 2.93184 8.40513 5.33262 7.43359Z" fill="#EA6766"/>
<path d="M7.26164 4.42324C7.08454 4.44307 6.90743 4.4629 6.75 4.48272C6.84839 4.26462 6.96646 4.04652 7.08454 3.80859C7.14357 3.96721 7.26164 4.38358 7.26164 4.42324Z" fill="#706766"/>
<path d="M7.08452 3.80859C6.96645 4.02669 6.86806 4.24479 6.74999 4.48272C6.45481 4.52238 6.15963 4.60169 5.90381 4.70082C6.57288 4.12583 7.08452 3.80859 7.08452 3.80859Z" fill="#706766"/>
<path d="M9.36718 6.16638C9.36718 7.47498 8.02498 7.35689 7.67077 7.31723C7.61173 6.32587 7.55675 5.41294 7.28125 4.44141C7.57643 5.07588 9.36718 6.16638 9.36718 6.16638Z" fill="#706766"/>
<path d="M5.90378 4.69922C4.86082 5.59144 3.46364 7.1578 2.97168 9.25947C3.18814 7.45521 3.89657 5.43283 5.90378 4.69922Z" fill="#706766"/>
<path d="M6.74947 4.48828C6.25751 5.47964 5.78522 6.49083 5.33262 7.44254C2.91216 8.41408 3.01055 12.3399 3.01055 12.5381C2.99087 12.4192 2.77441 10.9321 2.95152 9.26664C3.44348 7.14513 4.86034 5.59861 5.88362 4.70638C6.15912 4.60724 6.4543 4.52794 6.74947 4.48828Z" fill="#706766"/>
<path d="M7.67145 7.3223C7.61241 7.3223 7.60908 7.3223 7.60908 7.3223C6.66451 7.08437 5.94304 7.18207 5.33301 7.42C5.78561 6.46828 6.2579 5.4571 6.74986 4.46573C6.90729 4.4459 7.0844 4.42608 7.26151 4.40625C7.26151 4.40625 7.26151 4.42608 7.28119 4.42608C7.55669 5.41744 7.61241 6.35076 7.67145 7.3223Z" fill="#706766"/>
<path d="M18.0909 16.6186C18.2035 16.8968 18.23 17.2067 18.1386 17.4925L17.3919 19.8272C17.2418 20.2965 16.8056 20.615 16.3128 20.615H16.1982C15.4525 20.615 15.204 20.0589 15.8897 19.7662C15.9767 19.729 16.0314 19.7082 16.0314 19.7082C16.0314 19.7082 17.4476 17.7821 14.6801 14.4488C13.9717 13.7548 13.4994 12.9022 13.1846 11.9902C13.6372 11.7126 14.0055 11.3293 14.2614 10.9922C14.3401 11.1508 14.476 11.2997 14.5108 11.4703C14.5305 11.4902 14.5732 11.5138 14.5732 11.5535C15.0061 12.2276 15.5498 12.8495 16.2779 13.4245C16.8289 13.8607 17.2531 14.298 17.5876 14.7342C17.6837 15.5083 17.9206 16.1982 18.0909 16.6186Z" fill="#CAEE66"/>
<path d="M14.2274 11.0221C14.3061 11.1807 14.4045 11.3195 14.4832 11.4781C14.4045 11.3195 14.3061 11.1807 14.2274 11.0221C13.7157 10.11 13.3615 9.01954 13.2041 7.71094C13.3419 8.76178 13.637 9.91177 14.2274 11.0221Z" fill="#A6E200"/>
<path d="M20.0922 9.65625C19.9347 10.1916 19.7773 10.5881 19.7183 10.7269C19.7773 10.4692 19.8757 10.2114 19.9741 9.95366C20.0331 9.85452 20.0725 9.75539 20.0922 9.65625Z" fill="#A6E200"/>
<path d="M20.3675 7.99012C20.3085 5.74964 18.3603 3.94536 14.9756 3.98502C15.0543 3.98502 15.133 3.98502 15.2117 3.98502C15.3298 3.98502 15.4479 3.98502 15.5856 3.98502C16.4712 3.98502 17.1993 4.10398 17.7896 4.28243H17.8093C19.9542 4.93672 20.4265 6.54273 20.3675 7.99012Z" fill="#A6E200"/>
<path d="M20.5896 16.255C20.7388 16.5301 20.8019 16.8499 20.7351 17.1557L20.09 20.1077C19.9763 20.6279 19.5157 20.9988 18.9832 20.9988H18.5925C17.8739 20.9988 17.6597 20.5 18.3351 20.2544C18.3514 20.2485 18.3603 20.2453 18.3603 20.2453C18.3603 20.2453 20.9033 19.1487 17.5732 14.8435C17.5535 14.6848 17.5732 14.436 17.5732 14.2773C18.4587 14.773 19.3639 15.0903 20.1511 15.3084C20.3053 15.7014 20.4637 16.0227 20.5896 16.255Z" fill="#66AA66"/>
<path d="M17.731 15.1284C17.2778 14.2221 16.8055 13.8826 16.2742 13.4464C15.5461 12.8714 14.9951 12.2171 14.5425 11.543C15.369 12.7921 17.1646 13.2591 17.573 14.299C17.573 14.4576 19.2039 16.8279 17.731 15.1284Z" fill="#66AA66"/>
<path d="M20.1316 15.3067C19.3445 15.0886 18.4392 14.7713 17.5537 14.2756C17.5537 13.0662 18.0063 11.6783 19.6987 10.7662C19.6987 10.7662 19.6987 10.7464 19.7183 10.7266C19.2461 12.511 19.679 14.1963 20.1316 15.3067Z" fill="#66AA66"/>
<path d="M20.3675 7.99012C20.3478 8.60476 20.2298 9.15993 20.092 9.63579C20.092 9.63579 20.092 9.6358 20.092 9.6556C20.0527 9.75475 20.0133 9.8539 19.974 9.95301C19.8559 10.2108 19.7772 10.4685 19.7182 10.7263C19.6985 10.7659 19.6985 10.7659 19.6985 10.7659C18.0061 11.678 17.5535 13.0659 17.5732 14.2952C16.4712 13.6805 15.3692 12.8082 14.5427 11.5392C14.523 11.5194 14.5033 11.4996 14.5033 11.4599C14.4049 11.3211 14.3262 11.1625 14.2475 11.0038C16.0973 8.38667 13.2847 4.15743 13.2847 4.15743C13.2847 4.15743 13.3423 4.12381 13.4407 4.12381C13.4604 4.12381 13.4997 4.12381 13.5194 4.10398C14.0311 4.0445 14.5033 4.00484 14.9559 3.98502H14.9756C18.3603 3.94536 20.3085 5.74964 20.3675 7.99012Z" fill="#66AA66"/>
<path d="M13.2042 11.9958C12.2202 12.6105 10.7246 13.0269 8.50098 13.0467C9.11101 8.88297 9.54222 4.67775 9.54222 4.67775C10.5065 4.77689 11.7676 4.65974 13.2828 4.16406C13.2042 4.38216 12.0431 8.60537 13.2042 11.9958Z" fill="#EA6766"/>
<path d="M14.2612 11.0193C14.0053 11.3762 13.6327 11.7189 13.1801 11.9964C12.0191 8.60597 13.2043 4.39779 13.2633 4.17969C13.2436 4.31848 12.9484 5.79057 13.1845 7.67416V7.69399C13.3616 9.02242 13.7692 10.1073 14.2612 11.0193Z" fill="#EA6766"/>
<path d="M13.1037 7.63372C12.8675 5.7303 13.2218 4.30177 13.2842 4.15625C13.2842 4.15625 16.2922 8.62298 14.2197 11.0375C13.7277 10.1255 13.2611 8.9423 13.1037 7.63372Z" fill="#66AA66"/>
<path d="M19.9936 9.93022C20.033 9.83109 20.0723 9.73195 20.1117 9.63281C19.9543 10.1682 19.7968 10.5647 19.7378 10.7035C19.7968 10.4656 19.8755 10.2078 19.9936 9.93022Z" fill="#66D2FF"/>
<path d="M20.3673 8.00781C20.387 8.52332 20.2886 9.07848 20.0918 9.63364C20.2295 9.17762 20.3476 8.60263 20.3673 8.00781Z" fill="#FFBD00"/>
<path d="M22.3908 15.5368C22.4375 15.619 22.3745 15.7254 22.2804 15.7173C21.9039 15.6852 21.1033 15.5923 20.1312 15.3367C19.6785 14.2264 19.2456 12.5411 19.7179 10.7368C19.7769 10.598 19.9344 10.2015 20.0918 9.66615C20.0918 9.66615 20.0918 9.66615 20.0918 9.64635C20.2886 9.09118 20.3673 8.536 20.3673 8.02049V8.00067C20.4263 6.55328 19.954 4.94727 17.8091 4.29297C19.5014 4.76882 21.0364 5.9188 21.0364 8.49635C21.0364 12.7753 22.0378 14.9153 22.3908 15.5368Z" fill="#66D2FF"/>
<path d="M20.3672 7.99398C20.3081 5.7535 18.36 3.94922 14.9753 3.98887H14.9556C14.5226 4.0087 14.0307 4.04836 13.519 4.10784C13.5978 4.08801 13.6765 4.08801 13.7749 4.06818C13.8142 4.06818 13.8339 4.06818 13.8733 4.04836C13.9126 4.04836 13.9717 4.04836 14.0307 4.02853C14.1488 4.0087 14.2865 4.0087 14.4439 3.98887C14.503 3.98887 14.562 3.98887 14.621 3.96905C14.6604 3.96905 14.6801 3.96905 14.7194 3.96905C14.8769 3.96905 15.0343 3.94922 15.1917 3.94922C15.3098 3.94922 15.4279 3.94922 15.5656 3.94922C16.2544 3.96905 17.0415 4.04836 17.7696 4.24663H17.7893C19.9539 4.94058 20.4262 6.54659 20.3672 7.99398Z" fill="#66D2FF"/>
<path fill-rule="evenodd" clip-rule="evenodd" d="M7.06458 0.0200392C7.06458 0.0200392 6.10033 0.317448 5.66743 0.95192C5.68708 0.892438 5.84451 0.218312 5.62808 0.000211924C5.60838 -0.0196153 0 1.34847 0 5.51221C0 10.4492 2.89274 12.4517 3.01081 12.531C-2.74561 3.94793 5.79518 2.37639 6.29721 2.28402L6.29906 2.28368L6.30346 2.29124C3.02953 4.96714 2.67641 8.68747 2.77468 10.8259C2.77468 10.2707 2.83371 9.75521 2.95178 9.25954C3.16824 7.45528 3.87667 5.43286 5.8839 4.69928C6.55293 4.12428 7.04493 3.82688 7.04493 3.82688H7.06458C6.82548 3.19683 6.36293 2.39359 6.30346 2.29124L6.31681 2.28035C6.31343 2.28103 6.30748 2.28213 6.29906 2.28368L6.29711 2.28035C6.29711 2.28035 7.28105 0.971746 7.06458 0.0200392ZM3.7981 1.78454C3.7981 1.78454 4.60493 0.575076 5.49044 0.25784C5.51014 0.25784 5.64787 1.70523 3.7981 1.78454ZM6.84824 0.376876C6.17916 0.733768 5.92334 1.46737 5.92334 1.46737C6.47156 1.31673 6.73928 0.643232 6.82124 0.437054C6.83637 0.399009 6.84517 0.376876 6.84824 0.376876Z" fill="#66D2FF"/>
<path d="M2.79452 10.8268C2.79452 11.382 2.87323 11.9371 3.01098 12.5319C-2.85322 3.78812 6.12018 2.3209 6.31696 2.28125C3.05034 4.95793 2.67645 8.66561 2.79452 10.8268Z" fill="#66D2FF"/>
<path d="M3.01139 12.5255C2.85396 11.9306 2.79492 11.3556 2.79492 10.8203C2.85396 11.8315 3.01139 12.4858 3.01139 12.5255Z" fill="#00B4FF"/>
<path d="M3.79785 1.78451C3.79785 1.78451 4.60467 0.575049 5.49021 0.257812C5.50989 0.257812 5.64764 1.7052 3.79785 1.78451Z" fill="#5AC8F6"/>
<path d="M6.8287 0.375C6.8287 0.375 6.5532 1.30688 5.90381 1.4655C5.92349 1.4655 6.17931 0.731891 6.8287 0.375Z" fill="#5AC8F6"/>
<path d="M32.232 17H31.152V7.676H32.232V9.08H32.268C32.544 8.54 32.94 8.132 33.456 7.856C33.972 7.568 34.536 7.424 35.148 7.424C35.58 7.424 35.946 7.472 36.246 7.568C36.546 7.664 36.798 7.796 37.002 7.964C37.218 8.12 37.392 8.306 37.524 8.522C37.668 8.738 37.788 8.972 37.884 9.224C38.196 8.612 38.61 8.162 39.126 7.874C39.654 7.574 40.254 7.424 40.926 7.424C41.562 7.424 42.066 7.532 42.438 7.748C42.822 7.952 43.116 8.228 43.32 8.576C43.524 8.912 43.656 9.302 43.716 9.746C43.788 10.19 43.824 10.646 43.824 11.114V17H42.744V10.556C42.744 9.884 42.6 9.356 42.312 8.972C42.036 8.588 41.514 8.396 40.746 8.396C40.35 8.396 39.966 8.486 39.594 8.666C39.234 8.834 38.916 9.098 38.64 9.458C38.52 9.614 38.418 9.8 38.334 10.016C38.262 10.22 38.202 10.436 38.154 10.664C38.106 10.892 38.07 11.12 38.046 11.348C38.034 11.576 38.028 11.786 38.028 11.978V17H36.948V10.556C36.948 9.884 36.804 9.356 36.516 8.972C36.24 8.588 35.718 8.396 34.95 8.396C34.554 8.396 34.17 8.486 33.798 8.666C33.438 8.834 33.12 9.098 32.844 9.458C32.724 9.614 32.622 9.8 32.538 10.016C32.466 10.22 32.406 10.436 32.358 10.664C32.31 10.892 32.274 11.12 32.25 11.348C32.238 11.576 32.232 11.786 32.232 11.978V17ZM52.3921 12.104C51.9361 12.296 51.4741 12.422 51.0061 12.482C50.5381 12.542 50.0701 12.59 49.6021 12.626C48.7741 12.686 48.1261 12.872 47.6581 13.184C47.2021 13.496 46.9741 13.97 46.9741 14.606C46.9741 14.894 47.0281 15.146 47.1361 15.362C47.2561 15.566 47.4061 15.74 47.5861 15.884C47.7781 16.016 47.9941 16.118 48.2341 16.19C48.4861 16.25 48.7381 16.28 48.9901 16.28C49.4221 16.28 49.8421 16.226 50.2501 16.118C50.6581 16.01 51.0181 15.848 51.3301 15.632C51.6541 15.404 51.9121 15.122 52.1041 14.786C52.2961 14.438 52.3921 14.03 52.3921 13.562V12.104ZM50.5741 11.564C50.7781 11.54 51.0181 11.504 51.2941 11.456C51.5821 11.408 51.8161 11.342 51.9961 11.258C52.1761 11.174 52.2841 11.036 52.3201 10.844C52.3681 10.64 52.3921 10.454 52.3921 10.286C52.3921 9.734 52.2121 9.284 51.8521 8.936C51.5041 8.576 50.9101 8.396 50.0701 8.396C49.6981 8.396 49.3561 8.432 49.0441 8.504C48.7321 8.564 48.4561 8.678 48.2161 8.846C47.9881 9.002 47.7961 9.218 47.6401 9.494C47.4961 9.758 47.4001 10.094 47.3521 10.502H46.2541C46.2901 9.95 46.4161 9.482 46.6321 9.098C46.8481 8.702 47.1241 8.384 47.4601 8.144C47.8081 7.892 48.2041 7.712 48.6481 7.604C49.1041 7.484 49.5841 7.424 50.0881 7.424C50.5561 7.424 50.9941 7.478 51.4021 7.586C51.8221 7.682 52.1821 7.844 52.4821 8.072C52.7941 8.288 53.0341 8.582 53.2021 8.954C53.3821 9.326 53.4721 9.782 53.4721 10.322V15.398C53.4721 15.818 53.5441 16.088 53.6881 16.208C53.8441 16.316 54.1501 16.286 54.6061 16.118V16.964C54.5221 16.988 54.3961 17.024 54.2281 17.072C54.0721 17.12 53.9161 17.144 53.7601 17.144C53.5921 17.144 53.4301 17.126 53.2741 17.09C53.0941 17.066 52.9501 17.012 52.8421 16.928C52.7341 16.832 52.6441 16.724 52.5721 16.604C52.5121 16.472 52.4701 16.334 52.4461 16.19C52.4221 16.034 52.4101 15.872 52.4101 15.704C51.9541 16.208 51.4321 16.592 50.8441 16.856C50.2561 17.12 49.6201 17.252 48.9361 17.252C48.5281 17.252 48.1321 17.198 47.7481 17.09C47.3761 16.982 47.0461 16.814 46.7581 16.586C46.4701 16.358 46.2421 16.082 46.0741 15.758C45.9061 15.422 45.8221 15.026 45.8221 14.57C45.8221 12.986 46.9081 12.05 49.0801 11.762L50.5741 11.564ZM59.5681 17.036C59.4361 17.06 59.2621 17.102 59.0461 17.162C58.8301 17.222 58.5901 17.252 58.3261 17.252C57.7861 17.252 57.3721 17.12 57.0841 16.856C56.8081 16.58 56.6701 16.094 56.6701 15.398V8.576H55.3561V7.676H56.6701V5.084H57.7501V7.676H59.4961V8.576H57.7501V14.966C57.7501 15.194 57.7561 15.392 57.7681 15.56C57.7801 15.728 57.8161 15.866 57.8761 15.974C57.9361 16.082 58.0261 16.16 58.1461 16.208C58.2781 16.256 58.4581 16.28 58.6861 16.28C58.8301 16.28 58.9741 16.268 59.1181 16.244C59.2741 16.22 59.4241 16.19 59.5681 16.154V17.036ZM61.4639 17V7.676H62.5439V17H61.4639ZM61.4099 5.642V4.04H62.5979V5.642H61.4099Z" fill="#2A2A2A"/>
</svg>
