<svg width="18" height="18" viewBox="0 0 18 18" fill="none" xmlns="http://www.w3.org/2000/svg">
<path d="M17.7178 16.2978L14.3178 12.9078C15.5663 11.3005 16.1554 9.27772 15.9649 7.25139C15.7744 5.22505 14.8188 3.34749 13.2926 2.001C11.7664 0.654508 9.78441 -0.0596609 7.75014 0.00390671C5.71587 0.0674743 3.7823 0.903999 2.34315 2.34315C0.903999 3.7823 0.0674743 5.71587 0.00390671 7.75014C-0.0596609 9.78441 0.654508 11.7664 2.001 13.2926C3.34749 14.8188 5.22505 15.7744 7.25139 15.9649C9.27772 16.1554 11.3005 15.5663 12.9078 14.3178L16.2978 17.7078C16.4891 17.8716 16.7351 17.9572 16.9868 17.9475C17.2385 17.9377 17.4772 17.8334 17.6553 17.6553C17.8334 17.4772 17.9377 17.2385 17.9475 16.9868C17.9572 16.7351 17.8716 16.4891 17.7078 16.2978H17.7178ZM2.00775 8.00775C2.00775 6.82107 2.35965 5.66103 3.01894 4.67433C3.67823 3.68764 4.6153 2.9186 5.71165 2.46448C6.80801 2.01035 8.01441 1.89153 9.1783 2.12304C10.3422 2.35455 11.4113 2.926 12.2504 3.76511C13.0895 4.60423 13.661 5.67333 13.8925 6.83721C14.124 8.0011 14.0052 9.2075 13.551 10.3039C13.0969 11.4002 12.3279 12.3373 11.3412 12.9966C10.3545 13.6559 9.19444 14.0078 8.00775 14.0078C6.41646 14.0078 4.89033 13.3756 3.76511 12.2504C2.6399 11.1252 2.00775 9.59905 2.00775 8.00775Z" fill="white"/>
<path d="M11.0078 7.00781H9.00781V5.00781C9.00781 4.7426 8.90246 4.48824 8.71492 4.30071C8.52738 4.11317 8.27303 4.00781 8.00781 4.00781C7.7426 4.00781 7.48824 4.11317 7.3007 4.30071C7.11317 4.48824 7.00781 4.7426 7.00781 5.00781V7.00781H5.00781C4.7426 7.00781 4.48824 7.11317 4.30071 7.3007C4.11317 7.48824 4.00781 7.7426 4.00781 8.00781C4.00781 8.27303 4.11317 8.52738 4.30071 8.71492C4.48824 8.90246 4.7426 9.00781 5.00781 9.00781H7.00781V11.0078C7.00781 11.273 7.11317 11.5274 7.3007 11.7149C7.48824 11.9025 7.7426 12.0078 8.00781 12.0078C8.27303 12.0078 8.52738 11.9025 8.71492 11.7149C8.90246 11.5274 9.00781 11.273 9.00781 11.0078V9.00781H11.0078C11.273 9.00781 11.5274 8.90246 11.7149 8.71492C11.9025 8.52738 12.0078 8.27303 12.0078 8.00781C12.0078 7.7426 11.9025 7.48824 11.7149 7.3007C11.5274 7.11317 11.273 7.00781 11.0078 7.00781Z" fill="white"/>
</svg>
