<svg width="212" height="117" viewBox="0 0 212 117" fill="none" xmlns="http://www.w3.org/2000/svg">
<path d="M1 89.4166V115.105H25.679L1 89.4166Z" fill="#F6E049" stroke="#F6E049" stroke-miterlimit="10" stroke-linecap="round" stroke-linejoin="round"/>
<path d="M109.446 115.105H211.001V45.7198C211.001 45.7198 207.058 69.9099 179.32 77.2426C145.731 86.1207 175.662 107.173 109.446 115.105Z" fill="#F3F6E6" stroke="#F3F6E6" stroke-miterlimit="10" stroke-linejoin="round"/>
<path d="M155.634 7.40033V10.365" stroke="#383A48" stroke-miterlimit="10" stroke-linecap="round" stroke-linejoin="round"/>
<path d="M155.634 18.0288V20.9777" stroke="#383A48" stroke-miterlimit="10" stroke-linecap="round" stroke-linejoin="round"/>
<path d="M148.853 14.1969H151.801" stroke="#383A48" stroke-miterlimit="10" stroke-linecap="round" stroke-linejoin="round"/>
<path d="M159.466 14.1969H162.43" stroke="#383A48" stroke-miterlimit="10" stroke-linecap="round" stroke-linejoin="round"/>
<path d="M150.84 9.38727L152.921 11.4846" stroke="#383A48" stroke-miterlimit="10" stroke-linecap="round" stroke-linejoin="round"/>
<path d="M158.344 16.9092L160.441 18.9908" stroke="#383A48" stroke-miterlimit="10" stroke-linecap="round" stroke-linejoin="round"/>
<path d="M150.84 18.9908L152.921 16.9092" stroke="#383A48" stroke-miterlimit="10" stroke-linecap="round" stroke-linejoin="round"/>
<path d="M158.344 11.4846L160.441 9.38727" stroke="#383A48" stroke-miterlimit="10" stroke-linecap="round" stroke-linejoin="round"/>
<path d="M82.0395 107.977H21.2646V30.4078H61.8391L82.008 50.5609L82.0395 107.977Z" fill="#F3F6E6" stroke="#383A48" stroke-miterlimit="10" stroke-linecap="round" stroke-linejoin="round"/>
<path d="M61.8389 30.4078L82.0393 50.5609H61.8389V30.4078Z" fill="#F3F6E6" stroke="#383A48" stroke-miterlimit="10" stroke-linecap="round" stroke-linejoin="round"/>
<path d="M51.651 76.2018C56.7545 76.2018 60.8918 72.0646 60.8918 66.961C60.8918 61.8575 56.7545 57.7202 51.651 57.7202C46.5474 57.7202 42.4102 61.8575 42.4102 66.961C42.4102 72.0646 46.5474 76.2018 51.651 76.2018Z" fill="#383A48" stroke="#383A48" stroke-miterlimit="10" stroke-linecap="round" stroke-linejoin="round"/>
<path d="M55.3895 73.4264H47.9307V91.4034H55.3895V73.4264Z" fill="#383A48" stroke="#383A48" stroke-miterlimit="10" stroke-linecap="round" stroke-linejoin="round"/>
<path d="M71.8979 97.853H11.123V20.2681H51.6975L71.8664 40.437L71.8979 97.853Z" fill="#F3F6E6" stroke="#383A48" stroke-miterlimit="10" stroke-linecap="round" stroke-linejoin="round"/>
<path d="M51.7002 20.2681L71.9007 40.437H51.7002V20.2681Z" fill="#F3F6E6" stroke="#383A48" stroke-miterlimit="10" stroke-linecap="round" stroke-linejoin="round"/>
<path d="M41.5123 66.0621C46.6159 66.0621 50.7531 61.9249 50.7531 56.8213C50.7531 51.7178 46.6159 47.5805 41.5123 47.5805C36.4087 47.5805 32.2715 51.7178 32.2715 56.8213C32.2715 61.9249 36.4087 66.0621 41.5123 66.0621Z" fill="#383A48" stroke="#383A48" stroke-miterlimit="10" stroke-linecap="round" stroke-linejoin="round"/>
<path d="M45.2489 63.2867H37.79V81.2637H45.2489V63.2867Z" fill="#383A48" stroke="#383A48" stroke-miterlimit="10" stroke-linecap="round" stroke-linejoin="round"/>
<path d="M61.7749 87.7134H1V10.1285H41.5744L61.7434 30.2974L61.7749 87.7134Z" fill="#F3F6E6" stroke="#383A48" stroke-miterlimit="10" stroke-linecap="round" stroke-linejoin="round"/>
<path d="M41.5732 10.1284L61.7737 30.2974H41.5732V10.1284Z" fill="#F3F6E6" stroke="#383A48" stroke-miterlimit="10" stroke-linecap="round" stroke-linejoin="round"/>
<path d="M31.3853 55.9382C36.4889 55.9382 40.6262 51.801 40.6262 46.6974C40.6262 41.5939 36.4889 37.4566 31.3853 37.4566C26.2818 37.4566 22.1445 41.5939 22.1445 46.6974C22.1445 51.801 26.2818 55.9382 31.3853 55.9382Z" fill="#383A48" stroke="#383A48" stroke-miterlimit="10" stroke-linecap="round" stroke-linejoin="round"/>
<path d="M35.1073 53.1628H27.6484V71.1398H35.1073V53.1628Z" fill="#383A48" stroke="#383A48" stroke-miterlimit="10" stroke-linecap="round" stroke-linejoin="round"/>
<path d="M189.129 4.5146C177.554 4.57767 168.282 14.1496 168.282 25.7243V30.8178H96.5947V54.6137C96.5947 56.3325 97.9824 57.736 99.717 57.736C101.436 57.736 102.839 56.3483 102.839 54.6137V46.6975H108.69V51.3652C108.69 53.084 110.077 54.4875 111.812 54.4875C113.531 54.4875 114.934 53.0998 114.934 51.3652V43.449H168.282V48.5425C168.282 60.1171 177.554 69.6733 189.129 69.7522C200.751 69.8153 210.228 60.3852 210.228 48.779V25.4878C210.228 13.8816 200.751 4.45152 189.129 4.5146ZM199.19 48.7633C199.19 54.2352 194.727 58.6979 189.255 58.6979C183.783 58.6979 179.32 54.2352 179.32 48.7633V25.4878C179.32 20.0158 183.783 15.5531 189.255 15.5531C194.727 15.5531 199.19 20.0158 199.19 25.4878V48.7633Z" fill="#383A48" stroke="#383A48" stroke-miterlimit="10" stroke-linecap="round" stroke-linejoin="round"/>
<path d="M189.129 1.47114C177.554 1.53422 168.282 11.1062 168.282 22.6809V27.7743H96.5947V51.5702C96.5947 53.2891 97.9824 54.6925 99.717 54.6925C101.436 54.6925 102.839 53.3048 102.839 51.5702V43.654H108.69V48.3217C108.69 50.0406 110.077 51.4441 111.812 51.4441C113.531 51.4441 114.934 50.0564 114.934 48.3217V40.4055H168.282V45.499C168.282 57.0737 177.554 66.6299 189.129 66.7087C200.751 66.7718 210.228 57.3418 210.228 45.7356V22.4443C210.228 10.8381 200.751 1.40806 189.129 1.47114ZM199.19 45.7198C199.19 51.1917 194.727 55.6545 189.255 55.6545C183.783 55.6545 179.32 51.1917 179.32 45.7198V22.4443C179.32 16.9724 183.783 12.5097 189.255 12.5097C194.727 12.5097 199.19 16.9724 199.19 22.4443V45.7198Z" fill="#F6E049" stroke="#383A48" stroke-miterlimit="10" stroke-linecap="round" stroke-linejoin="round"/>
<path d="M93.0303 86.6411C109.651 98.7993 128.448 91.7977 129.095 76.1388C129.394 68.7903 120.737 64.6745 115.202 69.5157C110.014 74.0415 112.222 82.5254 118.939 84.0077C141.332 88.9592 157.653 68.8849 155.429 56.5691" stroke="#383A48" stroke-miterlimit="10" stroke-linecap="round" stroke-linejoin="round"/>
<path d="M80.3353 24.5732L65.8906 10.1285H80.3353V24.5732Z" fill="#4053FA" stroke="#4053FA" stroke-miterlimit="10" stroke-linecap="round" stroke-linejoin="round"/>
<path d="M206.977 91.7189C212.323 97.0647 212.323 105.738 206.977 111.084C201.631 116.429 192.958 116.429 187.613 111.084C185.941 109.412 184.806 107.425 184.175 105.312C188.843 106.7 194.094 105.549 197.768 101.874C201.442 98.2001 202.593 92.9331 201.206 88.2812C203.319 88.912 205.321 90.0631 206.977 91.7189Z" fill="#E0719E" stroke="#383A48" stroke-miterlimit="10" stroke-linecap="round" stroke-linejoin="round"/>
<path d="M197.76 101.876C202.465 97.1708 204.007 91.0852 201.205 88.2832C198.403 85.4812 192.318 87.0238 187.613 91.7287C182.908 96.4336 181.365 102.519 184.167 105.321C186.969 108.123 193.055 106.581 197.76 101.876Z" fill="#AAC6FC" stroke="#383A48" stroke-miterlimit="10" stroke-linecap="round" stroke-linejoin="round"/>
<path d="M197.769 82.5096C199.44 84.1811 200.576 86.1681 201.206 88.2812C196.539 86.8935 191.287 88.0446 187.613 91.7189C183.939 95.3931 182.788 100.66 184.175 105.312C182.062 104.681 180.075 103.546 178.404 101.874C173.058 96.5285 173.058 87.8554 178.404 82.5096C183.75 77.1638 192.423 77.1638 197.769 82.5096Z" fill="#E0719E" stroke="#383A48" stroke-miterlimit="10" stroke-linecap="round" stroke-linejoin="round"/>
<path d="M96.5947 12.415L99.102 9.90773C100.805 8.20464 103.581 8.20464 105.284 9.90773L107.57 12.1785C109.273 13.8816 112.049 13.8816 113.752 12.1785L116.022 9.89196C117.726 8.18888 120.501 8.18888 122.204 9.89196L124.491 12.1627C126.194 13.8658 128.969 13.8658 130.672 12.1627L132.943 9.87619C134.646 8.17311 137.421 8.17311 139.125 9.87619L141.427 12.1627V18.4705L139.125 16.1839C137.421 14.4808 134.646 14.4808 132.943 16.1839L130.672 18.4705C128.969 20.1735 126.194 20.1735 124.491 18.4705L122.204 16.1997C120.501 14.4966 117.726 14.4966 116.022 16.1997L113.752 18.4862C112.049 20.1893 109.273 20.1893 107.57 18.4862L105.284 16.2154C103.581 14.5124 100.805 14.5124 99.102 16.2154L96.5947 18.7228V12.415Z" fill="#F3F6E6" stroke="#F3F6E6" stroke-miterlimit="10" stroke-linejoin="round"/>
</svg>
