<svg width="15" height="17" viewBox="0 0 15 17" fill="none" xmlns="http://www.w3.org/2000/svg">
<path fill-rule="evenodd" clip-rule="evenodd" d="M5.40857 15.454C5.83475 15.454 6.18158 15.8008 6.18158 16.227C6.18158 16.6532 5.83475 17 5.40857 17H2.31777C2.00678 17 1.70346 16.9386 1.41933 16.8195C1.14289 16.7056 0.895882 16.5405 0.68215 16.3306C0.469698 16.1195 0.30076 15.8737 0.184296 15.5999C0.0614319 15.3145 0 15.0124 0 14.7014V2.31905C0 2.0055 0.0614319 1.70218 0.183016 1.41677C0.29948 1.14033 0.467138 0.892042 0.678311 0.67959C0.892042 0.467138 1.13905 0.299481 1.41549 0.183016C1.70218 0.0627117 2.0055 0 2.31777 0H5.40857C5.83475 0 6.18158 0.346834 6.18158 0.773018C6.18158 1.20048 5.83475 1.54604 5.40857 1.54604H2.31777C1.89159 1.54604 1.54476 1.89287 1.54476 2.31905V14.7014C1.54476 15.1161 1.89159 15.454 2.31777 15.454H5.40857ZM14.4899 7.82502C14.6998 7.96708 14.8341 8.19745 14.8341 8.49949C14.8341 8.80409 14.6998 9.03318 14.4899 9.17524L12.103 11.5621C11.7715 11.8923 11.2749 11.8923 10.9447 11.5621C10.6133 11.2306 10.6133 10.7341 10.9447 10.4039L12.0198 9.32754H6.55875C6.06218 9.32754 5.7307 8.99734 5.7307 8.49949C5.7307 8.00419 6.06218 7.67272 6.55875 7.67272H12.0198L10.9447 6.59766C10.6133 6.26618 10.6133 5.76961 10.9447 5.43813C11.2749 5.10666 11.7715 5.10666 12.103 5.43813L14.4899 7.82502Z" fill="#242424"/>
</svg>
