<svg width="57" height="40" viewBox="0 0 57 40" fill="none" xmlns="http://www.w3.org/2000/svg">
<rect x="56.4399" y="0.775391" width="38.4802" height="56.4376" rx="4" transform="rotate(90 56.4399 0.775391)" fill="#FFDE80"/>
<path d="M32.9106 29.1478H42.4846V31.9265H32.9106V29.1478ZM32.9106 21.7344H52.0586V24.5131H32.9106V21.7344ZM32.9106 14.3236H52.0586V17.0997H32.9106V14.3236ZM32.9106 6.91016H52.0586V9.68888H32.9106V6.91016Z" fill="#EDB000"/>
<path fill-rule="evenodd" clip-rule="evenodd" d="M16.0758 7.1875C9.32131 7.1875 3.84473 12.5728 3.84473 19.3273C3.84473 26.0817 9.32131 31.5583 16.0758 31.5583C22.7389 31.5583 28.2155 26.0817 28.2155 19.3273C28.2155 12.5728 22.7389 7.1875 16.0758 7.1875ZM16.0758 10.0171C20.1832 10.0171 23.743 12.6641 25.0208 16.3151C19.1792 15.4024 13.2462 15.3111 7.22195 16.3151C8.49982 12.6641 11.9683 10.0171 16.0758 10.0171ZM14.4328 28.6374C10.3253 27.9072 6.67429 23.8911 6.85685 19.5098C11.3294 19.4185 15.163 24.6213 14.4328 28.6374ZM17.6275 28.6374C21.8262 27.9072 25.4772 23.8911 25.2947 19.5098C20.8221 19.4185 16.9885 24.6213 17.6275 28.6374ZM16.0758 17.8668C16.8972 17.8668 17.5362 18.5058 17.5362 19.3273C17.5362 20.1487 16.8972 20.879 16.0758 20.879C15.2543 20.879 14.5241 20.1487 14.5241 19.3273C14.5241 18.5058 15.2543 17.8668 16.0758 17.8668Z" fill="#EDB000"/>
</svg>
