<svg width="65" height="41" viewBox="0 0 65 41" fill="none" xmlns="http://www.w3.org/2000/svg">
<rect x="0.714844" y="0.363281" width="63.9297" height="40.1128" rx="4" fill="#ACE4CB"/>
<path d="M23.9465 11.7879C23.9453 11.7867 23.9434 11.7864 23.9418 11.7872C23.9402 11.7879 23.9384 11.7876 23.9371 11.7864C23.1762 11.0484 22.1246 10.5945 20.963 10.5945C19.7951 10.5945 18.74 11.0492 17.9789 11.7884C17.2178 12.52 16.7506 13.5412 16.7506 14.6691C16.7506 15.7996 17.2178 16.8182 17.9789 17.5524C18.74 18.2891 19.7951 18.7463 20.963 18.7463C22.1246 18.7463 23.1762 18.2899 23.9371 17.5544C23.9384 17.5532 23.9402 17.5529 23.9418 17.5536C23.9434 17.5544 23.9453 17.5541 23.9465 17.5529C24.7038 16.8163 25.1727 15.796 25.1727 14.6691C25.1727 13.5423 24.7038 12.5245 23.9465 11.7879ZM20.963 32.3268H9.49375C9.49235 32.3268 9.49121 32.3256 9.49121 32.3242V29.2682L9.49121 8.87891C9.49121 8.32662 9.93893 7.87891 10.4912 7.87891H10.8927L31.4321 7.87891C31.9844 7.87891 32.4321 8.32662 32.4321 8.87891V32.3242C32.4321 32.3256 32.431 32.3268 32.4296 32.3268H20.963ZM29.2836 29.6112C29.473 29.6112 29.6265 29.4576 29.6265 29.2682C29.6265 27.2411 28.6738 25.2215 27.0519 23.7456C25.5349 22.3637 23.43 21.4594 20.963 21.4594C18.4959 21.4594 16.3885 22.3637 14.8715 23.7456C13.2495 25.2215 12.2942 27.2411 12.2942 29.2682C12.2942 29.4576 12.4477 29.6112 12.6371 29.6112H29.2836ZM36.9857 30.6112C36.9857 30.0589 37.4334 29.6112 37.9857 29.6112L45.3421 29.6112C45.8944 29.6112 46.3421 30.0589 46.3421 30.6112V31.3268C46.3421 31.8791 45.8944 32.3268 45.3421 32.3268H37.9857C37.4334 32.3268 36.9857 31.8791 36.9857 31.3268V30.6112ZM36.9857 23.3662C36.9857 22.814 37.4334 22.3662 37.9857 22.3662H54.6985C55.2508 22.3662 55.6985 22.814 55.6985 23.3662V24.0818C55.6985 24.6341 55.2508 25.0818 54.6985 25.0818L37.9857 25.0818C37.4334 25.0818 36.9857 24.6341 36.9857 24.0818V23.3662ZM36.9857 16.1238C36.9857 15.5716 37.4334 15.1238 37.9857 15.1238L54.6985 15.1238C55.2508 15.1238 55.6985 15.5716 55.6985 16.1238V16.8369C55.6985 17.3892 55.2508 17.8369 54.6985 17.8369H37.9857C37.4334 17.8369 36.9857 17.3892 36.9857 16.8369V16.1238ZM36.9857 8.87891C36.9857 8.32662 37.4334 7.87891 37.9857 7.87891L54.6985 7.87891C55.2508 7.87891 55.6985 8.32662 55.6985 8.87891V9.59449C55.6985 10.1468 55.2508 10.5945 54.6985 10.5945L37.9857 10.5945C37.4334 10.5945 36.9857 10.1468 36.9857 9.59449V8.87891Z" fill="#00B257"/>
</svg>
