<svg width="41" height="54" viewBox="0 0 41 54" fill="none" xmlns="http://www.w3.org/2000/svg">
<rect x="0.77832" y="0.25" width="40.1335" height="52.6752" rx="4" fill="#FACCD9"/>
<path d="M13.3275 28.9051C15.3073 30.8744 17.9356 31.9586 20.7268 31.9592C20.7274 31.9592 20.728 31.9592 20.7287 31.9592C20.7293 31.9592 20.7305 31.9592 20.7311 31.9592H20.7826C26.5473 31.9294 31.2168 27.2334 31.2242 21.4767C31.2242 21.473 31.2242 21.4686 31.2242 21.4643C31.2242 21.4606 31.2242 21.4575 31.2242 21.4544C31.2242 21.4401 31.2242 21.4252 31.2242 21.4104C31.2106 18.6272 30.1184 16.0107 28.1503 14.0427C26.1822 12.0752 23.5658 10.983 20.7807 10.9688H20.6754C14.9106 10.9985 10.2412 15.6952 10.235 21.4525C10.235 21.4562 10.2344 21.4606 10.2344 21.4643C10.2344 21.4668 10.235 21.4699 10.235 21.473C10.235 21.4878 10.2344 21.5027 10.2344 21.5176C10.248 24.3113 11.347 26.9352 13.3275 28.9051ZM22.8864 30.6866C24.0313 29.4872 24.9301 28.0999 25.5512 26.5875C26.3254 26.9023 27.0754 27.2966 27.7895 27.7689C26.5139 29.1971 24.8123 30.236 22.8864 30.6866ZM28.4323 26.9668C27.6271 26.4263 26.7798 25.9788 25.9033 25.6248C26.2132 24.6653 26.4159 23.6623 26.5033 22.6327C26.5213 22.4133 26.5349 22.1939 26.5424 21.975H30.1865C30.0868 23.8297 29.4508 25.5442 28.4323 26.9668ZM28.4268 15.9649C29.4483 17.3874 30.0861 19.1014 30.1859 20.9517H26.5393C26.4897 19.7045 26.264 18.4821 25.876 17.3131C26.7599 16.9591 27.6147 16.5085 28.4268 15.9649ZM27.7833 15.1634C27.06 15.6413 26.2994 16.0392 25.5146 16.3554C24.9977 15.1287 24.2916 13.9732 23.409 12.9269C23.2019 12.6821 22.9844 12.4446 22.7606 12.2147C24.7317 12.6498 26.4785 13.7048 27.7833 15.1634ZM21.2407 12.1917C21.7378 12.6182 22.2039 13.0868 22.6255 13.5871C23.4375 14.5485 24.0753 15.5998 24.5439 16.7013C23.4678 17.0372 22.357 17.2275 21.2407 17.2721V12.1917ZM21.2407 18.2968C22.4785 18.2509 23.7114 18.0389 24.9053 17.6614C25.2574 18.7332 25.4576 19.8409 25.5072 20.9517H21.2407V18.2968ZM21.2407 21.9757H25.5115C25.4688 23.0939 25.2741 24.2047 24.9313 25.2752C23.73 24.8915 22.4878 24.6777 21.2407 24.6312V21.9757ZM21.2407 25.6558C22.3688 25.7011 23.4926 25.8944 24.5799 26.2379C23.8664 27.9605 22.7482 29.5442 21.2407 30.8379V25.6558ZM13.6715 27.7664C14.385 27.2947 15.1338 26.9011 15.9067 26.5875C16.4268 27.847 17.1452 29.0328 18.0496 30.1033C18.2176 30.3023 18.393 30.4969 18.5728 30.6854C16.6493 30.2354 14.9478 29.1946 13.6715 27.7664ZM20.2173 30.8385C19.7201 30.412 19.2534 29.9434 18.8319 29.4425C17.9975 28.4551 17.3473 27.3728 16.875 26.2385C17.9641 25.8951 19.0885 25.7011 20.2173 25.6558V30.8385ZM20.2173 24.6312C18.9683 24.6777 17.7248 24.8921 16.5229 25.2764C16.1782 24.2004 15.9867 23.0896 15.9458 21.9763H20.2173V24.6312ZM20.2173 20.9517H15.9514C16.0028 19.8359 16.2055 18.7288 16.5551 17.6627C17.7471 18.0395 18.98 18.2509 20.2173 18.2968V20.9517ZM20.2173 12.1917V17.2721C19.1021 17.2275 17.992 17.0378 16.9159 16.7025C17.6312 15.014 18.7352 13.4631 20.2173 12.1917ZM18.698 12.2122C17.5147 13.4185 16.5849 14.8218 15.9427 16.3554C15.1555 16.038 14.393 15.6388 13.6678 15.1584C14.9708 13.6999 16.7194 12.6455 18.698 12.2122ZM13.025 15.9605C13.8389 16.5079 14.6968 16.9591 15.5832 17.3143C15.2571 18.3017 15.0445 19.3344 14.9546 20.3975C14.9391 20.5822 14.928 20.7676 14.9205 20.9523H11.2714C11.3706 19.0983 12.0059 17.3831 13.025 15.9605ZM14.915 21.9757C14.9559 23.2266 15.1716 24.4526 15.5516 25.626C14.6776 25.9794 13.8314 26.4263 13.0281 26.9656C12.0078 25.5436 11.3718 23.8291 11.272 21.9763H14.915V21.9757Z" fill="#EF557F"/>
<path d="M32.4355 40.9531H10.0473C9.21916 40.9531 8.54785 41.6238 8.54785 42.452C8.54785 43.2807 9.21916 43.9514 10.0473 43.9514H32.4355C33.2637 43.9514 33.9344 43.2807 33.9344 42.452C33.9344 41.6238 33.2637 40.9531 32.4355 40.9531Z" fill="#EF557F"/>
</svg>
