<svg width="135" height="31" viewBox="0 0 135 31" fill="none" xmlns="http://www.w3.org/2000/svg">
<path d="M0 15.2457H5.08351C6.26491 15.2408 7.44252 15.3784 8.5903 15.6555C9.63694 15.8998 10.6234 16.3495 11.4913 16.9779C12.3304 17.6017 13.0061 18.4156 13.4618 19.3513C13.9464 20.3273 14.1887 21.5098 14.1887 22.8989C14.2123 24.0242 13.9709 25.1396 13.4837 26.1567C13.031 27.0724 12.3821 27.8795 11.5822 28.5217C10.7618 29.1749 9.82442 29.6693 8.81915 29.9791C7.75878 30.3131 6.65231 30.4817 5.53952 30.4787H0V15.2457ZM3.389 27.3708H5.14745C5.88344 27.3765 6.6176 27.2972 7.33499 27.1343C7.96783 26.9968 8.56455 26.7296 9.08671 26.3499C9.58901 25.9729 9.98814 25.4777 10.2478 24.9092C10.5493 24.2215 10.6941 23.4766 10.6718 22.7273C10.688 22.0548 10.5427 21.3881 10.2478 20.782C9.97959 20.2458 9.58968 19.7784 9.10858 19.4162C8.60371 19.0455 8.03287 18.772 7.42586 18.6101C6.76114 18.4284 6.07431 18.3382 5.38471 18.342H3.389V27.3708Z" fill="#414141"/>
<path d="M19.1376 22.8573C19.1215 21.724 19.3319 20.5987 19.7568 19.5462C20.1453 18.5926 20.7337 17.7314 21.4833 17.0196C22.24 16.3139 23.1345 15.7687 24.1117 15.4174C26.2636 14.6734 28.6067 14.6734 30.7585 15.4174C31.7359 15.7683 32.6304 16.3136 33.3869 17.0196C34.137 17.731 34.7256 18.5923 35.1134 19.5462C35.5391 20.5985 35.7495 21.7239 35.7326 22.8573C35.7494 23.9901 35.5389 25.1149 35.1134 26.1666C34.7256 27.1206 34.137 27.9819 33.3869 28.6932C32.6309 29.3998 31.7362 29.9452 30.7585 30.2955C28.607 31.0416 26.2632 31.0416 24.1117 30.2955C23.1342 29.9448 22.2396 29.3995 21.4833 28.6932C20.7337 27.9814 20.1453 27.1202 19.7568 26.1666C19.3321 25.1147 19.1216 23.99 19.1376 22.8573ZM22.6562 22.8573C22.6476 23.5276 22.7616 24.194 22.9927 24.8242C23.2043 25.4 23.533 25.9266 23.9586 26.3715C24.3852 26.8135 24.9013 27.1614 25.473 27.3925C26.7374 27.8811 28.1412 27.8811 29.4056 27.3925C29.9771 27.1609 30.4931 26.8131 30.92 26.3715C31.3451 25.9262 31.6738 25.3997 31.8859 24.8242C32.3347 23.554 32.3347 22.1705 31.8859 20.9003C31.6752 20.3206 31.3465 19.79 30.92 19.3413C30.4926 18.9003 29.9768 18.5525 29.4056 18.3204C28.1412 17.8318 26.7374 17.8318 25.473 18.3204C24.9016 18.5521 24.3857 18.8999 23.9586 19.3413C23.5314 19.7894 23.2025 20.3202 22.9927 20.9003C22.7633 21.5275 22.6493 22.1903 22.6562 22.8573Z" fill="#414141"/>
<path d="M49.6914 15.2457H55.4043C56.1624 15.242 56.919 15.314 57.6625 15.4606C58.3224 15.5859 58.9511 15.8377 59.5135 16.2018C60.0489 16.5607 60.4827 17.0492 60.7738 17.6208C61.0857 18.2171 61.2411 18.966 61.2399 19.8676C61.2643 20.6358 61.116 21.3998 60.8058 22.1044C60.5394 22.6784 60.1279 23.1746 59.6111 23.5451C59.0716 23.92 58.4607 24.1824 57.8156 24.3163C57.0726 24.471 56.315 24.5464 55.5557 24.5411H53.0804V30.4754H49.6914V15.2457ZM53.0804 21.6947H55.3386C55.6341 21.6956 55.9289 21.6671 56.2187 21.6098C56.4873 21.5576 56.7447 21.4596 56.9793 21.32C57.2051 21.1816 57.392 20.9891 57.5228 20.7603C57.6685 20.4855 57.7393 20.1778 57.7281 19.8676C57.744 19.5351 57.6488 19.2068 57.4572 18.9332C57.2754 18.696 57.0365 18.5076 56.7622 18.3853C56.463 18.2515 56.1434 18.1676 55.8165 18.1371C55.4845 18.1026 55.1509 18.0848 54.817 18.0838H53.0804V21.6947Z" fill="#414141"/>
<path d="M66.9805 15.2456H70.3695V27.3707H76.646V30.4669H66.9805V15.2456Z" fill="#414141"/>
<path d="M87.053 15.2456H89.8598L96.5486 30.4669H92.7204L91.3944 27.2425H85.4208L84.1385 30.4669H80.4062L87.053 15.2456ZM88.3571 19.6743L86.4943 24.4044H90.2468L88.3571 19.6743Z" fill="#414141"/>
<path d="M34.2424 26.1816C33.1684 25.955 32.1511 25.5178 31.2505 24.8959C30.4175 24.3211 29.7115 23.5844 29.1757 22.7307C28.6479 21.8711 28.2946 20.9178 28.1358 19.9242C27.8124 17.7892 28.3063 15.6117 29.5207 13.8184C30.0923 12.9876 30.8229 12.2758 31.6712 11.7231C32.5239 11.1739 33.4815 10.8037 34.4847 10.6355C36.6718 10.2909 38.9092 10.7879 40.7377 12.0246C41.5707 12.5994 42.2767 13.3361 42.8125 14.1898C43.3395 15.0468 43.6927 15.9972 43.8524 16.9879C44.1758 19.1229 43.6819 21.3004 42.4675 23.0937C41.8959 23.925 41.1653 24.6374 40.317 25.1907C39.4638 25.7387 38.5063 26.1082 37.5035 26.2766C36.421 26.4611 35.3121 26.4288 34.2424 26.1816ZM34.6647 24.3162C35.4246 24.4993 36.215 24.5209 36.9839 24.3796C37.7528 24.2384 38.4827 23.9375 39.1256 23.4968C39.7456 23.0674 40.2739 22.5212 40.6805 21.8896C41.5464 20.5375 41.911 18.9297 41.712 17.341C41.6177 16.598 41.3758 15.8808 41.0002 15.2308C40.6053 14.5618 40.0754 13.9804 39.4435 13.5231C38.8116 13.0657 38.0913 12.7421 37.3275 12.5724C36.5637 12.4027 35.7727 12.3905 35.004 12.5367C34.2352 12.6829 33.5051 12.9842 32.8592 13.422C32.2371 13.8492 31.7069 14.3944 31.2993 15.0259C30.435 16.3787 30.0705 17.9859 30.2678 19.5745C30.3624 20.3174 30.6043 21.0345 30.9796 21.6847C31.371 22.3563 31.9018 22.9381 32.537 23.3917C33.1722 23.8453 33.8974 24.1604 34.6647 24.3162Z" fill="#A3A3A3"/>
<path d="M32.0615 21.4718C32.1631 21.8803 32.2195 22.2986 32.2297 22.7193C32.2548 23.3888 32.1579 24.0573 31.9437 24.6929C31.745 25.2739 31.429 25.8088 31.0148 26.2651C30.8025 26.498 30.5643 26.7064 30.3047 26.8864C30.865 27.8091 31.2773 28.8484 31.772 29.8177C32.4261 29.4769 33.025 29.0412 33.549 28.5253C34.2808 27.7955 34.8475 26.92 35.2115 25.957C35.6113 24.8927 35.7937 23.7605 35.7483 22.626C35.7339 21.877 35.6271 21.1325 35.4303 20.4092C34.3324 20.8371 33.207 21.192 32.0615 21.4718Z" fill="#414141"/>
<path d="M44.5894 12.9369C44.4769 12.9627 44.3587 12.9472 44.2568 12.8934C44.1549 12.8396 44.0762 12.751 44.0351 12.6442C43.9941 12.5373 43.9935 12.4193 44.0335 12.3121C44.0736 12.2048 44.1515 12.1156 44.2529 12.0608L50.5092 8.89619C50.6187 8.85449 50.7399 8.85426 50.8496 8.89555C50.9593 8.93685 51.0497 9.01676 51.1035 9.11996C51.1573 9.22317 51.1707 9.3424 51.1411 9.45479C51.1116 9.56718 51.0412 9.66482 50.9434 9.72899L44.687 12.8936C44.6566 12.9124 44.6238 12.9269 44.5894 12.9369Z" fill="#414141"/>
<path d="M38.5745 7.24301C38.5085 7.33428 38.4118 7.39927 38.3018 7.42629C38.1918 7.4533 38.0756 7.44057 37.9742 7.39039C37.8728 7.3402 37.7928 7.25586 37.7486 7.15251C37.7044 7.04917 37.6989 6.93361 37.7331 6.82662L40.1764 0.305976C40.221 0.188696 40.3109 0.0937671 40.4263 0.0420729C40.5416 -0.00962142 40.673 -0.0138467 40.7915 0.0303266C40.9099 0.0744998 41.0059 0.163453 41.0581 0.277618C41.1103 0.391783 41.1146 0.521807 41.0699 0.639087L38.6199 7.1614C38.608 7.19026 38.5928 7.21765 38.5745 7.24301Z" fill="#414141"/>
<path d="M42.4648 8.89996C42.3669 8.96517 42.2481 8.99209 42.1313 8.97552C42.0145 8.95895 41.9081 8.90007 41.8327 8.81028C41.7573 8.7205 41.7182 8.60619 41.7231 8.48953C41.7279 8.37286 41.7764 8.26213 41.859 8.17879L46.7591 3.19387C46.847 3.1031 46.9678 3.05061 47.0948 3.04796C47.2218 3.0453 47.3447 3.0927 47.4364 3.17972C47.5281 3.26674 47.5811 3.38625 47.5838 3.51197C47.5865 3.63769 47.5386 3.75932 47.4507 3.85009L42.5405 8.83668C42.5173 8.86001 42.4919 8.88119 42.4648 8.89996Z" fill="#A3A3A3"/>
<path d="M34.3578 7.91913C35.0948 7.91913 35.6923 7.32785 35.6923 6.59848C35.6923 5.86911 35.0948 5.27783 34.3578 5.27783C33.6209 5.27783 33.0234 5.86911 33.0234 6.59848C33.0234 7.32785 33.6209 7.91913 34.3578 7.91913Z" fill="#CFCFCF"/>
<path d="M51.267 5.83236C51.5913 5.83236 51.8542 5.57214 51.8542 5.25114C51.8542 4.93014 51.5913 4.66992 51.267 4.66992C50.9426 4.66992 50.6797 4.93014 50.6797 5.25114C50.6797 5.57214 50.9426 5.83236 51.267 5.83236Z" fill="#CFCFCF"/>
<path d="M104.729 15.2622H106.853L112.387 27.8704L117.92 15.2622H119.939V30.2904H118.524V17.0443H118.481L112.69 30.2904H112.069L106.18 17.0443H106.138V30.2904H104.723L104.729 15.2622Z" fill="#A3A3A3"/>
<path d="M127.591 22.3941L122.402 15.2622H124.074L128.449 21.3747L132.767 15.2622H134.45L129.302 22.3941L134.955 30.2904H133.188L128.392 23.4983L123.59 30.2904H121.887L127.591 22.3941Z" fill="#A3A3A3"/>
</svg>
