<svg width="21" height="21" viewBox="0 0 21 21" fill="none" xmlns="http://www.w3.org/2000/svg">
<circle cx="10.5" cy="10.5" r="10.5" fill="white"/>
<g clip-path="url(#clip0)">
<path d="M19.958 11.3885H1.04297V11.3888H19.958V11.3885Z" fill="#C42126"/>
<path d="M18.9723 6.20248H2.02832V6.20277H18.9723V6.20248Z" fill="#C42126"/>
<path d="M19.6452 7.93091H1.35425V7.93119H19.6452V7.93091Z" fill="#C42126"/>
<path d="M5.08337 18.3026H15.9173L15.9179 18.302H5.08276L5.08337 18.3026Z" fill="#C42126"/>
<path d="M10.4998 1C10.3132 1 10.1281 1.00674 9.94434 1.01725H11.0554C10.8715 1.00674 10.6864 1 10.4998 1Z" fill="#C42126"/>
<path d="M19.9604 9.65973H1.03931V9.66001H19.9604V9.65973Z" fill="#C42126"/>
<path d="M13.3077 4.47404H17.844C17.3052 3.81809 16.679 3.23743 15.9852 2.74586H12.5789C12.8607 3.24177 13.1031 3.82692 13.3077 4.47404Z" fill="#E7E7E7"/>
<path d="M12.5791 2.74586H15.9855C14.5773 1.74792 12.8866 1.12298 11.0557 1.01724H10.7632C11.6249 1.1257 12.0208 1.76348 12.5791 2.74586Z" fill="#DC3027"/>
<path d="M19.6458 7.93107C19.4769 7.32867 19.2504 6.7507 18.972 6.2029H13.7532C13.8589 6.75776 13.9423 7.33734 14.0041 7.93107H19.6458Z" fill="#E7E7E7"/>
<path d="M13.4597 6.20261H18.9719C18.6578 5.58477 18.2804 5.00499 17.8442 4.47415H13.0291C13.1988 5.01161 13.343 5.59138 13.4597 6.20261Z" fill="#DC3027"/>
<path d="M14.2039 11.3881H19.9571C19.9844 11.0958 19.9999 10.7995 19.9999 10.5001C19.9999 10.2168 19.985 9.93705 19.9607 9.65984H14.2052C14.224 10.2346 14.2236 10.8136 14.2039 11.3881Z" fill="#E7E7E7"/>
<path d="M19.9609 9.65955C19.9089 9.06598 19.8019 8.48849 19.6458 7.93138H13.7617C13.8208 8.49732 13.8598 9.07633 13.8789 9.65955H19.9609Z" fill="#DC3027"/>
<path d="M13.6536 14.8452H18.9468C19.2291 14.298 19.4592 13.7196 19.6317 13.1167H13.9095C13.8465 13.7114 13.7609 14.2908 13.6536 14.8452Z" fill="#E7E7E7"/>
<path d="M19.632 13.1166C19.7915 12.5597 19.9022 11.9822 19.9572 11.3885H14.0245C14.0043 11.9721 13.9641 12.551 13.9038 13.1166H19.632Z" fill="#DC3027"/>
<path d="M15.9174 18.302C16.6212 17.8124 17.2563 17.2311 17.8037 16.5738H13.3464C13.1381 17.2236 12.8907 17.8078 12.6038 18.302H15.9174Z" fill="#E7E7E7"/>
<path d="M13.179 16.5737H17.8039C18.2452 16.0435 18.6283 15.4637 18.9471 14.8452H13.615C13.4967 15.4569 13.351 16.037 13.179 16.5737Z" fill="#DC3027"/>
<path d="M10.1557 19.9933C10.1365 19.9927 10.1174 19.9918 10.0981 19.9912C10.1174 19.9917 10.1366 19.9927 10.1557 19.9933Z" fill="#DC3027"/>
<path d="M10.5 20C12.514 20 14.3802 19.3713 15.9171 18.3026H12.479C11.8687 19.3539 11.4661 20 10.5 20Z" fill="#DC3027"/>
<path d="M10.5002 20C10.3849 20 10.2703 19.9973 10.156 19.9933C10.2715 19.9972 10.3862 20 10.5002 20Z" fill="#C42126"/>
<path d="M12.8934 2.74586H5.01474C4.32085 3.23743 3.69474 3.81805 3.15576 4.47404H13.6221C13.4175 3.82692 13.1752 3.24177 12.8934 2.74586Z" fill="#F3F4F5"/>
<path d="M5.01514 2.74586H12.8938C12.3353 1.76348 11.6251 1.1257 10.7633 1.01724H9.94475C8.11385 1.12298 6.42318 1.74792 5.01514 2.74586Z" fill="#E73625"/>
<path d="M1.35449 7.93107H14.3038C14.2419 7.33722 14.1586 6.75776 14.0528 6.2029H2.02829C1.74987 6.75074 1.5234 7.32867 1.35449 7.93107Z" fill="#F3F4F5"/>
<path d="M3.15562 4.47403C2.71972 5.00487 2.34203 5.5846 2.02808 6.20248H14.0524C13.9359 5.59138 13.7918 5.01165 13.6219 4.47403C13.6219 4.47403 3.15562 4.47403 3.15562 4.47403Z" fill="#E73625"/>
<path d="M1 10.5002C1 10.7995 1.0156 11.0958 1.04276 11.3881H14.4197C14.4395 10.8136 14.4398 10.2348 14.421 9.65997H1.03915C1.01484 9.93706 1 10.2168 1 10.5002Z" fill="#F3F4F5"/>
<path d="M1.03931 9.65955H14.421C14.402 9.07621 14.3628 8.49736 14.3039 7.93138H1.3543C1.19815 8.48861 1.09121 9.06598 1.03931 9.65955Z" fill="#E73625"/>
<path d="M14.2991 13.1166H1.36816C1.54068 13.7196 1.77093 14.2979 2.05307 14.8451H14.0432C14.1506 14.2908 14.236 13.7114 14.2991 13.1166Z" fill="#F3F4F5"/>
<path d="M1.36815 13.1166H14.2991C14.3593 12.551 14.3996 11.972 14.4199 11.3885H1.04297C1.098 11.9823 1.20887 12.5597 1.36815 13.1166Z" fill="#E73625"/>
<path d="M5.08254 18.302H12.8646C13.1515 17.8077 13.399 17.2236 13.6072 16.5738H3.19629C3.74365 17.2311 4.37858 17.8124 5.08254 18.302Z" fill="#F3F4F5"/>
<path d="M2.05347 14.8452C2.37223 15.4636 2.7553 16.0434 3.19661 16.5737H13.6076C13.7795 16.037 13.9251 15.4569 14.0435 14.8452H2.05347Z" fill="#E73625"/>
<path d="M10.0985 19.9911C10.1177 19.9917 10.1369 19.9926 10.1561 19.9932C10.2704 19.9973 10.385 20 10.5003 20C11.4665 20 12.2543 19.3539 12.8646 18.3026H5.0835C6.51737 19.2998 8.23848 19.9136 10.0985 19.9911Z" fill="#E73625"/>
<path d="M10.3039 1.00493C5.43565 1.10396 1.4678 4.86279 1.04077 9.64407H10.3041V1.00493H10.3039Z" fill="#283991"/>
<path d="M2.90078 6.38246L3.0455 6.8281H3.51441L3.13507 7.10367L3.27996 7.54963L2.90078 7.2739L2.52172 7.54963L2.66633 7.10367L2.28711 6.8281H2.75602L2.90078 6.38246Z" fill="#EFEFEF"/>
<path d="M2.90078 7.95689L3.0455 8.40282H3.51441L3.13507 8.67838L3.27996 9.12435L2.90078 8.84862L2.52172 9.12435L2.66633 8.67838L2.28711 8.40282H2.75602L2.90078 7.95689Z" fill="#EFEFEF"/>
<path d="M4.47565 4.02026L4.62041 4.46607H5.08915L4.70994 4.74179L4.8547 5.18743L4.47565 4.91203L4.09643 5.18743L4.24119 4.74179L3.86182 4.46607H4.33072L4.47565 4.02026Z" fill="#EFEFEF"/>
<path d="M4.47565 5.59496L4.62041 6.04076H5.08915L4.70994 6.31616L4.8547 6.76213L4.47565 6.48672L4.09643 6.76213L4.24119 6.31616L3.86182 6.04076H4.33072L4.47565 5.59496Z" fill="#EFEFEF"/>
<path d="M4.47565 7.16968L4.62041 7.61564H5.08915L4.70994 7.89089L4.8547 8.33685L4.47565 8.06116L4.09643 8.33685L4.24119 7.89089L3.86182 7.61564H4.33072L4.47565 7.16968Z" fill="#EFEFEF"/>
<path d="M1.70521 8.33685L1.56033 7.89088L1.93955 7.61548H1.47092L1.46041 7.58295C1.40895 7.74211 1.36246 7.9032 1.31958 8.06609L1.3262 8.06116L1.70521 8.33685Z" fill="#EFEFEF"/>
<path d="M2.52174 5.97494L2.9008 5.69925L3.28001 5.97494L3.13513 5.52898L3.51434 5.25329H3.04544L2.90068 4.80765L2.75591 5.25329H2.58311C2.55102 5.3019 2.51998 5.3508 2.48877 5.40014L2.66638 5.52898L2.52174 5.97494Z" fill="#EFEFEF"/>
<path d="M4.47573 3.33731L4.85478 3.61272L4.71002 3.16708L5.08908 2.89139H4.81832C4.58836 3.06331 4.3665 3.24525 4.15335 3.43723L4.09619 3.61272L4.47573 3.33731Z" fill="#EFEFEF"/>
<path d="M5.6709 2.82552L6.05011 2.54983L6.42916 2.82552L6.2844 2.37956L6.66345 2.10415H6.19471L6.17506 2.04414C6.01622 2.12529 5.85902 2.20972 5.70539 2.29957L5.8155 2.37952L5.6709 2.82552Z" fill="#EFEFEF"/>
<path d="M6.05056 3.23306L6.19533 3.67858H6.66407L6.28486 3.95427L6.42962 4.40023L6.05056 4.1245L5.67134 4.40023L5.81611 3.95427L5.43677 3.67858H5.90564L6.05056 3.23306Z" fill="#EFEFEF"/>
<path d="M6.05056 4.80777L6.19533 5.25329H6.66407L6.28486 5.52898L6.42962 5.97494L6.05056 5.69921L5.67134 5.97494L5.81611 5.52898L5.43677 5.25329H5.90564L6.05056 4.80777Z" fill="#EFEFEF"/>
<path d="M6.05056 6.38246L6.19533 6.8281H6.66407L6.28486 7.10367L6.42962 7.54963L6.05056 7.2739L5.67134 7.54963L5.81611 7.10367L5.43677 6.8281H5.90564L6.05056 6.38246Z" fill="#EFEFEF"/>
<path d="M6.05056 7.95689L6.19533 8.40282H6.66407L6.28486 8.67838L6.42962 9.12435L6.05056 8.84862L5.67134 9.12435L5.81611 8.67838L5.43677 8.40282H5.90564L6.05056 7.95689Z" fill="#EFEFEF"/>
<path d="M7.62478 2.44556L7.76954 2.89136H8.23828L7.85923 3.16709L8.00383 3.61273L7.62478 3.33732L7.24544 3.61273L7.39032 3.16709L7.01099 2.89136H7.47985L7.62478 2.44556Z" fill="#EFEFEF"/>
<path d="M7.62478 4.02026L7.76954 4.46607H8.23828L7.85923 4.74179L8.00383 5.18743L7.62478 4.91203L7.24544 5.18743L7.39032 4.74179L7.01099 4.46607H7.47985L7.62478 4.02026Z" fill="#EFEFEF"/>
<path d="M7.62478 5.59496L7.76954 6.04076H8.23828L7.85923 6.31616L8.00383 6.76213L7.62478 6.48672L7.24544 6.76213L7.39032 6.31616L7.01099 6.04076H7.47985L7.62478 5.59496Z" fill="#EFEFEF"/>
<path d="M7.62478 7.16968L7.76954 7.61564H8.23828L7.85923 7.89089L8.00383 8.33685L7.62478 8.06116L7.24544 8.33685L7.39032 7.89089L7.01099 7.61564H7.47985L7.62478 7.16968Z" fill="#EFEFEF"/>
<path d="M9.19973 1.65836L9.34449 2.10416H9.81324L9.43402 2.37956L9.57878 2.82552L9.19973 2.5498L8.82039 2.82552L8.96527 2.37956L8.58594 2.10416H9.05468L9.19973 1.65836Z" fill="#EFEFEF"/>
<path d="M9.19973 3.23306L9.34449 3.67858H9.81324L9.43402 3.95427L9.57878 4.40023L9.19973 4.1245L8.82039 4.40023L8.96527 3.95427L8.58594 3.67858H9.05468L9.19973 3.23306Z" fill="#EFEFEF"/>
<path d="M9.19973 4.80777L9.34449 5.25329H9.81324L9.43402 5.52898L9.57878 5.97494L9.19973 5.69921L8.82039 5.97494L8.96527 5.52898L8.58594 5.25329H9.05468L9.19973 4.80777Z" fill="#EFEFEF"/>
<path d="M9.19973 6.38246L9.34449 6.8281H9.81324L9.43402 7.10367L9.57878 7.54963L9.19973 7.2739L8.82039 7.54963L8.96527 7.10367L8.58594 6.8281H9.05468L9.19973 6.38246Z" fill="#EFEFEF"/>
<path d="M9.19973 7.95689L9.34449 8.40282H9.81324L9.43402 8.67838L9.57878 9.12435L9.19973 8.84862L8.82039 9.12435L8.96527 8.67838L8.58594 8.40282H9.05468L9.19973 7.95689Z" fill="#EFEFEF"/>
</g>
<defs>
<clipPath id="clip0">
<rect width="19" height="19" fill="white" transform="translate(1 1)"/>
</clipPath>
</defs>
</svg>
