<svg width="21" height="21" viewBox="0 0 21 21" fill="none" xmlns="http://www.w3.org/2000/svg">
<circle cx="10.5" cy="10.5" r="10.5" fill="white"/>
<g clip-path="url(#clip0)">
<path d="M10.5 20C13.5397 20 16.2434 18.5713 17.9823 16.3502H12.9788C12.3328 18.5033 11.9724 20 10.5 20Z" fill="#C42126"/>
<path d="M9.93682 19.9836C9.93496 19.9836 9.93326 19.9834 9.9314 19.9834C9.93326 19.9834 9.93512 19.9836 9.93682 19.9836Z" fill="#C42126"/>
<path d="M12.9788 4.64984H17.9824C16.2434 2.42907 13.5396 1 10.5 1C11.9724 1 12.3328 2.4967 12.9788 4.64984Z" fill="#C42126"/>
<path d="M9.9314 1.01699C9.93326 1.01699 9.93496 1.0167 9.93682 1.0167C9.93512 1.01666 9.93326 1.01666 9.9314 1.01699Z" fill="#C42126"/>
<path d="M17.9825 4.64983H12.9788C13.9886 8.01559 13.9886 12.9848 12.9788 16.3501H17.9821C19.2451 14.7373 20 12.7076 20 10.5C20.0002 8.29264 19.2452 6.26281 17.9825 4.64983Z" fill="#FFC40C"/>
<path d="M10.5002 20C10.3112 20 10.1234 19.9945 9.93677 19.9836C10.126 19.9942 10.3142 20 10.5002 20Z" fill="#C42126"/>
<path d="M9.93677 1.01665C10.1233 1.00554 10.3112 1 10.5002 1C10.3142 1 10.126 1.00614 9.93677 1.01665Z" fill="#C42126"/>
<path d="M13.6776 16.3502H3.01807C4.64754 18.4317 7.12498 19.8175 9.93134 19.9834C9.93314 19.9834 9.93479 19.9836 9.93659 19.9836C10.1232 19.9944 10.311 20 10.5 20C11.9724 20 13.0316 18.5033 13.6776 16.3502Z" fill="#D32030"/>
<path d="M3.01807 4.64984H13.6776C13.0316 2.4967 11.9724 1 10.5 1C10.311 1 10.1232 1.00554 9.93663 1.01665C9.93483 1.01665 9.93319 1.01693 9.93138 1.01693C7.12498 1.18271 4.64754 2.56858 3.01807 4.64984Z" fill="#D32030"/>
<path d="M1 10.5C1 12.7076 1.75495 14.7373 3.01796 16.3501H13.6775C14.6874 12.9847 14.6874 8.01539 13.6775 4.64983H3.01796C1.75495 6.26281 1 8.29264 1 10.5Z" fill="#FFD034"/>
</g>
<defs>
<clipPath id="clip0">
<rect width="19" height="19" fill="white" transform="translate(1 1)"/>
</clipPath>
</defs>
</svg>
