<svg width="194" height="76" viewBox="0 0 194 76" fill="none" xmlns="http://www.w3.org/2000/svg">
<g opacity="0.2">
<path d="M19.0312 12.1062C27.4575 14.364 30.4462 26.417 19.5968 32.0971C16.1679 33.8433 12.1764 36.031 10.7428 40.8287L8.67075 40.2735C10.3635 34.5088 14.6682 32.257 18.6226 30.2074C27.6194 25.3634 25.1066 15.9549 18.476 14.1783C13.9175 12.9568 9.83218 16.5999 8.03108 20.5589L5.95903 20.0037C8.05623 14.9396 13.2295 10.5516 19.0312 12.1062Z" fill="white"/>
<path fill-rule="evenodd" clip-rule="evenodd" d="M9.47915 41.6746C10.3078 41.8967 10.8503 42.6341 10.6283 43.4628C10.4062 44.2915 9.53063 44.797 8.70198 44.575C7.87334 44.353 7.36784 43.4774 7.58988 42.6487C7.81193 41.82 8.6505 41.4526 9.47915 41.6746Z" fill="white"/>
</g>
<g opacity="0.2">
<path d="M172.799 48.3739C171.648 48.6822 170.508 49.3583 169.892 50.096L169.866 50.128L170.821 51.45L170.864 51.3934C171.28 50.8557 172.078 50.3566 172.849 50.1501C174.143 49.8271 175.056 50.294 175.36 51.429C175.622 52.4074 175.294 53.4017 174.639 54.7867C173.939 56.2984 173.819 57.7356 174.292 58.9386L174.508 59.5519L176.33 59.0636L176.126 58.4856C175.75 57.3596 175.862 56.3078 176.497 54.9606C177.225 53.4073 177.75 52.1014 177.358 50.6371C176.924 49.0191 175.346 47.6914 172.799 48.3739Z" fill="white"/>
<path d="M163.61 65.8797C162.825 66.0901 162.433 66.8205 162.657 67.6581C162.871 68.4567 163.595 68.9068 164.344 68.7063C165.143 68.4922 165.547 67.7664 165.326 66.9429C165.098 66.093 164.409 65.6657 163.61 65.8797Z" fill="white"/>
<path d="M188.858 59.1104C188.073 59.3208 187.68 60.0535 187.905 60.8911C188.119 61.6897 188.845 62.1393 189.595 61.9382C190.393 61.7246 190.796 60.9992 190.574 60.1757C190.346 59.3246 189.657 58.8964 188.858 59.1104Z" fill="white"/>
<path d="M176.233 62.4979C175.448 62.7083 175.055 63.4389 175.28 64.2765C175.494 65.0751 176.219 65.525 176.967 65.3244C177.766 65.1104 178.17 64.3849 177.949 63.5612C177.837 63.1422 177.612 62.8184 177.298 62.627C176.991 62.4378 176.622 62.3939 176.233 62.4979Z" fill="white"/>
<path d="M185.426 44.9888C184.275 45.2972 183.134 45.9731 182.518 46.7109L182.49 46.741L183.445 48.0647L183.489 48.0072C183.906 47.47 184.704 46.9711 185.474 46.7646C186.768 46.4396 187.679 46.9069 187.984 48.0444C188.246 49.0232 187.919 50.0162 187.262 51.4025C186.563 52.9142 186.443 54.3513 186.917 55.5543L187.132 56.1676L188.955 55.6792L188.751 55.1011C188.376 53.9749 188.489 52.9229 189.124 51.5766C189.85 50.0235 190.376 48.7176 189.983 47.2529C189.549 45.6345 187.973 44.3064 185.426 44.9888Z" fill="white"/>
<path d="M160.175 51.7557C159.024 52.0642 157.883 52.7404 157.268 53.4777L157.243 53.5087L158.197 54.8312L158.24 54.7753C158.656 54.2375 159.454 53.7386 160.224 53.5321C161.519 53.209 162.431 53.6761 162.735 54.8111C162.997 55.7891 162.669 56.7823 162.013 58.169C161.314 59.6813 161.194 61.1177 161.667 62.3212L161.882 62.9342L163.705 62.4458L163.5 61.868C163.126 60.7406 163.238 59.6888 163.873 58.3427C164.601 56.7904 165.126 55.4855 164.733 54.0192C164.299 52.4013 162.722 51.0734 160.175 51.7557Z" fill="white"/>
</g>
<g opacity="0.2">
<path d="M80.7849 6.21094C72.0796 6.21094 65 13.2905 65 21.9958C65 30.701 72.0796 37.7806 80.7849 37.7806C89.4901 37.7806 96.5697 30.701 96.5697 21.9958C96.5697 13.2905 89.4901 6.21094 80.7849 6.21094ZM80.7849 8.31558C88.3527 8.31558 94.4651 14.428 94.4651 21.9958C94.4651 29.5636 88.3527 35.676 80.7849 35.676C73.217 35.676 67.1046 29.5636 67.1046 21.9958C67.1046 14.428 73.217 8.31558 80.7849 8.31558ZM80.7849 13.2264C77.8914 13.2264 75.5232 15.5946 75.5232 18.488C75.5213 18.6275 75.547 18.7659 75.599 18.8953C75.651 19.0247 75.7282 19.1425 75.8261 19.2418C75.9241 19.3411 76.0407 19.42 76.1694 19.4738C76.298 19.5276 76.4361 19.5554 76.5756 19.5554C76.715 19.5554 76.8531 19.5276 76.9817 19.4738C77.1104 19.42 77.2271 19.3411 77.325 19.2418C77.4229 19.1425 77.5001 19.0247 77.5521 18.8953C77.6041 18.7659 77.6299 18.6275 77.6279 18.488C77.6279 16.732 79.0288 15.3311 80.7849 15.3311C82.5409 15.3311 83.9418 16.732 83.9418 18.488C83.9418 19.4759 83.5913 20.1659 82.9224 20.9215C82.2535 21.6772 81.2507 22.4364 80.1491 23.2674C80.0204 23.3649 79.9159 23.4908 79.8436 23.6353C79.7714 23.7798 79.7334 23.9389 79.7325 24.1004V25.5035C79.7306 25.643 79.7563 25.7814 79.8083 25.9108C79.8603 26.0402 79.9375 26.158 80.0354 26.2573C80.1333 26.3566 80.25 26.4355 80.3787 26.4893C80.5073 26.5431 80.6454 26.5709 80.7849 26.5709C80.9243 26.5709 81.0624 26.5431 81.191 26.4893C81.3197 26.4355 81.4364 26.3566 81.5343 26.2573C81.6322 26.158 81.7094 26.0402 81.7614 25.9108C81.8134 25.7814 81.8392 25.643 81.8372 25.5035V24.6156C82.7832 23.9049 83.7269 23.199 84.5009 22.3246C85.3898 21.3203 86.0465 20.0354 86.0465 18.488C86.0465 15.5946 83.6783 13.2264 80.7849 13.2264ZM80.7849 27.959C80.0099 27.959 79.3818 28.5871 79.3818 29.3621C79.3818 30.137 80.0099 30.7652 80.7849 30.7652C81.5598 30.7652 82.188 30.137 82.188 29.3621C82.188 28.5871 81.5598 27.959 80.7849 27.959Z" fill="white"/>
</g>
<g opacity="0.2">
<path d="M54.6828 62.489C53.2169 63.955 53.1971 66.2323 54.6384 67.6736L54.6826 67.7178C56.1239 69.1591 58.401 69.1395 59.8671 67.6733C61.3333 66.2072 61.3529 63.9301 59.9116 62.4888L59.8674 62.4446C58.4261 61.0033 56.149 61.0229 54.6828 62.489ZM58.5297 63.8707C59.2181 64.5591 59.1995 65.5773 58.4853 66.2915C57.7711 67.0057 56.7529 67.0243 56.0645 66.3359L56.0203 66.2917C55.3319 65.6033 55.3505 64.5851 56.0647 63.8709C56.7789 63.1567 57.7971 63.138 58.4855 63.8264L58.5297 63.8707Z" fill="white"/>
<path d="M43.1203 50.0423C41.1757 51.9868 40.0691 54.2718 39.831 56.8351C39.7441 57.7944 40.0723 58.7232 40.7322 59.3831C41.9457 60.5966 43.9959 60.5966 45.2094 59.3831C45.6951 58.8973 46.021 58.2218 46.127 57.4811C46.2962 56.2939 46.7426 55.3736 47.5307 54.5854C48.4218 53.6944 49.1694 53.5382 49.7523 54.1211L49.7965 54.1654C50.0835 54.4523 50.7557 55.1246 48.8322 57.6055C48.3601 58.2122 48.1519 58.9206 48.2458 59.6C48.3402 60.2808 48.7161 60.881 49.3294 61.3331L51.0549 62.6159C52.1678 63.4418 53.6609 63.3559 54.6052 62.4116L54.782 62.2348C55.7007 61.3161 55.8039 59.8683 55.048 58.7702C57.2712 55.0979 57.0789 51.9184 54.473 49.3125L54.4287 49.2683C51.229 46.0685 46.7903 46.3723 43.1203 50.0423ZM53.0911 50.6943C55.1655 52.7688 55.1544 55.1027 53.0563 58.2621C52.832 58.5998 52.8398 59.0406 53.0752 59.3704L53.414 59.8451C53.6233 60.13 53.6858 60.5678 53.4004 60.8531L53.2235 61.03C52.9214 61.3322 52.5017 61.2562 52.2203 61.0475L50.492 59.7624C50.3647 59.6686 50.2074 59.5178 50.1818 59.3328C50.1606 59.1799 50.2293 58.9929 50.3757 58.8045C51.1127 57.8538 53.3555 54.9611 51.1784 52.784L51.1341 52.7397C50.0413 51.6469 48.1578 51.195 46.1488 53.204C45.0615 54.2913 44.4215 55.6002 44.1921 57.2055C44.1465 57.5256 44.0136 57.8156 43.8273 58.0019C43.3711 58.4581 42.5703 58.4584 42.1138 58.0019C41.9676 57.8556 41.7299 57.5327 41.7769 57.0145C41.974 54.8892 42.8653 53.061 44.5017 51.4247C47.419 48.5073 50.6134 48.218 53.0462 50.6508L53.0904 50.695L53.0911 50.6943Z" fill="white"/>
</g>
<g opacity="0.2">
<path d="M171.946 19.4927C171.4 19.4927 170.976 19.917 170.976 20.4626C170.976 21.0082 171.4 21.4325 171.946 21.4325C172.492 21.4325 172.916 21.0082 172.916 20.4626C172.916 19.9473 172.492 19.4927 171.946 19.4927Z" fill="white"/>
<path d="M171.946 8.48975C169.763 8.48975 168.005 10.2481 168.005 12.4308C168.005 12.8249 168.338 13.1584 168.732 13.1584C169.127 13.1584 169.46 12.8249 169.46 12.4308C169.46 11.0363 170.582 9.9146 171.976 9.9146C173.371 9.9146 174.493 11.0363 174.493 12.4308C174.493 13.8254 173.371 14.9471 171.976 14.9471C171.582 14.9471 171.249 15.2806 171.249 15.6747V17.5543C171.249 17.9484 171.582 18.2818 171.976 18.2818C172.37 18.2818 172.704 17.9484 172.704 17.5543V16.3416C174.523 15.9778 175.887 14.3711 175.887 12.4612C175.887 10.2784 174.129 8.48975 171.946 8.48975Z" fill="white"/>
<path d="M171.946 0C163.7 0 157 6.69986 157 14.9458C157 17.5833 157.697 20.1602 159.001 22.4339L159.061 22.5249L157.728 27.1026C157.546 27.6786 157.728 28.3152 158.152 28.77C158.576 29.1944 159.213 29.3763 159.819 29.1944L164.458 27.8605L164.549 27.9211C166.792 29.2247 169.369 29.8917 171.976 29.8917C180.222 29.8917 186.922 23.1918 186.922 14.9458C186.922 6.69986 180.192 0 171.946 0ZM171.946 28.7397C169.43 28.7397 166.944 28.0424 164.822 26.7388L164.609 26.6175L159.486 28.0727C159.304 28.1334 159.092 28.0727 158.971 27.9515C158.849 27.8302 158.789 27.618 158.849 27.4361L160.335 22.3733L160.214 22.1611C158.849 19.9783 158.152 17.4924 158.152 14.9458C158.152 7.3365 164.336 1.15201 171.946 1.15201C179.555 1.15201 185.74 7.3365 185.74 14.9458C185.74 22.5249 179.555 28.7397 171.946 28.7397Z" fill="white"/>
</g>
<path opacity="0.2" d="M115.166 59.6727C114.587 60.6768 113.299 61.0248 112.291 60.443C111.284 59.8613 110.941 58.5721 111.521 57.568C112.105 56.557 113.388 56.216 114.396 56.7977C115.403 57.3794 115.75 58.6616 115.166 59.6727Z" fill="white"/>
<path opacity="0.2" d="M115.444 54.9724C114.176 54.24 113.275 53.0506 112.901 51.6264C112.56 50.1451 112.761 48.658 113.5 47.3775C114.24 46.096 115.427 45.1786 116.813 44.8504L126.865 42.1028C128.002 41.79 128.953 41.0549 129.543 40.0325C130.136 39.0063 130.296 37.8153 129.997 36.6782C129.38 34.3293 126.973 32.935 124.629 33.5791C123.492 33.8864 122.541 34.6217 121.949 35.6478L118.151 33.4554C119.334 31.4065 121.239 29.9349 123.513 29.3148C128.054 28.0707 133.051 30.9604 134.247 35.5166C134.847 37.7915 134.525 40.1722 133.34 42.225C132.157 44.2742 130.255 45.7437 127.983 46.3651L117.967 49.0516C117.382 49.2132 117.032 49.8202 117.184 50.4079C117.339 50.9967 117.939 51.3435 118.527 51.1829C118.911 51.0745 119.112 50.8115 119.199 50.6614L122.996 52.8537C122.256 54.1351 121.067 55.0561 119.613 55.5012C118.193 55.8896 116.712 55.7046 115.444 54.9724Z" fill="white"/>
</svg>
