<svg width="40" height="40" viewBox="0 0 40 40" xmlns="http://www.w3.org/2000/svg">
<path d="M19.5515 35.7962C18.7397 34.0303 17.0791 33.4162 16.2445 33.1125C15.8226 32.9589 15.5547 32.8614 15.5547 32.6045C15.5547 32.2704 15.505 31.8642 15.4089 31.5418C15.3249 31.26 15.2157 31.2983 14.7305 31.1885C14.3621 31.1051 14.0026 31.0236 13.8744 30.8333C13.5186 30.3051 13.1756 29.8839 12.8921 29.536C12.7028 29.3036 12.5388 29.1022 12.4099 28.9172L7.14691 30.8338C6.8255 30.9503 6.64835 30.4616 6.96976 30.3451L12.1574 28.456C11.8526 27.6262 12.5316 27.1383 15.1862 26.0062L15.1823 24.5698C15.1807 23.983 15.1586 24.0296 14.9133 23.8204C13.9482 22.9974 13.1181 21.94 12.663 20.6344C12.1571 19.1829 12.0124 14.8923 12.3201 13.3777C12.817 10.9317 14.8881 10.7036 17.0323 10.5997C18.8316 10.5125 20.8659 10.4139 23.4009 8.28612C24.4708 7.38802 24.5223 6.7474 25.8063 8.27231C26.8575 9.52078 27.407 10.7865 27.6837 12.1788C28.1065 14.3066 28.0556 18.4655 27.4565 20.5701C27.0166 22.1154 25.9934 23.3534 24.8039 24.2608C24.8059 24.2739 24.807 24.2874 24.807 24.3011L24.8023 26.0184C27.4613 27.1535 28.1417 27.6368 27.8328 28.4772L32.9622 30.3451C33.2836 30.4616 33.1065 30.9503 32.785 30.8338L27.5821 28.9391C27.2098 29.4808 26.7244 29.9256 26.3958 30.5021C26.1034 31.015 25.9831 30.9939 24.9952 31.2561C24.5624 31.371 24.6151 31.4863 24.5311 31.9183C24.49 32.1298 24.4682 32.3578 24.4682 32.6045C24.4682 32.8618 24.1991 32.9591 23.7754 33.1124C22.9347 33.4165 21.1861 33.9987 20.4482 35.8008C20.2869 36.1949 20.2477 36.3107 20.2477 36.9152V38.1428C20.2477 38.4857 19.7264 38.4857 19.7264 38.1428V36.8932C19.7264 36.288 19.7481 36.2237 19.5515 35.7962ZM19.6734 34.931C19.3771 32.6477 18.0526 31.3422 16.9401 30.2461C15.9918 29.3118 15.187 28.5187 15.1899 27.3857L15.1877 26.5711C13.004 27.5081 12.4678 27.8614 12.6648 28.3255C12.7611 28.5523 12.9932 28.8373 13.2953 29.2081C13.5184 29.482 13.7776 29.8002 14.054 30.1829C14.3942 30.654 14.2379 30.5441 14.8446 30.6815C15.7151 30.8786 15.8341 30.9515 16.0029 31.8205C16.0912 32.2754 15.9347 32.4575 16.4217 32.6238C17.2197 32.9142 18.7226 33.4617 19.6734 34.931ZM15.7012 24.4232L15.7092 27.3857C15.7068 28.3012 16.4404 29.024 17.3046 29.8755C18.312 30.8681 19.4841 32.0233 19.9944 33.8731C20.5047 32.0233 21.6766 30.868 22.6839 29.8755C23.5482 29.024 24.2818 28.3012 24.2794 27.3857L24.2868 24.6281C22.8468 25.5801 21.2513 26.0765 20.182 26.0765C19.1581 26.0765 17.3316 25.5427 15.7012 24.4232ZM24.8008 26.5833L24.7986 27.3857C24.8016 28.5187 23.9967 29.3118 23.0484 30.2461C21.9315 31.3466 20.6008 32.6582 20.3116 34.9586C21.2647 33.468 22.7905 32.9158 23.5982 32.6237C24.1651 32.4173 23.9274 31.9516 24.0921 31.3989C24.2082 31.0093 24.2803 30.9405 24.6973 30.805C25.2496 30.6256 25.5608 30.7482 25.9474 30.2115C26.3145 29.7018 27.1229 28.8236 27.3247 28.3484C27.5258 27.8748 26.9895 27.5231 24.8008 26.5833ZM11.4568 13.5571C11.7796 13.6722 11.6045 14.163 11.2817 14.0478C10.5893 13.8008 10.2 14.7876 10.8394 15.4977C11.3569 16.0724 10.8715 17.7226 11.2782 17.961C11.5724 18.1335 11.3098 18.5815 11.0155 18.409C10.23 17.9484 10.8076 16.2403 10.4525 15.8459C9.42474 14.7045 10.2744 13.1351 11.4568 13.5571ZM28.7717 14.0478C28.449 14.163 28.2739 13.6722 28.5966 13.5571C29.7791 13.1351 30.6287 14.7045 29.6009 15.8459C29.2458 16.2403 29.8234 17.9484 29.038 18.409C28.7437 18.5815 28.4811 18.1335 28.7753 17.961C29.182 17.7226 28.6965 16.0724 29.214 15.4977C29.8535 14.7876 29.4641 13.8008 28.7717 14.0478ZM28.8236 11.5107C28.8009 11.8522 28.2817 11.8176 28.3044 11.4761C28.544 8.01287 27.9548 5.12079 24.391 3.85474C23.3954 3.50102 22.7558 2.91306 21.9476 2.35164C19.8277 0.878921 15.5416 2.2311 13.8837 3.99324C12.0097 5.98515 11.2636 8.86027 11.724 11.5329C11.7815 11.8704 11.2684 11.9579 11.2108 11.6205C10.7226 8.78624 11.5184 5.74842 13.505 3.63688C15.3113 1.717 19.8764 0.288491 22.191 1.8953C23.009 2.46317 23.6779 3.04918 24.5641 3.36401C28.3647 4.7142 29.0802 7.80158 28.8236 11.5107ZM23.7349 8.68524C21.067 10.9246 18.9389 11.0277 17.0567 11.1189C15.1878 11.2095 13.2674 11.3223 12.8292 13.4795C12.5402 14.9021 12.679 19.1013 13.1538 20.4633C13.6592 21.9134 14.6728 23.0399 15.8063 23.8607C17.3919 25.0088 19.1971 25.5553 20.182 25.5553C21.2812 25.5553 22.9989 24.9745 24.4628 23.8664C25.5829 23.0185 26.5468 21.8635 26.9556 20.4276C27.5339 18.3961 27.5804 14.331 27.1726 12.2786C26.9122 10.9682 26.3959 9.77821 25.4092 8.60626C24.502 7.52876 24.5927 7.96516 23.7349 8.68524Z" fill="currentColor"/>
<path d="M24 39.5H16C11.0294 39.5 7 35.4706 7 30.5L12.5 28.5L14 30.5L15.5 31V31.5L16 33L17.5 33.5L19 34.5L20 35.5H20.5L22 33.5L24 32.5L24.5 31L26 30.5L27.5 28.5L33 30.5C33 35.4706 28.9706 39.5 24 39.5Z" fill="currentColor"/>
</svg>
