<svg xmlns="http://www.w3.org/2000/svg" width="50" height="50" viewBox="0 0 50 50" fill="none">
  <path fill="#507DED" d="m16.62763,23.04438l8.07596,-6.93461c0.17462,-0.14965 0.42956,-0.14419 0.59731,0.00356l8.09707,6.95243c0.3222,0.27649 0.1239,0.80477 -0.2967,0.80501l0,0.00119l-1.3915,0l0,7.20444l1.3534,0c0.2528,0 0.4575,0.2052 0.4575,0.4587l0,2.0065c0,0.2532 -0.2047,0.4584 -0.4575,0.4584l-16.12586,0c-0.25258,0 -0.45753,-0.2052 -0.45753,-0.4584l0,-2.0065c0,-0.2535 0.20495,-0.4587 0.45753,-0.4587l1.35337,0l0,-7.20444l-1.39152,0c-0.44094,0 -0.62409,-0.56653 -0.27153,-0.82758zm8.3726,-4.48491c1.00271,0 1.81564,0.81499 1.81564,1.82024c0,1.00525 -0.81293,1.82023 -1.81564,1.82023c-1.00271,0 -1.81564,-0.81498 -1.81564,-1.82023c0,-1.00525 0.81293,-1.82024 1.81564,-1.82024zm0,0.91736c-0.49733,0 -0.90059,0.40429 -0.90059,0.90288c0,0.49858 0.40326,0.90287 0.90059,0.90287c0.49733,0 0.90059,-0.40405 0.90059,-0.90287c0,-0.49859 -0.40303,-0.90288 -0.90059,-0.90288zm5.79454,4.39513l-1.2582,0l0,7.20444l1.2582,0l0,-7.20444zm-2.173,0l-2.0774,0l0,7.20444l2.0774,0l0,-7.20444zm-2.99247,0l-1.25813,0l0,7.20444l1.25813,0l0,-7.20444zm-2.17318,0l-2.07722,0l0,7.20444l2.07722,0l0,-7.20444zm-2.53474,8.12154l-3.52679,0l0,1.0894l15.21128,0l0,-1.0894l-11.68449,0zm-0.45752,-8.12154l-1.25813,0l0,7.20444l1.25813,0l0,-7.20444zm4.53637,-6.81229l-6.86569,5.89492l13.73133,0l-6.86564,-5.89492z"/>
</svg>
