<svg width="18" height="18" viewBox="0 0 18 18" fill="none" xmlns="http://www.w3.org/2000/svg">
<g id="icon_close">
<path id="Close" d="M9.84214 8.59393L16.9041 1.5705C17.2427 1.23536 17.2427 0.692786 16.9041 0.3585C16.5664 0.0233572 16.0179 0.0233572 15.6801 0.3585L8.62414 7.37593L1.503 0.253929C1.16529 -0.0846429 0.616714 -0.0846429 0.279 0.253929C-0.0587143 0.593357 -0.0587143 1.14279 0.279 1.48136L7.395 8.59821L0.253286 15.7005C-0.0844286 16.0356 -0.0844286 16.5782 0.253286 16.9125C0.591 17.2476 1.13957 17.2476 1.47729 16.9125L8.613 9.81621L15.7059 16.9099C16.0436 17.2485 16.5921 17.2485 16.9299 16.9099C17.2676 16.5705 17.2676 16.0211 16.9299 15.6825L9.84214 8.59393Z" fill="#B0BAC5"/>
</g>
</svg>
