<svg width="16" height="16" viewBox="0 0 16 16" fill="none" xmlns="http://www.w3.org/2000/svg">
<path opacity="0.3" fill-rule="evenodd" clip-rule="evenodd" d="M8 16C12.4183 16 16 12.4183 16 8C16 3.58172 12.4183 0 8 0C3.58172 0 0 3.58172 0 8C0 12.4183 3.58172 16 8 16Z" fill="#95A6BB"/>
<path fill-rule="evenodd" clip-rule="evenodd" d="M4.63471 4.63471C4.32229 4.94712 4.32229 5.45366 4.63471 5.76608L6.89745 8.02882L4.63471 10.2916C4.32229 10.604 4.32229 11.1105 4.63471 11.4229C4.94712 11.7353 5.45366 11.7353 5.76608 11.4229L8.02882 9.16019L10.2916 11.4229C10.604 11.7354 11.1105 11.7353 11.4229 11.4229C11.7353 11.1105 11.7353 10.604 11.4229 10.2916L9.16019 8.02882L11.4229 5.76608C11.7353 5.45366 11.7353 4.94712 11.4229 4.63471C11.1105 4.32229 10.604 4.32229 10.2916 4.63471L8.02882 6.89745L5.76608 4.63471C5.45366 4.32229 4.94712 4.32229 4.63471 4.63471Z" fill="#95A6BB"/>
</svg>
