<svg width="16" height="16" viewBox="0 0 16 16" fill="none" xmlns="http://www.w3.org/2000/svg">
<path opacity="0.2" fill-rule="evenodd" clip-rule="evenodd" d="M8 16C12.4183 16 16 12.4183 16 8C16 3.58172 12.4183 0 8 0C3.58172 0 0 3.58172 0 8C0 12.4183 3.58172 16 8 16Z" fill="#00B257"/>
<path d="M11.8154 5.05395C12.1168 4.73095 12.6231 4.7135 12.9461 5.01496C13.2691 5.31643 13.2865 5.82266 12.9851 6.14566L7.38505 12.1457C7.09257 12.459 6.60505 12.4862 6.27958 12.2072L3.47958 9.80721C3.14412 9.51968 3.10527 9.01464 3.3928 8.67917C3.68034 8.34371 4.18538 8.30486 4.52084 8.5924L6.7386 10.4933L11.8154 5.05395Z" fill="#00B257"/>
</svg>
