<svg width="18" height="16" viewBox="0 0 18 16" fill="none" xmlns="http://www.w3.org/2000/svg">
<g opacity="0.5">
<path d="M2.72921 6.07855C1.33595 8.24632 2.22167 11.536 3.76238 13.5307C4.53144 14.528 5.31006 15.4231 6.37651 15.4231C6.39661 15.4231 6.41677 15.4228 6.43741 15.4221C6.93846 15.4041 7.30054 15.2658 7.65062 15.1321C8.04366 14.982 8.45015 14.8267 9.08775 14.8267C9.69433 14.8267 10.0814 14.9769 10.4558 15.1222C10.8247 15.2653 11.2047 15.4133 11.7662 15.4039C12.9675 15.3838 13.7051 14.4179 14.3558 13.5657C15.0348 12.676 15.3755 11.8121 15.4904 11.482L15.495 11.4689C15.5169 11.4102 15.486 11.3462 15.4233 11.3204C15.4215 11.3196 15.4152 11.3173 15.4134 11.3166C15.2018 11.239 13.3462 10.5009 13.3267 8.48919C13.3086 6.85477 14.7188 5.98926 15.0016 5.83239L15.0148 5.82502C15.0454 5.80734 15.0668 5.77929 15.074 5.74721C15.0812 5.71519 15.0737 5.68186 15.0531 5.65492C14.0798 4.37775 12.5879 4.18527 11.9873 4.16211C11.9001 4.15431 11.8102 4.15039 11.7198 4.15039C11.0144 4.15039 10.3386 4.38928 9.79564 4.58123C9.42086 4.71374 9.09715 4.82817 8.87388 4.82817C8.62301 4.82817 8.29745 4.71233 7.92046 4.57823C7.41633 4.39883 6.84493 4.19554 6.24003 4.19554C6.2256 4.19554 6.21139 4.19569 6.19739 4.19593C4.7909 4.21449 3.4619 4.93596 2.72921 6.07855Z" fill="#242424"/>
<path d="M11.9881 0.648531C11.1363 0.679634 10.1146 1.14972 9.50392 1.79106C8.98493 2.33014 8.47794 3.22893 8.61151 4.1349C8.61988 4.19158 8.67132 4.23533 8.73492 4.23974C8.79241 4.24376 8.85109 4.24579 8.90955 4.24584C9.74237 4.24584 10.6408 3.83273 11.2543 3.16755C11.9001 2.46516 12.2266 1.56375 12.1278 0.756326C12.1201 0.693054 12.058 0.64606 11.9881 0.648531Z" fill="#242424"/>
</g>
</svg>
