<svg width="18" height="17" viewBox="0 0 18 17" fill="none" xmlns="http://www.w3.org/2000/svg">
<g opacity="0.5">
<path fill-rule="evenodd" clip-rule="evenodd" d="M12.5376 1.47534L11.5995 2.31645C12.6819 2.96346 13.4035 4.12808 13.4035 5.42205H4.74414C4.74414 4.12803 5.46575 3.02814 6.47601 2.31643L5.53791 1.47531C5.46575 1.34594 5.46575 1.08714 5.53791 0.957703C5.68224 0.893005 5.97088 0.893005 6.1152 0.957703L7.12546 1.92822C7.70275 1.66944 8.3522 1.54002 9.07381 1.54002C9.79542 1.54002 10.4449 1.66944 10.95 1.99295L12.0324 1.02243C12.1768 0.893005 12.3932 0.893005 12.5376 1.02243C12.6819 1.15183 12.6819 1.34594 12.5376 1.47534ZM5.46597 13.1881C5.033 13.1881 4.74435 12.9293 4.74435 12.5411V6.07098H13.4037V12.5411C13.4037 12.9293 13.115 13.1881 12.6821 13.1881H11.9605V15.4526C11.9605 15.9702 11.4553 16.4231 10.8781 16.4231C10.3008 16.4231 9.79564 15.9702 9.79564 15.4526V13.1881H8.35241V15.4526C8.35241 15.9702 7.84728 16.4231 7.26999 16.4231C6.69271 16.4231 6.18758 15.9702 6.18758 15.4526V13.1881H5.46597ZM7.63055 4.12803H6.90894V3.48102H7.63055V4.12803ZM10.5178 4.12803H11.2394V3.48102H10.5178V4.12803Z" fill="#31B702"/>
<path d="M2.93984 6.06934C2.36255 6.06934 1.85742 6.52227 1.85742 7.03985V11.5689C1.85742 12.0865 2.36255 12.5394 2.93984 12.5394C3.51713 12.5394 4.02226 12.0865 4.02226 11.5689V7.03985C4.02226 6.52224 3.51713 6.06934 2.93984 6.06934Z" fill="#31B702"/>
<path d="M15.2074 6.06934C14.6301 6.06934 14.125 6.52227 14.125 7.03985V11.5689C14.125 12.0865 14.6301 12.5394 15.2074 12.5394C15.7847 12.5394 16.2898 12.0865 16.2898 11.5689V7.03985C16.2898 6.52224 15.7847 6.06934 15.2074 6.06934Z" fill="#31B702"/>
</g>
</svg>
