<svg width="17" height="16" viewBox="0 0 17 16" fill="none" xmlns="http://www.w3.org/2000/svg">
<path fill-rule="evenodd" clip-rule="evenodd" d="M8.5 0C8.72572 0 8.93186 0.126358 9.03177 0.325951L11.3372 4.93166L16.4927 5.67476C16.716 5.70695 16.9015 5.86134 16.9711 6.07304C17.0407 6.28474 16.9824 6.51705 16.8207 6.67233L13.0907 10.255L13.971 15.3163C14.0091 15.5358 13.9177 15.7575 13.735 15.8883C13.5524 16.0192 13.3103 16.0364 13.1105 15.9328L8.5 13.5418L3.88952 15.9328C3.68972 16.0364 3.4476 16.0192 3.26496 15.8883C3.08232 15.7575 2.99085 15.5358 3.02901 15.3163L3.9093 10.255L0.179268 6.67233C0.0175998 6.51705 -0.0406781 6.28474 0.0289294 6.07304C0.098537 5.86134 0.283963 5.70695 0.507272 5.67476L5.66283 4.93166L7.96823 0.325951C8.06814 0.126358 8.27428 0 8.5 0ZM8.5 1.906L6.58852 5.72473C6.50221 5.89716 6.33546 6.01672 6.14252 6.04453L1.8671 6.66078L4.96029 9.63176C5.10017 9.76611 5.16402 9.95975 5.13101 10.1495L4.40114 14.346L8.22398 12.3635C8.39677 12.2739 8.60323 12.2739 8.77602 12.3635L12.5989 14.346L11.869 10.1495C11.836 9.95975 11.8998 9.76611 12.0397 9.63176L15.1329 6.66078L10.8575 6.04453C10.6645 6.01672 10.4978 5.89716 10.4115 5.72473L8.5 1.906Z" fill="#242424"/>
</svg>
