<svg width="18" height="18" viewBox="0 0 18 18" fill="none" xmlns="http://www.w3.org/2000/svg">
<path opacity="0.3" fill-rule="evenodd" clip-rule="evenodd" d="M1.5 14.75C1.5 15.3023 1.94772 15.75 2.5 15.75H15.5C16.0523 15.75 16.5 15.3023 16.5 14.75V6.25C16.5 5.69772 16.0523 5.25 15.5 5.25H7.5L5.54289 3.29289C5.35536 3.10536 5.101 3 4.83579 3H2.5C1.94772 3 1.5 3.44772 1.5 4V14.75Z" fill="#6B7C93"/>
<path fill-rule="evenodd" clip-rule="evenodd" d="M9 9.75C8.17157 9.75 7.5 9.07843 7.5 8.25C7.5 7.42157 8.17157 6.75 9 6.75C9.82843 6.75 10.5 7.42157 10.5 8.25C10.5 9.07843 9.82843 9.75 9 9.75Z" fill="#6B7C93"/>
<path fill-rule="evenodd" clip-rule="evenodd" d="M5.25027 13.8746C5.41177 11.6374 7.0258 10.5 8.99306 10.5C10.988 10.5 12.627 11.5749 12.7491 13.875C12.754 13.9666 12.7491 14.25 12.4361 14.25C10.8921 14.25 8.5978 14.25 5.55313 14.25C5.44863 14.25 5.24147 13.9965 5.25027 13.8746Z" fill="#6B7C93"/>
</svg>
