<svg width="18" height="18" viewBox="0 0 18 18" fill="none" xmlns="http://www.w3.org/2000/svg">
<path  opacity="0.35"  d="M15.7819 10.919L15.7839 10.9196C15.0372 13.2194 13.2198 15.0367 10.9197 15.7838L10.919 15.7815L9.63818 13.8889L9.81311 12.3782C11.0249 11.984 11.984 11.0248 12.3782 9.81307L13.9027 9.64258L15.7819 10.919Z" fill="#C4CBD4"/>
<path opacity="0.35"  d="M6.23839 1.37506L7.42753 2.98565L7.34434 4.77874C6.13253 5.17291 5.17343 6.13205 4.77926 7.34382L2.60704 7.74489L1.37586 6.23791L1.37354 6.23723C2.12058 3.93715 3.93797 2.11979 6.23772 1.37305L6.23839 1.37506Z" fill="#C4CBD4"/>
<path opacity="0.35"  d="M7.34431 12.3783L7.48871 13.983L6.23839 15.7816L6.23772 15.7839C3.93797 15.0369 2.12061 13.2195 1.37354 10.9198L1.37586 10.9191L3.06272 9.70508L4.7792 9.81314C5.1734 11.025 6.13253 11.9841 7.34431 12.3783Z" fill="#C4CBD4"/>
<path opacity="0.35"  d="M15.784 6.2372L15.782 6.23788L14.39 7.79706L12.3783 7.34379C11.9841 6.13198 11.025 5.17288 9.81322 4.77871L9.62646 2.87154L10.9192 1.37503L10.9198 1.37305C13.2199 2.11976 15.0372 3.93711 15.784 6.2372Z" fill="#C4CBD4"/>

<path d="M1.37601 6.23798L4.77935 7.34392C4.65253 7.73277 4.58392 8.1479 4.58392 8.57837C4.58392 9.00885 4.6525 9.42398 4.77935 9.81283L1.37601 10.9187L1.37368 10.9194C1.13431 10.182 1.00513 9.39531 1.00513 8.57834C1.00513 7.76138 1.13431 6.97469 1.37365 6.2373L1.37601 6.23798Z" fill="#6B7C93"/>
<path d="M10.9192 15.7813L10.9199 15.7836C10.1825 16.023 9.3958 16.1521 8.57883 16.1521C7.76186 16.1521 6.97518 16.0229 6.23779 15.7836L6.23847 15.7813L7.34441 12.3779C7.73326 12.5048 8.14839 12.5734 8.57886 12.5734C9.00933 12.5734 9.42447 12.5048 9.81331 12.3779L10.9192 15.7813Z" fill="#6B7C93"/>
<path d="M15.7841 6.2373C16.0235 6.97469 16.1526 7.76138 16.1526 8.57834C16.1526 9.39531 16.0234 10.182 15.7841 10.9194L15.7821 10.9187L12.3784 9.81276C12.5052 9.42392 12.5739 9.00879 12.5739 8.57831C12.5739 8.14784 12.5053 7.73271 12.3784 7.34386L15.7821 6.23792L15.7841 6.2373Z" fill="#6B7C93"/>
<path d="M10.9199 1.37341L10.9192 1.3754L9.81325 4.77908C9.4244 4.65225 9.00927 4.58364 8.5788 4.58364C8.14833 4.58364 7.7332 4.65222 7.34435 4.77908L6.23847 1.37543L6.23779 1.37344C6.97518 1.13406 7.76186 1.00488 8.57883 1.00488C9.3958 1.00488 10.1825 1.13406 10.9199 1.37341Z" fill="#6B7C93"/>
</svg>
