<svg width="17" height="17" viewBox="0 0 17 17" fill="none" xmlns="http://www.w3.org/2000/svg">
<g clip-path="url(#clip0)">
<path fill-rule="evenodd" clip-rule="evenodd" d="M11.5117 0.178166C11.8046 -0.114727 12.2794 -0.114727 12.5723 0.178166L15.4057 3.0115C15.5463 3.15215 15.6253 3.34292 15.6253 3.54183C15.6253 3.74074 15.5463 3.93151 15.4057 4.07216L12.5723 6.90549C12.2794 7.19839 11.8046 7.19839 11.5117 6.90549C11.2188 6.6126 11.2188 6.13773 11.5117 5.84483L13.8147 3.54183L11.5117 1.23883C11.2188 0.945933 11.2188 0.471059 11.5117 0.178166Z" fill="#3757FF"/>
<path fill-rule="evenodd" clip-rule="evenodd" d="M4.95833 4.2915C4.4058 4.2915 3.8759 4.511 3.48519 4.9017C3.09449 5.2924 2.875 5.8223 2.875 6.37484V7.7915C2.875 8.20572 2.53921 8.5415 2.125 8.5415C1.71079 8.5415 1.375 8.20572 1.375 7.7915V6.37484C1.375 5.42448 1.75253 4.51304 2.42453 3.84104C3.09654 3.16903 4.00797 2.7915 4.95833 2.7915H14.875C15.2892 2.7915 15.625 3.12729 15.625 3.5415C15.625 3.95572 15.2892 4.2915 14.875 4.2915H4.95833Z" fill="#3757FF"/>
<path fill-rule="evenodd" clip-rule="evenodd" d="M5.48866 10.0947C5.78156 10.3876 5.78156 10.8624 5.48866 11.1553L3.18566 13.4583L5.48866 15.7613C5.78156 16.0542 5.78156 16.5291 5.48866 16.822C5.19577 17.1149 4.7209 17.1149 4.428 16.822L1.59467 13.9887C1.30178 13.6958 1.30178 13.2209 1.59467 12.928L4.428 10.0947C4.7209 9.80178 5.19577 9.80178 5.48866 10.0947Z" fill="#3757FF"/>
<path fill-rule="evenodd" clip-rule="evenodd" d="M14.875 8.4585C15.2892 8.4585 15.625 8.79428 15.625 9.2085V10.6252C15.625 11.5755 15.2475 12.487 14.5755 13.159C13.9035 13.831 12.992 14.2085 12.0417 14.2085H2.125C1.71079 14.2085 1.375 13.8727 1.375 13.4585C1.375 13.0443 1.71079 12.7085 2.125 12.7085H12.0417C12.5942 12.7085 13.1241 12.489 13.5148 12.0983C13.9055 11.7076 14.125 11.1777 14.125 10.6252V9.2085C14.125 8.79428 14.4608 8.4585 14.875 8.4585Z" fill="#3757FF"/>
</g>
<defs>
<clipPath id="clip0">
<rect width="17" height="17" fill="white"/>
</clipPath>
</defs>
</svg>
