<svg width="18" height="18" viewBox="0 0 18 18" fill="none" xmlns="http://www.w3.org/2000/svg">
<path fill-rule="evenodd" clip-rule="evenodd" d="M3 9.75C3.41421 9.75 3.75 10.0858 3.75 10.5V15.75C3.75 16.1642 3.41421 16.5 3 16.5C2.58579 16.5 2.25 16.1642 2.25 15.75V10.5C2.25 10.0858 2.58579 9.75 3 9.75Z" fill="white"/>
<path fill-rule="evenodd" clip-rule="evenodd" d="M3 1.5C3.41421 1.5 3.75 1.83579 3.75 2.25V7.5C3.75 7.91421 3.41421 8.25 3 8.25C2.58579 8.25 2.25 7.91421 2.25 7.5V2.25C2.25 1.83579 2.58579 1.5 3 1.5Z" fill="white"/>
<path fill-rule="evenodd" clip-rule="evenodd" d="M9 8.25C9.41421 8.25 9.75 8.58579 9.75 9V15.75C9.75 16.1642 9.41421 16.5 9 16.5C8.58579 16.5 8.25 16.1642 8.25 15.75V9C8.25 8.58579 8.58579 8.25 9 8.25Z" fill="white"/>
<path fill-rule="evenodd" clip-rule="evenodd" d="M9 1.5C9.41421 1.5 9.75 1.83579 9.75 2.25V6C9.75 6.41421 9.41421 6.75 9 6.75C8.58579 6.75 8.25 6.41421 8.25 6V2.25C8.25 1.83579 8.58579 1.5 9 1.5Z" fill="white"/>
<path fill-rule="evenodd" clip-rule="evenodd" d="M15 11.25C15.4142 11.25 15.75 11.5858 15.75 12V15.75C15.75 16.1642 15.4142 16.5 15 16.5C14.5858 16.5 14.25 16.1642 14.25 15.75V12C14.25 11.5858 14.5858 11.25 15 11.25Z" fill="white"/>
<path fill-rule="evenodd" clip-rule="evenodd" d="M15 1.5C15.4142 1.5 15.75 1.83579 15.75 2.25V9C15.75 9.41421 15.4142 9.75 15 9.75C14.5858 9.75 14.25 9.41421 14.25 9V2.25C14.25 1.83579 14.5858 1.5 15 1.5Z" fill="white"/>
<path fill-rule="evenodd" clip-rule="evenodd" d="M0 10.5C0 10.0858 0.335786 9.75 0.75 9.75H5.25C5.66421 9.75 6 10.0858 6 10.5C6 10.9142 5.66421 11.25 5.25 11.25H0.75C0.335786 11.25 0 10.9142 0 10.5Z" fill="white"/>
<path fill-rule="evenodd" clip-rule="evenodd" d="M6 6C6 5.58579 6.33579 5.25 6.75 5.25H11.25C11.6642 5.25 12 5.58579 12 6C12 6.41421 11.6642 6.75 11.25 6.75H6.75C6.33579 6.75 6 6.41421 6 6Z" fill="white"/>
<path fill-rule="evenodd" clip-rule="evenodd" d="M12 12C12 11.5858 12.3358 11.25 12.75 11.25H17.25C17.6642 11.25 18 11.5858 18 12C18 12.4142 17.6642 12.75 17.25 12.75H12.75C12.3358 12.75 12 12.4142 12 12Z" fill="white"/>
</svg>
