<svg width="10" height="17" viewBox="0 0 10 17" fill="none" xmlns="http://www.w3.org/2000/svg">
<path fill-rule="evenodd" clip-rule="evenodd" d="M4.88289 0C5.18253 0 5.42544 0.242909 5.42544 0.542553V16.4574C5.42544 16.7571 5.18253 17 4.88289 17C4.58324 17 4.34033 16.7571 4.34033 16.4574V0.542553C4.34033 0.242909 4.58324 0 4.88289 0Z" fill="#242424"/>
<path fill-rule="evenodd" clip-rule="evenodd" d="M0.900491 3.79502C1.47707 3.21845 2.25907 2.89453 3.07447 2.89453H8.5C8.79964 2.89453 9.04255 3.13744 9.04255 3.43708C9.04255 3.73673 8.79964 3.97964 8.5 3.97964H3.07447C2.54686 3.97964 2.04086 4.18923 1.66778 4.56231C1.2947 4.93539 1.08511 5.44139 1.08511 5.969C1.08511 6.49661 1.2947 7.00261 1.66778 7.37569C2.04086 7.74877 2.54686 7.95836 3.07447 7.95836H6.69149C7.50689 7.95836 8.28889 8.28228 8.86547 8.85885C9.44204 9.43543 9.76596 10.2174 9.76596 11.0328C9.76596 11.8482 9.44204 12.6302 8.86547 13.2068C8.28889 13.7834 7.50689 14.1073 6.69149 14.1073H0.542553C0.242909 14.1073 0 13.8644 0 13.5647C0 13.2651 0.242909 13.0222 0.542553 13.0222H6.69149C7.2191 13.0222 7.7251 12.8126 8.09818 12.4395C8.47126 12.0664 8.68085 11.5604 8.68085 11.0328C8.68085 10.5052 8.47126 9.99922 8.09818 9.62614C7.7251 9.25306 7.2191 9.04347 6.69149 9.04347H3.07447C2.25907 9.04347 1.47707 8.71955 0.900491 8.14298C0.323916 7.5664 0 6.7844 0 5.969C0 5.1536 0.323916 4.3716 0.900491 3.79502Z" fill="#242424"/>
</svg>
