<svg width="17" height="17" viewBox="0 0 17 17" fill="none" xmlns="http://www.w3.org/2000/svg">
<path d="M7.02094 0C6.31395 0 5.72747 0.586482 5.72747 1.29348V2.10768C4.98586 2.38673 4.32188 2.80584 3.72951 3.30876L2.99616 2.90455C2.37734 2.56134 1.57764 2.78906 1.23494 3.40693L0.160891 5.34715C-0.180107 5.96197 0.037419 6.76444 0.657494 7.10836L1.39084 7.51834C1.34413 7.84158 1.29268 8.16456 1.29268 8.5C1.29268 8.83701 1.34947 9.15698 1.39662 9.48166L0.657494 9.89163C0.037419 10.2355 -0.180107 11.0322 0.160891 11.6471L1.23494 13.5873C1.57764 14.2052 2.37732 14.4387 2.99616 14.0954L3.73529 13.6855C4.32682 14.187 4.98732 14.608 5.72747 14.8865V15.7065C5.72747 16.4135 6.31395 17 7.02094 17H9.23834C9.94533 17 10.5318 16.4135 10.5318 15.7065V14.8865C11.272 14.608 11.9324 14.187 12.524 13.6855L13.2631 14.0954C13.8819 14.4387 14.6817 14.2052 15.0243 13.5873L16.0984 11.6471C16.4394 11.0322 16.2219 10.2355 15.6018 9.89163L14.8627 9.48166C14.9098 9.15698 14.9666 8.83701 14.9666 8.5C14.9666 8.16456 14.9151 7.84158 14.8684 7.51834L15.6018 7.10836C16.2219 6.76444 16.4394 5.96197 16.0984 5.34715L15.0243 3.40693C14.6817 2.78906 13.8819 2.56134 13.2631 2.90455L12.5298 3.30876C11.9374 2.80584 11.2734 2.38673 10.5318 2.10768V1.29348C10.5318 0.586482 9.94533 0 9.23834 0H7.02094ZM7.02094 1.1087H9.23834C9.3503 1.1087 9.42312 1.18151 9.42312 1.29348V2.49457C9.42515 2.72853 9.59197 2.95179 9.81578 3.02004C10.683 3.28618 11.4574 3.7566 12.0967 4.37126C12.2666 4.53693 12.548 4.57396 12.755 4.45788L13.8059 3.87466C13.9033 3.82066 13.9997 3.84564 14.0542 3.94395L15.1283 5.88417C15.1845 5.98553 15.1551 6.08495 15.059 6.13825L14.008 6.72147C13.8049 6.83568 13.6897 7.08794 13.7366 7.31624C13.8163 7.69664 13.8579 8.09377 13.8579 8.5C13.8579 8.90621 13.8163 9.2976 13.7366 9.67799C13.6871 9.90795 13.8027 10.1637 14.008 10.2785L15.059 10.8617C15.1551 10.9151 15.1845 11.0087 15.1283 11.1101L14.0542 13.0503C13.9997 13.1486 13.9033 13.1794 13.8059 13.1253L12.755 12.5421C12.5492 12.4246 12.2679 12.4591 12.0967 12.623C11.4575 13.2376 10.683 13.708 9.81578 13.9742C9.59014 14.043 9.42271 14.2695 9.42312 14.5054V15.7065C9.42312 15.8185 9.3503 15.8913 9.23834 15.8913H7.02094C6.90899 15.8913 6.83616 15.8185 6.83616 15.7065V14.5054C6.83616 14.2695 6.66914 14.043 6.4435 13.9742C5.57631 13.708 4.8018 13.2376 4.16258 12.623C3.99136 12.4591 3.71007 12.4246 3.50431 12.5421L2.45334 13.1253C2.35596 13.1794 2.25958 13.1486 2.20505 13.0503L1.131 11.1101C1.07479 11.0087 1.10419 10.9151 1.20029 10.8617L2.25124 10.2785C2.45656 10.1637 2.57214 9.90795 2.52263 9.67799C2.44294 9.2976 2.40138 8.90621 2.40138 8.5C2.40138 8.09377 2.44292 7.69664 2.52263 7.31624C2.56951 7.08793 2.45441 6.83567 2.25124 6.72147L1.20029 6.13825C1.10419 6.08495 1.07479 5.98553 1.131 5.88417L2.20505 3.94395C2.25958 3.84564 2.35596 3.82066 2.45334 3.87466L3.50431 4.45788C3.71125 4.57396 3.99271 4.53693 4.16258 4.37126C4.8018 3.7566 5.57631 3.28618 6.4435 3.02004C6.66731 2.95179 6.83413 2.72853 6.83616 2.49457V1.29348C6.83616 1.18151 6.90899 1.1087 7.02094 1.1087ZM8.12964 4.61957C5.99311 4.61957 4.24921 6.36344 4.24921 8.5C4.24921 10.6365 5.99311 12.3804 8.12964 12.3804C10.2662 12.3804 12.0101 10.6365 12.0101 8.5C12.0101 6.36345 10.2662 4.61957 8.12964 4.61957ZM8.12964 5.72826C9.667 5.72826 10.9014 6.96262 10.9014 8.5C10.9014 10.0373 9.667 11.2717 8.12964 11.2717C6.59229 11.2717 5.3579 10.0373 5.3579 8.5C5.3579 6.96262 6.59229 5.72826 8.12964 5.72826Z" fill="#242424"/>
</svg>
