<svg width="12" height="12" viewBox="0 0 12 12" fill="none" xmlns="http://www.w3.org/2000/svg">
<path d="M0.780434 12C0.811934 12 0.843684 11.9942 0.873934 11.982L3.24143 11.028C3.27268 11.0152 3.30093 10.9967 3.32468 10.9727L8.87469 5.42271C8.97244 5.32496 8.97244 5.16696 8.87469 5.06921L6.93119 3.12546C6.83744 3.03171 6.67144 3.03171 6.57769 3.12546L1.02768 8.67571C1.00368 8.69946 0.985184 8.72771 0.972434 8.75896L0.0186844 11.1265C-0.0185661 11.2195 0.0029335 11.326 0.0739336 11.3967L0.603683 11.9267C0.651433 11.9745 0.715434 12 0.780434 12ZM3.00718 10.583L0.840184 11.4562L0.544184 11.16L1.41718 8.99296L6.75418 3.65546L8.34419 5.24571L3.00718 10.583Z" fill="black"/>
<path d="M9.68149 6.16C9.94024 6.16 10.181 6.06175 10.3592 5.88325C10.7392 5.50275 10.7267 4.87175 10.3315 4.47675L10.1457 4.291L11.3722 3.06425C11.7367 2.7 11.9572 2.2315 11.9937 1.74525C12.031 1.24475 11.8702 0.78775 11.5407 0.4585C11.2455 0.16275 10.8377 0 10.3927 0C9.86449 0 9.33299 0.2285 8.93499 0.6265L7.70824 1.85325L7.52249 1.66725C7.32599 1.471 7.06724 1.36275 6.79374 1.36275C6.53524 1.36275 6.29474 1.461 6.11599 1.63925C5.73574 2.01975 5.74824 2.65075 6.14349 3.046L8.95249 5.8555C9.14899 6.052 9.40774 6.16 9.68149 6.16ZM10.3927 0.5C10.7042 0.5 10.9862 0.61075 11.1872 0.8115C11.412 1.0365 11.5215 1.3545 11.495 1.7075C11.4675 2.0745 11.2985 2.43075 11.0187 2.7105L9.61549 4.114C9.56849 4.161 9.54224 4.2245 9.54224 4.29075C9.54224 4.357 9.56849 4.42075 9.61549 4.4675L9.97799 4.83C10.1782 5.0305 10.1907 5.34425 10.0055 5.52975C9.92149 5.61375 9.80624 5.66 9.68124 5.66C9.54324 5.66 9.40624 5.6025 9.30599 5.502L6.49699 2.693C6.29674 2.49275 6.28424 2.17875 6.46949 1.9935C6.64749 1.8155 6.97574 1.82825 7.16874 2.02125L7.53124 2.384C7.62474 2.47775 7.79099 2.478 7.88499 2.384L9.28849 0.9805C9.59349 0.675 9.99599 0.5 10.3927 0.5Z" fill="black"/>
</svg>
