<svg width="138" height="146" viewBox="0 0 138 146" fill="none" xmlns="http://www.w3.org/2000/svg">
<path d="M14.9781 81.6807C4.40683 105.517 57.5212 118.277 61.7111 134.793C65.8941 151.282 84.5942 147.1 94.2631 138.032C103.932 128.964 98.7752 110.829 113.923 121.516C129.071 132.203 139.707 117.953 137.773 94.9596C135.839 71.9657 109.089 78.4429 116.179 66.1364C123.27 53.8298 115.857 24.3581 77.8259 6.54601C39.7949 -11.2661 -27.1483 10.7795 11.7551 30.8349C48.8191 49.942 28.1923 51.8859 14.9781 81.6807Z" fill="#3BFF37" fill-opacity="0.1"/>
<path d="M123.07 75.1994C123.587 73.1156 124.104 70.6844 124.277 68.0796C124.277 70.3371 123.846 72.7682 123.07 75.1994Z" fill="#00AB62"/>
<path d="M48.1872 87.8799C47.4978 85.2752 47.2393 82.7572 47.2393 80.4128C47.4978 84.841 48.1872 87.7063 48.1872 87.8799Z" fill="#00B4FF"/>
<path d="M48.1872 87.8806C48.101 87.7069 47.4116 84.8416 47.2393 80.4135V80.3266C47.2393 77.8955 47.4978 75.638 48.0148 73.4673C47.1531 80.8476 48.101 87.3596 48.1872 87.8806Z" fill="#706766"/>
<path d="M60.7998 100.229C58.1906 106.721 55.7333 113.967 54.2364 118.556C53.3345 121.321 50.7666 123.215 47.8583 123.215C45.2976 123.215 44.5158 121.102 46.9022 120.174C47.5562 119.92 48.0252 119.766 48.091 119.745C48.098 119.742 48.0993 119.742 48.1062 119.74C48.3226 119.657 53.2472 117.434 48.2712 87.8767C56.6303 92.2181 59.5934 93.717 60.7998 100.229Z" fill="#FFC766"/>
<path d="M48.1872 87.8799C47.4978 85.2752 47.2393 82.7572 47.2393 80.4128C47.4978 84.841 48.1872 87.7063 48.1872 87.8799Z" fill="#FFA200"/>
<path d="M66.3676 89.9513C61.1109 89.691 54.5948 90.1133 48.1846 87.8676C48.4431 87.3467 52.6594 77.4483 58.2608 65.553C60.9322 64.511 64.464 63.2981 68.594 64.9478C68.594 64.9478 68.5176 65.0431 68.7761 65.1299C69.8136 73.1457 68.5908 81.7542 66.3676 89.9513Z" fill="#EA6766"/>
<path d="M66.3676 89.9606C64.9888 95.6911 63.093 101.074 61.2833 105.676C59.9906 99.1642 56.5436 92.1312 48.1846 87.8767C55.0786 89.0923 61.1109 89.7001 66.3676 89.9606Z" fill="#EA6766"/>
<path d="M72.1401 90.1336C70.1741 103.717 67.8648 117.069 65.8182 122.536C65.1837 124.231 63.487 124.951 61.6771 124.951H61.0519C58.5859 124.951 56.5556 124.144 58.5389 122.678C59.2637 122.143 61.1453 120.475 61.3029 119.588C61.7408 117.123 62.4268 111.636 61.2819 105.676C63.0916 101.074 64.9875 95.6905 66.3663 89.96C68.4345 90.1336 70.3304 90.1336 72.1401 90.1336Z" fill="#EA6766"/>
<path d="M76.7839 53.4853C75.2327 53.138 73.8539 52.8775 72.4751 52.7039C70.4069 52.4434 68.511 52.4434 66.7875 52.5302C66.7875 52.5302 66.7875 52.617 66.8737 52.617C68.2525 55.3955 76.0083 60.171 76.0083 60.171C76.0083 65.9016 70.1419 65.228 68.5908 65.0543C69.1078 73.5633 68.2123 82.4857 66.3164 90.2132C68.3846 90.3001 72.1378 90.1938 73.9475 90.1071C76.5328 71.9602 76.8701 53.4853 76.7839 53.4853C76.8701 53.4853 76.8701 53.4853 76.7839 53.4853Z" fill="#EA6766"/>
<path d="M58.3526 65.5652C52.7512 77.4605 48.4424 87.3589 48.1839 87.8798C48.1839 87.0114 47.8392 69.8197 58.3526 65.5652Z" fill="#EA6766"/>
<path d="M66.8001 52.3501C66.0246 52.4369 65.249 52.5237 64.5596 52.6106C64.9904 51.6555 65.5075 50.7004 66.0246 49.6584C66.2831 50.3531 66.8001 52.1764 66.8001 52.3501Z" fill="#706766"/>
<path d="M66.0241 49.6584C65.507 50.6135 65.0761 51.5686 64.5591 52.6106C63.2664 52.7842 61.9738 53.1315 60.8535 53.5657C63.7835 51.0477 66.0241 49.6584 66.0241 49.6584Z" fill="#706766"/>
<path d="M76.0204 59.9878C76.0204 65.7184 70.1427 65.2012 68.5915 65.0276C68.333 60.6862 68.0922 56.6884 66.8857 52.4338C68.1784 55.2123 76.0204 59.9878 76.0204 59.9878Z" fill="#706766"/>
<path d="M60.8548 53.5715C56.2875 57.4787 50.169 64.3381 48.0146 73.5417C48.9626 65.6405 52.0649 56.7841 60.8548 53.5715Z" fill="#706766"/>
<path d="M64.558 52.6113C62.4036 56.9527 60.3353 61.3808 58.3533 65.5486C47.7537 69.8031 48.1846 86.9949 48.1846 87.8631C48.0984 87.3422 47.1505 80.8301 47.926 73.5366C50.0804 64.2461 56.2851 57.4736 60.7662 53.5664C61.9727 53.1323 63.2653 52.785 64.558 52.6113Z" fill="#706766"/>
<path d="M68.5949 65.037C68.3364 65.037 68.3218 65.037 68.3218 65.037C64.1854 63.9951 61.0259 64.4229 58.3545 65.4648C60.3365 61.2971 62.4047 56.8689 64.5592 52.5276C65.2486 52.4407 66.0241 52.3539 66.7997 52.2671C66.7997 52.2671 66.7997 52.3539 66.8859 52.3539C68.0924 56.6953 68.3364 60.7824 68.5949 65.037Z" fill="#706766"/>
<path d="M114.223 105.806C114.716 107.024 114.832 108.381 114.432 109.633L111.162 119.857C110.505 121.912 108.594 123.307 106.436 123.307H105.934C102.669 123.307 101.581 120.871 104.583 119.589C104.965 119.426 105.204 119.335 105.204 119.335C105.204 119.335 111.406 110.901 99.2867 96.3035C96.1843 93.2645 94.1161 89.5309 92.7373 85.5369C94.7193 84.3213 96.3325 82.6426 97.4528 81.1665C97.7975 81.8611 98.3925 82.5131 98.5453 83.2604C98.6314 83.3472 98.8184 83.4509 98.8184 83.6246C100.714 86.5767 103.095 89.3001 106.284 91.8181C108.697 93.7283 110.554 95.6434 112.019 97.5536C112.44 100.943 113.477 103.964 114.223 105.806Z" fill="#CAEE66"/>
<path d="M97.3054 81.2789C97.6501 81.9735 98.0809 82.5813 98.4256 83.2759C98.0809 82.5813 97.6501 81.9735 97.3054 81.2789C95.0648 77.2849 93.5136 72.5094 92.8242 66.7788C93.4274 71.3806 94.7201 76.4166 97.3054 81.2789Z" fill="#A6E200"/>
<path d="M122.987 75.2788C122.298 77.6231 121.608 79.3597 121.35 79.9675C121.608 78.8387 122.039 77.71 122.47 76.5812C122.728 76.1471 122.901 75.7129 122.987 75.2788Z" fill="#A6E200"/>
<path d="M124.192 67.9911C123.934 58.1796 115.402 50.2784 100.58 50.452C100.925 50.452 101.269 50.452 101.614 50.452C102.131 50.452 102.648 50.452 103.252 50.452C107.129 50.452 110.318 50.973 112.903 51.7544H112.989C122.382 54.6197 124.451 61.6527 124.192 67.9911Z" fill="#A6E200"/>
<path d="M125.165 104.182C125.818 105.387 126.094 106.787 125.802 108.126L122.977 121.054C122.479 123.332 120.462 124.956 118.13 124.956H116.419C113.272 124.956 112.334 122.771 115.292 121.696C115.363 121.67 115.402 121.656 115.402 121.656C115.402 121.656 126.539 116.854 111.955 98.0006C111.869 97.306 111.955 96.2161 111.955 95.5215C115.833 97.6922 119.797 99.0814 123.244 100.036C123.92 101.757 124.613 103.165 125.165 104.182Z" fill="#66AA66"/>
<path d="M112.647 99.2302C110.662 95.2611 108.594 93.7744 106.267 91.8642C103.079 89.3462 100.666 86.4809 98.6836 83.5288C102.303 88.9989 110.166 91.0439 111.955 95.5978C111.955 96.2924 119.097 106.672 112.647 99.2302Z" fill="#66AA66"/>
<path d="M123.158 100.035C119.711 99.08 115.747 97.6907 111.869 95.5201C111.869 90.2236 113.851 84.1457 121.262 80.1517C121.262 80.1517 121.262 80.0649 121.348 79.978C119.28 87.7925 121.176 95.1727 123.158 100.035Z" fill="#66AA66"/>
<path d="M124.192 67.9911C124.106 70.6827 123.589 73.1139 122.985 75.1978C122.985 75.1978 122.985 75.1978 122.985 75.2845C122.813 75.7187 122.641 76.1529 122.468 76.5869C121.951 77.7157 121.607 78.8444 121.348 79.9732C121.262 80.1468 121.262 80.1468 121.262 80.1468C113.851 84.141 111.869 90.2188 111.955 95.6021C107.129 92.9104 102.303 89.0901 98.6839 83.5331C98.5977 83.4462 98.5116 83.3595 98.5116 83.1859C98.0807 82.578 97.736 81.8834 97.3913 81.1887C105.492 69.7276 93.1748 51.2071 93.1748 51.2071C93.1748 51.2071 93.4272 51.0598 93.8581 51.0598C93.9443 51.0598 94.1166 51.0598 94.2028 50.973C96.4433 50.7125 98.5116 50.5389 100.494 50.452H100.58C115.402 50.2784 123.933 58.1796 124.192 67.9911Z" fill="#66AA66"/>
<path d="M92.8236 85.5393C88.5147 88.231 81.9654 90.0544 72.2275 90.1411C74.899 71.9076 76.7873 53.4922 76.7873 53.4922C81.0099 53.9263 86.5327 53.4133 93.1682 51.2427C92.8236 52.1978 87.7391 70.6919 92.8236 85.5393Z" fill="#EA6766"/>
<path d="M97.4537 81.2713C96.3334 82.8341 94.7017 84.3347 92.7197 85.5502C87.6353 70.7028 92.8254 52.2744 93.0839 51.3193C92.9977 51.9271 91.7048 58.3737 92.7389 66.6222V66.7091C93.5145 72.5265 95.2993 77.2772 97.4537 81.2713Z" fill="#EA6766"/>
<path d="M92.3835 66.4421C91.3494 58.1067 92.9009 51.8509 93.174 51.2136C93.174 51.2136 106.347 70.7742 97.2708 81.3477C95.1164 77.3538 93.0729 72.1726 92.3835 66.4421Z" fill="#66AA66"/>
<path d="M122.556 76.4943C122.728 76.0602 122.901 75.626 123.073 75.1919C122.383 77.5362 121.694 79.2728 121.436 79.8805C121.694 78.8386 122.039 77.7099 122.556 76.4943Z" fill="#66D2FF"/>
<path d="M124.192 68.0796C124.278 70.3371 123.847 72.7682 122.985 75.1994C123.589 73.2024 124.106 70.6844 124.192 68.0796Z" fill="#FFBD00"/>
<path d="M133.055 101.008C133.259 101.367 132.983 101.833 132.571 101.798C130.922 101.657 127.416 101.25 123.159 100.131C121.177 95.2692 119.281 87.8888 121.349 79.9876C121.608 79.3797 122.297 77.6433 122.987 75.2989C122.987 75.2989 122.987 75.2989 122.987 75.2122C123.848 72.781 124.193 70.3498 124.193 68.0923V68.0054C124.452 61.6671 122.383 54.6341 112.99 51.7688C120.401 53.8527 127.123 58.8886 127.123 70.1761C127.123 88.9145 131.508 98.2859 133.055 101.008Z" fill="#66D2FF"/>
<path d="M124.192 68.0025C123.934 58.191 115.402 50.2898 100.58 50.4634H100.494C98.5981 50.5503 96.4437 50.7239 94.2031 50.9844C94.5478 50.8976 94.8925 50.8976 95.3234 50.8108C95.4958 50.8108 95.5819 50.8108 95.7543 50.7239C95.9266 50.7239 96.1852 50.7239 96.4437 50.6371C96.9608 50.5503 97.564 50.5503 98.2534 50.4634C98.5119 50.4634 98.7705 50.4634 99.029 50.3766C99.2013 50.3766 99.2875 50.3766 99.4599 50.3766C100.149 50.3766 100.839 50.2898 101.528 50.2898C102.045 50.2898 102.562 50.2898 103.165 50.2898C106.182 50.3766 109.629 50.7239 112.817 51.5922H112.903C122.383 54.6311 124.451 61.6641 124.192 68.0025Z" fill="#66D2FF"/>
<path fill-rule="evenodd" clip-rule="evenodd" d="M65.937 33.0878C65.937 33.0878 61.7144 34.3902 59.8186 37.1686C59.9047 36.9081 60.5941 33.956 59.6463 33.0009C59.5601 32.9141 35 38.9052 35 57.1389C35 78.7587 47.6678 87.5283 48.1849 87.8756C22.9765 50.2887 60.3781 43.4066 62.5766 43.0021L62.5847 43.0006L62.6039 43.0337C48.2669 54.752 46.7205 71.0439 47.1508 80.4084C47.1508 77.9773 47.4093 75.7197 47.9264 73.5491C48.8743 65.6479 51.9766 56.7914 60.7666 53.579C63.6964 51.0609 65.851 49.7585 65.851 49.7585H65.937C64.89 46.9995 62.8644 43.4819 62.6039 43.0337L62.6624 42.986C62.6476 42.989 62.6215 42.9938 62.5847 43.0006L62.5761 42.986C62.5761 42.986 66.885 37.2554 65.937 33.0878ZM51.6325 40.8148C51.6325 40.8148 55.1658 35.5184 59.0436 34.1291C59.1298 34.1291 59.733 40.4675 51.6325 40.8148ZM64.9896 34.6504C62.0596 36.2133 60.9393 39.4259 60.9393 39.4259C63.3401 38.7662 64.5125 35.8168 64.8714 34.9139C64.9376 34.7473 64.9762 34.6504 64.9896 34.6504Z" fill="#66D2FF"/>
<path d="M47.2376 80.397C47.2376 82.8281 47.5823 85.2593 48.1855 87.8641C22.5051 49.5735 61.8012 43.1483 62.6629 42.9746C48.3578 54.6962 46.7205 70.9328 47.2376 80.397Z" fill="#66D2FF"/>
<path d="M48.1872 87.8799C47.4978 85.2752 47.2393 82.7572 47.2393 80.4128C47.4978 84.841 48.1872 87.7063 48.1872 87.8799Z" fill="#00B4FF"/>
<path d="M51.6309 40.8234C51.6309 40.8234 55.1641 35.5269 59.042 34.1377C59.1281 34.1377 59.7314 40.4761 51.6309 40.8234Z" fill="#5AC8F6"/>
<path d="M64.9028 34.6711C64.9028 34.6711 63.6963 38.752 60.8525 39.4466C60.9387 39.4466 62.059 36.234 64.9028 34.6711Z" fill="#5AC8F6"/>
</svg>
