<svg width="17" height="17" viewBox="0 0 17 17" fill="none" xmlns="http://www.w3.org/2000/svg">
    <path d="M8.5 17C13.1944 17 17 13.1944 17 8.5C17 3.80558 13.1944 0 8.5 0C3.80558 0 0 3.80558 0 8.5C0 13.1944 3.80558 17 8.5 17Z" fill="#F0F0F0"/>
    <path d="M16.9999 8.49996C16.9999 5.13004 15.0387 2.21826 12.1955 0.843384V16.1565C15.0387 14.7817 16.9999 11.8699 16.9999 8.49996Z" fill="#D80027"/>
    <path d="M0 8.49996C0 11.8699 1.96114 14.7817 4.80436 16.1565V0.843384C1.96114 2.21826 0 5.13004 0 8.49996Z" fill="#6DA544"/>
    <path d="M6.28287 8.50009C6.28287 9.72472 7.27564 10.7175 8.50028 10.7175C9.72491 10.7175 10.7177 9.72472 10.7177 8.50009V7.76096H6.28287V8.50009Z" fill="#6DA544"/>
    <path d="M11.4563 7.02176H9.23894C9.23894 6.61356 8.90801 6.28262 8.49981 6.28262C8.09161 6.28262 7.76068 6.61356 7.76068 7.02176H5.54327C5.54327 7.42999 5.89885 7.76089 6.30701 7.76089H6.28241C6.28241 8.16912 6.61331 8.50002 7.02154 8.50002C7.02154 8.90825 7.35244 9.23915 7.76068 9.23915H9.23894C9.64718 9.23915 9.97808 8.90825 9.97808 8.50002C10.3863 8.50002 10.7172 8.16912 10.7172 7.76089H10.6926C11.1008 7.76089 11.4563 7.42999 11.4563 7.02176Z" fill="#FF9811"/>
</svg>
