<svg width="25" height="25" viewBox="0 0 25 25" fill="none" xmlns="http://www.w3.org/2000/svg">
<path d="M24.5689 20.6897H0.431054C0.193017 20.6897 0 20.4966 0 20.2586V4.7414C0 4.50337 0.193017 4.31035 0.431054 4.31035H24.5689C24.807 4.31035 25 4.50337 25 4.7414V20.2586C25 20.4967 24.8069 20.6897 24.5689 20.6897Z" fill="#F5F5F5"/>
<path d="M25 5.57036H0V4.7414C0 4.50337 0.193017 4.31035 0.431054 4.31035H24.5689C24.807 4.31035 25 4.50337 25 4.7414L25 5.57036Z" fill="#FF4B55"/>
<path d="M25 9.35013H0V10.6101H25V9.35013Z" fill="#FF4B55"/>
<path d="M25 6.83012H0V8.09008H25V6.83012Z" fill="#FF4B55"/>
<path d="M25 13.13H0.431054C0.193017 13.13 0 12.937 0 12.699V11.87H25V13.13Z" fill="#FF4B55"/>
<path d="M25 16.9102H0V18.1701H25V16.9102Z" fill="#FF4B55"/>
<path d="M24.5689 20.6897H0.431054C0.193017 20.6897 0 20.4966 0 20.2586V19.4297H25V20.2587C25 20.4967 24.8069 20.6897 24.5689 20.6897Z" fill="#FF4B55"/>
<path d="M25 14.3902H0V15.6501H25V14.3902Z" fill="#FF4B55"/>
<path d="M11.2069 4.31039H0.431054C0.193017 4.31039 0 4.50336 0 4.7414V12.6989C0 12.9369 0.193017 13.1299 0.431054 13.1299H11.2069C11.4449 13.1299 11.638 12.9369 11.638 12.6989V4.7414C11.6379 4.50336 11.4449 4.31039 11.2069 4.31039Z" fill="#41479B"/>
<path d="M1.21039 5.29982L1.3058 5.58595L1.60741 5.58825C1.64647 5.58859 1.66264 5.6384 1.63124 5.66159L1.38861 5.84079L1.47963 6.12833C1.49145 6.16554 1.44901 6.1964 1.41723 6.17365L1.17187 5.99831L0.926506 6.1737C0.894719 6.1964 0.852385 6.16559 0.864104 6.12838L0.955119 5.84084L0.712493 5.66164C0.681097 5.6384 0.697259 5.58864 0.736321 5.5883L1.03793 5.586L1.13334 5.29987C1.14565 5.26276 1.19799 5.26276 1.21039 5.29982Z" fill="#F5F5F5"/>
<path d="M1.21039 6.79646L1.3058 7.08259L1.60741 7.08489C1.64647 7.08523 1.66264 7.13503 1.63124 7.15823L1.38861 7.33742L1.47963 7.62497C1.49145 7.66218 1.44901 7.69304 1.41723 7.67028L1.17187 7.49494L0.926506 7.67033C0.894719 7.69304 0.852385 7.66223 0.864104 7.62502L0.955119 7.33747L0.712493 7.15827C0.681097 7.13503 0.697259 7.08528 0.736321 7.08494L1.03793 7.08264L1.13334 6.79651C1.14565 6.75945 1.19799 6.75945 1.21039 6.79646Z" fill="#F5F5F5"/>
<path d="M1.21039 8.29324L1.3058 8.57937L1.60741 8.58167C1.64647 8.58201 1.66264 8.63182 1.63124 8.65501L1.38861 8.83421L1.47963 9.12176C1.49145 9.15897 1.44901 9.18983 1.41723 9.16707L1.17187 8.99173L0.926506 9.16712C0.894719 9.18983 0.852385 9.15902 0.864104 9.12181L0.955119 8.83426L0.712493 8.65506C0.681097 8.63182 0.697259 8.58206 0.736321 8.58172L1.03793 8.57942L1.13334 8.29329C1.14565 8.25623 1.19799 8.25623 1.21039 8.29324Z" fill="#F5F5F5"/>
<path d="M1.21039 9.79006L1.3058 10.0762L1.60741 10.0785C1.64647 10.0788 1.66264 10.1286 1.63124 10.1518L1.38861 10.331L1.47963 10.6186C1.49145 10.6558 1.44901 10.6866 1.41723 10.6639L1.17187 10.4885L0.926506 10.6639C0.894719 10.6866 0.852385 10.6558 0.864104 10.6186L0.955119 10.3311L0.712493 10.1519C0.681097 10.1286 0.697259 10.0789 0.736321 10.0785L1.03793 10.0762L1.13334 9.79011C1.14565 9.753 1.19799 9.753 1.21039 9.79006Z" fill="#F5F5F5"/>
<path d="M1.21039 11.2868L1.3058 11.573L1.60741 11.5753C1.64647 11.5756 1.66264 11.6254 1.63124 11.6486L1.38861 11.8278L1.47963 12.1154C1.49145 12.1526 1.44901 12.1834 1.41723 12.1607L1.17187 11.9853L0.926506 12.1607C0.894719 12.1834 0.852385 12.1526 0.864104 12.1154L0.955119 11.8279L0.712493 11.6487C0.681097 11.6254 0.697259 11.5757 0.736321 11.5753L1.03793 11.573L1.13334 11.2869C1.14565 11.2497 1.19799 11.2497 1.21039 11.2868Z" fill="#F5F5F5"/>
<path d="M2.37215 6.03353L2.46756 6.31966L2.76917 6.32195C2.80823 6.3223 2.82439 6.3721 2.793 6.39529L2.55037 6.57449L2.64139 6.86204C2.6532 6.89925 2.61077 6.93011 2.57899 6.90735L2.33362 6.73196L2.08826 6.90735C2.05648 6.93006 2.01414 6.89925 2.02586 6.86204L2.11688 6.57449L1.87425 6.39529C1.84286 6.37205 1.85902 6.3223 1.89808 6.32195L2.19969 6.31966L2.2951 6.03353C2.30736 5.99651 2.3598 5.99651 2.37215 6.03353Z" fill="#F5F5F5"/>
<path d="M2.37215 7.53036L2.46756 7.81649L2.76917 7.81878C2.80823 7.81912 2.82439 7.86893 2.793 7.89212L2.55037 8.07132L2.64139 8.35886C2.6532 8.39607 2.61077 8.42693 2.57899 8.40417L2.33362 8.22879L2.08826 8.40417C2.05648 8.42688 2.01414 8.39612 2.02586 8.35886L2.11688 8.07132L1.87425 7.89212C1.84286 7.86888 1.85902 7.81912 1.89808 7.81878L2.19969 7.81649L2.2951 7.53036C2.30736 7.4933 2.3598 7.4933 2.37215 7.53036Z" fill="#F5F5F5"/>
<path d="M2.37215 9.02712L2.46756 9.31326L2.76917 9.31555C2.80823 9.31589 2.82439 9.3657 2.793 9.38889L2.55037 9.56809L2.64139 9.85564C2.6532 9.89285 2.61077 9.9237 2.57899 9.90095L2.33362 9.72556L2.08826 9.90095C2.05648 9.92366 2.01414 9.89285 2.02586 9.85564L2.11688 9.56809L1.87425 9.38889C1.84286 9.36565 1.85902 9.31589 1.89808 9.31555L2.19969 9.31326L2.2951 9.02712C2.30736 8.99006 2.3598 8.99006 2.37215 9.02712Z" fill="#F5F5F5"/>
<path d="M2.37215 10.5239L2.46756 10.81L2.76917 10.8123C2.80823 10.8127 2.82439 10.8625 2.793 10.8857L2.55037 11.0649L2.64139 11.3524C2.6532 11.3896 2.61077 11.4205 2.57899 11.3977L2.33362 11.2223L2.08826 11.3977C2.05648 11.4204 2.01414 11.3896 2.02586 11.3524L2.11688 11.0649L1.87425 10.8857C1.84286 10.8624 1.85902 10.8127 1.89808 10.8123L2.19969 10.81L2.2951 10.5239C2.30736 10.4869 2.3598 10.4869 2.37215 10.5239Z" fill="#F5F5F5"/>
<path d="M3.53393 5.29969L3.62934 5.58582L3.93095 5.58812C3.97001 5.58846 3.98618 5.63826 3.95478 5.66146L3.71215 5.84065L3.80317 6.1282C3.81498 6.16541 3.77255 6.19627 3.74076 6.17351L3.4954 5.99812L3.25004 6.17351C3.21825 6.19622 3.17592 6.16541 3.18764 6.1282L3.27865 5.84065L3.03603 5.66146C3.00463 5.63821 3.02079 5.58846 3.05985 5.58812L3.36147 5.58582L3.45688 5.29969C3.46918 5.26263 3.52157 5.26263 3.53393 5.29969Z" fill="#F5F5F5"/>
<path d="M3.53393 6.79647L3.62934 7.0826L3.93095 7.08489C3.97001 7.08523 3.98618 7.13504 3.95478 7.15823L3.71215 7.33743L3.80317 7.62498C3.81498 7.66219 3.77255 7.69305 3.74076 7.67029L3.4954 7.4949L3.25004 7.67029C3.21825 7.693 3.17592 7.66219 3.18764 7.62498L3.27865 7.33743L3.03603 7.15823C3.00463 7.13499 3.02079 7.08523 3.05985 7.08489L3.36147 7.0826L3.45688 6.79647C3.46918 6.75945 3.52157 6.75945 3.53393 6.79647Z" fill="#F5F5F5"/>
<path d="M3.53393 8.29325L3.62934 8.57938L3.93095 8.58168C3.97001 8.58202 3.98618 8.63183 3.95478 8.65502L3.71215 8.83422L3.80317 9.12177C3.81498 9.15898 3.77255 9.18984 3.74076 9.16709L3.4954 8.99169L3.25004 9.16709C3.21825 9.18979 3.17592 9.15898 3.18764 9.12177L3.27865 8.83422L3.03603 8.65502C3.00463 8.63178 3.02079 8.58202 3.05985 8.58168L3.36147 8.57938L3.45688 8.29325C3.46918 8.25623 3.52157 8.25623 3.53393 8.29325Z" fill="#F5F5F5"/>
<path d="M3.53393 9.79006L3.62934 10.0762L3.93095 10.0785C3.97001 10.0788 3.98618 10.1286 3.95478 10.1518L3.71215 10.331L3.80317 10.6186C3.81498 10.6558 3.77255 10.6866 3.74076 10.6639L3.4954 10.4885L3.25004 10.6639C3.21825 10.6866 3.17592 10.6558 3.18764 10.6186L3.27865 10.331L3.03603 10.1518C3.00463 10.1286 3.02079 10.0788 3.05985 10.0785L3.36147 10.0762L3.45688 9.79006C3.46918 9.753 3.52157 9.753 3.53393 9.79006Z" fill="#F5F5F5"/>
<path d="M3.53393 11.2868L3.62934 11.573L3.93095 11.5753C3.97001 11.5756 3.98618 11.6254 3.95478 11.6486L3.71215 11.8278L3.80317 12.1154C3.81498 12.1526 3.77255 12.1834 3.74076 12.1607L3.4954 11.9853L3.25004 12.1607C3.21825 12.1834 3.17592 12.1526 3.18764 12.1154L3.27865 11.8278L3.03603 11.6486C3.00463 11.6254 3.02079 11.5756 3.05985 11.5753L3.36147 11.573L3.45688 11.2868C3.46918 11.2497 3.52157 11.2497 3.53393 11.2868Z" fill="#F5F5F5"/>
<path d="M4.69574 6.03353L4.79115 6.31966L5.09276 6.32195C5.13183 6.3223 5.14799 6.3721 5.11659 6.39529L4.87397 6.57449L4.96498 6.86204C4.9768 6.89925 4.93437 6.93011 4.90258 6.90735L4.65722 6.73196L4.41186 6.90735C4.38007 6.93006 4.33774 6.89925 4.34946 6.86204L4.44047 6.57449L4.19784 6.39529C4.16645 6.37205 4.18261 6.3223 4.22167 6.32195L4.52328 6.31966L4.61869 6.03353C4.63095 5.99651 4.68339 5.99651 4.69574 6.03353Z" fill="#F5F5F5"/>
<path d="M4.69574 7.53036L4.79115 7.81649L5.09276 7.81878C5.13183 7.81912 5.14799 7.86893 5.11659 7.89212L4.87397 8.07132L4.96498 8.35886C4.9768 8.39607 4.93437 8.42693 4.90258 8.40417L4.65722 8.22879L4.41186 8.40417C4.38007 8.42688 4.33774 8.39612 4.34946 8.35886L4.44047 8.07132L4.19784 7.89212C4.16645 7.86888 4.18261 7.81912 4.22167 7.81878L4.52328 7.81649L4.61869 7.53036C4.63095 7.4933 4.68339 7.4933 4.69574 7.53036Z" fill="#F5F5F5"/>
<path d="M4.69574 9.02712L4.79115 9.31326L5.09276 9.31555C5.13183 9.31589 5.14799 9.3657 5.11659 9.38889L4.87397 9.56809L4.96498 9.85564C4.9768 9.89285 4.93437 9.9237 4.90258 9.90095L4.65722 9.72556L4.41186 9.90095C4.38007 9.92366 4.33774 9.89285 4.34946 9.85564L4.44047 9.56809L4.19784 9.38889C4.16645 9.36565 4.18261 9.31589 4.22167 9.31555L4.52328 9.31326L4.61869 9.02712C4.63095 8.99006 4.68339 8.99006 4.69574 9.02712Z" fill="#F5F5F5"/>
<path d="M4.69574 10.5239L4.79115 10.81L5.09276 10.8123C5.13183 10.8127 5.14799 10.8625 5.11659 10.8857L4.87397 11.0649L4.96498 11.3524C4.9768 11.3896 4.93437 11.4205 4.90258 11.3977L4.65722 11.2223L4.41186 11.3977C4.38007 11.4204 4.33774 11.3896 4.34946 11.3524L4.44047 11.0649L4.19784 10.8857C4.16645 10.8624 4.18261 10.8127 4.22167 10.8123L4.52328 10.81L4.61869 10.5239C4.63095 10.4869 4.68339 10.4869 4.69574 10.5239Z" fill="#F5F5F5"/>
<path d="M5.85751 5.29969L5.95292 5.58582L6.25453 5.58812C6.29359 5.58846 6.30975 5.63826 6.27836 5.66146L6.03573 5.84065L6.12674 6.1282C6.13856 6.16541 6.09613 6.19627 6.06434 6.17351L5.81893 5.99812L5.57357 6.17351C5.54178 6.19622 5.49945 6.16541 5.51117 6.1282L5.60218 5.84065L5.35956 5.66146C5.32816 5.63821 5.34432 5.58846 5.38339 5.58812L5.685 5.58582L5.78041 5.29969C5.79276 5.26263 5.84515 5.26263 5.85751 5.29969Z" fill="#F5F5F5"/>
<path d="M5.85751 6.79647L5.95292 7.0826L6.25453 7.08489C6.29359 7.08523 6.30975 7.13504 6.27836 7.15823L6.03573 7.33743L6.12674 7.62498C6.13856 7.66219 6.09613 7.69305 6.06434 7.67029L5.81893 7.4949L5.57357 7.67029C5.54178 7.693 5.49945 7.66219 5.51117 7.62498L5.60218 7.33743L5.35956 7.15823C5.32816 7.13499 5.34432 7.08523 5.38339 7.08489L5.685 7.0826L5.78041 6.79647C5.79276 6.75945 5.84515 6.75945 5.85751 6.79647Z" fill="#F5F5F5"/>
<path d="M5.85751 8.29325L5.95292 8.57938L6.25453 8.58168C6.29359 8.58202 6.30975 8.63183 6.27836 8.65502L6.03573 8.83422L6.12674 9.12177C6.13856 9.15898 6.09613 9.18984 6.06434 9.16709L5.81893 8.99169L5.57357 9.16709C5.54178 9.18979 5.49945 9.15898 5.51117 9.12177L5.60218 8.83422L5.35956 8.65502C5.32816 8.63178 5.34432 8.58202 5.38339 8.58168L5.685 8.57938L5.78041 8.29325C5.79276 8.25623 5.84515 8.25623 5.85751 8.29325Z" fill="#F5F5F5"/>
<path d="M5.85751 9.79006L5.95292 10.0762L6.25453 10.0785C6.29359 10.0788 6.30975 10.1286 6.27836 10.1518L6.03573 10.331L6.12674 10.6186C6.13856 10.6558 6.09613 10.6866 6.06434 10.6639L5.81893 10.4885L5.57357 10.6639C5.54178 10.6866 5.49945 10.6558 5.51117 10.6186L5.60218 10.331L5.35956 10.1518C5.32816 10.1286 5.34432 10.0788 5.38339 10.0785L5.685 10.0762L5.78041 9.79006C5.79276 9.753 5.84515 9.753 5.85751 9.79006Z" fill="#F5F5F5"/>
<path d="M5.85751 11.2868L5.95292 11.573L6.25453 11.5753C6.29359 11.5756 6.30975 11.6254 6.27836 11.6486L6.03573 11.8278L6.12674 12.1154C6.13856 12.1526 6.09613 12.1834 6.06434 12.1607L5.81893 11.9853L5.57357 12.1607C5.54178 12.1834 5.49945 12.1526 5.51117 12.1154L5.60218 11.8278L5.35956 11.6486C5.32816 11.6254 5.34432 11.5756 5.38339 11.5753L5.685 11.573L5.78041 11.2868C5.79276 11.2497 5.84515 11.2497 5.85751 11.2868Z" fill="#F5F5F5"/>
<path d="M7.01927 6.03353L7.11468 6.31966L7.41629 6.32195C7.45535 6.3223 7.47151 6.3721 7.44012 6.39529L7.19749 6.57449L7.2885 6.86204C7.30032 6.89925 7.25789 6.93011 7.2261 6.90735L6.98074 6.73196L6.73538 6.90735C6.70359 6.93006 6.66125 6.89925 6.67297 6.86204L6.76399 6.57449L6.52136 6.39529C6.48996 6.37205 6.50613 6.3223 6.54519 6.32195L6.8468 6.31966L6.94221 6.03353C6.95457 5.99651 7.00691 5.99651 7.01927 6.03353Z" fill="#F5F5F5"/>
<path d="M7.01927 7.53036L7.11468 7.81649L7.41629 7.81878C7.45535 7.81912 7.47151 7.86893 7.44012 7.89212L7.19749 8.07132L7.2885 8.35886C7.30032 8.39607 7.25789 8.42693 7.2261 8.40417L6.98074 8.22879L6.73538 8.40417C6.70359 8.42688 6.66125 8.39612 6.67297 8.35886L6.76399 8.07132L6.52136 7.89212C6.48996 7.86888 6.50613 7.81912 6.54519 7.81878L6.8468 7.81649L6.94221 7.53036C6.95457 7.4933 7.00691 7.4933 7.01927 7.53036Z" fill="#F5F5F5"/>
<path d="M7.01927 9.02712L7.11468 9.31326L7.41629 9.31555C7.45535 9.31589 7.47151 9.3657 7.44012 9.38889L7.19749 9.56809L7.2885 9.85564C7.30032 9.89285 7.25789 9.9237 7.2261 9.90095L6.98074 9.72556L6.73538 9.90095C6.70359 9.92366 6.66125 9.89285 6.67297 9.85564L6.76399 9.56809L6.52136 9.38889C6.48996 9.36565 6.50613 9.31589 6.54519 9.31555L6.8468 9.31326L6.94221 9.02712C6.95457 8.99006 7.00691 8.99006 7.01927 9.02712Z" fill="#F5F5F5"/>
<path d="M7.01927 10.5239L7.11468 10.81L7.41629 10.8123C7.45535 10.8127 7.47151 10.8625 7.44012 10.8857L7.19749 11.0649L7.2885 11.3524C7.30032 11.3896 7.25789 11.4205 7.2261 11.3977L6.98074 11.2223L6.73538 11.3977C6.70359 11.4204 6.66125 11.3896 6.67297 11.3524L6.76399 11.0649L6.52136 10.8857C6.48996 10.8624 6.50613 10.8127 6.54519 10.8123L6.8468 10.81L6.94221 10.5239C6.95457 10.4869 7.00691 10.4869 7.01927 10.5239Z" fill="#F5F5F5"/>
<path d="M8.18108 5.29969L8.2765 5.58582L8.57811 5.58812C8.61717 5.58846 8.63333 5.63826 8.60194 5.66146L8.35931 5.84065L8.45032 6.1282C8.46214 6.16541 8.41971 6.19627 8.38792 6.17351L8.14256 5.99812L7.8972 6.17351C7.86541 6.19622 7.82307 6.16541 7.83479 6.1282L7.92581 5.84065L7.68318 5.66146C7.65178 5.63821 7.66795 5.58846 7.70701 5.58812L8.00862 5.58582L8.10403 5.29969C8.11629 5.26263 8.16873 5.26263 8.18108 5.29969Z" fill="#F5F5F5"/>
<path d="M8.18108 6.79647L8.2765 7.0826L8.57811 7.08489C8.61717 7.08523 8.63333 7.13504 8.60194 7.15823L8.35931 7.33743L8.45032 7.62498C8.46214 7.66219 8.41971 7.69305 8.38792 7.67029L8.14256 7.4949L7.8972 7.67029C7.86541 7.693 7.82307 7.66219 7.83479 7.62498L7.92581 7.33743L7.68318 7.15823C7.65178 7.13499 7.66795 7.08523 7.70701 7.08489L8.00862 7.0826L8.10403 6.79647C8.11629 6.75945 8.16873 6.75945 8.18108 6.79647Z" fill="#F5F5F5"/>
<path d="M8.18108 8.29325L8.2765 8.57938L8.57811 8.58168C8.61717 8.58202 8.63333 8.63183 8.60194 8.65502L8.35931 8.83422L8.45032 9.12177C8.46214 9.15898 8.41971 9.18984 8.38792 9.16709L8.14256 8.99169L7.8972 9.16709C7.86541 9.18979 7.82307 9.15898 7.83479 9.12177L7.92581 8.83422L7.68318 8.65502C7.65178 8.63178 7.66795 8.58202 7.70701 8.58168L8.00862 8.57938L8.10403 8.29325C8.11629 8.25623 8.16873 8.25623 8.18108 8.29325Z" fill="#F5F5F5"/>
<path d="M8.18108 9.79006L8.2765 10.0762L8.57811 10.0785C8.61717 10.0788 8.63333 10.1286 8.60194 10.1518L8.35931 10.331L8.45032 10.6186C8.46214 10.6558 8.41971 10.6866 8.38792 10.6639L8.14256 10.4885L7.8972 10.6639C7.86541 10.6866 7.82307 10.6558 7.83479 10.6186L7.92581 10.331L7.68318 10.1518C7.65178 10.1286 7.66795 10.0788 7.70701 10.0785L8.00862 10.0762L8.10403 9.79006C8.11629 9.753 8.16873 9.753 8.18108 9.79006Z" fill="#F5F5F5"/>
<path d="M8.18108 11.2868L8.2765 11.573L8.57811 11.5753C8.61717 11.5756 8.63333 11.6254 8.60194 11.6486L8.35931 11.8278L8.45032 12.1154C8.46214 12.1526 8.41971 12.1834 8.38792 12.1607L8.14256 11.9853L7.8972 12.1607C7.86541 12.1834 7.82307 12.1526 7.83479 12.1154L7.92581 11.8278L7.68318 11.6486C7.65178 11.6254 7.66795 11.5756 7.70701 11.5753L8.00862 11.573L8.10403 11.2868C8.11629 11.2497 8.16873 11.2497 8.18108 11.2868Z" fill="#F5F5F5"/>
<path d="M9.34285 6.03353L9.43826 6.31966L9.73987 6.32195C9.77893 6.3223 9.7951 6.3721 9.7637 6.39529L9.52107 6.57449L9.61209 6.86204C9.62391 6.89925 9.58147 6.93011 9.54969 6.90735L9.30433 6.73196L9.05897 6.90735C9.02718 6.93006 8.98485 6.89925 8.99656 6.86204L9.08758 6.57449L8.84495 6.39529C8.81356 6.37205 8.82972 6.3223 8.86878 6.32195L9.17039 6.31966L9.2658 6.03353C9.27811 5.99651 9.33055 5.99651 9.34285 6.03353Z" fill="#F5F5F5"/>
<path d="M9.34285 7.53036L9.43826 7.81649L9.73987 7.81878C9.77893 7.81912 9.7951 7.86893 9.7637 7.89212L9.52107 8.07132L9.61209 8.35886C9.62391 8.39607 9.58147 8.42693 9.54969 8.40417L9.30433 8.22879L9.05897 8.40417C9.02718 8.42688 8.98485 8.39612 8.99656 8.35886L9.08758 8.07132L8.84495 7.89212C8.81356 7.86888 8.82972 7.81912 8.86878 7.81878L9.17039 7.81649L9.2658 7.53036C9.27811 7.4933 9.33055 7.4933 9.34285 7.53036Z" fill="#F5F5F5"/>
<path d="M9.34285 9.02712L9.43826 9.31326L9.73987 9.31555C9.77893 9.31589 9.7951 9.3657 9.7637 9.38889L9.52107 9.56809L9.61209 9.85564C9.62391 9.89285 9.58147 9.9237 9.54969 9.90095L9.30433 9.72556L9.05897 9.90095C9.02718 9.92366 8.98485 9.89285 8.99656 9.85564L9.08758 9.56809L8.84495 9.38889C8.81356 9.36565 8.82972 9.31589 8.86878 9.31555L9.17039 9.31326L9.2658 9.02712C9.27811 8.99006 9.33055 8.99006 9.34285 9.02712Z" fill="#F5F5F5"/>
<path d="M9.34285 10.5239L9.43826 10.81L9.73987 10.8123C9.77893 10.8127 9.7951 10.8625 9.7637 10.8857L9.52107 11.0649L9.61209 11.3524C9.62391 11.3896 9.58147 11.4205 9.54969 11.3977L9.30433 11.2223L9.05897 11.3977C9.02718 11.4204 8.98485 11.3896 8.99656 11.3524L9.08758 11.0649L8.84495 10.8857C8.81356 10.8624 8.82972 10.8127 8.86878 10.8123L9.17039 10.81L9.2658 10.5239C9.27811 10.4869 9.33055 10.4869 9.34285 10.5239Z" fill="#F5F5F5"/>
<path d="M10.5046 5.29969L10.6001 5.58582L10.9017 5.58812C10.9407 5.58846 10.9569 5.63826 10.9255 5.66146L10.6829 5.84065L10.7739 6.1282C10.7857 6.16541 10.7433 6.19627 10.7115 6.17351L10.4661 5.99812L10.2208 6.17351C10.189 6.19622 10.1466 6.16541 10.1584 6.1282L10.2494 5.84065L10.0067 5.66146C9.97535 5.63821 9.99151 5.58846 10.0306 5.58812L10.3322 5.58582L10.4276 5.29969C10.4399 5.26263 10.4922 5.26263 10.5046 5.29969Z" fill="#F5F5F5"/>
<path d="M10.5046 6.79647L10.6001 7.0826L10.9017 7.08489C10.9407 7.08523 10.9569 7.13504 10.9255 7.15823L10.6829 7.33743L10.7739 7.62498C10.7857 7.66219 10.7433 7.69305 10.7115 7.67029L10.4661 7.4949L10.2208 7.67029C10.189 7.693 10.1466 7.66219 10.1584 7.62498L10.2494 7.33743L10.0067 7.15823C9.97535 7.13499 9.99151 7.08523 10.0306 7.08489L10.3322 7.0826L10.4276 6.79647C10.4399 6.75945 10.4922 6.75945 10.5046 6.79647Z" fill="#F5F5F5"/>
<path d="M10.5046 8.29325L10.6001 8.57938L10.9017 8.58168C10.9407 8.58202 10.9569 8.63183 10.9255 8.65502L10.6829 8.83422L10.7739 9.12177C10.7857 9.15898 10.7433 9.18984 10.7115 9.16709L10.4661 8.99169L10.2208 9.16709C10.189 9.18979 10.1466 9.15898 10.1584 9.12177L10.2494 8.83422L10.0067 8.65502C9.97535 8.63178 9.99151 8.58202 10.0306 8.58168L10.3322 8.57938L10.4276 8.29325C10.4399 8.25623 10.4922 8.25623 10.5046 8.29325Z" fill="#F5F5F5"/>
<path d="M10.5046 9.79006L10.6001 10.0762L10.9017 10.0785C10.9407 10.0788 10.9569 10.1286 10.9255 10.1518L10.6829 10.331L10.7739 10.6186C10.7857 10.6558 10.7433 10.6866 10.7115 10.6639L10.4661 10.4885L10.2208 10.6639C10.189 10.6866 10.1466 10.6558 10.1584 10.6186L10.2494 10.331L10.0067 10.1518C9.97535 10.1286 9.99151 10.0788 10.0306 10.0785L10.3322 10.0762L10.4276 9.79006C10.4399 9.753 10.4922 9.753 10.5046 9.79006Z" fill="#F5F5F5"/>
<path d="M10.5046 11.2868L10.6001 11.573L10.9017 11.5753C10.9407 11.5756 10.9569 11.6254 10.9255 11.6486L10.6829 11.8278L10.7739 12.1154C10.7857 12.1526 10.7433 12.1834 10.7115 12.1607L10.4661 11.9853L10.2208 12.1607C10.189 12.1834 10.1466 12.1526 10.1584 12.1154L10.2494 11.8278L10.0067 11.6486C9.97535 11.6254 9.99151 11.5756 10.0306 11.5753L10.3322 11.573L10.4276 11.2868C10.4399 11.2497 10.4922 11.2497 10.5046 11.2868Z" fill="#F5F5F5"/>
</svg>
