<svg width="18" height="16" viewBox="0 0 18 16" fill="none" xmlns="http://www.w3.org/2000/svg">
<path d="M17.235 0H0.764956C0.6168 0.000347226 0.471917 0.0433377 0.347829 0.123773C0.223741 0.204208 0.125762 0.318642 0.0657409 0.453238C0.00571928 0.587834 -0.0137742 0.736826 0.00961776 0.882197C0.0330097 1.02757 0.0982852 1.16309 0.197551 1.27238L6.69971 8.38095V13.7143L11.3003 16V8.38095L17.8024 1.27238C17.9017 1.16309 17.967 1.02757 17.9904 0.882197C18.0138 0.736826 17.9943 0.587834 17.9343 0.453238C17.8742 0.318642 17.7763 0.204208 17.6522 0.123773C17.5281 0.0433377 17.3832 0.000347226 17.235 0Z" fill="#3757FF"/>
</svg>
