<svg width="12" height="12" viewBox="0 0 12 12" fill="none" xmlns="http://www.w3.org/2000/svg">
<path d="M6 0C2.69151 0 0 2.69151 0 6C0 9.30849 2.69151 12 6 12C9.30849 12 12 9.30849 12 6C12 2.69151 9.30849 0 6 0ZM6 11.0769C3.20068 11.0769 0.923077 8.79932 0.923077 6C0.923077 3.20068 3.20068 0.923077 6 0.923077C8.79932 0.923077 11.0769 3.20068 11.0769 6C11.0769 8.79932 8.79932 11.0769 6 11.0769Z" fill="#FF3535"/>
<path d="M8.63393 3.36477C8.45356 3.1844 8.1615 3.1844 7.98132 3.36477L5.99984 5.34625L4.01855 3.36477C3.83818 3.1844 3.54612 3.1844 3.36593 3.36477C3.18575 3.54514 3.18556 3.8372 3.36593 4.01738L5.34722 5.99886L3.36575 7.98015C3.18538 8.16052 3.18538 8.45258 3.36575 8.63277C3.45602 8.72305 3.57399 8.76809 3.69215 8.76809C3.8103 8.76809 3.92827 8.72305 4.01855 8.63295L5.99984 6.65148L7.98113 8.63277C8.07141 8.72305 8.18938 8.76809 8.30753 8.76809C8.42568 8.76809 8.54365 8.72305 8.63393 8.63295C8.8143 8.45258 8.8143 8.16052 8.63393 7.98034L6.65245 5.99886L8.63375 4.01757C8.81412 3.8372 8.81412 3.54514 8.63393 3.36477Z" fill="#FF3535"/>
</svg>
