<svg width="28" height="20" viewBox="0 0 28 20" fill="none" xmlns="http://www.w3.org/2000/svg">
<rect width="28" height="20" rx="2" fill="white"/>
<mask id="mask0" mask-type="alpha" maskUnits="userSpaceOnUse" x="0" y="0" width="28" height="20">
<rect width="28" height="20" rx="2" fill="white"/>
</mask>
<g mask="url(#mask0)">
<path fill-rule="evenodd" clip-rule="evenodd" d="M28 0H0V1.33333H28V0ZM28 2.66667H0V4H28V2.66667ZM0 5.33333H28V6.66666H0V5.33333ZM28 8H0V9.33333H28V8ZM0 10.6667H28V12H0V10.6667ZM28 13.3333H0V14.6667H28V13.3333ZM0 16H28V17.3333H0V16ZM28 18.6667H0V20H28V18.6667Z" fill="#EB5757"/>
<rect width="12" height="9.33333" fill="#2196F3"/>
<g filter="url(#filter0_d)">
<path fill-rule="evenodd" clip-rule="evenodd" d="M2.6665 2C2.6665 2.36818 2.36816 2.66666 2 2.66666C1.63184 2.66666 1.33325 2.36818 1.33325 2C1.33325 1.63181 1.63184 1.33333 2 1.33333C2.36816 1.33333 2.6665 1.63181 2.6665 2ZM5.33325 2C5.33325 2.36818 5.03491 2.66666 4.66675 2.66666C4.29858 2.66666 4 2.36818 4 2C4 1.63181 4.29858 1.33333 4.66675 1.33333C5.03491 1.33333 5.33325 1.63181 5.33325 2ZM7.33325 2.66666C7.70142 2.66666 7.99976 2.36818 7.99976 2C7.99976 1.63181 7.70142 1.33333 7.33325 1.33333C6.96509 1.33333 6.6665 1.63181 6.6665 2C6.6665 2.36818 6.96509 2.66666 7.33325 2.66666ZM10.6665 2C10.6665 2.36818 10.3682 2.66666 10 2.66666C9.63184 2.66666 9.33325 2.36818 9.33325 2C9.33325 1.63181 9.63184 1.33333 10 1.33333C10.3682 1.33333 10.6665 1.63181 10.6665 2ZM3.33325 3.99998C3.70142 3.99998 3.99976 3.70151 3.99976 3.33333C3.99976 2.96513 3.70142 2.66666 3.33325 2.66666C2.96509 2.66666 2.6665 2.96513 2.6665 3.33333C2.6665 3.70151 2.96509 3.99998 3.33325 3.99998ZM6.6665 3.33333C6.6665 3.70151 6.36816 3.99998 6 3.99998C5.63184 3.99998 5.33325 3.70151 5.33325 3.33333C5.33325 2.96513 5.63184 2.66666 6 2.66666C6.36816 2.66666 6.6665 2.96513 6.6665 3.33333ZM8.66675 3.99998C9.03491 3.99998 9.33325 3.70151 9.33325 3.33333C9.33325 2.96513 9.03491 2.66666 8.66675 2.66666C8.29858 2.66666 8 2.96513 8 3.33333C8 3.70151 8.29858 3.99998 8.66675 3.99998ZM10.6665 4.66667C10.6665 5.03485 10.3682 5.33333 10 5.33333C9.63184 5.33333 9.33325 5.03485 9.33325 4.66667C9.33325 4.29848 9.63184 4 10 4C10.3682 4 10.6665 4.29848 10.6665 4.66667ZM7.33325 5.33333C7.70142 5.33333 7.99976 5.03485 7.99976 4.66667C7.99976 4.29848 7.70142 4 7.33325 4C6.96509 4 6.6665 4.29848 6.6665 4.66667C6.6665 5.03485 6.96509 5.33333 7.33325 5.33333ZM5.33325 4.66667C5.33325 5.03485 5.03491 5.33333 4.66675 5.33333C4.29858 5.33333 4 5.03485 4 4.66667C4 4.29848 4.29858 4 4.66675 4C5.03491 4 5.33325 4.29848 5.33325 4.66667ZM2 5.33333C2.36816 5.33333 2.6665 5.03485 2.6665 4.66667C2.6665 4.29848 2.36816 4 2 4C1.63184 4 1.33325 4.29848 1.33325 4.66667C1.33325 5.03485 1.63184 5.33333 2 5.33333ZM3.99976 6C3.99976 6.36818 3.70142 6.66666 3.33325 6.66666C2.96509 6.66666 2.6665 6.36818 2.6665 6C2.6665 5.63181 2.96509 5.33333 3.33325 5.33333C3.70142 5.33333 3.99976 5.63181 3.99976 6ZM6 6.66666C6.36816 6.66666 6.6665 6.36818 6.6665 6C6.6665 5.63181 6.36816 5.33333 6 5.33333C5.63184 5.33333 5.33325 5.63181 5.33325 6C5.33325 6.36818 5.63184 6.66666 6 6.66666ZM9.33325 6C9.33325 6.36818 9.03491 6.66666 8.66675 6.66666C8.29858 6.66666 8 6.36818 8 6C8 5.63181 8.29858 5.33333 8.66675 5.33333C9.03491 5.33333 9.33325 5.63181 9.33325 6ZM10 7.99998C10.3682 7.99998 10.6665 7.70151 10.6665 7.33333C10.6665 6.96513 10.3682 6.66666 10 6.66666C9.63184 6.66666 9.33325 6.96513 9.33325 7.33333C9.33325 7.70151 9.63184 7.99998 10 7.99998ZM7.99976 7.33333C7.99976 7.70151 7.70142 7.99998 7.33325 7.99998C6.96509 7.99998 6.6665 7.70151 6.6665 7.33333C6.6665 6.96513 6.96509 6.66666 7.33325 6.66666C7.70142 6.66666 7.99976 6.96513 7.99976 7.33333ZM4.66675 7.99998C5.03491 7.99998 5.33325 7.70151 5.33325 7.33333C5.33325 6.96513 5.03491 6.66666 4.66675 6.66666C4.29858 6.66666 4 6.96513 4 7.33333C4 7.70151 4.29858 7.99998 4.66675 7.99998ZM2.6665 7.33333C2.6665 7.70151 2.36816 7.99998 2 7.99998C1.63184 7.99998 1.33325 7.70151 1.33325 7.33333C1.33325 6.96513 1.63184 6.66666 2 6.66666C2.36816 6.66666 2.6665 6.96513 2.6665 7.33333Z" fill="url(#paint0_linear)"/>
</g>
</g>
<defs>
<filter id="filter0_d" x="1.33325" y="1.33333" width="9.33325" height="7.66666" filterUnits="userSpaceOnUse" color-interpolation-filters="sRGB">
<feFlood flood-opacity="0" result="BackgroundImageFix"/>
<feColorMatrix in="SourceAlpha" type="matrix" values="0 0 0 0 0 0 0 0 0 0 0 0 0 0 0 0 0 0 127 0"/>
<feOffset dy="1"/>
<feColorMatrix type="matrix" values="0 0 0 0 0 0 0 0 0 0 0 0 0 0 0 0 0 0 0.06 0"/>
<feBlend mode="normal" in2="BackgroundImageFix" result="effect1_dropShadow"/>
<feBlend mode="normal" in="SourceGraphic" in2="effect1_dropShadow" result="shape"/>
</filter>
<linearGradient id="paint0_linear" x1="1.33325" y1="1.33333" x2="1.33325" y2="7.99999" gradientUnits="userSpaceOnUse">
<stop stop-color="white"/>
<stop offset="1" stop-color="#F0F0F0"/>
</linearGradient>
</defs>
</svg>
