<svg width="52" height="52" viewBox="0 0 52 52" fill="none" xmlns="http://www.w3.org/2000/svg">
<g filter="url(#filter0_d)">
<path fill-rule="evenodd" clip-rule="evenodd" d="M26 44C37.598 44 47 34.598 47 23C47 11.402 37.598 2 26 2C14.402 2 5 11.402 5 23C5 34.598 14.402 44 26 44Z" fill="#E3E3E3"/>
</g>
<rect x="13.0769" y="13.3077" width="25.8462" height="20.1923" rx="2" fill="white"/>
<rect x="15.5" y="15.7308" width="12.9231" height="12.1154" fill="#D9D9D9"/>
<mask id="mask0" mask-type="alpha" maskUnits="userSpaceOnUse" x="15" y="15" width="14" height="13">
<rect x="15.5" y="15.7308" width="12.9231" height="12.1154" fill="white"/>
</mask>
<g mask="url(#mask0)">
</g>
<rect x="30.0385" y="15.7308" width="6.46154" height="4.03846" fill="#D9D9D9"/>
<rect x="30.0385" y="21.3846" width="6.46154" height="1.61538" fill="#D9D9D9"/>
<rect x="30.0385" y="23.8077" width="6.46154" height="1.61538" fill="#D9D9D9"/>
<rect x="30.0385" y="26.2308" width="6.46154" height="1.61538" fill="#D9D9D9"/>
<rect x="15.5" y="30.2692" width="21.8077" height="1.61538" fill="#D9D9D9"/>
<path fill-rule="evenodd" clip-rule="evenodd" d="M21.7431 17.3466C19.6717 17.4248 17.884 18.7975 17.3063 20.7535C16.7287 22.7096 17.4909 24.8092 19.1981 25.9645C19.4543 26.1379 19.758 26.2308 20.0691 26.2308C21.3083 26.2308 22.5475 26.2308 23.7867 26.2308C24.0978 26.2308 24.4015 26.1379 24.6577 25.9645C26.3649 24.8092 27.1271 22.7096 26.5494 20.7535C25.9718 18.7975 24.1841 17.4248 22.1126 17.3466C21.9756 17.3465 21.877 17.3457 21.7431 17.3466ZM21.9136 18.4666H21.9137H21.9139C21.9235 18.4674 21.9329 18.467 21.9419 18.4666H21.942H21.9422C23.5903 18.473 25.0319 19.5584 25.4666 21.1204C25.4528 21.1241 25.4528 21.1241 25.4666 21.1204C25.4945 21.2207 25.4175 21.3199 25.3117 21.3199H21.9279H18.5441C18.4383 21.3199 18.3612 21.2207 18.3891 21.1204C18.403 21.1241 18.403 21.1241 18.3891 21.1204C18.8238 19.5584 20.2654 18.473 21.9136 18.4666ZM18.4507 22.3918C18.464 22.3915 18.4776 22.3929 18.4913 22.3962C19.7938 22.7026 20.8417 23.6502 21.2602 24.9001C21.2943 25.002 21.2168 25.1073 21.1076 25.1073H20.0691C19.9897 25.1073 19.9122 25.0836 19.8468 25.0393C19.0005 24.4666 18.4375 23.5714 18.2948 22.5716C18.2811 22.4754 18.3577 22.3934 18.4507 22.3918ZM25.4051 22.3918C25.4981 22.3934 25.5747 22.4754 25.561 22.5716C25.4183 23.5714 24.8553 24.4666 24.009 25.0393C23.9436 25.0836 23.8661 25.1073 23.7867 25.1073H22.7482C22.639 25.1073 22.5615 25.002 22.5956 24.9001C23.0141 23.6502 24.062 22.7026 25.3645 22.3962C25.3782 22.3929 25.3918 22.3915 25.4051 22.3918Z" fill="white"/>
<defs>
<filter id="filter0_d" x="0" y="0" width="52" height="52" filterUnits="userSpaceOnUse" color-interpolation-filters="sRGB">
<feFlood flood-opacity="0" result="BackgroundImageFix"/>
<feColorMatrix in="SourceAlpha" type="matrix" values="0 0 0 0 0 0 0 0 0 0 0 0 0 0 0 0 0 0 127 0"/>
<feOffset dy="3"/>
<feGaussianBlur stdDeviation="2.5"/>
<feColorMatrix type="matrix" values="0 0 0 0 0.0901961 0 0 0 0 0.12549 0 0 0 0 0.247059 0 0 0 0.15 0"/>
<feBlend mode="normal" in2="BackgroundImageFix" result="effect1_dropShadow"/>
<feBlend mode="normal" in="SourceGraphic" in2="effect1_dropShadow" result="shape"/>
</filter>
</defs>
</svg>
