<svg width="52" height="52" viewBox="0 0 52 52" fill="none" xmlns="http://www.w3.org/2000/svg">
<g filter="url(#filter0_d)">
<path fill-rule="evenodd" clip-rule="evenodd" d="M26 44C37.598 44 47 34.598 47 23C47 11.402 37.598 2 26 2C14.402 2 5 11.402 5 23C5 34.598 14.402 44 26 44Z" fill="#E3E3E3"/>
</g>
<mask id="mask0" mask-type="alpha" maskUnits="userSpaceOnUse" x="5" y="2" width="42" height="42">
<path fill-rule="evenodd" clip-rule="evenodd" d="M26 44C37.598 44 47 34.598 47 23C47 11.402 37.598 2 26 2C14.402 2 5 11.402 5 23C5 34.598 14.402 44 26 44Z" fill="white"/>
</mask>
<g mask="url(#mask0)">
<path d="M39.6589 37.3855L32.4602 35.0708C31.9555 34.9055 31.6102 34.4095 31.6102 33.8584V26.9421H21.5427V33.8584C21.5427 34.4095 21.1973 34.9055 20.6926 35.0708L13.4939 37.3855C10.5188 38.3223 8.5 41.1605 8.5 44.3569V47.8288C8.5 47.8288 12.9361 54.2216 26.5632 54.2216C40.1902 54.2216 44.6263 47.8288 44.6263 47.8288V44.3569C44.6263 41.1605 42.6341 38.3223 39.6589 37.3855Z" fill="url(#paint0_linear)"/>
<path d="M21.6368 35.0996C22.5443 36.1826 23.4259 36.975 24.1259 37.5297C24.826 38.0844 25.6816 38.4014 26.5632 38.4014C27.4447 38.4014 28.3003 38.0844 29.0004 37.5297C29.6745 36.975 30.582 36.1562 31.4895 35.0996V31.1639H21.6368V35.0996Z" fill="#CED3DB"/>
<path d="M34.8267 18.8593V16.1526C34.8267 9.19242 30.399 8.55717 30.399 8.55717V6.89999C24.669 6.89999 18.1577 9.1648 18.1577 16.1526V18.8593C15.5532 19.4117 17.0117 23.527 18.288 24.908C18.3661 25.5985 18.5745 26.2614 18.8089 26.8966C20.1632 30.6529 22.6375 33.1386 24.1221 34.3815C24.8253 34.9615 25.6848 35.293 26.5703 35.293C27.4559 35.293 28.3154 34.9615 29.0186 34.3815C30.5032 33.1386 32.9514 30.6529 34.3318 26.9242C34.5662 26.289 34.6964 25.5985 34.8006 24.9356C36.0508 23.527 37.6916 19.4117 34.8267 18.8593Z" fill="url(#paint1_linear)"/>
</g>
<defs>
<filter id="filter0_d" x="0" y="0" width="52" height="52" filterUnits="userSpaceOnUse" color-interpolation-filters="sRGB">
<feFlood flood-opacity="0" result="BackgroundImageFix"/>
<feColorMatrix in="SourceAlpha" type="matrix" values="0 0 0 0 0 0 0 0 0 0 0 0 0 0 0 0 0 0 127 0"/>
<feOffset dy="3"/>
<feGaussianBlur stdDeviation="2.5"/>
<feColorMatrix type="matrix" values="0 0 0 0 0.0901961 0 0 0 0 0.12549 0 0 0 0 0.247059 0 0 0 0.15 0"/>
<feBlend mode="normal" in2="BackgroundImageFix" result="effect1_dropShadow"/>
<feBlend mode="normal" in="SourceGraphic" in2="effect1_dropShadow" result="shape"/>
</filter>
<linearGradient id="paint0_linear" x1="-1.57735" y1="42.6156" x2="8.25423" y2="62.4563" gradientUnits="userSpaceOnUse">
<stop stop-color="white"/>
<stop offset="1" stop-color="#F0EEF0"/>
</linearGradient>
<linearGradient id="paint1_linear" x1="11.2138" y1="23.2132" x2="24.0542" y2="36.7931" gradientUnits="userSpaceOnUse">
<stop stop-color="white"/>
<stop offset="1" stop-color="#F0EEF0"/>
</linearGradient>
</defs>
</svg>
