<svg width="52" height="52" viewBox="0 0 52 52" fill="none" xmlns="http://www.w3.org/2000/svg">
<g filter="url(#filter0_d)">
<path fill-rule="evenodd" clip-rule="evenodd" d="M26 44C37.598 44 47 34.598 47 23C47 11.402 37.598 2 26 2C14.402 2 5 11.402 5 23C5 34.598 14.402 44 26 44Z" fill="#E3E3E3"/>
</g>
<rect x="13.0769" y="13.3077" width="25.8462" height="20.1923" rx="2" fill="white"/>
<rect x="15.5" y="15.7308" width="9.69231" height="11.3077" fill="#D9D9D9"/>
<mask id="mask0" mask-type="alpha" maskUnits="userSpaceOnUse" x="15" y="15" width="11" height="13">
<rect x="15.5" y="15.7308" width="9.69231" height="11.3077" fill="white"/>
</mask>
<g mask="url(#mask0)">
<path fill-rule="evenodd" clip-rule="evenodd" d="M20.3462 35.9231C23.9148 35.9231 26.8077 33.0301 26.8077 29.4615C26.8077 25.8929 23.9148 23 20.3462 23C16.7775 23 13.8846 25.8929 13.8846 29.4615C13.8846 33.0301 16.7775 35.9231 20.3462 35.9231Z" fill="white"/>
</g>
<path fill-rule="evenodd" clip-rule="evenodd" d="M20.3462 22.1923C21.2383 22.1923 21.9615 21.4691 21.9615 20.5769C21.9615 19.6848 21.2383 18.9615 20.3462 18.9615C19.454 18.9615 18.7308 19.6848 18.7308 20.5769C18.7308 21.4691 19.454 22.1923 20.3462 22.1923Z" fill="white"/>
<rect x="26.8077" y="15.7308" width="9.69231" height="4.84615" fill="#D9D9D9"/>
<rect x="26.8077" y="23" width="9.69231" height="1.61538" fill="#D9D9D9"/>
<rect x="26.8077" y="26.2308" width="9.69231" height="1.61538" fill="#D9D9D9"/>
<rect x="15.5" y="29.4615" width="21" height="1.61538" fill="#D9D9D9"/>
<defs>
<filter id="filter0_d" x="0" y="0" width="52" height="52" filterUnits="userSpaceOnUse" color-interpolation-filters="sRGB">
<feFlood flood-opacity="0" result="BackgroundImageFix"/>
<feColorMatrix in="SourceAlpha" type="matrix" values="0 0 0 0 0 0 0 0 0 0 0 0 0 0 0 0 0 0 127 0"/>
<feOffset dy="3"/>
<feGaussianBlur stdDeviation="2.5"/>
<feColorMatrix type="matrix" values="0 0 0 0 0.0901961 0 0 0 0 0.12549 0 0 0 0 0.247059 0 0 0 0.15 0"/>
<feBlend mode="normal" in2="BackgroundImageFix" result="effect1_dropShadow"/>
<feBlend mode="normal" in="SourceGraphic" in2="effect1_dropShadow" result="shape"/>
</filter>
</defs>
</svg>
