<svg width="52" height="52" viewBox="0 0 52 52" fill="none" xmlns="http://www.w3.org/2000/svg">
<g filter="url(#filter0_d)">
<path fill-rule="evenodd" clip-rule="evenodd" d="M26 44C37.598 44 47 34.598 47 23C47 11.402 37.598 2 26 2C14.402 2 5 11.402 5 23C5 34.598 14.402 44 26 44Z" fill="#E3E3E3"/>
</g>
<rect x="12.2692" y="13.3077" width="28.2692" height="20.1923" rx="2" fill="white"/>
<mask id="mask0" mask-type="alpha" maskUnits="userSpaceOnUse" x="12" y="13" width="29" height="21">
<rect x="12.2692" y="13.3077" width="28.2692" height="20.1923" rx="2" fill="white"/>
</mask>
<g mask="url(#mask0)">
<path fill-rule="evenodd" clip-rule="evenodd" d="M34.1867 27.5255C33.8779 27.3109 33.4682 27.3109 33.1594 27.5255C32.6362 27.8893 31.911 27.6089 31.7687 26.9877L31.6792 26.5969C31.6034 26.2658 31.3647 25.9959 31.0454 25.8801L30.7975 25.7902C30.2539 25.593 29.9903 24.9774 30.2228 24.448L30.5047 23.8059C30.6172 23.5497 30.6172 23.258 30.5047 23.0018L30.2228 22.3597C29.9903 21.8303 30.2539 21.2147 30.7975 21.0175L31.0454 20.9276C31.3647 20.8118 31.6034 20.5419 31.6792 20.2108L31.7687 19.82C31.911 19.1988 32.6362 18.9184 33.1594 19.2822C33.4682 19.4968 33.8779 19.4968 34.1867 19.2822C34.71 18.9184 35.4352 19.1988 35.5774 19.82L35.6669 20.2108C35.7428 20.5419 35.9815 20.8118 36.3008 20.9276L36.5487 21.0175C37.0922 21.2147 37.3558 21.8303 37.1234 22.3597L36.8414 23.0018C36.7289 23.258 36.7289 23.5497 36.8414 23.8059L37.1234 24.448C37.3558 24.9774 37.0922 25.593 36.5487 25.7902L36.3008 25.8801C35.9815 25.9959 35.7428 26.2658 35.6669 26.5969L35.5774 26.9877C35.4352 27.6089 34.71 27.8893 34.1867 27.5255Z" fill="#D8D8D8" fill-opacity="0.3" stroke="#D9D9D9"/>
</g>
<rect x="23.5258" y="14.5192" width="5.65385" height="7.62191" transform="rotate(90 23.5258 14.5192)" fill="#D9D9D9"/>
<mask id="mask1" mask-type="alpha" maskUnits="userSpaceOnUse" x="15" y="14" width="9" height="7">
<rect x="23.5258" y="14.5192" width="5.65385" height="7.62191" transform="rotate(90 23.5258 14.5192)" fill="white"/>
</mask>
<g mask="url(#mask1)">
<path fill-rule="evenodd" clip-rule="evenodd" d="M11.8654 17.3461C11.8654 19.3535 13.4927 20.9808 15.5 20.9808C17.5073 20.9808 19.1346 19.3535 19.1346 17.3461C19.1346 15.3388 17.5073 13.7115 15.5 13.7115C13.4927 13.7115 11.8654 15.3388 11.8654 17.3461Z" fill="white"/>
</g>
<path fill-rule="evenodd" clip-rule="evenodd" d="M19.5385 17.3462C19.5385 17.7922 19.9001 18.1539 20.3461 18.1539C20.7922 18.1539 21.1538 17.7922 21.1538 17.3462C21.1538 16.9001 20.7922 16.5385 20.3461 16.5385C19.9001 16.5385 19.5385 16.9001 19.5385 17.3462Z" fill="white"/>
<rect x="26" y="13.3077" width="0.807692" height="20.1923" fill="#D9D9D9"/>
<rect x="13.8846" y="14.9231" width="1.61538" height="16.9615" fill="#D9D9D9"/>
<rect x="21.1538" y="21.3846" width="2.42308" height="10.5" fill="#D9D9D9"/>
<rect x="18.7308" y="21.3846" width="0.807692" height="10.5" fill="#D9D9D9"/>
<rect x="17.1154" y="21.3846" width="0.807692" height="10.5" fill="#D9D9D9"/>
<defs>
<filter id="filter0_d" x="0" y="0" width="52" height="52" filterUnits="userSpaceOnUse" color-interpolation-filters="sRGB">
<feFlood flood-opacity="0" result="BackgroundImageFix"/>
<feColorMatrix in="SourceAlpha" type="matrix" values="0 0 0 0 0 0 0 0 0 0 0 0 0 0 0 0 0 0 127 0"/>
<feOffset dy="3"/>
<feGaussianBlur stdDeviation="2.5"/>
<feColorMatrix type="matrix" values="0 0 0 0 0.0901961 0 0 0 0 0.12549 0 0 0 0 0.247059 0 0 0 0.15 0"/>
<feBlend mode="normal" in2="BackgroundImageFix" result="effect1_dropShadow"/>
<feBlend mode="normal" in="SourceGraphic" in2="effect1_dropShadow" result="shape"/>
</filter>
</defs>
</svg>
