<svg width="52" height="52" viewBox="0 0 52 52" fill="none" xmlns="http://www.w3.org/2000/svg">
<g filter="url(#filter0_d)">
<path fill-rule="evenodd" clip-rule="evenodd" d="M26 44C37.598 44 47 34.598 47 23C47 11.402 37.598 2 26 2C14.402 2 5 11.402 5 23C5 34.598 14.402 44 26 44Z" fill="#E3E3E3"/>
</g>
<rect x="15.5" y="9.26923" width="21" height="27.4615" fill="white"/>
<rect x="17.9231" y="11.6923" width="12.9231" height="3.23077" fill="#D9D9D9"/>
<rect x="17.9231" y="18.1538" width="15.3462" height="1.61538" fill="#D9D9D9"/>
<rect x="17.9231" y="21.3846" width="15.3462" height="1.61538" fill="#D9D9D9"/>
<rect x="17.9231" y="24.6154" width="15.3462" height="1.61538" fill="#D9D9D9"/>
<rect x="17.9231" y="27.8461" width="12.9231" height="1.61538" fill="#D9D9D9"/>
<rect x="17.9231" y="32.6923" width="4.84615" height="1.61538" fill="#D9D9D9"/>
<defs>
<filter id="filter0_d" x="0" y="0" width="52" height="52" filterUnits="userSpaceOnUse" color-interpolation-filters="sRGB">
<feFlood flood-opacity="0" result="BackgroundImageFix"/>
<feColorMatrix in="SourceAlpha" type="matrix" values="0 0 0 0 0 0 0 0 0 0 0 0 0 0 0 0 0 0 127 0"/>
<feOffset dy="3"/>
<feGaussianBlur stdDeviation="2.5"/>
<feColorMatrix type="matrix" values="0 0 0 0 0.0901961 0 0 0 0 0.12549 0 0 0 0 0.247059 0 0 0 0.15 0"/>
<feBlend mode="normal" in2="BackgroundImageFix" result="effect1_dropShadow"/>
<feBlend mode="normal" in="SourceGraphic" in2="effect1_dropShadow" result="shape"/>
</filter>
</defs>
</svg>
