<svg width="14" height="17" viewBox="0 0 14 17" fill="none" xmlns="http://www.w3.org/2000/svg">
<path fill-rule="evenodd" clip-rule="evenodd" d="M10.083 0.584947L9.21545 1.45252C10.2165 2.11988 10.8839 3.32113 10.8838 4.6558H2.87549C2.87549 3.32108 3.54285 2.18659 4.47716 1.45249L3.60959 0.58492C3.54285 0.451474 3.54285 0.184529 3.60959 0.0510302C3.74306 -0.015708 4.01 -0.015708 4.14348 0.0510302L5.07778 1.05207C5.61167 0.785153 6.2123 0.651654 6.87966 0.651654C7.54702 0.651654 8.14765 0.785153 8.6148 1.11884L9.61584 0.117791C9.74934 -0.015708 9.94952 -0.015708 10.083 0.117791C10.2165 0.251264 10.2165 0.451474 10.083 0.584947ZM3.54187 12.6665C3.14146 12.6665 2.87451 12.3996 2.87451 11.9992V5.32553H10.8829V11.9992C10.8829 12.3996 10.6159 12.6665 10.2155 12.6665H9.54813V15.0023C9.54813 15.5362 9.08098 16.0033 8.54709 16.0033C8.0132 16.0033 7.54604 15.5362 7.54604 15.0023V12.6665H6.21132V15.0023C6.21132 15.5362 5.74417 16.0033 5.21028 16.0033C4.67639 16.0033 4.20924 15.5362 4.20924 15.0023V12.6665H3.54187ZM5.54352 3.32215H4.87616V2.65479H5.54352V3.32215ZM8.21375 3.32215H8.88111V2.65479H8.21375V3.32215Z" fill="white"/>
<path d="M1.20612 5.32239C0.672231 5.32239 0.205078 5.78957 0.205078 6.32343V10.995C0.205078 11.5289 0.672231 11.996 1.20612 11.996C1.74001 11.996 2.20716 11.5289 2.20716 10.995V6.32343C2.20716 5.78954 1.74001 5.32239 1.20612 5.32239Z" fill="white"/>
<path d="M12.5513 5.32239C12.0174 5.32239 11.5503 5.78957 11.5503 6.32343V10.995C11.5503 11.5289 12.0174 11.996 12.5513 11.996C13.0852 11.996 13.5524 11.5289 13.5524 10.995V6.32343C13.5524 5.78954 13.0852 5.32239 12.5513 5.32239Z" fill="white"/>
</svg>
