<svg width="17" height="21" viewBox="0 0 17 21" fill="none" xmlns="http://www.w3.org/2000/svg">
<path d="M15.8696 4.59204V16.5423C15.8696 17.0946 15.4218 17.5423 14.8696 17.5423H13.123M15.8696 4.59204L12.2706 1M15.8696 4.59204H13.2706C12.7183 4.59204 12.2706 4.14432 12.2706 3.59204V1M12.2706 1H4.27306C3.72077 1 3.27305 1.44776 3.27305 2.00004C3.27305 2.74574 3.27305 3.45771 3.27305 3.45771M13.123 17.5423H4.27305C3.72077 17.5423 3.27305 17.0946 3.27305 16.5423V3.45771M13.123 17.5423V19C13.123 19.5523 12.6752 20 12.123 20H2C1.44772 20 1 19.5523 1 19V4.45771C1 3.90543 1.44772 3.45771 2 3.45771H3.27305M13.7752 10.0221C10.2787 5.55851 6.88433 7.83874 5.26764 9.98751C5.0208 10.3156 5.0417 10.7681 5.30298 11.0848C8.91998 15.469 12.25 13.2088 13.803 11.0892C14.0374 10.7692 14.0198 10.3344 13.7752 10.0221Z" stroke="#507DED"/>
<circle cx="9.67392" cy="10.4998" r="2.06522" stroke="#507DED"/>
</svg>
