<svg width="25" height="25" viewBox="0 0 25 25" fill="none" xmlns="http://www.w3.org/2000/svg">
<path d="M8.33335 20.6895H0.431055C0.193018 20.6895 0 20.4965 0 20.2585V4.74121C0 4.50318 0.193018 4.31016 0.431055 4.31016H8.33335V20.6895Z" fill="#73AF00"/>
<path d="M16.667 4.31039H8.3335V20.6898H16.667V4.31039Z" fill="#F5F5F5"/>
<path d="M24.5689 20.6895H16.6666V4.3102H24.5689C24.807 4.3102 25 4.50321 25 4.74125V20.2585C25 20.4966 24.807 20.6895 24.5689 20.6895Z" fill="#FF4B55"/>
<path d="M13.2434 12.8854L12.5 13.2572V13.6289H12.8717L13.2434 12.8854Z" fill="#FFD250"/>
<path d="M12.5 14.5582C12.3972 14.5582 12.3141 14.475 12.3141 14.3723V13.6289C12.3141 13.5261 12.3972 13.443 12.5 13.443C12.6027 13.443 12.6859 13.5261 12.6859 13.6289V14.3723C12.6859 14.475 12.6027 14.5582 12.5 14.5582Z" fill="#00C3A0"/>
<path d="M12.4999 13.8147C11.7699 13.8147 11.065 13.5331 10.5149 13.0216C10.4397 12.9517 10.4354 12.8341 10.5052 12.759C10.5756 12.684 10.6931 12.68 10.7678 12.7493C11.249 13.1967 11.8641 13.443 12.4999 13.443C13.1357 13.443 13.7508 13.1967 14.232 12.7493C14.3069 12.6798 14.4243 12.6836 14.4946 12.759C14.5644 12.8341 14.5601 12.9518 14.4849 13.0216C13.9349 13.5331 13.23 13.8147 12.4999 13.8147Z" fill="#00C3A0"/>
<path d="M12.5 14.5582C12.0236 14.5582 11.5621 14.4189 11.1653 14.1554L11.3711 13.8457C12.0419 14.2915 12.9582 14.2915 13.629 13.8457L13.8348 14.1554C13.438 14.419 12.9765 14.5582 12.5 14.5582Z" fill="#00AADC"/>
<path d="M12.2057 12.049L11.7953 12.6841L11.7256 12.8932L12.7943 12.6454L12.2057 12.049Z" fill="#732D37"/>
<path d="M11.3625 13.0975C10.8712 13.0975 10.2814 12.684 10.125 11.7627L10.4916 11.7006C10.6216 12.4667 11.0929 12.7263 11.3759 12.7256C11.4627 12.7232 11.5532 12.6933 11.5603 12.6319C11.5687 12.5586 11.5707 12.5412 11.3763 12.4755C11.2706 12.4397 11.1509 12.3993 11.0668 12.3031C10.7269 11.9148 11.1872 11.504 11.4083 11.3065C11.4473 11.2716 11.4635 11.242 11.4593 11.2308C11.4472 11.199 11.3742 11.151 11.292 11.151C11.0559 11.151 10.8767 11.0176 10.8247 10.803C10.7706 10.5809 10.8728 10.3467 11.0673 10.2462L11.238 10.5765C11.1924 10.6001 11.1743 10.6672 11.1859 10.7152C11.1904 10.7344 11.2015 10.7792 11.2921 10.7792C11.5197 10.7792 11.7362 10.9136 11.8066 11.0983C11.8368 11.1771 11.8821 11.3818 11.656 11.5838C11.4119 11.8019 11.2658 11.9659 11.3467 12.0583C11.365 12.0792 11.4436 12.1059 11.4956 12.1233C11.6629 12.1799 11.9744 12.2852 11.9297 12.6745C11.9017 12.9193 11.6832 13.0892 11.3863 13.0973C11.3783 13.0973 11.3703 13.0975 11.3625 13.0975Z" fill="#AAD264"/>
<path d="M12.8717 11.0269C12.8717 11.0269 13.2435 10.2834 12.5 9.91172C12.5 9.91172 15.102 9.53999 14.7303 12.8855L14.7301 12.8853C14.4862 12.6901 14.124 12.3334 13.9946 12.0491L12.8717 11.3985V11.0269Z" fill="#874150"/>
<path d="M12.5 11.7703L14.3585 12.8854C14.3585 12.8854 14.3585 12.8854 13.6151 13.2571L12.5 12.142V11.7703Z" fill="#732D37"/>
<path d="M11.7566 10.6551C11.9619 10.6551 12.1283 10.8216 12.1283 11.0269L12.1279 11.0272C11.9062 11.249 11.8512 11.5877 11.9915 11.8683L12.0754 12.0363C12.1104 12.1063 12.1565 12.1703 12.2119 12.2256L13.2435 13.2572V12.7435C13.2435 12.1035 13.0945 11.4723 12.8083 10.8999C12.6194 10.5221 12.2333 10.2834 11.8109 10.2834H11.7566V10.6552H11.7566V10.6551Z" fill="#783C46"/>
<path d="M11.7566 10.2834L11.3849 10.6551V11.0269C11.3849 11.0269 11.8271 10.8027 11.9761 10.7313C12.0803 10.6814 12.0613 10.5633 12.0015 10.5064C11.955 10.4622 11.7566 10.2834 11.7566 10.2834Z" fill="#FFD250"/>
<path d="M12.5 15.3016C10.7578 15.3016 9.34045 13.8842 9.34045 12.142H9.71218C9.71218 13.6793 10.9627 14.9299 12.5001 14.9299C14.0374 14.9299 15.288 13.6793 15.288 12.142H15.6597C15.6596 13.8842 14.2423 15.3016 12.5 15.3016Z" fill="#AAD264"/>
<path d="M9.73247 13.4973C9.87178 13.4973 9.98472 13.3843 9.98472 13.245C9.98472 13.1057 9.87178 12.9928 9.73247 12.9928C9.59316 12.9928 9.48022 13.1057 9.48022 13.245C9.48022 13.3843 9.59316 13.4973 9.73247 13.4973Z" fill="#FFE15A"/>
<path d="M10.2901 14.3878C10.4294 14.3878 10.5423 14.2749 10.5423 14.1356C10.5423 13.9963 10.4294 13.8834 10.2901 13.8834C10.1508 13.8834 10.0378 13.9963 10.0378 14.1356C10.0378 14.2749 10.1508 14.3878 10.2901 14.3878Z" fill="#FFE15A"/>
<path d="M11.1958 15.0612C11.3352 15.0612 11.4481 14.9483 11.4481 14.809C11.4481 14.6697 11.3352 14.5567 11.1958 14.5567C11.0565 14.5567 10.9436 14.6697 10.9436 14.809C10.9436 14.9483 11.0565 15.0612 11.1958 15.0612Z" fill="#FFE15A"/>
<path d="M15.2945 13.4973C15.4338 13.4973 15.5467 13.3843 15.5467 13.245C15.5467 13.1057 15.4338 12.9928 15.2945 12.9928C15.1552 12.9928 15.0422 13.1057 15.0422 13.245C15.0422 13.3843 15.1552 13.4973 15.2945 13.4973Z" fill="#FFE15A"/>
<path d="M14.7364 14.3878C14.8757 14.3878 14.9886 14.2749 14.9886 14.1356C14.9886 13.9963 14.8757 13.8834 14.7364 13.8834C14.5971 13.8834 14.4841 13.9963 14.4841 14.1356C14.4841 14.2749 14.5971 14.3878 14.7364 14.3878Z" fill="#FFE15A"/>
<path d="M13.8306 15.0612C13.9699 15.0612 14.0829 14.9483 14.0829 14.809C14.0829 14.6697 13.9699 14.5567 13.8306 14.5567C13.6913 14.5567 13.5784 14.6697 13.5784 14.809C13.5784 14.9483 13.6913 15.0612 13.8306 15.0612Z" fill="#FFE15A"/>
<path d="M12.6858 14.744H12.3141C12.1088 14.744 11.9424 14.5775 11.9424 14.3723C11.9424 14.167 12.1088 14.0005 12.3141 14.0005H12.6858C12.8911 14.0005 13.0576 14.167 13.0576 14.3723C13.0576 14.5776 12.8911 14.744 12.6858 14.744Z" fill="#FFB478"/>
<path d="M13.9946 12.049C14.1185 12.413 14.3818 12.746 14.7301 12.8853L14.7303 12.8854C15.102 9.54004 12.5 9.91172 12.5 9.91172C14.3585 9.91172 13.9946 12.049 13.9946 12.049Z" fill="#9B4B5A"/>
</svg>
