<svg width="99" height="86" viewBox="0 0 99 86" fill="none" xmlns="http://www.w3.org/2000/svg">
    <path d="M98.6459 82.5478C98.6459 83.3434 98.3298 84.1065 97.7672 84.6691C97.2046 85.2317 96.4415 85.5478 95.6459 85.5478H14.5059C13.7102 85.5478 12.9471 85.2317 12.3845 84.6691C11.8219 84.1065 11.5059 83.3434 11.5059 82.5478C11.5059 67.2678 30.7859 61.1577 39.0759 59.2477C39.127 59.236 39.1722 59.2063 39.2033 59.1641C39.2345 59.122 39.2496 59.0701 39.2459 59.0178V55.7878C37.3295 53.2757 35.9015 50.4264 35.0359 47.3877C32.8759 45.2477 31.9159 41.8578 31.3959 40.0278C30.5559 37.0278 29.7059 32.7477 32.0259 29.6777L32.1259 29.5477C31.9759 28.6377 31.8659 27.7577 31.7959 26.8577C30.7959 19.8577 31.5559 14.6978 34.2059 11.4377C35.6265 9.65411 37.6847 8.49234 39.9459 8.19775C41.2959 3.53775 47.8859 -1.01225 53.8759 0.19775C59.7059 1.40775 71.8759 0.0377503 71.9459 0.0277503C72.1005 0.014807 72.2543 0.0612958 72.3759 0.15775C72.4363 0.206593 72.4861 0.267271 72.5222 0.336057C72.5583 0.404843 72.58 0.480285 72.5859 0.55775C72.6064 1.36035 72.4656 2.15891 72.1719 2.90611C71.8781 3.65331 71.4374 4.33397 70.8759 4.90775C80.5659 11.3678 79.1659 24.1178 78.0459 29.5177L78.1459 29.6478C80.4659 32.7178 79.6259 37.0277 78.7859 39.9977C78.2859 41.8577 77.2859 45.2477 75.1259 47.3877C74.2557 50.4063 72.8277 53.2351 70.9159 55.7277V59.0178C70.9141 59.0697 70.9299 59.1206 70.9608 59.1624C70.9916 59.2041 71.0357 59.2342 71.0859 59.2477C79.3759 61.1577 98.6459 67.2578 98.6459 82.5478ZM68.1059 64.4678C66.7765 63.7142 65.7723 62.4963 65.2859 61.0478C63.9306 61.9464 62.4739 62.6815 60.9459 63.2377C57.164 64.5753 53.0378 64.5753 49.2559 63.2377C47.7237 62.6923 46.2631 61.9637 44.9059 61.0677C44.4055 62.4989 43.3989 63.6975 42.0759 64.4378C43.6006 66.4494 45.5705 68.0807 47.8311 69.2038C50.0917 70.327 52.5816 70.9114 55.1059 70.9114C57.6301 70.9114 60.12 70.327 62.3806 69.2038C64.6412 68.0807 66.6111 66.4494 68.1359 64.4378L68.1059 64.4678ZM70.7859 43.8678C71.0959 43.8678 72.2059 43.3877 73.5759 38.5578C74.6459 34.7878 74.1959 33.4178 73.8259 32.9378C73.6684 32.7572 73.4666 32.6208 73.2405 32.5419C73.0143 32.463 72.7714 32.4443 72.5359 32.4878C72.4392 32.4967 72.3419 32.4812 72.2528 32.4428C72.1637 32.4043 72.0857 32.3442 72.0259 32.2677C71.9667 32.1925 71.9275 32.1036 71.9118 32.0093C71.8961 31.9149 71.9043 31.8181 71.9359 31.7277V31.6178C72.2059 30.7178 73.3259 26.1278 69.4259 23.2477C66.0059 24.0077 60.4259 24.2477 52.8559 20.9977C49.1759 19.4277 46.0859 19.3678 43.6759 20.8377C38.9059 23.7878 38.2859 31.8878 38.2359 31.9678C38.2256 32.1172 38.1569 32.2566 38.0446 32.3558C37.9323 32.455 37.7855 32.506 37.6359 32.4977H37.3759C37.175 32.4817 36.9733 32.5153 36.7885 32.5955C36.6037 32.6757 36.4414 32.8001 36.3159 32.9577C35.9559 33.4377 35.5059 34.8078 36.5659 38.5778C37.9359 43.3978 39.0459 43.8577 39.3559 43.8877C39.4839 43.8975 39.605 43.9502 39.6994 44.0373C39.7938 44.1244 39.8559 44.2409 39.8759 44.3678C40.6559 49.3678 44.4759 55.8878 51.0159 58.1878C53.6252 59.1194 56.4765 59.1194 59.0859 58.1878C65.3759 55.8878 69.4659 49.4978 70.2859 44.3478C70.3049 44.2239 70.3641 44.1098 70.4545 44.023C70.5449 43.9363 70.6614 43.8817 70.7859 43.8678Z" fill="#FF2B2B"/>
    <path d="M10.5319 57.5759V44.706C10.5319 44.1721 10.0682 43.7389 9.4968 43.7389C8.92541 43.7389 8.46167 44.1721 8.46167 44.706V57.5759C8.46167 58.1098 8.92541 58.543 9.4968 58.543C10.0682 58.543 10.5319 58.1103 10.5319 57.5759ZM15.5399 57.5759V44.706C15.5399 44.1721 15.0761 43.7389 14.5048 43.7389C13.9334 43.7389 13.4696 44.1721 13.4696 44.706V57.5759C13.4696 58.1098 13.9334 58.543 14.5048 58.543C15.0761 58.543 15.5399 58.1103 15.5399 57.5759ZM20.5256 43.7389C19.9542 43.7389 19.4905 44.1721 19.4905 44.706V60.2495C19.4905 60.6997 19.0997 61.0658 18.6189 61.0658H5.38371C4.90186 61.0658 4.51006 60.6997 4.51006 60.2495V44.706C4.51006 44.1721 4.04632 43.7389 3.47493 43.7389C2.90354 43.7389 2.4398 44.1721 2.4398 44.706V60.2495C2.4398 61.766 3.76063 63 5.38371 63H18.6189C20.2409 63 21.5607 61.7664 21.5607 60.2495V44.706C21.5607 44.1717 21.097 43.7389 20.5256 43.7389ZM22.9649 40.5401H17.9269V36.9671C17.9269 36.4333 17.4632 36 16.8918 36H7.11134C6.53995 36 6.07621 36.4333 6.07621 36.9671V40.5401H1.03513C0.463738 40.5401 0 40.9734 0 41.5073C0 42.0411 0.463738 42.4744 1.03513 42.4744H22.9649C23.5363 42.4744 24 42.0411 24 41.5073C24 40.9734 23.5363 40.5401 22.9649 40.5401ZM15.8561 40.5401H8.14647V37.9342H15.8561V40.5401Z" fill="#FF2B2B"/>
</svg>
