<svg width="30" height="40" viewBox="0 0 30 40" fill="none" xmlns="http://www.w3.org/2000/svg">
<path opacity="0.3" fill-rule="evenodd" clip-rule="evenodd" d="M7.27295 3.63635H4C1.79102 3.63635 0 5.42719 0 7.63635V36C0 38.2091 1.79102 40 4 40H25.0908C27.2998 40 29.0908 38.2091 29.0908 36V7.63635C29.0908 5.42719 27.2998 3.63635 25.0908 3.63635H21.8184V4.54547C21.8184 6.0517 20.5972 7.27271 19.0913 7.27271H10C8.49414 7.27271 7.27295 6.0517 7.27295 4.54547V3.63635Z" fill="#47A8E8"/>
<path fill-rule="evenodd" clip-rule="evenodd" d="M12.7271 1.81818H10.0908C9.53857 1.81818 9.09082 2.26587 9.09082 2.81818V4.45453C9.09082 5.00684 9.53857 5.45453 10.0908 5.45453H19C19.5522 5.45453 20 5.00684 20 4.45453V2.81818C20 2.26587 19.5522 1.81818 19 1.81818H16.3633C16.3633 0.814026 15.5493 0 14.5454 0C13.541 0 12.7271 0.814026 12.7271 1.81818Z" fill="#47A8E8"/>
<rect x="10.9092" y="14.5455" width="12.7273" height="3.63636" rx="1.81818" fill="#47A8E8"/>
<rect x="5.45459" y="14.5455" width="3.63636" height="3.63636" rx="1.81818" fill="#47A8E8"/>
<rect x="5.45459" y="21.8182" width="3.63636" height="3.63636" rx="1.81818" fill="#47A8E8"/>
<rect x="10.9092" y="21.8182" width="12.7273" height="3.63636" rx="1.81818" fill="#47A8E8"/>
<rect x="5.45459" y="29.0909" width="3.63636" height="3.63636" rx="1.81818" fill="#47A8E8"/>
<rect x="10.9092" y="29.0909" width="12.7273" height="3.63636" rx="1.81818" fill="#47A8E8"/>
</svg>
