<svg width="35" height="40" viewBox="0 0 35 40" fill="none" xmlns="http://www.w3.org/2000/svg">
<g id="5">
<path id="Combined-Shape" fill-rule="evenodd" clip-rule="evenodd" d="M34.167 16.6667C34.167 7.46191 26.7051 0 17.5 0C8.29541 0 0.833496 7.46191 0.833496 16.6667V37.5C0.833496 38.6506 1.76611 39.5833 2.91699 39.5833H32.0835C33.2339 39.5833 34.167 38.6506 34.167 37.5V16.6667ZM5 20.8333C5 17.3815 7.79834 14.5833 11.25 14.5833H23.75C27.2017 14.5833 30 17.3815 30 20.8333C30 24.2851 27.2017 27.0833 23.75 27.0833H11.25C7.79834 27.0833 5 24.2851 5 20.8333Z" fill="#47A8E8"/>
<path id="Combined-Shape_2" fill-rule="evenodd" clip-rule="evenodd" d="M8.1665 20.75C8.1665 22.4069 9.50977 23.75 11.1665 23.75C12.8232 23.75 14.1665 22.4069 14.1665 20.75C14.1665 19.0931 12.8232 17.75 11.1665 17.75C9.50977 17.75 8.1665 19.0931 8.1665 20.75ZM20.6665 20.75C20.6665 22.4069 22.0098 23.75 23.6665 23.75C25.3232 23.75 26.6665 22.4069 26.6665 20.75C26.6665 19.0931 25.3232 17.75 23.6665 17.75C22.0098 17.75 20.6665 19.0931 20.6665 20.75Z" fill="#78C5F8"/>
</g>
</svg>
