<svg width="25" height="19" viewBox="0 0 25 19" fill="none" xmlns="http://www.w3.org/2000/svg">
<path d="M0.5625 11.8401C0.5625 16.0001 3.2505 18.3682 6.2585 18.3682C9.01051 18.3682 11.3145 16.0641 11.3145 13.3121C11.3145 10.5601 9.39451 8.70408 6.9625 8.70408C6.4505 8.70408 5.8745 8.76808 5.6825 8.89608C6.2585 6.59206 8.62651 3.90403 10.6745 2.81603L7.1545 0C3.1865 2.75203 0.5625 7.04006 0.5625 11.8401ZM13.6185 11.8401C13.6185 16.0001 16.2425 18.3682 19.2505 18.3682C22.0665 18.3682 24.3065 16.0641 24.3065 13.3121C24.3065 10.5601 22.3865 8.70408 20.0185 8.70408C19.5065 8.70408 18.9305 8.76808 18.7385 8.89608C19.2505 6.59206 21.6825 3.90403 23.7305 2.81603L20.1465 0C16.1785 2.75203 13.6185 7.04006 13.6185 11.8401Z" fill="#EAEAEA" fill-opacity="0.5"/>
</svg>
