<svg width="24" height="19" viewBox="0 0 24 19" fill="none" xmlns="http://www.w3.org/2000/svg">
<path d="M23.744 6.52805C23.744 2.36802 21.056 0 18.048 0C15.296 0 12.992 2.30402 12.992 5.12004C12.992 7.80806 14.912 9.72807 17.344 9.72807C17.856 9.72807 18.368 9.60007 18.624 9.47207C18.048 11.7761 15.68 14.4641 13.632 15.5521L17.152 18.4321C21.12 15.6161 23.744 11.3281 23.744 6.52805ZM10.752 6.52805C10.752 2.36802 8.00001 0 4.992 0C2.304 0 0 2.30402 0 5.12004C0 7.80806 1.92 9.72807 4.352 9.72807C4.8 9.72807 5.376 9.60007 5.568 9.47207C5.056 11.7761 2.688 14.4641 0.640001 15.5521L4.16 18.4321C8.06401 15.6161 10.752 11.3281 10.752 6.52805Z" fill="#EAEAEA" fill-opacity="0.5"/>
</svg>
