<svg width="7" height="12" viewBox="0 0 7 12" fill="none" xmlns="http://www.w3.org/2000/svg">
<path d="M6.86171 5.72211L1.28481 0.120295C1.205 0.0402105 1.11316 0 1.0095 0C0.905799 0 0.814003 0.0402105 0.734236 0.120295L0.135967 0.721389C0.0560748 0.801516 0.0162964 0.893558 0.0162964 0.997895C0.0162964 1.10223 0.0560748 1.19427 0.135967 1.2744L4.83913 5.99878L0.135967 10.7232C0.0560748 10.8034 0.0162964 10.8956 0.0162964 10.9996C0.0162964 11.1039 0.0560748 11.1961 0.135967 11.2763L0.734278 11.8771C0.814045 11.9573 0.905841 11.9973 1.00954 11.9973C1.1132 11.9973 1.205 11.9573 1.28481 11.8771L6.86142 6.27528C6.94114 6.1952 6.98104 6.10295 6.98104 5.99878C6.98104 5.89461 6.94143 5.8024 6.86171 5.72211Z" fill="black"/>
</svg>
