<svg width="88" height="73" viewBox="0 0 88 73" fill="none" xmlns="http://www.w3.org/2000/svg">
<path d="M71.4347 53.4902C71.111 53.814 70.6187 53.3215 70.9424 52.9977L82.694 41.2412C83.0178 40.9173 83.5101 41.4098 83.1863 41.7337L71.4347 53.4902ZM76.8641 53.4198C76.5403 53.7437 76.048 53.2512 76.3718 52.9273L82.5639 46.7326C82.8877 46.4087 83.38 46.9012 83.0562 47.2251L76.8641 53.4198ZM48.5773 67.0084C52.5541 67.0381 56.5865 67.2848 60.1244 67.6092C64.2716 67.9859 67.7489 68.4969 69.6779 69.0139C71.2305 69.43 71.4268 72.1133 69.5035 72.1133H18.5518C16.6378 72.1133 16.8241 69.4662 18.3661 69.0185C19.928 68.5648 22.9066 68.1543 26.5433 67.8179C30.2982 67.4705 34.7676 67.2187 39.1012 67.0402C39.6976 67.0156 39.6384 67.1032 39.6384 66.4046V58.7374C39.6384 57.6467 39.734 57.7146 38.7231 57.7146H1.61062C0.723585 57.7146 0 56.9907 0 56.1033V1.61129C0 0.72391 0.723608 0 1.61062 0H86.1014C86.9884 0 87.7121 0.72391 87.7121 1.61129V56.1033C87.7121 56.9907 86.9884 57.7146 86.1014 57.7146H48.6636C47.8419 57.7146 48.0737 57.768 48.0737 58.6883V66.5398C48.0737 67.1176 48.0462 67.0044 48.5773 67.0084ZM39.0034 68.2016C34.7333 68.4202 30.3394 68.6283 26.6475 68.9698C23.3003 69.2795 20.5351 69.6376 18.9796 70.0499C18.0734 70.2901 18.0076 70.9584 18.9528 70.9522H69.3651C69.8479 70.9522 69.8549 70.2274 69.3787 70.1341C67.5003 69.6306 64.0938 69.1312 60.0201 68.7611C56.871 68.4751 53.3286 68.2667 49.7871 68.1932C49.398 68.1852 49.0089 68.1793 48.6203 68.174C47.9815 68.1652 48.0737 68.1423 48.0737 68.9319C48.0737 69.6955 46.9132 69.6955 46.9132 68.9319V58.6883C46.9132 57.6316 47.1339 57.7155 46.1456 57.7115L41.6313 57.693C40.6281 57.689 40.7703 57.6803 40.7703 58.7866V68.9073C40.7703 69.7233 39.6384 69.6776 39.6384 68.9319C39.6384 68.0904 39.7059 68.1656 39.0034 68.2016ZM44.8601 59.1678C44.8601 58.7097 45.5564 58.7097 45.5564 59.1678V66.2436C45.5564 66.7018 44.8601 66.7018 44.8601 66.2436V59.1678ZM25.3586 53.3064C25.8166 53.3064 25.8166 54.003 25.3586 54.003H5.4771C4.78165 54.003 4.21223 53.4334 4.21223 52.7376V45.3905C4.21223 44.9323 4.90854 44.9323 4.90854 45.3905V52.7376C4.90854 53.0489 5.16592 53.3064 5.4771 53.3064H25.3586ZM56.5452 4.99029C56.0872 4.99029 56.0872 4.29368 56.5452 4.29368H81.1521C82.8993 4.29368 83.2097 5.26426 83.2097 6.7719V12.5802C83.2097 13.0383 82.5134 13.0383 82.5134 12.5802V6.7719C82.5134 5.66142 82.4649 4.99029 81.1521 4.99029H56.5452ZM86.1014 1.16101H1.61062C1.36426 1.16101 1.16052 1.36483 1.16052 1.61129V56.1033C1.16052 56.3498 1.36426 56.5536 1.61062 56.5536H86.1014C86.3478 56.5536 86.5515 56.3498 86.5515 56.1033V1.61129C86.5515 1.36483 86.3478 1.16101 86.1014 1.16101Z" fill="#8392B8"/>
</svg>
