<svg width="94" height="70" viewBox="0 0 94 70" fill="none" xmlns="http://www.w3.org/2000/svg">
<path d="M64.5224 52.6064L64.425 56.0056C64.409 56.46 63.7182 56.4356 63.7342 55.9812L63.8639 51.7033C63.8817 51.2203 63.8533 50.7177 63.6493 50.3513C63.3254 49.7693 62.1646 49.5389 61.6898 49.9451C61.472 50.1315 61.304 50.498 61.2336 51.1761C61.2328 51.1845 61.2316 51.1928 61.2302 51.201L61.2142 55.5818C61.2249 56.0362 60.534 56.0524 60.5234 55.5981C60.5312 53.2144 60.5091 51.0078 60.3949 48.6307L60.2041 45.1095C60.0903 43.0054 57.9538 43.3645 57.9452 45.0483C57.9254 48.955 58.068 53.4292 57.7287 57.272C57.6216 58.4855 57.5194 59.6426 57.5962 60.6378C57.6301 61.0922 56.9392 61.1436 56.9054 60.6893C56.8421 59.8694 56.8912 58.9722 56.9676 58.0307C56.8325 57.7237 56.6647 57.4152 56.4598 57.1484C56.2025 57.3528 55.8248 57.1128 55.9099 56.7896C56.0419 56.2892 55.9547 55.7576 55.7809 55.2786C55.5556 54.6582 55.1608 54.0257 54.5595 53.7127C53.8032 53.319 53.1548 53.3696 53.4666 54.3731C53.6331 54.909 53.8066 55.4287 53.8357 55.9964C53.9099 57.4442 54.2892 58.2768 54.77 59.3323C56.3444 62.7883 56.388 65.4002 59.1141 68.4443C59.4166 68.7824 58.9018 69.243 58.5993 68.9049C55.7805 65.7573 55.7631 63.1792 54.1415 59.6195C53.6296 58.4957 53.2257 57.6092 53.1449 56.0316C53.119 55.5272 52.9537 55.0535 52.8056 54.5762C52.3175 53.0058 53.5185 52.3893 54.8792 53.0977C55.6355 53.4914 56.1464 54.2586 56.4311 55.0429C56.583 55.4614 56.6764 55.9048 56.6652 56.3514C56.8039 56.476 56.9414 56.6334 57.0727 56.8152C57.3895 53.1627 57.2355 48.7693 57.2544 45.0456C57.2675 42.4665 60.7329 42.0807 60.895 45.0742L61.0856 48.5968C61.0998 48.892 61.1203 49.2024 61.1413 49.5126C61.932 48.6938 63.6942 49.0105 64.2535 50.0154C64.4408 50.3519 64.5218 50.7404 64.5486 51.1354C65.3234 50.6909 66.8128 50.9891 67.1966 51.8953C67.3358 52.224 67.3829 52.6306 67.3733 53.1031C68.5175 52.7169 69.3903 53.307 69.6947 54.4519C69.9566 55.4371 69.858 56.5781 69.8003 57.5965C69.6138 60.8882 69.5375 63.1572 68.4524 66.3916C68.1953 67.1581 67.9636 67.8489 67.8408 68.6103C67.7695 69.0593 67.0868 68.951 67.1581 68.5019C67.2903 67.6821 67.5304 66.9663 67.7968 66.1722C68.8596 63.004 68.9268 60.7829 69.1095 57.5586C69.1624 56.6243 69.2638 55.5244 69.0255 54.628C68.8854 54.1008 68.632 53.7227 68.179 53.6965C67.5043 53.6575 67.3561 53.9495 67.3434 54.5751L67.2987 56.7009C67.2898 57.1552 66.599 57.1418 66.6078 56.6874C66.6335 55.4262 66.7232 53.9438 66.652 52.6559C66.5915 51.5603 64.5935 51.3075 64.5224 52.6064ZM46.2868 47.007C45.2066 44.6576 42.9973 43.8406 41.8869 43.4364C41.3256 43.2321 40.9691 43.1024 40.9691 42.7605C40.9691 42.3161 40.903 41.7756 40.7751 41.3467C40.6633 40.9718 40.518 41.0227 39.8725 40.8766C39.3824 40.7656 38.904 40.6572 38.7335 40.404C38.2602 39.7012 37.8037 39.1408 37.4266 38.6779C37.1748 38.3688 36.9565 38.1008 36.785 37.8547L29.7826 40.4047C29.355 40.5597 29.1193 39.9094 29.547 39.7544L36.449 37.241C36.0435 36.137 36.947 35.4879 40.4788 33.9816L40.4736 32.0704C40.4715 31.2898 40.4421 31.3518 40.1157 31.0735C38.8316 29.9784 37.7272 28.5716 37.1218 26.8344C36.4487 24.9033 36.2561 19.1947 36.6655 17.1795C37.3267 13.9252 40.0822 13.6216 42.935 13.4834C45.329 13.3674 48.0357 13.2362 51.4084 10.4052C52.8319 9.21032 52.9005 8.35799 54.6087 10.3869C56.0073 12.0479 56.7384 13.7319 57.1066 15.5844C57.6692 18.4154 57.6014 23.9488 56.8043 26.7489C56.2191 28.805 54.8577 30.4521 53.275 31.6594C53.2777 31.6769 53.2791 31.6947 53.2791 31.7129L53.273 33.9978C56.8107 35.5081 57.7159 36.1511 57.305 37.2692L64.1296 39.7544C64.5572 39.9094 64.3215 40.5597 63.8939 40.4047L56.9715 37.8838C56.476 38.6045 55.8303 39.1963 55.3931 39.9633C55.0041 40.6457 54.8439 40.6176 53.5295 40.9666C52.9538 41.1194 53.0238 41.2728 52.9121 41.8475C52.8574 42.129 52.8284 42.4323 52.8284 42.7605C52.8284 43.1029 52.4704 43.2324 51.9067 43.4363C50.7882 43.8409 48.4616 44.6156 47.4799 47.0132C47.2652 47.5375 47.2131 47.6916 47.2131 48.4959V50.1292C47.2131 50.5854 46.5195 50.5854 46.5195 50.1292V48.4666C46.5195 47.6615 46.5483 47.5759 46.2868 47.007ZM71.5389 20.5564C71.8578 20.2321 72.3509 20.7171 72.032 21.0414C71.5107 21.5724 71.0342 22.1556 70.6171 22.7719C70.3626 23.1491 69.7883 22.7617 70.0428 22.3845C70.486 21.7296 70.9851 21.1207 71.5389 20.5564ZM70.8842 38.0469C70.5906 37.6998 71.1189 37.2528 71.4125 37.5998C73.7597 40.3764 77.1786 41.9652 80.8144 41.9652C87.61 41.9652 93.1188 36.4563 93.1188 29.6607C93.1188 26.3777 91.8249 23.2596 89.4986 20.9425C89.1761 20.6217 89.6637 20.1313 89.9863 20.4521C92.4426 22.8987 93.8124 26.1938 93.8124 29.6607C93.8124 36.8392 87.9929 42.6587 80.8144 42.6587C76.9767 42.6587 73.3615 40.9775 70.8842 38.0469ZM86.8372 32.9568L90.5782 34.3191C91.0058 34.4741 90.7701 35.1244 90.3425 34.9694L86.5168 33.5762C86.1784 34.0304 85.8142 34.4345 85.4925 34.9122L85.4919 34.9117C85.362 35.1034 85.0647 35.2124 84.7601 35.2814C83.9617 35.5379 84.6616 36.2469 83.6471 36.6722C83.0047 36.9061 81.679 37.5519 81.1577 38.859C81.0501 39.1287 80.581 39.2345 80.4194 38.8603C79.8239 37.4817 78.5629 36.9062 77.9159 36.6722C77.5379 36.5355 77.2979 36.4486 77.2979 36.1501C77.3233 35.4886 77.2546 35.3155 76.8007 35.2398C76.4962 35.1708 76.1988 35.1035 76.0689 34.9117L76.0683 34.9122C75.8102 34.529 75.5675 34.2269 75.3661 33.9762C75.2535 33.836 75.1525 33.7103 75.0662 33.5929L72.1693 34.6478C71.7417 34.8028 71.506 34.1526 71.9336 33.9976L74.7479 32.9728C74.5964 32.334 75.1668 31.9366 77.0485 31.1283L77.0454 29.9881C76.1594 29.2965 75.4017 28.3613 75.0706 27.1983C74.6169 25.6042 74.5775 22.4689 74.8979 20.8568C75.1094 19.7924 75.3867 19.0004 76.191 18.0451C77.1328 16.9862 77.6006 17.2325 78.5221 18.006C79.2465 18.614 79.8708 18.9646 80.7799 19.2416C81.2147 19.3734 81.0142 20.0345 80.5794 19.9026C79.5759 19.5969 78.878 19.2087 78.0778 18.537C77.4184 17.9398 76.9999 18.1171 76.7193 18.4894C76.0007 19.3429 75.7677 20.0342 75.5779 20.9895C75.2775 22.5013 75.311 25.5119 75.7371 27.0087C76.0325 28.0464 76.7319 28.8833 77.5453 29.499C78.6125 30.3068 79.8587 30.7302 80.653 30.7302C81.3653 30.7302 82.6762 30.3312 83.8339 29.4929C84.6589 28.8955 85.396 28.0774 85.7621 27.0271C86.1078 26.0353 86.2098 22.9239 85.9993 21.8876C85.8638 21.2203 85.5352 20.7738 84.8865 20.5305C84.4607 20.3719 84.7017 19.7244 85.1276 19.8829C86.0063 20.2126 86.4923 20.8449 86.6766 21.7521C86.912 22.9109 86.8022 26.1439 86.415 27.2547C86.0393 28.3326 85.3332 29.1887 84.5241 29.8374C84.5352 29.8712 84.5412 29.9074 84.5412 29.9449L84.538 31.1191C86.4147 31.9246 86.9846 32.3254 86.8372 32.9568ZM80.7931 36.6041C81.2319 35.4464 82.014 34.6755 82.697 34.0026C83.3183 33.3904 83.8457 32.8708 83.8441 32.2501L83.8493 30.3182C82.6672 31.066 81.391 31.4238 80.653 31.4238C79.8876 31.4238 78.7754 31.0959 77.7375 30.4653L77.7424 32.2501C77.7408 32.8708 78.2681 33.3904 78.8895 34.0026C79.5724 34.6755 80.3544 35.4465 80.7931 36.6041ZM84.536 31.8711L84.535 32.2501C84.5374 33.1602 83.915 33.7734 83.1819 34.4957C82.4759 35.1913 81.6531 36.0022 81.3065 37.2899C81.8486 36.7079 82.4722 36.3071 82.9997 36.1782C83.5891 36.0342 83.5088 35.8607 83.627 35.5358C83.8472 34.4593 84.641 34.9969 85.0948 34.2713C85.361 33.8455 85.9638 33.287 86.1311 32.893C86.2258 32.67 85.8833 32.4539 84.536 31.8711ZM77.0505 31.8803C75.6997 32.4649 75.3574 32.6809 75.4547 32.9101C75.5985 33.249 76.0249 33.6446 76.2461 33.9745C76.6145 34.524 76.5782 34.4772 76.9524 34.5652C77.3012 34.6442 77.6869 34.7252 77.7971 34.989C77.9391 35.3291 77.8871 35.879 78.1516 36.0219C78.6699 36.2094 79.5721 36.5359 80.2848 37.3084C79.9412 36.01 79.1139 35.1946 78.4046 34.4957C77.6714 33.7734 77.0491 33.1602 77.0515 32.2501L77.0505 31.8803ZM87.591 22.4257C87.1616 22.5789 86.9286 21.926 87.3581 21.7728C88.3864 21.4058 89.1495 22.7539 88.2725 23.7278C88.0724 23.95 88.4947 25.2741 87.8156 25.6724C87.424 25.9019 87.0746 25.3059 87.466 25.0763C87.638 24.9755 87.3457 23.7221 87.7577 23.2646C88.1108 22.8725 87.9682 22.2912 87.591 22.4257ZM74.1244 21.7728C74.5538 21.926 74.3209 22.5789 73.8914 22.4257C73.5143 22.2912 73.3717 22.8725 73.7248 23.2646C74.1368 23.7221 73.8444 24.9755 74.0164 25.0763C74.4079 25.3059 74.0585 25.9019 73.6669 25.6724C72.9878 25.2741 73.4101 23.95 73.21 23.7278C72.3331 22.754 73.0961 21.4058 74.1244 21.7728ZM74.7345 20.3507C74.7647 20.8051 74.0739 20.851 74.0436 20.3967C73.9121 18.4954 74.1755 17.1421 74.7463 16.1591C75.3299 15.1538 76.2192 14.5493 77.3277 14.1555C78.6821 13.6743 78.4244 12.6289 80.5436 12.467C82.5143 12.3164 84.3778 12.9368 85.7532 14.3986C87.2706 16.0115 87.8798 18.329 87.5068 20.4942C87.4302 20.9432 86.7475 20.8267 86.8241 20.3777C87.16 18.4275 86.6169 16.3264 85.2492 14.8727C84.0281 13.5747 82.3812 13.0304 80.6328 13.1552C78.782 13.2872 78.9198 14.3246 77.558 14.8084C76.5985 15.1492 75.8345 15.6628 75.345 16.5058C74.8426 17.3711 74.6131 18.5964 74.7345 20.3507ZM21.9699 21.0414C21.6509 20.7171 22.144 20.2321 22.4629 20.5564C23.0168 21.1207 23.5159 21.7296 23.9591 22.3845C24.2135 22.7617 23.6392 23.1491 23.3847 22.7719C22.9676 22.1556 22.4911 21.5724 21.9699 21.0414ZM22.5893 37.5998C22.8829 37.2528 23.4112 37.6998 23.1176 38.0469C20.6403 40.9775 17.0251 42.6587 13.1874 42.6587C6.00893 42.6587 0.189453 36.8392 0.189453 29.6607C0.189453 26.1938 1.55925 22.8987 4.01559 20.4521C4.33809 20.1313 4.82577 20.6217 4.50323 20.9425C2.17691 23.2596 0.883013 26.3777 0.883013 29.6607C0.883013 36.4563 6.39183 41.9652 13.1874 41.9652C16.8232 41.9652 20.2422 40.3764 22.5893 37.5998ZM7.48499 33.5762L3.65935 34.9694C3.23171 35.1244 2.99601 34.4741 3.42365 34.3191L7.16467 32.9568C7.01719 32.3254 7.58707 31.9246 9.46381 31.1191L9.47773 29.8374C8.66863 29.1887 7.96253 28.3326 7.58683 27.2547C7.19967 26.1439 7.08981 22.9109 7.32521 21.7521C7.50951 20.8449 7.99549 20.2126 8.87421 19.8829C9.30011 19.7244 9.54115 20.3719 9.11533 20.5305C8.46667 20.7738 8.13807 21.2203 8.00251 21.8876C7.79199 22.9239 7.89405 26.0353 8.23975 27.0271C8.60585 28.0774 9.34297 28.8955 10.168 29.4929C11.3256 30.3312 12.6365 30.7302 13.3489 30.7302C14.1431 30.7302 15.3893 30.3068 16.4565 29.499C17.2699 28.8833 17.9694 28.0464 18.2648 27.0087C18.5069 26.158 18.5738 25.1848 18.5936 24.3023C18.6439 22.0722 18.6554 20.114 17.1394 18.3135C16.734 17.787 16.7167 17.875 16.1013 18.3915C15.3011 19.0632 14.426 19.5969 13.4224 19.9026C12.9876 20.0345 12.7872 19.3734 13.2219 19.2416C14.131 18.9646 14.9326 18.4686 15.657 17.8605C16.535 17.1236 16.6714 16.7101 17.6677 17.8692C19.3174 19.8285 19.3392 21.8872 19.2845 24.3158C19.2632 25.262 19.1909 26.2859 18.9312 27.1983C18.6002 28.3614 17.8424 29.2965 16.9565 29.9881L16.9534 31.1283C18.835 31.9366 19.4054 32.334 19.254 32.9728L22.0682 33.9976C22.4959 34.1526 22.2602 34.8028 21.8325 34.6478L18.9356 33.5929C18.6356 33.9236 18.4083 34.286 18.093 34.7542C17.8675 35.039 17.7168 35.123 17.2011 35.2398C16.7949 35.3205 16.7498 35.334 16.6379 36.1574C16.5645 36.489 16.3283 36.5848 15.9503 36.7216C15.2895 36.9606 14.0419 37.4118 13.5502 38.9567C13.4558 39.3371 12.8889 39.2924 12.8586 38.9009C12.3519 37.3995 11.0033 36.9083 10.3547 36.6722C9.97805 36.5352 9.73887 36.4481 9.73887 36.1501C9.73887 35.6935 9.74627 35.3266 9.24169 35.2398C8.93715 35.1708 8.63985 35.1034 8.50993 34.9117L8.50929 34.9122C8.24237 34.5158 7.99111 34.2074 7.78355 33.9526C7.67157 33.8151 7.57105 33.6917 7.48499 33.5762ZM12.6953 37.2899C12.3488 36.0022 11.5259 35.1913 10.8199 34.4957C10.0868 33.7734 9.46447 33.1602 9.46687 32.2501L9.46583 31.8711C8.11851 32.4539 7.77605 32.67 7.87075 32.893C7.93451 33.0432 8.10203 33.2488 8.31997 33.5164C8.42921 33.6505 8.81645 34.2622 9.03699 34.437C9.35423 34.6884 10.0705 34.6455 10.2358 35.0521C10.3067 35.222 10.3369 35.3406 10.3748 35.5358C10.4696 35.9405 10.4064 35.9502 10.855 36.1202C11.3748 36.3172 12.0987 36.6493 12.6953 37.2899ZM10.1525 30.3182L10.1577 32.2501C10.1561 32.8708 10.6835 33.3904 11.3049 34.0026C11.9878 34.6755 12.77 35.4464 13.2088 36.6041C13.6474 35.4465 14.4294 34.6755 15.1123 34.0026C15.7337 33.3904 16.2611 32.8708 16.2595 32.2501L16.2643 30.4653C15.2265 31.0959 14.1143 31.4238 13.3489 31.4238C12.6108 31.4238 11.3347 31.066 10.1525 30.3182ZM13.717 37.3084C14.3035 36.6727 15.0102 36.3168 15.5418 36.1363C15.9947 35.9826 16.0098 35.7643 16.1121 35.3438C16.2578 34.745 16.4571 34.6993 17.0494 34.5652C17.7231 34.4421 17.5857 34.1786 18.0966 33.5427C18.3149 33.271 18.4826 33.0623 18.5471 32.9102C18.6444 32.6809 18.3021 32.4649 16.9513 31.8803L16.9503 32.2501C16.9527 33.1602 16.3304 33.7734 15.5973 34.4957C14.8879 35.1946 14.0606 36.01 13.717 37.3084ZM6.62989 21.7728C7.05931 21.926 6.82635 22.5789 6.39691 22.4257C6.01971 22.2912 5.87721 22.8725 6.23025 23.2646C6.64223 23.7221 6.34991 24.9755 6.52191 25.0763C6.91339 25.3059 6.56393 25.9019 6.17241 25.6724C5.49329 25.2742 5.91555 23.95 5.71549 23.7278C4.83851 22.7539 5.60153 21.4058 6.62989 21.7728ZM20.1104 22.4257C19.681 22.5789 19.448 21.926 19.8774 21.7728C20.9058 21.4058 21.6688 22.754 20.7918 23.7278C20.5918 23.95 21.014 25.2741 20.3349 25.6724C19.9434 25.9019 19.5939 25.3059 19.9854 25.0763C20.1574 24.9755 19.8651 23.7221 20.2771 23.2646C20.6301 22.8725 20.4876 22.2912 20.1104 22.4257ZM19.9582 20.3967C19.928 20.851 19.2371 20.8051 19.2674 20.3507C19.3887 18.5964 19.1592 17.3711 18.6569 16.5058C17.7804 14.9962 16.4338 15.0732 15.1704 13.9462C14.1361 13.0237 13.2056 12.9883 11.8267 13.2258C8.48355 13.8017 6.62049 17.1423 7.17777 20.3777C7.25439 20.8267 6.57167 20.9432 6.49505 20.4942C5.87241 16.8793 7.99049 13.1838 11.7102 12.5431C13.3586 12.2592 14.4478 12.3735 15.631 13.4288C16.9548 14.6095 18.2201 14.3755 19.2556 16.1591C19.8263 17.1421 20.0897 18.4954 19.9582 20.3967ZM62.6667 15.672C62.5328 15.5358 62.5346 15.3169 62.6708 15.183C62.8069 15.0491 63.0259 15.0509 63.1598 15.187C65.2225 17.2884 66.8829 19.7877 68.0161 22.5599C69.1075 25.2301 69.7091 28.1498 69.7091 31.2069C69.7091 36.4234 67.9476 41.4456 64.6814 45.5141C64.3966 45.8682 63.8575 45.4348 64.1422 45.0806C67.3126 41.1316 69.0155 36.2699 69.0155 31.2069C69.0155 28.2363 68.4331 25.4047 67.3767 22.82C66.2789 20.1344 64.6685 17.7113 62.6667 15.672ZM50.3287 53.0941C50.7778 53.0175 50.8942 53.7002 50.4452 53.7768C49.285 53.9746 48.015 54.0777 46.8383 54.0777C34.2072 54.0777 23.9675 43.838 23.9675 31.2069C23.9675 25.1063 26.3767 19.3088 30.6991 15.0034C31.0216 14.6826 31.5093 15.173 31.1868 15.4937C26.9943 19.6697 24.661 25.2902 24.661 31.2069C24.661 43.4551 34.5901 53.3842 46.8383 53.3842C47.9755 53.3842 49.2075 53.2853 50.3287 53.0941ZM46.449 45.8559C46.0548 42.818 44.2926 41.0811 42.8124 39.6227C41.5507 38.3796 40.4798 37.3245 40.4838 35.817L40.4809 34.7331C37.5754 35.9799 36.862 36.4499 37.1241 37.0674C37.2522 37.3691 37.5611 37.7483 37.963 38.2417C38.2598 38.6061 38.6047 39.0295 38.9725 39.5387C39.4251 40.1655 39.2171 40.0192 40.0243 40.202C41.1826 40.4642 41.3408 40.5612 41.5654 41.7175C41.683 42.3227 41.4747 42.565 42.1226 42.7862C43.1843 43.1727 45.1839 43.901 46.449 45.8559ZM41.164 31.8755L41.1746 35.817C41.1714 37.035 42.1475 37.9967 43.2973 39.1296C44.6377 40.4503 46.1971 41.9873 46.8761 44.4484C47.5551 41.9873 49.1142 40.4502 50.4545 39.1296C51.6044 37.9967 52.5804 37.035 52.5772 35.817L52.5871 32.148C50.6712 33.4146 48.5484 34.0752 47.1256 34.0752C45.7634 34.0752 43.3332 33.3649 41.164 31.8755ZM53.2709 34.7494L53.2681 35.817C53.272 37.3245 52.2011 38.3796 50.9394 39.6227C49.4533 41.0869 47.6828 42.832 47.2982 45.8926C48.5662 43.9094 50.5963 43.1748 51.6709 42.7861C52.4251 42.5116 52.1089 41.8919 52.328 41.1565C52.4825 40.6382 52.5784 40.5466 53.1332 40.3664C53.868 40.1277 54.2822 40.2908 54.7965 39.5767C55.2848 38.8986 56.3605 37.7302 56.6289 37.0979C56.8965 36.4678 56.183 35.9998 53.2709 34.7494ZM35.517 17.4182C35.9464 17.5714 35.7134 18.2243 35.284 18.0711C34.3628 17.7424 33.8447 19.0553 34.6955 20.0001C35.384 20.7648 34.7382 22.9603 35.2792 23.2776C35.6707 23.5071 35.3213 24.1032 34.9297 23.8736C33.8847 23.2608 34.6532 20.9881 34.1807 20.4634C32.8133 18.9448 33.9437 16.8567 35.517 17.4182ZM58.5542 18.0711C58.1248 18.2243 57.8918 17.5714 58.3213 17.4182C59.8945 16.8567 61.0249 18.9448 59.6575 20.4634C59.185 20.9881 59.9535 23.2608 58.9084 23.8736C58.5169 24.1032 58.1675 23.5071 58.5589 23.2776C59.1 22.9603 58.4542 20.7648 59.1427 20.0001C59.9935 19.0553 59.4754 17.7424 58.5542 18.0711ZM58.6233 14.6955C58.593 15.1498 57.9022 15.1039 57.9324 14.6495C58.2512 10.0417 57.4673 6.1938 52.7258 4.50934C51.401 4.03872 50.5501 3.25644 49.4748 2.50949C46.6543 0.550045 40.9517 2.34911 38.7459 4.69361C36.2525 7.34383 35.2598 11.1691 35.8724 14.7251C35.949 15.1741 35.2663 15.2906 35.1896 14.8416C34.5401 11.0706 35.5988 7.02886 38.242 4.21948C40.6453 1.66511 46.7191 -0.235515 49.7986 1.90232C50.8869 2.65786 51.777 3.43754 52.9561 3.85642C58.0127 5.65284 58.9646 9.76057 58.6233 14.6955ZM51.8527 10.9363C48.3031 13.9157 45.4718 14.0529 42.9675 14.1743C40.481 14.2947 37.9259 14.4448 37.3428 17.315C36.9583 19.2077 37.1431 24.7947 37.7747 26.6069C38.4472 28.5362 39.7958 30.0349 41.3039 31.127C43.4135 32.6546 45.8152 33.3816 47.1256 33.3816C48.5881 33.3816 50.8736 32.609 52.8213 31.1346C54.3115 30.0065 55.594 28.4698 56.1379 26.5593C56.9072 23.8565 56.9692 18.4478 56.4266 15.7172C56.0801 13.9737 55.3932 12.3904 54.0804 10.8312C52.8734 9.39758 52.9941 9.9782 51.8527 10.9363Z" fill="#8392B8"/>
</svg>
