<svg width="94" height="100" viewBox="0 0 94 100" fill="none" xmlns="http://www.w3.org/2000/svg">
<path d="M60.6615 56.4213L83.4693 61.8946C84.1405 62.0556 84.8618 61.6396 85.0581 60.9779L92.0455 37.4323C92.2676 36.6841 91.9539 36.0613 91.1615 35.8696L53.6637 26.7976C52.9949 26.6359 52.2699 27.0509 52.0768 27.7125L43.2908 57.8106C42.7197 59.7685 43.1831 59.8827 45.2186 59.3465L55.2063 56.5464C56.6736 56.135 57.2665 55.9146 57.9705 55.9146C58.8097 55.9146 59.8315 56.222 60.6615 56.4213ZM72.1826 18.2722L69.1595 29.5465L91.367 34.9193C92.7101 35.2442 93.3673 36.3979 92.9782 37.709L85.9915 61.2522C85.6476 62.4109 84.4204 63.1215 83.2445 62.8394L61.4291 57.6043C60.7395 57.4388 60.8785 57.3502 60.6775 58.0243L49.7447 94.6917C48.8067 97.8379 45.8369 100.21 42.4728 99.4238L8.48897 91.4816C6.36736 90.9858 4.13811 90.2529 2.64213 88.688C0.457147 86.4023 0.670208 83.2343 1.48963 80.4305L23.6312 4.66921C24.5144 1.69316 27.6947 -0.145895 30.714 0.584556L65.7564 9.06252C67.6374 9.51761 69.6846 10.0981 71.0556 11.6443C72.8587 13.6779 72.9518 15.6923 72.1826 18.2722ZM68.213 29.3175L71.2492 17.9941C71.8645 15.9305 71.9155 13.9805 70.3928 12.3324C69.2038 11.0456 69.6289 11.5575 69.9787 12.4718C70.4072 13.5916 70.4425 14.8132 70.1019 15.9605L66.5865 28.924L68.213 29.3175ZM2.66983 84.6826C3.21323 85.6276 4.11134 86.3692 5.2488 86.7067C16.3868 90.0127 29.4964 92.5798 40.9623 95.3538C44.7262 96.2644 45.7608 95.7216 46.8832 91.9396L57.1141 57.4641C57.2894 56.8736 57.3223 56.9639 56.6895 57.136C56.2815 57.247 55.872 57.3706 55.4692 57.4835L45.4815 60.2837C42.7093 61.0629 41.4743 60.5655 42.3574 57.5401L51.1434 27.442C51.4827 26.2796 52.716 25.5683 53.8923 25.8528L65.6407 28.6952L69.1686 15.6863C69.5168 14.5126 69.3904 13.2657 68.7779 12.2006C67.9846 10.8209 66.9176 10.3436 65.4998 10.0005L30.4854 1.52935C27.9685 0.920423 25.3009 2.46233 24.5646 4.94351L2.44291 80.6366C2.02434 82.0688 1.83237 83.2262 2.66983 84.6826ZM2.33859 86.4738C2.58814 87.0752 2.93259 87.5841 3.34692 88.0175C4.66989 89.4014 6.7339 90.0712 8.70992 90.533L42.6937 98.4752C45.5549 99.1438 48.0206 97.0658 48.8114 94.4136L59.7246 57.8116C59.8735 57.3121 59.8432 57.2299 59.4779 57.1345C59.2232 57.068 59.0053 57.0228 58.8153 56.9839C58.1871 56.8555 58.3147 56.8381 58.1361 57.4401L47.8165 92.2139C46.5387 96.5198 45.0197 97.3355 40.7338 96.2986C29.2521 93.5208 16.1285 90.9505 4.9745 87.6401C4.01854 87.3564 3.20063 86.8372 2.56699 86.163C1.90178 85.4552 1.85249 85.3023 2.33859 86.4738ZM51.4336 45.4988C50.7946 45.5139 50.7719 44.5424 51.4107 44.5274C54.0462 44.4649 54.9766 42.3976 55.9236 40.2936C56.2384 39.5942 56.5549 38.8911 56.9392 38.2314C58.4637 35.615 60.9836 35.4365 60.9796 38.5736C60.9785 39.4698 60.6994 40.4274 60.4879 41.1269C60.2439 41.9339 60.139 42.5741 60.1456 43.039C60.1572 43.8518 60.3653 43.9501 60.9869 43.4312C61.3668 43.114 61.814 42.5706 62.2988 41.7823C64.2238 38.6522 66.7238 39.8221 65.5923 43.5504C65.0189 45.4398 64.9135 46.6963 65.1194 47.336C65.2325 47.6877 65.3756 47.6768 65.6792 47.505C66.3495 47.1257 67.2387 46.0198 68.152 44.1754C68.8629 42.7399 70.3193 39.6087 71.7335 38.0127C73.2931 36.2527 74.8612 36.8911 74.7719 39.2018C74.6914 41.2851 73.4408 44.3252 72.9637 45.9058C72.0194 49.0343 71.1665 52.6257 72.3504 52.983C72.9841 53.1743 73.925 51.2462 74.9857 49.0726C75.569 47.8772 76.5104 45.773 77.5879 45.0992C78.3003 44.6537 78.9728 44.9066 79.2961 45.6632C79.8937 47.0623 79.2675 48.8671 79.3459 50.339C79.3943 51.249 79.5131 51.1362 80.0868 50.4565C80.2979 50.2063 80.5325 49.8767 80.7863 49.4698C81.2342 48.7517 83.4076 45.9034 84.4311 45.0719C85.1277 44.506 85.5347 45.2809 85.1378 45.6107C83.8471 46.7781 81.9541 49.4372 81.613 49.9841C81.0263 50.9248 80.4821 51.5387 80.0286 51.801C78.8387 52.489 78.4087 51.23 78.3752 50.3002C78.3371 49.2419 78.7039 47.6834 78.5455 46.59C78.4125 45.6723 78.2211 45.6644 77.6337 46.3591C76.9168 47.207 76.3564 48.4862 75.862 49.4992C74.6085 52.0679 73.4966 54.3463 72.0723 53.9164C70.0947 53.3195 70.9542 49.1929 72.0303 45.6277C72.4287 44.3077 73.7366 41.0228 73.8053 39.1512C73.8567 37.7515 73.3363 37.6416 72.4449 38.6564C71.1823 40.0939 69.6271 43.3889 69.0244 44.6059C68.0197 46.6349 66.9815 47.8854 66.1592 48.3508C65.31 48.8314 64.5016 48.5905 64.1936 47.6332C63.9331 46.8236 64.0275 45.3619 64.6628 43.2685C65.3798 40.9059 64.5593 39.9677 63.1293 42.2928C62.5499 43.235 61.9811 43.8916 61.4736 44.2805C60.2681 45.2043 59.2108 44.652 59.1787 43.089C59.1666 42.502 59.2815 41.7481 59.5545 40.845C59.7497 40.1995 60.0072 39.3191 60.0081 38.5736C60.0114 36.0243 58.3797 37.6917 57.7811 38.7191C57.4244 39.3314 57.117 40.0143 56.8113 40.6936C55.7378 43.0786 54.6832 45.4218 51.4336 45.4988ZM37.2203 90.7261C36.9438 90.8863 36.6999 90.4653 36.9765 90.3051L44.4557 85.9858C44.7322 85.8256 44.976 86.2466 44.6995 86.4068L37.2203 90.7261ZM40.7388 91.568C40.4623 91.7281 40.2185 91.3072 40.495 91.147L43.2443 89.5592C43.5208 89.3991 43.7646 89.82 43.4881 89.9802L40.7388 91.568ZM44.2936 9.61177C43.7179 9.47252 43.9296 8.59725 44.5053 8.73653L51.6708 10.5214C52.2464 10.6607 52.0347 11.536 51.459 11.3967L44.2936 9.61177Z" fill="#8392B8"/>
</svg>
