<svg width="333" height="78" viewBox="0 0 333 78" fill="none" xmlns="http://www.w3.org/2000/svg">
<path d="M165.625 63.625C178.328 63.625 188.625 53.3275 188.625 40.625C188.625 27.9225 178.328 17.625 165.625 17.625C152.922 17.625 142.625 27.9225 142.625 40.625C142.625 53.3275 152.922 63.625 165.625 63.625Z" stroke="#8392B8" stroke-width="2" stroke-linecap="round" stroke-linejoin="round"/>
<path d="M194.375 69.3749L181.869 56.8687" stroke="#8392B8" stroke-width="2" stroke-linecap="round" stroke-linejoin="round"/>
<path d="M171.544 34.3677L159.367 46.5441" stroke="#8392B8" stroke-width="2" stroke-linecap="round" stroke-linejoin="round"/>
<path d="M159.367 34.3677L171.544 46.5441" stroke="#8392B8" stroke-width="2" stroke-linecap="round" stroke-linejoin="round"/>
<rect width="80" height="17" rx="8.5" fill="#EDF0F5"/>
<rect x="88" width="39" height="17" rx="8.5" fill="#EDF0F5"/>
<rect x="214" y="60" width="35" height="17" rx="8.5" fill="#E9EEF5"/>
<rect x="278" width="35" height="17" rx="8.5" fill="#E9EEF5"/>
<rect x="62" y="60" width="63" height="17" rx="8.5" fill="#EDF0F5"/>
<rect x="195" width="75" height="17" rx="8.5" fill="#F8F8FA"/>
<rect x="21" y="60" width="35" height="17" rx="8.5" fill="#F8F8FA"/>
<rect x="258" y="60" width="75" height="17" rx="8.5" fill="#F8F8FA"/>
<rect x="214" y="31" width="75" height="17" rx="8.5" fill="#F8F8FA"/>
<rect x="26" y="30" width="75" height="17" rx="8.5" fill="#F8F8FA"/>
</svg>
