<svg width="96" height="96" viewBox="0 0 96 96" fill="none" xmlns="http://www.w3.org/2000/svg">
  <path d="M88.4211 0H7.57895C3.39321 0 0 3.39321 0 7.57895V88.4211C0 92.6068 3.39321 96 7.57895 96H88.4211C92.6068 96 96 92.6068 96 88.4211V7.57895C96 3.39321 92.6068 0 88.4211 0Z" fill="#507DED"/>
  <path d="M95.9998 64.4963V88.4205C95.9998 90.4306 95.2013 92.3583 93.78 93.7797C92.3586 95.201 90.4309 95.9995 88.4208 95.9995H67.8314L43.6798 71.8479C44.9776 72.8023 46.5554 73.2991 48.1659 73.2602C49.7764 73.2214 51.3285 72.6491 52.5787 71.6332C53.1559 71.1037 53.6167 70.46 53.932 69.7429C54.2472 69.0259 54.41 68.2512 54.41 67.4679C54.41 66.6846 54.2472 65.9099 53.932 65.1929C53.6167 64.4759 53.1559 63.8322 52.5787 63.3026C51.3772 62.2531 49.8351 61.6762 48.2398 61.6795L43.4082 56.8416H52.7619L54.2398 22.7363L95.9998 64.4963Z" fill="url(#paint0_linear_629_247447)"/>
  <path d="M41.5893 67.4711C41.5683 66.6842 41.7216 65.9024 42.0383 65.1817C42.3549 64.4611 42.8271 63.8194 43.4209 63.3026C44.7144 62.2491 46.3316 61.6738 47.9998 61.6738C49.6681 61.6738 51.2853 62.2491 52.5788 63.3026C53.1559 63.8322 53.6168 64.4759 53.932 65.1929C54.2473 65.9099 54.41 66.6846 54.41 67.4679C54.41 68.2512 54.2473 69.0259 53.932 69.7429C53.6168 70.46 53.1559 71.1037 52.5788 71.6332C51.2853 72.6867 49.6681 73.262 47.9998 73.262C46.3316 73.262 44.7144 72.6867 43.4209 71.6332C42.8272 71.1177 42.3551 70.4771 42.0384 69.7575C41.7217 69.0379 41.5683 68.257 41.5893 67.4711ZM52.7619 56.8416H43.4083L41.9304 22.7363H54.2398L52.7619 56.8416Z" fill="white"/>
  <defs>
  <linearGradient id="paint0_linear_629_247447" x1="39.3219" y1="37.6542" x2="94.6166" y2="92.949" gradientUnits="userSpaceOnUse">
  <stop stop-color="#1246C7"/>
  <stop offset="1" stop-color="#186EB3" stop-opacity="0"/>
  </linearGradient>
  </defs>
  </svg>
  