<svg width="17" height="17" viewBox="0 0 17 17" fill="none" xmlns="http://www.w3.org/2000/svg">
<path d="M2.125 4.25H3.54167H14.875" stroke="#FE7581" stroke-linecap="round" stroke-linejoin="round"/>
<path d="M5.66699 4.25002V2.83335C5.66699 2.45763 5.81625 2.0973 6.08192 1.83162C6.3476 1.56594 6.70794 1.41669 7.08366 1.41669H9.91699C10.2927 1.41669 10.6531 1.56594 10.9187 1.83162C11.1844 2.0973 11.3337 2.45763 11.3337 2.83335V4.25002M13.4587 4.25002V14.1667C13.4587 14.5424 13.3094 14.9027 13.0437 15.1684C12.7781 15.4341 12.4177 15.5834 12.042 15.5834H4.95866C4.58294 15.5834 4.2226 15.4341 3.95692 15.1684C3.69125 14.9027 3.54199 14.5424 3.54199 14.1667V4.25002H13.4587Z" stroke="#FE7581" stroke-linecap="round" stroke-linejoin="round"/>
<path d="M7.08301 7.79169V12.0417" stroke="#FE7581" stroke-linecap="round" stroke-linejoin="round"/>
<path d="M9.91699 7.79169V12.0417" stroke="#FE7581" stroke-linecap="round" stroke-linejoin="round"/>
</svg>
