<svg width="19" height="19" viewBox="0 0 19 19" fill="none" xmlns="http://www.w3.org/2000/svg">
<path d="M11.4762 4.77508C11.3083 4.94644 11.2142 5.17681 11.2142 5.41675C11.2142 5.65669 11.3083 5.88707 11.4762 6.05842L12.9429 7.52508C13.1142 7.69304 13.3446 7.78712 13.5845 7.78712C13.8245 7.78712 14.0549 7.69304 14.2262 7.52508L17.682 4.06925C18.143 5.08784 18.2825 6.22272 18.0821 7.32263C17.8817 8.42255 17.3509 9.43528 16.5603 10.2258C15.7697 11.0164 14.757 11.5473 13.6571 11.7477C12.5572 11.9481 11.4223 11.8085 10.4037 11.3476L4.06954 17.6818C3.70487 18.0464 3.21027 18.2513 2.69454 18.2513C2.17882 18.2513 1.68422 18.0464 1.31954 17.6818C0.954871 17.3171 0.75 16.8225 0.75 16.3068C0.75 15.791 0.954871 15.2964 1.31954 14.9318L7.65371 8.59758C7.19278 7.57899 7.05322 6.44412 7.25362 5.3442C7.45403 4.24428 7.98489 3.23156 8.77546 2.44099C9.56602 1.65043 10.5787 1.11957 11.6787 0.919164C12.7786 0.718756 13.9135 0.858318 14.932 1.31925L11.4854 4.76592L11.4762 4.77508Z" stroke="#507DED" stroke-linecap="round" stroke-linejoin="round"/>
</svg>
