<svg width="40" height="40" viewBox="0 0 40 40" fill="none" xmlns="http://www.w3.org/2000/svg">
<path d="M31.6667 5H8.33333C6.49238 5 5 6.49238 5 8.33333V31.6667C5 33.5076 6.49238 35 8.33333 35H31.6667C33.5076 35 35 33.5076 35 31.6667V8.33333C35 6.49238 33.5076 5 31.6667 5Z" stroke="#8392B8" stroke-linecap="round" stroke-linejoin="round"/>
<path d="M14.166 16.6667C15.5467 16.6667 16.666 15.5474 16.666 14.1667C16.666 12.7859 15.5467 11.6667 14.166 11.6667C12.7853 11.6667 11.666 12.7859 11.666 14.1667C11.666 15.5474 12.7853 16.6667 14.166 16.6667Z" stroke="#8392B8" stroke-linecap="round" stroke-linejoin="round"/>
<path d="M35.0007 25L26.6673 16.6667L8.33398 35" stroke="#8392B8" stroke-linecap="round" stroke-linejoin="round"/>
</svg>
