<svg width="13" height="15" viewBox="0 0 13 15" fill="none" xmlns="http://www.w3.org/2000/svg">
<path fill-rule="evenodd" clip-rule="evenodd" d="M9.26663 0.546899L8.45413 1.3594C9.39163 1.9844 10.0166 3.1094 10.0166 4.35935H2.5166C2.5166 3.10935 3.1416 2.04688 4.0166 1.35938L3.2041 0.546875C3.1416 0.421899 3.1416 0.1719 3.2041 0.046875C3.3291 -0.015625 3.5791 -0.015625 3.7041 0.046875L4.5791 0.984375C5.0791 0.734399 5.6416 0.609375 6.2666 0.609375C6.8916 0.609375 7.4541 0.7344 7.8916 1.0469L8.8291 0.1094C8.95413 -0.015625 9.1416 -0.015625 9.26663 0.1094C9.39163 0.2344 9.39163 0.421899 9.26663 0.546899ZM3.14163 11.8594C2.76663 11.8594 2.51663 11.6094 2.51663 11.2344V4.9844H10.0166V11.2344C10.0166 11.6094 9.76663 11.8594 9.39163 11.8594H8.76663V14.0469C8.76663 14.5469 8.32913 14.9844 7.82913 14.9844C7.32913 14.9844 6.89163 14.5469 6.89163 14.0469V11.8594H5.64163V14.0469C5.64163 14.5469 5.20413 14.9844 4.70413 14.9844C4.20413 14.9844 3.76663 14.5469 3.76663 14.0469V11.8594H3.14163ZM5.01663 3.1094H4.39163V2.4844H5.01663V3.1094ZM7.51663 3.1094H8.14163V2.4844H7.51663V3.1094Z" fill="#6B7C93"/>
<path d="M0.954102 4.98438C0.454102 4.98438 0.0166016 5.4219 0.0166016 5.92188V10.2969C0.0166016 10.7969 0.454102 11.2344 0.954102 11.2344C1.4541 11.2344 1.8916 10.7969 1.8916 10.2969V5.92188C1.8916 5.42188 1.4541 4.98438 0.954102 4.98438Z" fill="#C4CBD4"/>
<path d="M11.5791 4.98438C11.0791 4.98438 10.6416 5.4219 10.6416 5.92188V10.2969C10.6416 10.7969 11.0791 11.2344 11.5791 11.2344C12.0791 11.2344 12.5166 10.7969 12.5166 10.2969V5.92188C12.5166 5.42188 12.0791 4.98438 11.5791 4.98438Z" fill="#C4CBD4"/>
</svg>
