<svg width="30" height="30" viewBox="0 0 30 30" fill="none" xmlns="http://www.w3.org/2000/svg">
<path d="M15 0C6.72757 0 0 6.72757 0 15C0 23.2724 6.72757 30 15 30C23.2724 30 30 23.2724 30 15C30 6.72757 23.2724 0 15 0ZM15 2C22.1915 2 28 7.80845 28 15C28 22.1915 22.1915 28 15 28C7.80846 28 2 22.1915 2 15C2 7.80845 7.80845 2 15 2ZM15 6.66667C12.2504 6.66667 10 8.91709 10 11.6667C9.99813 11.7992 10.0226 11.9307 10.072 12.0537C10.1214 12.1767 10.1948 12.2886 10.2878 12.383C10.3809 12.4773 10.4918 12.5523 10.614 12.6034C10.7363 12.6546 10.8675 12.6809 11 12.6809C11.1325 12.6809 11.2637 12.6546 11.386 12.6034C11.5082 12.5523 11.6191 12.4773 11.7122 12.383C11.8052 12.2886 11.8786 12.1767 11.928 12.0537C11.9774 11.9307 12.0019 11.7992 12 11.6667C12 9.99797 13.3313 8.66667 15 8.66667C16.6687 8.66667 18 9.99797 18 11.6667C18 12.6054 17.6669 13.2611 17.0312 13.9792C16.3956 14.6973 15.4426 15.4187 14.3958 16.2083C14.2735 16.3011 14.1742 16.4207 14.1056 16.558C14.0369 16.6953 14.0008 16.8465 14 17V18.3333C13.9981 18.4658 14.0226 18.5974 14.072 18.7204C14.1214 18.8433 14.1948 18.9553 14.2878 19.0496C14.3809 19.144 14.4918 19.2189 14.614 19.2701C14.7363 19.3212 14.8675 19.3476 15 19.3476C15.1325 19.3476 15.2637 19.3212 15.386 19.2701C15.5082 19.2189 15.6191 19.144 15.7122 19.0496C15.8052 18.9553 15.8786 18.8433 15.928 18.7204C15.9774 18.5974 16.0019 18.4658 16 18.3333V17.4896C16.899 16.8142 17.7958 16.1434 18.5312 15.3125C19.376 14.3581 20 13.1371 20 11.6667C20 8.91709 17.7496 6.66667 15 6.66667ZM15 20.6667C14.2636 20.6667 13.6667 21.2636 13.6667 22C13.6667 22.7364 14.2636 23.3333 15 23.3333C15.7364 23.3333 16.3333 22.7364 16.3333 22C16.3333 21.2636 15.7364 20.6667 15 20.6667Z" fill="#3757FF"/>
</svg>
