<svg width="453" height="453" viewBox="0 0 453 453" fill="none" xmlns="http://www.w3.org/2000/svg">
<circle cx="226.61" cy="167.244" r="134.244" fill="#69AB70"/>
<path d="M195.286 293.657C261.513 244.882 290.562 120.632 295.969 64.3237C259.612 108.512 248.984 137.039 203.677 122.496C158.369 107.953 119.394 113.865 106.909 135.92C223.813 92.8506 240.034 219.264 195.286 293.657Z" fill="white"/>
<circle cx="220.457" cy="88.3752" r="33.0016" fill="white"/>
<path d="M144.281 364.58C142.418 343.056 126.67 330.854 104.826 330.854C81.4576 330.854 63 346.446 63 375.427C63 404.281 80.9496 420 104.826 420C130.226 420 143.096 402.374 144.281 387.629L120.405 387.46C119.219 394.874 113.97 399.493 105.334 399.493C93.8614 399.493 87.215 391.358 87.215 375.427C87.215 360.343 93.6497 351.361 105.503 351.361C114.563 351.361 119.727 356.699 120.405 364.58H144.281Z" fill="black"/>
<path d="M206.438 332.04V388.307C206.438 394.747 201.188 399.154 192.383 399.154C183.747 399.154 178.497 394.747 178.497 388.307V332.04H154.96V389.324C154.96 409.153 169.523 419.83 192.383 419.83C215.074 419.83 229.806 409.153 229.806 389.324V332.04H206.438Z" fill="black"/>
<path d="M240.993 418.813H264.53V390.171H272.658L287.899 418.813H313.468L295.857 386.443C305.086 381.994 310.59 373.562 310.59 361.529C310.59 343.056 297.678 332.04 278.416 332.04H240.993V418.813ZM264.53 371.868V350.852H272.828C281.083 350.852 286.036 354.072 286.036 361.529C286.036 368.944 281.083 371.868 272.828 371.868H264.53Z" fill="black"/>
<path d="M320.623 418.813H344.16V393.053H357.199C376.969 393.053 390.22 381.401 390.22 362.716C390.22 344.242 377.308 332.04 358.046 332.04H320.623V418.813ZM344.16 374.749V350.852H352.458C360.713 350.852 365.666 355.259 365.666 362.716C365.666 370.13 360.713 374.749 352.458 374.749H344.16Z" fill="black"/>
</svg>
