<svg width="100" height="100" viewBox="0 0 100 100" fill="none" xmlns="http://www.w3.org/2000/svg">
<path d="M75.2031 34.8825C65.8437 30.8145 55.7042 17.9325 51.8045 12C40.3651 19.119 29.7057 30.2213 25.8059 34.8825C29.9657 44.0356 44.0049 52.2563 50.5045 55.2226C57.0042 47.5951 66.9703 41.2388 75.2031 34.8825Z" fill="#D80180"/>
<path d="M23.9187 66.9324H15V87H23.9187V66.9324Z" fill="black"/>
<path d="M56.5698 66.9324H47.6511V77.4365H47.3945L35.7167 66.9324H28.1455V87H37.0642V76.4567H37.2567L49.1269 87H56.5698V66.9324Z" fill="black"/>
<path d="M60.7886 87H84.4007V82.6102H69.7073V79.1611H83.2458V74.7713H69.7073V71.3222H84.4649V66.9324H60.7886V87Z" fill="black"/>
<rect x="21.1746" y="42.873" width="57.1155" height="1.54366" fill="#1F1F1F"/>
</svg>
