<svg width="25" height="25" viewBox="0 0 25 25" fill="none" xmlns="http://www.w3.org/2000/svg">
<rect x="0.5" y="0.5" width="24" height="24" rx="6.5" fill="white" stroke="currentColor"/>
<path d="M10.6598 14.5543L9.693 13.5875L8.72622 14.5543H10.6598ZM9.50554 13.4001L8.57951 12.4741V14.3261L9.50554 13.4001ZM8.57951 12.0992L9.693 13.2126L10.8594 12.0462L9.73718 10.9239L8.57951 12.0816V12.0992ZM9.88045 13.4001L11.0027 14.5224L12.1692 13.3559L11.0469 12.2336L9.88045 13.4001ZM13.3676 14.5543L12.3566 13.5434L11.3457 14.5543H13.3676ZM9.54973 10.7365L8.57951 9.76624V11.7067L9.54973 10.7365ZM8.61492 9.42674L9.73718 10.549L10.9036 9.38255L9.78137 8.26028L8.61492 9.42674ZM9.92463 10.7365L11.0469 11.8587L12.2134 10.6923L11.0911 9.57001L9.92463 10.7365ZM11.2344 12.0462L12.3566 13.1685L13.5231 12.002L12.4008 10.8797L11.2344 12.0462ZM12.5441 13.3559L13.6663 14.4782L14.8328 13.3117L13.7105 12.1895L12.5441 13.3559ZM16.4484 9.51171L16.4184 9.48163L15.2519 10.6481L16.3742 11.7704L16.4484 11.6961V9.51171ZM16.2309 9.29418L15.1086 8.17191L13.9422 9.33836L15.0644 10.4606L16.2309 9.29418ZM14.9212 7.98445L13.7989 6.86219L12.6325 8.02865L13.7547 9.15091L14.9212 7.98445ZM13.6115 6.67474L12.4892 5.55247L11.3227 6.71892L12.445 7.84119L13.6115 6.67474ZM12.708 5.39637L13.7989 6.48728L14.4062 5.88C13.8973 5.59853 13.3204 5.42652 12.708 5.39637ZM13.9864 6.67474L15.1086 7.797L15.7745 7.13116C15.6326 6.92149 15.471 6.72605 15.2925 6.54754C15.0948 6.34982 14.8762 6.17291 14.6406 6.02046L13.9864 6.67474ZM15.2961 7.98445L16.4184 9.10672L16.441 9.08408C16.4026 8.46037 16.2172 7.87468 15.919 7.3615L15.2961 7.98445ZM16.4484 12.2195L16.3742 12.1453L15.2077 13.3117L16.4481 14.5521C16.4483 14.5352 16.4484 14.5183 16.4484 14.5013V12.2195ZM16.1867 11.9578L15.0644 10.8355L13.898 12.002L15.0203 13.1243L16.1867 11.9578ZM14.877 10.6481L13.7547 9.52582L12.5883 10.6923L13.7105 11.8145L14.877 10.6481ZM13.5673 9.33836L12.445 8.2161L11.2785 9.38255L12.4008 10.5048L13.5673 9.33836ZM12.2575 8.02865L11.1353 6.90637L9.96883 8.07283L11.0911 9.1951L12.2575 8.02865ZM10.9478 6.71892L10.3044 6.07553C10.1003 6.21503 9.90981 6.3732 9.73547 6.54754C9.51852 6.76449 9.3266 7.00645 9.16458 7.26858L9.78137 7.88538L10.9478 6.71892ZM10.5339 5.93005L11.1353 6.53147L12.2674 5.39931C11.6391 5.43867 11.0495 5.62735 10.5339 5.93005ZM16.0754 14.5543L15.0203 13.4992L13.9651 14.5543H16.0754ZM9.59392 8.07283L9.02833 7.50724C8.77811 7.9832 8.62256 8.51576 8.58724 9.0795L9.59392 8.07283ZM16.9527 18.7375C17.184 18.4776 17.5796 18.8298 17.3483 19.0896C16.1815 20.3984 14.5299 21.153 12.7791 21.2228V24.7387C12.7791 25.0874 12.2488 25.0874 12.2488 24.7387V21.2229C10.5101 21.154 8.8799 20.4156 7.71192 19.1254C7.47926 18.8683 7.87074 18.5141 8.10339 18.7712C9.23358 20.0198 10.846 20.7049 12.5282 20.6995C14.165 20.6944 15.7963 20.0345 16.9527 18.7375ZM16.4049 15.0846H8.62305C8.91081 16.9986 10.5732 18.4358 12.514 18.4358C14.4548 18.4358 16.1171 16.9986 16.4049 15.0846ZM12.514 4.86133C13.742 4.86133 14.8583 5.36353 15.6674 6.17263C16.4765 6.98173 16.9787 8.09797 16.9787 9.32604V14.5013C16.9787 16.9574 14.9701 18.966 12.514 18.966C10.0578 18.966 8.04926 16.9574 8.04926 14.5013V9.32604C8.04926 8.09797 8.55146 6.98173 9.36056 6.17263C10.1697 5.36353 11.2859 4.86133 12.514 4.86133Z" fill="currentColor"/>
</svg>
