<svg width="12" height="10" viewBox="0 0 12 10" fill="none" xmlns="http://www.w3.org/2000/svg">
<path fill-rule="evenodd" clip-rule="evenodd" d="M10.343 1.05081C10.2112 0.916658 9.99651 0.916658 9.86556 1.05081L4.83411 6.11157C4.70226 6.24663 4.48716 6.24663 4.35621 6.11157L2.15166 3.84289C2.08641 3.77559 2.00091 3.74239 1.91496 3.74194C1.82811 3.74148 1.73991 3.77468 1.67376 3.84289L0.699509 4.72781C0.634709 4.79511 0.599609 4.87924 0.599609 4.967C0.599609 5.05522 0.634709 5.14753 0.699959 5.21438L2.92296 7.57173C3.05436 7.70633 3.26991 7.92461 3.40086 8.0583L4.35666 9.03189C4.48806 9.16513 4.70271 9.16513 4.83456 9.03189L11.2993 2.51097C11.4311 2.37727 11.4311 2.15764 11.2993 2.02394L10.343 1.05081Z" fill="white"/>
</svg>
