<svg width="42" height="39" viewBox="0 0 42 39" fill="none" xmlns="http://www.w3.org/2000/svg">
<path d="M15.1578 2.32031H2.21045V30.9895H17.0074L20.2443 33.7639V6.48197L15.1578 2.32031Z" class="main-fill" fill="#9BABFF"/>
<path d="M26.7182 1.85938H39.6655V30.5285H24.8685L21.6317 33.303V6.02103L26.7182 1.85938Z" fill="#D7DDFF"/>
<path d="M1.28564 1.85938H12.9999C15.0711 1.85938 17.0575 2.68216 18.5221 4.14673C19.9867 5.6113 20.8095 7.59768 20.8095 9.6689V37.0022C20.8095 35.4488 20.1924 33.959 19.0939 32.8606C17.9955 31.7622 16.5057 31.1451 14.9523 31.1451H1.28564V1.85938Z" class="main-fill-stroke" stroke="#9BABFF" stroke-width="2" stroke-linecap="round" stroke-linejoin="round"/>
<path d="M40.3331 1.85938H28.6188C26.5476 1.85938 24.5613 2.68216 23.0967 4.14673C21.6321 5.6113 20.8093 7.59768 20.8093 9.6689V37.0022C20.8093 35.4488 21.4264 33.959 22.5248 32.8606C23.6233 31.7622 25.1131 31.1451 26.6665 31.1451H40.3331V1.85938Z" stroke="#9BABFF" class="main-fill-stroke" stroke-width="2" stroke-linecap="round" stroke-linejoin="round"/>
</svg>
