<svg width="17" height="17" viewBox="0 0 17 17" fill="none" xmlns="http://www.w3.org/2000/svg">
<path d="M8.49935 15.5832C12.4114 15.5832 15.5827 12.4119 15.5827 8.49984C15.5827 4.58782 12.4114 1.4165 8.49935 1.4165C4.58733 1.4165 1.41602 4.58782 1.41602 8.49984C1.41602 12.4119 4.58733 15.5832 8.49935 15.5832Z" stroke="#8392B8" stroke-linecap="round" stroke-linejoin="round"/>
<path d="M6.43848 6.37492C6.60501 5.90151 6.93371 5.50232 7.36636 5.24805C7.79901 4.99378 8.30769 4.90083 8.80231 4.98567C9.29692 5.07051 9.74555 5.32766 10.0687 5.71158C10.3919 6.0955 10.5688 6.58141 10.5681 7.08325C10.5681 8.49992 8.44306 9.20825 8.44306 9.20825" stroke="#8392B8" stroke-linecap="round" stroke-linejoin="round"/>
<path d="M8.5 12.0415H8.50643" stroke="#8392B8" stroke-linecap="round" stroke-linejoin="round"/>
</svg>
