<svg width="141" height="177" viewBox="0 0 141 177" fill="none" xmlns="http://www.w3.org/2000/svg">
<path d="M137.209 21.2113C114.187 18.0526 92.4532 11.2768 72.184 0.45329C70.9977 -0.180118 70.1643 -0.130119 69.0197 0.481064C48.1365 11.6241 25.7198 18.4499 1.97234 21.4669C0.427701 21.6614 -0.0584256 22.0225 0.00547141 23.5588C0.640737 38.5791 1.22137 53.6022 1.74736 68.6281C2.02518 76.6846 2.39742 84.7411 4.15042 92.6309C12.3959 129.796 34.1255 157.621 69.3392 176.105C70.3477 176.627 71.0367 176.485 71.9396 176.021C87.1998 168.243 100.338 158.039 111.125 145.223C127.299 126.004 136.562 104.157 138.537 79.6849C139.279 70.545 139.473 61.3688 139.926 52.2094H139.879C140.249 43.2639 140.61 34.3147 140.962 25.3618C141.098 21.7003 141.071 21.7503 137.209 21.2113Z" fill="url(#paint0_linear_1466_3015)"/>
<path d="M131.659 27.884C110.781 24.5864 90.9538 18.3579 72.2765 8.95397C71.0097 8.32056 70.1318 8.36781 68.9067 8.98456C50.2294 18.3885 30.3936 24.6031 9.51886 27.8757C8.34371 28.0591 8.08535 28.4591 8.1298 29.5065C8.46595 37.3352 8.74377 45.1723 9.04103 53.0093H9.46331C9.46331 56.6348 9.40774 60.2629 9.46331 63.8828C9.69111 75.512 10.2967 87.1051 13.5638 98.4176C22.2538 128.547 40.8181 151.61 69.2567 167.607C70.2041 168.143 70.8986 168.129 71.857 167.607C76.5159 164.984 81.0554 162.186 85.2892 158.978C113.248 137.77 128.556 110.252 130.898 76.5371C132.009 60.7908 132.287 45 133.003 29.2314C133.067 28.1397 132.531 28.0257 131.659 27.884Z" fill="#EA6766"/>
<path d="M123.403 33.9729C105.53 30.6281 88.1726 24.9501 71.7776 17.0847C70.8136 16.6235 70.1552 16.8069 69.294 17.207C52.9254 24.9984 35.6163 30.6358 17.7988 33.9785C16.5959 34.2063 16.2098 34.6286 16.2653 35.8259C16.657 44.5631 16.9432 53.3003 17.3043 62.0347C17.6627 70.7108 17.6099 79.4119 19.299 88.0018C25.2682 118.361 41.9545 141.996 69.3579 158.908C70.2413 159.463 70.8525 159.463 71.7471 158.922C79.9439 153.995 87.4613 148.018 94.1081 141.142C109.749 124.838 119.144 105.784 122.292 83.9791C123.562 75.1252 123.284 66.1991 123.789 59.4427C124.195 50.1305 124.47 42.9407 124.845 35.7481C124.895 34.6063 124.576 34.2035 123.403 33.9729Z" fill="#FE7581"/>
<path d="M76.109 54.207V80.233C76.109 82.9933 75.9725 85.7082 75.6995 88.3775C75.4265 91.0165 75.0777 93.8223 74.653 96.795H67.009C66.5843 93.8223 66.2355 91.0165 65.9625 88.3775C65.6895 85.7082 65.553 82.9933 65.553 80.233V54.207H76.109ZM63.7785 113.812C63.7785 112.872 63.9453 111.977 64.279 111.127C64.643 110.278 65.1283 109.55 65.735 108.943C66.372 108.337 67.1152 107.851 67.9645 107.487C68.8138 107.123 69.7238 106.941 70.6945 106.941C71.6348 106.941 72.5297 107.123 73.379 107.487C74.2283 107.851 74.9563 108.337 75.563 108.943C76.2 109.55 76.7005 110.278 77.0645 111.127C77.4285 111.977 77.6105 112.872 77.6105 113.812C77.6105 114.783 77.4285 115.693 77.0645 116.542C76.7005 117.361 76.2 118.074 75.563 118.68C74.9563 119.287 74.2283 119.757 73.379 120.091C72.5297 120.455 71.6348 120.637 70.6945 120.637C69.7238 120.637 68.8138 120.455 67.9645 120.091C67.1152 119.757 66.372 119.287 65.735 118.68C65.1283 118.074 64.643 117.361 64.279 116.542C63.9453 115.693 63.7785 114.783 63.7785 113.812Z" fill="white"/>
<defs>
<linearGradient id="paint0_linear_1466_3015" x1="70.4977" y1="177.627" x2="70.4977" y2="2.75079" gradientUnits="userSpaceOnUse">
<stop stop-color="#CCCCCC"/>
<stop offset="1" stop-color="white"/>
</linearGradient>
</defs>
</svg>
