<svg width="24" height="24" viewBox="0 0 24 24" fill="none" xmlns="http://www.w3.org/2000/svg">
<path d="M23.6993 11.7097C24.1344 11.2155 24.0924 10.4579 23.6055 10.0182L12.8796 0.32387C12.3928 -0.115898 11.6122 -0.106686 11.1356 0.344638L0.373269 10.535C-0.103331 10.9863 -0.126723 11.7429 0.321477 12.2241L0.591305 12.5144C1.03896 12.9956 1.76254 13.053 2.20644 12.6422L3.01075 11.8981V22.7907C3.01075 23.459 3.53499 24 4.18152 24H8.37672C9.02325 24 9.54749 23.459 9.54749 22.7907V15.1703H14.8985V22.7907C14.8892 23.4585 15.3518 23.9995 15.9983 23.9995H20.4442C21.0907 23.9995 21.6149 23.4585 21.6149 22.7902V12.0515C21.6149 12.0515 21.8371 12.2526 22.1112 12.5014C22.3848 12.7497 22.9594 12.5506 23.3945 12.0559L23.6993 11.7097Z" fill="#95A6BB"/>
</svg>
