<svg width="21" height="52" viewBox="0 0 21 52" fill="none" xmlns="http://www.w3.org/2000/svg">
<path fill-rule="evenodd" clip-rule="evenodd" d="M10.5973 3.74263C10.5597 3.73118 10.5222 3.71976 10.4899 3.70547C10.4728 3.7174 10.4536 3.72797 10.4345 3.7385C10.3945 3.76056 10.3549 3.78244 10.3346 3.81621C9.94673 4.45469 9.55727 5.09223 9.16782 5.72977C8.13859 7.41462 7.10936 9.09947 6.11001 10.8018C5.08224 12.5522 3.8662 14.1656 2.64975 15.7796C2.34481 16.1842 2.03985 16.5888 1.73782 16.9957C1.62302 17.1502 1.49039 17.3027 1.33666 17.4159C1.12654 17.5708 0.887226 17.6694 0.615866 17.5368C0.33477 17.3993 0.121008 16.9786 0.250807 16.7247C0.456051 16.3232 0.679142 15.9285 0.927383 15.5525C1.32472 14.9492 1.72808 14.35 2.13142 13.7507C2.85011 12.6829 3.56874 11.6152 4.25308 10.5256C4.97066 9.38285 5.65373 8.21864 6.3368 7.05442C6.70358 6.42929 7.07036 5.80416 7.44248 5.18234C7.49635 5.09234 7.55051 5.00259 7.60464 4.91289C8.11868 4.06104 8.62961 3.21435 8.85567 2.21359C9.00575 1.54797 9.50101 1.11111 10.1468 0.865311C10.5946 0.694542 11.1142 0.806087 11.3608 1.19994C11.8419 1.9686 12.3233 2.7405 12.7387 3.54485C15.1769 8.26872 17.4881 13.0538 19.6091 17.9294C19.8156 18.404 19.9965 18.8911 20.1587 19.3828C20.2167 19.558 20.2317 19.7762 20.1814 19.9502C20.1336 20.1169 20.005 20.3116 19.8578 20.3842C19.7061 20.4593 19.4469 20.4698 19.3106 20.3859C19.1029 20.2581 18.9094 20.05 18.8003 19.831C18.5704 19.37 18.3543 18.9021 18.1381 18.4343C17.9465 18.0197 17.7549 17.605 17.5538 17.1952C17.399 16.8797 17.2442 16.5641 17.0894 16.2486C15.5887 13.1893 14.0881 10.1301 12.5655 7.08187C12.1329 6.21604 11.6546 5.37283 11.1764 4.52988C11.047 4.30185 10.9177 4.07384 10.7893 3.84541C10.7594 3.79196 10.6782 3.76725 10.5973 3.74263ZM9.47899 32.2977C9.50453 31.7663 9.53006 31.2349 9.55569 30.7035C9.58043 30.7035 9.60518 30.7035 9.62992 30.7039C9.62992 29.8062 9.629 28.9084 9.62808 28.0106C9.626 25.9906 9.62393 23.9706 9.63235 21.951C9.63576 21.1271 9.64583 20.3033 9.6559 19.4794C9.68784 16.867 9.71977 14.2548 9.53906 11.6437C9.51716 11.3261 9.56056 10.9988 9.60923 10.682C9.65385 10.3932 9.88952 10.2561 10.1463 10.1859C10.4355 10.1068 10.8975 10.2922 10.9952 10.5169C11.0071 10.544 11.0194 10.5713 11.0318 10.5988C11.1001 10.7504 11.1709 10.9075 11.1778 11.0637C11.1951 11.4722 11.2132 11.8807 11.2312 12.2893C11.3048 13.9532 11.3784 15.6175 11.4041 17.2823C11.4184 18.209 11.3844 19.1363 11.3504 20.0637C11.3322 20.5623 11.3139 21.0609 11.3031 21.5596C11.2926 22.0498 11.2809 22.54 11.2692 23.0302C11.233 24.5499 11.1967 26.0695 11.1964 27.5891C11.196 29.7961 11.0642 31.9938 10.9247 34.1939C10.8301 35.6907 10.7692 37.1897 10.7083 38.6888C10.6691 39.6522 10.63 40.6157 10.5819 41.5786C10.4399 44.4261 10.2805 47.2732 10.1203 50.1194C10.1076 50.348 10.0525 50.5759 9.99823 50.8008C9.99212 50.8261 9.98601 50.8514 9.97997 50.8767C9.93616 51.0608 9.55407 51.2706 9.3399 51.1967C9.17116 51.1387 8.9647 51.028 8.89412 50.8832C8.78541 50.6605 8.73715 50.3883 8.73674 50.1368C8.7362 49.9219 8.73376 49.7066 8.73132 49.4913C8.72271 48.7324 8.71409 47.9722 8.78866 47.2208C9.01559 44.9291 9.07873 42.6309 9.14186 40.3329C9.17668 39.0656 9.2115 37.7984 9.27378 36.5323C9.34333 35.121 9.41116 33.7094 9.47899 32.2977Z" fill="#95A6BB"/>
</svg>
