<svg width="22" height="22" viewBox="0 0 22 22" fill="none" xmlns="http://www.w3.org/2000/svg">
<path d="M12.8327 1.8335H5.49935C5.01312 1.8335 4.5468 2.02665 4.20299 2.37047C3.85917 2.71428 3.66602 3.1806 3.66602 3.66683V18.3335C3.66602 18.8197 3.85917 19.286 4.20299 19.6299C4.5468 19.9737 5.01312 20.1668 5.49935 20.1668H16.4993C16.9856 20.1668 17.4519 19.9737 17.7957 19.6299C18.1395 19.286 18.3327 18.8197 18.3327 18.3335V7.3335L12.8327 1.8335Z" stroke="#5AC794" stroke-linecap="round" stroke-linejoin="round"/>
<path d="M12.834 1.8335V7.3335H18.334" stroke="#5AC794" stroke-linecap="round" stroke-linejoin="round"/>
<path d="M14.6673 11.9165H7.33398" stroke="#5AC794" stroke-linecap="round" stroke-linejoin="round"/>
<path d="M14.6673 15.5835H7.33398" stroke="#5AC794" stroke-linecap="round" stroke-linejoin="round"/>
<path d="M9.16732 8.25H8.25065H7.33398" stroke="#5AC794" stroke-linecap="round" stroke-linejoin="round"/>
</svg>
