<?xml version="1.0" encoding="UTF-8"?>
<svg width="24px" height="18px" viewBox="0 0 24 18" version="1.1" xmlns="http://www.w3.org/2000/svg" xmlns:xlink="http://www.w3.org/1999/xlink">
    <!-- Generator: Sketch 51.3 (57544) - http://www.bohemiancoding.com/sketch -->
    <title>documentation2</title>
    <desc>Created with Sketch.</desc>
    <defs></defs>
    <g id="Page-1" stroke="none" stroke-width="1" fill="none" fill-rule="evenodd">
        <g id="1-v2" transform="translate(-28.000000, -235.000000)">
            <g id="menuLeft">
                <g id="documentation2" transform="translate(28.000000, 235.000000)">
                    <path d="M17.7510577,5.11131008 C17.3381306,4.67257508 17.3590521,3.98216657 17.7977871,3.56923951 C18.2365221,3.15631245 18.9269306,3.17723392 19.3398577,3.61596892 L23.703494,8.25233255 C24.0988395,8.67238711 24.0988395,9.32761916 23.703494,9.74767371 L19.3398577,14.3840374 C18.9269306,14.8227724 18.2365221,14.8436938 17.7977871,14.4307668 C17.3590521,14.0178397 17.3381306,13.3274312 17.7510577,12.8886962 L21.4110041,9.00000313 L17.7510577,5.11131008 Z M6.24894231,5.11130694 L2.58899591,9 L6.24894231,12.8886931 C6.66186937,13.3274281 6.6409479,14.0178366 6.2022129,14.4307636 C5.7634779,14.8436907 5.07306939,14.8227692 4.66014233,14.3840342 L0.296505965,9.74767058 C-0.0988395005,9.32761602 -0.0988395005,8.67238398 0.296505965,8.25232942 L4.66014233,3.61596578 C5.07306939,3.17723078 5.7634779,3.15630931 6.2022129,3.56923637 C6.6409479,3.98216343 6.66186937,4.67257194 6.24894231,5.11130694 Z" id="Combined-Shape" fill="#95A6BB" fill-rule="nonzero"></path>
                    <rect id="Rectangle-28" fill="#C3CCD7" transform="translate(12.000000, 8.727273) rotate(-345.000000) translate(-12.000000, -8.727273) " x="10.9090909" y="0" width="2.18181818" height="17.4545455" rx="1.09090909"></rect>
                </g>
            </g>
        </g>
    </g>
</svg>