<svg width="141" height="177" viewBox="0 0 141 177" fill="none" xmlns="http://www.w3.org/2000/svg">
<path d="M137.209 21.2113C114.187 18.0526 92.4532 11.2768 72.184 0.45329C70.9977 -0.180118 70.1643 -0.130119 69.0197 0.481064C48.1365 11.6241 25.7198 18.4499 1.97234 21.4669C0.427701 21.6614 -0.0584256 22.0225 0.00547141 23.5588C0.640737 38.5791 1.22137 53.6022 1.74736 68.6281C2.02518 76.6846 2.39742 84.7411 4.15042 92.6309C12.3959 129.796 34.1255 157.621 69.3392 176.105C70.3477 176.627 71.0367 176.485 71.9396 176.021C87.1998 168.243 100.338 158.039 111.125 145.223C127.299 126.004 136.562 104.157 138.537 79.6849C139.279 70.545 139.473 61.3688 139.926 52.2094H139.879C140.249 43.2639 140.61 34.3147 140.962 25.3618C141.098 21.7003 141.071 21.7503 137.209 21.2113Z" fill="url(#paint0_linear_1491_4367)"/>
<path d="M131.659 27.884C110.781 24.5864 90.9538 18.3579 72.2765 8.95397C71.0097 8.32056 70.1318 8.36781 68.9067 8.98456C50.2294 18.3885 30.3936 24.6031 9.51886 27.8757C8.34371 28.0591 8.08535 28.4591 8.1298 29.5065C8.46595 37.3352 8.74377 45.1723 9.04103 53.0093H9.46331C9.46331 56.6348 9.40774 60.2629 9.46331 63.8828C9.69111 75.512 10.2967 87.1051 13.5638 98.4176C22.2538 128.547 40.8181 151.61 69.2567 167.607C70.2041 168.143 70.8986 168.129 71.857 167.607C76.5159 164.984 81.0554 162.186 85.2892 158.978C113.248 137.77 128.556 110.252 130.898 76.5371C132.009 60.7908 132.287 45 133.003 29.2314C133.067 28.1397 132.531 28.0257 131.659 27.884Z" fill="#47AD7D"/>
<path d="M123.403 33.9729C105.53 30.6281 88.1725 24.9501 71.7776 17.0847C70.8136 16.6235 70.1552 16.8069 69.2939 17.207C52.9254 24.9984 35.6163 30.6358 17.7988 33.9785C16.5959 34.2063 16.2097 34.6286 16.2653 35.8259C16.657 44.5631 16.9431 53.3003 17.3043 62.0347C17.6627 70.7108 17.6099 79.4119 19.299 88.0018C25.2682 118.361 41.9545 141.996 69.3578 158.908C70.2413 159.463 70.8525 159.463 71.747 158.922C79.9439 153.995 87.4613 148.018 94.1081 141.142C109.749 124.838 119.144 105.784 122.292 83.9791C123.562 75.1252 123.284 66.1991 123.789 59.4427C124.195 50.1305 124.47 42.9407 124.845 35.7481C124.895 34.6063 124.576 34.2035 123.403 33.9729Z" fill="#5AC794"/>
<path fill-rule="evenodd" clip-rule="evenodd" d="M70.4258 117.992C63.4334 117.992 56.4353 118.006 49.4373 117.972C48.6336 117.976 47.8376 117.815 47.0982 117.5C45.7258 116.872 45.0312 115.716 45.0312 114.166C45.0312 101.241 45.0312 88.3134 45.0312 75.3842C45.0312 73.2229 46.6732 71.6366 48.9762 71.5783C50.318 71.545 51.6626 71.5783 53.0072 71.5783C65.842 71.5783 78.6767 71.5866 91.5115 71.6033C92.3838 71.612 93.2441 71.8082 94.0341 72.1783C95.2925 72.7784 95.9509 73.8841 95.9509 75.3204C95.9509 88.2755 95.9509 101.226 95.9509 114.172C95.9635 115.17 95.5799 116.132 94.8842 116.847C94.1884 117.563 93.2373 117.973 92.2394 117.989C91.2004 118.028 90.1559 117.989 89.1141 117.989L70.4258 117.992ZM67.5644 99.1868V102.937C67.5811 104.782 68.7701 106.074 70.4591 106.082C72.1482 106.09 73.3984 104.799 73.4067 102.921C73.4067 100.395 73.4067 97.8728 73.4067 95.3503C73.3875 95.1501 73.4288 94.9488 73.5254 94.7725C73.622 94.5961 73.7694 94.4529 73.9484 94.3613C75.1288 93.6538 76.056 92.5921 76.5981 91.3272C77.1403 90.0624 77.2698 88.6588 76.9683 87.3161C76.7374 86.2433 76.2437 85.2447 75.5316 84.4098C74.8195 83.575 73.9111 82.9301 72.8881 82.5331C71.8652 82.136 70.7596 81.9993 69.6707 82.1351C68.5819 82.2709 67.5437 82.675 66.6496 83.3111C65.7555 83.9473 65.0334 84.7955 64.5481 85.7797C64.0628 86.7638 63.8296 87.8532 63.8693 88.9498C63.909 90.0464 64.2205 91.1159 64.7758 92.0624C65.331 93.0089 66.1126 93.8026 67.0504 94.3724C67.2238 94.4521 67.3683 94.5835 67.4638 94.7487C67.5593 94.9139 67.6013 95.1047 67.5839 95.2947C67.5644 96.5921 67.5644 97.8894 67.5644 99.1868Z" fill="white"/>
<path fill-rule="evenodd" clip-rule="evenodd" d="M90.9 68.1805C90.78 68.2062 90.6584 68.2239 90.536 68.2333H82.9156V67.3999C82.9156 63.7161 82.935 60.0324 82.9156 56.3486C82.9293 53.3303 81.8619 50.4069 79.9065 48.1076C77.9512 45.8083 75.2371 44.2851 72.2558 43.8138C65.1715 42.6109 58.1873 47.9365 57.7344 55.0873C57.4872 58.9211 57.6399 62.7743 57.6121 66.6192C57.6121 67.1276 57.6121 67.6332 57.6121 68.1916H49.7028C49.6716 68.0639 49.6511 67.9338 49.6416 67.8027C49.6416 63.7022 49.5528 59.599 49.6722 55.5013C49.9501 46.028 56.8704 37.9492 66.1855 36.0851C76.6258 33.9932 86.9439 40.0995 89.9859 50.2812C90.5234 52.124 90.8267 54.0272 90.8888 55.9458C91.025 59.8546 90.9333 63.7745 90.9333 67.6888C90.9139 67.8361 90.9 67.9944 90.9 68.1805Z" fill="white"/>
<defs>
<linearGradient id="paint0_linear_1491_4367" x1="70.4977" y1="177.627" x2="70.4977" y2="2.75079" gradientUnits="userSpaceOnUse">
<stop stop-color="#CCCCCC"/>
<stop offset="1" stop-color="white"/>
</linearGradient>
</defs>
</svg>
