<?xml version="1.0" encoding="UTF-8"?>
<svg width="24px" height="24px" viewBox="0 0 24 24" version="1.1" xmlns="http://www.w3.org/2000/svg" xmlns:xlink="http://www.w3.org/1999/xlink">
    <!-- Generator: Sketch 51.3 (57544) - http://www.bohemiancoding.com/sketch -->
    <title>pricing</title>
    <desc>Created with Sketch.</desc>
    <defs></defs>
    <g id="Page-1" stroke="none" stroke-width="1" fill="none" fill-rule="evenodd">
        <g id="pricing">
            <rect id="Rectangle-13-Copy" fill="#C4CCD7" x="0" y="1" width="6" height="22" rx="1"></rect>
            <rect id="Rectangle-13-Copy-2" fill="#C4CCD7" x="18" y="1" width="6" height="22" rx="1"></rect>
            <path d="M6,0 L18,0 C18.5522847,-1.01453063e-16 19,0.44771525 19,1 L19,23 C19,23.5522847 18.5522847,24 18,24 L6,24 C5.44771525,24 5,23.5522847 5,23 L5,1 C5,0.44771525 5.44771525,1.01453063e-16 6,0 Z M12,9.5 L13.7018252,10.3947024 C13.7829337,10.4373437 13.8758371,10.4520582 13.9661527,10.4365678 C14.1929596,10.3976674 14.3452878,10.1822691 14.3063874,9.95546223 L13.9813677,8.06045207 L15.3581732,6.71839843 C15.4237914,6.65443651 15.4664944,6.57062717 15.4796713,6.47994507 C15.5127619,6.25221805 15.354978,6.04078352 15.127251,6.00769285 L13.2245526,5.7312146 L12.37364,4.0070774 C12.3330858,3.92490548 12.2665743,3.85839401 12.1844024,3.81783974 C11.9780467,3.71599712 11.7282026,3.8007217 11.62636,4.0070774 L10.7754474,5.7312146 L8.87274903,6.00769285 C8.78206693,6.02086973 8.69825759,6.06357272 8.63429567,6.1291909 C8.47367017,6.29397573 8.47704196,6.55777292 8.64182679,6.71839843 L10.0186323,8.06045207 L9.69361257,9.95546223 C9.67812222,10.0457779 9.69283667,10.1386813 9.73547795,10.2197898 C9.84256162,10.4234751 10.0944896,10.5017861 10.2981748,10.3947024 L12,9.5 Z" id="Combined-Shape" fill="#95A6BB"></path>
            <g id="Star" transform="translate(7.000000, 2.000000)">
                <polygon id="Shape" points="0 0 10 0 10 10 0 10"></polygon>
            </g>
        </g>
    </g>
</svg>