<svg width="22" height="22" viewBox="0 0 22 22" fill="none" xmlns="http://www.w3.org/2000/svg">
<path d="M11 13.75C12.5188 13.75 13.75 12.5188 13.75 11C13.75 9.48122 12.5188 8.25 11 8.25C9.48122 8.25 8.25 9.48122 8.25 11C8.25 12.5188 9.48122 13.75 11 13.75Z" stroke="#FE7581" stroke-linecap="round" stroke-linejoin="round"/>
<path d="M17.7827 13.7498C17.6607 14.0263 17.6243 14.333 17.6782 14.6304C17.7321 14.9277 17.8739 15.2021 18.0852 15.4182L18.1402 15.4732C18.3106 15.6434 18.4459 15.8456 18.5381 16.0682C18.6304 16.2908 18.6779 16.5293 18.6779 16.7703C18.6779 17.0112 18.6304 17.2497 18.5381 17.4723C18.4459 17.6949 18.3106 17.8971 18.1402 18.0673C17.9699 18.2378 17.7677 18.373 17.5452 18.4653C17.3226 18.5575 17.084 18.605 16.8431 18.605C16.6022 18.605 16.3636 18.5575 16.141 18.4653C15.9185 18.373 15.7163 18.2378 15.546 18.0673L15.491 18.0123C15.275 17.801 15.0006 17.6592 14.7032 17.6053C14.4059 17.5514 14.0992 17.5878 13.8227 17.7098C13.5516 17.826 13.3203 18.019 13.1575 18.2649C12.9946 18.5108 12.9072 18.799 12.906 19.094V19.2498C12.906 19.7361 12.7129 20.2024 12.369 20.5462C12.0252 20.89 11.5589 21.0832 11.0727 21.0832C10.5865 21.0832 10.1201 20.89 9.77632 20.5462C9.4325 20.2024 9.23935 19.7361 9.23935 19.2498V19.1673C9.23225 18.8639 9.13404 18.5697 8.95748 18.3228C8.78093 18.076 8.53419 17.8879 8.24935 17.7832C7.97287 17.6611 7.66617 17.6247 7.36881 17.6787C7.07145 17.7326 6.79705 17.8743 6.58102 18.0857L6.52602 18.1407C6.35575 18.3111 6.15355 18.4464 5.93099 18.5386C5.70843 18.6309 5.46986 18.6784 5.22893 18.6784C4.988 18.6784 4.74944 18.6309 4.52687 18.5386C4.30431 18.4464 4.10212 18.3111 3.93185 18.1407C3.76139 17.9704 3.62617 17.7682 3.53391 17.5456C3.44164 17.3231 3.39416 17.0845 3.39416 16.8436C3.39416 16.6027 3.44164 16.3641 3.53391 16.1415C3.62617 15.919 3.76139 15.7168 3.93185 15.5465L3.98685 15.4915C4.19817 15.2755 4.33994 15.0011 4.39385 14.7037C4.44777 14.4063 4.41137 14.0997 4.28935 13.8232C4.17315 13.552 3.98021 13.3208 3.73428 13.158C3.48834 12.9951 3.20015 12.9077 2.90518 12.9065H2.74935C2.26312 12.9065 1.7968 12.7133 1.45299 12.3695C1.10917 12.0257 0.916016 11.5594 0.916016 11.0732C0.916016 10.5869 1.10917 10.1206 1.45299 9.77681C1.7968 9.43299 2.26312 9.23984 2.74935 9.23984H2.83185C3.13526 9.23274 3.42952 9.13453 3.67637 8.95797C3.92323 8.78141 4.11125 8.53468 4.21602 8.24984C4.33804 7.97336 4.37444 7.66666 4.32052 7.3693C4.2666 7.07193 4.12484 6.79754 3.91352 6.5815L3.85852 6.5265C3.68806 6.35624 3.55283 6.15404 3.46057 5.93148C3.36831 5.70891 3.32082 5.47035 3.32082 5.22942C3.32082 4.98849 3.36831 4.74993 3.46057 4.52736C3.55283 4.3048 3.68806 4.1026 3.85852 3.93234C4.02878 3.76188 4.23098 3.62666 4.45354 3.53439C4.6761 3.44213 4.91467 3.39464 5.1556 3.39464C5.39653 3.39464 5.63509 3.44213 5.85766 3.53439C6.08022 3.62666 6.28241 3.76188 6.45268 3.93234L6.50768 3.98734C6.72372 4.19866 6.99811 4.34042 7.29548 4.39434C7.59284 4.44826 7.89953 4.41186 8.17602 4.28984H8.24935C8.52047 4.17364 8.7517 3.9807 8.91457 3.73476C9.07744 3.48883 9.16484 3.20064 9.16602 2.90567V2.74984C9.16602 2.26361 9.35917 1.79729 9.70299 1.45347C10.0468 1.10966 10.5131 0.916504 10.9993 0.916504C11.4856 0.916504 11.9519 1.10966 12.2957 1.45347C12.6395 1.79729 12.8327 2.26361 12.8327 2.74984V2.83234C12.8339 3.12731 12.9213 3.4155 13.0841 3.66143C13.247 3.90736 13.4782 4.1003 13.7493 4.2165C14.0258 4.33853 14.3325 4.37492 14.6299 4.32101C14.9273 4.26709 15.2016 4.12533 15.4177 3.914L15.4727 3.859C15.6429 3.68855 15.8451 3.55332 16.0677 3.46106C16.2903 3.3688 16.5288 3.32131 16.7698 3.32131C17.0107 3.32131 17.2493 3.3688 17.4718 3.46106C17.6944 3.55332 17.8966 3.68855 18.0668 3.859C18.2373 4.02927 18.3725 4.23147 18.4648 4.45403C18.5571 4.67659 18.6045 4.91516 18.6045 5.15609C18.6045 5.39702 18.5571 5.63558 18.4648 5.85814C18.3725 6.08071 18.2373 6.2829 18.0668 6.45317L18.0118 6.50817C17.8005 6.72421 17.6588 6.9986 17.6048 7.29596C17.5509 7.59333 17.5873 7.90002 17.7093 8.1765V8.24984C17.8255 8.52096 18.0185 8.75219 18.2644 8.91505C18.5104 9.07792 18.7985 9.16533 19.0935 9.1665H19.2493C19.7356 9.1665 20.2019 9.35966 20.5457 9.70347C20.8895 10.0473 21.0827 10.5136 21.0827 10.9998C21.0827 11.4861 20.8895 11.9524 20.5457 12.2962C20.2019 12.64 19.7356 12.8332 19.2493 12.8332H19.1668C18.8719 12.8343 18.5837 12.9217 18.3378 13.0846C18.0918 13.2475 17.8989 13.4787 17.7827 13.7498V13.7498Z" stroke="#FE7581" stroke-linecap="round" stroke-linejoin="round"/>
</svg>
