<svg width="18" height="18" viewBox="0 0 18 18" fill="none" xmlns="http://www.w3.org/2000/svg">
<path fill-rule="evenodd" clip-rule="evenodd" d="M5.01402 5.45385C5.31565 5.73774 5.33004 6.2124 5.04615 6.51403L2.52994 9.1875L5.04615 11.861C5.33004 12.1626 5.31565 12.6373 5.01402 12.9212C4.71239 13.205 4.23774 13.1907 3.95385 12.889L0.95385 9.70153C0.68205 9.41274 0.68205 8.96227 0.95385 8.67348L3.95385 5.48598C4.23774 5.18435 4.71239 5.16996 5.01402 5.45385ZM12.986 5.45385C12.6844 5.73774 12.67 6.2124 12.9539 6.51403L15.4701 9.1875L12.9539 11.861C12.67 12.1626 12.6844 12.6373 12.986 12.9212C13.2876 13.205 13.7623 13.1907 14.0462 12.889L17.0462 9.70153C17.318 9.41274 17.318 8.96227 17.0462 8.67348L14.0462 5.48598C13.7623 5.18435 13.2876 5.16997 12.986 5.45385Z" fill="#6B7C93"/>
<rect opacity="0.4" x="9.82861" y="3.01074" width="1.5" height="12" rx="0.75" transform="rotate(15 9.82861 3.01074)" fill="#6B7C93"/>
</svg>
