<svg width="25" height="25" viewBox="0 0 25 25" fill="none" xmlns="http://www.w3.org/2000/svg">
<rect x="0.5" y="0.5" width="24" height="24" rx="6.5" fill="white" stroke="currentColor"/>
<g clip-path="url(#clip0)">
<path d="M14.9222 15.6993C16.4609 16.4058 17.5294 17.9602 17.5294 19.7642V20.3231C17.5294 20.6317 17.2792 20.8819 16.9706 20.8819H9.14706C8.83843 20.8819 8.58824 20.6317 8.58824 20.3231V19.7642C8.58824 17.9602 9.65678 16.4058 11.1955 15.6993C10.6242 15.1877 10.2647 14.4444 10.2647 13.6172C10.2647 12.074 11.5157 10.8231 13.0588 10.8231C14.602 10.8231 15.8529 12.074 15.8529 13.6172C15.8529 14.4444 15.4934 15.1877 14.9222 15.6993ZM16.4118 19.7642C16.4118 17.9125 14.9106 16.4113 13.0588 16.4113C11.207 16.4113 9.70588 17.9125 9.70588 19.7642H16.4118ZM13.0588 15.2936C13.9847 15.2936 14.7353 14.5431 14.7353 13.6172C14.7353 12.6913 13.9847 11.9407 13.0588 11.9407C12.1329 11.9407 11.3824 12.6913 11.3824 13.6172C11.3824 14.5431 12.1329 15.2936 13.0588 15.2936ZM4.67647 12.731L3.95397 13.4535C3.73574 13.6717 3.38191 13.6717 3.16368 13.4535C2.94544 13.2353 2.94544 12.8815 3.16368 12.6632L4.84015 10.9867C5.05838 10.7685 5.41221 10.7685 5.63044 10.9867L7.30691 12.6632C7.52515 12.8815 7.52515 13.2353 7.30691 13.4535C7.08868 13.6717 6.73485 13.6717 6.51662 13.4535L5.79412 12.731V13.6172C5.79412 15.2215 6.41059 16.7275 7.49695 17.864C7.71021 18.0871 7.70223 18.4408 7.47912 18.6541C7.25602 18.8673 6.90229 18.8594 6.68903 18.6363C5.40582 17.2938 4.67647 15.5121 4.67647 13.6172V12.731ZM20.3235 14.5034L21.046 13.7809C21.2643 13.5626 21.6181 13.5626 21.8363 13.7809C22.0546 13.9991 22.0546 14.3529 21.8363 14.5711L20.1599 16.2476C19.9416 16.4658 19.5878 16.4658 19.3696 16.2476L17.6931 14.5711C17.4749 14.3529 17.4749 13.9991 17.6931 13.7809C17.9113 13.5626 18.2651 13.5626 18.4834 13.7809L19.2059 14.5034V13.6172C19.2059 11.5806 18.2088 9.71281 16.5686 8.56991C16.3154 8.39347 16.2532 8.04516 16.4296 7.79195C16.6061 7.53873 16.9544 7.47649 17.2076 7.65294C19.1446 9.00266 20.3235 11.2111 20.3235 13.6172V14.5034ZM13.3862 5.79365L12.6637 5.07114C12.4454 4.85291 12.4454 4.4991 12.6637 4.28086C12.8819 4.06263 13.2357 4.06263 13.454 4.28086L15.1304 5.95733C15.3487 6.17557 15.3487 6.52938 15.1304 6.74761L13.454 8.42408C13.2357 8.64232 12.8819 8.64232 12.6637 8.42408C12.4454 8.20585 12.4454 7.85204 12.6637 7.6338L13.3862 6.9113H12.5C10.4634 6.9113 8.59563 7.90837 7.45274 9.54855C7.27629 9.80177 6.92798 9.864 6.67476 9.68756C6.42154 9.51111 6.35931 9.16281 6.53575 8.90959C7.88547 6.97259 10.0939 5.79365 12.5 5.79365H13.3862Z" fill="currentColor"/>
</g>
<defs>
<clipPath id="clip0">
<rect width="19" height="19" fill="white" transform="translate(3 3)"/>
</clipPath>
</defs>
</svg>
