<svg width="22" height="22" viewBox="0 0 22 22" fill="none" xmlns="http://www.w3.org/2000/svg">
<path d="M12.8337 1.8335H5.50033C5.01409 1.8335 4.54778 2.02665 4.20396 2.37047C3.86015 2.71428 3.66699 3.1806 3.66699 3.66683V18.3335C3.66699 18.8197 3.86015 19.286 4.20396 19.6299C4.54778 19.9737 5.01409 20.1668 5.50033 20.1668H16.5003C16.9866 20.1668 17.4529 19.9737 17.7967 19.6299C18.1405 19.286 18.3337 18.8197 18.3337 18.3335V7.3335L12.8337 1.8335Z" stroke="#FE7581" stroke-linecap="round" stroke-linejoin="round"/>
<path d="M12.833 1.8335V7.3335H18.333" stroke="#FE7581" stroke-linecap="round" stroke-linejoin="round"/>
<path d="M14.6663 11.9165H7.33301" stroke="#FE7581" stroke-linecap="round" stroke-linejoin="round"/>
<path d="M14.6663 15.5835H7.33301" stroke="#FE7581" stroke-linecap="round" stroke-linejoin="round"/>
<path d="M9.16634 8.25H8.24967H7.33301" stroke="#FE7581" stroke-linecap="round" stroke-linejoin="round"/>
</svg>
