<svg width="19" height="24" viewBox="0 0 19 24" fill="none" xmlns="http://www.w3.org/2000/svg">
<rect width="18.8571" height="24" fill="black" fill-opacity="0.01"/>
<path d="M17.8555 5.93761L13.259 1.06241C12.7677 0.541563 12.1193 0.202853 11.314 0.0467682V8.00004H18.8129C18.6657 7.14562 18.3463 6.45824 17.8555 5.93761Z" fill="#95A6BB"/>
<path d="M10.8429 9.99986C10.4499 9.99986 10.1159 9.85413 9.84096 9.56242C9.56594 9.27089 9.42857 8.91669 9.42857 8.49994V0H1.41423C1.02144 0 0.687478 0.14574 0.412498 0.437439C0.137465 0.728974 0 1.08317 0 1.49992V22.5C0 22.9169 0.137465 23.2711 0.412498 23.5627C0.687531 23.8541 1.02144 24 1.41428 24H17.4432C17.8359 24 18.1697 23.8541 18.4447 23.5627C18.7197 23.2709 18.8571 22.9169 18.8571 22.5V9.99986H10.8429Z" fill="#95A6BB"/>
</svg>
