<svg width="229" height="229" viewBox="0 0 229 229" fill="none" xmlns="http://www.w3.org/2000/svg">
<circle cx="89" cy="109" r="24" fill="#4B88C7"/>
<circle cx="89" cy="56" r="24" fill="#4B88C7"/>
<circle cx="142" cy="109" r="24" fill="#4B88C7"/>
<circle cx="142" cy="56" r="24" fill="#4B88C7"/>
<path fill-rule="evenodd" clip-rule="evenodd" d="M73.5676 166.678H87.1749C87.1237 158.447 79.1947 153 66.5082 153C54.052 153 45.2533 158.365 45.33 166.35C45.3045 172.903 50.9827 176.548 60.2673 178.145L65.4851 179.046C71.3168 180.07 73.3118 181.237 73.363 183.141C73.3118 185.209 70.9587 186.663 66.4059 186.663C60.9579 186.663 57.7351 184.615 57.5049 180.766H44C44.0512 191.29 52.9521 196 66.6105 196C79.8853 196 87.8399 191.413 87.891 183.141C87.8399 176.752 83.0825 172.268 71.5214 170.282L67.2244 169.545C62.2624 168.705 60.0371 167.538 60.165 165.531C60.1906 163.689 62.1089 162.337 66.5082 162.337C71.1122 162.337 73.2863 163.955 73.5676 166.678ZM127.969 194.909C127.197 183.79 115.733 180.664 110 180.5L106.005 192.485L104.868 195.509H89.5216L106.812 153.573H126.251L143.541 195.509H128.195L127.969 194.909ZM111.109 178.964L116.327 165.122H116.736L121.954 178.964H111.109ZM156.228 162.747H140.472V153.573H186V162.747H170.244V195.509H156.228V162.747Z" fill="black"/>
</svg>
