<svg width="12" height="15" viewBox="0 0 12 15" fill="none" xmlns="http://www.w3.org/2000/svg">
<path d="M0.656951 5.36075C-0.575798 7.49995 0.207883 10.7463 1.5711 12.7147C2.25156 13.6988 2.94049 14.5822 3.88409 14.5822C3.90188 14.5822 3.91971 14.5818 3.93797 14.5811C4.3813 14.5634 4.70167 14.4269 5.01142 14.295C5.35918 14.1468 5.71885 13.9936 6.28299 13.9936C6.81969 13.9936 7.16219 14.1418 7.49341 14.2852C7.81985 14.4264 8.15609 14.5725 8.65292 14.5632C9.7158 14.5434 10.3684 13.5902 10.9442 12.7493C11.545 11.8713 11.8464 11.0188 11.948 10.693L11.9522 10.68C11.9715 10.6222 11.9442 10.5589 11.8887 10.5335C11.8871 10.5327 11.8815 10.5304 11.8799 10.5297C11.6927 10.4532 10.0509 9.72483 10.0336 7.73962C10.0176 6.12674 11.2653 5.27264 11.5156 5.11783L11.5272 5.11057C11.5543 5.09312 11.5732 5.06543 11.5796 5.03378C11.586 5.00218 11.5793 4.96929 11.5612 4.94271C10.6999 3.68237 9.37995 3.49243 8.84851 3.46958C8.77139 3.46188 8.69179 3.45801 8.61185 3.45801C7.98766 3.45801 7.38972 3.69375 6.90933 3.88317C6.57773 4.01393 6.29131 4.12685 6.09376 4.12685C5.87179 4.12685 5.58374 4.01254 5.25018 3.88021C4.80412 3.70317 4.29854 3.50257 3.76333 3.50257C3.75056 3.50257 3.73799 3.50271 3.7256 3.50295C2.48114 3.52126 1.30524 4.23323 0.656951 5.36075Z" fill="#6B7C93"/>
<path d="M8.84951 9.18614e-05C8.0959 0.0307851 7.19188 0.494674 6.65155 1.12757C6.19235 1.65953 5.74376 2.54648 5.86194 3.44051C5.86935 3.49644 5.91486 3.53961 5.97114 3.54396C6.022 3.54793 6.07392 3.54994 6.12565 3.54999C6.86253 3.54999 7.65745 3.14232 8.20031 2.48591C8.77168 1.79278 9.06059 0.903247 8.97319 0.106466C8.96631 0.0440281 8.91137 -0.00234639 8.84951 9.18614e-05Z" fill="#C4CBD4"/>
</svg>
