<svg width="160" height="60" viewBox="0 0 160 60" fill="none" xmlns="http://www.w3.org/2000/svg">
<g filter="url(#filter0_d)">
<rect x="14" y="10" width="132" height="32" rx="5" fill="white"/>
</g>
<path d="M17.8638 30V22.635H18.7538V25.615C18.9705 25.385 19.2105 25.2017 19.4738 25.065C19.7371 24.925 20.0405 24.855 20.3838 24.855C20.6605 24.855 20.9038 24.9017 21.1138 24.995C21.3271 25.085 21.5038 25.215 21.6438 25.385C21.7871 25.5517 21.8955 25.7533 21.9688 25.99C22.0421 26.2267 22.0788 26.4883 22.0788 26.775V30H21.1888V26.775C21.1888 26.3917 21.1005 26.095 20.9238 25.885C20.7505 25.6717 20.4838 25.565 20.1238 25.565C19.8605 25.565 19.6138 25.6283 19.3838 25.755C19.1571 25.8817 18.9471 26.0533 18.7538 26.27V30H17.8638ZM24.9554 30.08C24.5554 30.08 24.2471 29.9683 24.0304 29.745C23.8171 29.5217 23.7104 29.2 23.7104 28.78V25.68H23.1004C23.0471 25.68 23.0021 25.665 22.9654 25.635C22.9288 25.6017 22.9104 25.5517 22.9104 25.485V25.13L23.7404 25.025L23.9454 23.46C23.9521 23.41 23.9738 23.37 24.0104 23.34C24.0471 23.3067 24.0938 23.29 24.1504 23.29H24.6004V25.035H26.0504V25.68H24.6004V28.72C24.6004 28.9333 24.6521 29.0917 24.7554 29.195C24.8588 29.2983 24.9921 29.35 25.1554 29.35C25.2488 29.35 25.3288 29.3383 25.3954 29.315C25.4654 29.2883 25.5254 29.26 25.5754 29.23C25.6254 29.2 25.6671 29.1733 25.7004 29.15C25.7371 29.1233 25.7688 29.11 25.7954 29.11C25.8421 29.11 25.8838 29.1383 25.9204 29.195L26.1804 29.62C26.0271 29.7633 25.8421 29.8767 25.6254 29.96C25.4088 30.04 25.1854 30.08 24.9554 30.08ZM28.6859 30.08C28.2859 30.08 27.9776 29.9683 27.7609 29.745C27.5476 29.5217 27.4409 29.2 27.4409 28.78V25.68H26.8309C26.7776 25.68 26.7326 25.665 26.6959 25.635C26.6592 25.6017 26.6409 25.5517 26.6409 25.485V25.13L27.4709 25.025L27.6759 23.46C27.6826 23.41 27.7042 23.37 27.7409 23.34C27.7776 23.3067 27.8242 23.29 27.8809 23.29H28.3309V25.035H29.7809V25.68H28.3309V28.72C28.3309 28.9333 28.3826 29.0917 28.4859 29.195C28.5892 29.2983 28.7226 29.35 28.8859 29.35C28.9792 29.35 29.0592 29.3383 29.1259 29.315C29.1959 29.2883 29.2559 29.26 29.3059 29.23C29.3559 29.2 29.3976 29.1733 29.4309 29.15C29.4676 29.1233 29.4992 29.11 29.5259 29.11C29.5726 29.11 29.6142 29.1383 29.6509 29.195L29.9109 29.62C29.7576 29.7633 29.5726 29.8767 29.3559 29.96C29.1392 30.04 28.9159 30.08 28.6859 30.08ZM30.8814 31.715V24.935H31.4114C31.538 24.935 31.618 24.9967 31.6514 25.12L31.7264 25.72C31.943 25.4567 32.1897 25.245 32.4664 25.085C32.7464 24.925 33.068 24.845 33.4314 24.845C33.7214 24.845 33.9847 24.9017 34.2214 25.015C34.458 25.125 34.6597 25.29 34.8264 25.51C34.993 25.7267 35.1214 25.9967 35.2114 26.32C35.3014 26.6433 35.3464 27.015 35.3464 27.435C35.3464 27.8083 35.2964 28.1567 35.1964 28.48C35.0964 28.8 34.953 29.0783 34.7664 29.315C34.5797 29.5483 34.3497 29.7333 34.0764 29.87C33.8064 30.0033 33.5014 30.07 33.1614 30.07C32.848 30.07 32.5797 30.0183 32.3564 29.915C32.1364 29.8117 31.9414 29.665 31.7714 29.475V31.715H30.8814ZM33.1364 25.565C32.8464 25.565 32.5914 25.6317 32.3714 25.765C32.1547 25.8983 31.9547 26.0867 31.7714 26.33V28.78C31.9347 29 32.113 29.155 32.3064 29.245C32.503 29.335 32.7214 29.38 32.9614 29.38C33.4314 29.38 33.793 29.2117 34.0464 28.875C34.2997 28.5383 34.4264 28.0583 34.4264 27.435C34.4264 27.105 34.3964 26.8217 34.3364 26.585C34.2797 26.3483 34.1964 26.155 34.0864 26.005C33.9764 25.8517 33.8414 25.74 33.6814 25.67C33.5214 25.6 33.3397 25.565 33.1364 25.565ZM39.2989 25.77C39.2589 25.8433 39.1973 25.88 39.1139 25.88C39.0639 25.88 39.0073 25.8617 38.9439 25.825C38.8806 25.7883 38.8023 25.7483 38.7089 25.705C38.6189 25.6583 38.5106 25.6167 38.3839 25.58C38.2573 25.54 38.1073 25.52 37.9339 25.52C37.7839 25.52 37.6489 25.54 37.5289 25.58C37.4089 25.6167 37.3056 25.6683 37.2189 25.735C37.1356 25.8017 37.0706 25.88 37.0239 25.97C36.9806 26.0567 36.9589 26.1517 36.9589 26.255C36.9589 26.385 36.9956 26.4933 37.0689 26.58C37.1456 26.6667 37.2456 26.7417 37.3689 26.805C37.4923 26.8683 37.6323 26.925 37.7889 26.975C37.9456 27.0217 38.1056 27.0733 38.2689 27.13C38.4356 27.1833 38.5973 27.2433 38.7539 27.31C38.9106 27.3767 39.0506 27.46 39.1739 27.56C39.2973 27.66 39.3956 27.7833 39.4689 27.93C39.5456 28.0733 39.5839 28.2467 39.5839 28.45C39.5839 28.6833 39.5423 28.9 39.4589 29.1C39.3756 29.2967 39.2523 29.4683 39.0889 29.615C38.9256 29.7583 38.7256 29.8717 38.4889 29.955C38.2523 30.0383 37.9789 30.08 37.6689 30.08C37.3156 30.08 36.9956 30.0233 36.7089 29.91C36.4223 29.7933 36.1789 29.645 35.9789 29.465L36.1889 29.125C36.2156 29.0817 36.2473 29.0483 36.2839 29.025C36.3206 29.0017 36.3689 28.99 36.4289 28.99C36.4889 28.99 36.5523 29.0133 36.6189 29.06C36.6856 29.1067 36.7656 29.1583 36.8589 29.215C36.9556 29.2717 37.0706 29.3233 37.2039 29.37C37.3406 29.4167 37.5106 29.44 37.7139 29.44C37.8873 29.44 38.0389 29.4183 38.1689 29.375C38.2989 29.3283 38.4073 29.2667 38.4939 29.19C38.5806 29.1133 38.6439 29.025 38.6839 28.925C38.7273 28.825 38.7489 28.7183 38.7489 28.605C38.7489 28.465 38.7106 28.35 38.6339 28.26C38.5606 28.1667 38.4623 28.0883 38.3389 28.025C38.2156 27.9583 38.0739 27.9017 37.9139 27.855C37.7573 27.805 37.5956 27.7533 37.4289 27.7C37.2656 27.6467 37.1039 27.5867 36.9439 27.52C36.7873 27.45 36.6473 27.3633 36.5239 27.26C36.4006 27.1567 36.3006 27.03 36.2239 26.88C36.1506 26.7267 36.1139 26.5417 36.1139 26.325C36.1139 26.1317 36.1539 25.9467 36.2339 25.77C36.3139 25.59 36.4306 25.4333 36.5839 25.3C36.7373 25.1633 36.9256 25.055 37.1489 24.975C37.3723 24.895 37.6273 24.855 37.9139 24.855C38.2473 24.855 38.5456 24.9083 38.8089 25.015C39.0756 25.1183 39.3056 25.2617 39.4989 25.445L39.2989 25.77ZM40.6449 29.45C40.6449 29.3633 40.6599 29.2817 40.6899 29.205C40.7232 29.1283 40.7665 29.0617 40.8199 29.005C40.8765 28.9483 40.9432 28.9033 41.0199 28.87C41.0965 28.8367 41.1782 28.82 41.2649 28.82C41.3515 28.82 41.4332 28.8367 41.5099 28.87C41.5865 28.9033 41.6532 28.9483 41.7099 29.005C41.7665 29.0617 41.8099 29.1283 41.8399 29.205C41.8732 29.2817 41.8899 29.3633 41.8899 29.45C41.8899 29.54 41.8732 29.6233 41.8399 29.7C41.8099 29.7733 41.7665 29.8383 41.7099 29.895C41.6532 29.9517 41.5865 29.995 41.5099 30.025C41.4332 30.0583 41.3515 30.075 41.2649 30.075C41.1782 30.075 41.0965 30.0583 41.0199 30.025C40.9432 29.995 40.8765 29.9517 40.8199 29.895C40.7665 29.8383 40.7232 29.7733 40.6899 29.7C40.6599 29.6233 40.6449 29.54 40.6449 29.45ZM40.6449 25.7C40.6449 25.6133 40.6599 25.5317 40.6899 25.455C40.7232 25.3783 40.7665 25.3117 40.8199 25.255C40.8765 25.1983 40.9432 25.1533 41.0199 25.12C41.0965 25.0867 41.1782 25.07 41.2649 25.07C41.3515 25.07 41.4332 25.0867 41.5099 25.12C41.5865 25.1533 41.6532 25.1983 41.7099 25.255C41.7665 25.3117 41.8099 25.3783 41.8399 25.455C41.8732 25.5317 41.8899 25.6133 41.8899 25.7C41.8899 25.79 41.8732 25.8733 41.8399 25.95C41.8099 26.0233 41.7665 26.0883 41.7099 26.145C41.6532 26.2017 41.5865 26.2467 41.5099 26.28C41.4332 26.31 41.3515 26.325 41.2649 26.325C41.1782 26.325 41.0965 26.31 41.0199 26.28C40.9432 26.2467 40.8765 26.2017 40.8199 26.145C40.7665 26.0883 40.7232 26.0233 40.6899 25.95C40.6599 25.8733 40.6449 25.79 40.6449 25.7ZM43.3294 30.105C43.2827 30.2217 43.2127 30.3083 43.1194 30.365C43.0294 30.4217 42.9361 30.45 42.8394 30.45H42.4644L45.4694 22.965C45.5127 22.8583 45.5744 22.7767 45.6544 22.72C45.7344 22.6633 45.8294 22.635 45.9394 22.635H46.3144L43.3294 30.105ZM46.3763 30.105C46.3296 30.2217 46.2596 30.3083 46.1663 30.365C46.0763 30.4217 45.983 30.45 45.8863 30.45H45.5113L48.5163 22.965C48.5596 22.8583 48.6213 22.7767 48.7013 22.72C48.7813 22.6633 48.8763 22.635 48.9863 22.635H49.3613L46.3763 30.105ZM52.4044 25.77C52.3644 25.8433 52.3027 25.88 52.2194 25.88C52.1694 25.88 52.1127 25.8617 52.0494 25.825C51.9861 25.7883 51.9077 25.7483 51.8144 25.705C51.7244 25.6583 51.6161 25.6167 51.4894 25.58C51.3627 25.54 51.2127 25.52 51.0394 25.52C50.8894 25.52 50.7544 25.54 50.6344 25.58C50.5144 25.6167 50.4111 25.6683 50.3244 25.735C50.2411 25.8017 50.1761 25.88 50.1294 25.97C50.0861 26.0567 50.0644 26.1517 50.0644 26.255C50.0644 26.385 50.1011 26.4933 50.1744 26.58C50.2511 26.6667 50.3511 26.7417 50.4744 26.805C50.5977 26.8683 50.7377 26.925 50.8944 26.975C51.0511 27.0217 51.2111 27.0733 51.3744 27.13C51.5411 27.1833 51.7027 27.2433 51.8594 27.31C52.0161 27.3767 52.1561 27.46 52.2794 27.56C52.4027 27.66 52.5011 27.7833 52.5744 27.93C52.6511 28.0733 52.6894 28.2467 52.6894 28.45C52.6894 28.6833 52.6477 28.9 52.5644 29.1C52.4811 29.2967 52.3577 29.4683 52.1944 29.615C52.0311 29.7583 51.8311 29.8717 51.5944 29.955C51.3577 30.0383 51.0844 30.08 50.7744 30.08C50.4211 30.08 50.1011 30.0233 49.8144 29.91C49.5277 29.7933 49.2844 29.645 49.0844 29.465L49.2944 29.125C49.3211 29.0817 49.3527 29.0483 49.3894 29.025C49.4261 29.0017 49.4744 28.99 49.5344 28.99C49.5944 28.99 49.6577 29.0133 49.7244 29.06C49.7911 29.1067 49.8711 29.1583 49.9644 29.215C50.0611 29.2717 50.1761 29.3233 50.3094 29.37C50.4461 29.4167 50.6161 29.44 50.8194 29.44C50.9927 29.44 51.1444 29.4183 51.2744 29.375C51.4044 29.3283 51.5127 29.2667 51.5994 29.19C51.6861 29.1133 51.7494 29.025 51.7894 28.925C51.8327 28.825 51.8544 28.7183 51.8544 28.605C51.8544 28.465 51.8161 28.35 51.7394 28.26C51.6661 28.1667 51.5677 28.0883 51.4444 28.025C51.3211 27.9583 51.1794 27.9017 51.0194 27.855C50.8627 27.805 50.7011 27.7533 50.5344 27.7C50.3711 27.6467 50.2094 27.5867 50.0494 27.52C49.8927 27.45 49.7527 27.3633 49.6294 27.26C49.5061 27.1567 49.4061 27.03 49.3294 26.88C49.2561 26.7267 49.2194 26.5417 49.2194 26.325C49.2194 26.1317 49.2594 25.9467 49.3394 25.77C49.4194 25.59 49.5361 25.4333 49.6894 25.3C49.8427 25.1633 50.0311 25.055 50.2544 24.975C50.4777 24.895 50.7327 24.855 51.0194 24.855C51.3527 24.855 51.6511 24.9083 51.9144 25.015C52.1811 25.1183 52.4111 25.2617 52.6044 25.445L52.4044 25.77ZM54.8304 24.935V30H53.9404V24.935H54.8304ZM55.0304 23.345C55.0304 23.4317 55.012 23.5133 54.9754 23.59C54.942 23.6633 54.8954 23.73 54.8354 23.79C54.7787 23.8467 54.712 23.8917 54.6354 23.925C54.5587 23.9583 54.477 23.975 54.3904 23.975C54.3037 23.975 54.222 23.9583 54.1454 23.925C54.072 23.8917 54.0054 23.8467 53.9454 23.79C53.8887 23.73 53.8437 23.6633 53.8104 23.59C53.777 23.5133 53.7604 23.4317 53.7604 23.345C53.7604 23.2583 53.777 23.1767 53.8104 23.1C53.8437 23.02 53.8887 22.9517 53.9454 22.895C54.0054 22.835 54.072 22.7883 54.1454 22.755C54.222 22.7217 54.3037 22.705 54.3904 22.705C54.477 22.705 54.5587 22.7217 54.6354 22.755C54.712 22.7883 54.7787 22.835 54.8354 22.895C54.8954 22.9517 54.942 23.02 54.9754 23.1C55.012 23.1767 55.0304 23.2583 55.0304 23.345ZM58.1039 24.85C58.3239 24.85 58.5289 24.875 58.7189 24.925C58.9123 24.9717 59.0873 25.0417 59.2439 25.135H60.6189V25.465C60.6189 25.575 60.5489 25.645 60.4089 25.675L59.8339 25.755C59.9473 25.9717 60.0039 26.2133 60.0039 26.48C60.0039 26.7267 59.9556 26.9517 59.8589 27.155C59.7656 27.355 59.6339 27.5267 59.4639 27.67C59.2973 27.8133 59.0973 27.9233 58.8639 28C58.6339 28.0767 58.3806 28.115 58.1039 28.115C57.8673 28.115 57.6439 28.0867 57.4339 28.03C57.3273 28.0967 57.2456 28.1683 57.1889 28.245C57.1356 28.3217 57.1089 28.3967 57.1089 28.47C57.1089 28.59 57.1573 28.6817 57.2539 28.745C57.3506 28.805 57.4789 28.8483 57.6389 28.875C57.7989 28.9017 57.9806 28.9183 58.1839 28.925C58.3873 28.9317 58.5939 28.9433 58.8039 28.96C59.0173 28.9733 59.2256 28.9983 59.4289 29.035C59.6323 29.0717 59.8139 29.1317 59.9739 29.215C60.1339 29.2983 60.2623 29.4133 60.3589 29.56C60.4556 29.7067 60.5039 29.8967 60.5039 30.13C60.5039 30.3467 60.4489 30.5567 60.3389 30.76C60.2323 30.9633 60.0773 31.1433 59.8739 31.3C59.6706 31.46 59.4223 31.5867 59.1289 31.68C58.8356 31.7767 58.5039 31.825 58.1339 31.825C57.7639 31.825 57.4389 31.7883 57.1589 31.715C56.8823 31.6417 56.6523 31.5433 56.4689 31.42C56.2856 31.2967 56.1473 31.1533 56.0539 30.99C55.9639 30.83 55.9189 30.6617 55.9189 30.485C55.9189 30.235 55.9973 30.0233 56.1539 29.85C56.3139 29.6733 56.5323 29.5333 56.8089 29.43C56.6656 29.3633 56.5506 29.275 56.4639 29.165C56.3806 29.0517 56.3389 28.9017 56.3389 28.715C56.3389 28.6417 56.3523 28.5667 56.3789 28.49C56.4056 28.41 56.4456 28.3317 56.4989 28.255C56.5556 28.1783 56.6239 28.105 56.7039 28.035C56.7839 27.965 56.8773 27.9033 56.9839 27.85C56.7339 27.71 56.5373 27.525 56.3939 27.295C56.2539 27.0617 56.1839 26.79 56.1839 26.48C56.1839 26.2333 56.2306 26.01 56.3239 25.81C56.4206 25.6067 56.5539 25.435 56.7239 25.295C56.8939 25.1517 57.0956 25.0417 57.3289 24.965C57.5656 24.8883 57.8239 24.85 58.1039 24.85ZM59.6839 30.275C59.6839 30.1483 59.6489 30.0467 59.5789 29.97C59.5089 29.8933 59.4139 29.835 59.2939 29.795C59.1739 29.7517 59.0356 29.72 58.8789 29.7C58.7223 29.68 58.5573 29.6667 58.3839 29.66C58.2106 29.65 58.0339 29.64 57.8539 29.63C57.6739 29.62 57.5023 29.6017 57.3389 29.575C57.1489 29.665 56.9939 29.775 56.8739 29.905C56.7573 30.035 56.6989 30.19 56.6989 30.37C56.6989 30.4833 56.7273 30.5883 56.7839 30.685C56.8439 30.785 56.9339 30.87 57.0539 30.94C57.1739 31.0133 57.3239 31.07 57.5039 31.11C57.6873 31.1533 57.9023 31.175 58.1489 31.175C58.3889 31.175 58.6039 31.1533 58.7939 31.11C58.9839 31.0667 59.1439 31.005 59.2739 30.925C59.4073 30.845 59.5089 30.75 59.5789 30.64C59.6489 30.53 59.6839 30.4083 59.6839 30.275ZM58.1039 27.525C58.2839 27.525 58.4423 27.5 58.5789 27.45C58.7189 27.4 58.8356 27.33 58.9289 27.24C59.0223 27.15 59.0923 27.0433 59.1389 26.92C59.1856 26.7933 59.2089 26.655 59.2089 26.505C59.2089 26.195 59.1139 25.9483 58.9239 25.765C58.7373 25.5817 58.4639 25.49 58.1039 25.49C57.7473 25.49 57.4739 25.5817 57.2839 25.765C57.0973 25.9483 57.0039 26.195 57.0039 26.505C57.0039 26.655 57.0273 26.7933 57.0739 26.92C57.1239 27.0433 57.1956 27.15 57.2889 27.24C57.3823 27.33 57.4973 27.4 57.6339 27.45C57.7706 27.5 57.9273 27.525 58.1039 27.525ZM61.5064 30V24.935H62.0364C62.163 24.935 62.243 24.9967 62.2764 25.12L62.3464 25.67C62.5664 25.4267 62.8114 25.23 63.0814 25.08C63.3547 24.93 63.6697 24.855 64.0264 24.855C64.303 24.855 64.5464 24.9017 64.7564 24.995C64.9697 25.085 65.1464 25.215 65.2864 25.385C65.4297 25.5517 65.538 25.7533 65.6114 25.99C65.6847 26.2267 65.7214 26.4883 65.7214 26.775V30H64.8314V26.775C64.8314 26.3917 64.743 26.095 64.5664 25.885C64.393 25.6717 64.1264 25.565 63.7664 25.565C63.503 25.565 63.2564 25.6283 63.0264 25.755C62.7997 25.8817 62.5897 26.0533 62.3964 26.27V30H61.5064ZM67.833 24.935V28.165C67.833 28.5483 67.9213 28.845 68.098 29.055C68.2747 29.265 68.5413 29.37 68.898 29.37C69.158 29.37 69.403 29.3083 69.633 29.185C69.863 29.0617 70.0747 28.89 70.268 28.67V24.935H71.158V30H70.628C70.5013 30 70.4213 29.9383 70.388 29.815L70.318 29.27C70.098 29.5133 69.8513 29.71 69.578 29.86C69.3047 30.0067 68.9913 30.08 68.638 30.08C68.3613 30.08 68.1163 30.035 67.903 29.945C67.693 29.8517 67.5163 29.7217 67.373 29.555C67.2297 29.3883 67.1213 29.1867 67.048 28.95C66.978 28.7133 66.943 28.4517 66.943 28.165V24.935H67.833ZM72.6196 31.715V24.935H73.1496C73.2763 24.935 73.3563 24.9967 73.3896 25.12L73.4646 25.72C73.6813 25.4567 73.928 25.245 74.2046 25.085C74.4846 24.925 74.8063 24.845 75.1696 24.845C75.4596 24.845 75.723 24.9017 75.9596 25.015C76.1963 25.125 76.398 25.29 76.5646 25.51C76.7313 25.7267 76.8596 25.9967 76.9496 26.32C77.0396 26.6433 77.0846 27.015 77.0846 27.435C77.0846 27.8083 77.0346 28.1567 76.9346 28.48C76.8346 28.8 76.6913 29.0783 76.5046 29.315C76.318 29.5483 76.088 29.7333 75.8146 29.87C75.5446 30.0033 75.2396 30.07 74.8996 30.07C74.5863 30.07 74.318 30.0183 74.0946 29.915C73.8746 29.8117 73.6796 29.665 73.5096 29.475V31.715H72.6196ZM74.8746 25.565C74.5846 25.565 74.3296 25.6317 74.1096 25.765C73.893 25.8983 73.693 26.0867 73.5096 26.33V28.78C73.673 29 73.8513 29.155 74.0446 29.245C74.2413 29.335 74.4596 29.38 74.6996 29.38C75.1696 29.38 75.5313 29.2117 75.7846 28.875C76.038 28.5383 76.1646 28.0583 76.1646 27.435C76.1646 27.105 76.1346 26.8217 76.0746 26.585C76.018 26.3483 75.9346 26.155 75.8246 26.005C75.7146 25.8517 75.5796 25.74 75.4196 25.67C75.2596 25.6 75.078 25.565 74.8746 25.565ZM77.8472 29.45C77.8472 29.3633 77.8622 29.2817 77.8922 29.205C77.9256 29.1283 77.9689 29.0617 78.0222 29.005C78.0789 28.9483 78.1456 28.9033 78.2222 28.87C78.2989 28.8367 78.3806 28.82 78.4672 28.82C78.5539 28.82 78.6356 28.8367 78.7122 28.87C78.7889 28.9033 78.8556 28.9483 78.9122 29.005C78.9689 29.0617 79.0122 29.1283 79.0422 29.205C79.0756 29.2817 79.0922 29.3633 79.0922 29.45C79.0922 29.54 79.0756 29.6233 79.0422 29.7C79.0122 29.7733 78.9689 29.8383 78.9122 29.895C78.8556 29.9517 78.7889 29.995 78.7122 30.025C78.6356 30.0583 78.5539 30.075 78.4672 30.075C78.3806 30.075 78.2989 30.0583 78.2222 30.025C78.1456 29.995 78.0789 29.9517 78.0222 29.895C77.9689 29.8383 77.9256 29.7733 77.8922 29.7C77.8622 29.6233 77.8472 29.54 77.8472 29.45ZM81.9614 24.85C82.1814 24.85 82.3864 24.875 82.5764 24.925C82.7697 24.9717 82.9447 25.0417 83.1014 25.135H84.4764V25.465C84.4764 25.575 84.4064 25.645 84.2664 25.675L83.6914 25.755C83.8047 25.9717 83.8614 26.2133 83.8614 26.48C83.8614 26.7267 83.813 26.9517 83.7164 27.155C83.623 27.355 83.4914 27.5267 83.3214 27.67C83.1547 27.8133 82.9547 27.9233 82.7214 28C82.4914 28.0767 82.238 28.115 81.9614 28.115C81.7247 28.115 81.5014 28.0867 81.2914 28.03C81.1847 28.0967 81.103 28.1683 81.0464 28.245C80.993 28.3217 80.9664 28.3967 80.9664 28.47C80.9664 28.59 81.0147 28.6817 81.1114 28.745C81.208 28.805 81.3364 28.8483 81.4964 28.875C81.6564 28.9017 81.838 28.9183 82.0414 28.925C82.2447 28.9317 82.4514 28.9433 82.6614 28.96C82.8747 28.9733 83.083 28.9983 83.2864 29.035C83.4897 29.0717 83.6714 29.1317 83.8314 29.215C83.9914 29.2983 84.1197 29.4133 84.2164 29.56C84.313 29.7067 84.3614 29.8967 84.3614 30.13C84.3614 30.3467 84.3064 30.5567 84.1964 30.76C84.0897 30.9633 83.9347 31.1433 83.7314 31.3C83.528 31.46 83.2797 31.5867 82.9864 31.68C82.693 31.7767 82.3614 31.825 81.9914 31.825C81.6214 31.825 81.2964 31.7883 81.0164 31.715C80.7397 31.6417 80.5097 31.5433 80.3264 31.42C80.143 31.2967 80.0047 31.1533 79.9114 30.99C79.8214 30.83 79.7764 30.6617 79.7764 30.485C79.7764 30.235 79.8547 30.0233 80.0114 29.85C80.1714 29.6733 80.3897 29.5333 80.6664 29.43C80.523 29.3633 80.408 29.275 80.3214 29.165C80.238 29.0517 80.1964 28.9017 80.1964 28.715C80.1964 28.6417 80.2097 28.5667 80.2364 28.49C80.263 28.41 80.303 28.3317 80.3564 28.255C80.413 28.1783 80.4814 28.105 80.5614 28.035C80.6414 27.965 80.7347 27.9033 80.8414 27.85C80.5914 27.71 80.3947 27.525 80.2514 27.295C80.1114 27.0617 80.0414 26.79 80.0414 26.48C80.0414 26.2333 80.088 26.01 80.1814 25.81C80.278 25.6067 80.4114 25.435 80.5814 25.295C80.7514 25.1517 80.953 25.0417 81.1864 24.965C81.423 24.8883 81.6814 24.85 81.9614 24.85ZM83.5414 30.275C83.5414 30.1483 83.5064 30.0467 83.4364 29.97C83.3664 29.8933 83.2714 29.835 83.1514 29.795C83.0314 29.7517 82.893 29.72 82.7364 29.7C82.5797 29.68 82.4147 29.6667 82.2414 29.66C82.068 29.65 81.8914 29.64 81.7114 29.63C81.5314 29.62 81.3597 29.6017 81.1964 29.575C81.0064 29.665 80.8514 29.775 80.7314 29.905C80.6147 30.035 80.5564 30.19 80.5564 30.37C80.5564 30.4833 80.5847 30.5883 80.6414 30.685C80.7014 30.785 80.7914 30.87 80.9114 30.94C81.0314 31.0133 81.1814 31.07 81.3614 31.11C81.5447 31.1533 81.7597 31.175 82.0064 31.175C82.2464 31.175 82.4614 31.1533 82.6514 31.11C82.8414 31.0667 83.0014 31.005 83.1314 30.925C83.2647 30.845 83.3664 30.75 83.4364 30.64C83.5064 30.53 83.5414 30.4083 83.5414 30.275ZM81.9614 27.525C82.1414 27.525 82.2997 27.5 82.4364 27.45C82.5764 27.4 82.693 27.33 82.7864 27.24C82.8797 27.15 82.9497 27.0433 82.9964 26.92C83.043 26.7933 83.0664 26.655 83.0664 26.505C83.0664 26.195 82.9714 25.9483 82.7814 25.765C82.5947 25.5817 82.3214 25.49 81.9614 25.49C81.6047 25.49 81.3314 25.5817 81.1414 25.765C80.9547 25.9483 80.8614 26.195 80.8614 26.505C80.8614 26.655 80.8847 26.7933 80.9314 26.92C80.9814 27.0433 81.053 27.15 81.1464 27.24C81.2397 27.33 81.3547 27.4 81.4914 27.45C81.628 27.5 81.7847 27.525 81.9614 27.525ZM87.3688 24.855C87.6721 24.855 87.9521 24.9067 88.2088 25.01C88.4655 25.11 88.6871 25.2567 88.8738 25.45C89.0605 25.64 89.2055 25.8767 89.3088 26.16C89.4155 26.44 89.4688 26.76 89.4688 27.12C89.4688 27.26 89.4538 27.3533 89.4238 27.4C89.3938 27.4467 89.3371 27.47 89.2538 27.47H85.8838C85.8905 27.79 85.9338 28.0683 86.0138 28.305C86.0938 28.5417 86.2038 28.74 86.3438 28.9C86.4838 29.0567 86.6505 29.175 86.8438 29.255C87.0371 29.3317 87.2538 29.37 87.4938 29.37C87.7171 29.37 87.9088 29.345 88.0688 29.295C88.2321 29.2417 88.3721 29.185 88.4888 29.125C88.6055 29.065 88.7021 29.01 88.7788 28.96C88.8588 28.9067 88.9271 28.88 88.9838 28.88C89.0571 28.88 89.1138 28.9083 89.1538 28.965L89.4038 29.29C89.2938 29.4233 89.1621 29.54 89.0088 29.64C88.8555 29.7367 88.6905 29.8167 88.5138 29.88C88.3405 29.9433 88.1605 29.99 87.9738 30.02C87.7871 30.0533 87.6021 30.07 87.4188 30.07C87.0688 30.07 86.7455 30.0117 86.4488 29.895C86.1555 29.775 85.9005 29.6017 85.6838 29.375C85.4705 29.145 85.3038 28.8617 85.1838 28.525C85.0638 28.1883 85.0038 27.8017 85.0038 27.365C85.0038 27.0117 85.0571 26.6817 85.1638 26.375C85.2738 26.0683 85.4305 25.8033 85.6338 25.58C85.8371 25.3533 86.0855 25.1767 86.3788 25.05C86.6721 24.92 87.0021 24.855 87.3688 24.855ZM87.3888 25.51C86.9588 25.51 86.6205 25.635 86.3738 25.885C86.1271 26.1317 85.9738 26.475 85.9138 26.915H88.6688C88.6688 26.7083 88.6405 26.52 88.5838 26.35C88.5271 26.1767 88.4438 26.0283 88.3338 25.905C88.2238 25.7783 88.0888 25.6817 87.9288 25.615C87.7721 25.545 87.5921 25.51 87.3888 25.51ZM92.1429 30.08C91.7429 30.08 91.4346 29.9683 91.2179 29.745C91.0046 29.5217 90.8979 29.2 90.8979 28.78V25.68H90.2879C90.2346 25.68 90.1896 25.665 90.1529 25.635C90.1163 25.6017 90.0979 25.5517 90.0979 25.485V25.13L90.9279 25.025L91.1329 23.46C91.1396 23.41 91.1613 23.37 91.1979 23.34C91.2346 23.3067 91.2813 23.29 91.3379 23.29H91.7879V25.035H93.2379V25.68H91.7879V28.72C91.7879 28.9333 91.8396 29.0917 91.9429 29.195C92.0463 29.2983 92.1796 29.35 92.3429 29.35C92.4363 29.35 92.5163 29.3383 92.5829 29.315C92.6529 29.2883 92.7129 29.26 92.7629 29.23C92.8129 29.2 92.8546 29.1733 92.8879 29.15C92.9246 29.1233 92.9563 29.11 92.9829 29.11C93.0296 29.11 93.0713 29.1383 93.1079 29.195L93.3679 29.62C93.2146 29.7633 93.0296 29.8767 92.8129 29.96C92.5963 30.04 92.3729 30.08 92.1429 30.08ZM94.3384 30V24.935H94.8684C94.9951 24.935 95.0751 24.9967 95.1084 25.12L95.1734 25.64C95.3601 25.41 95.5684 25.2217 95.7984 25.075C96.0317 24.9283 96.3017 24.855 96.6084 24.855C96.9517 24.855 97.2284 24.95 97.4384 25.14C97.6517 25.33 97.8051 25.5867 97.8984 25.91C97.9684 25.7267 98.0601 25.5683 98.1734 25.435C98.2901 25.3017 98.4201 25.1917 98.5634 25.105C98.7067 25.0183 98.8584 24.955 99.0184 24.915C99.1817 24.875 99.3467 24.855 99.5134 24.855C99.7801 24.855 100.017 24.8983 100.223 24.985C100.433 25.0683 100.61 25.1917 100.753 25.355C100.9 25.5183 101.012 25.72 101.088 25.96C101.165 26.1967 101.203 26.4683 101.203 26.775V30H100.313V26.775C100.313 26.3783 100.227 26.0783 100.053 25.875C99.8801 25.6683 99.6284 25.565 99.2984 25.565C99.1517 25.565 99.0117 25.5917 98.8784 25.645C98.7484 25.695 98.6334 25.77 98.5334 25.87C98.4334 25.97 98.3534 26.0967 98.2934 26.25C98.2367 26.4 98.2084 26.575 98.2084 26.775V30H97.3184V26.775C97.3184 26.3683 97.2367 26.065 97.0734 25.865C96.9101 25.665 96.6717 25.565 96.3584 25.565C96.1384 25.565 95.9334 25.625 95.7434 25.745C95.5567 25.8617 95.3851 26.0217 95.2284 26.225V30H94.3384ZM106.271 30H105.876C105.79 30 105.72 29.9867 105.666 29.96C105.613 29.9333 105.578 29.8767 105.561 29.79L105.461 29.32C105.328 29.44 105.198 29.5483 105.071 29.645C104.945 29.7383 104.811 29.8183 104.671 29.885C104.531 29.9483 104.381 29.9967 104.221 30.03C104.065 30.0633 103.89 30.08 103.696 30.08C103.5 30.08 103.315 30.0533 103.141 30C102.971 29.9433 102.823 29.86 102.696 29.75C102.57 29.64 102.468 29.5017 102.391 29.335C102.318 29.165 102.281 28.965 102.281 28.735C102.281 28.535 102.336 28.3433 102.446 28.16C102.556 27.9733 102.733 27.8083 102.976 27.665C103.223 27.5217 103.545 27.405 103.941 27.315C104.338 27.2217 104.823 27.1683 105.396 27.155V26.76C105.396 26.3667 105.311 26.07 105.141 25.87C104.975 25.6667 104.726 25.565 104.396 25.565C104.18 25.565 103.996 25.5933 103.846 25.65C103.7 25.7033 103.571 25.765 103.461 25.835C103.355 25.9017 103.261 25.9633 103.181 26.02C103.105 26.0733 103.028 26.1 102.951 26.1C102.891 26.1 102.838 26.085 102.791 26.055C102.748 26.0217 102.713 25.9817 102.686 25.935L102.526 25.65C102.806 25.38 103.108 25.1783 103.431 25.045C103.755 24.9117 104.113 24.845 104.506 24.845C104.79 24.845 105.041 24.8917 105.261 24.985C105.481 25.0783 105.666 25.2083 105.816 25.375C105.966 25.5417 106.08 25.7433 106.156 25.98C106.233 26.2167 106.271 26.4767 106.271 26.76V30ZM103.961 29.455C104.118 29.455 104.261 29.44 104.391 29.41C104.521 29.3767 104.643 29.3317 104.756 29.275C104.873 29.215 104.983 29.1433 105.086 29.06C105.193 28.9767 105.296 28.8817 105.396 28.775V27.72C104.986 27.7333 104.638 27.7667 104.351 27.82C104.065 27.87 103.831 27.9367 103.651 28.02C103.471 28.1033 103.34 28.2017 103.256 28.315C103.176 28.4283 103.136 28.555 103.136 28.695C103.136 28.8283 103.158 28.9433 103.201 29.04C103.245 29.1367 103.303 29.2167 103.376 29.28C103.45 29.34 103.536 29.385 103.636 29.415C103.736 29.4417 103.845 29.455 103.961 29.455ZM109.155 30.08C108.755 30.08 108.446 29.9683 108.23 29.745C108.016 29.5217 107.91 29.2 107.91 28.78V25.68H107.3C107.246 25.68 107.201 25.665 107.165 25.635C107.128 25.6017 107.11 25.5517 107.11 25.485V25.13L107.94 25.025L108.145 23.46C108.151 23.41 108.173 23.37 108.21 23.34C108.246 23.3067 108.293 23.29 108.35 23.29H108.8V25.035H110.25V25.68H108.8V28.72C108.8 28.9333 108.851 29.0917 108.955 29.195C109.058 29.2983 109.191 29.35 109.355 29.35C109.448 29.35 109.528 29.3383 109.595 29.315C109.665 29.2883 109.725 29.26 109.775 29.23C109.825 29.2 109.866 29.1733 109.9 29.15C109.936 29.1233 109.968 29.11 109.995 29.11C110.041 29.11 110.083 29.1383 110.12 29.195L110.38 29.62C110.226 29.7633 110.041 29.8767 109.825 29.96C109.608 30.04 109.385 30.08 109.155 30.08ZM112.34 24.935V30H111.45V24.935H112.34ZM112.54 23.345C112.54 23.4317 112.522 23.5133 112.485 23.59C112.452 23.6633 112.405 23.73 112.345 23.79C112.288 23.8467 112.222 23.8917 112.145 23.925C112.068 23.9583 111.987 23.975 111.9 23.975C111.813 23.975 111.732 23.9583 111.655 23.925C111.582 23.8917 111.515 23.8467 111.455 23.79C111.398 23.73 111.353 23.6633 111.32 23.59C111.287 23.5133 111.27 23.4317 111.27 23.345C111.27 23.2583 111.287 23.1767 111.32 23.1C111.353 23.02 111.398 22.9517 111.455 22.895C111.515 22.835 111.582 22.7883 111.655 22.755C111.732 22.7217 111.813 22.705 111.9 22.705C111.987 22.705 112.068 22.7217 112.145 22.755C112.222 22.7883 112.288 22.835 112.345 22.895C112.405 22.9517 112.452 23.02 112.485 23.1C112.522 23.1767 112.54 23.2583 112.54 23.345ZM113.619 29.45C113.619 29.3633 113.634 29.2817 113.664 29.205C113.697 29.1283 113.74 29.0617 113.794 29.005C113.85 28.9483 113.917 28.9033 113.994 28.87C114.07 28.8367 114.152 28.82 114.239 28.82C114.325 28.82 114.407 28.8367 114.484 28.87C114.56 28.9033 114.627 28.9483 114.684 29.005C114.74 29.0617 114.784 29.1283 114.814 29.205C114.847 29.2817 114.864 29.3633 114.864 29.45C114.864 29.54 114.847 29.6233 114.814 29.7C114.784 29.7733 114.74 29.8383 114.684 29.895C114.627 29.9517 114.56 29.995 114.484 30.025C114.407 30.0583 114.325 30.075 114.239 30.075C114.152 30.075 114.07 30.0583 113.994 30.025C113.917 29.995 113.85 29.9517 113.794 29.895C113.74 29.8383 113.697 29.7733 113.664 29.7C113.634 29.6233 113.619 29.54 113.619 29.45ZM119.483 25.835C119.456 25.8717 119.43 25.9 119.403 25.92C119.376 25.94 119.338 25.95 119.288 25.95C119.238 25.95 119.183 25.93 119.123 25.89C119.066 25.8467 118.993 25.8 118.903 25.75C118.813 25.7 118.703 25.655 118.573 25.615C118.446 25.5717 118.29 25.55 118.103 25.55C117.856 25.55 117.638 25.595 117.448 25.685C117.258 25.7717 117.098 25.8983 116.968 26.065C116.841 26.2317 116.745 26.4333 116.678 26.67C116.615 26.9067 116.583 27.1717 116.583 27.465C116.583 27.7717 116.618 28.045 116.688 28.285C116.758 28.5217 116.856 28.7217 116.983 28.885C117.11 29.045 117.263 29.1683 117.443 29.255C117.626 29.3383 117.831 29.38 118.058 29.38C118.275 29.38 118.453 29.355 118.593 29.305C118.733 29.2517 118.85 29.1933 118.943 29.13C119.036 29.0667 119.113 29.01 119.173 28.96C119.233 28.9067 119.293 28.88 119.353 28.88C119.43 28.88 119.486 28.9083 119.523 28.965L119.773 29.29C119.553 29.56 119.278 29.7583 118.948 29.885C118.618 30.0083 118.27 30.07 117.903 30.07C117.586 30.07 117.291 30.0117 117.018 29.895C116.748 29.7783 116.513 29.61 116.313 29.39C116.113 29.1667 115.955 28.8933 115.838 28.57C115.725 28.2467 115.668 27.8783 115.668 27.465C115.668 27.0883 115.72 26.74 115.823 26.42C115.93 26.1 116.083 25.825 116.283 25.595C116.486 25.3617 116.736 25.18 117.033 25.05C117.33 24.92 117.67 24.855 118.053 24.855C118.406 24.855 118.72 24.9133 118.993 25.03C119.266 25.1433 119.508 25.305 119.718 25.515L119.483 25.835ZM122.746 24.855C123.116 24.855 123.449 24.9167 123.746 25.04C124.046 25.1633 124.299 25.3383 124.506 25.565C124.716 25.7917 124.876 26.0667 124.986 26.39C125.099 26.71 125.156 27.0683 125.156 27.465C125.156 27.865 125.099 28.225 124.986 28.545C124.876 28.865 124.716 29.1383 124.506 29.365C124.299 29.5917 124.046 29.7667 123.746 29.89C123.449 30.01 123.116 30.07 122.746 30.07C122.376 30.07 122.041 30.01 121.741 29.89C121.444 29.7667 121.191 29.5917 120.981 29.365C120.771 29.1383 120.609 28.865 120.496 28.545C120.382 28.225 120.326 27.865 120.326 27.465C120.326 27.0683 120.382 26.71 120.496 26.39C120.609 26.0667 120.771 25.7917 120.981 25.565C121.191 25.3383 121.444 25.1633 121.741 25.04C122.041 24.9167 122.376 24.855 122.746 24.855ZM122.746 29.375C123.246 29.375 123.619 29.2083 123.866 28.875C124.112 28.5383 124.236 28.07 124.236 27.47C124.236 26.8667 124.112 26.3967 123.866 26.06C123.619 25.7233 123.246 25.555 122.746 25.555C122.492 25.555 122.272 25.5983 122.086 25.685C121.899 25.7717 121.742 25.8967 121.616 26.06C121.492 26.2233 121.399 26.425 121.336 26.665C121.276 26.9017 121.246 27.17 121.246 27.47C121.246 27.77 121.276 28.0383 121.336 28.275C121.399 28.5117 121.492 28.7117 121.616 28.875C121.742 29.035 121.899 29.1583 122.086 29.245C122.272 29.3317 122.492 29.375 122.746 29.375ZM126.252 30V24.935H126.782C126.909 24.935 126.989 24.9967 127.022 25.12L127.087 25.64C127.274 25.41 127.482 25.2217 127.712 25.075C127.946 24.9283 128.216 24.855 128.522 24.855C128.866 24.855 129.142 24.95 129.352 25.14C129.566 25.33 129.719 25.5867 129.812 25.91C129.882 25.7267 129.974 25.5683 130.087 25.435C130.204 25.3017 130.334 25.1917 130.477 25.105C130.621 25.0183 130.772 24.955 130.932 24.915C131.096 24.875 131.261 24.855 131.427 24.855C131.694 24.855 131.931 24.8983 132.137 24.985C132.347 25.0683 132.524 25.1917 132.667 25.355C132.814 25.5183 132.926 25.72 133.002 25.96C133.079 26.1967 133.117 26.4683 133.117 26.775V30H132.227V26.775C132.227 26.3783 132.141 26.0783 131.967 25.875C131.794 25.6683 131.542 25.565 131.212 25.565C131.066 25.565 130.926 25.5917 130.792 25.645C130.662 25.695 130.547 25.77 130.447 25.87C130.347 25.97 130.267 26.0967 130.207 26.25C130.151 26.4 130.122 26.575 130.122 26.775V30H129.232V26.775C129.232 26.3683 129.151 26.065 128.987 25.865C128.824 25.665 128.586 25.565 128.272 25.565C128.052 25.565 127.847 25.625 127.657 25.745C127.471 25.8617 127.299 26.0217 127.142 26.225V30H126.252ZM134.54 30.105C134.494 30.2217 134.424 30.3083 134.33 30.365C134.24 30.4217 134.147 30.45 134.05 30.45H133.675L136.68 22.965C136.724 22.8583 136.785 22.7767 136.865 22.72C136.945 22.6633 137.04 22.635 137.15 22.635H137.525L134.54 30.105ZM136.949 29.45C136.949 29.3633 136.964 29.2817 136.994 29.205C137.027 29.1283 137.07 29.0617 137.124 29.005C137.18 28.9483 137.247 28.9033 137.324 28.87C137.4 28.8367 137.482 28.82 137.569 28.82C137.655 28.82 137.737 28.8367 137.814 28.87C137.89 28.9033 137.957 28.9483 138.014 29.005C138.07 29.0617 138.114 29.1283 138.144 29.205C138.177 29.2817 138.194 29.3633 138.194 29.45C138.194 29.54 138.177 29.6233 138.144 29.7C138.114 29.7733 138.07 29.8383 138.014 29.895C137.957 29.9517 137.89 29.995 137.814 30.025C137.737 30.0583 137.655 30.075 137.569 30.075C137.482 30.075 137.4 30.0583 137.324 30.025C137.247 29.995 137.18 29.9517 137.124 29.895C137.07 29.8383 137.027 29.7733 136.994 29.7C136.964 29.6233 136.949 29.54 136.949 29.45ZM139.068 29.45C139.068 29.3633 139.083 29.2817 139.113 29.205C139.146 29.1283 139.19 29.0617 139.243 29.005C139.3 28.9483 139.366 28.9033 139.443 28.87C139.52 28.8367 139.601 28.82 139.688 28.82C139.775 28.82 139.856 28.8367 139.933 28.87C140.01 28.9033 140.076 28.9483 140.133 29.005C140.19 29.0617 140.233 29.1283 140.263 29.205C140.296 29.2817 140.313 29.3633 140.313 29.45C140.313 29.54 140.296 29.6233 140.263 29.7C140.233 29.7733 140.19 29.8383 140.133 29.895C140.076 29.9517 140.01 29.995 139.933 30.025C139.856 30.0583 139.775 30.075 139.688 30.075C139.601 30.075 139.52 30.0583 139.443 30.025C139.366 29.995 139.3 29.9517 139.243 29.895C139.19 29.8383 139.146 29.7733 139.113 29.7C139.083 29.6233 139.068 29.54 139.068 29.45ZM141.187 29.45C141.187 29.3633 141.202 29.2817 141.232 29.205C141.265 29.1283 141.309 29.0617 141.362 29.005C141.419 28.9483 141.485 28.9033 141.562 28.87C141.639 28.8367 141.72 28.82 141.807 28.82C141.894 28.82 141.975 28.8367 142.052 28.87C142.129 28.9033 142.195 28.9483 142.252 29.005C142.309 29.0617 142.352 29.1283 142.382 29.205C142.415 29.2817 142.432 29.3633 142.432 29.45C142.432 29.54 142.415 29.6233 142.382 29.7C142.352 29.7733 142.309 29.8383 142.252 29.895C142.195 29.9517 142.129 29.995 142.052 30.025C141.975 30.0583 141.894 30.075 141.807 30.075C141.72 30.075 141.639 30.0583 141.562 30.025C141.485 29.995 141.419 29.9517 141.362 29.895C141.309 29.8383 141.265 29.7733 141.232 29.7C141.202 29.6233 141.187 29.54 141.187 29.45Z" fill="#507DED"/>
<path d="M17.1338 31H142.867V31.6H17.1338V31Z" fill="#507DED"/>
<defs>
<filter id="filter0_d" x="0" y="0" width="160" height="60" filterUnits="userSpaceOnUse" color-interpolation-filters="sRGB">
<feFlood flood-opacity="0" result="BackgroundImageFix"/>
<feColorMatrix in="SourceAlpha" type="matrix" values="0 0 0 0 0 0 0 0 0 0 0 0 0 0 0 0 0 0 127 0"/>
<feOffset dy="4"/>
<feGaussianBlur stdDeviation="7"/>
<feColorMatrix type="matrix" values="0 0 0 0 0 0 0 0 0 0 0 0 0 0 0 0 0 0 0.05 0"/>
<feBlend mode="normal" in2="BackgroundImageFix" result="effect1_dropShadow"/>
<feBlend mode="normal" in="SourceGraphic" in2="effect1_dropShadow" result="shape"/>
</filter>
</defs>
</svg>
