<svg width="172" height="70" viewBox="0 0 172 70" fill="none" xmlns="http://www.w3.org/2000/svg">
<g filter="url(#filter0_d)">
<path d="M20 18.9864C20 17.3371 21.3371 16 22.9864 16H149.014C150.663 16 152 17.3371 152 18.9864V42.8778C152 44.5272 150.663 45.8643 149.014 45.8643H22.9864C21.3371 45.8643 20 44.5272 20 42.8778V18.9864Z" fill="#507DED"/>
<path d="M84.8216 28.5119L82.3799 34.5158H81.5813L79.1396 28.5119H79.8504C79.9285 28.5119 79.9912 28.5314 80.0386 28.5704C80.0887 28.6094 80.1264 28.6596 80.1514 28.7209L81.7737 32.8016C81.8127 32.9019 81.8503 33.012 81.8866 33.1319C81.9256 33.2517 81.9604 33.3772 81.9911 33.5082C82.019 33.3772 82.0496 33.2517 82.0831 33.1319C82.1165 33.012 82.1528 32.9019 82.1918 32.8016L83.8098 28.7209C83.8293 28.6652 83.8642 28.6164 83.9143 28.5746C83.9673 28.5328 84.0314 28.5119 84.1067 28.5119H84.8216Z" fill="white"/>
<path d="M87.5808 31.9194C87.5808 31.7577 87.5571 31.6086 87.5097 31.472C87.4651 31.3354 87.3982 31.217 87.3091 31.1166C87.2199 31.0163 87.1112 30.9382 86.9829 30.8825C86.8547 30.8268 86.707 30.7989 86.5397 30.7989C86.1969 30.7989 85.9265 30.8978 85.7286 31.0957C85.5335 31.2936 85.4095 31.5682 85.3565 31.9194H87.5808ZM88.254 33.9095C88.1536 34.0266 88.0379 34.1283 87.9069 34.2148C87.7759 34.2984 87.6366 34.3667 87.4888 34.4196C87.3411 34.4726 87.1878 34.5116 87.0289 34.5367C86.8728 34.5618 86.7181 34.5743 86.5648 34.5743C86.2722 34.5743 86.0004 34.5255 85.7495 34.428C85.5015 34.3276 85.2854 34.1827 85.1015 33.9932C84.9203 33.8008 84.7782 33.5639 84.675 33.2824C84.5747 32.9981 84.5245 32.672 84.5245 32.304C84.5245 32.0086 84.5705 31.734 84.6625 31.4804C84.7545 31.2239 84.8855 31.001 85.0555 30.8114C85.2283 30.6219 85.4388 30.4728 85.6868 30.3641C85.9349 30.2553 86.2136 30.201 86.523 30.201C86.7822 30.201 87.0206 30.2442 87.238 30.3306C87.4582 30.4142 87.6477 30.5369 87.8066 30.6985C87.9655 30.8602 88.0895 31.0595 88.1787 31.2964C88.2707 31.5333 88.3167 31.8037 88.3167 32.1075C88.3167 32.233 88.3027 32.318 88.2749 32.3626C88.247 32.4044 88.1954 32.4253 88.1202 32.4253H85.3356C85.344 32.6789 85.3802 32.9005 85.4443 33.0901C85.5084 33.2768 85.5962 33.4329 85.7077 33.5583C85.822 33.6838 85.9572 33.7771 86.1133 33.8385C86.2694 33.8998 86.4436 33.9304 86.6359 33.9304C86.8171 33.9304 86.9732 33.9095 87.1042 33.8677C87.238 33.8259 87.3523 33.7813 87.447 33.7339C87.5446 33.6838 87.6254 33.6378 87.6895 33.596C87.7564 33.5542 87.815 33.5332 87.8651 33.5332C87.932 33.5332 87.9836 33.5583 88.0198 33.6085L88.254 33.9095Z" fill="white"/>
<path d="M89.9623 31.0832C90.0989 30.8045 90.2633 30.5856 90.4556 30.4268C90.648 30.2679 90.8793 30.1885 91.1497 30.1885C91.2417 30.1885 91.3281 30.1996 91.4089 30.2219C91.4925 30.2414 91.565 30.2721 91.6263 30.3139L91.572 30.9285C91.5525 31.0037 91.5065 31.0414 91.434 31.0414C91.395 31.0414 91.3364 31.0344 91.2584 31.0205C91.1803 31.0037 91.0967 30.9954 91.0075 30.9954C90.8765 30.9954 90.7609 31.0149 90.6605 31.0539C90.5602 31.0902 90.4696 31.1459 90.3887 31.2212C90.3107 31.2936 90.241 31.3842 90.1797 31.4929C90.1184 31.5988 90.0612 31.7201 90.0083 31.8567V34.5158H89.193V30.2679H89.6613C89.7504 30.2679 89.8104 30.2846 89.841 30.3181C89.8745 30.3487 89.8982 30.4045 89.9121 30.4853L89.9623 31.0832Z" fill="white"/>
<path d="M93.1082 30.2679V34.5158H92.2929V30.2679H93.1082ZM93.2629 28.9551C93.2629 29.0303 93.2475 29.1028 93.2169 29.1725C93.1862 29.2394 93.1444 29.2993 93.0914 29.3523C93.0413 29.4024 92.9813 29.4428 92.9117 29.4735C92.842 29.5014 92.7695 29.5153 92.6942 29.5153C92.619 29.5153 92.5479 29.5014 92.481 29.4735C92.4141 29.4428 92.3542 29.4024 92.3012 29.3523C92.2511 29.2993 92.2106 29.2394 92.18 29.1725C92.1521 29.1028 92.1382 29.0303 92.1382 28.9551C92.1382 28.877 92.1521 28.8045 92.18 28.7376C92.2106 28.668 92.2511 28.608 92.3012 28.5579C92.3542 28.5049 92.4141 28.4645 92.481 28.4366C92.5479 28.406 92.619 28.3906 92.6942 28.3906C92.7695 28.3906 92.842 28.406 92.9117 28.4366C92.9813 28.4645 93.0413 28.5049 93.0914 28.5579C93.1444 28.608 93.1862 28.668 93.2169 28.7376C93.2475 28.8045 93.2629 28.877 93.2629 28.9551Z" fill="white"/>
<path d="M94.5687 34.5158V30.9369L94.1255 30.8825C94.0614 30.8686 94.0084 30.8463 93.9666 30.8156C93.9276 30.7822 93.9081 30.7348 93.9081 30.6734V30.3348H94.5687V29.9501C94.5687 29.7076 94.6035 29.4916 94.6732 29.3021C94.7429 29.1125 94.8419 28.9523 94.9701 28.8213C95.1011 28.6875 95.2572 28.5871 95.4383 28.5202C95.6223 28.4506 95.8286 28.4157 96.0571 28.4157C96.2495 28.4157 96.4265 28.4436 96.5881 28.4993L96.5714 28.9091C96.5686 28.9453 96.5575 28.9732 96.5379 28.9927C96.5184 29.0094 96.492 29.022 96.4585 29.0303C96.4278 29.0387 96.3888 29.0443 96.3414 29.047C96.2968 29.047 96.2481 29.047 96.1951 29.047C96.0697 29.047 95.9554 29.0624 95.8523 29.093C95.7491 29.1237 95.6613 29.1753 95.5889 29.2477C95.5164 29.3202 95.4606 29.4164 95.4216 29.5362C95.3826 29.6533 95.3631 29.7996 95.3631 29.9752V30.3348H96.5547V30.9285H95.3882V34.5158H94.5687Z" fill="white"/>
<path d="M100.949 30.2679L98.5911 35.7492C98.5661 35.8105 98.5326 35.8579 98.4908 35.8913C98.449 35.9248 98.3877 35.9415 98.3068 35.9415H97.7006L98.4783 34.2482L96.7348 30.2679H97.4455C97.5152 30.2679 97.5696 30.2846 97.6086 30.3181C97.6476 30.3515 97.6755 30.3891 97.6922 30.431L98.7709 32.9814C98.7932 33.0455 98.8141 33.111 98.8336 33.1779C98.8559 33.242 98.8741 33.3061 98.888 33.3702C98.9075 33.3033 98.9284 33.2378 98.9507 33.1737C98.973 33.1068 98.9967 33.0413 99.0218 32.9772L100.063 30.431C100.082 30.3836 100.113 30.3445 100.155 30.3139C100.197 30.2832 100.244 30.2679 100.297 30.2679H100.949Z" fill="white"/>
<path d="M103.483 34.5158V30.2679H103.973C104.087 30.2679 104.158 30.3222 104.186 30.431L104.244 30.8365C104.401 30.6498 104.573 30.4978 104.763 30.3808C104.955 30.2609 105.18 30.201 105.436 30.201C105.718 30.201 105.946 30.279 106.122 30.4351C106.297 30.5884 106.426 30.7975 106.506 31.0623C106.568 30.9118 106.647 30.7822 106.745 30.6734C106.842 30.5647 106.951 30.4755 107.071 30.4059C107.191 30.3362 107.317 30.2846 107.451 30.2512C107.588 30.2177 107.726 30.201 107.865 30.201C108.091 30.201 108.292 30.2372 108.467 30.3097C108.646 30.3794 108.796 30.4825 108.919 30.6191C109.041 30.7557 109.135 30.9243 109.199 31.125C109.263 31.3257 109.295 31.5542 109.295 31.8107V34.5158H108.476V31.8107C108.476 31.4929 108.406 31.2532 108.267 31.0915C108.13 30.9299 107.929 30.8491 107.664 30.8491C107.547 30.8491 107.436 30.87 107.33 30.9118C107.224 30.9508 107.131 31.0107 107.05 31.0915C106.972 31.1724 106.909 31.2727 106.862 31.3926C106.817 31.5124 106.795 31.6518 106.795 31.8107V34.5158H105.975V31.8107C105.975 31.4818 105.91 31.2393 105.779 31.0832C105.648 30.9271 105.456 30.8491 105.202 30.8491C105.026 30.8491 104.863 30.895 104.713 30.987C104.562 31.079 104.424 31.2044 104.299 31.3633V34.5158H103.483Z" fill="white"/>
<path d="M113.206 31.9194C113.206 31.7577 113.182 31.6086 113.135 31.472C113.09 31.3354 113.023 31.217 112.934 31.1166C112.845 31.0163 112.736 30.9382 112.608 30.8825C112.48 30.8268 112.332 30.7989 112.165 30.7989C111.822 30.7989 111.551 30.8978 111.354 31.0957C111.158 31.2936 111.034 31.5682 110.981 31.9194H113.206ZM113.879 33.9095C113.779 34.0266 113.663 34.1283 113.532 34.2148C113.401 34.2984 113.261 34.3667 113.114 34.4196C112.966 34.4726 112.813 34.5116 112.654 34.5367C112.498 34.5618 112.343 34.5743 112.19 34.5743C111.897 34.5743 111.625 34.5255 111.374 34.428C111.126 34.3276 110.91 34.1827 110.726 33.9932C110.545 33.8008 110.403 33.5639 110.3 33.2824C110.2 32.9981 110.149 32.672 110.149 32.304C110.149 32.0086 110.195 31.734 110.287 31.4804C110.379 31.2239 110.51 31.001 110.68 30.8114C110.853 30.6219 111.064 30.4728 111.312 30.3641C111.56 30.2553 111.839 30.201 112.148 30.201C112.407 30.201 112.645 30.2442 112.863 30.3306C113.083 30.4142 113.273 30.5369 113.432 30.6985C113.59 30.8602 113.714 31.0595 113.804 31.2964C113.896 31.5333 113.942 31.8037 113.942 32.1075C113.942 32.233 113.928 32.318 113.9 32.3626C113.872 32.4044 113.82 32.4253 113.745 32.4253H110.961C110.969 32.6789 111.005 32.9005 111.069 33.0901C111.133 33.2768 111.221 33.4329 111.333 33.5583C111.447 33.6838 111.582 33.7771 111.738 33.8385C111.894 33.8998 112.069 33.9304 112.261 33.9304C112.442 33.9304 112.598 33.9095 112.729 33.8677C112.863 33.8259 112.977 33.7813 113.072 33.7339C113.17 33.6838 113.25 33.6378 113.314 33.596C113.381 33.5542 113.44 33.5332 113.49 33.5332C113.557 33.5332 113.609 33.5583 113.645 33.6085L113.879 33.9095Z" fill="white"/>
<path d="M20 18.9864C20 17.3371 21.3371 16 22.9864 16H49.8643V45.8643H22.9864C21.3371 45.8643 20 44.5272 20 42.8778V18.9864Z" fill="white"/>
<path d="M40.7607 30.7291C40.8343 30.4532 40.9078 30.1313 40.9323 29.7864C40.9323 30.0853 40.871 30.4072 40.7607 30.7291Z" fill="#00AB62"/>
<path d="M30.1094 32.4077C30.0114 32.0628 29.9746 31.7294 29.9746 31.4189C30.0114 32.0053 30.1094 32.3847 30.1094 32.4077Z" fill="#00B4FF"/>
<path d="M30.1094 32.4074C30.0972 32.3844 29.9991 32.005 29.9746 31.4187V31.4072C29.9746 31.0853 30.0114 30.7863 30.0849 30.4989C29.9624 31.4762 30.0972 32.3384 30.1094 32.4074Z" fill="#706766"/>
<path d="M31.9043 34.0433C31.5332 34.903 31.1837 35.8624 30.9708 36.4701C30.8426 36.8362 30.4774 37.0871 30.0637 37.0871C29.6995 37.0871 29.5883 36.8073 29.9278 36.6843C30.0208 36.6507 30.0875 36.6303 30.0968 36.6275C30.0978 36.6272 30.098 36.6272 30.099 36.6268C30.1298 36.6159 30.8301 36.3215 30.1225 32.4077C31.3113 32.9826 31.7327 33.1811 31.9043 34.0433Z" fill="#FFC766"/>
<path d="M30.1094 32.4077C30.0114 32.0628 29.9746 31.7294 29.9746 31.4189C30.0114 32.0053 30.1094 32.3847 30.1094 32.4077Z" fill="#FFA200"/>
<path d="M32.6964 32.6835C31.9488 32.649 31.022 32.705 30.1104 32.4076C30.1471 32.3386 30.7468 31.0279 31.5434 29.4528C31.9234 29.3148 32.4257 29.1542 33.0131 29.3727C33.0131 29.3727 33.0022 29.3853 33.039 29.3968C33.1865 30.4582 33.0126 31.5981 32.6964 32.6835Z" fill="#EA6766"/>
<path d="M32.6964 32.6836C32.5003 33.4425 32.2307 34.1553 31.9733 34.7646C31.7894 33.9023 31.2992 32.9711 30.1104 32.4077C31.0908 32.5687 31.9488 32.6492 32.6964 32.6836Z" fill="#EA6766"/>
<path d="M33.5165 32.7066C33.2369 34.5052 32.9085 36.2733 32.6174 36.9971C32.5272 37.2215 32.2859 37.3169 32.0285 37.3169H31.9395C31.5888 37.3169 31.3001 37.2101 31.5821 37.016C31.6852 36.9451 31.9528 36.7243 31.9752 36.6068C32.0375 36.2804 32.1351 35.5538 31.9722 34.7646C32.2296 34.1552 32.4993 33.4424 32.6954 32.6836C32.9895 32.7066 33.2591 32.7066 33.5165 32.7066Z" fill="#EA6766"/>
<path d="M34.1772 27.8527C33.9566 27.8067 33.7605 27.7722 33.5644 27.7492C33.2702 27.7147 33.0006 27.7147 32.7555 27.7262C32.7555 27.7262 32.7555 27.7377 32.7677 27.7377C32.9638 28.1056 34.0669 28.738 34.0669 28.738C34.0669 29.4968 33.2326 29.4076 33.0119 29.3846C33.0855 30.5113 32.9581 31.6928 32.6885 32.716C32.9826 32.7275 33.5164 32.7135 33.7738 32.702C34.1415 30.2991 34.1895 27.8527 34.1772 27.8527C34.1895 27.8527 34.1895 27.8527 34.1772 27.8527Z" fill="#EA6766"/>
<path d="M31.5558 29.4529C30.7591 31.028 30.1463 32.3387 30.1096 32.4077C30.1096 32.2927 30.0605 30.0162 31.5558 29.4529Z" fill="#EA6766"/>
<path d="M32.7569 27.7055C32.6466 27.717 32.5363 27.7285 32.4382 27.74C32.4995 27.6136 32.5731 27.4871 32.6466 27.3491C32.6834 27.4411 32.7569 27.6825 32.7569 27.7055Z" fill="#706766"/>
<path d="M32.6465 27.3491C32.573 27.4756 32.5117 27.6021 32.4381 27.74C32.2543 27.763 32.0705 27.809 31.9111 27.8665C32.3278 27.5331 32.6465 27.3491 32.6465 27.3491Z" fill="#706766"/>
<path d="M34.0687 28.7172C34.0687 29.476 33.2327 29.4075 33.0121 29.3845C32.9754 28.8097 32.9411 28.2803 32.7695 27.7169C32.9534 28.0848 34.0687 28.7172 34.0687 28.7172Z" fill="#706766"/>
<path d="M31.9114 27.8666C31.2618 28.3839 30.3916 29.2922 30.0852 30.5109C30.22 29.4647 30.6612 28.292 31.9114 27.8666Z" fill="#706766"/>
<path d="M32.4381 27.7399C32.1317 28.3147 31.8375 28.9011 31.5556 29.453C30.0481 30.0163 30.1094 32.2928 30.1094 32.4077C30.0971 32.3388 29.9623 31.4765 30.0726 30.5107C30.379 29.2805 31.2615 28.3837 31.8988 27.8663C32.0704 27.8089 32.2542 27.7629 32.4381 27.7399Z" fill="#706766"/>
<path d="M33.0126 29.385C32.9758 29.385 32.9737 29.385 32.9737 29.385C32.3854 29.2471 31.9361 29.3037 31.5562 29.4417C31.838 28.8898 32.1322 28.3034 32.4386 27.7286C32.5366 27.7171 32.647 27.7056 32.7573 27.6941C32.7573 27.6941 32.7573 27.7056 32.7695 27.7056C32.9411 28.2804 32.9758 28.8217 33.0126 29.385Z" fill="#706766"/>
<path d="M39.502 34.781C39.5722 34.9423 39.5887 35.122 39.5317 35.2878L39.0667 36.6416C38.9732 36.9137 38.7015 37.0984 38.3946 37.0984H38.3232C37.8588 37.0984 37.704 36.7759 38.1311 36.6062C38.1853 36.5846 38.2193 36.5726 38.2193 36.5726C38.2193 36.5726 39.1013 35.4557 37.3778 33.5228C36.9365 33.1204 36.6424 32.626 36.4463 32.0971C36.7282 31.9362 36.9576 31.7139 37.1169 31.5184C37.166 31.6104 37.2506 31.6967 37.2723 31.7957C37.2846 31.8072 37.3112 31.8209 37.3112 31.8439C37.5808 32.2348 37.9194 32.5954 38.3729 32.9289C38.7161 33.1818 38.9802 33.4354 39.1886 33.6883C39.2484 34.1372 39.396 34.5372 39.502 34.781Z" fill="#CAEE66"/>
<path d="M37.0956 31.5338C37.1446 31.6258 37.2059 31.7063 37.2549 31.7982C37.2059 31.7063 37.1446 31.6258 37.0956 31.5338C36.7769 31.0049 36.5563 30.3726 36.4583 29.6138C36.544 30.2231 36.7279 30.89 37.0956 31.5338Z" fill="#A6E200"/>
<path d="M40.7492 30.7405C40.6512 31.0509 40.5531 31.2808 40.5164 31.3613C40.5531 31.2119 40.6144 31.0624 40.6757 30.9129C40.7125 30.8555 40.737 30.798 40.7492 30.7405Z" fill="#A6E200"/>
<path d="M40.919 29.7748C40.8822 28.4757 39.6689 27.4294 37.5608 27.4524C37.6098 27.4524 37.6588 27.4524 37.7079 27.4524C37.7814 27.4524 37.8549 27.4524 37.9407 27.4524C38.4923 27.4524 38.9457 27.5214 39.3134 27.6249H39.3257C40.6616 28.0043 40.9558 28.9355 40.919 29.7748Z" fill="#A6E200"/>
<path d="M41.0572 34.5663C41.1501 34.7259 41.1895 34.9113 41.1478 35.0886L40.7461 36.8004C40.6752 37.1021 40.3884 37.3171 40.0567 37.3171H39.8134C39.3658 37.3171 39.2324 37.0279 39.653 36.8855C39.6632 36.882 39.6688 36.8802 39.6688 36.8802C39.6688 36.8802 41.2526 36.2443 39.1785 33.7478C39.1663 33.6559 39.1785 33.5115 39.1785 33.4196C39.7301 33.707 40.2939 33.8909 40.7841 34.0174C40.8801 34.2453 40.9788 34.4317 41.0572 34.5663Z" fill="#66AA66"/>
<path d="M39.2774 33.912C38.9951 33.3864 38.701 33.1896 38.37 32.9366C37.9166 32.6032 37.5734 32.2238 37.2915 31.8329C37.8063 32.5572 38.9246 32.828 39.179 33.431C39.179 33.523 40.1947 34.8975 39.2774 33.912Z" fill="#66AA66"/>
<path d="M40.7713 34.0173C40.2811 33.8908 39.7173 33.7069 39.1658 33.4194C39.1658 32.7181 39.4477 31.9133 40.5017 31.3844C40.5017 31.3844 40.5017 31.3729 40.514 31.3615C40.2198 32.3962 40.4894 33.3735 40.7713 34.0173Z" fill="#66AA66"/>
<path d="M40.9192 29.7748C40.9069 30.1312 40.8334 30.4532 40.7476 30.7291C40.7476 30.7291 40.7476 30.7291 40.7476 30.7406C40.7231 30.7981 40.6986 30.8556 40.6741 30.913C40.6005 31.0625 40.5515 31.212 40.5147 31.3614C40.5025 31.3844 40.5025 31.3844 40.5025 31.3844C39.4484 31.9133 39.1665 32.7181 39.1788 33.4309C38.4924 33.0745 37.8061 32.5686 37.2913 31.8328C37.2791 31.8213 37.2668 31.8098 37.2668 31.7868C37.2055 31.7064 37.1565 31.6144 37.1075 31.5224C38.2596 30.0048 36.5078 27.5524 36.5078 27.5524C36.5078 27.5524 36.5437 27.5329 36.605 27.5329C36.6172 27.5329 36.6418 27.5329 36.654 27.5214C36.9727 27.4869 37.2668 27.4639 37.5487 27.4524H37.561C39.669 27.4294 40.8824 28.4756 40.9192 29.7748Z" fill="#66AA66"/>
<path d="M36.459 32.0974C35.8462 32.4538 34.9147 32.6953 33.5298 32.7068C33.9097 30.2924 34.1783 27.8539 34.1783 27.8539C34.7789 27.9114 35.5643 27.8435 36.508 27.556C36.459 27.6825 35.7359 30.1314 36.459 32.0974Z" fill="#EA6766"/>
<path d="M37.1163 31.5307C36.9569 31.7376 36.7249 31.9363 36.443 32.0972C35.7198 30.1312 36.458 27.691 36.4948 27.5646C36.4825 27.6451 36.2986 28.4987 36.4457 29.5909V29.6024C36.556 30.3727 36.8099 31.0018 37.1163 31.5307Z" fill="#EA6766"/>
<path d="M36.3949 29.5688C36.2479 28.4651 36.4685 27.6368 36.5074 27.5524C36.5074 27.5524 38.3808 30.1425 37.09 31.5426C36.7836 31.0137 36.493 30.3276 36.3949 29.5688Z" fill="#66AA66"/>
<path d="M40.6867 30.9013C40.7112 30.8439 40.7357 30.7864 40.7602 30.7289C40.6622 31.0393 40.5641 31.2693 40.5273 31.3497C40.5641 31.2118 40.6131 31.0623 40.6867 30.9013Z" fill="#66D2FF"/>
<path d="M40.9201 29.7864C40.9324 30.0853 40.8711 30.4072 40.7485 30.7291C40.8343 30.4647 40.9079 30.1313 40.9201 29.7864Z" fill="#FFBD00"/>
<path d="M42.1798 34.1448C42.2088 34.1925 42.1696 34.2542 42.111 34.2495C41.8765 34.2308 41.3779 34.177 40.7724 34.0288C40.4905 33.385 40.2209 32.4077 40.515 31.3615C40.5518 31.281 40.6498 31.0511 40.7479 30.7406C40.7479 30.7406 40.7479 30.7406 40.7479 30.7291C40.8705 30.4072 40.9195 30.0853 40.9195 29.7863V29.7749C40.9562 28.9356 40.6621 28.0043 39.3262 27.6249C40.3802 27.9008 41.3362 28.5676 41.3362 30.0623C41.3362 32.5435 41.9599 33.7844 42.1798 34.1448Z" fill="#66D2FF"/>
<path d="M40.919 29.7746C40.8822 28.4754 39.6688 27.4292 37.5608 27.4522H37.5485C37.2789 27.4637 36.9725 27.4867 36.6538 27.5212C36.7028 27.5097 36.7519 27.5097 36.8131 27.4982C36.8377 27.4982 36.8499 27.4982 36.8744 27.4867C36.8989 27.4867 36.9357 27.4867 36.9725 27.4752C37.046 27.4637 37.1318 27.4637 37.2299 27.4522C37.2666 27.4522 37.3034 27.4522 37.3402 27.4407C37.3647 27.4407 37.3769 27.4407 37.4014 27.4407C37.4995 27.4407 37.5975 27.4292 37.6956 27.4292C37.7691 27.4292 37.8427 27.4292 37.9285 27.4292C38.3574 27.4407 38.8477 27.4867 39.3012 27.6017H39.3134C40.6616 28.0041 40.9558 28.9353 40.919 29.7746Z" fill="#66D2FF"/>
<path fill-rule="evenodd" clip-rule="evenodd" d="M32.6346 25.153C32.6346 25.153 32.034 25.3254 31.7644 25.6933C31.7766 25.6589 31.8747 25.2679 31.7399 25.1415C31.7276 25.13 28.2346 25.9233 28.2346 28.3377C28.2346 31.2005 30.0363 32.3617 30.1098 32.4077C26.5246 27.4306 31.844 26.5193 32.1566 26.4658L32.1578 26.4656L32.1605 26.47C30.1215 28.0216 29.9015 30.1789 29.9627 31.4189C29.9627 31.097 29.9995 30.7981 30.073 30.5107C30.2079 29.4644 30.6491 28.2917 31.8992 27.8663C32.3159 27.5329 32.6223 27.3604 32.6223 27.3604H32.6346C32.4857 26.9951 32.1976 26.5293 32.1605 26.47L32.1689 26.4637C32.1667 26.464 32.163 26.4647 32.1578 26.4656L32.1566 26.4637C32.1566 26.4637 32.7694 25.7048 32.6346 25.153ZM30.6002 26.1762C30.6002 26.1762 31.1027 25.4748 31.6542 25.2909C31.6664 25.2909 31.7522 26.1302 30.6002 26.1762ZM32.4998 25.3599C32.0831 25.5668 31.9238 25.9922 31.9238 25.9922C32.2652 25.9049 32.432 25.5143 32.483 25.3948C32.4924 25.3727 32.4979 25.3599 32.4998 25.3599Z" fill="#66D2FF"/>
<path d="M29.9751 31.4188C29.9751 31.7407 30.0242 32.0626 30.11 32.4075C26.4576 27.3373 32.0464 26.4865 32.169 26.4635C30.1345 28.0156 29.9016 30.1656 29.9751 31.4188Z" fill="#66D2FF"/>
<path d="M30.1094 32.4077C30.0114 32.0628 29.9746 31.7294 29.9746 31.4189C30.0114 32.0053 30.1094 32.3847 30.1094 32.4077Z" fill="#00B4FF"/>
<path d="M30.5989 26.1761C30.5989 26.1761 31.1014 25.4747 31.6529 25.2908C31.6652 25.2908 31.751 26.1301 30.5989 26.1761Z" fill="#5AC8F6"/>
<path d="M32.4872 25.3596C32.4872 25.3596 32.3156 25.9 31.9111 25.992C31.9234 25.992 32.0827 25.5666 32.4872 25.3596Z" fill="#5AC8F6"/>
</g>
<defs>
<filter id="filter0_d" x="0" y="0" width="172" height="69.8643" filterUnits="userSpaceOnUse" color-interpolation-filters="sRGB">
<feFlood flood-opacity="0" result="BackgroundImageFix"/>
<feColorMatrix in="SourceAlpha" type="matrix" values="0 0 0 0 0 0 0 0 0 0 0 0 0 0 0 0 0 0 127 0"/>
<feOffset dy="4"/>
<feGaussianBlur stdDeviation="10"/>
<feColorMatrix type="matrix" values="0 0 0 0 0 0 0 0 0 0 0 0 0 0 0 0 0 0 0.15 0"/>
<feBlend mode="normal" in2="BackgroundImageFix" result="effect1_dropShadow"/>
<feBlend mode="normal" in="SourceGraphic" in2="effect1_dropShadow" result="shape"/>
</filter>
</defs>
</svg>
