<svg width="113" height="155" viewBox="0 0 113 155" fill="none" xmlns="http://www.w3.org/2000/svg">
<g filter="url(#filter0_d)">
<path d="M6 7.395C6 6.62456 6.62456 6 7.395 6H97.605C98.3754 6 99 6.62456 99 7.395V139.455C99 140.225 98.3754 140.85 97.605 140.85H7.395C6.62456 140.85 6 140.225 6 139.455V7.395Z" fill="white"/>
<path d="M15.3727 123.395C15.3727 122.625 15.9972 122 16.7677 122H88.3777C89.1481 122 89.7727 122.625 89.7727 123.395V132.23C89.7727 133 89.1481 133.625 88.3777 133.625H16.7677C15.9972 133.625 15.3727 133 15.3727 132.23V123.395Z" fill="#232939"/>
<path fill-rule="evenodd" clip-rule="evenodd" d="M93.3519 12.1131C93.4427 12.2039 93.4427 12.3511 93.3519 12.4419L91.0269 14.7669C90.9361 14.8577 90.7889 14.8577 90.6981 14.7669C90.6073 14.6761 90.6073 14.5289 90.6981 14.4381L93.0231 12.1131C93.1139 12.0223 93.2611 12.0223 93.3519 12.1131Z" fill="#8392B8"/>
<path fill-rule="evenodd" clip-rule="evenodd" d="M90.6981 12.1131C90.7889 12.0223 90.9361 12.0223 91.0269 12.1131L93.3519 14.4381C93.4427 14.5289 93.4427 14.6761 93.3519 14.7669C93.2611 14.8577 93.1139 14.8577 93.0231 14.7669L90.6981 12.4419C90.6073 12.3511 90.6073 12.2039 90.6981 12.1131Z" fill="#8392B8"/>
</g>
<rect opacity="0.3" x="24.7451" y="27.6278" width="55.8721" height="1.80233" rx="0.901163" fill="#8392B8"/>
<rect opacity="0.3" x="31.954" y="31.9536" width="41.4535" height="1.80233" rx="0.901163" fill="#8392B8"/>
<rect opacity="0.3" x="44.208" y="126.686" width="16.5814" height="2.16279" rx="1.0814" fill="white"/>
<rect x="30.5132" y="22.2208" width="44.3372" height="2.52326" rx="1.26163" fill="#EDF0F5"/>
<rect x="19.9203" y="94.9298" width="24.8721" height="1.80233" rx="0.901163" fill="#EDF0F5"/>
<rect x="64.7565" y="90.6044" width="27.3954" height="1.80233" rx="0.901163" fill="#EDF0F5"/>
<rect x="64.7565" y="94.9298" width="27.3954" height="1.80233" rx="0.901163" fill="#EDF0F5"/>
<path d="M37.7698 58.9841C39.2279 61.1637 39.6914 64.0081 39.5599 66.608C39.5022 67.7491 39.1947 68.7242 38.8953 69.6738C38.3342 71.4533 37.8024 73.1412 39.0746 75.626C39.8116 75.9025 40.4711 76.1504 40.7534 76.811C42.0472 75.0836 42.8136 72.9379 42.8136 70.6131C42.8136 69.2824 42.5628 68.0109 42.1059 66.8432C41.6312 65.6297 40.9345 64.5283 40.0661 63.5891C40.015 63.5338 40.0183 63.4475 40.0736 63.3963C40.1289 63.3451 40.2151 63.3485 40.2663 63.4038C41.1586 64.3688 41.8739 65.4993 42.3607 66.7436C42.83 67.9431 43.0876 69.2483 43.0876 70.6131C43.0876 73.1038 42.2306 75.3943 40.7956 77.2053C38.8282 79.6883 35.8804 81.1586 32.7155 81.2298C32.6352 81.2316 32.5548 81.2326 32.4742 81.2326C29.1892 81.2326 26.1177 79.7249 24.1026 77.1411C22.6979 75.3403 21.8608 73.0745 21.8608 70.6131C21.8608 67.9588 22.843 65.4203 24.6309 63.4591C24.7518 63.3261 24.9541 63.5103 24.8332 63.6433C23.0896 65.5559 22.1349 68.0247 22.1349 70.6131C22.1349 72.9816 22.9304 75.1642 24.2686 76.908C24.5349 76.2829 25.1314 75.9897 25.8193 75.7084C27.7875 71.8792 25.565 70.0953 25.3886 66.608C25.2571 64.0081 25.7206 61.1637 27.1787 58.9841C29.8404 55.0053 35.108 55.0053 37.7698 58.9841ZM24.4682 77.1597C26.4317 79.5608 29.3445 80.9518 32.4524 80.9582V80.5296C31.98 79.6013 30.5222 76.8342 29.2442 77.219C28.8741 77.3304 28.851 76.9756 28.9286 76.6674C28.9979 76.3175 29.1858 75.8567 29.2441 75.7513C29.3505 75.5588 29.1394 75.4029 28.8876 75.2636C28.6567 75.1359 28.2256 74.9599 28.1052 74.7461C27.5337 75.3152 26.821 75.6009 26.1642 75.8641C25.381 76.178 24.6825 76.458 24.4682 77.1597ZM29.4613 73.2101C29.5911 73.1734 29.5703 73.1861 29.6508 73.075C30.086 72.4742 30.265 71.8472 30.2776 71.09C30.2795 71.0163 30.2816 71.0137 30.1588 70.918C28.5173 69.6389 27.6515 67.4795 27.6253 65.4456C27.6232 65.266 27.8961 65.2628 27.8982 65.4424C27.9227 67.3401 28.8622 69.7907 30.5503 70.8948C31.111 71.2615 31.7544 71.4797 32.4742 71.4797C35.1132 71.4217 37.1327 68.4496 37.1231 65.845C37.1231 64.8647 36.9499 63.944 36.6185 63.1424C36.2939 62.357 35.8175 61.6855 35.2036 61.1843C34.803 60.8573 34.7009 60.8218 34.4242 61.3205C32.9457 63.985 29.7996 64.5038 27.683 64.8528C27.2091 64.931 26.8986 65.2032 26.7998 65.6792C26.7632 65.8553 26.4956 65.7996 26.5322 65.6235C26.6537 65.038 27.0539 64.6795 27.6391 64.5829C29.7032 64.2426 32.7711 63.7367 34.1855 61.1877C34.5516 60.528 34.842 60.5363 35.376 60.9723C36.0259 61.5029 36.5293 62.2114 36.8712 63.0385C37.2166 63.8741 37.3971 64.8303 37.3971 65.845C37.3971 67.6968 36.5674 69.5684 35.1142 70.728C35.0233 70.8005 35.0059 70.7948 35.0082 70.9428C35.0224 71.7943 35.2543 72.5404 35.7655 73.2227C36.2567 73.3743 36.7262 73.7532 36.9812 74.2021C37.3599 74.8686 38.0013 75.205 38.699 75.4823C37.5458 73.0441 38.0759 71.3617 38.6341 69.5913C38.9287 68.6571 39.2311 67.6978 39.2869 66.5952C39.4155 64.0538 38.968 61.2667 37.5428 59.1362C34.9897 55.3197 29.9588 55.3197 27.4057 59.1362C25.9805 61.2667 25.533 64.0538 25.6616 66.5952C25.8336 69.9962 27.9887 71.779 26.1999 75.5551C26.8096 75.3092 27.511 75.0765 27.959 74.5048C28.4089 73.9306 28.7759 73.4364 29.4613 73.2101ZM28.4663 74.725C28.6348 74.8369 28.92 74.9688 29.0193 75.0237C29.3972 75.2327 29.7045 75.4838 29.4839 75.883C29.4314 75.9781 29.2611 76.3973 29.1973 76.7199C29.1647 76.8609 29.1121 76.9601 29.3091 76.924C30.5741 76.6926 31.933 78.8908 32.4524 79.8484C32.4524 79.4301 32.4636 79.0743 32.4434 78.6567C32.4182 78.1348 32.3607 77.7136 32.2046 77.3261C32.0291 76.8905 31.7251 76.4889 31.1958 76.0214C31.1617 75.9913 31.0998 75.9394 31.0265 75.8781C30.4876 75.4265 29.324 74.4514 29.3348 73.545C28.9587 73.7072 28.5596 74.0756 28.3782 74.4447C28.3026 74.5984 28.3287 74.6334 28.4663 74.725ZM32.7265 80.9553C35.793 80.8818 38.6449 79.4585 40.555 77.0673C40.3177 76.2704 39.358 76.0342 38.6428 75.7538C38.0943 75.5388 37.5284 75.2726 37.0639 74.7824C36.9422 75.0171 36.6755 75.1944 36.4254 75.3606C36.1697 75.5306 35.9365 75.6856 35.992 75.8041C36.1168 76.0704 36.2529 76.3535 36.3011 76.6455C36.3484 76.9325 36.294 77.1743 36.0011 77.2227C34.3768 77.4908 33.2379 79.0728 32.7265 80.5339V80.9553ZM32.7265 79.8376C33.3516 78.5027 34.4317 77.2046 35.9572 76.9528C36.2427 76.8708 35.823 76.0868 35.7448 75.9197C35.5892 75.588 35.916 75.3707 36.2745 75.1324C36.6345 74.8932 37.0076 74.729 36.7458 74.3176C36.5398 73.9938 36.2011 73.6961 35.8495 73.5449C35.8604 74.4513 34.6967 75.4265 34.1578 75.8781C34.0845 75.9394 34.0226 75.9913 33.9885 76.0214C33.4592 76.4889 33.1552 76.8905 32.9797 77.3261C32.825 77.7101 32.7672 78.1271 32.7416 78.6425C32.7221 79.0352 32.7265 79.4434 32.7265 79.8376ZM32.5922 77.6467C32.627 77.5013 32.6708 77.3614 32.726 77.2243C32.9178 76.7482 33.2439 76.3146 33.8076 75.8168C33.8612 75.7695 33.9166 75.7231 33.9822 75.6681C34.5214 75.2164 35.7322 74.2018 35.5607 73.4054C35.0188 72.6896 34.762 71.9038 34.7366 71.0071C34.0297 71.4828 33.247 71.7539 32.4742 71.7539C31.8146 71.7539 31.1569 71.5505 30.5484 71.1816C30.6282 71.9337 30.0473 73.3632 29.6079 73.5259C29.5709 74.3014 30.6898 75.2389 31.2021 75.6681C31.2677 75.7231 31.3231 75.7695 31.3767 75.8168C31.9404 76.3146 32.2665 76.7482 32.4583 77.2243C32.5135 77.3614 32.5573 77.5013 32.5922 77.6467ZM27.7255 63.8568C27.6182 63.8691 27.5996 63.7058 27.7069 63.6936C28.7771 63.5701 30.0698 63.3083 30.9023 62.582C30.9833 62.5111 31.0912 62.6345 31.0102 62.7054C30.1481 63.4575 28.8339 63.7289 27.7255 63.8568Z" fill="#8392B8"/>
<path d="M80.6002 58.2137C80.353 58.1612 80.4314 57.8549 80.6643 57.8859C81.7129 58.0154 82.1769 58.7639 82.177 59.3342V61.8188C82.177 62.0499 81.8259 62.0499 81.8259 61.8188V59.3342C81.8229 58.9554 81.5654 58.3586 80.6002 58.2137V58.2137ZM73.1263 75.8068L72.2573 75.9698C72.2124 76.2083 72.0125 76.4139 71.7732 76.4587C71.5444 76.5016 71.3234 76.387 71.2564 76.1574L70.3771 76.3222V76.8603C70.3771 76.9489 70.4327 77.0051 70.5231 76.9882L72.9159 76.5396C73.0298 76.5183 73.1263 76.3937 73.1263 76.2791V75.8068L73.1263 75.8068ZM72.2471 75.7339L73.1263 75.5691V75.031C73.1263 74.9425 73.0707 74.8862 72.9804 74.9031L70.5876 75.3517C70.4737 75.373 70.3771 75.4976 70.3771 75.6122V76.0845L71.2462 75.9215C71.2911 75.683 71.491 75.4774 71.7302 75.4326C71.9606 75.3894 72.1804 75.5056 72.2471 75.7339V75.7339ZM71.7732 75.6623C71.6105 75.6928 71.4709 75.8531 71.4709 76.0202C71.4709 76.1697 71.5859 76.2561 71.7302 76.229C71.893 76.1985 72.0325 76.0382 72.0325 75.8711C72.0325 75.7234 71.9189 75.635 71.7732 75.6623ZM70.5231 75.0071L72.9159 74.5586C73.2223 74.5011 73.4774 74.7254 73.4774 75.031V76.2791C73.4774 76.5628 73.2602 76.8317 72.9804 76.8842L70.5876 77.3327C70.2851 77.3894 70.0261 77.1702 70.0261 76.8603V75.6122C70.0261 75.3285 70.2433 75.0596 70.5231 75.0071L70.5231 75.0071ZM68.6013 70.7342L69.6483 70.5379C69.4737 70.0191 69.3962 69.462 69.39 68.9158L68.1729 69.144C68.1769 69.7042 68.3096 70.2522 68.6013 70.7342V70.7342ZM69.7642 70.5162L71.0596 70.2734C71.0098 69.781 70.9809 69.219 70.9788 68.618L69.5069 68.8939C69.5111 69.4402 69.5875 69.9978 69.7642 70.5162ZM71.1748 70.2518L72.3265 70.0359C72.3765 69.5262 72.4056 68.9532 72.4077 68.3501L71.0957 68.5961C71.0972 69.1979 71.1256 69.76 71.1748 70.2518H71.1748ZM72.446 70.0135L73.7325 69.7723C73.8949 69.242 73.9895 68.6566 73.9964 68.0523L72.5248 68.3282C72.5233 68.9293 72.4951 69.5019 72.446 70.0135ZM73.8618 69.7481L74.871 69.5589C75.1496 69.0101 75.3142 68.4106 75.3295 67.8024L74.1136 68.0303C74.109 68.6318 74.0187 69.2159 73.8618 69.7481ZM74.8013 69.6908L73.823 69.8742C73.6221 70.5026 73.2975 71.1441 72.8307 71.6163C73.6571 71.1935 74.3545 70.5044 74.8013 69.6908H74.8013ZM73.6921 69.8987L72.4339 70.1346C72.3775 70.675 72.2777 71.4418 72.0455 71.9237C72.1876 71.8843 72.3274 71.837 72.4644 71.7825C73.0575 71.3396 73.4615 70.5931 73.6921 69.8987V69.8987ZM72.3141 70.1571L71.187 70.3684C71.2344 70.8013 71.3416 71.6678 71.5942 72.0207C71.6983 72.0049 71.8018 71.9845 71.9043 71.9601C72.1428 71.5518 72.2612 70.6528 72.3141 70.1571L72.3141 70.1571ZM71.0719 70.3899L69.804 70.6276C70.0239 71.2154 70.4271 71.8432 71.045 72.062C71.186 72.0625 71.327 72.0542 71.4671 72.0379C71.2213 71.6368 71.1235 70.8579 71.0719 70.3899ZM69.6876 70.6494L68.6689 70.8404C69.1417 71.5468 69.8927 71.9635 70.7362 72.0464C70.2262 71.7473 69.8873 71.1916 69.6876 70.6494ZM68.7022 67.1365L69.6805 66.9531C69.8814 66.3247 70.206 65.6832 70.6728 65.211C69.8463 65.6338 69.149 66.3229 68.7022 67.1365H68.7022ZM69.8113 66.9286L71.0696 66.6927C71.126 66.1522 71.2257 65.3855 71.458 64.9036C71.3159 64.943 71.176 64.9903 71.0391 65.0448C70.446 65.4877 70.042 66.2342 69.8113 66.9286ZM71.1894 66.6702L72.3164 66.4589C72.2691 66.026 72.1619 65.1595 71.9093 64.8066C71.8052 64.8224 71.7017 64.8428 71.5992 64.8672C71.3606 65.2755 71.2423 66.1745 71.1894 66.6702L71.1894 66.6702ZM72.4316 66.4374L73.6995 66.1997C73.4796 65.6118 73.0764 64.9841 72.4584 64.7653C72.3174 64.7648 72.1765 64.773 72.0364 64.7894C72.2822 65.1905 72.3799 65.9694 72.4316 66.4374ZM73.8159 66.1778L74.8346 65.9869C74.3617 65.2805 73.6109 64.8638 72.7673 64.7809C73.2773 65.08 73.6162 65.6357 73.8159 66.1778ZM74.9022 66.0931L73.8552 66.2894C73.922 66.4879 73.9771 66.7001 74.0189 66.9238C74.0768 67.2331 74.1095 67.5642 74.1134 67.9115L75.3305 67.6833C75.3266 67.1231 75.1939 66.575 74.9022 66.0931ZM73.7393 66.3111L72.4439 66.5539C72.4936 67.0463 72.5226 67.6083 72.5247 68.2093L73.9966 67.9334C73.9939 67.5845 73.9618 67.2533 73.9042 66.9453C73.8622 66.7211 73.8068 66.5089 73.7393 66.3111H73.7393ZM72.3287 66.5755L71.177 66.7914C71.127 67.3011 71.0979 67.8741 71.0958 68.4772L72.4078 68.2312C72.4063 67.6294 72.3779 67.0672 72.3287 66.5755H72.3287ZM71.0575 66.8138L69.771 67.055C69.6086 67.5853 69.514 68.1708 69.5071 68.775L70.9787 68.4991C70.9801 67.898 71.0084 67.3254 71.0575 66.8138ZM69.6417 67.0792L68.6325 67.2684C68.3539 67.8172 68.1892 68.4167 68.174 69.0249L69.3898 68.797C69.3944 68.1955 69.4848 67.6114 69.6417 67.0792ZM75.6817 67.7098C75.6817 68.3794 75.5139 69.0408 75.2182 69.6465C74.5601 70.9946 73.2693 72.0655 71.784 72.344C70.2877 72.6245 68.9763 72.0291 68.3026 70.9185C67.9962 70.4134 67.8218 69.8018 67.8218 69.1175C67.8218 68.4667 67.9802 67.8238 68.2606 67.2321C68.9092 65.8632 70.2065 64.7731 71.7055 64.4858C73.8393 64.0768 75.6817 65.4835 75.6817 67.7098H75.6817ZM85.0305 62.2048C88.887 62.2048 92.0133 65.3341 92.0133 69.1944C92.0133 73.0546 88.887 76.1839 85.0305 76.1839C81.174 76.1839 78.0477 73.0546 78.0477 69.1944C78.0477 65.3341 81.174 62.2048 85.0305 62.2048ZM85.0305 62.5562C81.3678 62.5562 78.3988 65.5281 78.3988 69.1944C78.3988 72.8606 81.3679 75.8325 85.0305 75.8325C88.6932 75.8325 91.6622 72.8606 91.6622 69.1944C91.6622 65.5281 88.6932 62.5562 85.0305 62.5562ZM80.7066 69.3701C80.4757 69.3701 80.4757 69.0187 80.7066 69.0187H89.3546C89.5855 69.0187 89.5855 69.3701 89.3546 69.3701H80.7066ZM86.9218 66.204C86.6909 66.204 86.6909 65.8525 86.9218 65.8525C87.7182 65.8525 88.3691 66.5041 88.3691 67.3013C88.3691 67.5324 88.018 67.5324 88.018 67.3013C88.018 66.6981 87.5244 66.204 86.9218 66.204ZM88.018 71.0875C88.018 70.8563 88.3691 70.8563 88.3691 71.0875C88.3691 71.8846 87.7182 72.5362 86.9218 72.5362C86.6909 72.5362 86.6909 72.1848 86.9218 72.1848C87.5244 72.1848 88.018 71.6906 88.018 71.0875ZM83.1393 72.1848C83.3701 72.1848 83.3701 72.5362 83.1393 72.5362C82.3429 72.5362 81.6919 71.8846 81.6919 71.0875C81.6919 70.8563 82.043 70.8563 82.043 71.0875C82.043 71.6906 82.5367 72.1848 83.1393 72.1848ZM82.043 67.3013C82.043 67.5324 81.6919 67.5324 81.6919 67.3013C81.6919 66.5041 82.3429 65.8525 83.1393 65.8525C83.3701 65.8525 83.3701 66.204 83.1393 66.204C82.5367 66.204 82.043 66.6981 82.043 67.3013ZM68.4537 60.8487C68.2264 60.8839 68.1729 60.538 68.4002 60.5028L75.0374 59.4542C75.2647 59.419 75.3182 59.7649 75.0909 59.8001L68.4537 60.8487ZM70.0034 61.8369C69.7761 61.8721 69.7227 61.5261 69.9499 61.4909L73.2534 60.969C73.4807 60.9338 73.5341 61.2797 73.3069 61.3149L70.0034 61.8369ZM78.9877 74.8053C78.9877 74.5742 79.3387 74.5742 79.3387 74.8053V77.7195C79.3387 78.4533 78.7566 79.1402 78.0286 79.2459L67.3658 80.7909H80.6112C81.2171 80.7909 81.8259 80.3579 81.8259 79.7139V77.0633C81.8259 76.8322 82.177 76.8322 82.177 77.0633V79.7139C82.177 80.5533 81.4116 81.1423 80.6112 81.1423H66.3214C65.4141 81.1423 64.7554 80.6542 64.7554 79.7817V59.2666C64.7554 58.5329 65.3375 57.8457 66.0655 57.74L77.9792 56.0137C78.7271 55.9052 79.3387 56.4522 79.3387 57.2042V63.573C79.3387 63.8041 78.9877 63.8041 78.9877 63.573V57.2042C78.9877 56.6644 78.5671 56.2829 78.0286 56.361L66.1148 58.0873C65.5582 58.1681 65.1064 58.7065 65.1064 59.2666V79.7817C65.1064 80.5072 65.6836 80.6802 66.2922 80.592L77.9792 78.8986C78.5359 78.8178 78.9876 78.2797 78.9876 77.7195V74.8053L78.9877 74.8053Z" fill="#8392B8"/>
<defs>
<filter id="filter0_d" x="0" y="0" width="113" height="154.85" filterUnits="userSpaceOnUse" color-interpolation-filters="sRGB">
<feFlood flood-opacity="0" result="BackgroundImageFix"/>
<feColorMatrix in="SourceAlpha" type="matrix" values="0 0 0 0 0 0 0 0 0 0 0 0 0 0 0 0 0 0 127 0"/>
<feOffset dx="4" dy="4"/>
<feGaussianBlur stdDeviation="5"/>
<feColorMatrix type="matrix" values="0 0 0 0 0 0 0 0 0 0 0 0 0 0 0 0 0 0 0.1 0"/>
<feBlend mode="normal" in2="BackgroundImageFix" result="effect1_dropShadow"/>
<feBlend mode="normal" in="SourceGraphic" in2="effect1_dropShadow" result="shape"/>
</filter>
</defs>
</svg>
