<svg width="17" height="17" viewBox="0 0 17 17" fill="none" xmlns="http://www.w3.org/2000/svg">
<g clip-path="url(#clip0)">
<path d="M8.5 17C11.2197 17 13.6389 15.7217 15.1947 13.7344H10.7178C10.1399 15.6609 9.81737 17 8.5 17Z" fill="#C42126"/>
<path d="M10.7178 3.26564H15.1948C13.6388 1.27864 11.2196 0 8.5 0C9.81737 0 10.1399 1.33915 10.7178 3.26564Z" fill="#C42126"/>
<path d="M15.1948 3.26562H10.7178C11.6213 6.2771 11.6213 10.7233 10.7178 13.7343H15.1944C16.3245 12.2912 16.9999 10.4752 16.9999 8.50004C17.0001 6.52499 16.3246 4.70882 15.1948 3.26562Z" fill="#FFC40C"/>
<path d="M8.49996 16.999C8.33084 16.999 8.16281 16.9941 7.99585 16.9844C8.16518 16.9938 8.33354 16.999 8.49996 16.999Z" fill="#C42126"/>
<path d="M7.99585 0.0148942C8.16277 0.00495278 8.33084 0 8.49996 0C8.33354 0 8.16518 0.00549113 7.99585 0.0148942Z" fill="#C42126"/>
<path d="M11.3429 13.7344H1.80542C3.26337 15.5968 5.48003 16.8367 7.99098 16.9851C7.9926 16.9851 7.99407 16.9854 7.99568 16.9854C8.16264 16.995 8.33068 17 8.49979 17C9.81719 17 10.7649 15.6609 11.3429 13.7344Z" fill="#D32030"/>
<path d="M1.80542 3.26564H11.3429C10.7649 1.33915 9.81719 0 8.49983 0C8.33071 0 8.16268 0.00495278 7.99572 0.0148942C7.9941 0.0148942 7.99263 0.0151455 7.99102 0.0151455C5.48003 0.163478 3.26337 1.40347 1.80542 3.26564Z" fill="#D32030"/>
<path d="M0 8.50004C0 10.4752 0.675481 12.2912 1.80554 13.7343H11.3431C12.2466 10.7231 12.2466 6.27692 11.3431 3.26562H1.80554C0.675481 4.70882 0 6.52499 0 8.50004Z" fill="#FFD034"/>
</g>
<defs>
<clipPath id="clip0">
<rect width="17" height="17" fill="white"/>
</clipPath>
</defs>
</svg>
