<svg width="17" height="17" viewBox="0 0 17 17" fill="none" xmlns="http://www.w3.org/2000/svg">
<g clip-path="url(#clip0)">
<path d="M1.49732 3.68359C0.949184 4.47919 0.532618 5.37251 0.280029 6.33265H4.14652L1.49732 3.68359Z" fill="#29337A"/>
<path d="M6.11959 0.339844C5.14024 0.625055 4.23325 1.08017 3.43457 1.67377L6.11959 4.35879V0.339844Z" fill="#29337A"/>
<path d="M3.63477 15.4674C4.38392 15.9916 5.22089 16.3974 6.12009 16.6593V12.9824L3.63477 15.4674Z" fill="#29337A"/>
<path d="M0.37793 11.0098C0.658978 11.9201 1.08965 12.7647 1.64005 13.516L4.1463 11.0098H0.37793Z" fill="#29337A"/>
<path d="M1.63702 3.48633C1.5895 3.55129 1.54267 3.61718 1.49676 3.68375L4.14596 6.33281H0.279474C0.216811 6.57129 0.165669 6.81437 0.123535 7.06079H5.21176L1.63702 3.48633Z" fill="white"/>
<path d="M3.43652 15.3283C3.5012 15.3765 3.56766 15.4224 3.63366 15.4686L6.11899 12.9835V16.6604C6.35776 16.7302 6.60027 16.7904 6.84697 16.8389V11.918L3.43652 15.3283Z" fill="white"/>
<path d="M0.188477 10.2812C0.241234 10.5279 0.303501 10.7709 0.377182 11.0092H4.14558L1.63933 13.5155C1.91191 13.8879 2.21417 14.2374 2.54259 14.5606L6.82188 10.2812H0.188477Z" fill="white"/>
<path d="M6.11904 0.340622V4.35957L3.43398 1.6747C3.06382 1.94997 2.71782 2.25556 2.39722 2.58639L6.84687 7.03604V0.162109C6.60031 0.210847 6.35781 0.271248 6.11904 0.340622Z" fill="white"/>
<path d="M6.11951 10.9844L6.09399 11.01H6.11951V10.9844Z" fill="#D32030"/>
<path d="M6.82202 10.2834H6.8475V10.2578L6.82202 10.2834Z" fill="#D32030"/>
<path d="M10.0934 7.0625H10.0688V7.08719L10.0934 7.0625Z" fill="#D32030"/>
<path d="M6.14472 6.33382L6.11963 6.30859V6.33382H6.14472Z" fill="#D32030"/>
<path d="M6.84766 7.03711V7.06223H6.87278L6.84766 7.03711Z" fill="#D32030"/>
<path d="M10.7964 14.7773V16.6827C11.7073 16.4277 12.5566 16.0258 13.3162 15.5021L11.2516 13.4375C11.0867 14.0171 11.0263 14.3168 10.7964 14.7773Z" fill="#252F6C"/>
<path d="M11.2625 3.89287L13.5163 1.63907C12.7066 1.04611 11.7881 0.594225 10.7964 0.316406V2.27373C11.0615 2.80453 11.0838 3.20786 11.2625 3.89287Z" fill="#252F6C"/>
<path d="M15.3258 13.5655C15.8934 12.802 16.3358 11.9401 16.6231 11.0098H12.77L15.3258 13.5655Z" fill="#252F6C"/>
<path d="M16.7206 6.33335C16.4626 5.35292 16.0336 4.44285 15.4682 3.63477L12.7693 6.33335H16.7206Z" fill="#252F6C"/>
<path d="M11.7588 10.4251L12.3429 11.0092L15.1388 13.8051C15.2022 13.7256 15.2653 13.6465 15.326 13.565L12.7702 11.0092H16.6233C16.6967 10.771 16.7591 10.528 16.8117 10.2812H11.8134C11.8052 10.3845 11.7686 10.3226 11.7588 10.4251Z" fill="#E7E7E7"/>
<path d="M11.1743 4.31873L13.7083 1.78442C13.6448 1.73518 13.5812 1.68619 13.5164 1.63867L11.2626 3.89248C11.2859 3.98159 11.1525 4.22747 11.1743 4.31873Z" fill="#E7E7E7"/>
<path d="M10.7963 2.11698V0.316133C10.5579 0.249307 10.3151 0.192674 10.0684 0.146484V1.02491C10.3392 1.31855 10.582 1.68739 10.7963 2.11698Z" fill="#E7E7E7"/>
<path d="M11.7012 7.06068H16.8762C16.8342 6.81427 16.783 6.57133 16.7203 6.33271H12.769L15.4678 3.63413C15.2025 3.2551 14.9076 2.89865 14.5855 2.56836L11.5457 5.60796C11.6275 6.15933 11.6642 6.47953 11.7012 7.06068Z" fill="#E7E7E7"/>
<path d="M11.1289 13.3149L13.3164 15.5027C13.6803 15.2521 14.0229 14.9732 14.3426 14.6705L11.4653 11.793C11.3734 12.3251 11.2645 12.8391 11.1289 13.3149Z" fill="#E7E7E7"/>
<path d="M10.0688 15.8733V16.8524C10.3155 16.8065 10.5582 16.7496 10.7968 16.6827V14.7773C10.5824 15.2071 10.3396 15.5801 10.0688 15.8733Z" fill="#E7E7E7"/>
<path d="M11.5455 5.60829L14.5851 2.56869C14.3115 2.28764 14.0181 2.02608 13.7078 1.78516L11.3193 4.17398C11.4255 4.61768 11.4737 5.12554 11.5455 5.60829Z" fill="#D71F28"/>
<path d="M8.07617 0.0104796C8.21779 0.00362481 8.35898 0 8.50027 0C8.35815 0 8.21671 0.00362481 8.07617 0.0104796Z" fill="#D32030"/>
<path d="M8.50027 16.999C8.35894 16.999 8.21775 16.9951 8.07642 16.9883C8.21696 16.9954 8.35815 16.999 8.50027 16.999Z" fill="#D32030"/>
<path d="M8.50024 17.0012C9.03654 17.0012 9.56023 16.9492 10.0689 16.8541V15.875C9.62239 16.359 9.10006 17.0012 8.50024 17.0012Z" fill="#D32030"/>
<path d="M16.8761 7.06055H11.7683C11.836 8.1266 11.8278 9.22283 11.7439 10.2816H16.8115C16.9341 9.70676 16.9999 9.11115 16.9999 8.49995C16.9999 8.00899 16.9561 7.52879 16.8761 7.06055Z" fill="#D71F28"/>
<path d="M11.7585 10.4258C11.7113 10.928 11.5467 11.3194 11.4648 11.7931L14.3422 14.6705C14.6269 14.4007 14.893 14.1121 15.1383 13.8058L12.3426 11.0097L11.7585 10.4258Z" fill="#D71F28"/>
<path d="M10.0684 1.08831V0.146823C9.55992 0.0519317 9.03623 0 8.49976 0C9.09957 0 9.6219 0.604482 10.0684 1.08831Z" fill="#D32030"/>
<path d="M10.7964 15.1469C11.0263 14.6863 11.2234 14.1561 11.3885 13.5765L10.7964 12.9844V15.1469Z" fill="#29337A"/>
<path d="M11.4622 3.69404C11.2832 3.00902 11.0615 2.38627 10.7964 1.85547V4.35957L11.4622 3.69404Z" fill="#29337A"/>
<path d="M11.9236 10.5901C11.9332 10.4875 11.9419 10.3846 11.9503 10.2812H11.6147L11.9236 10.5901Z" fill="white"/>
<path d="M10.7963 4.35803V1.85379C10.5819 1.4242 10.3392 1.05511 10.0684 0.761719V5.42394L11.5303 3.962C11.5083 3.87073 11.4852 3.78133 11.4621 3.69222L10.7963 4.35803Z" fill="white"/>
<path d="M10.0928 7.05956H11.9744C11.9375 6.47844 11.8787 5.90669 11.797 5.35547L10.0928 7.05956Z" fill="white"/>
<path d="M10.0688 16.2375C10.3397 15.9438 10.5824 15.575 10.7968 15.1454V12.9829L11.389 13.575C11.5248 13.099 11.6387 12.5904 11.7308 12.0583L10.0689 10.3965L10.0688 16.2375Z" fill="white"/>
<path d="M10.0685 16.2374V10.3964L11.7304 12.0583C11.8121 11.5844 11.8764 11.093 11.9235 10.5906L11.6146 10.2818H11.9502C12.034 9.22299 12.0422 8.12675 11.9746 7.06074H10.093L11.7971 5.35664C11.7253 4.87375 11.6364 4.40669 11.5303 3.96285L10.0686 5.4248V0.762574C9.622 0.278608 9.09967 0 8.49986 0C8.35852 0 8.21734 0.00362481 8.07575 0.0104796C7.65768 0.0314031 7.24768 0.0828323 6.84745 0.161753V7.03565L2.39769 2.586C2.12428 2.86812 1.86997 3.16873 1.63723 3.48642L4.48371 6.3329L5.21194 7.06088H0.123746C0.0440361 7.52898 0 8.00918 0 8.50014C0 9.11148 0.0660361 9.70695 0.188418 10.2818H6.82196L2.54264 14.5611C2.82287 14.8364 3.12121 15.0927 3.43704 15.3273L6.84734 11.917V16.838C7.24754 16.9169 7.65782 16.9683 8.0759 16.9893C8.21723 16.9961 8.35842 17 8.49975 17C9.09967 17 9.622 16.7214 10.0685 16.2374Z" fill="#E51D35"/>
</g>
<defs>
<clipPath id="clip0">
<rect width="17" height="17" fill="white"/>
</clipPath>
</defs>
</svg>
