<svg width="81" height="75" viewBox="0 0 81 75" fill="none" xmlns="http://www.w3.org/2000/svg">
<path d="M71.834 34.4185C72.2557 32.7188 72.6774 30.7359 72.818 28.6113C72.818 30.4526 72.4666 32.4356 71.834 34.4185Z" fill="#00AB62"/>
<path d="M10.7517 44.7584C10.1894 42.6338 9.97852 40.5801 9.97852 38.668C10.1894 42.2797 10.7517 44.6168 10.7517 44.7584Z" fill="#00B4FF"/>
<path d="M10.7517 44.7579C10.6814 44.6163 10.1191 42.2793 9.97852 38.6675V38.5967C9.97852 36.6137 10.1894 34.7724 10.6111 33.002C9.90823 39.0216 10.6814 44.333 10.7517 44.7579Z" fill="#706766"/>
<path d="M21.0397 54.8328C18.9116 60.1278 16.9073 66.0376 15.6863 69.7807C14.9507 72.0359 12.8563 73.5813 10.4842 73.5813C8.39554 73.5813 7.75788 71.8579 9.70437 71.1006C10.2378 70.8931 10.6203 70.7679 10.6739 70.7505C10.6797 70.7487 10.6807 70.7484 10.6863 70.7463C10.8628 70.6789 14.8795 68.8654 10.821 44.7578C17.6389 48.2988 20.0557 49.5214 21.0397 54.8328Z" fill="#FFC766"/>
<path d="M10.7517 44.7584C10.1894 42.6338 9.97852 40.5801 9.97852 38.668C10.1894 42.2797 10.7517 44.6168 10.7517 44.7584Z" fill="#FFA200"/>
<path d="M25.5905 46.4571C21.303 46.2447 15.9882 46.5892 10.7598 44.7575C10.9706 44.3326 14.4096 36.2591 18.9783 26.5569C21.1572 25.707 24.0379 24.7177 27.4065 26.0633C27.4065 26.0633 27.3441 26.141 27.555 26.2118C28.4012 32.7498 27.4038 39.7712 25.5905 46.4571Z" fill="#EA6766"/>
<path d="M25.5905 46.4575C24.4659 51.1315 22.9196 55.5223 21.4435 59.2758C20.3892 53.9643 17.5777 48.228 10.7598 44.7578C16.3828 45.7493 21.303 46.245 25.5905 46.4575Z" fill="#EA6766"/>
<path d="M30.2954 46.6006C28.6919 57.6795 26.8084 68.5704 25.1391 73.029C24.6215 74.4114 23.2377 74.9991 21.7615 74.9991H21.2516C19.2401 74.9991 17.5842 74.3407 19.2018 73.1453C19.793 72.7084 21.3277 71.3486 21.4563 70.6248C21.8134 68.6139 22.373 64.1385 21.4392 59.2773C22.9152 55.5238 24.4615 51.1331 25.5862 46.459C27.2731 46.6006 28.8194 46.6006 30.2954 46.6006Z" fill="#EA6766"/>
<path d="M34.0826 16.7003C32.8174 16.417 31.6928 16.2045 30.5682 16.0629C28.8813 15.8504 27.3349 15.8504 25.9292 15.9213C25.9292 15.9213 25.9292 15.9921 25.9995 15.9921C27.1241 18.2583 33.45 22.1534 33.45 22.1534C33.45 26.8274 28.6652 26.278 27.4 26.1364C27.8217 33.0767 27.0913 40.354 25.5449 46.6569C27.2318 46.7278 30.2931 46.6411 31.7691 46.5703C33.8778 31.7691 34.1529 16.7003 34.0826 16.7003C34.1529 16.7003 34.1529 16.7003 34.0826 16.7003Z" fill="#EA6766"/>
<path d="M19.045 26.5586C14.4763 36.2608 10.9619 44.3343 10.7511 44.7592C10.7511 44.0509 10.4699 30.0287 19.045 26.5586Z" fill="#EA6766"/>
<path d="M25.9388 15.795C25.3062 15.8658 24.6736 15.9367 24.1113 16.0075C24.4628 15.2284 24.8845 14.4494 25.3062 13.5996C25.5171 14.1662 25.9388 15.6534 25.9388 15.795Z" fill="#706766"/>
<path d="M25.3071 13.5996C24.8854 14.3786 24.534 15.1576 24.1122 16.0075C23.0579 16.1491 22.0036 16.4324 21.0898 16.7865C23.4796 14.7327 25.3071 13.5996 25.3071 13.5996Z" fill="#706766"/>
<path d="M33.4603 22.0246C33.4603 26.6986 28.6662 26.2768 27.401 26.1352C27.1902 22.5942 26.9938 19.3334 26.0098 15.8633C27.0641 18.1295 33.4603 22.0246 33.4603 22.0246Z" fill="#706766"/>
<path d="M21.0862 16.7871C17.3609 19.974 12.3705 25.5687 10.6133 33.0755C11.3864 26.631 13.9168 19.4074 21.0862 16.7871Z" fill="#706766"/>
<path d="M24.1096 16.0059C22.3524 19.5468 20.6655 23.1586 19.0489 26.5579C10.4034 30.0281 10.7549 44.0503 10.7549 44.7585C10.6846 44.3336 9.91142 39.0221 10.544 33.0733C12.3012 25.4956 17.362 19.9717 21.0169 16.7849C22.001 16.4308 23.0553 16.1475 24.1096 16.0059Z" fill="#706766"/>
<path d="M27.4052 26.1382C27.1943 26.1382 27.1824 26.1382 27.1824 26.1382C23.8086 25.2884 21.2317 25.6374 19.0527 26.4872C20.6694 23.0879 22.3563 19.4761 24.1135 15.9351C24.6758 15.8643 25.3084 15.7935 25.941 15.7227C25.941 15.7227 25.941 15.7935 26.0113 15.7935C26.9953 19.3344 27.1943 22.6681 27.4052 26.1382Z" fill="#706766"/>
<path d="M64.6182 59.3759C65.0205 60.3694 65.115 61.4762 64.7885 62.4972L62.1216 70.8363C61.5855 72.5127 60.0272 73.6503 58.2672 73.6503H57.8577C55.1945 73.6503 54.3066 71.664 56.7559 70.6182C57.0668 70.4855 57.2619 70.4112 57.2619 70.4112C57.2619 70.4112 62.3203 63.5317 52.4356 51.6255C49.9053 49.1469 48.2184 46.1016 47.0938 42.8439C48.7104 41.8525 50.0261 40.4832 50.9399 39.2793C51.221 39.8459 51.7063 40.3776 51.8309 40.9872C51.9012 41.058 52.0537 41.1426 52.0537 41.2842C53.6 43.692 55.542 45.9134 58.1426 47.9671C60.1107 49.5252 61.6258 51.0872 62.8207 52.6452C63.1637 55.4099 64.0101 57.8742 64.6182 59.3759Z" fill="#CAEE66"/>
<path d="M50.819 39.3756C51.1002 39.9422 51.4516 40.4379 51.7328 41.0045C51.4516 40.4379 51.1002 39.9422 50.819 39.3756C48.9916 36.118 47.7264 32.2229 47.1641 27.5488C47.6561 31.3022 48.7104 35.4098 50.819 39.3756Z" fill="#A6E200"/>
<path d="M71.7671 34.4902C71.2048 36.4024 70.6425 37.8187 70.4316 38.3145C70.6425 37.3938 70.994 36.4732 71.3454 35.5525C71.5563 35.1984 71.6968 34.8443 71.7671 34.4902Z" fill="#A6E200"/>
<path d="M72.7452 28.5402C72.5343 20.5376 65.5759 14.0931 53.4863 14.2347C53.7675 14.2347 54.0486 14.2347 54.3298 14.2347C54.7515 14.2347 55.1732 14.2347 55.6653 14.2347C58.8282 14.2347 61.4289 14.6596 63.5375 15.297H63.6078C71.2691 17.634 72.9561 23.3704 72.7452 28.5402Z" fill="#A6E200"/>
<path d="M73.5397 58.056C74.0726 59.0388 74.298 60.1809 74.0594 61.273L71.7551 71.8171C71.3491 73.6753 69.7037 74.9998 67.8017 74.9998H66.4064C63.8397 74.9998 63.0746 73.2183 65.4868 72.3411C65.5452 72.3199 65.5771 72.3088 65.5771 72.3088C65.5771 72.3088 74.6602 68.3918 62.7656 53.0143C62.6953 52.4477 62.7656 51.5587 62.7656 50.9922C65.9286 52.7627 69.1618 53.8958 71.9733 54.6748C72.5241 56.0785 73.0898 57.2264 73.5397 58.056Z" fill="#66AA66"/>
<path d="M63.3264 54.0234C61.7077 50.7861 60.0206 49.5735 58.1228 48.0155C55.5222 45.9617 53.5541 43.6247 51.9375 41.2168C54.8896 45.6784 61.303 47.3463 62.7619 51.0607C62.7619 51.6272 68.5871 60.0935 63.3264 54.0234Z" fill="#66AA66"/>
<path d="M71.8991 54.6737C69.0876 53.8947 65.8544 52.7616 62.6914 50.9911C62.6914 46.6711 64.308 41.7138 70.3528 38.4561C70.3528 38.4561 70.3528 38.3853 70.4231 38.3145C68.7362 44.6882 70.2825 50.7078 71.8991 54.6737Z" fill="#66AA66"/>
<path d="M72.746 28.5402C72.6756 30.7356 72.254 32.7185 71.7619 34.4182C71.7619 34.4182 71.7619 34.4182 71.7619 34.489C71.6213 34.8431 71.4808 35.1973 71.3402 35.5513C70.9185 36.4719 70.6374 37.3926 70.4265 38.3132C70.3561 38.4549 70.3561 38.4549 70.3561 38.4549C64.3113 41.7126 62.6948 46.6699 62.765 51.0607C58.8289 48.8653 54.8928 45.7493 51.9407 41.2169C51.8704 41.146 51.8001 41.0752 51.8001 40.9336C51.4487 40.4378 51.1675 39.8713 50.8864 39.3046C57.4935 29.9566 47.4473 14.8505 47.4473 14.8505C47.4473 14.8505 47.6531 14.7304 48.0046 14.7304C48.0749 14.7304 48.2154 14.7304 48.2857 14.6596C50.1132 14.4472 51.8001 14.3055 53.4167 14.2347H53.487C65.5765 14.0931 72.5351 20.5376 72.746 28.5402Z" fill="#66AA66"/>
<path d="M47.1641 42.8466C43.6496 45.0421 38.3078 46.5293 30.3652 46.6C32.5442 31.7281 34.0844 16.7079 34.0844 16.7079C37.5285 17.0619 42.033 16.6435 47.4452 14.873C47.1641 15.6521 43.0171 30.7366 47.1641 42.8466Z" fill="#EA6766"/>
<path d="M50.9386 39.3557C50.0248 40.6304 48.6939 41.8543 47.0773 42.8457C42.9303 30.7356 47.1635 15.7048 47.3744 14.9258C47.3041 15.4215 46.2496 20.6796 47.093 27.4074V27.4782C47.7256 32.2231 49.1814 36.0979 50.9386 39.3557Z" fill="#EA6766"/>
<path d="M46.8002 27.2724C45.9567 20.4738 47.2222 15.3713 47.445 14.8516C47.445 14.8516 58.189 30.8059 50.7865 39.43C49.0293 36.1724 47.3625 31.9464 46.8002 27.2724Z" fill="#66AA66"/>
<path d="M71.4118 35.4803C71.5524 35.1262 71.6929 34.7721 71.8335 34.418C71.2712 36.3301 70.7089 37.7465 70.498 38.2422C70.7089 37.3924 70.9901 36.4717 71.4118 35.4803Z" fill="#66D2FF"/>
<path d="M72.7516 28.6113C72.8219 30.4526 72.4705 32.4356 71.7676 34.4185C72.2596 32.7897 72.6813 30.7359 72.7516 28.6113Z" fill="#FFBD00"/>
<path d="M79.9765 55.4617C80.1432 55.7551 79.918 56.1352 79.5819 56.1065C78.2374 55.9916 75.3776 55.6597 71.9053 54.747C70.2887 50.7813 68.7424 44.7615 70.4293 38.317C70.6401 37.8213 71.2024 36.405 71.7647 34.4928C71.7647 34.4928 71.7647 34.4928 71.7647 34.422C72.4676 32.4391 72.7488 30.4561 72.7488 28.6148V28.544C72.9596 23.3742 71.2727 17.6378 63.6113 15.3008C69.6561 17.0004 75.1386 21.108 75.1386 30.3145C75.1386 45.5982 78.7154 53.2418 79.9765 55.4617Z" fill="#66D2FF"/>
<path d="M72.7415 28.5409C72.5306 20.5383 65.5721 14.0938 53.4826 14.2354H53.4123C51.8659 14.3062 50.1087 14.4478 48.2812 14.6603C48.5624 14.5895 48.8436 14.5895 49.195 14.5187C49.3356 14.5187 49.4059 14.5187 49.5464 14.4478C49.687 14.4478 49.8979 14.4478 50.1087 14.377C50.5305 14.3062 51.0225 14.3062 51.5848 14.2354C51.7957 14.2354 52.0065 14.2354 52.2174 14.1646C52.358 14.1646 52.4282 14.1646 52.5688 14.1646C53.1311 14.1646 53.6934 14.0938 54.2557 14.0938C54.6775 14.0938 55.0992 14.0938 55.5912 14.0938C58.0513 14.1646 60.8628 14.4478 63.4635 15.156H63.5337C71.2655 17.6347 72.9524 23.3711 72.7415 28.5409Z" fill="#66D2FF"/>
<path fill-rule="evenodd" clip-rule="evenodd" d="M25.2333 0.0715762C25.2333 0.0715762 21.7892 1.13386 20.243 3.40008C20.3132 3.18762 20.8755 0.779769 20.1024 0.000756953C20.0321 -0.0700622 0 4.81647 0 19.6886C0 37.3225 10.3323 44.4753 10.7541 44.7585C-9.80679 14.1012 20.6993 8.48802 22.4924 8.15808L22.499 8.15687L22.5148 8.18387C10.8209 17.7417 9.55965 31.03 9.91062 38.668C9.91062 36.6851 10.1215 34.8438 10.5432 33.0733C11.3164 26.6288 13.8467 19.4052 21.0162 16.785C23.4058 14.7312 25.1631 13.6689 25.1631 13.6689H25.2333C24.3793 11.4185 22.7272 8.54945 22.5148 8.18387L22.5624 8.14497C22.5504 8.1474 22.5291 8.15133 22.499 8.15687L22.4921 8.14497C22.4921 8.14497 26.0065 3.47089 25.2333 0.0715762ZM13.5661 6.37404C13.5661 6.37404 16.448 2.05406 19.6108 0.920954C19.6812 0.920954 20.1731 6.09075 13.5661 6.37404ZM24.4606 1.34613C22.0708 2.62088 21.1571 5.24118 21.1571 5.24118C23.1152 4.70311 24.0715 2.2975 24.3642 1.56107C24.4182 1.42518 24.4496 1.34613 24.4606 1.34613Z" fill="#66D2FF"/>
<path d="M9.98501 38.6656C9.98501 40.6486 10.2662 42.6315 10.7582 44.7561C-10.1876 13.5248 21.8636 8.28422 22.5665 8.14258C10.8987 17.7032 9.56328 30.9463 9.98501 38.6656Z" fill="#66D2FF"/>
<path d="M10.7517 44.7584C10.1894 42.6338 9.97852 40.5801 9.97852 38.668C10.1894 42.2797 10.7517 44.6168 10.7517 44.7584Z" fill="#00B4FF"/>
<path d="M13.5586 6.37496C13.5586 6.37496 16.4404 2.05498 19.6034 0.921875C19.6737 0.921875 20.1657 6.09167 13.5586 6.37496Z" fill="#5AC8F6"/>
<path d="M24.3914 1.3457C24.3914 1.3457 23.4074 4.67421 21.0879 5.24077C21.1582 5.24077 22.0719 2.62045 24.3914 1.3457Z" fill="#5AC8F6"/>
</svg>
