<svg width="122" height="40" viewBox="0 0 122 40" fill="none" xmlns="http://www.w3.org/2000/svg">
<path d="M73.3326 14.3772C71.0611 14.3772 69.3909 15.2791 68.3554 16.7822C67.4201 15.2457 65.8835 14.3772 63.8124 14.3772C61.6746 14.3772 60.1046 15.2123 59.1692 16.6152V14.8448H54.8601V31.5469H59.1692V22.1603C59.1692 19.655 60.472 18.3856 62.3092 18.3856C64.1131 18.3856 65.1152 19.5882 65.1152 21.559V31.5469H69.4243V22.1603C69.4243 19.655 70.6269 18.3856 72.5309 18.3856C74.3347 18.3856 75.3369 19.5882 75.3369 21.559V31.5469H79.646V21.2584C79.646 17.0829 77.1407 14.3772 73.3326 14.3772Z" fill="#232939"/>
<path d="M95.9994 14.8448V16.8157C94.7969 15.3125 92.993 14.3772 90.5545 14.3772C86.1118 14.3772 82.4373 18.2186 82.4373 23.1958C82.4373 28.1731 86.1118 32.0145 90.5545 32.0145C92.993 32.0145 94.7969 31.0792 95.9994 29.576V31.5469H100.309V14.8448H95.9994ZM91.3562 27.9058C88.7173 27.9058 86.7465 26.0018 86.7465 23.1958C86.7465 20.3899 88.7173 18.4859 91.3562 18.4859C94.0286 18.4859 95.9994 20.3899 95.9994 23.1958C95.9994 26.0018 94.0286 27.9058 91.3562 27.9058Z" fill="#232939"/>
<path d="M113.77 18.9869V14.8448H109.995V10.1682L105.686 11.471V14.8448H102.78V18.9869H105.686V25.935C105.686 30.4445 107.723 32.215 113.77 31.5469V27.6386C111.298 27.7722 109.995 27.7388 109.995 25.935V18.9869H113.77Z" fill="#232939"/>
<path d="M118.946 12.8406C120.415 12.8406 121.618 11.638 121.618 10.2016C121.618 8.76525 120.415 7.5293 118.946 7.5293C117.509 7.5293 116.307 8.76525 116.307 10.2016C116.307 11.638 117.509 12.8406 118.946 12.8406ZM116.808 31.5469H121.117V14.8448H116.808V31.5469Z" fill="#232939"/>
<path d="M38.3105 18.3569C38.5355 17.4504 38.7604 16.3929 38.8354 15.2598C38.8354 16.2418 38.6479 17.2993 38.3105 18.3569Z" fill="#00AB62"/>
<path d="M5.7334 23.8693C5.4335 22.7362 5.32104 21.6409 5.32104 20.6211C5.4335 22.5474 5.7334 23.7938 5.7334 23.8693Z" fill="#00B4FF"/>
<path d="M5.7334 23.8694C5.69591 23.7939 5.39602 22.5475 5.32104 20.6212V20.5834C5.32104 19.5259 5.4335 18.5439 5.65843 17.5996C5.28356 20.8101 5.69591 23.6428 5.7334 23.8694Z" fill="#706766"/>
<path d="M11.2181 29.2444C10.0831 32.0684 9.01417 35.2202 8.36301 37.2165C7.97068 38.4193 6.85367 39.2435 5.58853 39.2435C4.47461 39.2435 4.13453 38.3244 5.17265 37.9205C5.45714 37.8098 5.66111 37.743 5.68974 37.7338C5.6928 37.7328 5.69335 37.7327 5.69636 37.7315C5.7905 37.6955 7.9327 36.7284 5.76816 23.8711C9.40436 25.7596 10.6933 26.4116 11.2181 29.2444Z" fill="#FFC766"/>
<path d="M5.7334 23.8693C5.4335 22.7362 5.32104 21.6409 5.32104 20.6211C5.4335 22.5474 5.7334 23.7938 5.7334 23.8693Z" fill="#FFA200"/>
<path d="M13.6467 24.7779C11.3601 24.6647 8.52554 24.8484 5.73706 23.8715C5.84952 23.6449 7.6836 19.3391 10.1202 14.1646C11.2823 13.7113 12.8186 13.1837 14.6152 13.9013C14.6152 13.9013 14.582 13.9428 14.6944 13.9805C15.1457 17.4674 14.6138 21.2122 13.6467 24.7779Z" fill="#EA6766"/>
<path d="M13.6467 24.7776C13.047 27.2704 12.2223 29.6121 11.435 31.6139C10.8727 28.7812 9.37327 25.7218 5.73706 23.8711C8.73599 24.3999 11.3601 24.6643 13.6467 24.7776Z" fill="#EA6766"/>
<path d="M16.1559 24.8548C15.3007 30.7635 14.2962 36.5719 13.4059 38.9499C13.1299 39.6871 12.3918 40.0005 11.6045 40.0005H11.3326C10.2598 40.0005 9.37662 39.6494 10.2394 39.0119C10.5547 38.7789 11.3732 38.0536 11.4417 37.6676C11.6322 36.5952 11.9306 34.2083 11.4326 31.6157C12.2198 29.6138 13.0445 27.2721 13.6443 24.7793C14.544 24.8548 15.3687 24.8548 16.1559 24.8548Z" fill="#EA6766"/>
<path d="M18.1742 8.90681C17.4995 8.75573 16.8997 8.64242 16.2999 8.56688C15.4002 8.45357 14.5755 8.45357 13.8258 8.49134C13.8258 8.49134 13.8258 8.52911 13.8633 8.52911C14.4631 9.73774 17.8368 11.8151 17.8368 11.8151C17.8368 14.3079 15.285 14.0149 14.6102 13.9394C14.8351 17.6408 14.4456 21.522 13.6208 24.8835C14.5205 24.9213 16.1532 24.8751 16.9404 24.8374C18.065 16.9434 18.2117 8.90681 18.1742 8.90681C18.2117 8.90681 18.2117 8.90681 18.1742 8.90681Z" fill="#EA6766"/>
<path d="M10.1542 14.166C7.71758 19.3405 5.84325 23.6463 5.73079 23.8729C5.73079 23.4952 5.58085 16.0167 10.1542 14.166Z" fill="#EA6766"/>
<path d="M13.8328 8.42478C13.4954 8.46254 13.158 8.50032 12.8582 8.53809C13.0456 8.12261 13.2705 7.70715 13.4954 7.25391C13.6079 7.55607 13.8328 8.34923 13.8328 8.42478Z" fill="#706766"/>
<path d="M13.4948 7.25391C13.2699 7.66938 13.0825 8.08485 12.8575 8.53809C12.2952 8.61363 11.7329 8.76471 11.2456 8.95355C12.5202 7.85823 13.4948 7.25391 13.4948 7.25391Z" fill="#706766"/>
<path d="M17.8432 11.745C17.8432 14.2378 15.2864 14.0128 14.6116 13.9373C14.4992 12.0488 14.3944 10.3097 13.8696 8.45898C14.4319 9.66762 17.8432 11.745 17.8432 11.745Z" fill="#706766"/>
<path d="M11.2418 8.95312C9.25496 10.6528 6.59341 13.6366 5.65625 17.6402C6.0686 14.2031 7.41812 10.3506 11.2418 8.95312Z" fill="#706766"/>
<path d="M12.8567 8.53711C11.9195 10.4256 11.0199 12.3519 10.1577 14.1648C5.54682 16.0156 5.73426 23.494 5.73426 23.8717C5.69677 23.6451 5.28442 20.8124 5.6218 17.6396C6.55896 13.5983 9.258 10.6522 11.2073 8.95258C11.7321 8.76373 12.2944 8.61265 12.8567 8.53711Z" fill="#706766"/>
<path d="M14.6133 13.9397C14.5008 13.9397 14.4945 13.9397 14.4945 13.9397C12.6951 13.4865 11.3208 13.6726 10.1587 14.1258C11.0209 12.3128 11.9206 10.3866 12.8577 8.49808C13.1576 8.46031 13.495 8.42254 13.8324 8.38477C13.8324 8.38477 13.8324 8.42254 13.8699 8.42254C14.3947 10.311 14.5008 12.089 14.6133 13.9397Z" fill="#706766"/>
<path d="M34.4625 31.6673C34.677 32.1972 34.7274 32.7875 34.5533 33.332L33.131 37.7795C32.8451 38.6735 32.014 39.2803 31.0753 39.2803H30.8569C29.4366 39.2803 28.9631 38.2209 30.2693 37.6632C30.4351 37.5924 30.5392 37.5527 30.5392 37.5527C30.5392 37.5527 33.237 33.8838 27.9652 27.5338C26.6157 26.2119 25.716 24.5878 25.1162 22.8504C25.9784 22.3216 26.6801 21.5913 27.1675 20.9492C27.3174 21.2514 27.5762 21.535 27.6427 21.8601C27.6802 21.8978 27.7615 21.9429 27.7615 22.0185C28.5862 23.3027 29.6219 24.4874 31.0089 25.5827C32.0585 26.4136 32.8666 27.2467 33.5038 28.0776C33.6868 29.5521 34.1382 30.8664 34.4625 31.6673Z" fill="#CAEE66"/>
<path d="M27.1019 21.0009C27.2518 21.3031 27.4393 21.5675 27.5892 21.8696C27.4393 21.5675 27.2518 21.3031 27.1019 21.0009C26.1272 19.2635 25.4525 17.1862 25.1526 14.6934C25.415 16.6952 25.9773 18.8858 27.1019 21.0009Z" fill="#A6E200"/>
<path d="M38.2738 18.3945C37.9739 19.4143 37.674 20.1697 37.5615 20.4341C37.674 19.9431 37.8614 19.4521 38.0489 18.9611C38.1613 18.7722 38.2363 18.5834 38.2738 18.3945Z" fill="#A6E200"/>
<path d="M38.7952 15.2225C38.6828 10.9545 34.9716 7.51748 28.5239 7.59302C28.6739 7.59302 28.8238 7.59302 28.9738 7.59302C29.1987 7.59302 29.4236 7.59302 29.686 7.59302C31.3729 7.59302 32.7599 7.81964 33.8845 8.15957H33.922C38.008 9.40598 38.9077 12.4653 38.7952 15.2225Z" fill="#A6E200"/>
<path d="M39.2203 30.9627C39.5045 31.4868 39.6248 32.0959 39.4975 32.6784L38.2686 38.3018C38.052 39.2929 37.1745 39.9993 36.1601 39.9993H35.4159C34.047 39.9993 33.639 39.0491 34.9255 38.5813C34.9566 38.57 34.9736 38.5641 34.9736 38.5641C34.9736 38.5641 39.8179 36.475 33.4742 28.2737C33.4367 27.9716 33.4742 27.4975 33.4742 27.1953C35.1611 28.1396 36.8855 28.7439 38.3849 29.1594C38.6787 29.908 38.9804 30.5202 39.2203 30.9627Z" fill="#66AA66"/>
<path d="M33.7708 28.8126C32.9075 27.086 32.0077 26.4393 30.9956 25.6083C29.6086 24.513 28.559 23.2666 27.6968 21.9824C29.2712 24.3619 32.6917 25.2515 33.4697 27.2324C33.4697 27.5346 36.5765 32.0499 33.7708 28.8126Z" fill="#66AA66"/>
<path d="M38.3453 29.1604C36.8459 28.7449 35.1215 28.1406 33.4346 27.1964C33.4346 24.8924 34.2968 22.2485 37.5206 20.5111C37.5206 20.5111 37.5206 20.4733 37.5581 20.4355C36.6584 23.8348 37.4831 27.0453 38.3453 29.1604Z" fill="#66AA66"/>
<path d="M38.7962 15.2225C38.7587 16.3934 38.5339 17.451 38.2714 18.3575C38.2714 18.3575 38.2714 18.3575 38.2714 18.3952C38.1964 18.5841 38.1215 18.773 38.0465 18.9617C37.8216 19.4528 37.6717 19.9438 37.5592 20.4348C37.5217 20.5103 37.5217 20.5103 37.5217 20.5103C34.2978 22.2478 33.4356 24.8917 33.4731 27.2334C31.3739 26.0625 29.2746 24.4007 27.7002 21.9834C27.6627 21.9456 27.6252 21.9078 27.6252 21.8323C27.4378 21.5679 27.2878 21.2658 27.1379 20.9635C30.6616 15.978 25.3037 7.92146 25.3037 7.92146C25.3037 7.92146 25.4135 7.85741 25.6009 7.85741C25.6384 7.85741 25.7134 7.85741 25.7509 7.81964C26.7255 7.70633 27.6252 7.63079 28.4874 7.59302H28.5249C34.9726 7.51748 38.6838 10.9545 38.7962 15.2225Z" fill="#66AA66"/>
<path d="M25.1522 22.8508C23.2778 24.0217 20.4289 24.8148 16.1929 24.8525C17.355 16.9209 18.1764 8.91019 18.1764 8.91019C20.0132 9.09904 22.4156 8.87589 25.3021 7.93164C25.1522 8.34711 22.9405 16.3921 25.1522 22.8508Z" fill="#EA6766"/>
<path d="M27.1679 20.9882C26.6806 21.668 25.9708 22.3207 25.1086 22.8495C22.8969 16.3908 25.1546 8.37445 25.267 7.95898C25.2296 8.22337 24.6672 11.0276 25.117 14.6158V14.6536C25.4544 17.1842 26.2308 19.2507 27.1679 20.9882Z" fill="#EA6766"/>
<path d="M24.9582 14.5443C24.5084 10.9184 25.1833 8.19714 25.3021 7.91992C25.3021 7.91992 31.0322 16.4288 27.0842 21.0283C26.1471 19.291 25.2581 17.0371 24.9582 14.5443Z" fill="#66AA66"/>
<path d="M38.083 18.922C38.158 18.7332 38.233 18.5443 38.3079 18.3555C38.008 19.3753 37.7082 20.1307 37.5957 20.395C37.7082 19.9418 37.8581 19.4508 38.083 18.922Z" fill="#66D2FF"/>
<path d="M38.799 15.2598C38.8365 16.2418 38.649 17.2993 38.2742 18.3569C38.5366 17.4882 38.7615 16.3929 38.799 15.2598Z" fill="#FFBD00"/>
<path d="M42.6536 29.5791C42.7424 29.7356 42.6224 29.9383 42.4431 29.923C41.726 29.8617 40.2008 29.6848 38.349 29.198C37.4868 27.0829 36.6621 23.8724 37.5617 20.4354C37.6742 20.171 37.9741 19.4156 38.274 18.3958C38.274 18.3958 38.274 18.3958 38.274 18.3581C38.6489 17.3005 38.7988 16.2429 38.7988 15.2609V15.2231C38.9113 12.4659 38.0116 9.40657 33.9255 8.16016C37.1494 9.06664 40.0733 11.2573 40.0733 16.1674C40.0733 24.3186 41.981 28.3952 42.6536 29.5791Z" fill="#66D2FF"/>
<path d="M38.7942 15.2207C38.6817 10.9527 34.9705 7.51563 28.5228 7.59117H28.4853C27.6606 7.62894 26.7234 7.70447 25.7488 7.81778C25.8987 7.78001 26.0487 7.78002 26.2361 7.74224C26.3111 7.74224 26.3486 7.74224 26.4235 7.70447C26.4985 7.70447 26.611 7.70447 26.7234 7.6667C26.9484 7.62893 27.2108 7.62894 27.5107 7.59117C27.6231 7.59117 27.7356 7.59117 27.848 7.5534C27.923 7.5534 27.9605 7.5534 28.0355 7.5534C28.3354 7.5534 28.6353 7.51562 28.9351 7.51562C29.1601 7.51562 29.385 7.51562 29.6474 7.51562C30.9594 7.55339 32.4589 7.70447 33.8459 8.08217H33.8834C38.0069 9.40412 38.9066 12.4635 38.7942 15.2207Z" fill="#66D2FF"/>
<path fill-rule="evenodd" clip-rule="evenodd" d="M13.4577 0.0381737C13.4577 0.0381737 11.6208 0.604723 10.7962 1.81336C10.8336 1.70005 11.1335 0.415873 10.7212 0.000403705C10.6837 -0.0373662 0 2.56876 0 10.5005C0 19.9052 5.51053 23.7199 5.73545 23.871C-5.23024 7.5206 11.0395 4.52691 11.9959 4.35094L11.9994 4.35029L12.0078 4.3647C5.77111 9.46216 5.09844 16.5492 5.28562 20.6228C5.28562 19.5652 5.39808 18.5832 5.623 17.639C6.03535 14.2019 7.38486 10.3493 11.2085 8.9519C12.483 7.85655 13.4202 7.29001 13.4202 7.29001H13.4577C13.0022 6.0898 12.1211 4.55967 12.0078 4.3647L12.0332 4.34395C12.0268 4.34525 12.0154 4.34734 11.9994 4.35029L11.9957 4.34395C11.9957 4.34395 13.87 1.85113 13.4577 0.0381737ZM7.23519 3.39946C7.23519 3.39946 8.77217 1.09549 10.459 0.491171C10.4965 0.491171 10.7589 3.24837 7.23519 3.39946ZM13.0456 0.71793C11.771 1.39779 11.2837 2.79527 11.2837 2.79527C12.328 2.5083 12.838 1.22533 12.9941 0.832566C13.0229 0.760092 13.0397 0.71793 13.0456 0.71793Z" fill="#66D2FF"/>
<path d="M5.32225 20.6206C5.32225 21.6782 5.47219 22.7357 5.7346 23.8688C-5.43641 7.21231 11.6575 4.41734 12.0323 4.3418C5.80957 9.44074 5.09733 16.5037 5.32225 20.6206Z" fill="#66D2FF"/>
<path d="M5.7334 23.8693C5.4335 22.7362 5.32104 21.6409 5.32104 20.6211C5.4335 22.5474 5.7334 23.7938 5.7334 23.8693Z" fill="#00B4FF"/>
<path d="M7.22827 3.40048C7.22827 3.40048 8.76523 1.09651 10.4521 0.492188C10.4896 0.492188 10.752 3.24939 7.22827 3.40048Z" fill="#5AC8F6"/>
<path d="M13.005 0.716797C13.005 0.716797 12.4802 2.49198 11.2432 2.79415C11.2807 2.79415 11.768 1.39666 13.005 0.716797Z" fill="#5AC8F6"/>
</svg>
