<svg width="30" height="29" viewBox="0 0 30 29" fill="none" xmlns="http://www.w3.org/2000/svg">
<path d="M26.9263 12.897C27.0844 12.2599 27.2424 11.5166 27.2951 10.7202C27.2951 11.4104 27.1634 12.1537 26.9263 12.897Z" fill="#00AB62"/>
<path d="M4.03201 16.7723C3.82123 15.9759 3.74219 15.2061 3.74219 14.4893C3.82123 15.8432 4.03201 16.7192 4.03201 16.7723Z" fill="#00B4FF"/>
<path d="M4.03201 16.7742C4.00566 16.7211 3.79488 15.8451 3.74219 14.4913V14.4647C3.74219 13.7214 3.82123 13.0312 3.97931 12.3676C3.71584 14.624 4.00566 16.615 4.03201 16.7742Z" fill="#706766"/>
<path d="M7.88798 20.5493C7.09024 22.5341 6.33894 24.7494 5.88127 26.1524C5.60553 26.9978 4.82045 27.5771 3.93126 27.5771C3.14835 27.5771 2.90932 26.9311 3.63896 26.6472C3.83891 26.5694 3.98227 26.5225 4.00239 26.516C4.00454 26.5153 4.00493 26.5152 4.00705 26.5144C4.07321 26.4891 5.57884 25.8093 4.05751 16.7727C6.61318 18.1 7.51912 18.5583 7.88798 20.5493Z" fill="#FFC766"/>
<path d="M4.03201 16.7723C3.82123 15.9759 3.74219 15.2061 3.74219 14.4893C3.82123 15.8432 4.03201 16.7192 4.03201 16.7723Z" fill="#FFA200"/>
<path d="M9.5905 17.4151C7.98333 17.3355 5.99111 17.4646 4.03125 16.778C4.11029 16.6187 5.39936 13.5924 7.11193 9.95557C7.92869 9.63701 9.00848 9.26618 10.2712 9.77056C10.2712 9.77056 10.2478 9.79968 10.3269 9.82623C10.6441 12.2769 10.2702 14.9089 9.5905 17.4151Z" fill="#EA6766"/>
<path d="M9.5905 17.4098C9.16895 19.1619 8.58931 20.8077 8.03602 22.2147C7.64081 20.2237 6.58693 18.0735 4.03125 16.7727C6.13902 17.1444 7.98333 17.3302 9.5905 17.4098Z" fill="#EA6766"/>
<path d="M11.3553 17.4634C10.7542 21.6163 10.0482 25.6987 9.42249 27.37C9.22848 27.8882 8.70974 28.1085 8.15641 28.1085H7.96526C7.21129 28.1085 6.59054 27.8617 7.19692 27.4136C7.41853 27.2498 7.9938 26.7401 8.04199 26.4688C8.17587 25.715 8.38562 24.0374 8.03557 22.2152C8.58886 20.8083 9.1685 19.1624 9.59006 17.4103C10.2224 17.4634 10.802 17.4634 11.3553 17.4634Z" fill="#EA6766"/>
<path d="M12.7745 6.26138C12.3003 6.15519 11.8787 6.07555 11.4572 6.02246C10.8248 5.94282 10.2452 5.94282 9.71826 5.96937C9.71826 5.96937 9.71826 5.99591 9.7446 5.99591C10.1662 6.84539 12.5374 8.30544 12.5374 8.30544C12.5374 10.0575 10.7438 9.85156 10.2696 9.79846C10.4277 12.4 10.1539 15.1279 9.57422 17.4905C10.2065 17.5171 11.354 17.4846 11.9073 17.458C12.6978 11.9098 12.8009 6.26138 12.7745 6.26138C12.8009 6.26138 12.8009 6.26138 12.7745 6.26138Z" fill="#EA6766"/>
<path d="M7.13963 9.95294C5.42707 13.5898 4.10971 16.6161 4.03067 16.7754C4.03067 16.5099 3.92528 11.2537 7.13963 9.95294Z" fill="#EA6766"/>
<path d="M9.72263 5.92401C9.4855 5.95055 9.24838 5.9771 9.0376 6.00365C9.16933 5.71164 9.32742 5.41963 9.4855 5.10107C9.56454 5.31344 9.72263 5.87092 9.72263 5.92401Z" fill="#706766"/>
<path d="M9.48561 5.10107C9.32753 5.39308 9.1958 5.68509 9.03771 6.00365C8.64251 6.05674 8.2473 6.16293 7.90479 6.29566C8.80059 5.52581 9.48561 5.10107 9.48561 5.10107Z" fill="#706766"/>
<path d="M12.5418 8.25869C12.5418 10.0107 10.7448 9.85263 10.2705 9.79954C10.1915 8.47222 10.1179 7.24993 9.74902 5.94916C10.1442 6.79864 12.5418 8.25869 12.5418 8.25869Z" fill="#706766"/>
<path d="M7.90473 6.29541C6.50833 7.48999 4.63768 9.58715 3.979 12.401C4.26882 9.98534 5.21732 7.27762 7.90473 6.29541Z" fill="#706766"/>
<path d="M9.03751 6.01016C8.37882 7.33748 7.74649 8.69133 7.14051 9.96556C3.89981 11.2663 4.03154 16.5225 4.03154 16.788C4.0052 16.6287 3.71538 14.6377 3.9525 12.4078C4.61118 9.56737 6.50818 7.49675 7.87823 6.30217C8.24709 6.16944 8.6423 6.06325 9.03751 6.01016Z" fill="#706766"/>
<path d="M10.2715 9.80457C10.1925 9.80457 10.188 9.80457 10.188 9.80457C8.92335 9.48601 7.95739 9.61681 7.14062 9.93537C7.74661 8.66114 8.37894 7.30728 9.03762 5.97997C9.2484 5.95342 9.48552 5.92688 9.72265 5.90033C9.72265 5.90033 9.72265 5.92688 9.749 5.92688C10.1179 7.25419 10.1925 8.5038 10.2715 9.80457Z" fill="#706766"/>
<path d="M24.2213 22.2512C24.3721 22.6236 24.4075 23.0385 24.2851 23.4212L23.2855 26.5471C23.0845 27.1755 22.5004 27.6019 21.8407 27.6019H21.6872C20.6889 27.6019 20.3561 26.8574 21.2742 26.4653C21.3907 26.4156 21.4638 26.3877 21.4638 26.3877C21.4638 26.3877 23.36 23.809 19.6547 19.346C18.7062 18.4169 18.0739 17.2754 17.6523 16.0543C18.2583 15.6826 18.7515 15.1694 19.094 14.7181C19.1994 14.9304 19.3813 15.1298 19.4281 15.3583C19.4544 15.3848 19.5116 15.4165 19.5116 15.4696C20.0912 16.3722 20.8191 17.2048 21.794 17.9747C22.5317 18.5587 23.0996 19.1442 23.5475 19.7282C23.6761 20.7645 23.9934 21.6883 24.2213 22.2512Z" fill="#CAEE66"/>
<path d="M19.0488 14.7599C19.1542 14.9723 19.2859 15.1581 19.3913 15.3705C19.2859 15.1581 19.1542 14.9723 19.0488 14.7599C18.3637 13.5388 17.8895 12.0787 17.6787 10.3267C17.8631 11.7336 18.2584 13.2733 19.0488 14.7599Z" fill="#A6E200"/>
<path d="M26.901 12.9274C26.6902 13.6441 26.4794 14.175 26.4004 14.3609C26.4794 14.0158 26.6112 13.6707 26.7429 13.3256C26.822 13.1928 26.8746 13.0601 26.901 12.9274Z" fill="#A6E200"/>
<path d="M27.2694 10.699C27.1904 7.69923 24.582 5.28352 20.0503 5.33661C20.1557 5.33661 20.2611 5.33661 20.3665 5.33661C20.5245 5.33661 20.6826 5.33661 20.8671 5.33661C22.0527 5.33661 23.0275 5.49589 23.8179 5.73481H23.8443C26.7161 6.61084 27.3485 8.76108 27.2694 10.699Z" fill="#A6E200"/>
<path d="M27.5669 21.7633C27.7667 22.1317 27.8512 22.5598 27.7617 22.9692L26.898 26.9216C26.7458 27.6181 26.129 28.1146 25.4161 28.1146H24.8931C23.9309 28.1146 23.6441 27.4468 24.5484 27.118C24.5702 27.1101 24.5822 27.1059 24.5822 27.1059C24.5822 27.1059 27.987 25.6376 23.5283 19.8734C23.502 19.6611 23.5283 19.3278 23.5283 19.1155C24.7139 19.7791 25.9259 20.2039 26.9798 20.4959C27.1862 21.0221 27.3983 21.4523 27.5669 21.7633Z" fill="#66AA66"/>
<path d="M23.7393 20.2536C23.1325 19.0401 22.5001 18.5856 21.7888 18.0016C20.8139 17.2317 20.0762 16.3557 19.4702 15.4531C20.5768 17.1255 22.9808 17.7508 23.5277 19.1431C23.5277 19.3554 25.7113 22.529 23.7393 20.2536Z" fill="#66AA66"/>
<path d="M26.9529 20.4947C25.8991 20.2027 24.6871 19.7779 23.5015 19.1143C23.5015 17.495 24.1074 15.6367 26.3733 14.4156C26.3733 14.4156 26.3733 14.389 26.3996 14.3625C25.7673 16.7517 26.347 19.0081 26.9529 20.4947Z" fill="#66AA66"/>
<path d="M27.2697 10.699C27.2434 11.5219 27.0853 12.2652 26.9008 12.9023C26.9008 12.9023 26.9008 12.9023 26.9008 12.9288C26.8482 13.0616 26.7955 13.1943 26.7428 13.327C26.5847 13.6721 26.4793 14.0172 26.4003 14.3623C26.3739 14.4154 26.3739 14.4154 26.3739 14.4154C24.108 15.6366 23.5021 17.4948 23.5284 19.1407C22.053 18.3177 20.5775 17.1497 19.471 15.4508C19.4446 15.4242 19.4183 15.3977 19.4183 15.3446C19.2865 15.1587 19.1811 14.9464 19.0758 14.734C21.5524 11.2299 17.7866 5.56745 17.7866 5.56745C17.7866 5.56745 17.8638 5.52244 17.9955 5.52244C18.0219 5.52244 18.0746 5.52244 18.1009 5.49589C18.7859 5.41625 19.4183 5.36316 20.0243 5.33661H20.0506C24.5823 5.28352 27.1907 7.69923 27.2697 10.699Z" fill="#66AA66"/>
<path d="M17.6788 16.061C16.3614 16.884 14.3591 17.4414 11.3818 17.4679C12.1986 11.8933 12.7759 6.26299 12.7759 6.26299C14.0669 6.39572 15.7555 6.23888 17.7842 5.57523C17.6788 5.86723 16.1243 11.5216 17.6788 16.061Z" fill="#EA6766"/>
<path d="M19.0945 14.7541C18.752 15.2319 18.2531 15.6907 17.6471 16.0623C16.0926 11.5229 17.6794 5.88863 17.7585 5.59662C17.7321 5.78244 17.3368 7.7534 17.653 10.2753V10.3018C17.8901 12.0805 18.4358 13.5329 19.0945 14.7541Z" fill="#EA6766"/>
<path d="M17.5444 10.2205C17.2282 7.67201 17.7026 5.75938 17.7861 5.56454C17.7861 5.56454 21.8135 11.545 19.0386 14.7777C18.38 13.5566 17.7552 11.9725 17.5444 10.2205Z" fill="#66AA66"/>
<path d="M26.7688 13.295C26.8215 13.1623 26.8742 13.0296 26.9269 12.8969C26.7161 13.6136 26.5053 14.1445 26.4263 14.3303C26.5053 14.0118 26.6107 13.6667 26.7688 13.295Z" fill="#66D2FF"/>
<path d="M27.2692 10.7202C27.2956 11.4104 27.1639 12.1537 26.9004 12.897C27.0848 12.2864 27.2429 11.5166 27.2692 10.7202Z" fill="#FFBD00"/>
<path d="M29.9791 20.7985C30.0416 20.9085 29.9572 21.051 29.8312 21.0402C29.3272 20.9971 28.2553 20.8727 26.9537 20.5306C26.3477 19.0441 25.7681 16.7876 26.4004 14.3719C26.4794 14.1861 26.6902 13.6552 26.901 12.9384C26.901 12.9384 26.901 12.9384 26.901 12.9119C27.1645 12.1686 27.2699 11.4253 27.2699 10.7351V10.7085C27.3489 8.77063 26.7166 6.62038 23.8447 5.74435C26.1106 6.38147 28.1657 7.92115 28.1657 11.3722C28.1657 17.1012 29.5064 19.9664 29.9791 20.7985Z" fill="#66D2FF"/>
<path d="M27.2694 10.7024C27.1904 7.70264 24.582 5.28693 20.0503 5.34002H20.0239C19.4443 5.36657 18.7856 5.41966 18.1006 5.4993C18.206 5.47275 18.3114 5.47275 18.4431 5.4462C18.4958 5.4462 18.5221 5.4462 18.5748 5.41966C18.6275 5.41966 18.7066 5.41966 18.7856 5.39311C18.9437 5.36656 19.1281 5.36657 19.3389 5.34002C19.4179 5.34002 19.497 5.34002 19.576 5.31347C19.6287 5.31347 19.6551 5.31347 19.7078 5.31347C19.9185 5.31347 20.1293 5.28693 20.3401 5.28693C20.4982 5.28693 20.6563 5.28693 20.8407 5.28693C21.7628 5.31347 22.8167 5.41966 23.7916 5.68512H23.8179C26.7161 6.61424 27.3485 8.76449 27.2694 10.7024Z" fill="#66D2FF"/>
<path fill-rule="evenodd" clip-rule="evenodd" d="M9.4586 0.0268301C9.4586 0.0268301 8.1676 0.425024 7.58799 1.2745C7.6143 1.19487 7.82508 0.292293 7.53531 0.00028374C7.50894 -0.0262625 0 1.80543 0 7.38018C0 13.9902 3.87303 16.6714 4.03111 16.7775C-3.67603 5.28579 7.75904 3.1817 8.43119 3.05802L8.43367 3.05757L8.43956 3.06769C4.05617 6.6504 3.58339 11.6315 3.71495 14.4945C3.71495 13.7512 3.79399 13.061 3.95207 12.3974C4.24189 9.98171 5.19039 7.27394 7.87783 6.29177C8.77358 5.52191 9.43229 5.12372 9.43229 5.12372H9.4586C9.13849 4.28016 8.51918 3.20473 8.43956 3.06769L8.45743 3.05311C8.45291 3.05402 8.44494 3.05549 8.43367 3.05757L8.43106 3.05311C8.43106 3.05311 9.74844 1.30105 9.4586 0.0268301ZM5.08519 2.38928C5.08519 2.38928 6.16544 0.769956 7.35103 0.345216C7.3774 0.345216 7.56181 2.28309 5.08519 2.38928ZM9.16895 0.504591C8.27314 0.982426 7.93063 1.96463 7.93063 1.96463C8.66463 1.76294 9.02308 0.86121 9.13281 0.585162C9.15306 0.534224 9.16484 0.504591 9.16895 0.504591Z" fill="#66D2FF"/>
<path d="M3.74121 14.4937C3.74121 15.237 3.84659 15.9803 4.03102 16.7767C-3.82043 5.06982 8.19386 3.1054 8.45733 3.05231C4.08372 6.63605 3.58312 11.6002 3.74121 14.4937Z" fill="#66D2FF"/>
<path d="M4.03201 16.7723C3.82123 15.9759 3.74219 15.2061 3.74219 14.4893C3.82123 15.8432 4.03201 16.7192 4.03201 16.7723Z" fill="#00B4FF"/>
<path d="M5.08398 2.38739C5.08398 2.38739 6.16422 0.768063 7.34984 0.343323C7.37619 0.343323 7.56062 2.2812 5.08398 2.38739Z" fill="#5AC8F6"/>
<path d="M9.14262 0.498474C9.14262 0.498474 8.77376 1.74615 7.9043 1.95852C7.93064 1.95852 8.27316 0.976308 9.14262 0.498474Z" fill="#5AC8F6"/>
</svg>
