<svg width="100" height="30" viewBox="0 0 100 30" fill="none" xmlns="http://www.w3.org/2000/svg">
<path d="M51.6218 11.2676C50.3157 11.2676 49.3553 11.7862 48.7599 12.6506C48.222 11.767 47.3385 11.2676 46.1476 11.2676C44.9183 11.2676 44.0156 11.7478 43.4778 12.5545V11.5365H41V21.1403H43.4778V15.743C43.4778 14.3024 44.2269 13.5725 45.2833 13.5725C46.3205 13.5725 46.8967 14.264 46.8967 15.3973V21.1403H49.3745V15.743C49.3745 14.3024 50.066 13.5725 51.1608 13.5725C52.198 13.5725 52.7742 14.264 52.7742 15.3973V21.1403H55.252V15.2244C55.252 12.8234 53.8114 11.2676 51.6218 11.2676Z" fill="#EDF0F5"/>
<path d="M64.6553 11.5365V12.6698C63.9638 11.8054 62.9266 11.2676 61.5245 11.2676C58.9699 11.2676 56.857 13.4765 56.857 16.3384C56.857 19.2004 58.9699 21.4092 61.5245 21.4092C62.9266 21.4092 63.9638 20.8714 64.6553 20.0071V21.1403H67.1331V11.5365H64.6553ZM61.9855 19.0467C60.4681 19.0467 59.3348 17.9519 59.3348 16.3384C59.3348 14.725 60.4681 13.6302 61.9855 13.6302C63.5221 13.6302 64.6553 14.725 64.6553 16.3384C64.6553 17.9519 63.5221 19.0467 61.9855 19.0467Z" fill="#EDF0F5"/>
<path d="M74.8733 13.9183V11.5365H72.7028V8.84748L70.2251 9.59657V11.5365H68.554V13.9183H70.2251V17.9134C70.2251 20.5065 71.3967 21.5245 74.8733 21.1403V18.893C73.4519 18.9699 72.7028 18.9507 72.7028 17.9134V13.9183H74.8733Z" fill="#EDF0F5"/>
<path d="M77.8496 10.3841C78.6947 10.3841 79.3862 9.69261 79.3862 8.86668C79.3862 8.04076 78.6947 7.33008 77.8496 7.33008C77.0236 7.33008 76.3322 8.04076 76.3322 8.86668C76.3322 9.69261 77.0236 10.3841 77.8496 10.3841ZM76.6203 21.1403H79.0981V11.5365H76.6203V21.1403Z" fill="#EDF0F5"/>
<path d="M22.0288 13.555C22.1581 13.0338 22.2875 12.4257 22.3306 11.7742C22.3306 12.3388 22.2228 12.9469 22.0288 13.555Z" fill="#00AB62"/>
<path d="M3.29668 16.7254C3.12424 16.0739 3.05957 15.4441 3.05957 14.8577C3.12424 15.9653 3.29668 16.682 3.29668 16.7254Z" fill="#00B4FF"/>
<path d="M3.29668 16.7253C3.27512 16.6819 3.10268 15.9652 3.05957 14.8576V14.8358C3.05957 14.2277 3.12424 13.6631 3.25357 13.1201C3.03802 14.9661 3.27512 16.595 3.29668 16.7253Z" fill="#706766"/>
<path d="M6.45047 19.8162C5.79783 21.44 5.18318 23.2524 4.80875 24.4003C4.58317 25.0919 3.94088 25.5658 3.21342 25.5658C2.57291 25.5658 2.37736 25.0373 2.97428 24.805C3.13786 24.7414 3.25515 24.703 3.27161 24.6977C3.27337 24.6971 3.27369 24.697 3.27542 24.6964C3.32955 24.6757 4.56133 24.1196 3.3167 16.7266C5.40754 17.8125 6.1487 18.1874 6.45047 19.8162Z" fill="#FFC766"/>
<path d="M3.29668 16.7254C3.12424 16.0739 3.05957 15.4441 3.05957 14.8577C3.12424 15.9653 3.29668 16.682 3.29668 16.7254Z" fill="#FFA200"/>
<path d="M7.84694 17.2473C6.53208 17.1822 4.90222 17.2878 3.29883 16.7261C3.36349 16.5958 4.4181 14.1199 5.81918 11.1446C6.48739 10.884 7.37078 10.5806 8.40382 10.9932C8.40382 10.9932 8.38469 11.0171 8.44937 11.0388C8.70887 13.0437 8.40302 15.197 7.84694 17.2473Z" fill="#EA6766"/>
<path d="M7.84694 17.2478C7.50206 18.6812 7.02785 20.0277 6.57519 21.1787C6.25187 19.5499 5.38967 17.7907 3.29883 16.7266C5.02323 17.0306 6.53208 17.1826 7.84694 17.2478Z" fill="#EA6766"/>
<path d="M9.2898 17.2912C8.79804 20.6888 8.22042 24.0286 7.70852 25.3959C7.5498 25.8199 7.12541 26.0001 6.67272 26.0001H6.51634C5.8995 26.0001 5.39167 25.7982 5.88775 25.4316C6.06906 25.2976 6.53969 24.8806 6.57912 24.6586C6.68865 24.042 6.86024 22.6695 6.57387 21.1787C7.02652 20.0277 7.50073 18.6812 7.84562 17.2478C8.36294 17.2912 8.83715 17.2912 9.2898 17.2912Z" fill="#EA6766"/>
<path d="M10.4503 8.12152C10.0623 8.03464 9.71738 7.96949 9.3725 7.92605C8.85518 7.8609 8.38097 7.8609 7.94987 7.88262C7.94987 7.88262 7.94987 7.90434 7.97143 7.90434C8.31631 8.59931 10.2563 9.79379 10.2563 9.79379C10.2563 11.2272 8.7889 11.0587 8.40091 11.0153C8.53024 13.1436 8.30624 15.3753 7.83203 17.3082C8.34935 17.33 9.28813 17.3034 9.74079 17.2817C10.3874 12.7426 10.4718 8.12152 10.4503 8.12152C10.4718 8.12152 10.4718 8.12152 10.4503 8.12152Z" fill="#EA6766"/>
<path d="M5.83874 11.145C4.43766 14.1204 3.35991 16.5962 3.29525 16.7265C3.29525 16.5093 3.20903 12.2092 5.83874 11.145Z" fill="#EA6766"/>
<path d="M7.95399 7.84415C7.75999 7.86587 7.56599 7.88759 7.39355 7.90931C7.50133 7.67041 7.63066 7.43151 7.75999 7.1709C7.82466 7.34464 7.95399 7.80072 7.95399 7.84415Z" fill="#706766"/>
<path d="M7.75961 7.1709C7.63028 7.4098 7.52251 7.64869 7.39317 7.90931C7.06985 7.95275 6.74652 8.03962 6.46631 8.1482C7.19918 7.51839 7.75961 7.1709 7.75961 7.1709Z" fill="#706766"/>
<path d="M10.2599 9.75396C10.2599 11.1873 8.78975 11.058 8.40176 11.0146C8.33709 9.92866 8.27687 8.92868 7.9751 7.8645C8.29842 8.55947 10.2599 9.75396 10.2599 9.75396Z" fill="#706766"/>
<path d="M6.46414 8.14819C5.32172 9.1255 3.79131 10.8412 3.25244 13.1433C3.48955 11.167 4.26552 8.95176 6.46414 8.14819Z" fill="#706766"/>
<path d="M7.39265 7.90918C6.85377 8.99508 6.33645 10.1027 5.84068 11.1452C3.18942 12.2093 3.29719 16.5095 3.29719 16.7267C3.27564 16.5964 3.03853 14.9675 3.23253 13.1432C3.7714 10.8194 5.32337 9.12538 6.44423 8.14808C6.746 8.03949 7.06932 7.95262 7.39265 7.90918Z" fill="#706766"/>
<path d="M8.40273 11.0152C8.33807 11.0152 8.33442 11.0152 8.33442 11.0152C7.29978 10.7545 6.50951 10.8616 5.84131 11.1222C6.33707 10.0797 6.85439 8.9721 7.39327 7.8862C7.56571 7.86448 7.75971 7.84276 7.9537 7.82104C7.9537 7.82104 7.95371 7.84276 7.97526 7.84276C8.27703 8.92866 8.33807 9.95098 8.40273 11.0152Z" fill="#706766"/>
<path d="M19.8161 21.2084C19.9394 21.5131 19.9684 21.8525 19.8683 22.1656L19.0504 24.7229C18.886 25.237 18.4082 25.5859 17.8684 25.5859H17.7428C16.9261 25.5859 16.6539 24.9767 17.405 24.656C17.5003 24.6153 17.5601 24.5925 17.5601 24.5925C17.5601 24.5925 19.1114 22.4828 16.0801 18.8316C15.3041 18.0715 14.7868 17.1376 14.4419 16.1386C14.9377 15.8345 15.3412 15.4146 15.6214 15.0454C15.7076 15.2192 15.8564 15.3822 15.8946 15.5692C15.9162 15.5909 15.9629 15.6168 15.9629 15.6602C16.4372 16.3987 17.0327 17.0799 17.8302 17.7097C18.4338 18.1875 18.8984 18.6665 19.2648 19.1443C19.37 19.9921 19.6296 20.7478 19.8161 21.2084Z" fill="#CAEE66"/>
<path d="M15.5838 15.0754C15.67 15.2491 15.7777 15.4011 15.864 15.5749C15.7777 15.4011 15.67 15.2491 15.5838 15.0754C15.0233 14.0764 14.6353 12.8819 14.4629 11.4485C14.6138 12.5995 14.9371 13.8592 15.5838 15.0754Z" fill="#A6E200"/>
<path d="M22.0077 13.5771C21.8353 14.1635 21.6628 14.5979 21.5981 14.7499C21.6628 14.4676 21.7706 14.1853 21.8784 13.9029C21.943 13.7943 21.9861 13.6857 22.0077 13.5771Z" fill="#A6E200"/>
<path d="M22.3074 11.7532C22.2428 9.29908 20.1088 7.32275 16.4014 7.36618C16.4876 7.36618 16.5738 7.36618 16.66 7.36618C16.7894 7.36618 16.9187 7.36618 17.0696 7.36618C18.0395 7.36618 18.8371 7.49649 19.4837 7.69195H19.5053C21.8548 8.40864 22.3721 10.1678 22.3074 11.7532Z" fill="#A6E200"/>
<path d="M22.5519 20.8037C22.7153 21.1051 22.7845 21.4553 22.7113 21.7902L22.0047 25.0238C21.8801 25.5936 21.3756 25.9998 20.7923 25.9998H20.3644C19.5772 25.9998 19.3426 25.4535 20.0824 25.1844C20.1003 25.1779 20.1101 25.1745 20.1101 25.1745C20.1101 25.1745 22.8955 23.9733 19.2479 19.2576C19.2263 19.0838 19.2479 18.8112 19.2479 18.6375C20.2178 19.1804 21.2094 19.5279 22.0716 19.7668C22.2405 20.1973 22.414 20.5493 22.5519 20.8037Z" fill="#66AA66"/>
<path d="M19.4184 19.5678C18.922 18.575 18.4046 18.2031 17.8226 17.7253C17.0251 17.0955 16.4215 16.3788 15.9258 15.6404C16.8311 17.0086 18.7979 17.5201 19.2453 18.6592C19.2453 18.8329 21.0317 21.4292 19.4184 19.5678Z" fill="#66AA66"/>
<path d="M22.0488 19.7668C21.1866 19.5279 20.1951 19.1805 19.2251 18.6375C19.2251 17.3127 19.7209 15.7925 21.5746 14.7934C21.5746 14.7934 21.5746 14.7717 21.5961 14.75C21.0788 16.7046 21.553 18.5506 22.0488 19.7668Z" fill="#66AA66"/>
<path d="M22.3081 11.7532C22.2865 12.4265 22.1572 13.0346 22.0063 13.5558C22.0063 13.5558 22.0063 13.5558 22.0063 13.5775C21.9632 13.6861 21.9201 13.7947 21.877 13.9033C21.7476 14.1856 21.6614 14.4679 21.5968 14.7503C21.5752 14.7937 21.5752 14.7937 21.5752 14.7937C19.7215 15.7928 19.2257 17.313 19.2473 18.6595C18.0402 17.9862 16.8331 17.0307 15.9278 15.6407C15.9062 15.619 15.8847 15.5973 15.8847 15.5539C15.7769 15.4018 15.6907 15.2281 15.6045 15.0543C17.6306 12.1876 14.5498 7.55503 14.5498 7.55503C14.5498 7.55503 14.6129 7.51821 14.7207 7.51821C14.7423 7.51821 14.7854 7.51821 14.8069 7.49649C15.3674 7.43133 15.8847 7.3879 16.3804 7.36618H16.402C20.1094 7.32275 22.2434 9.29908 22.3081 11.7532Z" fill="#66AA66"/>
<path d="M14.4627 16.1396C13.3849 16.8129 11.7467 17.269 9.31104 17.2906C9.97924 12.7299 10.4516 8.12371 10.4516 8.12371C11.5078 8.2323 12.8892 8.10398 14.5489 7.56104C14.4627 7.79993 13.1909 12.4258 14.4627 16.1396Z" fill="#EA6766"/>
<path d="M15.6216 15.0688C15.3414 15.4597 14.9333 15.835 14.4375 16.139C13.1658 12.4253 14.464 7.8158 14.5286 7.5769C14.5071 7.72893 14.1837 9.3414 14.4424 11.4046V11.4263C14.6363 12.8814 15.0828 14.0697 15.6216 15.0688Z" fill="#EA6766"/>
<path d="M14.3511 11.3635C14.0924 9.27859 14.4805 7.71384 14.5488 7.55444C14.5488 7.55444 17.8436 12.4471 15.5735 15.0918C15.0346 14.0928 14.5235 12.7969 14.3511 11.3635Z" fill="#66AA66"/>
<path d="M21.8979 13.8807C21.941 13.7721 21.9841 13.6635 22.0272 13.5549C21.8548 14.1413 21.6823 14.5757 21.6177 14.7277C21.6823 14.4671 21.7686 14.1848 21.8979 13.8807Z" fill="#66D2FF"/>
<path d="M22.3096 11.7742C22.3311 12.3388 22.2234 12.9469 22.0078 13.555C22.1587 13.0555 22.288 12.4257 22.3096 11.7742Z" fill="#FFBD00"/>
<path d="M24.526 20.0084C24.5771 20.0984 24.5081 20.215 24.405 20.2061C23.9926 20.1709 23.1156 20.0691 22.0508 19.7893C21.5551 18.5731 21.0808 16.727 21.5982 14.7507C21.6628 14.5987 21.8353 14.1643 22.0077 13.5779C22.0077 13.5779 22.0077 13.5779 22.0077 13.5562C22.2233 12.9481 22.3095 12.34 22.3095 11.7754V11.7536C22.3741 10.1682 21.8568 8.40908 19.5073 7.69238C21.3611 8.21361 23.0423 9.47325 23.0423 12.2966C23.0423 16.9836 24.1393 19.3276 24.526 20.0084Z" fill="#66D2FF"/>
<path d="M22.3068 11.7525C22.2422 9.29835 20.1082 7.32202 16.4007 7.36546H16.3792C15.905 7.38718 15.3661 7.43061 14.8057 7.49576C14.8919 7.47405 14.9781 7.47405 15.0859 7.45233C15.129 7.45233 15.1505 7.45233 15.1937 7.43061C15.2368 7.43061 15.3014 7.43061 15.3661 7.40889C15.4954 7.38717 15.6463 7.38718 15.8188 7.36546C15.8834 7.36546 15.9481 7.36546 16.0127 7.34374C16.0559 7.34374 16.0774 7.34374 16.1205 7.34374C16.293 7.34374 16.4654 7.32202 16.6378 7.32202C16.7672 7.32202 16.8965 7.32202 17.0474 7.32202C17.8018 7.34374 18.664 7.43061 19.4615 7.64779H19.4831C21.8542 8.40792 22.3715 10.1671 22.3068 11.7525Z" fill="#66D2FF"/>
<path fill-rule="evenodd" clip-rule="evenodd" d="M7.73823 3.02195C7.73823 3.02195 6.68204 3.34772 6.20786 4.04269C6.22938 3.97754 6.40182 3.23913 6.16476 3.00023C6.14318 2.97851 0 4.47705 0 9.03783C0 14.4456 3.16859 16.6391 3.29792 16.726C-3.00742 7.32439 6.3478 5.603 6.89769 5.50181L6.89972 5.50144L6.90454 5.50972C3.31842 8.44079 2.93163 12.5159 3.03926 14.8582C3.03926 14.2501 3.10392 13.6854 3.23325 13.1425C3.47036 11.1662 4.24634 8.95092 6.44497 8.14739C7.1778 7.51756 7.71671 7.19179 7.71671 7.19179H7.73823C7.47634 6.50167 6.96968 5.62184 6.90454 5.50972L6.91916 5.49779C6.91546 5.49854 6.90894 5.49974 6.89972 5.50144L6.89758 5.49779C6.89758 5.49779 7.97535 4.06441 7.73823 3.02195ZM4.16027 4.95471C4.16027 4.95471 5.04405 3.62991 6.01399 3.28243C6.03557 3.28243 6.18644 4.86783 4.16027 4.95471ZM7.50126 3.41281C6.76839 3.80374 6.48817 4.6073 6.48817 4.6073C7.08867 4.44229 7.38192 3.70457 7.4717 3.47873C7.48827 3.43706 7.4979 3.41281 7.50126 3.41281Z" fill="#66D2FF"/>
<path d="M3.06039 14.857C3.06039 15.4651 3.1466 16.0732 3.29749 16.7247C-3.1259 7.14714 6.70317 5.54002 6.91872 5.49658C3.3406 8.4285 2.93106 12.4897 3.06039 14.857Z" fill="#66D2FF"/>
<path d="M3.29668 16.7254C3.12424 16.0739 3.05957 15.4441 3.05957 14.8577C3.12424 15.9653 3.29668 16.682 3.29668 16.7254Z" fill="#00B4FF"/>
<path d="M4.15625 4.95475C4.15625 4.95475 5.04001 3.62996 6.00998 3.28247C6.03154 3.28247 6.18242 4.86788 4.15625 4.95475Z" fill="#5AC8F6"/>
<path d="M7.47793 3.41235C7.47793 3.41235 7.17616 4.4331 6.46484 4.60684C6.4864 4.60684 6.76661 3.80328 7.47793 3.41235Z" fill="#5AC8F6"/>
</svg>
