<svg width="60" height="25" viewBox="0 0 60 25" fill="none" xmlns="http://www.w3.org/2000/svg">
<path d="M8.51081 5.40847C8.30323 5.43175 8.09565 5.45502 7.91113 5.47829C8.02646 5.22229 8.16484 4.96629 8.30323 4.68701C8.37242 4.8732 8.51081 5.36193 8.51081 5.40847Z" fill="#130501"/>
<path d="M24.4251 19.7916L23.318 24.8651H20.1582C20.5503 23.9807 21.519 23.9807 21.519 23.9807C21.519 23.9807 23.2027 20.7924 20.6195 17.5341C20.5964 17.348 20.5964 17.1618 20.5964 16.9756C21.6343 17.5574 22.6953 17.9298 23.6179 18.1858C24.01 19.1865 24.4251 19.7916 24.4251 19.7916Z" fill="#00AB62"/>
<path d="M17.2521 4.89648C17.3444 4.89648 17.4366 4.89648 17.5058 4.89648C16.9984 4.91976 16.4218 4.9663 15.8221 5.03612C15.776 5.03612 15.7529 5.03612 15.7298 5.05939C15.6376 5.08267 15.5684 5.08267 15.5684 5.08267C15.3608 6.64196 15.3377 8.01506 15.4761 9.24853C15.1993 7.0376 15.5223 5.24558 15.5684 5.10594C15.776 5.08267 15.9605 5.03612 16.1681 5.03612C16.2142 5.03612 16.2373 5.03612 16.2834 5.01285C16.3295 5.01285 16.3987 5.01285 16.4679 4.98958C16.6063 4.9663 16.7677 4.9663 16.9523 4.94303C17.0214 4.94303 17.0906 4.94303 17.1598 4.91976C17.1829 4.89648 17.229 4.89648 17.2521 4.89648Z" fill="#00AB62"/>
<path d="M23.5723 11.5295C23.7107 10.9709 23.849 10.3193 23.8952 9.62109C23.8952 10.2262 23.7798 10.8778 23.5723 11.5295Z" fill="#00AB62"/>
<path d="M15.4763 14.2988C14.3231 15.0203 12.5702 15.509 9.96387 15.5322C10.6789 10.6449 11.2094 5.66451 11.2094 5.66451C12.3395 5.78087 13.7926 5.68778 15.5685 5.10596C15.4763 5.36196 14.1155 10.3191 15.4763 14.2988Z" fill="#FF527E"/>
<path d="M10.0326 5.45518C9.47903 5.38536 8.97161 5.38536 8.51032 5.40864C8.48725 5.33882 8.48725 5.29227 8.46419 5.22245C8.44112 5.08282 8.37193 4.89663 8.30273 4.71045C8.39499 4.78027 8.97161 5.17591 10.0326 5.45518Z" fill="#FF527E"/>
<path fill-rule="evenodd" clip-rule="evenodd" d="M8.28016 0.242272C8.28016 0.242272 7.15 0.591366 6.64261 1.3361C6.66564 1.26628 6.85016 0.475002 6.59649 0.218999C6.5734 0.195726 0 1.80156 0 6.68891C0 12.4839 3.39049 14.8344 3.52888 14.9275C-3.21804 4.85277 6.79236 3.00813 7.38075 2.8997L7.38292 2.8993L7.38808 2.90818C3.55082 6.04912 3.13694 10.416 3.25211 12.926C3.25211 12.2744 3.3213 11.6693 3.45969 11.0875C3.71339 8.96966 4.54372 6.59577 6.89633 5.73471C7.68048 5.05978 8.25713 4.71069 8.25713 4.71069H8.28016C7.99993 3.97115 7.45778 3.02832 7.38808 2.90818L7.40372 2.89539L7.38292 2.8993L7.38064 2.89539C7.38064 2.89539 8.53388 1.35937 8.28016 0.242272ZM4.45146 2.31357C4.45146 2.31357 5.39713 0.893915 6.435 0.521547C6.45808 0.521547 6.61952 2.22047 4.45146 2.31357ZM8.02643 0.661184C7.24222 1.0801 6.94238 1.9412 6.94238 1.9412C7.58493 1.76437 7.89873 0.97383 7.99479 0.73182C8.01252 0.687164 8.02283 0.661184 8.02643 0.661184Z" fill="#00B4FF"/>
<path d="M3.5291 14.9273C3.34458 14.2291 3.27539 13.5542 3.27539 12.9258C3.34458 14.1127 3.5291 14.8807 3.5291 14.9273Z" fill="#00B4FF"/>
<path d="M8.30282 4.68701C8.16443 4.94301 8.04911 5.19902 7.91072 5.47829C7.56475 5.52484 7.21878 5.61793 6.91895 5.73429C7.70314 5.05938 8.30282 4.68701 8.30282 4.68701Z" fill="#007300"/>
<path d="M3.5291 14.9273C3.50604 14.8807 3.32152 14.1127 3.27539 12.9258V12.9025C3.27539 12.2509 3.34458 11.6458 3.48297 11.064C3.25233 13.0422 3.50604 14.7876 3.5291 14.9273Z" fill="#110501"/>
<path d="M7.035 19.7215C5.90484 22.5375 4.75161 24.3994 4.75161 24.3994H1.8916C2.30676 23.3055 3.50612 23.4684 3.50612 23.4684C3.50612 23.4684 5.14371 21.3506 3.55225 14.9272C5.78951 16.0909 6.7121 17.976 7.035 19.7215Z" fill="#FFA200"/>
<path d="M3.5291 14.9273C3.34458 14.2291 3.27539 13.5542 3.27539 12.9258C3.34458 14.1127 3.5291 14.8807 3.5291 14.9273Z" fill="#FFA200"/>
<path d="M10.979 7.45688C10.979 8.99289 9.52596 8.92308 9.11079 8.87653C9.0416 7.71288 8.85708 6.57251 8.53418 5.43213C8.88015 6.17686 10.979 7.45688 10.979 7.45688Z" fill="#120228"/>
<path d="M8.39592 15.486C6.98898 15.4162 5.37446 15.2301 3.5293 14.9275C3.59849 14.7879 4.75172 12.1347 6.25091 8.94634C6.96592 8.66706 7.84237 8.59724 8.97254 8.87652C8.97254 8.87652 9.01866 8.87652 9.08786 8.89979C9.22626 11.1573 8.90334 13.438 8.39592 15.486Z" fill="#DC0200"/>
<path d="M8.39592 15.4858C8.02689 17.0218 7.51947 18.4647 7.03511 19.6982C6.68914 17.9527 5.76656 16.0676 3.5293 14.9272C5.37446 15.2531 6.98898 15.416 8.39592 15.4858Z" fill="#E10801"/>
<path d="M9.941 15.5324C9.2952 20.0008 8.511 24.3761 7.88826 24.8648H5.62793C5.62793 24.8648 5.74325 24.283 6.96567 23.7943C6.96567 23.7943 7.45003 21.8626 7.03487 19.6983C7.51922 18.4648 8.02664 17.0219 8.39568 15.4858C8.94923 15.5324 9.45665 15.5324 9.941 15.5324Z" fill="#E6135A"/>
<path d="M11.1867 5.6415C10.7715 5.54841 10.4025 5.47859 10.0335 5.43205C9.47991 5.36223 8.97249 5.36223 8.5112 5.3855C8.5112 5.3855 8.5112 5.40877 8.53427 5.40877C8.9033 6.15351 10.9791 7.43352 10.9791 7.43352C10.9791 8.96954 9.52605 8.89972 9.11088 8.85317C9.24927 11.1339 8.92637 13.3914 8.41895 15.4627C8.97249 15.486 9.47991 15.5092 9.96427 15.486C10.6562 10.6219 11.2098 5.6415 11.1867 5.6415C11.2098 5.6415 11.2098 5.6415 11.1867 5.6415Z" fill="#E10328"/>
<path d="M6.25029 8.94629C4.75109 12.1347 3.59786 14.7878 3.52867 14.9275C3.52867 14.6947 3.43641 10.0867 6.25029 8.94629Z" fill="#E10801"/>
<path d="M6.91904 5.73438C5.69662 6.78166 4.05903 8.62023 3.48242 11.0871C3.73613 8.96932 4.56645 6.59548 6.91904 5.73438Z" fill="#120737"/>
<path d="M7.91049 5.47852C7.33387 6.64216 6.78032 7.82908 6.24984 8.94619C3.4129 10.0866 3.52822 14.6946 3.52822 14.9273C3.50516 14.7877 3.25145 13.0422 3.45903 11.0873C4.03564 8.5971 5.69629 6.7818 6.89565 5.73452C7.21855 5.61815 7.56452 5.52506 7.91049 5.47852Z" fill="#110501"/>
<path d="M9.08694 8.87669C9.01775 8.87669 8.97162 8.85342 8.97162 8.85342C7.86452 8.57414 6.965 8.64396 6.25 8.92324C6.78049 7.80613 7.33403 6.61921 7.91065 5.45556C8.09516 5.43229 8.30274 5.40902 8.51033 5.38574C8.51033 5.38574 8.51033 5.40902 8.53339 5.40902C8.8563 6.57266 9.01775 7.73631 9.08694 8.87669Z" fill="#110200"/>
<path d="M16.6753 13.1588C16.3755 13.5776 15.9834 13.95 15.4529 14.2758C14.0921 10.2962 15.4759 5.33901 15.5451 5.08301C15.5221 5.24592 15.1761 7.01467 15.4529 9.2256V9.24887C15.6605 10.8082 16.0987 12.0882 16.6753 13.1588Z" fill="#CF4902"/>
<path d="M21.4268 20.2338L20.0891 24.423H17.2522C17.6673 23.4688 18.8206 23.5386 18.8206 23.5386C18.8206 23.5386 20.3428 20.2571 17.206 17.1851C16.3757 16.3705 15.8222 15.3698 15.4531 14.2992C15.9836 13.9734 16.3757 13.5778 16.6756 13.1821C16.7678 13.3683 16.8831 13.5312 16.9754 13.6941C16.9984 13.7174 17.0215 13.7407 17.0215 13.7872C17.5289 14.5785 18.1978 15.3465 19.0512 16.0214C19.697 16.5334 20.2044 17.0454 20.5965 17.5574C20.7811 19.0469 21.4268 20.2338 21.4268 20.2338Z" fill="#A6E200"/>
<path d="M20.6199 17.5339C20.2048 17.0219 19.6973 16.5099 19.0746 15.9979C18.2212 15.323 17.5754 14.555 17.0449 13.7637C18.0136 15.2299 19.2822 16.2772 20.5969 16.9986C20.5969 17.1848 20.5969 17.371 20.6199 17.5339Z" fill="#009C00"/>
<path d="M16.6759 13.1586C16.7682 13.3447 16.8835 13.5077 16.9758 13.6938C16.8835 13.5077 16.7682 13.3447 16.6759 13.1586C16.0762 12.088 15.6611 10.808 15.4766 9.27197C15.638 10.5054 15.984 11.8553 16.6759 13.1586Z" fill="#A6E200"/>
<path d="M23.5486 11.5527C23.3641 12.1811 23.1795 12.6466 23.1104 12.8095C23.1795 12.5069 23.2949 12.2044 23.4102 11.9018C23.4794 11.7855 23.5255 11.6691 23.5486 11.5527Z" fill="#A6E200"/>
<path d="M23.8714 9.59789C23.8022 6.96804 21.5189 4.8502 17.5518 4.89675C17.644 4.89675 17.7363 4.89675 17.8285 4.89675C17.9669 4.89675 18.1053 4.89675 18.2668 4.89675C19.3047 4.89675 20.1581 5.03639 20.85 5.24584H20.8731C23.3871 6.01385 23.9406 7.89896 23.8714 9.59789Z" fill="#A6E200"/>
<path d="M23.5947 18.1856C22.6721 17.9296 21.6111 17.5573 20.5732 16.9754C20.5732 15.5558 21.1037 13.9267 23.0873 12.8561C23.0873 12.8561 23.0873 12.8328 23.1103 12.8096C22.5568 14.9041 23.0642 16.8823 23.5947 18.1856Z" fill="#007F00"/>
<path d="M23.8716 9.59789C23.8485 10.3193 23.7102 10.971 23.5487 11.5296C23.5487 11.5296 23.5487 11.5296 23.5487 11.5528C23.5026 11.6692 23.4564 11.7856 23.4103 11.9019C23.2719 12.2045 23.1797 12.507 23.1105 12.8096C23.0874 12.8561 23.0874 12.8561 23.0874 12.8561C21.1038 13.9267 20.5734 15.5558 20.5964 16.9987C19.3048 16.2772 18.0132 15.2532 17.0445 13.7638C17.0214 13.7405 16.9984 13.7172 16.9984 13.6707C16.883 13.5078 16.7908 13.3216 16.6985 13.1354C18.8666 10.0634 15.5684 5.08293 15.5684 5.08293C15.5684 5.08293 15.6376 5.05966 15.7529 5.05966C15.7759 5.05966 15.8221 5.05966 15.8451 5.03639C16.4448 4.96657 16.9984 4.92002 17.5288 4.89675H17.5519C21.519 4.8502 23.8024 6.96804 23.8716 9.59789Z" fill="#007100"/>
<path d="M15.5684 5.08284C15.5684 5.08284 15.6376 5.05957 15.7529 5.05957C15.6837 5.05957 15.6145 5.08284 15.5684 5.08284C15.5453 5.08284 15.5684 5.08284 15.5684 5.08284C15.5223 5.24575 15.1993 7.0145 15.4761 9.24871V9.27198C15.6606 10.808 16.0989 12.088 16.6755 13.1586C16.7677 13.3447 16.8831 13.5077 16.9753 13.6706C16.86 13.5077 16.7677 13.3215 16.6755 13.1353C18.8666 10.0633 15.5684 5.08284 15.5684 5.08284Z" fill="#001F00"/>
<path d="M26.3855 18.6741C26.3855 18.6741 25.1861 18.6276 23.5947 18.2086C23.0642 16.9054 22.5568 14.9271 23.1103 12.8093C23.1795 12.6464 23.364 12.181 23.5485 11.5526C23.5485 11.5526 23.5485 11.5526 23.5485 11.5293C23.7792 10.8777 23.8714 10.226 23.8714 9.62092V9.59765C23.9406 7.89873 23.3871 6.01362 20.873 5.24561C22.8566 5.80416 24.6556 7.15399 24.6556 10.1795C24.6556 16.277 26.3855 18.6741 26.3855 18.6741Z" fill="#FFBD00"/>
<path d="M23.4336 11.8784C23.4798 11.762 23.5259 11.6457 23.572 11.5293C23.3875 12.1577 23.203 12.6231 23.1338 12.786C23.203 12.5068 23.2952 12.2042 23.4336 11.8784Z" fill="#FFBD00"/>
<path d="M23.8717 9.62109C23.8948 10.2262 23.7795 10.8778 23.5488 11.5295C23.7103 10.9942 23.8487 10.3193 23.8717 9.62109Z" fill="#FFBD00"/>
<path d="M23.8722 9.59778C23.803 6.96794 21.5196 4.8501 17.5525 4.89664H17.5294C17.022 4.91992 16.4454 4.96646 15.8457 5.03628C15.938 5.01301 16.0302 5.01301 16.1455 4.98974C16.1917 4.98974 16.2147 4.98974 16.2609 4.96646C16.307 4.96646 16.3762 4.96646 16.4454 4.94319C16.5838 4.91992 16.7452 4.91992 16.9297 4.89664C16.9989 4.89664 17.0681 4.89664 17.1373 4.87337C17.1834 4.87337 17.2065 4.87337 17.2526 4.87337C17.4372 4.87337 17.6217 4.8501 17.8062 4.8501C17.9446 4.8501 18.083 4.8501 18.2444 4.8501C19.0517 4.87337 19.9743 4.96646 20.8277 5.19919H20.8507C23.3878 6.01375 23.9414 7.89886 23.8722 9.59778Z" fill="#FFBD00"/>
<path d="M3.27471 12.9257C3.27471 13.5773 3.36697 14.229 3.52842 14.9271C-3.34482 4.66376 7.17261 2.94157 7.40325 2.89502C3.57455 6.03687 3.13632 10.3889 3.27471 12.9257Z" fill="#00AAF1"/>
<path d="M3.5291 14.9273C3.34458 14.2291 3.27539 13.5542 3.27539 12.9258C3.34458 14.1127 3.5291 14.8807 3.5291 14.9273Z" fill="#00EEEE"/>
<path d="M4.45117 2.31351C4.45117 2.31351 5.39682 0.893852 6.43473 0.521484C6.45779 0.521484 6.61924 2.22041 4.45117 2.31351Z" fill="#00AAF1"/>
<path d="M8.00298 0.661133C8.00298 0.661133 7.68008 1.75496 6.91895 1.94115C6.94201 1.94115 7.24185 1.08005 8.00298 0.661133Z" fill="#00AAF1"/>
<path fill-rule="evenodd" clip-rule="evenodd" d="M46.3523 12.3831C47.0714 12.3831 47.4218 12.6436 47.4955 13.239C44.3424 13.5739 43.0332 14.5228 43.0332 16.2532C43.0332 17.6114 43.9367 18.8022 45.4856 18.8022C46.3707 18.8022 47.0898 18.4115 47.7537 17.8161H47.8274L48.0303 18.6161H49.6529C50.0401 18.6161 50.3352 18.2998 50.3352 17.9277V14.0019C50.3352 11.2854 49.0628 10.1318 46.9239 10.1318C45.6331 10.1318 44.453 10.5412 43.3098 11.2296L43.992 12.4948C44.158 12.8111 44.5268 12.9413 44.8587 12.7925C45.4303 12.5134 45.9097 12.3831 46.3523 12.3831ZM47.4955 16.0671C47.2005 16.402 46.9423 16.6253 46.4814 16.6253C45.9835 16.6253 45.7253 16.402 45.7253 16.0485C45.7253 15.5834 46.1494 15.1554 47.4955 14.9508V16.0671Z" fill="white"/>
<path d="M51.4965 8.17822H53.6354V10.3365H55.4978V11.8622C55.4978 12.2343 55.2028 12.5506 54.8155 12.5506H53.617V15.3787C53.617 16.2904 54.078 16.5881 54.5943 16.5881C54.8524 16.5881 55.1106 16.5136 55.3134 16.4579L55.6084 17.8719C55.6822 18.244 55.4425 18.5975 55.0737 18.6719C54.7234 18.7464 54.3177 18.8022 53.8014 18.8022C51.6624 18.8022 50.7773 17.444 50.7773 15.4345V8.86664C50.8327 8.47592 51.1277 8.17822 51.4965 8.17822Z" fill="white"/>
<path d="M56.0518 7.88084C56.0518 7.06219 56.7156 6.4668 57.6191 6.4668C58.5226 6.4668 59.1864 7.06219 59.1864 7.88084C59.1864 8.6995 58.5226 9.29489 57.6191 9.29489C56.7156 9.29489 56.0518 8.71811 56.0518 7.88084Z" fill="#03B5FF"/>
<path d="M56.8991 10.3369H59.038V17.9281C59.038 18.3003 58.743 18.6165 58.3558 18.6165H56.2168V11.0067C56.2168 10.6346 56.5303 10.3369 56.8991 10.3369Z" fill="white"/>
<path d="M30.7526 10.3365H32.3753L32.5781 11.3412H32.6519C33.3157 10.69 33.9979 10.1318 35.1043 10.1318C36.2106 10.1318 36.9298 10.597 37.3723 11.4529C38.0362 10.7644 38.7737 10.1318 39.8985 10.1318C41.7056 10.1318 42.48 11.4529 42.48 13.4995V17.9091C42.48 18.2812 42.185 18.5975 41.7978 18.5975H39.6588V13.8716C39.6588 12.8111 39.4006 12.5506 38.8475 12.5506C38.5156 12.5506 38.1284 12.7553 37.7043 13.1832V17.9277C37.7043 18.2998 37.4092 18.6161 37.022 18.6161H34.883V13.8716C34.883 12.8111 34.6249 12.5506 34.0717 12.5506C33.7398 12.5506 33.3526 12.7553 32.9285 13.1832V17.9277C32.9285 18.2998 32.6334 18.6161 32.2462 18.6161H30.1073V11.0063C30.0888 10.6342 30.3839 10.3365 30.7526 10.3365Z" fill="white"/>
</svg>
