<svg width="120" height="25" viewBox="0 0 120 25" fill="none" xmlns="http://www.w3.org/2000/svg">
<g clip-path="url(#clip0_5868_4807)">
<path d="M23.5762 10.7577C23.7146 10.2056 23.853 9.56136 23.8992 8.87109C23.8992 9.46934 23.7838 10.1135 23.5762 10.7577Z" fill="#00AB62"/>
<path d="M3.53113 14.1173C3.34655 13.4271 3.27734 12.7598 3.27734 12.1387C3.34655 13.312 3.53113 14.0713 3.53113 14.1173Z" fill="#00B4FF"/>
<path d="M3.53113 14.1162C3.50806 14.0702 3.32349 13.311 3.27734 12.1375V12.1145C3.27734 11.4703 3.34655 10.8721 3.48499 10.2969C3.25427 12.2526 3.50806 13.9782 3.53113 14.1162Z" fill="#1D1D1D"/>
<path d="M6.90726 17.3866C6.2087 19.1068 5.55081 21.0267 5.15005 22.2428C4.90858 22.9755 4.22111 23.4776 3.44248 23.4776C2.75691 23.4776 2.5476 22.9177 3.18652 22.6716C3.36161 22.6043 3.48715 22.5635 3.50476 22.5579C3.50665 22.5573 3.50699 22.5573 3.50884 22.5565C3.56678 22.5347 4.88521 21.9455 3.55303 14.1133C5.79095 15.2637 6.58426 15.661 6.90726 17.3866Z" fill="#FFC766"/>
<path d="M3.53113 14.1173C3.34655 13.4271 3.27734 12.7598 3.27734 12.1387C3.34655 13.312 3.53113 14.0713 3.53113 14.1173Z" fill="#FFA200"/>
<path d="M8.39737 14.6684C6.99001 14.5994 5.24549 14.7114 3.5293 14.1163C3.59851 13.9783 4.72731 11.3553 6.22696 8.20321C6.94218 7.92712 7.88772 7.60571 8.99344 8.04287C8.99344 8.04287 8.97296 8.06811 9.04218 8.09111C9.31995 10.2151 8.99257 12.4964 8.39737 14.6684Z" fill="#EA6766"/>
<path d="M8.39737 14.6655C8.02823 16.184 7.52066 17.6106 7.03616 18.8299C6.69009 17.1044 5.76723 15.2407 3.5293 14.1133C5.37501 14.4355 6.99001 14.5965 8.39737 14.6655Z" fill="#EA6766"/>
<path d="M9.94561 14.7159C9.41922 18.3153 8.80096 21.8535 8.25305 23.3021C8.08316 23.7511 7.62892 23.9421 7.14438 23.9421H6.977C6.31677 23.9421 5.77319 23.7281 6.30418 23.3398C6.49825 23.1978 7.002 22.7561 7.04419 22.5209C7.16143 21.8676 7.3451 20.4137 7.03857 18.8344C7.52307 17.6149 8.03064 16.1885 8.39979 14.6699C8.9535 14.7159 9.46107 14.7159 9.94561 14.7159Z" fill="#EA6766"/>
<path d="M11.1891 4.99731C10.7739 4.90528 10.4047 4.83626 10.0356 4.79024C9.48184 4.72122 8.97428 4.72122 8.51285 4.74423C8.51285 4.74423 8.51285 4.76723 8.53592 4.76723C8.90506 5.50349 10.9815 6.76892 10.9815 6.76892C10.9815 8.28745 9.41091 8.10896 8.99562 8.06294C9.13404 10.3177 8.89428 12.682 8.38672 14.7297C8.94043 14.7528 9.9453 14.7246 10.4298 14.7016C11.1219 9.89291 11.2122 4.99731 11.1891 4.99731C11.2122 4.99731 11.2122 4.99731 11.1891 4.99731Z" fill="#EA6766"/>
<path d="M6.24816 8.20508C4.74852 11.3572 3.59495 13.9801 3.52574 14.1181C3.52574 13.888 3.43345 9.33251 6.24816 8.20508Z" fill="#EA6766"/>
<path d="M8.51392 4.70934C8.30627 4.73235 8.09863 4.75535 7.91406 4.77837C8.02941 4.52527 8.16785 4.27219 8.30627 3.99609C8.37549 4.18016 8.51392 4.66332 8.51392 4.70934Z" fill="#1D1D1D"/>
<path d="M8.30812 3.99609C8.1697 4.24918 8.05434 4.50227 7.9159 4.77837C7.56983 4.82438 7.22376 4.91641 6.92383 5.03145C7.70826 4.36423 8.30812 3.99609 8.30812 3.99609Z" fill="#1D1D1D"/>
<path d="M10.9866 6.73021C10.9866 8.24874 9.41299 8.1117 8.99769 8.06568C8.92849 6.91528 8.86402 5.85591 8.54102 4.72852C8.88709 5.46477 10.9866 6.73021 10.9866 6.73021Z" fill="#1D1D1D"/>
<path d="M6.92592 5.0332C5.70314 6.06856 4.06506 7.88618 3.48828 10.325C3.74206 8.2313 4.57264 5.88449 6.92592 5.0332Z" fill="#1D1D1D"/>
<path d="M7.91281 4.77148C7.33603 5.92188 6.78231 7.09529 6.25167 8.19967C3.41388 9.32704 3.52923 13.8827 3.52923 14.1127C3.50617 13.9747 3.25239 12.2491 3.46003 10.3164C4.03681 7.85455 5.69795 6.05993 6.89767 5.02457C7.22067 4.90954 7.56674 4.8175 7.91281 4.77148Z" fill="#1D1D1D"/>
<path d="M8.99554 8.06939C8.92632 8.06939 8.92241 8.06939 8.92241 8.06939C7.81498 7.79329 6.96912 7.90666 6.25391 8.18276C6.78455 7.07837 7.33826 5.90497 7.91506 4.75457C8.09962 4.73157 8.30726 4.70856 8.51492 4.68555C8.51492 4.68555 8.51492 4.70856 8.53798 4.70856C8.86098 5.85895 8.92632 6.942 8.99554 8.06939Z" fill="#1D1D1D"/>
<path d="M21.2132 18.8708C21.3453 19.1936 21.3763 19.5532 21.2691 19.8849L20.3937 22.594C20.2178 23.1387 19.7062 23.5083 19.1285 23.5083H18.9942C18.12 23.5083 17.8286 22.863 18.6325 22.5233C18.7346 22.4801 18.7986 22.4559 18.7986 22.4559C18.7986 22.4559 20.459 20.221 17.2144 16.3528C16.3839 15.5475 15.8302 14.5582 15.4609 13.4999C15.9916 13.1778 16.4235 12.7329 16.7235 12.3418C16.8157 12.5258 16.975 12.6986 17.016 12.8967C17.039 12.9197 17.089 12.947 17.089 12.9931C17.5966 13.7753 18.2341 14.4971 19.0876 15.1643C19.7336 15.6704 20.231 16.1779 20.6232 16.6841C20.7358 17.5823 21.0136 18.3829 21.2132 18.8708Z" fill="#CAEE66"/>
<path d="M16.6822 12.3678C16.7745 12.5518 16.8898 12.7128 16.9821 12.8969C16.8898 12.7128 16.7745 12.5518 16.6822 12.3678C16.0823 11.3093 15.667 10.0439 15.4824 8.52539C15.6439 9.74477 15.99 11.0793 16.6822 12.3678Z" fill="#A6E200"/>
<path d="M23.5556 10.7812C23.371 11.4025 23.1864 11.8627 23.1172 12.0237C23.1864 11.7246 23.3018 11.4255 23.4171 11.1264C23.4863 11.0114 23.5325 10.8963 23.5556 10.7812Z" fill="#A6E200"/>
<path d="M23.8783 8.84757C23.809 6.24767 21.5249 4.15395 17.5566 4.19996C17.6489 4.19996 17.7412 4.19996 17.8335 4.19996C17.972 4.19996 18.1103 4.19996 18.2719 4.19996C19.3101 4.19996 20.1637 4.33801 20.8559 4.54508H20.8789C23.3937 5.30434 23.9474 7.16799 23.8783 8.84757Z" fill="#A6E200"/>
<path d="M24.1385 18.4356C24.3134 18.7548 24.3875 19.1258 24.3091 19.4807L23.5528 22.9063C23.4195 23.51 22.8795 23.9403 22.2552 23.9403H21.7971C20.9546 23.9403 20.7035 23.3615 21.4953 23.0765C21.5144 23.0697 21.525 23.0661 21.525 23.0661C21.525 23.0661 24.5064 21.7935 20.602 16.7975C20.579 16.6135 20.602 16.3248 20.602 16.1406C21.6403 16.7159 22.7016 17.0839 23.6244 17.3371C23.8053 17.7931 23.9909 18.1661 24.1385 18.4356Z" fill="#66AA66"/>
<path d="M20.7832 17.1274C20.2519 16.0756 19.6982 15.6817 19.0752 15.1755C18.2216 14.5082 17.5756 13.7491 17.0449 12.9668C18.0139 14.4162 20.1191 14.9581 20.598 16.1648C20.598 16.349 22.51 19.0995 20.7832 17.1274Z" fill="#66AA66"/>
<path d="M23.6025 17.3383C22.6795 17.0852 21.6183 16.7171 20.5801 16.1419C20.5801 14.7384 21.1107 13.1279 23.0949 12.0694C23.0949 12.0694 23.0949 12.0464 23.1179 12.0234C22.5642 14.0942 23.0718 16.0498 23.6025 17.3383Z" fill="#66AA66"/>
<path d="M23.8783 8.84757C23.8553 9.5608 23.7169 10.205 23.5553 10.7573C23.5553 10.7573 23.5553 10.7573 23.5553 10.7802C23.5092 10.8953 23.4631 11.0103 23.4169 11.1253C23.2785 11.4244 23.1862 11.7236 23.117 12.0227C23.0938 12.0687 23.0938 12.0687 23.0938 12.0687C21.1097 13.1271 20.5791 14.7376 20.6022 16.1641C19.3101 15.4508 18.0182 14.4385 17.0492 12.966C17.0261 12.943 17.0031 12.92 17.0031 12.8739C16.8876 12.7129 16.7954 12.5289 16.7031 12.3447C18.8718 9.30773 15.5742 4.40003 15.5742 4.40003C15.5742 4.40003 15.6418 4.36102 15.7572 4.36102C15.7803 4.36102 15.8263 4.36102 15.8495 4.33801C16.4493 4.26899 17.0031 4.22297 17.5337 4.19996H17.5568C21.525 4.15395 23.8091 6.24767 23.8783 8.84757Z" fill="#66AA66"/>
<path d="M15.4808 13.4944C14.3272 14.2077 12.5739 14.6908 9.9668 14.7138C10.682 9.88219 11.1876 5.00234 11.1876 5.00234C12.318 5.11738 13.7966 4.98145 15.5731 4.40625C15.4808 4.65934 14.1196 9.56002 15.4808 13.4944Z" fill="#EA6766"/>
<path d="M16.7202 12.3607C16.4203 12.7748 15.9834 13.1724 15.4527 13.4945C14.0915 9.56022 15.481 4.67692 15.5502 4.42383C15.5272 4.58488 15.181 6.29313 15.4579 8.47888V8.50189C15.6656 10.0434 16.1434 11.3023 16.7202 12.3607Z" fill="#EA6766"/>
<path d="M15.3636 8.43768C15.0867 6.22891 15.5021 4.57122 15.5752 4.40234C15.5752 4.40234 19.1019 9.58568 16.6721 12.3874C16.0952 11.3291 15.5481 9.9562 15.3636 8.43768Z" fill="#66AA66"/>
<path d="M23.4366 11.1048C23.4828 10.9898 23.5289 10.8748 23.5751 10.7598C23.3905 11.381 23.206 11.8411 23.1367 12.0022C23.206 11.7261 23.2982 11.427 23.4366 11.1048Z" fill="#66D2FF"/>
<path d="M23.8797 8.87109C23.9027 9.46934 23.7874 10.1135 23.5566 10.7577C23.7182 10.2286 23.8565 9.56136 23.8797 8.87109Z" fill="#FFBD00"/>
<path d="M26.2487 17.5944C26.3033 17.6898 26.2295 17.8133 26.1191 17.8039C25.6777 17.7666 24.739 17.6588 23.5993 17.3622C23.0687 16.0738 22.5611 14.1182 23.1148 12.0244C23.184 11.8634 23.3686 11.4033 23.5532 10.7821C23.5532 10.7821 23.5532 10.7821 23.5532 10.7591C23.7839 10.1148 23.8762 9.47056 23.8762 8.87237V8.84936C23.9454 7.16978 23.3917 5.30614 20.877 4.54688C22.8611 5.09907 24.6607 6.43353 24.6607 9.42455C24.6607 14.39 25.8347 16.8733 26.2487 17.5944Z" fill="#66D2FF"/>
<path d="M23.8804 8.84987C23.8111 6.24997 21.5271 4.15625 17.5588 4.20227H17.5357C17.0282 4.22528 16.4514 4.2713 15.8516 4.34031C15.9438 4.31731 16.0361 4.31731 16.1515 4.2943C16.1975 4.2943 16.2207 4.2943 16.2668 4.2713C16.313 4.2713 16.3821 4.2713 16.4514 4.24828C16.5898 4.22528 16.7513 4.22528 16.9359 4.20227C17.005 4.20227 17.0743 4.20227 17.1435 4.17926C17.1896 4.17926 17.2128 4.17926 17.2589 4.17926C17.4434 4.17926 17.628 4.15625 17.8126 4.15625C17.951 4.15625 18.0895 4.15625 18.2509 4.15625C19.0584 4.17926 19.9813 4.2713 20.8349 4.50137H20.858C23.3959 5.30665 23.9496 7.17029 23.8804 8.84987Z" fill="#66D2FF"/>
<path fill-rule="evenodd" clip-rule="evenodd" d="M8.28262 -0.400574C8.28262 -0.400574 7.15213 -0.0554557 6.64459 0.680794C6.66762 0.611778 6.8522 -0.170495 6.59845 -0.423582C6.57536 -0.44659 0 1.14096 0 5.97264C0 11.7016 3.3915 14.0254 3.52992 14.1174C-3.21899 4.15742 6.79437 2.33378 7.38295 2.22659L7.38511 2.2262L7.39028 2.23497C3.55188 5.34014 3.13787 9.65724 3.25308 12.1388C3.25308 11.4945 3.32228 10.8963 3.46072 10.3211C3.7145 8.22742 4.54508 5.88056 6.89839 5.02931C7.68276 4.36207 8.25959 4.01695 8.25959 4.01695H8.28262C8.00231 3.28584 7.46 2.35374 7.39028 2.23497L7.40592 2.22233C7.40198 2.22312 7.39499 2.2244 7.38511 2.2262L7.38284 2.22233C7.38284 2.22233 8.53642 0.703809 8.28262 -0.400574ZM4.45295 1.64698C4.45295 1.64698 5.3989 0.2435 6.43708 -0.124626C6.46018 -0.124626 6.62166 1.55495 4.45295 1.64698ZM8.02899 0.0135054C7.24455 0.42765 6.94462 1.27894 6.94462 1.27894C7.58736 1.10413 7.90125 0.322591 7.99734 0.083338C8.01507 0.0391894 8.02538 0.0135054 8.02899 0.0135054Z" fill="#66D2FF"/>
<path d="M3.27728 12.139C3.27728 12.7833 3.36956 13.4275 3.53106 14.1178C-3.34422 3.97125 7.17634 2.26867 7.40705 2.22266C3.5772 5.32872 3.13885 9.63116 3.27728 12.139Z" fill="#66D2FF"/>
<path d="M3.53113 14.1173C3.34655 13.4271 3.27734 12.7598 3.27734 12.1387C3.34655 13.312 3.53113 14.0713 3.53113 14.1173Z" fill="#00B4FF"/>
<path d="M4.45117 1.64466C4.45117 1.64466 5.39711 0.241174 6.43532 -0.126953C6.45839 -0.126953 6.61989 1.55262 4.45117 1.64466Z" fill="#5AC8F6"/>
<path d="M8.00623 0.0117188C8.00623 0.0117188 7.68323 1.09309 6.92188 1.27716C6.94494 1.27716 7.24488 0.425862 8.00623 0.0117188Z" fill="#5AC8F6"/>
<path d="M47.3781 6V20.5776H45.8673V9.74677L41.2754 20.5776H40.1225L35.4909 9.82866L35.5107 20.5776H34V6H35.3517L40.7188 18.5711L46.0263 6H47.3781Z" fill="#434343"/>
<path d="M59.0393 15.3772H51.7042C51.7175 16.6875 52.009 17.6771 52.5789 18.3459C53.162 19.0147 54.0035 19.3491 55.1034 19.3491C56.2696 19.3491 57.343 18.9465 58.3237 18.1412L58.8604 19.3491C58.4231 19.7723 57.8599 20.1067 57.1707 20.3524C56.4949 20.5981 55.7991 20.7209 55.0835 20.7209C53.5198 20.7209 52.2939 20.25 51.4061 19.3082C50.5182 18.3527 50.0742 17.0492 50.0742 15.3976C50.0742 14.3466 50.273 13.4185 50.6706 12.6131C51.0681 11.7942 51.6247 11.1595 52.3403 10.7091C53.0559 10.2586 53.871 10.0334 54.7854 10.0334C56.1106 10.0334 57.1509 10.4838 57.9062 11.3847C58.6616 12.2719 59.0393 13.5004 59.0393 15.07V15.3772ZM54.8052 11.3233C53.9703 11.3233 53.2879 11.5826 52.7578 12.1013C52.2409 12.62 51.9096 13.3502 51.7639 14.292H57.5882C57.5087 13.3229 57.2304 12.5858 56.7533 12.0808C56.2895 11.5758 55.6401 11.3233 54.8052 11.3233Z" fill="#434343"/>
<path d="M63.5719 11.5894V17.2198C63.5719 17.9842 63.7243 18.5233 64.0291 18.8373C64.3339 19.1376 64.7645 19.2877 65.3211 19.2877C65.6922 19.2877 66.05 19.2263 66.3946 19.1034V20.5162C65.9837 20.6527 65.5199 20.7209 65.0031 20.7209C64.0489 20.7209 63.3002 20.4479 62.7568 19.9019C62.2268 19.3423 61.9617 18.5233 61.9617 17.445V11.5894H60.0136V10.2791H61.9617V7.63793L63.5719 7.04418V10.2791H66.4343V11.5894H63.5719Z" fill="#434343"/>
<path d="M77.1807 10.2791V20.5776H75.5904V18.7144C75.2989 19.356 74.8549 19.8542 74.2586 20.2091C73.6755 20.5503 72.993 20.7209 72.2111 20.7209C71.3232 20.7209 70.5414 20.5025 69.8655 20.0657C69.2029 19.629 68.6861 19.0147 68.315 18.2231C67.9572 17.4177 67.7783 16.4828 67.7783 15.4181C67.7783 14.3534 67.9638 13.4185 68.3349 12.6131C68.7059 11.7942 69.2228 11.1595 69.8854 10.7091C70.5612 10.2586 71.3365 10.0334 72.2111 10.0334C72.993 10.0334 73.6755 10.2108 74.2586 10.5657C74.8417 10.9206 75.2856 11.4188 75.5904 12.0603V10.2791H77.1807ZM72.5292 19.3491C73.5098 19.3491 74.2652 19.0079 74.7953 18.3254C75.3254 17.6293 75.5904 16.6466 75.5904 15.3772C75.5904 14.1078 75.3254 13.1318 74.7953 12.4494C74.2652 11.7669 73.5098 11.4256 72.5292 11.4256C71.5485 11.4256 70.7799 11.7805 70.2233 12.4903C69.68 13.1864 69.4083 14.1624 69.4083 15.4181C69.4083 16.6739 69.68 17.643 70.2233 18.3254C70.7666 19.0079 71.5353 19.3491 72.5292 19.3491Z" fill="#434343"/>
<path d="M94.2086 6V20.5776H91.4654V12.6131L88.2054 20.5776H86.1977L82.9177 12.7155V20.5776H80.1944V6H82.6593L87.2313 16.7489L91.7636 6H94.2086Z" fill="#434343"/>
<path d="M106.962 10.1972V20.5776H104V19.042C103.696 19.5744 103.265 19.9907 102.708 20.2909C102.152 20.5912 101.522 20.7414 100.82 20.7414C99.9452 20.7414 99.1699 20.523 98.4941 20.0862C97.8315 19.6494 97.308 19.0284 96.9237 18.2231C96.5526 17.4041 96.3671 16.4623 96.3671 15.3976C96.3671 14.333 96.5526 13.3843 96.9237 12.5517C97.308 11.7191 97.8381 11.0776 98.5139 10.6272C99.1898 10.1631 99.9584 9.93103 100.82 9.93103C101.522 9.93103 102.152 10.088 102.708 10.4019C103.265 10.7159 103.696 11.139 104 11.6713V10.1972H106.962ZM101.694 18.3869C102.437 18.3869 103.006 18.1275 103.404 17.6088C103.802 17.0902 104 16.3394 104 15.3567C104 14.3739 103.802 13.6232 103.404 13.1045C103.006 12.5722 102.437 12.306 101.694 12.306C100.952 12.306 100.376 12.579 99.9651 13.125C99.5542 13.671 99.3488 14.4285 99.3488 15.3976C99.3488 16.3667 99.5476 17.1106 99.9452 17.6293C100.356 18.1343 100.939 18.3869 101.694 18.3869Z" fill="#434343"/>
<path d="M115.547 9.93103C116.409 9.93103 117.177 10.1631 117.853 10.6272C118.529 11.0776 119.052 11.7191 119.424 12.5517C119.808 13.3843 120 14.333 120 15.3976C120 16.4623 119.814 17.4041 119.443 18.2231C119.072 19.0284 118.549 19.6494 117.873 20.0862C117.197 20.523 116.422 20.7414 115.547 20.7414C114.845 20.7414 114.215 20.5912 113.659 20.2909C113.102 19.9907 112.678 19.5744 112.387 19.042V25H109.385V13.1659C109.385 12.0603 109.332 11.0708 109.226 10.1972H112.049L112.247 11.917C112.513 11.3028 112.937 10.8182 113.52 10.4634C114.116 10.1085 114.792 9.93103 115.547 9.93103ZM114.693 18.3869C115.435 18.3869 116.004 18.1343 116.402 17.6293C116.8 17.1106 116.998 16.3667 116.998 15.3976C116.998 14.4285 116.793 13.671 116.382 13.125C115.985 12.579 115.421 12.306 114.693 12.306C113.95 12.306 113.374 12.5722 112.963 13.1045C112.566 13.6232 112.367 14.3739 112.367 15.3567C112.367 16.3394 112.566 17.0902 112.963 17.6088C113.374 18.1275 113.95 18.3869 114.693 18.3869Z" fill="#434343"/>
</g>
<defs>
<clipPath id="clip0_5868_4807">
<rect width="120" height="25" fill="white"/>
</clipPath>
</defs>
</svg>
