<svg width="104" height="22" viewBox="0 0 104 22" fill="none" xmlns="http://www.w3.org/2000/svg">
<path d="M20.4023 9.67554C20.5222 9.19776 20.6419 8.64028 20.6819 8.04297C20.6819 8.56065 20.582 9.11805 20.4023 9.67554Z" fill="#00AB62"/>
<path d="M3.05554 12.5833C2.89582 11.986 2.83594 11.4086 2.83594 10.8711C2.89582 11.8864 3.05554 12.5435 3.05554 12.5833Z" fill="#00B4FF"/>
<path d="M3.05554 12.5824C3.03558 12.5425 2.87587 11.8855 2.83594 10.8701V10.8502C2.83594 10.2928 2.89582 9.77511 3.01562 9.27734C2.81597 10.9697 3.03558 12.4629 3.05554 12.5824Z" fill="#1D1D1D"/>
<path d="M5.97757 15.4126C5.37308 16.9011 4.80378 18.5625 4.45699 19.6148C4.24804 20.2488 3.65315 20.6833 2.97937 20.6833C2.38612 20.6833 2.205 20.1988 2.75788 19.9859C2.90939 19.9276 3.01803 19.8923 3.03327 19.8875C3.0349 19.8869 3.03519 19.8869 3.0368 19.8863C3.08693 19.8674 4.22782 19.3576 3.07504 12.5801C5.01159 13.5756 5.69806 13.9193 5.97757 15.4126Z" fill="#FFC766"/>
<path d="M3.05554 12.5833C2.89582 11.986 2.83594 11.4086 2.83594 10.8711C2.89582 11.8864 3.05554 12.5435 3.05554 12.5833Z" fill="#FFA200"/>
<path d="M7.2672 13.0598C6.04936 13 4.53977 13.097 3.05469 12.582C3.11458 12.4625 4.09137 10.1928 5.38907 7.4652C6.00797 7.22629 6.82618 6.94816 7.78299 7.32645C7.78299 7.32645 7.76527 7.34829 7.82517 7.3682C8.06553 9.2062 7.78224 11.1802 7.2672 13.0598Z" fill="#EA6766"/>
<path d="M7.2672 13.0579C6.94777 14.372 6.50854 15.6064 6.08929 16.6616C5.78983 15.1684 4.99125 13.5557 3.05469 12.5801C4.65185 12.8589 6.04936 12.9982 7.2672 13.0579Z" fill="#EA6766"/>
<path d="M8.60606 13.1004C8.15055 16.215 7.61555 19.2767 7.14143 20.5302C6.99442 20.9188 6.60134 21.0841 6.18206 21.0841H6.03722C5.4659 21.0841 4.99552 20.8989 5.455 20.5629C5.62294 20.44 6.05885 20.0578 6.09536 19.8543C6.19681 19.289 6.35574 18.0309 6.0905 16.6642C6.50975 15.6089 6.94897 14.3746 7.26841 13.0605C7.74755 13.1004 8.18677 13.1004 8.60606 13.1004Z" fill="#EA6766"/>
<path d="M9.68085 4.69185C9.32154 4.61221 9.00212 4.55248 8.6827 4.51266C8.20351 4.45294 7.76429 4.45294 7.36501 4.47284C7.36501 4.47284 7.36501 4.49275 7.38497 4.49275C7.7044 5.12986 9.5012 6.22488 9.5012 6.22488C9.5012 7.53891 8.14213 7.38446 7.78276 7.34464C7.90254 9.29578 7.69507 11.3417 7.25586 13.1136C7.735 13.1336 8.60455 13.1092 9.02377 13.0893C9.62273 8.92817 9.70088 4.69185 9.68085 4.69185C9.70088 4.69185 9.70088 4.69185 9.68085 4.69185Z" fill="#EA6766"/>
<path d="M5.40689 7.4668C4.1092 10.1944 3.11097 12.4641 3.05108 12.5835C3.05108 12.3844 2.97122 8.4424 5.40689 7.4668Z" fill="#EA6766"/>
<path d="M7.36673 4.44142C7.18705 4.46132 7.00737 4.48123 6.84766 4.50115C6.94747 4.28213 7.06726 4.06313 7.18705 3.82422C7.24694 3.98349 7.36673 4.40159 7.36673 4.44142Z" fill="#1D1D1D"/>
<path d="M7.19006 3.82422C7.07028 4.04322 6.97046 4.26223 6.85066 4.50115C6.55119 4.54096 6.25173 4.6206 5.99219 4.72014C6.67098 4.14278 7.19006 3.82422 7.19006 3.82422Z" fill="#1D1D1D"/>
<path d="M9.50688 6.19111C9.50688 7.50515 8.14517 7.38657 7.7858 7.34674C7.72592 6.35126 7.67013 5.43456 7.39062 4.45898C7.6901 5.09609 9.50688 6.19111 9.50688 6.19111Z" fill="#1D1D1D"/>
<path d="M5.99228 4.7207C4.93417 5.61663 3.51669 7.18948 3.01758 9.29989C3.23718 7.48812 3.95591 5.45735 5.99228 4.7207Z" fill="#1D1D1D"/>
<path d="M6.84717 4.49609C6.34806 5.49157 5.86891 6.50696 5.40972 7.46262C2.9541 8.43817 3.05391 12.3803 3.05391 12.5794C3.03395 12.4599 2.81435 10.9667 2.99402 9.29426C3.49313 7.16397 4.93057 5.61103 5.96873 4.7151C6.24823 4.61555 6.5477 4.53592 6.84717 4.49609Z" fill="#1D1D1D"/>
<path d="M7.78453 7.34808C7.72464 7.34808 7.72125 7.34808 7.72125 7.34808C6.76296 7.10916 6.03101 7.20726 5.41211 7.44618C5.87129 6.49052 6.35044 5.47513 6.84956 4.47965C7.00927 4.45974 7.18895 4.43984 7.36864 4.41992C7.36864 4.41992 7.36864 4.43984 7.3886 4.43984C7.6681 5.43531 7.72464 6.37251 7.78453 7.34808Z" fill="#1D1D1D"/>
<path d="M18.3565 16.6966C18.4708 16.9759 18.4977 17.2871 18.4049 17.5742L17.6474 19.9185C17.4952 20.3898 17.0525 20.7096 16.5526 20.7096H16.4363C15.6799 20.7096 15.4277 20.1512 16.1234 19.8572C16.2117 19.8199 16.2671 19.799 16.2671 19.799C16.2671 19.799 17.7039 17.865 14.8962 14.5177C14.1775 13.8209 13.6984 12.9648 13.3789 12.049C13.8381 11.7703 14.2118 11.3853 14.4714 11.0469C14.5513 11.2061 14.6891 11.3556 14.7245 11.527C14.7445 11.5469 14.7878 11.5706 14.7878 11.6104C15.227 12.2874 15.7786 12.9119 16.5172 13.4893C17.0762 13.9273 17.5066 14.3664 17.846 14.8044C17.9435 15.5817 18.1838 16.2745 18.3565 16.6966Z" fill="#CAEE66"/>
<path d="M14.4366 11.0691C14.5165 11.2283 14.6163 11.3677 14.6962 11.5269C14.6163 11.3677 14.5165 11.2283 14.4366 11.0691C13.9175 10.1532 13.5581 9.05818 13.3984 7.74414C13.5382 8.79931 13.8377 9.95409 14.4366 11.0691Z" fill="#A6E200"/>
<path d="M20.3832 9.69531C20.2235 10.2329 20.0638 10.6311 20.0039 10.7705C20.0638 10.5116 20.1636 10.2528 20.2634 9.994C20.3233 9.89447 20.3633 9.79485 20.3832 9.69531Z" fill="#A6E200"/>
<path d="M20.6617 8.02432C20.6018 5.77455 18.6253 3.96278 15.1914 4.0026C15.2713 4.0026 15.3511 4.0026 15.431 4.0026C15.5508 4.0026 15.6705 4.0026 15.8103 4.0026C16.7087 4.0026 17.4474 4.12206 18.0463 4.30124H18.0663C20.2424 4.95825 20.7215 6.57093 20.6617 8.02432Z" fill="#A6E200"/>
<path d="M20.8875 16.3199C21.0388 16.5962 21.1029 16.9172 21.0351 17.2242L20.3806 20.1886C20.2652 20.711 19.798 21.0833 19.2577 21.0833H18.8613C18.1323 21.0833 17.915 20.5825 18.6002 20.3358C18.6167 20.3299 18.6259 20.3268 18.6259 20.3268C18.6259 20.3268 21.2058 19.2256 17.8272 14.9024C17.8073 14.7432 17.8272 14.4933 17.8272 14.334C18.7257 14.8317 19.644 15.1503 20.4426 15.3693C20.5991 15.7639 20.7597 16.0867 20.8875 16.3199Z" fill="#66AA66"/>
<path d="M17.9849 15.1882C17.5251 14.2781 17.046 13.9372 16.5069 13.4992C15.7682 12.9218 15.2092 12.2648 14.75 11.5879C15.5885 12.8421 17.4102 13.311 17.8246 14.3552C17.8246 14.5146 19.4791 16.8947 17.9849 15.1882Z" fill="#66AA66"/>
<path d="M20.424 15.3706C19.6253 15.1516 18.707 14.8331 17.8086 14.3353C17.8086 13.1209 18.2678 11.7272 19.9847 10.8113C19.9847 10.8113 19.9847 10.7914 20.0047 10.7715C19.5255 12.5634 19.9648 14.2557 20.424 15.3706Z" fill="#66AA66"/>
<path d="M20.6624 8.02432C20.6424 8.64151 20.5227 9.19899 20.3828 9.67685C20.3828 9.67685 20.3828 9.67685 20.3828 9.69667C20.3429 9.79629 20.3031 9.89583 20.2631 9.99537C20.1433 10.2542 20.0635 10.513 20.0036 10.7718C19.9835 10.8116 19.9835 10.8116 19.9835 10.8116C18.2666 11.7275 17.8074 13.1211 17.8275 14.3555C16.7094 13.7383 15.5914 12.8623 14.7529 11.5881C14.7329 11.5682 14.713 11.5483 14.713 11.5085C14.6131 11.3691 14.5333 11.2099 14.4534 11.0505C16.3301 8.42252 13.4766 4.17572 13.4766 4.17572C13.4766 4.17572 13.535 4.14196 13.6349 4.14196C13.6549 4.14196 13.6947 4.14196 13.7148 4.12206C14.2338 4.06233 14.713 4.0225 15.1722 4.0026H15.1921C18.626 3.96278 20.6024 5.77455 20.6624 8.02432Z" fill="#66AA66"/>
<path d="M13.3965 12.044C12.3982 12.6612 10.881 13.0792 8.625 13.0991C9.2439 8.9182 9.68136 4.6955 9.68136 4.6955C10.6596 4.79505 11.939 4.67743 13.4763 4.17969C13.3965 4.39869 12.2186 8.63941 13.3965 12.044Z" fill="#EA6766"/>
<path d="M14.4674 11.0634C14.2079 11.4217 13.8298 11.7658 13.3706 12.0445C12.1927 8.64 13.3951 4.41432 13.455 4.19531C13.435 4.33468 13.1355 5.81288 13.3751 7.70429V7.72419C13.5548 9.05814 13.9683 10.1475 14.4674 11.0634Z" fill="#EA6766"/>
<path d="M13.2943 7.66769C13.0547 5.75637 13.4142 4.32191 13.4774 4.17578C13.4774 4.17578 16.5291 8.66109 14.4266 11.0856C13.9274 10.1697 13.454 8.98172 13.2943 7.66769Z" fill="#66AA66"/>
<path d="M20.281 9.97634C20.321 9.87681 20.3608 9.77727 20.4008 9.67773C20.2411 10.2153 20.0814 10.6135 20.0215 10.7529C20.0814 10.5139 20.1613 10.2551 20.281 9.97634Z" fill="#66D2FF"/>
<path d="M20.6643 8.04297C20.6842 8.56065 20.5844 9.11805 20.3848 9.67554C20.5245 9.21767 20.6443 8.64028 20.6643 8.04297Z" fill="#FFBD00"/>
<path d="M22.7147 15.5932C22.762 15.6757 22.6981 15.7826 22.6026 15.7745C22.2207 15.7422 21.4084 15.6489 20.4222 15.3923C19.963 14.2774 19.5237 12.5851 20.0029 10.7733C20.0628 10.634 20.2225 10.2358 20.3822 9.69824C20.3822 9.69824 20.3822 9.69824 20.3822 9.67834C20.5819 9.12085 20.6618 8.56336 20.6618 8.04573V8.02582C20.7217 6.57243 20.2425 4.95975 18.0664 4.30273C19.7833 4.78057 21.3406 5.93532 21.3406 8.52355C21.3406 12.8203 22.3565 14.9692 22.7147 15.5932Z" fill="#66D2FF"/>
<path d="M20.6644 8.02443C20.6045 5.77466 18.628 3.96289 15.1942 4.00271H15.1741C14.735 4.02262 14.2358 4.06244 13.7168 4.12217C13.7967 4.10226 13.8765 4.10226 13.9763 4.08235C14.0162 4.08235 14.0362 4.08235 14.0761 4.06244C14.1161 4.06244 14.1759 4.06244 14.2358 4.04253C14.3556 4.02262 14.4954 4.02262 14.6551 4.00271C14.7149 4.00271 14.7749 4.00271 14.8348 3.9828C14.8747 3.9828 14.8947 3.9828 14.9346 3.9828C15.0943 3.9828 15.254 3.96289 15.4137 3.96289C15.5335 3.96289 15.6534 3.96289 15.793 3.96289C16.4918 3.9828 17.2904 4.06244 18.0291 4.26153H18.049C20.2452 4.95837 20.7243 6.57104 20.6644 8.02443Z" fill="#66D2FF"/>
<path fill-rule="evenodd" clip-rule="evenodd" d="M7.16723 0.0201224C7.16723 0.0201224 6.18898 0.318765 5.74978 0.955866C5.76972 0.896145 5.92943 0.219218 5.70986 0.000212804C5.68988 -0.0196967 0 1.35406 0 5.53508C0 10.4925 2.93478 12.5034 3.05456 12.583C-2.7855 3.96431 5.87939 2.38625 6.38871 2.2935L6.39059 2.29316L6.39506 2.30075C3.07356 4.98776 2.71531 8.72349 2.81499 10.8708C2.81499 10.3134 2.87488 9.79569 2.99467 9.29793C3.21428 7.48621 3.93301 5.4554 5.96941 4.71878C6.64815 4.1414 7.14729 3.84276 7.14729 3.84276H7.16723C6.92466 3.2101 6.45539 2.40352 6.39506 2.30075L6.40859 2.28981C6.40518 2.29049 6.39913 2.2916 6.39059 2.29316L6.38862 2.28981C6.38862 2.28981 7.38685 0.975782 7.16723 0.0201224ZM3.85329 1.79194C3.85329 1.79194 4.67185 0.577462 5.57022 0.258909C5.59021 0.258909 5.72994 1.71231 3.85329 1.79194ZM6.94775 0.378439C6.26895 0.736813 6.00941 1.47346 6.00941 1.47346C6.56559 1.32219 6.83721 0.645901 6.92037 0.438868C6.93571 0.400664 6.94463 0.378439 6.94775 0.378439Z" fill="#66D2FF"/>
<path d="M2.83585 10.87C2.83585 11.4275 2.91571 11.985 3.05546 12.5823C-2.89395 3.80218 6.20984 2.32888 6.40948 2.28906C3.09539 4.97685 2.71607 8.69989 2.83585 10.87Z" fill="#66D2FF"/>
<path d="M3.05554 12.5833C2.89582 11.986 2.83594 11.4086 2.83594 10.8711C2.89582 11.8864 3.05554 12.5435 3.05554 12.5833Z" fill="#00B4FF"/>
<path d="M3.85156 1.7889C3.85156 1.7889 4.67011 0.574412 5.56851 0.255859C5.58847 0.255859 5.72823 1.70925 3.85156 1.7889Z" fill="#5AC8F6"/>
<path d="M6.92857 0.376953C6.92857 0.376953 6.64906 1.3127 5.99023 1.47198C6.01019 1.47198 6.26974 0.735325 6.92857 0.376953Z" fill="#5AC8F6"/>
<path d="M40.6669 5V18.0431H39.3494V8.35237L35.3449 18.0431H34.3394L30.3002 8.42565L30.3175 18.0431H29V5H30.1788L34.8595 16.2478L39.4881 5H40.6669Z" fill="white"/>
<path d="M50.8366 13.3901H44.4397C44.4513 14.5625 44.7055 15.4479 45.2025 16.0463C45.711 16.6448 46.4449 16.944 47.4041 16.944C48.4212 16.944 49.3573 16.5837 50.2125 15.8631L50.6806 16.944C50.2992 17.3226 49.808 17.6218 49.207 17.8416C48.6176 18.0614 48.0109 18.1713 47.3868 18.1713C46.0231 18.1713 44.954 17.75 44.1797 16.9073C43.4054 16.0524 43.0182 14.8861 43.0182 13.4084C43.0182 12.468 43.1916 11.6376 43.5383 10.917C43.885 10.1843 44.3704 9.61638 44.9945 9.21336C45.6186 8.81034 46.3293 8.60884 47.1268 8.60884C48.2825 8.60884 49.1897 9.01185 49.8485 9.81789C50.5072 10.6117 50.8366 11.7108 50.8366 13.1153V13.3901ZM47.1441 9.76293C46.416 9.76293 45.8208 9.99497 45.3585 10.4591C44.9078 10.9231 44.6189 11.5765 44.4917 12.4192H49.5711C49.5018 11.5521 49.2591 10.8926 48.843 10.4407C48.4385 9.98886 47.8722 9.76293 47.1441 9.76293Z" fill="white"/>
<path d="M54.7894 10.0011V15.0388C54.7894 15.7227 54.9223 16.2051 55.1881 16.486C55.4539 16.7547 55.8295 16.889 56.3149 16.889C56.6385 16.889 56.9506 16.8341 57.2511 16.7241V17.9881C56.8928 18.1103 56.4883 18.1713 56.0376 18.1713C55.2055 18.1713 54.5525 17.9271 54.0786 17.4386C53.6164 16.9379 53.3852 16.2051 53.3852 15.2403V10.0011H51.6863V8.82866H53.3852V6.46552L54.7894 5.93427V8.82866H57.2857V10.0011H54.7894Z" fill="white"/>
<path d="M66.6576 8.82866V18.0431H65.2707V16.3761C65.0165 16.9501 64.6293 17.3958 64.1092 17.7134C63.6007 18.0187 63.0055 18.1713 62.3237 18.1713C61.5493 18.1713 60.8675 17.9759 60.278 17.5851C59.7002 17.1943 59.2495 16.6448 58.9259 15.9364C58.6138 15.2159 58.4578 14.3793 58.4578 13.4267C58.4578 12.4741 58.6196 11.6376 58.9432 10.917C59.2668 10.1843 59.7175 9.61638 60.2954 9.21336C60.8848 8.81034 61.5609 8.60884 62.3237 8.60884C63.0055 8.60884 63.6007 8.7676 64.1092 9.08513C64.6177 9.40266 65.0049 9.84842 65.2707 10.4224V8.82866H66.6576ZM62.601 16.944C63.4563 16.944 64.115 16.6387 64.5773 16.028C65.0396 15.4052 65.2707 14.5259 65.2707 13.3901C65.2707 12.2543 65.0396 11.3811 64.5773 10.7705C64.115 10.1598 63.4563 9.85453 62.601 9.85453C61.7458 9.85453 61.0755 10.1721 60.5901 10.8071C60.1162 11.43 59.8793 12.3032 59.8793 13.4267C59.8793 14.5503 60.1162 15.4174 60.5901 16.028C61.0639 16.6387 61.7342 16.944 62.601 16.944Z" fill="white"/>
<path d="M81.5075 5V18.0431H79.1152V10.917L76.2721 18.0431H74.5212L71.6608 11.0086V18.0431H69.2858V5H71.4355L75.4227 14.6175L79.3752 5H81.5075Z" fill="white"/>
<path d="M92.6298 8.75539V18.0431H90.0468V16.6692C89.781 17.1455 89.4054 17.518 88.92 17.7866C88.4346 18.0553 87.8856 18.1897 87.2731 18.1897C86.5103 18.1897 85.8342 17.9943 85.2448 17.6034C84.667 17.2126 84.2105 16.657 83.8753 15.9364C83.5517 15.2037 83.3899 14.361 83.3899 13.4084C83.3899 12.4558 83.5517 11.607 83.8753 10.8621C84.2105 10.1171 84.6727 9.5431 85.2622 9.14009C85.8516 8.72486 86.5219 8.51724 87.2731 8.51724C87.8856 8.51724 88.4346 8.65769 88.92 8.93858C89.4054 9.21947 89.781 9.59806 90.0468 10.0744V8.75539H92.6298ZM88.0359 16.083C88.6831 16.083 89.18 15.8509 89.5267 15.3869C89.8735 14.9228 90.0468 14.2511 90.0468 13.3718C90.0468 12.4925 89.8735 11.8208 89.5267 11.3567C89.18 10.8804 88.6831 10.6422 88.0359 10.6422C87.3887 10.6422 86.8859 10.8865 86.5277 11.375C86.1694 11.8635 85.9903 12.5413 85.9903 13.4084C85.9903 14.2755 86.1636 14.9411 86.5103 15.4052C86.8686 15.857 87.3771 16.083 88.0359 16.083Z" fill="white"/>
<path d="M100.117 8.51724C100.868 8.51724 101.538 8.72486 102.128 9.14009C102.717 9.5431 103.174 10.1171 103.497 10.8621C103.832 11.607 104 12.4558 104 13.4084C104 14.361 103.838 15.2037 103.515 15.9364C103.191 16.657 102.734 17.2126 102.145 17.6034C101.556 17.9943 100.88 18.1897 100.117 18.1897C99.5043 18.1897 98.9553 18.0553 98.4699 17.7866C97.9845 17.518 97.6147 17.1455 97.3604 16.6692V22H94.7427V11.4116C94.7427 10.4224 94.6965 9.537 94.6041 8.75539H97.0657L97.2391 10.2942C97.4702 9.74461 97.8401 9.31106 98.3486 8.99353C98.8686 8.676 99.4581 8.51724 100.117 8.51724ZM99.3714 16.083C100.019 16.083 100.516 15.857 100.862 15.4052C101.209 14.9411 101.382 14.2755 101.382 13.4084C101.382 12.5413 101.203 11.8635 100.845 11.375C100.498 10.8865 100.007 10.6422 99.3714 10.6422C98.7242 10.6422 98.2214 10.8804 97.8632 11.3567C97.5165 11.8208 97.3431 12.4925 97.3431 13.3718C97.3431 14.2511 97.5165 14.9228 97.8632 15.3869C98.2214 15.8509 98.7242 16.083 99.3714 16.083Z" fill="white"/>
</svg>
