<svg width="100" height="100" viewBox="0 0 100 100" fill="none" xmlns="http://www.w3.org/2000/svg">
<g clip-path="url(#clip0)">
<path d="M97.9129 7.20696L61.3478 33.6416L55.3478 37.9893C52.1693 40.3376 47.8307 40.3376 44.6522 37.9893L38.6522 33.6416L2.04346 7.25037C4.07966 4.40282 7.36886 2.71756 10.8696 2.72857H89.1304C92.6055 2.73163 95.8696 4.39609 97.9129 7.20696Z" fill="#FFD54F"/>
<path d="M2.04364 7.25L38.6524 33.6412L3.17414 69.1195C1.13691 67.0771 -0.00500018 64.3087 9.49293e-05 61.4238V13.5979C-0.00948387 11.3185 0.706073 9.09545 2.04364 7.25Z" fill="#FFC107"/>
<path d="M100 13.5964V61.4225C100.005 64.3074 98.8636 67.0758 96.8264 69.1182L61.3481 33.6399L97.9133 7.20508C99.2708 9.05929 100.002 11.2981 100 13.5964Z" fill="#FFC107"/>
<path d="M52.0088 63.3414C52.3449 62.5284 52.1578 61.593 51.5349 60.9718L45.0132 54.45C44.1497 53.6161 42.7734 53.6399 41.9392 54.5034C41.1256 55.346 41.1256 56.6815 41.9392 57.5238L44.7478 60.3324H41.3044C32.9001 60.3324 26.0869 67.1454 26.0869 75.5499C26.0869 83.9544 32.8999 90.7673 41.3044 90.7673C42.505 90.7673 43.4783 89.794 43.4783 88.5934C43.4783 87.3927 42.505 86.4194 41.3044 86.4194C35.3013 86.4194 30.4349 81.5529 30.4349 75.5499C30.4349 69.5468 35.3013 64.6804 41.3044 64.6804H44.7521L41.9435 67.489C41.08 68.3232 41.0559 69.6993 41.8901 70.563C42.7243 71.4265 44.1004 71.4504 44.9641 70.6164C44.9822 70.5989 45 70.5811 45.0175 70.563L51.5392 64.0413C51.74 63.8409 51.8993 63.6031 52.0088 63.3414Z" fill="#507DED"/>
<path d="M58.6958 60.3379C57.4951 60.3379 56.5218 61.3113 56.5218 62.5119C56.5218 63.7125 57.4951 64.6859 58.6958 64.6859C64.6988 64.6859 69.5653 69.5523 69.5653 75.5553C69.5653 81.5584 64.699 86.4248 58.6958 86.4248H55.248L58.0566 83.6162C58.8908 82.7527 58.8667 81.3764 58.0032 80.5422C57.1607 79.7284 55.8252 79.7284 54.9827 80.5422L48.4609 87.064C47.6108 87.9118 47.6092 89.2883 48.457 90.1383C48.4583 90.1396 48.4597 90.141 48.4609 90.1422L54.9827 96.664C55.8462 97.4981 57.2225 97.4741 58.0566 96.6106C58.8704 95.768 58.8704 94.4325 58.0566 93.59L55.248 90.7813H58.6958C67.1 90.7813 73.9132 83.9684 73.9132 75.5639C73.9132 67.1594 67.1002 60.3467 58.6958 60.3467V60.3379Z" fill="#507DED"/>
<path d="M61.3477 33.6406L55.3477 37.9884C52.1692 40.3366 47.8306 40.3366 44.6521 37.9884L38.6521 33.6406L3.17383 69.1189C5.21615 71.1561 7.98463 72.298 10.8695 72.2927H22.0216C23.3492 64.4874 29.2406 58.2461 36.9564 56.471C36.6904 52.8789 39.3868 49.7513 42.9786 49.4854C44.8695 49.3454 46.7278 50.0352 48.0694 51.3753L54.3564 57.6579C55.546 56.5831 57.0923 55.988 58.6956 55.9884C68.2214 56.0161 76.3428 62.9002 77.9304 72.2927H89.1305C92.0153 72.2978 94.7838 71.1561 96.8261 69.1189L61.3477 33.6406Z" fill="#FFA000"/>
</g>
<defs>
<clipPath id="clip0">
<rect width="100" height="100" fill="white"/>
</clipPath>
</defs>
</svg>
