<svg width="100" height="100" viewBox="0 0 100 100" fill="none" xmlns="http://www.w3.org/2000/svg">
<g clip-path="url(#clip0)">
<path d="M49.9999 0C59.4839 0 67.1721 7.68829 67.1721 17.1743C67.1721 26.6582 59.4839 34.3465 49.9999 34.3465C40.5159 34.3465 32.8276 26.6582 32.8276 17.1743C32.8276 7.68829 40.5159 0 49.9999 0Z" fill="#DFF6FD"/>
<path d="M63.1817 28.1774C60.0337 31.9493 55.2967 34.3469 50 34.3469C44.7033 34.3469 39.9663 31.9493 36.8184 28.1774C36.8364 24.4837 38.3773 21.1512 40.8411 18.7676L45.4396 15.5254H55.1423L59.1589 18.7676C61.6227 21.1512 63.1636 24.4837 63.1817 28.1774Z" fill="#FEC649"/>
<path d="M59.159 18.7676L55.1423 15.5254H47.3262L43.1215 17.1598L40.8411 18.7676C38.3773 21.1512 36.8364 24.4837 36.8184 28.1774C37.9686 29.5557 39.3317 30.7493 40.8561 31.7105C40.9669 30.3374 41.2885 29.0242 41.7879 27.8026C42.4782 26.1141 44.3283 25.224 46.0852 25.715C47.3312 26.0631 48.6439 26.2499 50 26.2499C54.435 26.2499 58.4122 24.2636 61.0973 21.1369C60.5429 20.2738 59.8931 19.4779 59.159 18.7676Z" fill="#EEB942"/>
<path d="M50.0001 0C43.5826 0 38.3804 5.20224 38.3804 11.6197C38.3804 11.8805 38.392 12.1388 38.4091 12.3954L39.3205 12.0096L41.1533 17.3857L48.5254 22.029L51.6208 22.6897H53.5355C58.2237 21.1936 61.6196 16.8039 61.6196 11.6195C61.6198 5.20244 56.4176 0 50.0001 0Z" fill="#FFE5C2"/>
<path d="M45.4509 11.6197C45.4509 6.43534 48.85 2.04466 53.5385 0.548533C52.4235 0.192809 51.233 0 50.0001 0C43.5826 0 38.3804 5.20224 38.3804 11.6197C38.3804 18.037 43.5826 23.2394 50.0001 23.2394C51.233 23.2394 52.4235 23.0456 53.5385 22.6899C48.85 21.194 45.4509 16.8043 45.4509 11.6197Z" fill="#FED2A4"/>
<path d="M82.6879 32.5605C92.1718 32.5605 99.8601 40.2488 99.8601 49.7348C99.8601 59.2188 92.1718 66.9071 82.6879 66.9071C73.2039 66.9071 65.5156 59.2188 65.5156 49.7348C65.5156 40.2488 73.2039 32.5605 82.6879 32.5605Z" fill="#DFF6FD"/>
<path d="M95.8697 60.7379C92.7217 64.5098 87.9847 66.9074 82.688 66.9074C77.3913 66.9074 72.6543 64.5098 69.5063 60.7379C69.5244 57.0443 71.0653 53.7117 73.5291 51.3282L78.1276 48.0859H87.8303L91.8469 51.3282C94.3107 53.7117 95.8516 57.0443 95.8697 60.7379Z" fill="#507DED"/>
<path d="M91.8469 51.3282L87.8302 48.0859H80.0142L75.8095 49.7203L73.5291 51.3282C71.0653 53.7117 69.5244 57.0442 69.5063 60.7379C70.6566 62.1163 72.0197 63.3098 73.5441 64.2711C73.6549 62.8979 73.9765 61.5848 74.4759 60.3631C75.1662 58.6746 77.0163 57.7846 78.7732 58.2755C80.0192 58.6236 81.3319 58.8104 82.688 58.8104C87.123 58.8104 91.1002 56.8241 93.7853 53.6975C93.2309 52.8343 92.5811 52.0382 91.8469 51.3282Z" fill="#476DCD"/>
<path d="M82.6881 32.5625C76.2706 32.5625 71.0684 37.7647 71.0684 44.1822C71.0684 44.443 71.08 44.7013 71.0971 44.9579L72.0085 44.572L73.8413 49.9482L81.2134 54.5915L84.3088 55.2522H86.2235C90.9117 53.7561 94.3076 49.3664 94.3076 44.182C94.3078 37.7647 89.1056 32.5625 82.6881 32.5625Z" fill="#FFE5C2"/>
<path d="M78.1389 44.1822C78.1389 38.9978 81.538 34.6072 86.2265 33.111C85.1115 32.7553 83.921 32.5625 82.6881 32.5625C76.2706 32.5625 71.0684 37.7647 71.0684 44.1822C71.0684 50.5995 76.2706 55.8019 82.6881 55.8019C83.921 55.8019 85.1115 55.6081 86.2265 55.2524C81.538 53.7565 78.1389 49.3668 78.1389 44.1822Z" fill="#FED2A4"/>
<path d="M49.9999 65.6543C59.4839 65.6543 67.1721 73.3426 67.1721 82.8286C67.1721 92.3125 59.4839 100.001 49.9999 100.001C40.5159 100.001 32.8276 92.3125 32.8276 82.8286C32.8276 73.3426 40.5159 65.6543 49.9999 65.6543Z" fill="#DFF6FD"/>
<path d="M63.1817 93.8317C60.0337 97.6036 55.2967 100.001 50 100.001C44.7033 100.001 39.9663 97.6036 36.8184 93.8317C36.8364 90.138 38.3773 86.8055 40.8411 84.4219L45.4396 81.1797H55.1423L59.1589 84.4219C61.6227 86.8055 63.1636 90.138 63.1817 93.8317Z" fill="#5AC794"/>
<path d="M59.159 84.4219L55.1423 81.1797H47.3262L43.1215 82.8141L40.8411 84.4219C38.3773 86.8055 36.8364 90.138 36.8184 93.8317C37.9686 95.21 39.3317 96.4036 40.8561 97.3648C40.9669 95.9917 41.2885 94.6786 41.7879 93.4569C42.4782 91.7684 44.3283 90.8783 46.0852 91.3693C47.3312 91.7174 48.6439 91.9042 50 91.9042C54.435 91.9042 58.4122 89.9179 61.0973 86.7912C60.5429 85.9281 59.8931 85.1322 59.159 84.4219Z" fill="#51AE82"/>
<path d="M50.0001 65.6543C43.5826 65.6543 38.3804 70.8565 38.3804 77.274C38.3804 77.5348 38.392 77.7931 38.4091 78.0497L39.3205 77.6638L41.1533 83.04L48.5254 87.6833L51.6208 88.344H53.5355C58.2237 86.8479 61.6196 82.4582 61.6196 77.2738C61.6198 70.8567 56.4176 65.6543 50.0001 65.6543Z" fill="#FFE5C2"/>
<path d="M45.4509 77.274C45.4509 72.0896 48.85 67.699 53.5385 66.2028C52.4235 65.8471 51.233 65.6543 50.0001 65.6543C43.5826 65.6543 38.3804 70.8565 38.3804 77.274C38.3804 83.6913 43.5826 88.8937 50.0001 88.8937C51.233 88.8937 52.4235 88.6999 53.5385 88.3442C48.85 86.8483 45.4509 82.4586 45.4509 77.274Z" fill="#FED2A4"/>
<path d="M17.3119 32.5605C26.7959 32.5605 34.4842 40.2488 34.4842 49.7348C34.4842 59.2188 26.7959 66.9071 17.3119 66.9071C7.82794 66.9071 0.139648 59.2188 0.139648 49.7348C0.139648 40.2488 7.82794 32.5605 17.3119 32.5605Z" fill="#DFF6FD"/>
<path d="M30.4937 60.7379C27.3457 64.5098 22.6088 66.9074 17.312 66.9074C12.0153 66.9074 7.27832 64.5098 4.13037 60.7379C4.14843 57.0443 5.6893 53.7117 8.15308 51.3282L12.7516 48.0859H22.4543L26.471 51.3282C28.9348 53.7117 30.4756 57.0443 30.4937 60.7379Z" fill="#FE7581"/>
<path d="M26.471 51.3282L22.4543 48.0859H14.6382L10.4335 49.7203L8.15308 51.3282C5.6893 53.7117 4.14843 57.0442 4.13037 60.7379C5.28061 62.1163 6.64371 63.3098 8.16813 64.2711C8.27888 62.8979 8.6005 61.5848 9.09988 60.3631C9.79026 58.6746 11.6403 57.7846 13.3973 58.2755C14.6432 58.6236 15.9559 58.8104 17.312 58.8104C21.747 58.8104 25.7242 56.8241 28.4093 53.6975C27.8549 52.8343 27.2051 52.0382 26.471 51.3282Z" fill="#DB6C75"/>
<path d="M17.3121 32.5625C10.8946 32.5625 5.69238 37.7647 5.69238 44.1822C5.69238 44.443 5.70402 44.7013 5.72107 44.9579L6.63255 44.572L8.46534 49.9482L15.8374 54.5915L18.9328 55.2522H20.8475C25.5357 53.7561 28.9316 49.3664 28.9316 44.182C28.9318 37.7647 23.7294 32.5625 17.3121 32.5625Z" fill="#FFE5C2"/>
<path d="M12.7624 44.1822C12.7624 38.9978 16.1616 34.6072 20.85 33.111C19.7351 32.7553 18.5445 32.5625 17.3116 32.5625C10.8941 32.5625 5.69189 37.7647 5.69189 44.1822C5.69189 50.5995 10.8941 55.8019 17.3116 55.8019C18.5445 55.8019 19.7351 55.6081 20.85 55.2524C16.1618 53.7565 12.7624 49.3668 12.7624 44.1822Z" fill="#FED2A4"/>
<path d="M83.4283 28.3276C82.9526 28.3276 82.4847 28.1027 82.1924 27.683C79.5075 23.8296 76.1882 20.5197 72.3272 17.8453C71.6441 17.3722 71.4739 16.4348 71.947 15.7515C72.4203 15.0683 73.3579 14.8984 74.0409 15.3713C78.1978 18.2504 81.7711 21.8136 84.6616 25.9621C85.1367 26.6441 84.9692 27.5819 84.2872 28.057C84.0252 28.2397 83.7252 28.3276 83.4283 28.3276Z" fill="#507DED"/>
<path d="M73.1854 84.8977C72.7082 84.8977 72.2392 84.6714 71.947 84.2497C71.4739 83.5665 71.6441 82.6292 72.3272 82.1559C76.1884 79.4814 79.5075 76.1716 82.1924 72.3182C82.6675 71.6366 83.6055 71.4691 84.2872 71.944C84.969 72.4191 85.1367 73.3569 84.6616 74.0388C81.7711 78.1873 78.1978 81.7508 74.0409 84.6297C73.7794 84.8107 73.4809 84.8977 73.1854 84.8977Z" fill="#507DED"/>
<path d="M26.8125 84.7572C26.514 84.7572 26.2124 84.6688 25.9496 84.4842C21.8848 81.6322 18.3835 78.1199 15.5429 74.0452C15.0676 73.3634 15.2352 72.4255 15.9169 71.9504C16.5985 71.4749 17.5364 71.6422 18.0119 72.3241C20.6503 76.1091 23.9025 79.3716 27.6781 82.0206C28.3584 82.4979 28.5229 83.4365 28.0456 84.1166C27.7527 84.5339 27.2862 84.7572 26.8125 84.7572Z" fill="#507DED"/>
<path d="M16.7761 28.3217C16.4792 28.3217 16.179 28.2338 15.9168 28.051C15.2351 27.5759 15.0677 26.6379 15.5428 25.9562C18.3834 21.8813 21.8845 18.3692 25.9495 15.5172C26.6295 15.0401 27.568 15.2042 28.0455 15.8848C28.5229 16.5651 28.3583 17.5035 27.678 17.9808C23.9025 20.6297 20.6502 23.8923 18.0118 27.6772C17.7193 28.0967 17.2516 28.3217 16.7761 28.3217Z" fill="#507DED"/>
</g>
<defs>
<clipPath id="clip0">
<rect width="100" height="100" fill="white"/>
</clipPath>
</defs>
</svg>
