<svg width="100" height="100" viewBox="0 0 100 100" fill="none" xmlns="http://www.w3.org/2000/svg">
<g clip-path="url(#clip0)">
<path d="M94.0584 1.80435C93.2794 0.675201 91.9962 0 90.6252 0H45.8337C38.9421 0 33.3337 5.60837 33.3337 12.5V15.7455C33.4962 15.892 33.6832 16.0042 33.8373 16.1629L50.5045 32.8293C52.8665 35.1875 54.1666 38.3293 54.1666 41.6664C54.1666 45.0043 52.8665 48.1461 50.5045 50.5043L33.8373 67.1707C33.6832 67.3248 33.4962 67.4377 33.3337 67.5873V75C33.3337 81.8916 38.9421 87.5 45.8337 87.5H60.4166C62.1462 87.5 63.6957 86.4334 64.3083 84.8167L94.5169 5.65033C95.0082 4.37088 94.8335 2.9335 94.0584 1.80435V1.80435Z" fill="#D9A32C"/>
<path d="M23.4039 62.1833C21.8498 61.5371 20.8336 60.0166 20.8336 58.3336V45.8336H4.16641C1.86691 45.8336 0 43.9666 0 41.6664C0 39.3669 1.86691 37.5 4.16641 37.5H20.8336V25C20.8336 23.3169 21.8498 21.7956 23.4039 21.1502C24.9626 20.504 26.754 20.8625 27.9457 22.0543L44.6121 38.7207C46.2418 40.3503 46.2418 42.9832 44.6121 44.6121L27.9457 61.2793C26.754 62.471 24.9626 62.8288 23.4039 62.1833Z" fill="#507DED"/>
<path d="M89.0123 0.412838L63.9795 8.75863C60.6004 9.92517 58.3337 13.1043 58.3337 16.6665V91.6665C58.3337 96.2624 62.0706 100 66.6666 100C67.5584 100 68.4045 99.8711 69.3208 99.5873L94.3544 91.2415C97.7334 90.075 100 86.8958 100 83.3337V8.33367C100 2.84585 94.6626 -1.32514 89.0123 0.412838V0.412838Z" fill="#FEC649"/>
</g>
<defs>
<clipPath id="clip0">
<rect width="100" height="100" fill="white"/>
</clipPath>
</defs>
</svg>
