<svg width="76" height="100" viewBox="0 0 76 100" fill="none" xmlns="http://www.w3.org/2000/svg">
<path d="M53.0017 87.2951V85.2424C53.0017 84.6782 53.2625 84.1459 53.7082 83.8002C54.6502 83.0694 54.6502 81.6467 53.7082 80.9159C53.2625 80.5702 53.0017 80.0378 53.0017 79.4737V77.421C53.0017 76.7031 53.5837 76.1214 54.3014 76.1214C55.0192 76.1214 55.601 75.5394 55.601 74.8216V73.3471C55.601 72.6292 55.019 72.0473 54.3014 72.0473C53.5835 72.0473 53.0017 71.4653 53.0017 70.7476V66.8257C53.0017 66.1078 53.5837 65.5259 54.3014 65.5259C55.0192 65.5259 55.601 64.9439 55.601 64.2263V57.6016H40.9023V91.0661C40.9023 92.3924 41.3884 93.6726 42.2684 94.6647L46.1735 99.0669C47.2788 100.313 49.2247 100.313 50.33 99.0669L54.2351 94.6647C55.1153 93.6726 55.6012 92.3924 55.6012 91.0661V89.8945C55.6012 89.1767 55.0192 88.5947 54.3015 88.5947C53.5837 88.5949 53.0017 88.0129 53.0017 87.2951Z" fill="url(#paint0_linear)"/>
<path d="M50.5966 57.6016V92.33C50.5966 93.6249 49.5468 94.6747 48.2519 94.6747C46.957 94.6747 45.9072 93.6249 45.9072 92.33V57.6016H50.5966Z" fill="url(#paint1_linear)"/>
<path d="M55.6012 73.3471C55.6012 72.6292 55.0192 72.0472 54.3013 72.0472C53.5835 72.0472 53.0017 71.4653 53.0017 70.7476V66.8257C53.0017 66.1078 53.5837 65.5261 54.3013 65.5261C55.0192 65.5261 55.6012 64.9441 55.6012 64.2263V57.6016H40.9023V61.0686L55.3804 75.5467C55.5198 75.3396 55.6013 75.0902 55.6013 74.8218V73.3471H55.6012Z" fill="url(#paint2_linear)"/>
<path d="M48.2517 20.2617C36.5389 20.2617 27.0435 29.757 27.0435 41.47C27.0435 53.1829 36.5388 62.6782 48.2517 62.6782C59.9646 62.6782 69.4599 53.1829 69.4599 41.47C69.4599 29.757 59.9646 20.2617 48.2517 20.2617ZM48.2517 39.4276C44.9311 39.4276 42.2384 36.737 42.2384 33.4143C42.2384 30.0937 44.9311 27.4033 48.2517 27.4033C51.5723 27.4033 54.265 30.0939 54.265 33.4143C54.265 36.737 51.5723 39.4276 48.2517 39.4276Z" fill="url(#paint3_linear)"/>
<path d="M48.2515 23.9688C38.5856 23.9688 30.7505 31.8038 30.7505 41.4697C30.7505 51.1356 38.5856 58.9707 48.2515 58.9707C57.9174 58.9707 65.7525 51.1356 65.7525 41.4697C65.7525 31.8038 57.9174 23.9688 48.2515 23.9688ZM48.2515 39.4274C44.9309 39.4274 42.2381 36.7368 42.2381 33.414C42.2381 30.0935 44.9309 27.4031 48.2515 27.4031C51.5721 27.4031 54.2648 30.0937 54.2648 33.414C54.2648 36.7368 51.5721 39.4274 48.2515 39.4274Z" fill="url(#paint4_linear)"/>
<path d="M48.2517 20.2617C36.5389 20.2617 27.0435 29.757 27.0435 41.47C27.0435 53.1829 36.5388 62.6782 48.2517 62.6782C59.9646 62.6782 69.4599 53.1829 69.4599 41.47C69.4599 29.757 59.9646 20.2617 48.2517 20.2617ZM48.2517 39.4276C44.9311 39.4276 42.2384 36.737 42.2384 33.4143C42.2384 30.0937 44.9311 27.4033 48.2517 27.4033C51.5723 27.4033 54.265 30.0939 54.265 33.4143C54.265 36.737 51.5723 39.4276 48.2517 39.4276Z" fill="url(#paint5_linear)"/>
<path d="M13.5684 74.9637L15.0197 73.5123C15.4186 73.1135 15.9793 72.9215 16.5389 72.9921C17.7217 73.1415 18.7278 72.1354 18.5784 70.9527C18.5078 70.3931 18.6997 69.8323 19.0986 69.4335L20.5499 67.9821C21.0576 67.4745 21.8805 67.4745 22.388 67.9821C22.8956 68.4898 23.7186 68.4898 24.226 67.9821L25.2686 66.9396C25.7762 66.4319 25.7762 65.609 25.2686 65.1015C24.7609 64.5939 24.7609 63.7709 25.2686 63.2635L28.0419 60.4901C28.5495 59.9825 29.3725 59.9825 29.8799 60.4901C30.3876 60.9978 31.2105 60.9978 31.718 60.4901L36.4023 55.8058L26.0086 45.4121L2.3462 69.0745C1.40836 70.0123 0.846792 71.2611 0.767576 72.5851L0.416203 78.4592C0.316792 80.1217 1.69267 81.4976 3.35522 81.3982L9.22934 81.0468C10.5533 80.9676 11.8021 80.406 12.7399 79.4682L13.5684 78.6398C14.076 78.1321 14.076 77.3094 13.5684 76.8017C13.0607 76.2941 13.0607 75.4713 13.5684 74.9637Z" fill="url(#paint6_linear)"/>
<path d="M32.864 52.2671L8.30734 76.8237C7.39165 77.7394 5.90714 77.7394 4.99145 76.8237C4.07577 75.908 4.07577 74.4235 4.99145 73.5078L29.5481 48.9512L32.864 52.2671Z" fill="url(#paint7_linear)"/>
<path d="M57.6089 24.2058C49.3268 15.9236 35.8983 15.9236 27.616 24.2058C19.3336 32.4879 19.3338 45.9164 27.616 54.1987C35.8981 62.4811 49.3266 62.4809 57.6089 54.1987C65.8913 45.9166 65.8913 32.4879 57.6089 24.2058ZM44.0568 37.7579C41.7087 35.4099 41.7072 31.6034 44.0568 29.2538C46.4048 26.9058 50.2113 26.9075 52.5593 29.2554C54.9074 31.6034 54.9089 35.4099 52.5609 37.7579C50.2113 40.1075 46.4046 40.106 44.0568 37.7579Z" fill="url(#paint8_linear)"/>
<path d="M54.9877 26.8273C48.1528 19.9924 37.0724 19.9924 30.2375 26.8273C23.4026 33.6623 23.4026 44.7426 30.2375 51.5775C37.0724 58.4124 48.1528 58.4124 54.9877 51.5775C61.8226 44.7426 61.8226 33.6621 54.9877 26.8273ZM44.0569 37.7581C41.7089 35.4101 41.7073 31.6036 44.0569 29.254C46.405 26.906 50.2114 26.9077 52.5595 29.2556C54.9075 31.6036 54.9091 35.4101 52.561 37.7581C50.2114 40.1077 46.4048 40.1062 44.0569 37.7581Z" fill="url(#paint9_linear)"/>
<path d="M52.0591 38.2064L66.3624 52.5098C68.3271 49.2937 69.4597 45.5141 69.4597 41.4696C69.4597 38.6535 68.9095 35.9662 67.9128 33.5078C66.0626 35.2704 61.3995 38.4637 52.0591 38.2064Z" fill="url(#paint10_linear)"/>
<path d="M56.2569 0C45.7901 0 37.2377 8.36569 36.9355 18.7641C39.7485 17.9859 42.6879 17.7973 45.5628 18.2002C46.1289 12.7996 50.7083 8.57588 56.2569 8.57588C62.1893 8.57588 67.0132 13.402 67.0132 19.3322C67.0132 23.4978 64.6312 27.119 61.1603 28.9049C59.6895 29.6618 58.0214 30.0884 56.2569 30.0884C55.052 30.0884 53.8942 29.889 52.8116 29.5224H52.8095C51.5403 29.0914 50.3783 28.429 49.3706 27.5884C47.501 27.2518 45.503 27.8071 44.0579 29.2522C43.0781 30.232 42.5079 31.4647 42.3469 32.7382C44.9326 35.4269 48.2922 37.3671 52.0591 38.2053C53.412 38.5055 54.8163 38.6641 56.2569 38.6641C58.9026 38.6641 61.4259 38.1302 63.7244 37.1633C70.6879 34.2369 75.5891 27.3461 75.5891 19.332C75.5891 8.67235 66.9167 0 56.2569 0V0Z" fill="url(#paint11_linear)"/>
<path d="M71.1317 19.3325C71.1317 11.1203 64.4745 4.46289 56.2621 4.46289C48.49 4.46289 42.1145 10.4268 41.4531 18.0274C42.8239 17.9529 44.2006 18.0094 45.5627 18.2003C46.1288 12.7998 50.7082 8.57603 56.2568 8.57603C62.1892 8.57603 67.0131 13.4021 67.0131 19.3323C67.0131 23.498 64.6312 27.1192 61.1602 28.9051C59.6894 29.6619 58.0214 30.0886 56.2568 30.0886C55.0519 30.0886 53.8941 29.8892 52.8116 29.5225H52.8094C51.5402 29.0915 50.3782 28.4292 49.3706 27.5886C47.7678 27.3 46.0716 27.669 44.7094 28.6901C47.4357 32.0517 51.5972 34.2017 56.2623 34.2017C64.4745 34.2021 71.1317 27.5449 71.1317 19.3325Z" fill="url(#paint12_linear)"/>
<defs>
<linearGradient id="paint0_linear" x1="41.8159" y1="78.8016" x2="53.5625" y2="78.8016" gradientUnits="userSpaceOnUse">
<stop stop-color="#FFDA2D"/>
<stop offset="1" stop-color="#FDBF00"/>
</linearGradient>
<linearGradient id="paint1_linear" x1="53.1392" y1="76.138" x2="45.7049" y2="76.138" gradientUnits="userSpaceOnUse">
<stop stop-color="#FFDA2D"/>
<stop offset="1" stop-color="#FDBF00"/>
</linearGradient>
<linearGradient id="paint2_linear" x1="52.577" y1="70.2159" x2="48.0033" y2="58.71" gradientUnits="userSpaceOnUse">
<stop stop-color="#FF9100" stop-opacity="0"/>
<stop offset="1" stop-color="#FF9100"/>
</linearGradient>
<linearGradient id="paint3_linear" x1="38.7158" y1="51.0058" x2="81.6099" y2="8.11174" gradientUnits="userSpaceOnUse">
<stop stop-color="#FFDA2D"/>
<stop offset="1" stop-color="#FDBF00"/>
</linearGradient>
<linearGradient id="paint4_linear" x1="56.6617" y1="33.0595" x2="16.0709" y2="73.6503" gradientUnits="userSpaceOnUse">
<stop stop-color="#FFDA2D"/>
<stop offset="1" stop-color="#FDBF00"/>
</linearGradient>
<linearGradient id="paint5_linear" x1="64.2329" y1="57.4511" x2="49.8499" y2="43.0682" gradientUnits="userSpaceOnUse">
<stop stop-color="#FF9100" stop-opacity="0"/>
<stop offset="1" stop-color="#FF9100"/>
</linearGradient>
<linearGradient id="paint6_linear" x1="11.6375" y1="61.066" x2="19.9422" y2="69.3708" gradientUnits="userSpaceOnUse">
<stop stop-color="#FFDA2D"/>
<stop offset="1" stop-color="#FDBF00"/>
</linearGradient>
<linearGradient id="paint7_linear" x1="21.5259" y1="67.189" x2="16.2699" y2="61.9329" gradientUnits="userSpaceOnUse">
<stop stop-color="#FFDA2D"/>
<stop offset="1" stop-color="#FDBF00"/>
</linearGradient>
<linearGradient id="paint8_linear" x1="29.0971" y1="39.2233" x2="89.7494" y2="39.2233" gradientUnits="userSpaceOnUse">
<stop stop-color="#FFDA2D"/>
<stop offset="1" stop-color="#FDBF00"/>
</linearGradient>
<linearGradient id="paint9_linear" x1="54.4727" y1="39.2235" x2="-2.92237" y2="39.2235" gradientUnits="userSpaceOnUse">
<stop stop-color="#FFDA2D"/>
<stop offset="1" stop-color="#FDBF00"/>
</linearGradient>
<linearGradient id="paint10_linear" x1="63.2673" y1="45.8513" x2="60.2657" y2="36.6323" gradientUnits="userSpaceOnUse">
<stop stop-color="#FF9100" stop-opacity="0"/>
<stop offset="1" stop-color="#FF9100"/>
</linearGradient>
<linearGradient id="paint11_linear" x1="36.9355" y1="19.3322" x2="75.5891" y2="19.3322" gradientUnits="userSpaceOnUse">
<stop stop-color="#0B799D"/>
<stop offset="1" stop-color="#07485E"/>
</linearGradient>
<linearGradient id="paint12_linear" x1="75.4361" y1="38.5047" x2="42.1137" y2="5.18232" gradientUnits="userSpaceOnUse">
<stop stop-color="#0B799D"/>
<stop offset="1" stop-color="#07485E"/>
</linearGradient>
</defs>
</svg>
