<svg width="141" height="177" viewBox="0 0 141 177" fill="none" xmlns="http://www.w3.org/2000/svg">
<path d="M137.209 21.2113C114.187 18.0526 92.4532 11.2768 72.184 0.45329C70.9977 -0.180118 70.1643 -0.130119 69.0197 0.481064C48.1365 11.6241 25.7198 18.4499 1.97234 21.4669C0.427701 21.6614 -0.0584256 22.0225 0.00547141 23.5588C0.640737 38.5791 1.22137 53.6022 1.74736 68.6281C2.02518 76.6846 2.39742 84.7411 4.15042 92.6309C12.3959 129.796 34.1255 157.621 69.3392 176.105C70.3477 176.627 71.0367 176.485 71.9396 176.021C87.1998 168.243 100.338 158.039 111.125 145.223C127.299 126.004 136.562 104.157 138.537 79.6849C139.279 70.545 139.473 61.3688 139.926 52.2094H139.879C140.249 43.2639 140.61 34.3147 140.962 25.3618C141.098 21.7003 141.071 21.7503 137.209 21.2113Z" fill="url(#paint0_linear)"/>
<path d="M131.659 27.8841C110.781 24.5865 90.9537 18.3579 72.2764 8.95403C71.0096 8.32062 70.1317 8.36788 68.9066 8.98462C50.2293 18.3885 30.3935 24.6032 9.51873 27.8758C8.34359 28.0591 8.08522 28.4592 8.12967 29.5065C8.46583 37.3353 8.74365 45.1723 9.04091 53.0094H9.46318C9.46318 56.6348 9.40762 60.263 9.46318 63.8829C9.69099 75.5121 10.2966 87.1052 13.5637 98.4176C22.2536 128.547 40.8179 151.61 69.2566 167.607C70.2039 168.143 70.8984 168.129 71.8569 167.607C76.5158 164.984 81.0553 162.186 85.2891 158.978C113.248 137.77 128.555 110.252 130.897 76.5372C132.009 60.7909 132.287 45.0001 133.003 29.2315C133.067 28.1397 132.531 28.0258 131.659 27.8841Z" fill="#EA6766"/>
<path d="M123.403 33.973C105.53 30.6282 88.1726 24.9502 71.7777 17.0848C70.8137 16.6237 70.1553 16.807 69.2941 17.2071C52.9255 24.9985 35.6164 30.636 17.7989 33.9786C16.596 34.2064 16.2098 34.6287 16.2654 35.8261C16.6571 44.5633 16.9433 53.3004 17.3044 62.0349C17.6628 70.7109 17.61 79.412 19.2991 88.002C25.2683 118.361 41.9546 141.997 69.3579 158.908C70.2414 159.464 70.8526 159.464 71.7472 158.922C79.944 153.995 87.4614 148.018 94.1082 141.142C109.749 124.838 119.144 105.784 122.292 83.9792C123.562 75.1254 123.284 66.1992 123.79 59.4428C124.195 50.1306 124.47 42.9408 124.845 35.7483C124.895 34.6065 124.576 34.2036 123.403 33.973Z" fill="#FE7581"/>
<path d="M76.109 54.207V80.233C76.109 82.9933 75.9725 85.7082 75.6995 88.3775C75.4265 91.0165 75.0777 93.8223 74.653 96.795H67.009C66.5843 93.8223 66.2355 91.0165 65.9625 88.3775C65.6895 85.7082 65.553 82.9933 65.553 80.233V54.207H76.109ZM63.7785 113.812C63.7785 112.872 63.9453 111.977 64.279 111.127C64.643 110.278 65.1283 109.55 65.735 108.943C66.372 108.337 67.1152 107.851 67.9645 107.487C68.8138 107.123 69.7238 106.941 70.6945 106.941C71.6348 106.941 72.5297 107.123 73.379 107.487C74.2283 107.851 74.9563 108.337 75.563 108.943C76.2 109.55 76.7005 110.278 77.0645 111.127C77.4285 111.977 77.6105 112.872 77.6105 113.812C77.6105 114.783 77.4285 115.693 77.0645 116.542C76.7005 117.361 76.2 118.074 75.563 118.68C74.9563 119.287 74.2283 119.757 73.379 120.091C72.5297 120.455 71.6348 120.637 70.6945 120.637C69.7238 120.637 68.8138 120.455 67.9645 120.091C67.1152 119.757 66.372 119.287 65.735 118.68C65.1283 118.074 64.643 117.361 64.279 116.542C63.9453 115.693 63.7785 114.783 63.7785 113.812Z" fill="white"/>
<defs>
<linearGradient id="paint0_linear" x1="70.4977" y1="177.627" x2="70.4977" y2="2.75079" gradientUnits="userSpaceOnUse">
<stop stop-color="#CCCCCC"/>
<stop offset="1" stop-color="white"/>
</linearGradient>
</defs>
</svg>
