<svg width="141" height="177" viewBox="0 0 141 177" fill="none" xmlns="http://www.w3.org/2000/svg">
<path d="M137.209 21.2113C114.187 18.0526 92.4532 11.2768 72.184 0.45329C70.9977 -0.180118 70.1643 -0.130119 69.0197 0.481064C48.1365 11.6241 25.7198 18.4499 1.97234 21.4669C0.427701 21.6614 -0.0584256 22.0225 0.00547141 23.5588C0.640737 38.5791 1.22137 53.6022 1.74736 68.6281C2.02518 76.6846 2.39742 84.7411 4.15042 92.6309C12.3959 129.796 34.1255 157.621 69.3392 176.105C70.3477 176.627 71.0367 176.485 71.9396 176.021C87.1998 168.243 100.338 158.039 111.125 145.223C127.299 126.004 136.562 104.157 138.537 79.6849C139.279 70.545 139.473 61.3688 139.926 52.2094H139.879C140.249 43.2639 140.61 34.3147 140.962 25.3618C141.098 21.7003 141.071 21.7503 137.209 21.2113Z" fill="url(#paint0_linear)"/>
<path d="M131.659 27.8841C110.781 24.5865 90.9537 18.3579 72.2764 8.95403C71.0096 8.32062 70.1317 8.36788 68.9066 8.98462C50.2293 18.3885 30.3935 24.6032 9.51873 27.8758C8.34359 28.0591 8.08522 28.4592 8.12967 29.5065C8.46583 37.3353 8.74365 45.1723 9.04091 53.0094H9.46318C9.46318 56.6348 9.40762 60.263 9.46318 63.8829C9.69099 75.5121 10.2966 87.1052 13.5637 98.4176C22.2536 128.547 40.8179 151.61 69.2566 167.607C70.2039 168.143 70.8984 168.129 71.8569 167.607C76.5158 164.984 81.0553 162.186 85.2891 158.978C113.248 137.77 128.555 110.252 130.897 76.5372C132.009 60.7909 132.287 45.0001 133.003 29.2315C133.067 28.1397 132.531 28.0258 131.659 27.8841Z" fill="#47AD7D"/>
<path d="M123.403 33.973C105.53 30.6282 88.1726 24.9502 71.7777 17.0848C70.8137 16.6237 70.1553 16.807 69.2941 17.2071C52.9255 24.9985 35.6164 30.636 17.7989 33.9786C16.596 34.2064 16.2098 34.6287 16.2654 35.8261C16.6571 44.5633 16.9433 53.3004 17.3044 62.0349C17.6628 70.7109 17.61 79.412 19.2991 88.002C25.2683 118.361 41.9546 141.997 69.3579 158.908C70.2414 159.464 70.8526 159.464 71.7472 158.922C79.944 153.995 87.4614 148.018 94.1082 141.142C109.749 124.838 119.144 105.784 122.292 83.9792C123.562 75.1254 123.284 66.1992 123.79 59.4428C124.195 50.1306 124.47 42.9408 124.845 35.7483C124.895 34.6065 124.576 34.2036 123.403 33.973Z" fill="#5AC794"/>
<path fill-rule="evenodd" clip-rule="evenodd" d="M70.4258 117.992C63.4334 117.992 56.4353 118.006 49.4373 117.972C48.6336 117.976 47.8376 117.815 47.0982 117.5C45.7258 116.872 45.0312 115.716 45.0312 114.166C45.0312 101.241 45.0312 88.3136 45.0312 75.3844C45.0312 73.223 46.6732 71.6368 48.9762 71.5784C50.318 71.5451 51.6626 71.5784 53.0072 71.5784C65.842 71.5784 78.6767 71.5867 91.5115 71.6034C92.3839 71.6122 93.2441 71.8083 94.0341 72.1785C95.2925 72.7785 95.9509 73.8842 95.9509 75.3205C95.9509 88.2756 95.9509 101.226 95.9509 114.172C95.9635 115.17 95.5799 116.132 94.8842 116.848C94.1884 117.563 93.2373 117.974 92.2394 117.989C91.2004 118.028 90.1559 117.989 89.1141 117.989L70.4258 117.992ZM67.5644 99.1869V102.937C67.5811 104.782 68.7701 106.074 70.4591 106.082C72.1482 106.09 73.3984 104.799 73.4067 102.921C73.4067 100.395 73.4067 97.8729 73.4067 95.3504C73.3875 95.1502 73.4288 94.949 73.5254 94.7726C73.622 94.5962 73.7694 94.453 73.9484 94.3614C75.1288 93.6539 76.056 92.5922 76.5981 91.3273C77.1403 90.0625 77.2698 88.6589 76.9683 87.3162C76.7374 86.2434 76.2437 85.2448 75.5316 84.4099C74.8195 83.5751 73.9111 82.9302 72.8881 82.5332C71.8652 82.1361 70.7596 81.9994 69.6707 82.1352C68.5819 82.271 67.5437 82.6751 66.6496 83.3113C65.7555 83.9474 65.0334 84.7956 64.5481 85.7798C64.0628 86.764 63.8296 87.8533 63.8693 88.9499C63.909 90.0465 64.2205 91.1161 64.7758 92.0625C65.331 93.009 66.1126 93.8027 67.0504 94.3725C67.2238 94.4522 67.3683 94.5837 67.4638 94.7489C67.5593 94.914 67.6013 95.1048 67.5839 95.2948C67.5644 96.5922 67.5644 97.8896 67.5644 99.1869Z" fill="white"/>
<path fill-rule="evenodd" clip-rule="evenodd" d="M90.9 68.1806C90.78 68.2064 90.6584 68.2241 90.536 68.2335H82.9156V67.4C82.9156 63.7163 82.935 60.0325 82.9156 56.3487C82.9293 53.3305 81.8619 50.407 79.9065 48.1077C77.9512 45.8084 75.2371 44.2852 72.2558 43.8139C65.1715 42.611 58.1873 47.9366 57.7344 55.0875C57.4872 58.9212 57.6399 62.7745 57.6121 66.6194C57.6121 67.1278 57.6121 67.6333 57.6121 68.1917H49.7028C49.6716 68.064 49.6511 67.934 49.6416 67.8028C49.6416 63.7024 49.5528 59.5991 49.6722 55.5014C49.9501 46.0281 56.8704 37.9494 66.1855 36.0852C76.6258 33.9933 86.9439 40.0996 89.9859 50.2813C90.5234 52.1242 90.8267 54.0273 90.8888 55.9459C91.025 59.8547 90.9333 63.7746 90.9333 67.689C90.9139 67.8362 90.9 67.9945 90.9 68.1806Z" fill="white"/>
<defs>
<linearGradient id="paint0_linear" x1="70.4977" y1="177.627" x2="70.4977" y2="2.75079" gradientUnits="userSpaceOnUse">
<stop stop-color="#CCCCCC"/>
<stop offset="1" stop-color="white"/>
</linearGradient>
</defs>
</svg>
