<svg width="141" height="177" viewBox="0 0 141 177" fill="none" xmlns="http://www.w3.org/2000/svg">
<path d="M137.209 21.2113C114.187 18.0526 92.4532 11.2768 72.184 0.45329C70.9977 -0.180118 70.1643 -0.130119 69.0197 0.481064C48.1365 11.6241 25.7198 18.4499 1.97234 21.4669C0.427701 21.6614 -0.0584256 22.0225 0.00547141 23.5588C0.640737 38.5791 1.22137 53.6022 1.74736 68.6281C2.02518 76.6846 2.39742 84.7411 4.15042 92.6309C12.3959 129.796 34.1255 157.621 69.3392 176.105C70.3477 176.627 71.0367 176.485 71.9396 176.021C87.1998 168.243 100.338 158.039 111.125 145.223C127.299 126.004 136.562 104.157 138.537 79.6849C139.279 70.545 139.473 61.3688 139.926 52.2094H139.879C140.249 43.2639 140.61 34.3147 140.962 25.3618C141.098 21.7003 141.071 21.7503 137.209 21.2113Z" fill="url(#paint0_linear)"/>
<path d="M131.659 27.884C110.781 24.5864 90.9537 18.3579 72.2764 8.95397C71.0096 8.32056 70.1317 8.36781 68.9066 8.98456C50.2293 18.3885 30.3935 24.6031 9.51873 27.8757C8.34359 28.0591 8.08522 28.4591 8.12967 29.5065C8.46583 37.3352 8.74365 45.1723 9.04091 53.0093H9.46318C9.46318 56.6348 9.40762 60.2629 9.46318 63.8828C9.69099 75.512 10.2966 87.1051 13.5637 98.4176C22.2536 128.547 40.8179 151.61 69.2566 167.607C70.2039 168.143 70.8984 168.129 71.8569 167.607C76.5158 164.984 81.0553 162.186 85.2891 158.978C113.248 137.77 128.555 110.252 130.897 76.5371C132.009 60.7908 132.287 45 133.003 29.2314C133.067 28.1397 132.531 28.0257 131.659 27.884Z" fill="#FFA200"/>
<path d="M123.403 33.9729C105.53 30.6281 88.1726 24.9501 71.7777 17.0847C70.8137 16.6235 70.1553 16.8069 69.2941 17.207C52.9255 24.9984 35.6164 30.6358 17.7989 33.9785C16.596 34.2063 16.2098 34.6286 16.2654 35.8259C16.6571 44.5631 16.9433 53.3003 17.3044 62.0347C17.6628 70.7108 17.61 79.4119 19.2991 88.0018C25.2683 118.361 41.9546 141.996 69.3579 158.908C70.2414 159.463 70.8526 159.463 71.7472 158.922C79.944 153.995 87.4614 148.018 94.1082 141.142C109.749 124.838 119.144 105.784 122.292 83.9791C123.562 75.1252 123.284 66.1991 123.79 59.4427C124.195 50.1305 124.47 42.9407 124.845 35.7481C124.895 34.6063 124.576 34.2035 123.403 33.9729Z" fill="#FEC649"/>
<path d="M53.2305 60.1675C54.2618 59.2575 55.3842 58.393 56.5975 57.574C57.8412 56.755 59.1758 56.0422 60.6015 55.4355C62.0272 54.8288 63.5742 54.3587 65.2425 54.025C66.9108 53.661 68.7157 53.479 70.657 53.479C73.296 53.479 75.6923 53.843 77.846 54.571C80.03 55.299 81.8955 56.3455 83.4425 57.7105C84.9895 59.0452 86.1877 60.668 87.037 62.579C87.8863 64.49 88.311 66.6285 88.311 68.9945C88.311 71.2998 87.9773 73.3018 87.31 75.0005C86.6427 76.6688 85.8085 78.1248 84.8075 79.3685C83.8065 80.6122 82.6993 81.689 81.486 82.599C80.303 83.509 79.1807 84.3735 78.119 85.1925C77.0573 85.9812 76.1322 86.7698 75.3435 87.5585C74.5852 88.3168 74.1302 89.1813 73.9785 90.152L72.932 96.795H65.2425L64.469 89.3785C64.287 87.9528 64.4842 86.7092 65.0605 85.6475C65.6672 84.5555 66.4558 83.5697 67.4265 82.69C68.4275 81.78 69.5347 80.9155 70.748 80.0965C71.9613 79.2472 73.0988 78.3372 74.1605 77.3665C75.2222 76.3655 76.1018 75.2583 76.7995 74.045C77.5275 72.8013 77.8915 71.3302 77.8915 69.6315C77.8915 68.5395 77.6792 67.5688 77.2545 66.7195C76.8602 65.8398 76.299 65.0967 75.571 64.49C74.843 63.853 73.9633 63.3677 72.932 63.034C71.931 62.7003 70.839 62.5335 69.656 62.5335C67.927 62.5335 66.4558 62.7307 65.2425 63.125C64.0595 63.489 63.0433 63.9137 62.194 64.399C61.375 64.854 60.6773 65.2787 60.101 65.673C59.5247 66.037 59.009 66.219 58.554 66.219C57.462 66.219 56.6733 65.764 56.188 64.854L53.2305 60.1675ZM61.83 113.812C61.83 112.872 61.9968 111.977 62.3305 111.127C62.6945 110.278 63.1798 109.55 63.7865 108.943C64.3932 108.337 65.1212 107.851 65.9705 107.487C66.8198 107.123 67.7298 106.941 68.7005 106.941C69.6712 106.941 70.566 107.123 71.385 107.487C72.2343 107.851 72.9623 108.337 73.569 108.943C74.206 109.55 74.7065 110.278 75.0705 111.127C75.4345 111.977 75.6165 112.872 75.6165 113.812C75.6165 114.783 75.4345 115.693 75.0705 116.542C74.7065 117.361 74.206 118.074 73.569 118.68C72.9623 119.287 72.2343 119.757 71.385 120.091C70.566 120.455 69.6712 120.637 68.7005 120.637C67.7298 120.637 66.8198 120.455 65.9705 120.091C65.1212 119.757 64.3932 119.287 63.7865 118.68C63.1798 118.074 62.6945 117.361 62.3305 116.542C61.9968 115.693 61.83 114.783 61.83 113.812Z" fill="white"/>
<defs>
<linearGradient id="paint0_linear" x1="70.4977" y1="177.627" x2="70.4977" y2="2.75079" gradientUnits="userSpaceOnUse">
<stop stop-color="#CCCCCC"/>
<stop offset="1" stop-color="white"/>
</linearGradient>
</defs>
</svg>
