<svg width="108" height="134" viewBox="0 0 108 134" fill="none" xmlns="http://www.w3.org/2000/svg">
<path d="M104.207 16.1095C86.7219 13.7105 70.2159 8.56445 54.822 0.344263C53.921 -0.136795 53.2881 -0.0988224 52.4188 0.365356C36.5585 8.82818 19.5335 14.0122 1.49794 16.3036C0.324828 16.4513 -0.0443728 16.7256 0.0041554 17.8923C0.486624 29.2999 0.927601 40.7095 1.32708 52.1213C1.53807 58.24 1.82078 64.3587 3.15214 70.3509C9.41438 98.5771 25.9175 119.709 52.6614 133.747C53.4273 134.144 53.9506 134.036 54.6363 133.684C66.2261 127.776 76.2039 120.026 84.3967 110.293C96.6807 95.6971 103.715 79.1049 105.215 60.5187C105.779 53.5771 105.926 46.6081 106.27 39.6518H106.234C106.516 32.8579 106.79 26.0612 107.057 19.2617C107.161 16.4808 107.14 16.5188 104.207 16.1095Z" fill="url(#paint0_linear)"/>
<path d="M99.9916 21.1773C84.1357 18.6728 69.0772 13.9424 54.8923 6.80034C53.9302 6.31928 53.2635 6.35517 52.333 6.82357C38.1481 13.9656 23.0833 18.6855 7.2294 21.1709C6.33691 21.3102 6.14069 21.614 6.17445 22.4095C6.42975 28.3552 6.64075 34.3072 6.86651 40.2593H7.18722C7.18722 43.0127 7.14502 45.7682 7.18722 48.5174C7.36023 57.3495 7.82019 66.1542 10.3014 74.7457C16.9013 97.6284 31.0004 115.144 52.5988 127.293C53.3183 127.7 53.8458 127.69 54.5737 127.293C58.112 125.301 61.5596 123.177 64.7751 120.74C86.0093 104.633 97.6349 83.7339 99.4135 58.1281C100.257 46.1691 100.468 34.1764 101.013 22.2006C101.061 21.3714 100.654 21.2849 99.9916 21.1773Z" fill="#EDF0F5"/>
<path d="M93.7217 25.8016C80.147 23.2613 66.9648 18.949 54.5132 12.9754C53.7811 12.6252 53.281 12.7644 52.627 13.0683C40.1955 18.9857 27.0496 23.2672 13.5177 25.8058C12.6041 25.9788 12.3108 26.2995 12.353 27.2089C12.6505 33.8446 12.8678 40.4803 13.1421 47.1138C13.4143 53.7031 13.3742 60.3113 14.657 66.8352C19.1905 89.8923 31.8633 107.843 52.6755 120.687C53.3465 121.109 53.8107 121.109 54.49 120.697C60.7153 116.955 66.4246 112.416 71.4727 107.194C83.3515 94.8113 90.4865 80.3401 92.8777 63.7801C93.842 57.0558 93.631 50.2766 94.015 45.1453C94.323 38.0728 94.5319 32.6124 94.8167 27.1498C94.8547 26.2826 94.6121 25.9767 93.7217 25.8016Z" fill="#8392B8"/>
<circle cx="53.9226" cy="59.9986" r="21.0437" stroke="white" stroke-width="5"/>
<rect x="52.4038" y="47.8469" width="2.27843" height="15.1895" fill="white"/>
<rect x="52.4038" y="63.0364" width="2.27843" height="15.1895" transform="rotate(-90 52.4038 63.0364)" fill="white"/>
<defs>
<linearGradient id="paint0_linear" x1="53.5413" y1="134.903" x2="53.5413" y2="2.08916" gradientUnits="userSpaceOnUse">
<stop stop-color="#CCCCCC"/>
<stop offset="1" stop-color="white"/>
</linearGradient>
</defs>
</svg>
