<svg width="92" height="56" viewBox="0 0 92 56" fill="none" xmlns="http://www.w3.org/2000/svg">
<path d="M30.4137 54.7691C30.4137 55.7556 28.9136 55.7556 28.9136 54.7691V39.475C28.9136 33.7357 34.8079 31.4129 39.3544 29.506C39.9042 29.2755 39.7934 29.3839 39.8615 28.7816L40.0714 26.9265C40.179 25.9754 40.2317 26.2733 39.7162 25.5072C39.1013 24.5935 38.6011 23.5206 38.3295 22.3043C38.1963 21.7075 37.5582 21.7005 37.0802 21.1551C36.4154 20.3965 35.9271 19.128 35.7097 17.8442C35.4838 16.5108 35.4419 14.422 36.5498 13.451C37.136 13.088 37.2094 12.9068 37.1026 12.1846C36.8386 10.4011 36.6444 8.32631 36.9787 6.5006C37.3597 4.44346 38.4139 2.8026 40.621 2.07449C41.2954 1.85201 41.2089 1.88257 41.7963 1.50553C43.2602 0.56592 45.2805 0.326292 46.9459 0.443944C53.2749 0.890996 56.7042 5.11385 56.0593 11.2863C55.9577 12.2591 55.7188 12.9965 56.5061 13.451C57.0107 13.8932 57.3019 14.6034 57.4165 15.432C57.658 17.1783 57.139 19.8277 55.9756 21.1551C55.4976 21.7004 54.8596 21.7075 54.7263 22.3043C54.4796 23.4091 54.0571 24.3894 53.522 25.2445C52.8256 26.3573 52.8631 25.8782 52.9796 27.2535L53.0644 28.2548C53.1664 29.4579 52.9714 29.2057 54.0741 29.6759C58.6434 31.6244 64.0479 33.8388 64.0479 39.6V54.7691C64.0479 55.7556 62.5479 55.7556 62.5479 54.7691V39.6C62.5479 37.8881 61.9837 36.5471 60.9697 35.4491C59.3126 33.6549 56.5536 32.3625 53.6665 31.1266C52.4671 30.6132 52.7829 30.5261 51.8434 31.3974L48.0042 34.9582C47.0484 35.8447 47.2042 35.5518 47.2042 36.8624V54.8438C47.2042 55.8303 45.7042 55.8303 45.7042 54.8438V36.7374C45.7042 35.5346 45.8283 35.8153 44.9468 34.9977L41.0611 31.3938C40.1055 30.5075 40.3972 30.6532 39.1497 31.1889C36.183 32.463 33.3694 33.8048 31.7705 35.6999C30.8412 36.8012 30.4137 38.0874 30.4137 39.5375V54.7691ZM71.4416 18.0651C70.5861 18.5468 69.8537 17.246 70.7092 16.7643C71.1281 16.5276 71.3292 16.1156 71.3672 15.6477C71.4195 14.9804 72.2498 14.7201 72.6797 15.2147C74.0159 16.5712 79.0223 13.8375 81.3781 16.5247C82.0247 17.2636 80.8997 18.248 80.2531 17.509C78.9916 16.0702 75.1486 17.3338 73.1101 17.0267C72.4984 16.9346 72.5537 17.0317 72.1719 17.4707C71.9451 17.7314 71.6882 17.9258 71.4416 18.0651ZM72.1767 12.3857C72.1403 13.1596 71.2058 13.2805 70.833 12.8169C70.545 12.4587 70.8867 11.7397 70.1751 12.8303C69.8915 13.2649 69.7139 13.7813 69.6115 14.3402C69.3229 15.9166 69.586 17.8494 69.8377 19.3795C70.0607 20.826 68.6898 20.3928 68.5 21.765C68.3529 22.8292 68.6732 24.6624 69.3789 25.4676C69.9001 26.0622 70.4176 25.6278 70.7327 27.039C71.0362 28.3983 71.7463 29.5945 72.7778 30.5158C75.0832 32.5752 77.4774 32.5643 79.7649 30.4927C80.7774 29.5757 81.4912 28.381 81.7908 27.039C82.1059 25.6278 82.6234 26.0622 83.1446 25.4676C83.8503 24.6624 84.1707 22.8292 84.0235 21.765C83.8551 20.547 83.6121 21.1477 83.0706 20.6212C82.3133 19.8849 82.9621 17.653 82.9621 16.4851C82.9621 13.568 81.1475 11.7742 78.9951 10.94C77.9179 10.5225 76.6333 10.3054 75.4235 10.3837C74.236 10.4605 72.2477 10.9512 72.1767 12.3857ZM68.1408 14.0706C68.4661 12.2943 69.3714 10.9003 71.2766 10.2459C72.9487 9.67158 73.2001 8.98969 75.2723 8.85196C76.6444 8.76075 78.2534 9.04905 79.5341 9.54547C82.2079 10.5818 84.4621 12.824 84.4621 16.4851C84.4621 17.617 83.8412 19.3689 84.7027 19.8254C85.1493 20.2168 85.4061 20.8382 85.5059 21.5599C85.7131 23.0583 85.268 25.3127 84.2696 26.4519C83.9014 26.8721 83.3409 26.9533 83.2498 27.3613C83.0236 28.3742 82.6238 29.264 82.1177 30.0299C81.6889 30.679 81.7326 30.4318 81.7905 31.2358L81.8942 32.6748C81.9483 33.4268 81.8232 33.2745 82.5096 33.5665C86.8644 35.419 90.7935 36.984 91.0816 41.6544V54.7811C91.0816 55.7677 89.5816 55.7677 89.5816 54.7811V41.6544C89.5816 40.7844 89.2714 39.6346 88.1897 38.553C86.8161 37.1793 84.6705 36.1214 82.3841 35.1379C81.2571 34.6531 81.5523 34.5739 80.6696 35.3926L77.5443 38.2913C76.8376 38.9467 76.9536 38.7308 76.9536 39.6999V54.8438C76.9536 55.8303 75.4536 55.8303 75.4536 54.8438V39.6874C75.4536 38.7866 75.5849 38.9609 74.934 38.3572L71.5558 35.224C70.9741 34.6845 71.1701 34.6672 70.4623 34.9691C69.9785 35.1755 69.4846 35.3895 68.9602 35.6263C68.0623 36.0309 67.4471 34.6657 68.345 34.2611C68.8377 34.0386 69.3905 33.8008 69.9598 33.5589C70.5439 33.3107 70.4327 33.3629 70.4572 32.7486L70.5272 30.9879C70.5631 30.0844 70.5783 30.3712 70.1451 29.6158C69.7631 28.9497 69.4606 28.1983 69.2737 27.3613C69.1826 26.9533 68.6222 26.8721 68.2539 26.4519C67.2555 25.3127 66.8104 23.0583 67.0176 21.5599C67.0997 20.9663 67.2072 20.2151 67.722 19.9179C68.4312 19.5084 68.3243 19.4421 68.2162 18.6822C68.0084 17.2222 67.8695 15.5526 68.1408 14.0706ZM85.7316 44.0717L85.7211 54.7811C85.7211 55.7677 84.2211 55.7677 84.2211 54.7811L84.2337 44.0717C84.2377 42.9902 85.7444 43.1462 85.7316 44.0717ZM79.798 32.3601C77.4236 33.9772 74.9828 33.944 72.6437 32.3096C71.9015 31.791 72.0165 31.6065 71.9776 32.5869L71.9606 33.0127C71.9338 33.6863 71.9218 33.5222 72.4265 33.9903L75.2736 36.6309C76.1729 37.465 76.1223 37.5681 77.0798 36.6882L79.9447 34.0556C80.4833 33.5607 80.4734 33.7372 80.4221 33.0246L80.4004 32.7234C80.3423 31.9176 80.4877 31.8904 79.798 32.3601ZM28.7016 32.3336C29.4877 32.9232 28.5913 34.1185 27.8051 33.5289C24.8779 31.3266 25.7839 23.8992 25.8573 20.3417C25.9801 14.3868 21.7257 10.1168 15.8817 9.99622C12.7277 9.93119 11.5773 11.1553 9.07816 12.4908C5.50607 14.3998 5.61012 19.8597 5.70493 24.8348C5.78615 29.0956 5.86114 33.0312 3.66321 34.7452C2.88959 35.3495 1.96966 34.1717 2.74328 33.5675C4.35285 32.3123 4.28465 28.7332 4.21079 24.8582C4.10771 19.4494 3.99458 13.5134 8.37503 11.1725C11.1591 9.68465 12.3821 8.42931 15.911 8.50208C22.5751 8.63954 27.4914 13.5853 27.3514 20.371C27.291 23.2987 26.5031 30.6795 28.7016 32.3336ZM7.99387 18.258C8.01696 17.2753 9.5111 17.3104 9.48801 18.2931L9.42545 20.0172C9.39057 21.383 8.56471 20.8162 8.5227 22.2479C8.50225 22.9459 8.74685 25.0507 9.17568 25.4795C9.83619 26.14 10.0218 25.741 10.3117 27.039C10.6443 28.5287 11.4281 29.6863 12.3567 30.5158C14.6621 32.5752 17.0564 32.5643 19.3439 30.4927C20.2627 29.6606 21.0418 28.5076 21.3698 27.039C21.7393 25.3842 22.4582 26.0348 22.8456 24.5888C23.0372 23.8738 23.1443 23.4546 23.1405 22.6516C23.1329 21.0532 22.2449 21.1094 22.256 19.9938L22.2816 18.2717C22.2893 17.289 23.7835 17.3007 23.7758 18.2834L23.7557 18.9501C23.7516 19.3547 23.7637 19.9632 24.0175 20.2344C24.4388 20.6557 24.6296 21.5956 24.6346 22.6457C24.6391 23.5794 24.5149 24.1468 24.2929 24.9755C24.1162 25.6348 23.9329 26.0778 23.544 26.477C23.1531 26.8782 22.9604 26.7715 22.8288 27.3613C22.537 28.6681 21.9562 29.77 21.231 30.6654L21.4621 32.8185C21.5334 33.4825 21.4768 33.3194 22.111 33.5892C22.6551 33.8207 23.1825 34.0479 23.6546 34.2611C24.5524 34.6657 23.9373 36.0309 23.0393 35.6263C22.6351 35.4437 22.249 35.2748 21.8717 35.1124C20.8166 34.6583 21.1035 34.6121 20.2651 35.3898L17.3196 38.1216C16.3784 38.9946 16.546 38.7173 16.546 40.0124V54.8438C16.546 55.8303 15.046 55.8303 15.046 54.8438V39.9874C15.046 38.8077 15.1315 38.9185 14.2597 38.1099L11.3018 35.3665C10.6106 34.7255 10.6927 34.6766 9.8012 35.0582C7.36339 36.1015 5.10996 37.263 3.66544 38.7075C2.79423 39.5787 2.45265 40.3775 2.4158 41.6544L2.41798 54.7811C2.41798 55.7677 0.917969 55.7677 0.917969 54.7811V41.6544C1.13079 37.2121 5.13126 35.4093 9.37973 33.6122C10.2643 33.238 10.078 33.4065 10.2119 32.4349L10.3301 31.5766C10.4982 30.357 10.4411 30.7997 9.82861 29.7929C9.39715 29.0837 9.05634 28.2734 8.85268 27.3613C8.73085 26.8156 8.5252 26.9501 8.11512 26.54C7.30641 25.7313 6.99396 23.387 7.02856 22.2069C7.07723 20.5483 7.92516 20.2228 7.94684 19.3743L7.99387 18.258ZM7.77034 45.1618L7.77844 54.7811C7.77844 55.7677 6.27843 55.7677 6.27843 54.7811L6.27412 45.1757C6.25888 44.2088 7.79829 44.1227 7.77034 45.1618ZM19.3051 32.4036C16.9051 33.9735 14.6987 33.9422 12.3073 32.3589C11.7028 31.9587 11.8075 31.8122 11.7042 32.5623L11.6352 33.0631C11.5445 33.7215 11.7464 33.7375 12.2492 34.2039L14.8013 36.5709C16.018 37.6993 15.6264 37.6507 16.8701 36.4972L19.4052 34.1459C19.9173 33.671 20.0456 33.645 19.9705 32.9453L19.9342 32.6076C19.8488 31.8124 19.9478 31.9831 19.3051 32.4036ZM10.6461 15.1048C9.97561 14.3842 11.0713 13.3646 11.7419 14.0853C13.2678 15.7253 18.9551 12.5768 21.5916 15.5841C22.2382 16.3231 21.1132 17.3074 20.4666 16.5685C18.4804 14.3029 12.943 17.5733 10.6461 15.1048ZM57.6759 44.0385L57.657 54.7691C57.657 55.7556 56.157 55.7556 56.157 54.7691L56.1765 44.0048C56.1765 43.0703 57.6577 43.1291 57.6759 44.0385ZM36.9743 44.075V54.7691C36.9743 55.7556 35.4743 55.7556 35.4743 54.7691V44C35.4496 43.1029 36.9868 43.1353 36.9743 44.075ZM40.6943 10.4242C39.8388 10.9059 39.1064 9.60508 39.9619 9.12341C40.5063 8.8158 40.7737 8.28184 40.8231 7.67274C40.8754 7.00506 41.7064 6.74498 42.1361 7.24023C43.8074 8.96035 49.7716 5.65346 52.5353 8.80592C53.1819 9.54489 52.0569 10.5292 51.4103 9.79028C49.7769 7.92716 45.3325 9.59741 42.8804 9.1812C41.7986 8.99756 42.1305 9.12656 41.6106 9.64643C41.2955 9.96161 41.0062 10.248 40.6943 10.4242ZM42.2738 26.2077C45.0804 28.7147 48.0204 28.7018 50.8055 26.1795C52.0357 25.0653 52.9032 23.6125 53.2673 21.9821C53.625 20.3803 54.2351 20.873 54.8506 20.1707C55.7213 19.1773 56.1155 16.9492 55.9341 15.6371C55.5942 13.9849 54.0579 14.5309 54.3371 12.8334C54.4256 12.2954 54.5095 11.7221 54.571 11.1339C55.1254 5.82706 52.3098 2.32446 46.8405 1.93809C45.1066 1.8156 41.6191 2.2206 41.5084 4.45698C41.4622 5.43963 39.968 5.3694 40.0142 4.38668C40.0383 3.89943 40.1112 3.84685 39.6272 4.31882C38.9839 4.94597 38.6257 5.80717 38.4494 6.77012C38.1008 8.67417 38.4165 10.9961 38.7187 12.8334C38.8117 13.3987 38.6766 14.1074 38.1292 14.3183C36.9841 14.7594 36.8913 15.8573 37.1862 17.5981C37.3617 18.6342 37.7264 19.6243 38.2052 20.1707C38.8207 20.873 39.4309 20.3803 39.7885 21.9821C40.1569 23.632 41.0224 25.0899 42.2738 26.2077ZM41.4075 28.136L41.3339 28.7861C41.2388 29.6276 41.3241 29.5965 42.1112 30.3265L45.8909 33.832C46.5529 34.446 46.3419 34.4586 46.9968 33.8512L51.1867 29.9652C51.8356 29.3633 51.6658 29.5051 51.5914 28.6275C51.4723 27.2216 51.6486 27.5301 50.5766 28.2463C47.775 30.118 44.8485 30.0149 42.0701 27.9635C41.4064 27.4734 41.5026 27.2955 41.4075 28.136Z" fill="#8392B8"/>
</svg>
