<svg width="174" height="139" viewBox="0 0 174 139" fill="none" xmlns="http://www.w3.org/2000/svg">
<g filter="url(#filter0_f)">
<rect x="25" y="102" width="124" height="12" fill="#1B3554"/>
</g>
<rect x="26" width="124" height="79" fill="#E0E5EC"/>
<path fill-rule="evenodd" clip-rule="evenodd" d="M26 0V120H6V47.4366L26 0Z" fill="#CFD4DC"/>
<path fill-rule="evenodd" clip-rule="evenodd" d="M150 0V119H169V47.4366L150 0Z" fill="#CFD4DC"/>
<path d="M6 47H169V121C169 123.761 166.761 126 164 126H11C8.23858 126 6 123.761 6 121V47Z" fill="#F7F7FA"/>
<path opacity="0.2" fill-rule="evenodd" clip-rule="evenodd" d="M55 77.5477C55 76.848 55.3594 76.1971 55.9811 75.876C57.3648 75.1613 60.0086 74 62.5778 74C65.146 74 67.7143 75.1605 69.0525 75.8752C69.6555 76.1973 70 76.8352 70 77.5188C70 79.129 68.1457 80.1846 66.6307 79.6392C65.4137 79.2011 63.9827 78.8462 62.54 78.8462C61.0687 78.8462 59.5975 79.2152 58.3503 79.6653C56.8381 80.2109 55 79.1553 55 77.5477Z" fill="#1B3554"/>
<path opacity="0.2" fill-rule="evenodd" clip-rule="evenodd" d="M106 77.5477C106 76.848 106.359 76.1971 106.981 75.876C108.365 75.1613 111.009 74 113.578 74C116.146 74 118.714 75.1605 120.053 75.8752C120.656 76.1973 121 76.8352 121 77.5188C121 79.129 119.146 80.1846 117.631 79.6392C116.414 79.2011 114.983 78.8462 113.54 78.8462C112.069 78.8462 110.597 79.2152 109.35 79.6653C107.838 80.2109 106 79.1553 106 77.5477Z" fill="#1B3554"/>
<path opacity="0.2" fill-rule="evenodd" clip-rule="evenodd" d="M88.0004 102.006C95.5752 102.006 101.716 97.5799 101.716 90.0052C88.0004 89.9606 85.0502 90.2243 74.2852 90.0052C74.2852 97.5799 80.4257 102.006 88.0004 102.006Z" fill="#1B3554"/>
<defs>
<filter id="filter0_f" x="0.813055" y="77.8131" width="172.374" height="60.3739" filterUnits="userSpaceOnUse" color-interpolation-filters="sRGB">
<feFlood flood-opacity="0" result="BackgroundImageFix"/>
<feBlend mode="normal" in="SourceGraphic" in2="BackgroundImageFix" result="shape"/>
<feGaussianBlur stdDeviation="12.0935" result="effect1_foregroundBlur"/>
</filter>
</defs>
</svg>
