<svg width="83" height="83" viewBox="0 0 83 83" fill="none" xmlns="http://www.w3.org/2000/svg">
<path d="M73.2281 38.462C70.4038 37.0501 65.1085 37.0337 64.8844 37.0337C64.213 37.0337 63.6686 37.5781 63.6686 38.2495C63.6686 38.921 64.213 39.4653 64.8844 39.4653C66.2509 39.4655 70.2182 39.6759 72.1406 40.6371C72.3152 40.7244 72.5007 40.7656 72.6834 40.7656C73.1293 40.7656 73.5588 40.5192 73.7718 40.0933C74.0722 39.4927 73.8287 38.7624 73.2281 38.462Z" fill="black"/>
<path d="M79.2896 55.7723L74.2683 54.3376C74.0516 54.2757 73.9002 54.075 73.9002 53.8495V52.1735C74.3087 51.8904 74.6984 51.5737 75.0626 51.2201C76.828 49.5069 77.8002 47.209 77.8002 44.7495V42.4367L78.2857 41.4658C78.8186 40.4 79.1001 39.2067 79.1001 38.0152V31.7496C79.1001 31.0782 78.5558 30.5338 77.8843 30.5338H66.1844C61.93 30.5338 58.4686 33.9952 58.4686 38.2496V38.322C58.4686 39.3129 58.7029 40.3051 59.1459 41.1912L59.7686 42.4365V44.4224C59.7686 47.5696 61.3195 50.3934 63.6686 52.0926L63.6689 53.8492C63.6689 54.1201 63.6689 54.2323 62.665 54.5192L60.2149 55.2192L53.1273 52.642C53.1527 52.3075 53.0399 51.9674 52.7959 51.7112L50.5311 49.3317V45.3373C50.7705 45.14 51.0066 44.9374 51.2353 44.7231C54.0925 42.0451 55.7311 38.264 55.7311 34.3496V31.1596C56.5938 29.2822 57.0311 27.2955 57.0311 25.2495V12.25C57.0311 11.5785 56.4867 11.0342 55.8152 11.0342H37.6154C31.2104 11.0342 25.9998 16.245 25.9998 22.6498V25.2499C25.9998 27.2959 26.437 29.2825 27.2997 31.1599V33.9046C27.2997 38.4495 29.3206 42.544 32.4997 45.2435V49.3319L30.2349 51.7113C29.9909 51.9676 29.8781 52.3077 29.9035 52.6421L22.423 55.3622C21.8809 55.5593 21.3772 55.8263 20.9199 56.1497L19.7452 55.5624C23.2419 54.0403 24.3496 51.8997 24.4028 51.7933C24.574 51.4511 24.574 51.0481 24.4028 50.7059C23.5263 48.9529 23.4201 45.7397 23.3348 43.1579C23.3065 42.2984 23.2796 41.4864 23.2282 40.7634C22.8137 34.9317 18.3803 30.5338 12.9156 30.5338C7.45087 30.5338 3.01734 34.9315 2.60299 40.7634C2.5516 41.4866 2.52469 42.2986 2.49632 43.1583C2.41105 45.7398 2.30471 48.9527 1.42835 50.7057C1.25716 51.048 1.25716 51.451 1.42835 51.7932C1.48152 51.8995 2.58694 54.0358 6.09061 55.5596L2.82784 57.1909C1.08354 58.0637 0 59.8169 0 61.767V70.7493C0 71.4207 0.544363 71.9651 1.21582 71.9651C1.88728 71.9651 2.43164 71.4207 2.43164 70.7493V61.767C2.43164 60.7437 3.00016 59.8237 3.91527 59.3661L7.97821 57.3347L9.39148 58.6778C10.3797 59.6169 11.6474 60.0862 12.9156 60.0862C14.1834 60.0862 15.4518 59.6166 16.4397 58.6778L17.8528 57.3349L19.1775 57.9973C18.5537 58.9954 18.1997 60.1658 18.1997 61.3918V70.7496C18.1997 71.4211 18.7441 71.9654 19.4155 71.9654C20.087 71.9654 20.6313 71.4211 20.6313 70.7496V61.3918C20.6313 59.7228 21.6852 58.2181 23.2539 57.6476L31.1409 54.7797L34.4241 59.7048C34.8438 60.3344 35.5164 60.7382 36.2694 60.8128C36.3534 60.821 36.4368 60.8251 36.5202 60.8251C37.1845 60.8251 37.8208 60.5636 38.2964 60.0882L40.2994 58.0851V70.7498C40.2994 71.4212 40.8438 71.9656 41.5152 71.9656C42.1867 71.9656 42.7311 71.4212 42.7311 70.7498V58.0851L44.7341 60.0882C45.2095 60.5638 45.8458 60.8253 46.5103 60.8253C46.5935 60.8253 46.6771 60.8212 46.7609 60.8129C47.5141 60.7384 48.1867 60.3346 48.6064 59.7049L51.8898 54.78L59.7765 57.6479C61.3451 58.2184 62.3991 59.7231 62.3991 61.3922V70.7499C62.3991 71.4214 62.9435 71.9657 63.615 71.9657C64.2864 71.9657 64.8308 71.4214 64.8308 70.7499V61.3922C64.8308 59.7017 64.1592 58.1163 63.0325 56.9437L63.3329 56.858C63.6359 56.7714 64.0492 56.6529 64.4642 56.4494L67.5685 59.5537V70.7499C67.5685 71.4214 68.1128 71.9657 68.7843 71.9657C69.4558 71.9657 70.0001 71.4214 70.0001 70.7499V59.5537L73.0828 56.471C73.2467 56.5543 73.4189 56.6247 73.6001 56.6764L78.6216 58.1111C79.7677 58.4385 80.5684 59.4999 80.5684 60.692V70.7499C80.5684 71.4214 81.1127 71.9657 81.7842 71.9657C82.4556 71.9657 83 71.4214 83 70.7499V60.692C83 58.4196 81.4742 56.3966 79.2896 55.7723ZM7.79989 53.6249C5.52566 52.8065 4.3849 51.7155 3.89792 51.1198C4.22992 50.2518 4.4452 49.2578 4.59094 48.2085C5.26142 49.8161 6.38435 51.1885 7.79989 52.1676V53.6249ZM14.7649 56.9153C13.7279 57.9007 12.1034 57.9005 11.0667 56.9152L9.93601 55.8407C10.1268 55.4833 10.2317 55.078 10.2317 54.6534V53.3575C11.0799 53.6226 11.9815 53.7656 12.9159 53.7656C13.8492 53.7656 14.7503 53.6219 15.5999 53.3583L15.5998 54.6533C15.5998 55.078 15.7045 55.4834 15.8955 55.841L14.7649 56.9153ZM12.9162 51.3339C9.28563 51.3339 6.33215 48.3803 6.33215 44.7498C6.33215 44.0784 5.78779 43.534 5.11633 43.534C5.04825 43.534 4.98178 43.541 4.91678 43.5519C4.92034 43.4473 4.92375 43.3426 4.92731 43.239C4.95439 42.403 4.98049 41.6134 5.02863 40.9361C5.18393 38.7515 6.05689 36.7384 7.4867 35.2674C8.92931 33.7831 10.8574 32.9658 12.9159 32.9658C14.9744 32.9658 16.9023 33.7831 18.3451 35.2674C19.7749 36.7384 20.6479 38.7515 20.8032 40.9361C20.8512 41.6132 20.8774 42.4027 20.905 43.2385C20.9074 43.3103 20.9098 43.3831 20.9123 43.4554C19.5895 41.4174 17.5466 39.9154 14.9069 39.0673C12.4683 38.2838 10.3709 38.3323 10.2824 38.3345C9.96405 38.3435 9.66188 38.4767 9.44093 38.7059L7.24726 40.981C6.7812 41.4644 6.79514 42.2341 7.27855 42.7001C7.76196 43.1662 8.53165 43.1521 8.99772 42.6688L10.8231 40.7759C12.395 40.8527 17.4524 41.4409 19.4192 45.7719C18.9243 48.9636 16.1811 51.3339 12.9162 51.3339ZM18.0313 53.6289L18.0314 52.1788C19.4458 51.205 20.5704 49.8352 21.2414 48.2154C21.3871 49.2623 21.6022 50.2541 21.9336 51.1201C21.4493 51.7102 20.3032 52.8109 18.0313 53.6289ZM29.7313 33.9044V30.8879C29.7313 30.7049 29.69 30.5241 29.6104 30.3592C28.8281 28.7391 28.4314 27.0201 28.4314 25.2499V22.65C28.4314 17.5858 32.5514 13.466 37.6154 13.466H54.5994V25.25C54.5994 27.0203 54.2027 28.7393 53.4204 30.3594C53.3408 30.5243 53.2995 30.705 53.2995 30.888V34.3499C53.2995 37.6425 51.9758 40.6965 49.5724 42.9493C49.2723 43.2304 48.9609 43.494 48.639 43.7396C48.6318 43.7444 48.625 43.7498 48.6181 43.7548C46.3665 45.4643 43.6087 46.2951 40.7287 46.1085C34.5619 45.7092 29.7313 40.3486 29.7313 33.9044ZM36.5771 58.3685C36.5686 58.3769 36.549 58.3969 36.5093 58.3926C36.4697 58.3888 36.4542 58.3656 36.4475 58.3555L32.6663 52.6836L33.8831 51.4051L39.6194 55.326L36.5771 58.3685ZM41.5154 53.6766L34.9313 49.1761V46.9066C36.6349 47.8275 38.5425 48.4035 40.5713 48.5348C40.8918 48.5555 41.2103 48.5657 41.5279 48.5657C43.8527 48.5657 46.0901 48.01 48.0995 46.9552V49.1761L41.5154 53.6766ZM46.5833 58.3559C46.5766 58.3659 46.5611 58.3891 46.5215 58.393C46.4818 58.398 46.4623 58.3771 46.4537 58.3688L43.4114 55.3265L49.1477 51.4054L50.3646 52.684L46.5833 58.3559ZM68.7843 57.33L66.0252 54.5711C66.0733 54.3524 66.1006 54.113 66.1004 53.8489L66.1003 53.3358C66.8659 53.5871 67.6729 53.7362 68.5079 53.7612C68.6016 53.7641 68.6945 53.7654 68.7879 53.7654C69.7106 53.7654 70.6113 53.626 71.4685 53.36V53.8495C71.4685 54.092 71.499 54.3297 71.5564 54.5581L68.7843 57.33ZM73.3692 49.4752C72.0806 50.7257 70.3783 51.3861 68.581 51.3307C65.0626 51.2251 62.2002 48.1261 62.2002 44.4227V42.1498C62.2002 41.9609 62.1563 41.7748 62.0718 41.6061L61.3208 40.104C61.0457 39.5536 60.9003 38.9376 60.9003 38.3222V38.2498C60.9003 35.336 63.2708 32.9656 66.1844 32.9656H76.6685V38.0153C76.6685 38.8314 76.4756 39.6486 76.1107 40.3786L75.4969 41.6061C75.4125 41.775 75.3685 41.9609 75.3685 42.1498V44.7497C75.3685 46.5459 74.6585 48.224 73.3692 49.4752Z" fill="#242424"/>
<path d="M76.5842 61.7334C75.9127 61.7334 75.3684 62.2778 75.3684 62.9492V70.7491C75.3684 71.4206 75.9127 71.9649 76.5842 71.9649C77.2557 71.9649 77.8 71.4206 77.8 70.7491V62.9492C77.8 62.2779 77.2557 61.7334 76.5842 61.7334Z" fill="black"/>
<path d="M6.4158 63.3408C5.74434 63.3408 5.19998 63.8852 5.19998 64.5566V70.7494C5.19998 71.4208 5.74434 71.9652 6.4158 71.9652C7.08726 71.9652 7.63162 71.4208 7.63162 70.7494V64.5566C7.63162 63.8853 7.08726 63.3408 6.4158 63.3408Z" fill="black"/>
<path d="M51.4749 25.6902C46.8765 21.0918 37.2555 21.9709 33.3321 22.5623C32.0963 22.7485 31.1996 23.7943 31.1996 25.0489V27.8498C31.1996 28.5212 31.7439 29.0656 32.4154 29.0656C33.0868 29.0656 33.6312 28.5212 33.6312 27.8498V25.0487C33.6312 25.0074 33.6584 24.972 33.6947 24.9665C35.2619 24.7303 38.3716 24.3659 41.5935 24.5807C45.3849 24.8331 48.1311 25.7848 49.7556 27.4095C50.2304 27.8843 51.0002 27.8843 51.4749 27.4095C51.9497 26.9347 51.9497 26.1648 51.4749 25.6902Z" fill="black"/>
<path d="M27.2156 64.3335C26.5441 64.3335 25.9998 64.8779 25.9998 65.5493V70.7493C25.9998 71.4208 26.5441 71.9651 27.2156 71.9651C27.887 71.9651 28.4314 71.4208 28.4314 70.7493V65.5493C28.4314 64.878 27.887 64.3335 27.2156 64.3335Z" fill="black"/>
<path d="M55.8152 64.3335C55.1438 64.3335 54.5994 64.8779 54.5994 65.5493V70.7493C54.5994 71.4208 55.1438 71.9651 55.8152 71.9651C56.4867 71.9651 57.0311 71.4208 57.0311 70.7493V65.5493C57.0311 64.878 56.4867 64.3335 55.8152 64.3335Z" fill="black"/>
</svg>
