<svg width="64" height="46" viewBox="0 0 64 46" fill="none" xmlns="http://www.w3.org/2000/svg">
<path d="M28.8672 5.41479C31.513 9.36979 32.3541 14.5309 32.1155 19.2486C32.0107 21.3191 31.4529 23.0885 30.9096 24.8115C29.8915 28.0404 28.9264 31.1033 31.2349 35.612C32.5723 36.1138 33.769 36.5635 34.2811 37.7622C36.6287 34.6277 38.0195 30.7344 38.0195 26.516C38.0195 24.1014 37.5644 21.7941 36.7354 19.6753C35.8739 17.4734 34.6098 15.4749 33.034 13.7706C32.9412 13.6703 32.9473 13.5136 33.0476 13.4208C33.1479 13.328 33.3044 13.334 33.3972 13.4344C35.0163 15.1855 36.3143 17.2367 37.1976 19.4946C38.0492 21.671 38.5167 24.0394 38.5167 26.516C38.5167 31.0354 36.9617 35.1915 34.3578 38.4777C30.7878 42.9832 25.439 45.6511 19.6961 45.7803C19.5504 45.7836 19.4045 45.7853 19.2584 45.7853C13.2975 45.7853 7.72427 43.0495 4.06769 38.3612C1.51884 35.0935 0 30.9822 0 26.516C0 21.6997 1.78211 17.0935 5.02635 13.5347C5.2458 13.2934 5.61291 13.6277 5.39346 13.869C2.22961 17.3396 0.49725 21.8192 0.49725 26.516C0.49725 30.8137 1.94073 34.7741 4.369 37.9382C4.85216 36.8039 5.93462 36.2719 7.1827 35.7615C10.7541 28.8134 6.72129 25.5763 6.40122 19.2486C6.16262 14.5309 7.00371 9.36979 9.64946 5.41479C14.4792 -1.80493 24.0375 -1.80493 28.8672 5.41479ZM4.73106 38.3949C8.29393 42.7519 13.5792 45.2758 19.2188 45.2875V44.5096C18.3615 42.8252 15.7164 37.8042 13.3974 38.5025C12.7257 38.7046 12.6839 38.0609 12.8247 37.5017C12.9503 36.8667 13.2915 36.0306 13.3972 35.8393C13.5902 35.49 13.2072 35.2072 12.7504 34.9545C12.3313 34.7227 11.549 34.4033 11.3305 34.0154C10.2936 35.0481 9.00034 35.5664 7.80862 36.044C6.38741 36.6136 5.12007 37.1217 4.73106 38.3949ZM13.7912 31.2283C14.0268 31.1617 13.9892 31.1847 14.1351 30.9831C14.9247 29.8929 15.2496 28.7552 15.2725 27.3814C15.2759 27.2476 15.2798 27.2429 15.057 27.0692C12.0784 24.7483 10.5073 20.83 10.4598 17.1394C10.4559 16.8134 10.9513 16.8076 10.9551 17.1335C10.9994 20.577 12.7042 25.0236 15.7672 27.027C16.7847 27.6926 17.9521 28.0885 19.2584 28.0885C24.0469 27.9832 27.7113 22.5902 27.6938 17.8641C27.6938 16.0853 27.3795 14.4147 26.7783 12.9601C26.1892 11.535 25.3247 10.3165 24.2109 9.40714C23.484 8.81374 23.2988 8.74934 22.7967 9.6542C20.1138 14.4891 14.4052 15.4304 10.5644 16.0637C9.7045 16.2056 9.14117 16.6996 8.96196 17.5633C8.89554 17.8828 8.40994 17.7818 8.47636 17.4622C8.69682 16.3997 9.42295 15.7491 10.4848 15.5739C14.2302 14.9564 19.797 14.0385 22.3635 9.41322C23.0277 8.21627 23.5547 8.23131 24.5236 9.02233C25.7029 9.9851 26.6164 11.2708 27.2367 12.7716C27.8635 14.2879 28.1911 16.0228 28.1911 17.8641C28.1911 21.2243 26.6856 24.6203 24.0486 26.7245C23.8837 26.856 23.8521 26.8456 23.8563 27.1141C23.8821 28.6593 24.3029 30.0131 25.2304 31.2511C26.1217 31.5263 26.9736 32.2137 27.4364 33.0283C28.1235 34.2377 29.2873 34.8481 30.5534 35.3512C28.4608 30.9271 29.4228 27.8742 30.4356 24.6618C30.9701 22.9667 31.519 21.226 31.6202 19.2253C31.8534 14.6139 31.0415 9.55655 28.4555 5.69076C23.8227 -1.23443 14.694 -1.23443 10.0612 5.69076C7.47517 9.55655 6.66329 14.6139 6.89652 19.2253C7.20866 25.3965 11.1191 28.6314 7.87336 35.4833C8.97966 35.0371 10.2524 34.6149 11.0653 33.5775C11.8816 32.5357 12.5476 31.6389 13.7912 31.2283ZM11.9859 33.977C12.2915 34.1802 12.8091 34.4195 12.9893 34.5191C13.6749 34.8984 14.2325 35.354 13.8323 36.0784C13.737 36.2508 13.4281 37.0115 13.3122 37.5969C13.2532 37.8528 13.1576 38.0327 13.5151 37.9673C15.8105 37.5473 18.2763 41.5361 19.2188 43.2736C19.2188 42.5147 19.2391 41.8691 19.2024 41.1113C19.1566 40.1643 19.0524 39.4 18.7691 38.6968C18.4507 37.9065 17.899 37.1777 16.9386 36.3295C16.8767 36.2749 16.7644 36.1807 16.6315 36.0694C15.6535 35.25 13.5421 33.4807 13.5617 31.8359C12.8793 32.1303 12.1551 32.7987 11.8259 33.4684C11.6888 33.7474 11.7361 33.8109 11.9859 33.977ZM19.716 45.2821C25.2804 45.1488 30.4553 42.5662 33.9212 38.2272C33.4905 36.7814 31.7491 36.3526 30.4514 35.8439C29.456 35.4538 28.4293 34.9707 27.5865 34.0813C27.3656 34.507 26.8816 34.8288 26.4279 35.1304C25.9638 35.4389 25.5408 35.7201 25.6415 35.9351C25.868 36.4185 26.1149 36.9321 26.2023 37.4619C26.2882 37.9826 26.1895 38.4215 25.658 38.5093C22.7106 38.9958 20.6441 41.8663 19.716 44.5176V45.2821ZM19.716 43.254C20.8503 40.8319 22.8102 38.4765 25.5783 38.0195C26.0963 37.8708 25.3348 36.4481 25.1928 36.145C24.9106 35.543 25.5036 35.1488 26.1541 34.7164C26.8072 34.2822 27.4843 33.9844 27.0093 33.2378C26.6355 32.6504 26.0209 32.1101 25.3829 31.8357C25.4027 33.4805 23.2912 35.2499 22.3132 36.0694C22.1803 36.1807 22.0679 36.2749 22.006 36.3295C21.0456 37.1777 20.494 37.9065 20.1755 38.6968C19.8948 39.3936 19.7899 40.1503 19.7435 41.0854C19.7081 41.7981 19.716 42.5388 19.716 43.254ZM19.4723 39.2785C19.5356 39.0148 19.615 38.7609 19.7152 38.5122C20.0633 37.6482 20.655 36.8616 21.6778 35.9583C21.775 35.8724 21.8756 35.7882 21.9946 35.6884C22.9729 34.8687 25.17 33.0277 24.8588 31.5827C23.8755 30.2838 23.4096 28.8579 23.3635 27.2309C22.0807 28.0941 20.6605 28.586 19.2584 28.586C18.0615 28.586 16.868 28.2168 15.7638 27.5475C15.9086 28.9123 14.8546 31.5061 14.0573 31.8012C13.9902 33.2084 16.0204 34.9095 16.95 35.6884C17.069 35.7881 17.1696 35.8724 17.2668 35.9583C18.2896 36.8616 18.8814 37.6482 19.2295 38.5122C19.3297 38.7609 19.4091 39.0148 19.4723 39.2785ZM10.6417 14.2565C10.447 14.2787 10.4132 13.9825 10.6079 13.9603C12.5498 13.7362 14.8954 13.2611 16.406 11.9433C16.553 11.8146 16.7487 12.0385 16.6018 12.1672C15.0375 13.5318 12.6529 14.0243 10.6417 14.2565Z" fill="#8392B8"/>
<path d="M52.3435 28.8908L51.388 27.9353L50.4324 28.8908H52.3435ZM51.2027 27.75L50.2874 26.8348V28.6653L51.2027 27.75ZM50.2874 26.4642L51.388 27.5648L52.5408 26.4119L51.4316 25.3027L50.2874 26.4469V26.4642ZM51.5732 27.75L52.6824 28.8592L53.8353 27.7064L52.7261 26.5972L51.5732 27.75ZM55.0198 28.8908L54.0206 27.8916L53.0214 28.8908H55.0198ZM51.2463 25.1174L50.2874 24.1585V26.0763L51.2463 25.1174ZM50.3224 23.8229L51.4316 24.9321L52.5845 23.7793L51.4753 22.6701L50.3224 23.8229ZM51.6169 25.1174L52.7261 26.2266L53.879 25.0737L52.7698 23.9645L51.6169 25.1174ZM52.9114 26.4119L54.0206 27.5211L55.1735 26.3682L54.0642 25.259L52.9114 26.4119ZM54.2058 27.7064L55.3151 28.8156L56.4679 27.6627L55.3587 26.5535L54.2058 27.7064ZM58.0648 23.9069L58.035 23.8772L56.8822 25.0301L57.9914 26.1393L58.0648 26.0659V23.9069ZM57.8498 23.6919L56.7406 22.5827L55.5877 23.7356L56.6969 24.8448L57.8498 23.6919ZM56.5553 22.3974L55.4461 21.2882L54.2932 22.4411L55.4024 23.5503L56.5553 22.3974ZM55.2608 21.103L54.1516 19.9938L52.9987 21.1466L54.1079 22.2558L55.2608 21.103ZM54.3679 19.8395L55.4461 20.9177L56.0463 20.3175C55.5433 20.0393 54.9732 19.8693 54.3679 19.8395ZM55.6313 21.103L56.7406 22.2122L57.3986 21.5541C57.2584 21.3468 57.0987 21.1537 56.9223 20.9772C56.7268 20.7818 56.5109 20.607 56.278 20.4563L55.6313 21.103ZM56.9258 22.3974L58.035 23.5066L58.0574 23.4843C58.0195 22.8678 57.8362 22.2889 57.5415 21.7817L56.9258 22.3974ZM58.0648 26.5832L57.9914 26.5098L56.8385 27.6627L58.0644 28.8886C58.0646 28.8719 58.0648 28.8552 58.0648 28.8384V26.5832ZM57.8061 26.3245L56.6969 25.2153L55.544 26.3682L56.6532 27.4774L57.8061 26.3245ZM56.5116 25.0301L55.4024 23.9209L54.2495 25.0737L55.3587 26.1829L56.5116 25.0301ZM55.2171 23.7356L54.1079 22.6264L52.955 23.7793L54.0642 24.8885L55.2171 23.7356ZM53.9227 22.4411L52.8134 21.3319L51.6606 22.4848L52.7698 23.594L53.9227 22.4411ZM52.6282 21.1466L51.9923 20.5107C51.7905 20.6486 51.6022 20.8049 51.4299 20.9772C51.2155 21.1917 51.0258 21.4308 50.8657 21.6899L51.4753 22.2995L52.6282 21.1466ZM52.219 20.3669L52.8134 20.9614L53.9324 19.8424C53.3114 19.8813 52.7287 20.0678 52.219 20.3669ZM57.6961 28.8908L56.6532 27.848L55.6103 28.8908H57.6961ZM51.29 22.4848L50.731 21.9258C50.4837 22.3962 50.33 22.9226 50.2951 23.4797L51.29 22.4848ZM58.5631 33.0253C58.7917 32.7685 59.1828 33.1165 58.9542 33.3733C57.8009 34.6669 56.1686 35.4127 54.4381 35.4817V38.9566C54.4381 39.3013 53.9141 39.3013 53.9141 38.9566V35.4818C52.1955 35.4137 50.5843 34.6839 49.4299 33.4088C49.2 33.1546 49.5869 32.8045 49.8168 33.0587C50.9339 34.2927 52.5276 34.9698 54.1901 34.9645C55.8079 34.9594 57.4202 34.3073 58.5631 33.0253ZM58.0217 29.4149H50.3305C50.6149 31.3066 52.2579 32.7271 54.1761 32.7271C56.0943 32.7271 57.7373 31.3066 58.0217 29.4149ZM54.1761 19.3107C55.3899 19.3107 56.4931 19.807 57.2928 20.6067C58.0925 21.4064 58.5889 22.5096 58.5889 23.7234V28.8384C58.5889 31.266 56.6036 33.2512 54.1761 33.2512C51.7486 33.2512 49.7633 31.266 49.7633 28.8384V23.7234C49.7633 22.5096 50.2597 21.4064 51.0594 20.6067C51.8591 19.807 52.9623 19.3107 54.1761 19.3107ZM63.4734 10.321C63.4734 9.97627 63.9975 9.97627 63.9975 10.321V14.3459C63.9975 14.6906 63.4734 14.6906 63.4734 14.3459V10.321ZM61.528 6.54758C61.528 6.20289 62.0521 6.20289 62.0521 6.54758V18.1193C62.0521 18.4639 61.528 18.4639 61.528 18.1193V6.54758ZM59.5826 8.6439C59.5826 8.29921 60.1067 8.29921 60.1067 8.6439V16.0229C60.1067 16.3676 59.5826 16.3676 59.5826 16.0229V8.6439ZM57.6372 11.411C57.6372 11.0664 58.1613 11.0664 58.1613 11.411V13.2558C58.1613 13.6005 57.6372 13.6005 57.6372 13.2558V11.411ZM55.6918 10.321C55.6918 9.97627 56.2159 9.97627 56.2159 10.321V14.3459C56.2159 14.6906 55.6918 14.6906 55.6918 14.3459V10.321ZM53.7465 9.73398C53.7465 9.3893 54.2705 9.3893 54.2705 9.73398V14.9328C54.2705 15.2775 53.7465 15.2775 53.7465 14.9328V9.73398ZM51.8011 7.80537C51.8011 7.46068 52.3252 7.46068 52.3252 7.80537V16.8615C52.3252 17.2061 51.8011 17.2061 51.8011 16.8615V7.80537ZM49.8557 9.14701C49.8557 8.80233 50.3798 8.80233 50.3798 9.14701V15.5198C50.3798 15.8645 49.8557 15.8645 49.8557 15.5198V9.14701ZM47.9103 10.9079C47.9103 10.5632 48.4344 10.5632 48.4344 10.9079V13.7589C48.4344 14.1036 47.9103 14.1036 47.9103 13.7589V10.9079ZM45.9649 10.321C45.9649 9.97627 46.489 9.97627 46.489 10.321V14.3459C46.489 14.6906 45.9649 14.6906 45.9649 14.3459V10.321ZM44.0195 11.2433C44.0195 10.8986 44.5436 10.8986 44.5436 11.2433V13.4235C44.5436 13.7682 44.0195 13.7682 44.0195 13.4235V11.2433Z" fill="#8392B8"/>
</svg>
