<svg width="13" height="15" viewBox="0 0 13 15" fill="none" xmlns="http://www.w3.org/2000/svg">
    <path d="M5.70479 11.9866V4.83666C5.70479 4.54008 5.4536 4.29938 5.1441 4.29938C4.8346 4.29938 4.5834 4.54008 4.5834 4.83666V11.9866C4.5834 12.2832 4.8346 12.5239 5.1441 12.5239C5.4536 12.5239 5.70479 12.2835 5.70479 11.9866ZM8.41744 11.9866V4.83666C8.41744 4.54008 8.16625 4.29938 7.85674 4.29938C7.54724 4.29938 7.29605 4.54008 7.29605 4.83666V11.9866C7.29605 12.2832 7.54724 12.5239 7.85674 12.5239C8.16625 12.5239 8.41744 12.2835 8.41744 11.9866ZM11.118 4.29938C10.8085 4.29938 10.5573 4.54008 10.5573 4.83666V13.472C10.5573 13.7221 10.3457 13.9254 10.0852 13.9254H2.91618C2.65517 13.9254 2.44295 13.7221 2.44295 13.472V4.83666C2.44295 4.54008 2.19176 4.29938 1.88225 4.29938C1.57275 4.29938 1.32156 4.54008 1.32156 4.83666V13.472C1.32156 14.3144 2.03701 15 2.91618 15H10.0852C10.9638 15 11.6787 14.3147 11.6787 13.472V4.83666C11.6787 4.53981 11.4275 4.29938 11.118 4.29938ZM12.4393 2.5223H9.7104V0.537288C9.7104 0.240705 9.45921 0 9.14971 0H3.85198C3.54247 0 3.29128 0.240705 3.29128 0.537288V2.5223H0.560695C0.251192 2.5223 0 2.763 0 3.05959C0 3.35617 0.251192 3.59687 0.560695 3.59687H12.4393C12.7488 3.59687 13 3.35617 13 3.05959C13 2.763 12.7488 2.5223 12.4393 2.5223ZM8.58873 2.5223H4.41267V1.07458H8.58873V2.5223Z" fill="#FF2B2B"/>
</svg>
