<svg width="81" height="97" viewBox="0 0 81 97" fill="none" xmlns="http://www.w3.org/2000/svg">
    <path d="M54 39.375C51.5115 39.375 49.5 37.3635 49.5 34.875V22.5C49.5 15.057 43.443 9 36 9C28.557 9 22.5 15.057 22.5 22.5V34.875C22.5 37.3635 20.4885 39.375 18 39.375C15.5115 39.375 13.5 37.3635 13.5 34.875V22.5C13.5 10.0935 23.5935 0 36 0C48.4065 0 58.5 10.0935 58.5 22.5V34.875C58.5 37.3635 56.4885 39.375 54 39.375Z" fill="#0B7496"/>
    <path d="M61.875 90.0003H10.125C4.545 90.0003 0 85.4552 0 79.8752V41.6252C0 36.0452 4.545 31.5002 10.125 31.5002H61.875C67.455 31.5002 72 36.0452 72 41.6252V79.8752C72 85.4552 67.455 90.0003 61.875 90.0003Z" fill="#FFC107"/>
    <path d="M36 0C23.5935 0 13.5 10.0935 13.5 22.5V31.5H22.5V22.5C22.5 15.057 28.557 9 36 9V0Z" fill="#08556F"/>
    <path d="M36 31.5002H22.5H13.5H10.125C4.545 31.5002 0 36.0452 0 41.6252V79.8752C0 85.4552 4.545 90.0003 10.125 90.0003H36V31.5002Z" fill="#DEA806"/>
    <path d="M77.5215 77.7145C75.3345 76.531 72.603 77.3455 71.424 79.5235C68.8365 84.289 63.8865 87.25 58.5 87.25C55.7505 87.25 53.1495 86.4175 50.868 85.0315L53.0145 82.885C53.9775 81.922 54.2655 80.4685 53.748 79.2085C53.2215 77.9485 51.9885 77.125 50.6295 77.125H39.3795C37.5165 77.125 36.0045 78.637 36.0045 80.5V91.75C36.0045 93.1135 36.828 94.342 38.088 94.8685C38.5065 95.0395 38.943 95.125 39.3795 95.125C40.257 95.125 41.121 94.783 41.7645 94.135L44.343 91.5565C48.384 94.576 53.334 96.25 58.5 96.25C67.194 96.25 75.177 91.4845 79.3305 83.812C80.5185 81.625 79.704 78.898 77.5215 77.7145Z" fill="#0B7496"/>
    <path d="M78.9165 50.3815C77.661 49.864 76.203 50.1475 75.24 51.115L72.6615 53.6935C68.616 50.674 63.6705 49 58.5 49C49.788 49 41.8005 53.788 37.6605 61.492C36.4815 63.6835 37.305 66.4105 39.492 67.5895C40.1715 67.954 40.9005 68.125 41.6205 68.125C43.2225 68.125 44.775 67.2655 45.5895 65.758C48.159 60.97 53.109 58 58.5 58C61.2495 58 63.8505 58.8325 66.132 60.2185L63.99 62.365C63.027 63.328 62.739 64.7815 63.2565 66.0415C63.783 67.3015 65.016 68.125 66.375 68.125H77.625C79.488 68.125 81 66.613 81 64.75V53.5C81 52.1365 80.1765 50.908 78.9165 50.3815Z" fill="#0B7496"/>
    <path d="M50.625 77.1249H39.375C37.512 77.1249 36 78.6369 36 80.4999V91.7499C36 93.1134 36.8235 94.3419 38.0835 94.8684C38.502 95.0394 38.9385 95.1249 39.375 95.1249C40.2525 95.1249 41.1165 94.7829 41.76 94.1349L44.3385 91.5564C48.384 94.5759 53.334 96.2499 58.5 96.2499V87.2499C55.7505 87.2499 53.1495 86.4174 50.868 85.0314L53.0145 82.8849C53.9775 81.9219 54.2655 80.4684 53.748 79.2084C53.217 77.9484 51.9885 77.1249 50.625 77.1249Z" fill="#08556F"/>
    <path d="M58.5 49C49.788 49 41.8005 53.788 37.6605 61.492C36.4815 63.6835 37.305 66.4105 39.492 67.5895C40.1715 67.954 40.9005 68.125 41.6205 68.125C43.2225 68.125 44.775 67.2655 45.5895 65.758C48.159 60.97 53.109 58 58.5 58V49Z" fill="#08556F"/>
</svg>
