<svg width="15" height="15" viewBox="0 0 15 15" fill="none" xmlns="http://www.w3.org/2000/svg">
<path d="M13.4615 4.46154H10.5385V1.53846C10.5385 1.13044 10.3764 0.739122 10.0879 0.450605C9.79934 0.162087 9.40803 0 9 0H1.53846C1.13044 0 0.739122 0.162087 0.450605 0.450605C0.162087 0.739122 0 1.13044 0 1.53846V9C0 9.40803 0.162087 9.79934 0.450605 10.0879C0.739122 10.3764 1.13044 10.5385 1.53846 10.5385H4.46154V13.4615C4.46154 13.8696 4.62363 14.2609 4.91214 14.5494C5.20066 14.8379 5.59197 15 6 15H13.4615C13.8696 15 14.2609 14.8379 14.5494 14.5494C14.8379 14.2609 15 13.8696 15 13.4615V6C15 5.59197 14.8379 5.20066 14.5494 4.91214C14.2609 4.62363 13.8696 4.46154 13.4615 4.46154ZM1.15385 9V1.53846C1.15385 1.43646 1.19437 1.33863 1.2665 1.2665C1.33863 1.19437 1.43646 1.15385 1.53846 1.15385H9C9.10201 1.15385 9.19983 1.19437 9.27196 1.2665C9.34409 1.33863 9.38461 1.43646 9.38461 1.53846V9C9.38461 9.10201 9.34409 9.19983 9.27196 9.27196C9.19983 9.34409 9.10201 9.38461 9 9.38461H1.53846C1.43646 9.38461 1.33863 9.34409 1.2665 9.27196C1.19437 9.19983 1.15385 9.10201 1.15385 9ZM13.8462 13.4615C13.8462 13.5635 13.8056 13.6614 13.7335 13.7335C13.6614 13.8056 13.5635 13.8462 13.4615 13.8462H6C5.89799 13.8462 5.80017 13.8056 5.72804 13.7335C5.65591 13.6614 5.61539 13.5635 5.61539 13.4615V10.5385H9C9.40803 10.5385 9.79934 10.3764 10.0879 10.0879C10.3764 9.79934 10.5385 9.40803 10.5385 9V5.61539H13.4615C13.5635 5.61539 13.6614 5.65591 13.7335 5.72804C13.8056 5.80017 13.8462 5.89799 13.8462 6V13.4615Z" />
</svg>
