<svg width="18" height="18" viewBox="0 0 18 18" fill="none" xmlns="http://www.w3.org/2000/svg">
<path d="M14.46 3.53603C14.6519 3.72801 14.8353 3.92852 15.0059 4.13756C15.0528 4.19302 15.0976 4.25061 15.1424 4.30607C15.217 4.39993 15.0464 4.17809 15.1168 4.27408C15.136 4.29967 15.153 4.32314 15.1722 4.34873C15.2533 4.45965 15.3343 4.5727 15.4089 4.68576C15.7011 5.12517 15.9506 5.59018 16.1553 6.07651C16.134 6.02532 16.1127 5.97413 16.0913 5.92293C16.3771 6.60551 16.5712 7.32222 16.6692 8.05386C16.6607 7.99627 16.6543 7.94081 16.6458 7.88322C16.7418 8.62126 16.7418 9.36783 16.6458 10.1059C16.6543 10.0483 16.6607 9.99282 16.6692 9.93523C16.5712 10.6669 16.3771 11.3836 16.0913 12.0662C16.1127 12.015 16.134 11.9638 16.1553 11.9126C15.9954 12.2901 15.8099 12.657 15.5966 13.0068C15.4857 13.1881 15.3684 13.3673 15.2447 13.5401C15.217 13.5785 15.1914 13.6148 15.1637 13.651C15.1488 13.6724 15.1338 13.6916 15.1168 13.7129C15.0592 13.7918 15.1594 13.6574 15.1616 13.6574C15.0955 13.7491 15.0208 13.8366 14.9483 13.9219C14.6732 14.2504 14.3704 14.5554 14.0484 14.8391C13.9695 14.9074 13.8906 14.9735 13.8117 15.0396C13.7712 15.0716 13.7307 15.1036 13.6902 15.1356C13.6582 15.1612 13.5942 15.2018 13.7456 15.093C13.72 15.11 13.6965 15.1292 13.671 15.1484C13.5004 15.2764 13.3234 15.398 13.1421 15.5111C12.7519 15.7585 12.3424 15.9697 11.918 16.151C11.9692 16.1296 12.0204 16.1083 12.0716 16.087C11.3892 16.3728 10.6727 16.5669 9.94122 16.665C9.9988 16.6565 10.0542 16.6501 10.1118 16.6416C9.37398 16.7376 8.62761 16.7376 7.88976 16.6416C7.94734 16.6501 8.00278 16.6565 8.06036 16.665C7.32892 16.5669 6.6124 16.3728 5.93 16.087C5.98118 16.1083 6.03236 16.1296 6.08354 16.151C5.70609 15.991 5.3393 15.8054 4.98957 15.5921C4.80831 15.4812 4.62918 15.3639 4.45644 15.2402C4.41806 15.2124 4.38181 15.1868 4.34555 15.1591C4.32423 15.1442 4.30504 15.1292 4.28371 15.1122C4.20481 15.0546 4.33916 15.1548 4.33916 15.157C4.24746 15.0908 4.16003 15.0162 4.07473 14.9437C3.74632 14.6685 3.44138 14.3656 3.15775 14.0435C3.08951 13.9646 3.02341 13.8857 2.9573 13.8067C2.92531 13.7662 2.89332 13.7257 2.86134 13.6852C2.83575 13.6532 2.79523 13.5892 2.90399 13.7406C2.88693 13.715 2.86773 13.6916 2.84854 13.666C2.72059 13.4953 2.59904 13.3183 2.48602 13.137C2.23865 12.7466 2.02753 12.3371 1.84627 11.9126C1.86759 11.9638 1.88892 12.015 1.91024 12.0662C1.62449 11.3836 1.43043 10.6669 1.33234 9.93523C1.34087 9.99282 1.34726 10.0483 1.35579 10.1059C1.25983 9.36783 1.25983 8.62126 1.35579 7.88322C1.34726 7.94081 1.34087 7.99627 1.33234 8.05386C1.43043 7.32222 1.62449 6.60551 1.91024 5.92293C1.88892 5.97413 1.86759 6.02532 1.84627 6.07651C2.00621 5.69896 2.19173 5.33207 2.40498 4.98225C2.51587 4.80094 2.63316 4.62176 2.75684 4.44899C2.78457 4.41059 2.81016 4.37433 2.83788 4.33807C2.85281 4.31674 2.86773 4.29754 2.88479 4.27621C2.94237 4.19728 2.84214 4.33167 2.84001 4.33167C2.90612 4.23995 2.98076 4.15249 3.05326 4.06717C3.32835 3.73868 3.63117 3.43365 3.95317 3.14995C4.03208 3.08169 4.11098 3.01557 4.18988 2.94944C4.2304 2.91745 4.27092 2.88545 4.31143 2.85345C4.34342 2.82786 4.4074 2.78733 4.25599 2.89612C4.28158 2.87905 4.30504 2.85985 4.33063 2.84066C4.50123 2.71267 4.67822 2.59109 4.85949 2.47804C5.24973 2.2306 5.65917 2.01943 6.08354 1.83812C6.03236 1.85945 5.98118 1.88078 5.93 1.90211C6.6124 1.61628 7.32892 1.42217 8.06036 1.32405C8.00278 1.33258 7.94734 1.33898 7.88976 1.34751C8.62761 1.25152 9.37398 1.25152 10.1118 1.34751C10.0542 1.33898 9.9988 1.33258 9.94122 1.32405C10.6727 1.42217 11.3892 1.61628 12.0716 1.90211C12.0204 1.88078 11.9692 1.85945 11.918 1.83812C12.4043 2.04289 12.8691 2.29246 13.3084 2.58469C13.4193 2.65721 13.5281 2.734 13.6347 2.81293C13.6646 2.83426 13.6923 2.85559 13.72 2.87692C13.8074 2.94304 13.5963 2.7788 13.688 2.85132C13.7413 2.89185 13.7925 2.93451 13.8458 2.97717C14.0591 3.15422 14.2638 3.34193 14.46 3.53603C14.6967 3.77281 15.1317 3.792 15.3642 3.53603C15.5987 3.28007 15.6179 2.88332 15.3642 2.63162C14.0612 1.33471 12.3595 0.432428 10.5426 0.131666C9.66187 -0.0133824 8.77475 -0.0453784 7.88976 0.069807C6.93867 0.193525 6.03449 0.451625 5.1623 0.856907C3.47976 1.63548 2.05099 2.98144 1.14681 4.5983C0.268222 6.1725 -0.13482 8.02187 0.0400451 9.81791C0.12961 10.7415 0.347124 11.6331 0.707516 12.4885C1.07644 13.3631 1.57331 14.1608 2.1896 14.8818C3.3902 16.2854 5.04501 17.3007 6.83844 17.7401C8.57856 18.1646 10.4573 18.0729 12.1356 17.4372C13.9269 16.7589 15.4601 15.5409 16.5221 13.9433C17.5201 12.4394 18.0383 10.6135 17.9978 8.80897C17.9573 6.998 17.3687 5.19343 16.2961 3.73014C16.0124 3.34193 15.7032 2.97504 15.3642 2.63375C15.1275 2.39698 14.6924 2.37991 14.46 2.63375C14.2254 2.88758 14.2062 3.2822 14.46 3.53603Z" fill="white"/>
<path d="M7.23758 7.37149V6.87257C7.38013 6.82505 7.57019 6.75378 7.83153 6.68251C8.06911 6.61123 8.33045 6.56371 8.61555 6.5162C8.90065 6.46868 9.16199 6.42117 9.42333 6.39741C9.68467 6.37365 9.92225 6.34989 10.1361 6.34989L10.3974 6.5162L9.06696 12.8121H10.0886V13.3348C9.96976 13.4298 9.80346 13.5011 9.63715 13.5961C9.47084 13.6674 9.28078 13.7387 9.09071 13.8099C8.90065 13.8812 8.71058 13.9287 8.52052 13.9525C8.33045 13.9762 8.14039 14 7.97408 14C7.59395 14 7.35637 13.9287 7.21382 13.7862C7.07127 13.6436 7 13.4773 7 13.311C7 13.1209 7.02376 12.9309 7.04752 12.7408C7.07127 12.5508 7.11879 12.3607 7.16631 12.1231L8.16415 7.58531L7.23758 7.37149ZM8.473 4.06911C8.473 3.7365 8.59179 3.47516 8.80562 3.2851C9.01944 3.09503 9.30454 3 9.66091 3C10.041 3 10.3261 3.09503 10.54 3.2851C10.7538 3.47516 10.8726 3.7365 10.8726 4.06911C10.8726 4.37797 10.7538 4.63931 10.54 4.80562C10.3261 4.99568 10.0173 5.09071 9.66091 5.09071C9.32829 5.09071 9.0432 4.99568 8.80562 4.80562C8.59179 4.63931 8.473 4.40173 8.473 4.06911Z" fill="white"/>
</svg>
