<svg width="15" height="15" viewBox="0 0 15 15" fill="none" xmlns="http://www.w3.org/2000/svg">
<path d="M8.75 1.25H3.75C3.41848 1.25 3.10054 1.3817 2.86612 1.61612C2.6317 1.85054 2.5 2.16848 2.5 2.5V12.5C2.5 12.8315 2.6317 13.1495 2.86612 13.3839C3.10054 13.6183 3.41848 13.75 3.75 13.75H11.25C11.5815 13.75 11.8995 13.6183 12.1339 13.3839C12.3683 13.1495 12.5 12.8315 12.5 12.5V5L8.75 1.25Z" stroke="#3757FF" stroke-linecap="round" stroke-linejoin="round"/>
<path d="M8.75 1.25V5H12.5" stroke="#3757FF" stroke-linecap="round" stroke-linejoin="round"/>
<path d="M10 8.125H5" stroke="#3757FF" stroke-linecap="round" stroke-linejoin="round"/>
<path d="M10 10.625H5" stroke="#3757FF" stroke-linecap="round" stroke-linejoin="round"/>
<path d="M6.25 5.625H5.625H5" stroke="#3757FF" stroke-linecap="round" stroke-linejoin="round"/>
</svg>
