<svg width="24" height="24" viewBox="0 0 24 24" fill="none" xmlns="http://www.w3.org/2000/svg">
<path fill-rule="evenodd" clip-rule="evenodd" d="M12 2.5C7.58172 2.5 4 6.08172 4 10.5V19.5C4 20.6046 4.89543 21.5 6 21.5H18C19.1046 21.5 20 20.6046 20 19.5V10.5C20 6.08172 16.4183 2.5 12 2.5ZM9 9.5C7.34315 9.5 6 10.8431 6 12.5C6 14.1569 7.34315 15.5 9 15.5H15C16.6569 15.5 18 14.1569 18 12.5C18 10.8431 16.6569 9.5 15 9.5H9Z" fill="#6B7C93"/>
<path opacity="0.5" fill-rule="evenodd" clip-rule="evenodd" d="M10.5 12.5C10.5 13.3284 9.82843 14 9 14C8.17157 14 7.5 13.3284 7.5 12.5C7.5 11.6716 8.17157 11 9 11C9.82843 11 10.5 11.6716 10.5 12.5ZM16.5 12.5C16.5 13.3284 15.8284 14 15 14C14.1716 14 13.5 13.3284 13.5 12.5C13.5 11.6716 14.1716 11 15 11C15.8284 11 16.5 11.6716 16.5 12.5Z" fill="#6B7C93"/>
</svg>
