<svg width="11" height="13" viewBox="0 0 11 13" fill="none" xmlns="http://www.w3.org/2000/svg">
<path d="M10.3312 1.5063H7.43325V1.01511C7.43325 0.458438 6.97481 0 6.41814 0H4.37154C3.81486 0 3.35642 0.458438 3.35642 1.01511V1.5063H0.458438C0.212846 1.5063 0 1.70277 0 1.96474C0 2.2267 0.196473 2.42317 0.458438 2.42317H0.982368V11.3136C0.982368 12.2469 1.73552 13 2.66877 13H8.12091C9.05416 13 9.82368 12.2305 9.82368 11.2972V2.39043H10.364C10.6096 2.39043 10.8224 2.19395 10.8224 1.93199C10.806 1.70277 10.5932 1.5063 10.3312 1.5063ZM4.24055 1.5063V1.01511C4.24055 0.933249 4.30605 0.884131 4.37154 0.884131H6.43451C6.51637 0.884131 6.56549 0.949622 6.56549 1.01511V1.5063H4.24055ZM8.9068 11.2809C8.9068 11.7065 8.56297 12.0668 8.12091 12.0668H2.65239C2.2267 12.0668 1.8665 11.7229 1.8665 11.2809V2.39043H8.9068V11.2809Z" fill="#FF3535"/>
<path d="M5.38617 10.773C5.63177 10.773 5.81187 10.5765 5.81187 10.3146V4.14203C5.81187 3.89644 5.61539 3.68359 5.38617 3.68359C5.14058 3.68359 4.92773 3.89644 4.92773 4.14203V10.3146C4.94411 10.5602 5.14058 10.773 5.38617 10.773Z" fill="#FF3535"/>
<path d="M7.44965 10.773C7.69524 10.773 7.90809 10.5765 7.90809 10.3146V4.14203C7.90809 3.89644 7.71161 3.68359 7.44965 3.68359C7.20406 3.68359 6.99121 3.88007 6.99121 4.14203V10.3309C7.02396 10.5765 7.22043 10.773 7.44965 10.773Z" fill="#FF3535"/>
<path d="M3.34027 10.773C3.58587 10.773 3.79871 10.5765 3.79871 10.3146V4.14203C3.79871 3.89644 3.60224 3.68359 3.34027 3.68359C3.09468 3.68359 2.88184 3.88007 2.88184 4.14203V10.3146C2.88184 10.5602 3.07831 10.773 3.34027 10.773Z" fill="#FF3535"/>
</svg>
