<svg width="16" height="12" viewBox="0 0 16 12" fill="none" xmlns="http://www.w3.org/2000/svg">
  <path d="M4.13286 5.57941C4.00765 5.70485 3.93848 5.87179 3.93848 6.04865C3.93848 6.22619 4.00742 6.39268 4.13286 6.51788L7.13827 9.52353C7.20053 9.58602 7.27386 9.63513 7.35387 9.66787C7.43526 9.70177 7.52104 9.71929 7.60866 9.71929C7.69605 9.71929 7.78183 9.702 7.86092 9.66903C7.94301 9.63536 8.01633 9.58671 8.07813 9.52445L11.0845 6.51811C11.3432 6.25963 11.3432 5.83882 11.0847 5.57987L11.0845 5.57941C10.8258 5.32093 10.4047 5.32116 10.1462 5.57964L8.27251 7.45359V0.663617C8.27251 0.297682 7.97483 0 7.60889 0C7.24296 0 6.94528 0.297682 6.94528 0.663617V7.45336L5.07156 5.57918C4.81262 5.32047 4.39157 5.32116 4.13286 5.57941Z" fill="#242424"/>
  <path d="M15.2185 7.36914H13.835V10.6174H1.3835V7.57228H0V12.0009H15.2185V7.36914Z" fill="#242424"/>
</svg>
