<svg width="48" height="20" viewBox="0 0 48 20" fill="none" xmlns="http://www.w3.org/2000/svg">
<path d="M6.82874 4.32649C6.65566 4.34511 6.48258 4.36373 6.32874 4.38235C6.42489 4.17754 6.54027 3.97274 6.65566 3.74932C6.71335 3.89827 6.82874 4.28925 6.82874 4.32649Z" fill="#130501"/>
<path d="M19.5401 15.8327L18.6545 19.8914H16.1266C16.4403 19.184 17.2152 19.184 17.2152 19.184C17.2152 19.184 18.5622 16.6332 16.4956 14.0267C16.4772 13.8777 16.4772 13.7288 16.4772 13.5798C17.3075 14.0453 18.1563 14.3432 18.8943 14.548C19.208 15.3486 19.5401 15.8327 19.5401 15.8327Z" fill="#00AB62"/>
<path d="M13.8017 3.91689C13.8755 3.91689 13.9493 3.91689 14.0047 3.91689C13.5988 3.93551 13.1375 3.97275 12.6577 4.0286C12.6208 4.0286 12.6024 4.0286 12.5839 4.04722C12.5101 4.06584 12.4548 4.06584 12.4548 4.06584C12.2887 5.31327 12.2702 6.41176 12.3809 7.39853C12.1595 5.62979 12.4178 4.19617 12.4548 4.08446C12.6208 4.06584 12.7684 4.0286 12.9345 4.0286C12.9714 4.0286 12.9898 4.0286 13.0268 4.00998C13.0637 4.00998 13.119 4.00998 13.1744 3.99137C13.2851 3.97275 13.4142 3.97275 13.5619 3.95413C13.6172 3.95413 13.6726 3.95413 13.7279 3.93551C13.7464 3.91689 13.7833 3.91689 13.8017 3.91689Z" fill="#00AB62"/>
<path d="M18.8574 9.22313C18.9875 8.77629 19.1176 8.25498 19.161 7.69643C19.161 8.1805 19.0525 8.70182 18.8574 9.22313Z" fill="#00AB62"/>
<path d="M12.381 11.4388C11.4584 12.016 10.0561 12.4069 7.97107 12.4255C8.54307 8.5157 8.96746 4.53135 8.96746 4.53135C9.87159 4.62444 11.034 4.54997 12.4548 4.08451C12.381 4.28931 11.2924 8.25503 12.381 11.4388Z" fill="#FF527E"/>
<path d="M8.02633 4.3637C7.58349 4.30785 7.17755 4.30785 6.80852 4.32647C6.79007 4.27061 6.79007 4.23337 6.77162 4.17752C6.75317 4.06581 6.69781 3.91686 6.64246 3.76791C6.71626 3.82377 7.17755 4.14028 8.02633 4.3637Z" fill="#FF527E"/>
<path fill-rule="evenodd" clip-rule="evenodd" d="M6.62415 0.193368C6.62415 0.193368 5.71997 0.472649 5.31409 1.06844C5.33252 1.01258 5.4801 0.379555 5.27722 0.174752C5.25867 0.156136 0 1.4408 0 5.35068C0 9.98664 2.7124 11.8671 2.82312 11.9416C-2.57434 3.88202 5.43347 2.40614 5.90454 2.31931L5.90637 2.31898L5.91052 2.32607C2.8407 4.83883 2.50952 8.33234 2.60168 10.3404C2.60168 9.81906 2.65698 9.33498 2.7677 8.86953C2.9707 7.17528 3.63501 5.27617 5.51709 4.58732C6.14441 4.04737 6.60571 3.76811 6.60571 3.76811H6.62415C6.3999 3.17643 5.96619 2.4221 5.91052 2.32607L5.92297 2.31587L5.90637 2.31898L5.90454 2.31587C5.90454 2.31587 6.82715 1.08705 6.62415 0.193368ZM3.56116 1.85041C3.56116 1.85041 4.31775 0.714692 5.14795 0.416794C5.1665 0.416794 5.29565 1.77593 3.56116 1.85041ZM6.42114 0.528504C5.79382 0.86364 5.55396 1.55251 5.55396 1.55251C6.06812 1.41103 6.31909 0.778428 6.39587 0.584931C6.41003 0.549256 6.41821 0.528504 6.42114 0.528504Z" fill="#00B4FF"/>
<path d="M2.8586 11.9415C2.68516 11.3829 2.62012 10.843 2.62012 10.3403C2.68516 11.2898 2.8586 11.9042 2.8586 11.9415Z" fill="#00B4FF"/>
<path d="M6.64262 3.74932C6.53191 3.95412 6.43965 4.15893 6.32894 4.38235C6.05217 4.41958 5.77539 4.49406 5.53552 4.58715C6.16288 4.04722 6.64262 3.74932 6.64262 3.74932Z" fill="#007300"/>
<path d="M2.8586 11.9414C2.83692 11.9042 2.66348 11.2898 2.62012 10.3402V10.3216C2.62012 9.80031 2.68516 9.31623 2.81524 8.85077C2.59844 10.4333 2.83692 11.8297 2.8586 11.9414Z" fill="#110501"/>
<path d="M5.62766 15.7767C4.72353 18.0296 3.80094 19.5191 3.80094 19.5191H1.51294C1.84507 18.644 2.80456 18.7743 2.80456 18.7743C2.80456 18.7743 4.11462 17.08 2.84146 11.9414C4.63127 12.8723 5.36934 14.3804 5.62766 15.7767Z" fill="#FFA200"/>
<path d="M2.8586 11.9415C2.68516 11.3829 2.62012 10.843 2.62012 10.3403C2.68516 11.2898 2.8586 11.9042 2.8586 11.9415Z" fill="#FFA200"/>
<path d="M8.7829 5.96495C8.7829 7.19376 7.62045 7.1379 7.28832 7.10067C7.23296 6.16975 7.08535 5.25745 6.82703 4.34515C7.1038 4.94093 8.7829 5.96495 8.7829 5.96495Z" fill="#120228"/>
<path d="M6.7163 12.3883C5.59075 12.3324 4.29913 12.1835 2.823 11.9414C2.87835 11.8297 3.80093 9.70723 5.00029 7.15651C5.5723 6.93309 6.27346 6.87724 7.17759 7.10066C7.17759 7.10066 7.21449 7.10066 7.26985 7.11928C7.38057 8.92526 7.12223 10.7499 6.7163 12.3883Z" fill="#DC0200"/>
<path d="M6.7163 12.3882C6.42107 13.617 6.01513 14.7714 5.62765 15.7581C5.35087 14.3618 4.61281 12.8537 2.823 11.9414C4.29913 12.202 5.59075 12.3323 6.7163 12.3882Z" fill="#E10801"/>
<path d="M7.95253 12.4255C7.43589 16.0002 6.80853 19.5004 6.31034 19.8914H4.50208C4.50208 19.8914 4.59433 19.426 5.57227 19.035C5.57227 19.035 5.95976 17.4897 5.62762 15.7581C6.01511 14.7714 6.42105 13.617 6.71628 12.3882C7.15911 12.4255 7.56505 12.4255 7.95253 12.4255Z" fill="#E6135A"/>
<path d="M8.94906 4.51261C8.61693 4.43814 8.32171 4.38229 8.02648 4.34505C7.58364 4.28919 7.1777 4.28919 6.80867 4.30781C6.80867 4.30781 6.80867 4.32643 6.82712 4.32643C7.12235 4.92222 8.783 5.94623 8.783 5.94623C8.783 7.17504 7.62054 7.11919 7.28841 7.08195C7.39912 8.90655 7.1408 10.7125 6.73486 12.3696C7.1777 12.3882 7.58364 12.4068 7.97112 12.3882C8.52468 8.49695 8.96751 4.51261 8.94906 4.51261C8.96751 4.51261 8.96751 4.51261 8.94906 4.51261Z" fill="#E10328"/>
<path d="M5.00033 7.15646C3.80097 9.70718 2.87839 11.8297 2.82303 11.9414C2.82303 11.7552 2.74923 8.06877 5.00033 7.15646Z" fill="#E10801"/>
<path d="M5.53543 4.58723C4.55749 5.42506 3.24742 6.89592 2.78613 8.86945C2.9891 7.17519 3.65336 5.27612 5.53543 4.58723Z" fill="#120737"/>
<path d="M6.32881 4.38234C5.86751 5.31326 5.42467 6.26279 5.00029 7.15648C2.73073 8.06878 2.82299 11.7552 2.82299 11.9414C2.80454 11.8297 2.60157 10.4333 2.76764 8.86936C3.22893 6.8772 4.55745 5.42497 5.51693 4.58714C5.77526 4.49405 6.05203 4.41958 6.32881 4.38234Z" fill="#110501"/>
<path d="M7.2698 7.10071C7.21444 7.10071 7.17754 7.08209 7.17754 7.08209C6.29186 6.85867 5.57224 6.91453 5.00024 7.13795C5.42463 6.24426 5.86747 5.29473 6.32876 4.36381C6.47638 4.34519 6.64244 4.32657 6.80851 4.30795C6.80851 4.30795 6.80851 4.32657 6.82696 4.32657C7.08528 5.25749 7.21444 6.18841 7.2698 7.10071Z" fill="#110200"/>
<path d="M13.3405 10.5264C13.1006 10.8615 12.7869 11.1594 12.3625 11.4201C11.2739 8.23635 12.381 4.27063 12.4363 4.06583C12.4179 4.19615 12.1411 5.61115 12.3625 7.3799V7.39852C12.5286 8.64595 12.8792 9.66995 13.3405 10.5264Z" fill="#CF4902"/>
<path d="M17.1416 16.1864L16.0715 19.5377H13.8019C14.134 18.7744 15.0566 18.8303 15.0566 18.8303C15.0566 18.8303 16.2744 16.2051 13.765 13.7474C13.1007 13.0958 12.6579 12.2952 12.3627 11.4387C12.7871 11.1781 13.1007 10.8616 13.3406 10.5451C13.4144 10.694 13.5067 10.8243 13.5805 10.9547C13.5989 10.9733 13.6174 10.9919 13.6174 11.0291C14.0233 11.6622 14.5584 12.2766 15.2411 12.8165C15.7578 13.2261 16.1637 13.6357 16.4774 14.0453C16.625 15.2369 17.1416 16.1864 17.1416 16.1864Z" fill="#A6E200"/>
<path d="M16.4956 14.0267C16.1635 13.6171 15.7576 13.2075 15.2594 12.7979C14.5767 12.2579 14.06 11.6435 13.6356 11.0105C14.4106 12.1835 15.4254 13.0213 16.4772 13.5985C16.4772 13.7474 16.4772 13.8964 16.4956 14.0267Z" fill="#009C00"/>
<path d="M13.3405 10.5265C13.4143 10.6754 13.5065 10.8057 13.5803 10.9547C13.5065 10.8057 13.4143 10.6754 13.3405 10.5265C12.8607 9.67002 12.5286 8.646 12.381 7.41719C12.5101 8.40396 12.7869 9.48383 13.3405 10.5265Z" fill="#A6E200"/>
<path d="M18.9005 9.2417C18.727 9.7444 18.5536 10.1168 18.4885 10.2471C18.5536 10.0051 18.662 9.76301 18.7704 9.52098C18.8354 9.42788 18.8788 9.33479 18.9005 9.2417Z" fill="#A6E200"/>
<path d="M19.0974 7.6779C19.042 5.57402 17.2153 3.87975 14.0416 3.91698C14.1154 3.91698 14.1892 3.91698 14.263 3.91698C14.3738 3.91698 14.4845 3.91698 14.6136 3.91698C15.4439 3.91698 16.1267 4.02869 16.6802 4.19626H16.6987C18.7099 4.81067 19.1527 6.31876 19.0974 7.6779Z" fill="#A6E200"/>
<path d="M18.876 14.548C18.138 14.3432 17.2892 14.0453 16.4589 13.5798C16.4589 12.4441 16.8833 11.1408 18.4701 10.2844C18.4701 10.2844 18.4701 10.2658 18.4885 10.2471C18.0457 11.9228 18.4516 13.5054 18.876 14.548Z" fill="#007F00"/>
<path d="M19.0973 7.6779C19.0788 8.25506 18.9682 8.77638 18.839 9.22323C18.839 9.22323 18.839 9.22323 18.839 9.24183C18.8021 9.33493 18.7652 9.42804 18.7283 9.52111C18.6176 9.76315 18.5438 10.0052 18.4884 10.2472C18.4699 10.2845 18.4699 10.2845 18.4699 10.2845C16.8831 11.1409 16.4587 12.4442 16.4772 13.5986C15.4439 13.0214 14.4106 12.2022 13.6356 11.0106C13.6172 10.992 13.5987 10.9734 13.5987 10.9361C13.5065 10.8058 13.4326 10.6568 13.3588 10.5079C15.0933 8.05027 12.4547 4.06593 12.4547 4.06593C12.4547 4.06593 12.5101 4.04731 12.6023 4.04731C12.6208 4.04731 12.6577 4.04731 12.6761 4.02869C13.1559 3.97284 13.5987 3.9356 14.0231 3.91698H14.0416C17.2152 3.87975 19.0419 5.57402 19.0973 7.6779Z" fill="#007100"/>
<path d="M12.4548 4.06585C12.4548 4.06585 12.5101 4.04723 12.6024 4.04723C12.547 4.04723 12.4917 4.06585 12.4548 4.06585C12.4548 4.06585 12.4363 4.06585 12.4548 4.06585C12.4178 4.19618 12.1595 5.61118 12.3809 7.39854V7.41716C12.5286 8.64596 12.8791 9.67 13.3404 10.5264C13.4142 10.6754 13.5065 10.8057 13.5803 10.936C13.488 10.8057 13.4142 10.6568 13.3404 10.5078C15.0933 8.05019 12.4548 4.06585 12.4548 4.06585Z" fill="#001F00"/>
<path d="M21.1087 14.939C21.1087 14.939 20.1492 14.9017 18.876 14.5666C18.4516 13.524 18.0457 11.9414 18.4885 10.2471C18.5439 10.1168 18.6915 9.74446 18.8391 9.24174C18.8391 9.24174 18.8391 9.24174 18.8391 9.22315C19.0236 8.70183 19.0974 8.1805 19.0974 7.69642V7.67781C19.1528 6.31866 18.71 4.81058 16.6987 4.19617C18.2856 4.64301 19.7248 5.72287 19.7248 8.14326C19.7248 13.0213 21.1087 14.939 21.1087 14.939Z" fill="#FFBD00"/>
<path d="M18.7888 9.50234C18.8322 9.40925 18.8755 9.31616 18.9189 9.22307C18.7454 9.72577 18.572 10.0981 18.507 10.2285C18.572 10.005 18.6587 9.763 18.7888 9.50234Z" fill="#FFBD00"/>
<path d="M19.1425 7.69643C19.1642 8.1805 19.0558 8.70182 18.839 9.22313C18.9908 8.79491 19.1208 8.25498 19.1425 7.69643Z" fill="#FFBD00"/>
<path d="M19.0975 7.67789C19.0421 5.57402 17.2154 3.87975 14.0417 3.91698H14.0232C13.6173 3.9356 13.156 3.97284 12.6763 4.02869C12.7501 4.01007 12.8239 4.01007 12.9161 3.99146C12.953 3.99146 12.9715 3.99146 13.0084 3.97284C13.0453 3.97284 13.1007 3.97284 13.156 3.95422C13.2667 3.9356 13.3959 3.9356 13.5435 3.91698C13.5989 3.91698 13.6542 3.91698 13.7096 3.89836C13.7465 3.89836 13.7649 3.89836 13.8018 3.89836C13.9494 3.89836 14.097 3.87975 14.2447 3.87975C14.3554 3.87975 14.4661 3.87975 14.5952 3.87975C15.241 3.89836 15.9791 3.97284 16.6618 4.15902H16.6803C18.71 4.81066 19.1528 6.31875 19.0975 7.67789Z" fill="#FFBD00"/>
<path d="M2.62013 10.3402C2.62013 10.8615 2.69394 11.3828 2.8231 11.9414C-2.67549 3.73065 5.73845 2.3529 5.92296 2.31566C2.86 4.82914 2.50942 8.31076 2.62013 10.3402Z" fill="#00AAF1"/>
<path d="M2.8586 11.9415C2.68516 11.3829 2.62012 10.843 2.62012 10.3403C2.68516 11.2898 2.8586 11.9042 2.8586 11.9415Z" fill="#00EEEE"/>
<path d="M3.56116 1.85034C3.56116 1.85034 4.31768 0.714619 5.148 0.416725C5.16645 0.416725 5.29561 1.77587 3.56116 1.85034Z" fill="#00AAF1"/>
<path d="M6.40275 0.528381C6.40275 0.528381 6.14443 1.40345 5.53552 1.55239C5.55397 1.55239 5.79385 0.863512 6.40275 0.528381Z" fill="#00AAF1"/>
<path fill-rule="evenodd" clip-rule="evenodd" d="M37.0819 9.90611C37.6572 9.90611 37.9375 10.1145 37.9965 10.5908C35.474 10.8587 34.4266 11.6179 34.4266 13.0021C34.4266 14.0887 35.1494 15.0414 36.3885 15.0414C37.0967 15.0414 37.672 14.7288 38.203 14.2525H38.262L38.4243 14.8925H39.7224C40.0322 14.8925 40.2682 14.6395 40.2682 14.3417V11.2011C40.2682 9.02792 39.2504 8.10506 37.5392 8.10506C36.5066 8.10506 35.5625 8.43253 34.6479 8.98326L35.1937 9.99542C35.3264 10.2485 35.6215 10.3527 35.8871 10.2336C36.3444 10.0103 36.7279 9.90611 37.0819 9.90611ZM37.9965 12.8533C37.7605 13.1212 37.554 13.2998 37.1852 13.2998C36.7869 13.2998 36.5803 13.1212 36.5803 12.8384C36.5803 12.4663 36.9196 12.1239 37.9965 11.9602V12.8533Z" fill="black"/>
<path d="M41.1975 6.54208H42.9087V8.26871H44.3986V9.48926C44.3986 9.78695 44.1625 10.04 43.8528 10.04H42.8939V12.3025C42.8939 13.0318 43.2627 13.27 43.6757 13.27C43.8823 13.27 44.0888 13.2104 44.251 13.1658L44.4871 14.297C44.5461 14.5947 44.3543 14.8775 44.0593 14.9371C43.779 14.9966 43.4545 15.0413 43.0414 15.0413C41.3303 15.0413 40.6222 13.9547 40.6222 12.3471V7.09282C40.6664 6.78024 40.9025 6.54208 41.1975 6.54208Z" fill="black"/>
<path d="M44.8413 6.30409C44.8413 5.64916 45.3724 5.17285 46.0952 5.17285C46.818 5.17285 47.349 5.64916 47.349 6.30409C47.349 6.95902 46.818 7.43533 46.0952 7.43533C45.3724 7.43533 44.8413 6.9739 44.8413 6.30409Z" fill="#03B5FF"/>
<path d="M45.5194 8.26902H47.2306V14.342C47.2306 14.6397 46.9946 14.8927 46.6848 14.8927H44.9736V8.80487C44.9736 8.50718 45.2244 8.26902 45.5194 8.26902Z" fill="black"/>
<path d="M24.6022 8.2688H25.9003L26.0625 9.07257H26.1216C26.6526 8.5516 27.1984 8.10506 28.0835 8.10506C28.9686 8.10506 29.5439 8.47718 29.8979 9.16188C30.429 8.61115 31.019 8.10506 31.9189 8.10506C33.3645 8.10506 33.9841 9.16188 33.9841 10.7992V14.3269C33.9841 14.6246 33.7481 14.8776 33.4383 14.8776H31.7271V11.0969C31.7271 10.2485 31.5206 10.0401 31.0781 10.0401C30.8125 10.0401 30.5027 10.2038 30.1635 10.5462V14.3417C30.1635 14.6394 29.9274 14.8925 29.6176 14.8925H27.9065V11.0969C27.9065 10.2485 27.7 10.0401 27.2574 10.0401C26.9919 10.0401 26.6821 10.2038 26.3428 10.5462V14.3417C26.3428 14.6394 26.1068 14.8925 25.797 14.8925H24.0859V8.80465C24.0711 8.50695 24.3071 8.2688 24.6022 8.2688Z" fill="black"/>
</svg>
