<svg width="23" height="23" viewBox="0 0 23 23" fill="none" xmlns="http://www.w3.org/2000/svg">
<path fill-rule="evenodd" clip-rule="evenodd" d="M1.98511 11.3014C1.98511 12.301 1.34766 13.1895 0.396729 13.5093C0.107422 13.607 -0.0576172 13.9095 0.0185547 14.2056C0.287598 15.252 0.702148 16.2563 1.25317 17.1926C1.4126 17.4634 1.75903 17.5589 2.0354 17.4086C2.37598 17.2235 2.76074 17.1256 3.15161 17.1256C4.43677 17.1256 5.48389 18.171 5.48389 19.455C5.48389 19.8438 5.38599 20.2294 5.2002 20.5698C5.0498 20.8459 5.14551 21.1918 5.4165 21.351C6.35474 21.9016 7.35938 22.3155 8.40723 22.5842C8.70337 22.6602 9.00854 22.4952 9.10425 22.2062C9.42407 21.2578 10.3137 20.6197 11.3145 20.6197C12.3152 20.6197 13.2048 21.2565 13.5247 22.2062C13.6057 22.4474 13.832 22.603 14.0767 22.6034C14.124 22.6034 14.1731 22.5978 14.2217 22.5842C15.2693 22.3155 16.2747 21.9016 17.2122 21.351C17.4832 21.1918 17.5789 20.8459 17.4287 20.5698C17.2432 20.2294 17.1453 19.8451 17.1453 19.455C17.1453 18.171 18.1917 17.1256 19.4773 17.1256C19.8667 17.1256 20.2529 17.2232 20.5933 17.4086C20.8696 17.5589 21.2163 17.4634 21.3757 17.1926C21.9265 16.2552 22.3411 15.252 22.6099 14.2056C22.686 13.9095 22.521 13.6047 22.2319 13.5093C21.2822 13.1895 20.6431 12.301 20.6431 11.3014C20.6431 10.3017 21.281 9.41322 22.2319 9.09363C22.521 8.99571 22.6863 8.69299 22.6099 8.39717C22.3411 7.35071 21.9265 6.34644 21.3757 5.41016C21.2163 5.13939 20.8696 5.04378 20.5933 5.19411C20.2539 5.37922 19.8679 5.47713 19.4773 5.47713C18.1917 5.47713 17.1453 4.43169 17.1453 3.14771C17.1453 2.75883 17.2429 2.37328 17.4287 2.03297C17.5789 1.75685 17.4832 1.41093 17.2122 1.25164C16.2739 0.70118 15.2693 0.287239 14.2217 0.0185318C13.9253 -0.0574036 13.6204 0.107506 13.5244 0.396416C13.2046 1.34496 12.3149 1.98312 11.3142 1.98312C10.3135 1.98312 9.42383 1.34624 9.104 0.396416C9.00586 0.107506 8.70288 -0.057663 8.40698 0.0185318C7.35889 0.287239 6.35352 0.70118 5.41626 1.25164C5.14526 1.41093 5.04956 1.75685 5.19995 2.03297C5.3855 2.37328 5.48364 2.75755 5.48364 3.14771C5.48364 4.43169 4.43652 5.47713 3.15137 5.47713C2.76172 5.47713 2.37573 5.37947 2.03516 5.19411C1.75879 5.04378 1.41235 5.13939 1.25293 5.41016C0.701904 6.34746 0.287354 7.35071 0.0183105 8.39717C-0.057373 8.69324 0.107422 8.998 0.396729 9.09363C1.34644 9.41322 1.98511 10.3017 1.98511 11.3014ZM14.811 11.3026C14.811 13.2294 13.2419 14.7969 11.313 14.7969C9.38379 14.7969 7.81445 13.2294 7.81445 11.3026C7.81445 9.37563 9.38379 7.80836 11.313 7.80836C13.2419 7.80836 14.811 9.37563 14.811 11.3026Z" fill="#95A6BB"/>
</svg>
