<svg width="33" height="33" viewBox="0 0 33 33" fill="none" xmlns="http://www.w3.org/2000/svg">
<path d="M0.679854 0.000824323C0.493377 0.0183989 0.320223 0.10511 0.194445 0.243897C0.0686663 0.382684 -0.000633451 0.563503 0.000173711 0.750801V12.0005C-0.00122987 12.0999 0.0171322 12.1985 0.054193 12.2908C0.0912538 12.383 0.146274 12.4669 0.216057 12.5377C0.285839 12.6085 0.368992 12.6647 0.460683 12.703C0.552374 12.7414 0.650774 12.7611 0.750166 12.7611C0.849557 12.7611 0.947958 12.7414 1.03965 12.703C1.13134 12.6647 1.21449 12.6085 1.28427 12.5377C1.35406 12.4669 1.40908 12.383 1.44614 12.2908C1.4832 12.1985 1.50156 12.0999 1.50016 12.0005V1.50078H12C12.0994 1.50218 12.1981 1.48384 12.2903 1.44679C12.3826 1.40973 12.4665 1.3547 12.5373 1.28492C12.608 1.21514 12.6642 1.13198 12.7026 1.04029C12.741 0.948601 12.7607 0.850192 12.7607 0.750801C12.7607 0.65141 12.741 0.553025 12.7026 0.461335C12.6642 0.369644 12.608 0.286487 12.5373 0.216706C12.4665 0.146924 12.3826 0.0918997 12.2903 0.0548404C12.1981 0.0177811 12.0994 -0.000581194 12 0.000824323H0.750166C0.726741 -0.000274774 0.703278 -0.000274774 0.679854 0.000824323ZM20.9296 0.000824323C20.8311 0.00537344 20.7344 0.0293015 20.6451 0.0712284C20.5558 0.113155 20.4757 0.172263 20.4093 0.245179C20.3428 0.318095 20.2914 0.403399 20.258 0.496193C20.2245 0.588988 20.2097 0.687447 20.2143 0.785981C20.2189 0.884514 20.2429 0.981177 20.2849 1.07043C20.3269 1.15969 20.386 1.2398 20.459 1.30618C20.532 1.37256 20.6173 1.42392 20.7101 1.45731C20.8029 1.4907 20.9014 1.50547 21 1.50078H31.4998V12.0005C31.4984 12.0999 31.5168 12.1985 31.5539 12.2908C31.5909 12.383 31.6459 12.4669 31.7157 12.5377C31.7855 12.6085 31.8687 12.6647 31.9604 12.703C32.052 12.7414 32.1504 12.7611 32.2498 12.7611C32.3492 12.7611 32.4476 12.7414 32.5393 12.703C32.631 12.6647 32.7142 12.6085 32.7839 12.5377C32.8537 12.4669 32.9087 12.383 32.9458 12.2908C32.9829 12.1985 33.0012 12.0999 32.9998 12.0005V0.750801C32.9998 0.551901 32.9208 0.361149 32.7801 0.220505C32.6395 0.0798614 32.4487 0.00084415 32.2498 0.000824323H21C20.9765 -0.000274774 20.9531 -0.000274774 20.9296 0.000824323ZM16.5 6.37566C12.9881 6.37566 10.1251 9.23865 10.1251 12.7505C10.1251 14.341 10.9324 15.6556 11.8829 16.6879C8.75894 18.4954 6.37511 21.9263 6.37511 25.8751C6.37513 26.074 6.45416 26.2647 6.5948 26.4054C6.73545 26.546 6.9262 26.625 7.1251 26.6251H25.8749C26.0738 26.625 26.2646 26.546 26.4052 26.4054C26.5458 26.2647 26.6249 26.074 26.6249 25.8751C26.6249 21.9263 24.2411 18.4954 21.1171 16.6879C22.0676 15.6556 22.8749 14.341 22.8749 12.7505C22.8749 9.23865 20.0119 6.37566 16.5 6.37566ZM16.5 7.87562C19.2012 7.87562 21.3749 10.0493 21.3749 12.7505C21.3749 14.0879 20.4427 15.3546 19.3711 16.3129C19.2783 16.3967 19.208 16.5024 19.1665 16.6203C19.1251 16.7382 19.1137 16.8646 19.1335 16.988C19.1533 17.1115 19.2036 17.228 19.2799 17.327C19.3562 17.426 19.456 17.5044 19.5703 17.555C22.4144 18.8446 24.7414 21.7708 25.0546 25.1252H7.9454C8.25858 21.7708 10.5856 18.8446 13.4297 17.555C13.544 17.5044 13.6438 17.426 13.7201 17.327C13.7964 17.228 13.8467 17.1115 13.8665 16.988C13.8863 16.8646 13.8749 16.7382 13.8335 16.6203C13.792 16.5024 13.7217 16.3967 13.6289 16.3129C12.5573 15.3546 11.6251 14.0879 11.6251 12.7505C11.6251 10.0493 13.7988 7.87562 16.5 7.87562ZM0.668136 20.2386C0.481731 20.2591 0.309762 20.3486 0.186121 20.4896C0.0624812 20.6306 -0.00386001 20.8128 0.000173711 21.0003V32.2499C0.00018813 32.4488 0.0792089 32.6396 0.219856 32.7802C0.360503 32.9209 0.551258 32.9999 0.750166 32.9999H12C12.0994 33.0013 12.1981 32.9829 12.2903 32.9459C12.3825 32.9088 12.4664 32.8538 12.5372 32.784C12.6079 32.7142 12.6641 32.6311 12.7025 32.5394C12.7408 32.4477 12.7606 32.3494 12.7606 32.25C12.7606 32.1506 12.7408 32.0522 12.7025 31.9605C12.6641 31.8688 12.6079 31.7857 12.5372 31.7159C12.4664 31.6461 12.3825 31.5911 12.2903 31.554C12.1981 31.517 12.0994 31.4986 12 31.5H1.50016V21.0003C1.50246 20.8935 1.48193 20.7875 1.43996 20.6893C1.39798 20.5911 1.33552 20.503 1.25675 20.4309C1.17798 20.3588 1.08473 20.3043 0.983217 20.2711C0.881706 20.238 0.774284 20.2269 0.668136 20.2386ZM32.1678 20.2386C31.9814 20.2591 31.8094 20.3486 31.6858 20.4896C31.5621 20.6306 31.4958 20.8128 31.4998 21.0003V31.5H21C20.9006 31.4986 20.8019 31.517 20.7097 31.554C20.6175 31.5911 20.5336 31.6461 20.4628 31.7159C20.3921 31.7857 20.3359 31.8688 20.2975 31.9605C20.2592 32.0522 20.2394 32.1506 20.2394 32.25C20.2394 32.3494 20.2592 32.4477 20.2975 32.5394C20.3359 32.6311 20.3921 32.7142 20.4628 32.784C20.5336 32.8538 20.6175 32.9088 20.7097 32.9459C20.8019 32.9829 20.9006 33.0013 21 32.9999H32.2498C32.4487 32.9999 32.6395 32.9209 32.7801 32.7802C32.9208 32.6396 32.9998 32.4488 32.9998 32.2499V21.0003C33.0021 20.8935 32.9816 20.7875 32.9396 20.6893C32.8977 20.5911 32.8352 20.503 32.7564 20.4309C32.6777 20.3588 32.5844 20.3043 32.4829 20.2711C32.3814 20.238 32.274 20.2269 32.1678 20.2386Z" fill="#242424"/>
</svg>
