<svg width="28" height="23" viewBox="0 0 28 23" fill="none" xmlns="http://www.w3.org/2000/svg">
<path d="M27.4863 7.70359L19.9543 0.170781C19.7266 -0.0569269 19.33 -0.0569269 19.1023 0.170781L16.3983 2.87519C16.1648 3.10905 16.1648 3.491 16.3983 3.7264L16.9899 4.3176C15.0647 5.87001 12.6019 7.3978 11.4833 7.3978C11.3045 7.3978 11.1729 7.35742 11.0926 7.27703C10.9483 7.13279 10.7102 7.06663 10.5137 7.1124C10.0883 7.21164 9.91247 7.25241 7.21922 14.8783C5.94221 18.4951 4.69943 22.1569 4.68905 22.1876C4.61635 22.4034 4.67289 22.6461 4.85098 22.8235C4.96483 22.9373 5.11561 23 5.27601 23C5.34178 23 5.40717 22.9892 5.50295 22.9569C6.40416 22.6507 9.59168 21.5641 12.7788 20.4383C20.4039 17.7454 20.4455 17.5696 20.5447 17.1446C20.5928 16.9407 20.5282 16.7134 20.3801 16.5653C19.777 15.9626 21.4056 13.0666 23.3399 10.6673L23.9303 11.2584C24.158 11.4862 24.555 11.4862 24.7819 11.2584L27.486 8.5548C27.7206 8.3194 27.7206 7.93784 27.4863 7.70359ZM19.1523 16.7784C17.5514 17.4908 12.1184 19.4148 7.52924 20.9922L13.3804 15.1295C13.677 15.2864 14.0077 15.3691 14.347 15.3691C14.8967 15.3691 15.4128 15.1552 15.8009 14.7679C16.6029 13.9655 16.6029 12.6597 15.8009 11.8566C15.4125 11.4681 14.8955 11.2546 14.3451 11.2546C13.7943 11.2546 13.2773 11.4685 12.8892 11.8566C12.2519 12.4935 12.1103 13.4886 12.528 14.2767L6.66495 20.1271C8.24505 15.5326 10.171 10.0968 10.8791 8.5048C11.0568 8.55788 11.2529 8.58481 11.4645 8.58481C13.4039 8.58481 16.4275 6.32466 17.7745 5.23304L22.4245 9.88297C21.1517 11.4512 18.5988 14.9083 19.1523 16.7784Z" fill="black"/>
<path d="M3.46438 20.4406L3.36707 20.3644C2.99781 20.0709 2.41585 20.1371 2.12122 20.5052C1.81696 20.8875 1.88005 21.4464 2.26315 21.7518L2.38546 21.848C2.54201 21.9668 2.72818 22.0295 2.92281 22.0295C3.20167 22.0295 3.45861 21.903 3.62785 21.6822C3.92441 21.2937 3.85056 20.7364 3.46438 20.4406Z" fill="black"/>
<path d="M1.38513 14.272C1.5363 14.3805 1.714 14.4378 1.90017 14.4378C2.18557 14.4378 2.4552 14.2994 2.62137 14.067C2.67445 13.9936 2.72676 13.9189 2.77869 13.8447C3.05755 13.4431 2.95793 12.89 2.55636 12.6108C2.16826 12.3419 1.59245 12.4462 1.32282 12.8331L1.17935 13.0354C1.04165 13.2281 0.987028 13.4628 1.02588 13.6966C1.06511 13.9297 1.19243 14.1343 1.38513 14.272Z" fill="black"/>
<path d="M0.779524 17.073C0.816065 17.078 0.851836 17.0799 0.886839 17.0799C1.33687 17.0799 1.71497 16.7429 1.7669 16.296C1.77498 16.2244 1.78459 16.1529 1.7969 16.0802C1.87652 15.5983 1.54881 15.1413 1.06608 15.0609C0.572587 14.984 0.127172 15.3152 0.0475516 15.7925C0.0317813 15.8914 0.0175497 15.9914 0.00601044 16.0906C-0.0505318 16.576 0.298338 17.0172 0.779524 17.073Z" fill="black"/>
<path d="M2.99026 5.71781C3.02065 5.78358 3.04911 5.84936 3.07565 5.91629C3.21181 6.25439 3.53453 6.47248 3.89917 6.47248C4.0111 6.47248 4.12187 6.45094 4.2288 6.40824C4.68191 6.22631 4.9027 5.70935 4.72115 5.2547C4.68345 5.16201 4.64345 5.06931 4.60075 4.97584C4.40228 4.54542 3.85686 4.34272 3.4249 4.54158C2.98103 4.74582 2.78602 5.27317 2.99026 5.71781Z" fill="black"/>
<path d="M3.8647 10.0685C3.43082 9.86851 2.88578 10.072 2.68808 10.5012C2.65385 10.5743 2.61961 10.6486 2.58346 10.7224C2.37075 11.1624 2.55538 11.6933 2.99541 11.9067C3.11734 11.9656 3.24696 11.9952 3.38082 11.9952C3.71853 11.9952 4.03202 11.799 4.17933 11.4948L4.29742 11.2451C4.50205 10.8013 4.30819 10.2735 3.8647 10.0685Z" fill="black"/>
<path d="M3.38139 8.0584C3.37485 8.13225 3.36716 8.20687 3.35754 8.28187C3.32831 8.51651 3.39178 8.74921 3.53717 8.93615C3.68218 9.12308 3.89181 9.24271 4.12606 9.27194C4.16375 9.27694 4.20145 9.27887 4.2376 9.27887C4.68263 9.27887 5.06073 8.94538 5.11651 8.50304C5.12882 8.40496 5.13997 8.30649 5.14766 8.20879C5.18882 7.72184 4.82649 7.29219 4.33838 7.25065C3.85181 7.21334 3.42178 7.58144 3.38139 8.0584Z" fill="black"/>
<path d="M2.08982 18.6554C2.06252 18.5889 2.03597 18.522 2.01174 18.4539C1.85096 18.0069 1.33093 17.7569 0.877436 17.9185C0.41779 18.0846 0.178158 18.5931 0.343169 19.0528C0.377402 19.1482 0.414328 19.2428 0.452792 19.3362C0.590878 19.6678 0.912438 19.8821 1.27169 19.8821C1.38901 19.8821 1.50402 19.859 1.61248 19.8136C1.83096 19.7224 2.00097 19.5513 2.09098 19.3324C2.18098 19.1135 2.18022 18.8731 2.08982 18.6554Z" fill="black"/>
<path d="M1.65042 3.90376C1.81582 4.06108 2.03275 4.14801 2.26123 4.14801C2.50279 4.14801 2.73665 4.04762 2.90358 3.87261C3.24014 3.51835 3.2263 2.95601 2.87127 2.61829L2.76088 2.51405C2.41432 2.19634 1.82582 2.21942 1.50849 2.56521C1.34771 2.73907 1.26424 2.96562 1.27424 3.20218C1.28424 3.43873 1.38502 3.65759 1.55811 3.81722L1.65042 3.90376Z" fill="black"/>
</svg>
