<svg width="44" height="26" viewBox="0 0 44 26" fill="none" xmlns="http://www.w3.org/2000/svg">
<path d="M32.2584 2C27.5542 2 23.5023 4.84082 21.7232 8.89611C21.0124 8.71662 20.5773 8.57228 20.5599 8.56677C20.3398 8.49015 20.0981 8.60953 20.0227 8.83092C19.9474 9.05188 20.0655 9.29275 20.2865 9.36809C20.3542 9.39138 20.7648 9.52768 21.4074 9.69573C20.9887 10.8873 20.758 12.167 20.758 13.5C20.7584 19.8411 25.9173 25 32.2584 25C38.5996 25 43.7584 19.8407 43.7584 13.5C43.7584 7.15927 38.5992 2 32.2584 2ZM42.3751 10.1681C38.5691 9.9239 36.5457 6.50823 36.1249 5.71368C36.406 5.14856 36.6359 4.53434 36.8137 3.87229C39.428 5.11385 41.4578 7.38998 42.3751 10.1681ZM32.2584 2.84662C33.5855 2.84662 34.8554 3.09256 36.028 3.53788C35.4578 5.75178 34.2768 7.38786 32.4976 8.38856C29.3626 10.1516 25.0554 9.62631 22.5634 9.09167C24.244 5.41186 27.9559 2.84662 32.2584 2.84662ZM32.2584 24.1534C26.3842 24.1534 21.6051 19.3742 21.6051 13.5C21.6051 12.2356 21.8277 11.022 22.2337 9.89553C23.482 10.1758 25.2044 10.4623 27.0479 10.4623C29.0155 10.4623 31.1164 10.136 32.9108 9.12765C34.0355 8.49566 34.9405 7.63719 35.6352 6.57426C36.456 7.9479 38.6885 10.9288 42.618 11.0232C42.8081 11.8186 42.9118 12.6475 42.9118 13.5004C42.9118 19.3742 38.1323 24.1534 32.2584 24.1534Z" fill="#A3A3A3"/>
<path d="M36.6978 17.1667C36.4823 17.0766 36.2347 17.1777 36.1437 17.394C36.1352 17.4144 35.2581 19.4268 32.2581 19.4268C29.2895 19.4268 28.3845 17.4812 28.343 17.389C28.2494 17.1744 27.9997 17.0783 27.7872 17.1684C27.5726 17.2611 27.4735 17.5105 27.5658 17.7246C27.6106 17.8288 28.7041 20.2734 32.2581 20.2734C35.8148 20.2734 36.8811 17.8254 36.9247 17.7208C37.0153 17.5054 36.9137 17.2573 36.6978 17.1667Z" fill="#A3A3A3"/>
<path d="M27.2225 14.8512C27.5201 14.8512 27.7613 14.6099 27.7613 14.3123C27.7613 14.0147 27.5201 13.7734 27.2225 13.7734C26.9249 13.7734 26.6836 14.0147 26.6836 14.3123C26.6836 14.6099 26.9249 14.8512 27.2225 14.8512Z" fill="#A3A3A3"/>
<path d="M36.535 14.8512C36.8326 14.8512 37.0738 14.6099 37.0738 14.3123C37.0738 14.0147 36.8326 13.7734 36.535 13.7734C36.2374 13.7734 35.9961 14.0147 35.9961 14.3123C35.9961 14.6099 36.2374 14.8512 36.535 14.8512Z" fill="#A3A3A3"/>
<circle cx="13" cy="13" r="13" fill="white"/>
<path d="M13.2584 2C8.55422 2 4.50232 4.84082 2.72316 8.89611C2.01242 8.71662 1.57726 8.57228 1.55991 8.56677C1.33979 8.49015 1.09808 8.60953 1.02273 8.83092C0.947382 9.05188 1.06548 9.29275 1.28645 9.36809C1.35418 9.39138 1.76479 9.52768 2.40737 9.69573C1.98872 10.8873 1.75802 12.167 1.75802 13.5C1.75844 19.8411 6.91729 25 13.2584 25C19.5996 25 24.7584 19.8407 24.7584 13.5C24.7584 7.15927 19.5992 2 13.2584 2ZM23.3751 10.1681C19.5691 9.9239 17.5457 6.50823 17.1249 5.71368C17.406 5.14856 17.6359 4.53434 17.8137 3.87229C20.428 5.11385 22.4578 7.38998 23.3751 10.1681ZM13.2584 2.84662C14.5855 2.84662 15.8554 3.09256 17.028 3.53788C16.4578 5.75178 15.2768 7.38786 13.4976 8.38856C10.3626 10.1516 6.05544 9.62631 3.56342 9.09167C5.24395 5.41186 8.95594 2.84662 13.2584 2.84662ZM13.2584 24.1534C7.3842 24.1534 2.60505 19.3742 2.60505 13.5C2.60505 12.2356 2.82771 11.022 3.23367 9.89553C4.482 10.1758 6.20444 10.4623 8.04794 10.4623C10.0155 10.4623 12.1164 10.136 13.9108 9.12765C15.0355 8.49566 15.9405 7.63719 16.6352 6.57426C17.456 7.9479 19.6885 10.9288 23.618 11.0232C23.8081 11.8186 23.9118 12.6475 23.9118 13.5004C23.9118 19.3742 19.1323 24.1534 13.2584 24.1534Z" fill="black"/>
<path d="M17.6978 17.1667C17.4823 17.0766 17.2347 17.1777 17.1437 17.394C17.1352 17.4144 16.2581 19.4268 13.2581 19.4268C10.2895 19.4268 9.38445 17.4812 9.34297 17.389C9.24942 17.1744 8.99967 17.0783 8.78717 17.1684C8.57255 17.2611 8.4735 17.5105 8.56578 17.7246C8.61065 17.8288 9.70405 20.2734 13.2581 20.2734C16.8148 20.2734 17.8811 17.8254 17.9247 17.7208C18.0153 17.5054 17.9137 17.2573 17.6978 17.1667Z" fill="black"/>
<path d="M8.22246 14.8512C8.52007 14.8512 8.76134 14.6099 8.76134 14.3123C8.76134 14.0147 8.52007 13.7734 8.22246 13.7734C7.92485 13.7734 7.68359 14.0147 7.68359 14.3123C7.68359 14.6099 7.92485 14.8512 8.22246 14.8512Z" fill="black"/>
<path d="M17.535 14.8512C17.8326 14.8512 18.0738 14.6099 18.0738 14.3123C18.0738 14.0147 17.8326 13.7734 17.535 13.7734C17.2374 13.7734 16.9961 14.0147 16.9961 14.3123C16.9961 14.6099 17.2374 14.8512 17.535 14.8512Z" fill="black"/>
</svg>
