<svg width="30" height="20" viewBox="0 0 30 20" fill="none" xmlns="http://www.w3.org/2000/svg">
<path d="M24.935 4.48119L18.1147 5.31183V4.59167L24.935 3.76104V4.48119ZM23.4957 6.22191L18.1143 6.61268V7.32976L23.4957 6.939V6.22191ZM24 8.48808L18.1147 8.63266V9.34804L24 9.20346V8.48808ZM24.935 10.818L18.1147 10.6516V11.367L24.935 11.5331V10.818ZM24.4713 13.1319L18.1147 12.6702V13.387L24.4713 13.8487V13.1319ZM22.2073 15.1867L18.1147 14.6878V15.4076L22.2073 15.9065V15.1867ZM30 0V20L28.8063 19.8118V20L27.613 19.8118V20L15.8473 18.1481V11.5136L14.3667 12.6702V10.9592H11.7653V18.1481L0 20V0L11.7653 1.85154V9.04047H14.3667V7.32942L15.8473 8.48604V1.85154L27.613 0V0.187882L28.8063 0V0.187882L30 0ZM2.678 6.83091L8.05933 7.22167V6.50493L2.678 6.11416V6.83091ZM2.678 9.18164L8.56367 9.32622V8.61118L2.678 8.46626V9.18164ZM6.77067 15.0199L2.67767 15.5185V16.2386L6.77067 15.7394V15.0199ZM9.035 12.7071L2.67767 13.1684V13.8852L9.035 13.4238V12.7071ZM9.49833 10.6516L2.678 10.818V11.5331L9.49833 11.367V10.6516ZM9.49833 4.59167L2.678 3.76104V4.48119L9.49833 5.31183V4.59167ZM11.765 10.9592V9.04013H10.5213V10.9592H11.765ZM26.9307 0.813244L16.5297 2.44996V9.01831L17.786 10L16.5293 10.9813V17.5497L26.9303 19.1868V0.813244H26.9307ZM28.1243 0.813244L27.613 0.893716V19.1066L28.1243 19.1868V0.813244ZM29.318 0.813244L28.8063 0.893374V19.1063L29.318 19.1864V0.813244Z" fill="black"/>
</svg>
