<svg width="30" height="30" viewBox="0 0 30 30" fill="none" xmlns="http://www.w3.org/2000/svg">
<path d="M18.8342 17.0038C21.2544 14.5843 21.2544 10.6632 18.8342 8.24338C16.4162 5.82507 12.4936 5.82351 10.0742 8.24338C7.95701 10.3601 7.66714 13.7786 9.25286 16.1829L7.88377 17.5519L7.3913 17.0595L0 24.4508L2.62714 27.0779L10.0184 19.6862L9.52597 19.1934L10.8951 17.8243C13.2982 19.4193 16.7158 19.1217 18.8342 17.0038ZM8.97857 19.7416L2.68247 26.0381L1.03987 24.3955L7.33597 18.0986L8.97857 19.7416ZM8.43117 18.0986L9.80026 16.7295L10.3477 17.2769L8.97857 18.646L8.43117 18.0986ZM10.6212 16.4564C8.5087 14.3435 8.50909 10.9036 10.6216 8.79039C12.734 6.67753 16.1739 6.67753 18.2864 8.79039C20.3988 10.9032 20.3988 14.3431 18.2864 16.456C16.1739 18.5688 12.734 18.5692 10.6212 16.4564ZM14.6104 14.8052C12.2556 14.8052 10.9255 13.1723 10.8701 13.1026L10.7143 12.9078L10.8245 12.683C10.8604 12.6105 11.7288 10.9091 14.6104 10.9091C17.4919 10.9091 18.3604 12.6105 18.3962 12.683L18.5065 12.9078L18.3506 13.1026C18.2953 13.1723 16.9656 14.8052 14.6104 14.8052ZM13.6706 13.9173C13.5397 13.7271 13.4626 13.4957 13.4626 13.2468C13.4626 12.6023 13.9777 12.0779 14.6104 12.0779C15.2431 12.0779 15.7582 12.6023 15.7582 13.2468C15.7582 13.4961 15.681 13.7275 15.5501 13.9177C15.5501 13.9177 16.929 13.7653 17.5632 12.8151C17.2551 12.4344 16.4205 11.6883 14.6104 11.6883C12.8018 11.6883 11.9673 12.4329 11.6575 12.8155C12.4473 13.7108 13.6706 13.9173 13.6706 13.9173ZM14.6104 12.8571C14.3992 12.8571 14.2278 13.0321 14.2278 13.2468C14.2278 13.4614 14.3992 13.6364 14.6104 13.6364C14.8216 13.6364 14.993 13.4614 14.993 13.2468C14.993 13.0321 14.8216 12.8571 14.6104 12.8571ZM25.3247 0.779221H9.74026V6.62338C9.74026 6.83883 9.56571 7.01299 9.35065 7.01299C9.13558 7.01299 8.96104 6.83883 8.96104 6.62338V0.38961C8.96104 0.174156 9.13558 0 9.35065 0H25.7143C25.8179 0 25.9169 0.0409092 25.9897 0.114156L29.8858 4.01026C29.9591 4.08312 30 4.18208 30 4.28571V29.6104C30 29.8258 29.8258 30 29.6104 30H9.35065C9.13558 30 8.96104 29.8258 8.96104 29.6104V25.5195C8.96104 25.304 9.13558 25.1299 9.35065 25.1299C9.56571 25.1299 9.74026 25.304 9.74026 25.5195V29.2208H29.2208V4.67532H25.7143C25.4988 4.67532 25.3247 4.50117 25.3247 4.28571V0.779221ZM28.6699 3.8961L26.1039 1.33013V3.8961H28.6699ZM26.1039 24.5455H12.8571C12.6421 24.5455 12.4675 24.3713 12.4675 24.1558C12.4675 23.9404 12.6421 23.7662 12.8571 23.7662H26.1039C26.3193 23.7662 26.4935 23.9404 26.4935 24.1558C26.4935 24.3713 26.3193 24.5455 26.1039 24.5455ZM26.1039 21.4286H12.8571C12.6421 21.4286 12.4675 21.2544 12.4675 21.039C12.4675 20.8235 12.6421 20.6493 12.8571 20.6493H26.1039C26.3193 20.6493 26.4935 20.8235 26.4935 21.039C26.4935 21.2544 26.3193 21.4286 26.1039 21.4286ZM26.1039 18.3117H20.6493C20.4339 18.3117 20.2597 18.1375 20.2597 17.9221C20.2597 17.7066 20.4339 17.5325 20.6493 17.5325H26.1039C26.3193 17.5325 26.4935 17.7066 26.4935 17.9221C26.4935 18.1375 26.3193 18.3117 26.1039 18.3117ZM26.1039 15.1948H22.5974C22.3819 15.1948 22.2078 15.0206 22.2078 14.8052C22.2078 14.5897 22.3819 14.4156 22.5974 14.4156H26.1039C26.3193 14.4156 26.4935 14.5897 26.4935 14.8052C26.4935 15.0206 26.3193 15.1948 26.1039 15.1948ZM26.1039 12.0779H22.987C22.7716 12.0779 22.5974 11.9038 22.5974 11.6883C22.5974 11.4729 22.7716 11.2987 22.987 11.2987H26.1039C26.3193 11.2987 26.4935 11.4729 26.4935 11.6883C26.4935 11.9038 26.3193 12.0779 26.1039 12.0779ZM26.1039 8.96104H21.8182C21.6027 8.96104 21.4286 8.78688 21.4286 8.57143C21.4286 8.35597 21.6027 8.18182 21.8182 8.18182H26.1039C26.3193 8.18182 26.4935 8.35597 26.4935 8.57143C26.4935 8.78688 26.3193 8.96104 26.1039 8.96104Z" fill="black"/>
</svg>
