<svg width="21" height="25" viewBox="0 0 21 25" fill="none" xmlns="http://www.w3.org/2000/svg">
<path fill-rule="evenodd" clip-rule="evenodd" d="M15.6245 0.877416L14.3232 2.17877C15.8247 3.17981 16.8258 4.98169 16.8257 6.9837H4.81323C4.81323 4.98161 5.81428 3.27988 7.21573 2.17873L5.91438 0.877377C5.81428 0.677208 5.81428 0.276791 5.91438 0.076543C6.11459 -0.0235612 6.515 -0.0235612 6.71521 0.076543L8.11667 1.57811C8.91751 1.17773 9.81845 0.977481 10.8195 0.977481C11.8205 0.977481 12.7215 1.17773 13.4222 1.67825L14.9238 0.176687C15.124 -0.0235612 15.4243 -0.0235612 15.6245 0.176687C15.8247 0.376895 15.8247 0.677208 15.6245 0.877416ZM5.81354 18.9998C5.21292 18.9998 4.8125 18.5993 4.8125 17.9987V7.98828H16.825V17.9987C16.825 18.5993 16.4246 18.9998 15.824 18.9998H14.8229V22.5034C14.8229 23.3042 14.1222 24.005 13.3214 24.005C12.5205 24.005 11.8198 23.3042 11.8198 22.5034V18.9998H9.81771V22.5034C9.81771 23.3042 9.11698 24.005 8.31615 24.005C7.51532 24.005 6.81459 23.3042 6.81459 22.5034V18.9998H5.81354ZM8.81611 4.98322H7.81506V3.98218H8.81611V4.98322ZM12.8212 4.98322H13.8222V3.98218H12.8212V4.98322Z" fill="#31B702"/>
<path d="M2.31016 7.9834C1.50932 7.9834 0.808594 8.68417 0.808594 9.48496V16.4923C0.808594 17.2931 1.50932 17.9938 2.31016 17.9938C3.11099 17.9938 3.81172 17.2931 3.81172 16.4923V9.48496C3.81172 8.68413 3.11099 7.9834 2.31016 7.9834Z" fill="#31B702"/>
<path d="M19.3287 7.9834C18.5279 7.9834 17.8271 8.68417 17.8271 9.48496V16.4923C17.8271 17.2931 18.5279 17.9938 19.3287 17.9938C20.1295 17.9938 20.8303 17.2931 20.8303 16.4923V9.48496C20.8303 8.68413 20.1295 7.9834 19.3287 7.9834Z" fill="#31B702"/>
</svg>
