<svg width="19" height="24" viewBox="0 0 19 24" fill="none" xmlns="http://www.w3.org/2000/svg">
<path d="M0.980519 8.54749C-0.985034 11.9583 0.264504 17.1345 2.43809 20.273C3.52305 21.8421 4.6215 23.2505 6.12602 23.2505C6.15438 23.2505 6.18281 23.25 6.21193 23.2489C6.9188 23.2206 7.42961 23.003 7.92349 22.7927C8.47798 22.5564 9.05144 22.3121 9.95094 22.3121C10.8067 22.3121 11.3528 22.5485 11.8809 22.777C12.4014 23.0022 12.9375 23.2351 13.7297 23.2203C15.4244 23.1887 16.4649 21.6689 17.3829 20.3281C18.3409 18.9281 18.8214 17.5689 18.9836 17.0495L18.9901 17.0288C19.021 16.9365 18.9774 16.8357 18.8889 16.7951C18.8864 16.794 18.8775 16.7902 18.8749 16.7892C18.5765 16.6671 15.9587 15.5058 15.9311 12.3405C15.9056 9.76883 17.895 8.407 18.294 8.16017L18.3126 8.14859C18.3558 8.12076 18.3859 8.07663 18.3961 8.02616C18.4064 7.97578 18.3957 7.92333 18.3667 7.88095C16.9935 5.87141 14.8889 5.56856 14.0415 5.53212C13.9186 5.51985 13.7916 5.51367 13.6642 5.51367C12.6689 5.51367 11.7156 5.88955 10.9496 6.19157C10.4209 6.40006 9.9642 6.58011 9.64923 6.58011C9.2953 6.58011 8.83602 6.39785 8.30418 6.18685C7.59296 5.90457 6.78685 5.58472 5.93347 5.58472C5.91312 5.58472 5.89307 5.58495 5.87332 5.58533C3.8891 5.61452 2.01418 6.74972 0.980519 8.54749Z" fill="#242424"/>
<path d="M14.0431 0.00209959C12.8415 0.0510383 11.4001 0.790684 10.5386 1.7998C9.8064 2.64799 9.09115 4.06218 9.27958 5.48766C9.2914 5.57685 9.36397 5.64568 9.45369 5.65262C9.5348 5.65894 9.61758 5.66214 9.70006 5.66222C10.875 5.66222 12.1424 5.01222 13.008 3.9656C13.919 2.86044 14.3797 1.44213 14.2403 0.171708C14.2293 0.0721536 14.1417 -0.00178806 14.0431 0.00209959Z" fill="#242424"/>
</svg>
