<svg width="25" height="25" viewBox="0 0 25 25" fill="none" xmlns="http://www.w3.org/2000/svg">
<path d="M21.8483 20.7853C23.8069 18.578 25 15.6763 25 12.5C25 9.19526 23.7086 6.18836 21.6069 3.95086V3.95043C21.6052 3.94784 21.6026 3.94698 21.6013 3.94483C19.4121 1.61767 16.3448 0.128017 12.9332 0.0112069L12.9328 0.0107759L12.6892 0.00431034C12.6263 0.00215517 12.5634 0 12.5 0C12.4366 0 12.3737 0.00215517 12.3108 0.00431034L12.0681 0.0107759L12.0677 0.0112069C8.65603 0.128017 5.58879 1.61767 3.39957 3.94483C3.39784 3.94698 3.39526 3.94784 3.39397 3.95043C3.39397 3.95043 3.39397 3.95086 3.39353 3.95129C1.29138 6.18836 0 9.19526 0 12.5C0 15.6763 1.1931 18.578 3.15172 20.7853C3.15431 20.7892 3.15431 20.7935 3.15733 20.7974C3.16509 20.8082 3.17629 20.8134 3.18448 20.8233C5.38534 23.2836 8.5431 24.8685 12.0672 24.9892L12.0677 24.9897L12.3103 24.9961C12.3737 24.9978 12.4366 25 12.5 25C12.5634 25 12.6263 24.9978 12.6892 24.9957L12.9319 24.9892L12.9323 24.9888C16.4603 24.8677 19.6216 23.2797 21.8224 20.8142C21.828 20.8069 21.8371 20.8047 21.8422 20.797C21.8457 20.7935 21.8457 20.7892 21.8483 20.7853ZM0.872845 12.931H6.04655C6.09526 14.7582 6.45216 16.5336 7.0875 18.197C5.86164 18.6405 4.68965 19.2353 3.59138 19.9776C1.97629 18.0565 0.971121 15.6078 0.872845 12.931ZM3.82672 4.75129C4.89914 5.44871 6.04095 6.00733 7.2319 6.42457C6.50259 8.19483 6.09914 10.1034 6.04655 12.069H0.872845C0.975862 9.26422 2.07414 6.71034 3.82672 4.75129ZM24.1272 12.069H18.9534C18.9009 10.1034 18.4974 8.19483 17.7681 6.42457C18.9591 6.00733 20.1009 5.44871 21.1733 4.75129C22.9259 6.71034 24.0241 9.26422 24.1272 12.069ZM12.069 6.44957C10.8228 6.41422 9.59957 6.22845 8.41767 5.89655C9.29138 4.10431 10.525 2.48664 12.069 1.13966V6.44957ZM12.069 7.31164V12.069H6.90862C6.96164 10.1948 7.35474 8.37716 8.05776 6.69181C9.35345 7.06724 10.6987 7.275 12.069 7.31164ZM12.931 7.31164C14.3013 7.275 15.6466 7.06767 16.9427 6.69181C17.6457 8.37716 18.0388 10.1948 18.0918 12.069H12.931V7.31164ZM12.931 6.44957V1.13966C14.475 2.48664 15.7086 4.10431 16.5823 5.89655C15.4004 6.22845 14.1772 6.41422 12.931 6.44957ZM17.4177 5.63448C16.5897 3.89957 15.4405 2.31897 14.0177 0.964224C16.5418 1.2944 18.8129 2.43578 20.5621 4.11853C19.569 4.74871 18.5155 5.2556 17.4177 5.63448ZM7.58233 5.63448C6.48448 5.2556 5.43103 4.74871 4.43836 4.11853C6.18707 2.43578 8.45862 1.2944 10.9828 0.964224C9.55948 2.31897 8.41034 3.89957 7.58233 5.63448ZM6.90862 12.931H12.069V17.2578C10.6435 17.2957 9.24698 17.5181 7.90474 17.922C7.29828 16.3465 6.95733 14.6634 6.90862 12.931ZM12.069 18.1198V23.8603C10.4164 22.4185 9.12069 20.6668 8.23965 18.7237C9.47543 18.3595 10.7591 18.1569 12.069 18.1198ZM12.931 23.8603V18.1198C14.2409 18.1565 15.5246 18.3595 16.7603 18.7233C15.8793 20.6668 14.5836 22.4185 12.931 23.8603ZM12.931 17.2578V12.931H18.0914C18.0427 14.6634 17.7017 16.3466 17.0948 17.9224C15.753 17.5181 14.3565 17.2957 12.931 17.2578ZM18.9534 12.931H24.1272C24.0289 15.6078 23.0241 18.0565 21.4086 19.9776C20.3103 19.2353 19.1384 18.6405 17.9125 18.197C18.5483 16.5336 18.9047 14.7582 18.9534 12.931ZM4.17716 20.6233C5.19698 19.9457 6.28276 19.4009 7.41724 18.9935C8.2556 20.8728 9.45905 22.5853 10.9823 24.0358C8.33103 23.6888 5.95819 22.4474 4.17716 20.6233ZM14.0177 24.0358C15.5409 22.5858 16.7444 20.8733 17.5828 18.9935C18.7172 19.4009 19.8026 19.9457 20.8228 20.6233C19.0418 22.4474 16.669 23.6888 14.0177 24.0358Z" fill="black" fill-opacity="0.4"/>
</svg>
