<svg width="138" height="47" viewBox="0 0 138 47" fill="none" xmlns="http://www.w3.org/2000/svg">
<path d="M83.2411 17.2252C80.6845 17.2252 78.8047 18.2498 77.6392 19.9574C76.5865 18.2118 74.857 17.2252 72.526 17.2252C70.1198 17.2252 68.3527 18.1739 67.3 19.7677V17.7565H62.45V36.7302H67.3V26.0669C67.3 23.2209 68.7663 21.7789 70.8341 21.7789C72.8643 21.7789 73.9923 23.145 73.9923 25.3839V36.7302H78.8423V26.0669C78.8423 23.2209 80.1958 21.7789 82.3388 21.7789C84.3691 21.7789 85.497 23.145 85.497 25.3839V36.7302H90.347V25.0424C90.347 20.2989 87.5272 17.2252 83.2411 17.2252Z" fill="#232939"/>
<path d="M108.753 17.7565V19.9954C107.4 18.2877 105.369 17.2252 102.625 17.2252C97.6244 17.2252 93.4887 21.5892 93.4887 27.2433C93.4887 32.8975 97.6244 37.2614 102.625 37.2614C105.369 37.2614 107.4 36.1989 108.753 34.4913V36.7302H113.603V17.7565H108.753ZM103.527 32.5939C100.557 32.5939 98.3387 30.4309 98.3387 27.2433C98.3387 24.0557 100.557 21.8927 103.527 21.8927C106.535 21.8927 108.753 24.0557 108.753 27.2433C108.753 30.4309 106.535 32.5939 103.527 32.5939Z" fill="#232939"/>
<path d="M128.754 22.4619V17.7565H124.505V12.4438L119.655 13.9238V17.7565H116.384V22.4619H119.655V30.355C119.655 35.4779 121.949 37.4891 128.754 36.7302V32.2903C125.972 32.4421 124.505 32.4042 124.505 30.355V22.4619H128.754Z" fill="#232939"/>
<path d="M134.58 15.4796C136.234 15.4796 137.587 14.1135 137.587 12.4818C137.587 10.85 136.234 9.44599 134.58 9.44599C132.963 9.44599 131.61 10.85 131.61 12.4818C131.61 14.1135 132.963 15.4796 134.58 15.4796ZM132.173 36.7302H137.023V17.7565H132.173V36.7302Z" fill="#232939"/>
<path d="M43.8247 21.7451C44.0779 20.7154 44.331 19.514 44.4154 18.2268C44.4154 19.3423 44.2044 20.5437 43.8247 21.7451Z" fill="#00AB62"/>
<path d="M7.15845 28.0083C6.82091 26.7211 6.69434 25.4768 6.69434 24.3183C6.82091 26.5066 7.15845 27.9225 7.15845 28.0083Z" fill="#00B4FF"/>
<path d="M7.15845 28.0088C7.11626 27.923 6.77872 26.5071 6.69434 24.3188V24.2759C6.69434 23.0745 6.82091 21.9589 7.07407 20.8862C6.65214 24.5333 7.11626 27.7514 7.15845 28.0088Z" fill="#706766"/>
<path d="M13.3336 34.1119C12.0561 37.32 10.853 40.9006 10.1201 43.1684C9.67848 44.5347 8.42126 45.471 6.99732 45.471C5.74358 45.471 5.36081 44.4269 6.52924 43.968C6.84944 43.8423 7.07902 43.7665 7.11123 43.7559C7.11468 43.7548 7.1153 43.7547 7.11869 43.7534C7.22464 43.7125 9.63574 42.6138 7.1995 28.0079C11.2921 30.1532 12.7429 30.8939 13.3336 34.1119Z" fill="#FFC766"/>
<path d="M7.15845 28.0083C6.82091 26.7211 6.69434 25.4768 6.69434 24.3183C6.82091 26.5066 7.15845 27.9225 7.15845 28.0083Z" fill="#FFA200"/>
<path d="M16.0651 29.0365C13.4914 28.9078 10.3011 29.1165 7.1626 28.0068C7.28917 27.7494 9.35347 22.8579 12.096 16.9796C13.4039 16.4647 15.1331 15.8654 17.1552 16.6806C17.1552 16.6806 17.1177 16.7277 17.2443 16.7706C17.7523 20.7317 17.1536 24.9857 16.0651 29.0365Z" fill="#EA6766"/>
<path d="M16.0651 29.0376C15.39 31.8695 14.4618 34.5297 13.5758 36.8038C12.9429 33.5857 11.2552 30.1103 7.1626 28.0079C10.538 28.6085 13.4914 28.9089 16.0651 29.0376Z" fill="#EA6766"/>
<path d="M18.8896 29.1239C17.927 35.8362 16.7963 42.4346 15.7943 45.1359C15.4837 45.9735 14.653 46.3295 13.7669 46.3295H13.4608C12.2534 46.3295 11.2593 45.9306 12.2304 45.2064C12.5852 44.9417 13.5065 44.1178 13.5836 43.6793C13.798 42.461 14.1339 39.7495 13.5734 36.8042C14.4594 34.5301 15.3876 31.8699 16.0627 29.0381C17.0753 29.1239 18.0035 29.1239 18.8896 29.1239Z" fill="#EA6766"/>
<path d="M21.1628 11.0077C20.4033 10.8361 19.7282 10.7074 19.0532 10.6216C18.0406 10.4928 17.1123 10.4928 16.2685 10.5357C16.2685 10.5357 16.2685 10.5786 16.3107 10.5786C16.9858 11.9517 20.783 14.3116 20.783 14.3116C20.783 17.1434 17.9108 16.8105 17.1514 16.7247C17.4045 20.9296 16.9661 25.3387 16.0378 29.1574C17.0504 29.2004 18.888 29.1478 19.7741 29.105C21.0398 20.1374 21.205 11.0077 21.1628 11.0077C21.205 11.0077 21.205 11.0077 21.1628 11.0077Z" fill="#EA6766"/>
<path d="M12.1365 16.9818C9.39404 22.8601 7.28444 27.7515 7.15787 28.009C7.15787 27.5798 6.9891 19.0843 12.1365 16.9818Z" fill="#EA6766"/>
<path d="M16.275 10.46C15.8952 10.5029 15.5155 10.5458 15.178 10.5887C15.3889 10.1167 15.6421 9.64475 15.8952 9.12987C16.0218 9.47312 16.275 10.3742 16.275 10.46Z" fill="#706766"/>
<path d="M15.8958 9.12987C15.6426 9.60184 15.4317 10.0738 15.1785 10.5887C14.5456 10.6745 13.9128 10.8461 13.3643 11.0607C14.7988 9.81638 15.8958 9.12987 15.8958 9.12987Z" fill="#706766"/>
<path d="M20.7895 14.2342C20.7895 17.0661 17.9117 16.8105 17.1523 16.7247C17.0257 14.5794 16.9078 12.6038 16.3171 10.5013C16.95 11.8743 20.7895 14.2342 20.7895 14.2342Z" fill="#706766"/>
<path d="M13.3618 11.0613C11.1256 12.9922 8.12999 16.3818 7.0752 20.9299C7.53931 17.0254 9.05822 12.6489 13.3618 11.0613Z" fill="#706766"/>
<path d="M15.1764 10.5878C14.1216 12.7331 13.109 14.9214 12.1386 16.9809C6.94898 19.0833 7.15994 27.579 7.15994 28.008C7.11774 27.7506 6.65363 24.5325 7.03336 20.9283C8.08816 16.3373 11.126 12.9906 13.32 11.0597C13.9107 10.8452 14.5435 10.6736 15.1764 10.5878Z" fill="#706766"/>
<path d="M17.1546 16.7269C17.0281 16.7269 17.0209 16.7269 17.0209 16.7269C14.9957 16.212 13.4488 16.4234 12.1409 16.9383C13.1113 14.8787 14.1239 12.6905 15.1787 10.5451C15.5162 10.5022 15.896 10.4593 16.2757 10.4164C16.2757 10.4164 16.2757 10.4593 16.3179 10.4593C16.9086 12.6047 17.0281 14.6244 17.1546 16.7269Z" fill="#706766"/>
<path d="M39.4928 36.8653C39.7343 37.4672 39.791 38.1378 39.595 38.7564L37.9942 43.8087C37.6724 44.8244 36.737 45.5136 35.6805 45.5136H35.4347C33.8361 45.5136 33.3031 44.3102 34.7733 43.6766C34.9599 43.5962 35.0771 43.5512 35.0771 43.5512C35.0771 43.5512 38.1135 39.3831 32.18 32.1696C30.6611 30.6678 29.6485 28.8228 28.9734 26.8491C29.9438 26.2484 30.7336 25.4188 31.2821 24.6894C31.4509 25.0327 31.7422 25.3549 31.817 25.7242C31.8592 25.7671 31.9507 25.8183 31.9507 25.9041C32.8789 27.3629 34.0446 28.7088 35.6057 29.9531C36.7871 30.897 37.6966 31.8434 38.4138 32.7874C38.6197 34.4624 39.1278 35.9554 39.4928 36.8653Z" fill="#CAEE66"/>
<path d="M31.2096 24.7469C31.3784 25.0902 31.5893 25.3905 31.7581 25.7338C31.5893 25.3905 31.3784 25.0902 31.2096 24.7469C30.1126 22.7732 29.3532 20.4133 29.0156 17.5815C29.311 19.8555 29.9439 22.3441 31.2096 24.7469Z" fill="#A6E200"/>
<path d="M43.7841 21.7865C43.4465 22.945 43.109 23.8031 42.9824 24.1035C43.109 23.5457 43.32 22.9879 43.5309 22.4301C43.6575 22.2156 43.7419 22.001 43.7841 21.7865Z" fill="#A6E200"/>
<path d="M44.3711 18.1835C44.2445 13.335 40.0676 9.4305 32.8105 9.51631C32.9793 9.51631 33.1481 9.51631 33.3169 9.51631C33.57 9.51631 33.8232 9.51631 34.1185 9.51631C36.0171 9.51631 37.5782 9.77375 38.844 10.1599H38.8862C43.4851 11.5758 44.4977 15.0513 44.3711 18.1835Z" fill="#A6E200"/>
<path d="M44.8482 36.0654C45.1681 36.6608 45.3034 37.3527 45.1602 38.0144L43.777 44.4027C43.5332 45.5285 42.5456 46.3311 41.4039 46.3311H40.5663C39.0255 46.3311 38.5663 45.2517 40.0143 44.7202C40.0493 44.7074 40.0685 44.7006 40.0685 44.7006C40.0685 44.7006 45.5208 42.3275 38.3808 33.0108C38.3386 32.6675 38.3808 32.1289 38.3808 31.7856C40.2795 32.8583 42.2203 33.5448 43.908 34.0168C44.2386 34.8673 44.5782 35.5627 44.8482 36.0654Z" fill="#66AA66"/>
<path d="M38.7178 33.623C37.7461 31.6615 36.7334 30.9269 35.5942 29.9829C34.0331 28.7386 32.8518 27.3227 31.8813 25.8639C33.6534 28.567 37.5032 29.5775 38.3789 31.8279C38.3789 32.1712 41.8757 37.3006 38.7178 33.623Z" fill="#66AA66"/>
<path d="M43.8631 34.0155C42.1754 33.5435 40.2346 32.857 38.3359 31.7843C38.3359 29.167 39.3064 26.1635 42.9349 24.1898C42.9349 24.1898 42.9349 24.1469 42.9771 24.104C41.9644 27.9656 42.8927 31.6127 43.8631 34.0155Z" fill="#66AA66"/>
<path d="M44.3712 18.1835C44.329 19.5136 44.0759 20.715 43.7805 21.7448C43.7805 21.7448 43.7805 21.7448 43.7805 21.7877C43.6961 22.0022 43.6117 22.2168 43.5274 22.4313C43.2742 22.9891 43.1055 23.5469 42.9789 24.1047C42.9366 24.1905 42.9366 24.1905 42.9366 24.1905C39.3081 26.1642 38.3377 29.1677 38.3799 31.8279C36.0172 30.4978 33.6544 28.6099 31.8823 25.8639C31.8402 25.8209 31.798 25.7781 31.798 25.6923C31.587 25.3919 31.4182 25.0487 31.2495 24.7053C35.2155 19.0417 29.1851 9.88942 29.1851 9.88942C29.1851 9.88942 29.3086 9.81666 29.5196 9.81666C29.5618 9.81666 29.6462 9.81666 29.6884 9.77375C30.7853 9.64503 31.798 9.55922 32.7684 9.51631H32.8106C40.0676 9.4305 44.2446 13.335 44.3712 18.1835Z" fill="#66AA66"/>
<path d="M29.015 26.8524C26.9054 28.1826 23.6988 29.0836 18.9312 29.1265C20.2391 20.1161 21.1636 11.0158 21.1636 11.0158C23.2311 11.2304 25.935 10.9769 29.1838 9.9042C29.015 10.3762 26.5257 19.5154 29.015 26.8524Z" fill="#EA6766"/>
<path d="M31.281 24.7332C30.7325 25.5055 29.9336 26.247 28.9632 26.8476C26.4738 19.5106 29.0149 10.4039 29.1415 9.93193C29.0993 10.2323 28.4663 13.418 28.9726 17.4941V17.537C29.3524 20.4118 30.2262 22.7594 31.281 24.7332Z" fill="#EA6766"/>
<path d="M28.7977 17.4132C28.2914 13.2941 29.051 10.2027 29.1848 9.8878C29.1848 9.8878 35.6341 19.554 31.1906 24.7791C30.1358 22.8054 29.1353 20.245 28.7977 17.4132Z" fill="#66AA66"/>
<path d="M43.571 22.3873C43.6553 22.1727 43.7397 21.9582 43.8241 21.7437C43.4866 22.9022 43.149 23.7603 43.0225 24.0606C43.149 23.5458 43.3178 22.988 43.571 22.3873Z" fill="#66D2FF"/>
<path d="M44.3751 18.2268C44.4173 19.3423 44.2063 20.5437 43.7844 21.7451C44.0798 20.7583 44.3329 19.514 44.3751 18.2268Z" fill="#FFBD00"/>
<path d="M48.712 34.4925C48.812 34.6703 48.6769 34.9006 48.4751 34.8832C47.668 34.8136 45.9514 34.6125 43.8671 34.0595C42.8967 31.6568 41.9684 28.0097 42.981 24.1052C43.1076 23.8048 43.4452 22.9467 43.7827 21.7882C43.7827 21.7882 43.7827 21.7882 43.7827 21.7453C44.2046 20.5439 44.3734 19.3425 44.3734 18.2269V18.184C44.5 15.0518 43.4874 11.5763 38.8884 10.1604C42.5169 11.1902 45.8079 13.6788 45.8079 19.2567C45.8079 28.5166 47.955 33.1475 48.712 34.4925Z" fill="#66D2FF"/>
<path d="M44.3694 18.1826C44.2428 13.3341 40.0658 9.42959 32.8087 9.51541H32.7665C31.8383 9.55831 30.7835 9.64413 29.6865 9.77285C29.8553 9.72994 30.0241 9.72994 30.235 9.68703C30.3194 9.68703 30.3616 9.68703 30.446 9.64413C30.5304 9.64413 30.6569 9.64413 30.7835 9.60122C31.0367 9.55831 31.332 9.55831 31.6696 9.51541C31.7961 9.51541 31.9227 9.51541 32.0493 9.4725C32.1337 9.4725 32.1759 9.4725 32.2602 9.4725C32.5978 9.4725 32.9353 9.42959 33.2728 9.42959C33.526 9.42959 33.7792 9.42959 34.0745 9.42959C35.5512 9.4725 37.2389 9.64413 38.8 10.0732H38.8422C43.4833 11.5749 44.496 15.0504 44.3694 18.1826Z" fill="#66D2FF"/>
<path fill-rule="evenodd" clip-rule="evenodd" d="M15.851 0.934355C15.851 0.934355 13.7836 1.57796 12.8554 2.95098C12.8976 2.82226 13.2351 1.36342 12.7711 0.891448C12.7288 0.848541 0.704102 3.80913 0.704102 12.8196C0.704102 23.5034 6.90633 27.837 7.15948 28.0087C-5.18265 9.43446 13.1293 6.03359 14.2057 5.83369L14.2097 5.83296L14.2191 5.84932C7.19961 11.6401 6.4425 19.691 6.65318 24.3186C6.65318 23.1172 6.77975 22.0016 7.03291 20.929C7.49701 17.0245 9.01593 12.6479 13.3196 11.0604C14.754 9.81609 15.8089 9.1725 15.8089 9.1725H15.851C15.3384 7.80905 14.3466 6.07081 14.2191 5.84932L14.2477 5.82575C14.2405 5.82722 14.2277 5.8296 14.2097 5.83296L14.2055 5.82575C14.2055 5.82575 16.3151 2.99388 15.851 0.934355ZM8.84747 4.7528C8.84747 4.7528 10.5774 2.13548 12.476 1.44896C12.5182 1.44896 12.8135 4.58117 8.84747 4.7528ZM15.3872 1.70656C13.9526 2.47889 13.4041 4.06644 13.4041 4.06644C14.5795 3.74044 15.1536 2.28297 15.3293 1.83679C15.3617 1.75446 15.3806 1.70656 15.3872 1.70656Z" fill="#66D2FF"/>
<path d="M6.69742 24.3179C6.69742 25.5193 6.86618 26.7208 7.16153 28.008C-5.41169 9.086 13.8278 5.91089 14.2498 5.82508C7.24591 11.6175 6.44427 19.6411 6.69742 24.3179Z" fill="#66D2FF"/>
<path d="M7.15845 28.0083C6.82091 26.7211 6.69434 25.4768 6.69434 24.3183C6.82091 26.5066 7.15845 27.9225 7.15845 28.0083Z" fill="#00B4FF"/>
<path d="M8.84351 4.75308C8.84351 4.75308 10.5734 2.13575 12.472 1.44924C12.5142 1.44924 12.8096 4.58145 8.84351 4.75308Z" fill="#5AC8F6"/>
<path d="M15.3453 1.70488C15.3453 1.70488 14.7546 3.72151 13.3623 4.06477C13.4045 4.06477 13.953 2.47721 15.3453 1.70488Z" fill="#5AC8F6"/>
</svg>
