<svg width="50" height="65" viewBox="0 0 50 65" fill="none" xmlns="http://www.w3.org/2000/svg">
<rect x="0.740234" y="0.533203" width="49.107" height="64.453" rx="4" fill="#FACCD9"/>
<path d="M16.0972 35.5855C18.5197 37.9951 21.7356 39.3217 25.151 39.3224C25.1517 39.3224 25.1525 39.3224 25.1532 39.3224C25.154 39.3224 25.1555 39.3224 25.1563 39.3224H25.2192C32.2729 39.286 37.9864 33.5399 37.9955 26.4961C37.9955 26.4915 37.9955 26.4862 37.9955 26.4809C37.9955 26.4764 37.9955 26.4726 37.9955 26.4688C37.9955 26.4513 37.9955 26.4331 37.9955 26.4149C37.9788 23.0094 36.6424 19.808 34.2343 17.3999C31.8262 14.9925 28.6247 13.6561 25.2169 13.6387H25.088C18.0343 13.6751 12.3208 19.4219 12.3133 26.4665C12.3133 26.4711 12.3125 26.4764 12.3125 26.4809C12.3125 26.484 12.3133 26.4877 12.3133 26.4915C12.3133 26.5097 12.3125 26.5279 12.3125 26.5461C12.3292 29.9645 13.6739 33.1751 16.0972 35.5855ZM27.7934 37.7653C29.1943 36.2977 30.2941 34.6002 31.054 32.7496C32.0014 33.1349 32.9191 33.6173 33.7928 34.1952C32.2319 35.9427 30.15 37.2139 27.7934 37.7653ZM34.5794 33.2138C33.5941 32.5524 32.5573 32.0048 31.4849 31.5717C31.8641 30.3976 32.1121 29.1704 32.219 27.9106C32.241 27.6421 32.2577 27.3736 32.2668 27.1059H36.7258C36.6037 29.3752 35.8255 31.4731 34.5794 33.2138ZM34.5725 19.7519C35.8225 21.4925 36.6029 23.5897 36.7251 25.8537H32.263C32.2024 24.3277 31.9263 22.832 31.4515 21.4015C32.533 20.9684 33.579 20.417 34.5725 19.7519ZM33.7853 18.7712C32.9001 19.3559 31.9695 19.8429 31.0093 20.2297C30.3767 18.7287 29.5129 17.3149 28.4328 16.0346C28.1795 15.7351 27.9133 15.4446 27.6395 15.1632C30.0514 15.6956 32.1887 16.9865 33.7853 18.7712ZM25.7797 15.1351C26.388 15.6569 26.9584 16.2303 27.4741 16.8424C28.4677 18.0188 29.2482 19.3051 29.8216 20.6529C28.5049 21.064 27.1457 21.2968 25.7797 21.3515V15.1351ZM25.7797 22.6052C27.2944 22.5491 28.8029 22.2897 30.2637 21.8278C30.6945 23.1391 30.9395 24.4945 31.0002 25.8537H25.7797V22.6052ZM25.7797 27.1067H31.0055C30.9532 28.4749 30.715 29.8341 30.2956 31.1439C28.8257 30.6744 27.3057 30.4128 25.7797 30.3559V27.1067ZM25.7797 31.6096C27.1601 31.665 28.5352 31.9016 29.8655 32.3218C28.9926 34.4296 27.6243 36.3675 25.7797 37.9504V31.6096ZM16.5182 34.1922C17.3911 33.615 18.3074 33.1334 19.2532 32.7496C19.8895 34.2908 20.7686 35.7417 21.8752 37.0516C22.0807 37.295 22.2954 37.5332 22.5153 37.7638C20.1618 37.2131 18.0798 35.9397 16.5182 34.1922ZM24.5275 37.9511C23.9192 37.4293 23.3481 36.8559 22.8323 36.2431C21.8115 35.0348 21.0158 33.7106 20.4379 32.3226C21.7705 31.9024 23.1463 31.665 24.5275 31.6096V37.9511ZM24.5275 30.3559C22.9992 30.4128 21.4777 30.6752 20.0071 31.1455C19.5854 29.8288 19.351 28.4696 19.301 27.1074H24.5275V30.3559ZM24.5275 25.8537H19.3078C19.3707 24.4884 19.6187 23.1338 20.0465 21.8293C21.505 22.2904 23.0136 22.5491 24.5275 22.6052V25.8537ZM24.5275 15.1351V21.3515C23.163 21.2968 21.8046 21.0648 20.4879 20.6544C21.3632 18.5884 22.714 16.6907 24.5275 15.1351ZM22.6685 15.1601C21.2206 16.6361 20.0829 18.3533 19.2972 20.2297C18.3339 19.8414 17.401 19.3529 16.5136 18.7651C18.1079 16.9804 20.2475 15.6903 22.6685 15.1601ZM15.7271 19.7466C16.7229 20.4163 17.7727 20.9684 18.8573 21.403C18.4583 22.6113 18.1982 23.8749 18.0882 25.1756C18.0692 25.4016 18.0556 25.6284 18.0465 25.8544H13.5814C13.7028 23.5859 14.4802 21.4872 15.7271 19.7466ZM18.0396 27.1067C18.0897 28.6372 18.3536 30.1375 18.8186 31.5732C17.7491 32.0055 16.7138 32.5524 15.7309 33.2123C14.4825 31.4723 13.7043 29.3744 13.5822 27.1074H18.0396V27.1067Z" fill="#EF557F"/>
<path d="M39.4768 50.3262H12.0828C11.0695 50.3262 10.248 51.1468 10.248 52.1601C10.248 53.1742 11.0695 53.9948 12.0828 53.9948H39.4768C40.4901 53.9948 41.3108 53.1742 41.3108 52.1601C41.3108 51.1468 40.4901 50.3262 39.4768 50.3262Z" fill="#EF557F"/>
</svg>
